  0
SECTION
  2
BLOCKS
  0
ENDSEC
  0
SECTION
  2
ENTITIES
  0
LINE
  8
0
 10
-13.724
 20
-0.842632
 11
-13.7166
 21
-0.98103
  0
LINE
  8
0
 10
-13.7166
 20
-0.98103
 11
-13.7042
 21
-1.11907
  0
LINE
  8
0
 10
-13.7042
 20
-1.11907
 11
-13.6535
 21
-1.22079
  0
LINE
  8
0
 10
-13.6535
 20
-1.22079
 11
-13.5532
 21
-1.26328
  0
LINE
  8
0
 10
-13.5532
 20
-1.26328
 11
-13.4432
 21
-1.27004
  0
LINE
  8
0
 10
-13.4432
 20
-1.27004
 11
-13.3346
 21
-1.29029
  0
LINE
  8
0
 10
-13.3346
 20
-1.29029
 11
-13.228
 21
-1.32365
  0
LINE
  8
0
 10
-13.228
 20
-1.32365
 11
-13.1244
 21
-1.36974
  0
LINE
  8
0
 10
-13.1244
 20
-1.36974
 11
-13.0132
 21
-1.46067
  0
LINE
  8
0
 10
-13.0132
 20
-1.46067
 11
-12.9258
 21
-1.57391
  0
LINE
  8
0
 10
-12.9258
 20
-1.57391
 11
-12.864
 21
-1.70378
  0
LINE
  8
0
 10
-12.864
 20
-1.70378
 11
-12.8291
 21
-1.84455
  0
LINE
  8
0
 10
-12.8291
 20
-1.84455
 11
-12.8229
 21
-1.98943
  0
LINE
  8
0
 10
-12.8229
 20
-1.98943
 11
-12.8457
 21
-2.13147
  0
LINE
  8
0
 10
-12.8457
 20
-2.13147
 11
-12.8976
 21
-2.26474
  0
LINE
  8
0
 10
-12.8976
 20
-2.26474
 11
-12.9787
 21
-2.38332
  0
LINE
  8
0
 10
-12.9787
 20
-2.38332
 11
-13.0651
 21
-2.45656
  0
LINE
  8
0
 10
-13.0651
 20
-2.45656
 11
-13.158
 21
-2.5186
  0
LINE
  8
0
 10
-13.158
 20
-2.5186
 11
-13.2565
 21
-2.56874
  0
LINE
  8
0
 10
-13.2565
 20
-2.56874
 11
-13.3601
 21
-2.60626
  0
LINE
  8
0
 10
-13.3601
 20
-2.60626
 11
-13.4444
 21
-2.67517
  0
LINE
  8
0
 10
-13.4444
 20
-2.67517
 11
-13.4644
 21
-2.78719
  0
LINE
  8
0
 10
-13.4644
 20
-2.78719
 11
-13.4374
 21
-2.92312
  0
LINE
  8
0
 10
-13.4374
 20
-2.92312
 11
-13.4055
 21
-3.058
  0
LINE
  8
0
 10
-13.4055
 20
-3.058
 11
-13.3408
 21
-3.15146
  0
LINE
  8
0
 10
-13.3408
 20
-3.15146
 11
-13.2354
 21
-3.17924
  0
LINE
  8
0
 10
-13.2354
 20
-3.17924
 11
-13.1256
 21
-3.17028
  0
LINE
  8
0
 10
-13.1256
 20
-3.17028
 11
-13.0152
 21
-3.17486
  0
LINE
  8
0
 10
-13.0152
 20
-3.17486
 11
-12.905
 21
-3.19272
  0
LINE
  8
0
 10
-12.905
 20
-3.19272
 11
-12.7959
 21
-3.2236
  0
LINE
  8
0
 10
-12.7959
 20
-3.2236
 11
-12.6729
 21
-3.29777
  0
LINE
  8
0
 10
-12.6729
 20
-3.29777
 11
-12.5703
 21
-3.39742
  0
LINE
  8
0
 10
-12.5703
 20
-3.39742
 11
-12.4905
 21
-3.51717
  0
LINE
  8
0
 10
-12.4905
 20
-3.51717
 11
-12.436
 21
-3.65155
  0
LINE
  8
0
 10
-12.436
 20
-3.65155
 11
-12.4092
 21
-3.79407
  0
LINE
  8
0
 10
-12.4092
 20
-3.79407
 11
-12.4116
 21
-3.93791
  0
LINE
  8
0
 10
-12.4116
 20
-3.93791
 11
-12.444
 21
-4.0772
  0
LINE
  8
0
 10
-12.444
 20
-4.0772
 11
-12.5074
 21
-4.20612
  0
LINE
  8
0
 10
-12.5074
 20
-4.20612
 11
-12.5826
 21
-4.29092
  0
LINE
  8
0
 10
-12.5826
 20
-4.29092
 11
-12.6656
 21
-4.36554
  0
LINE
  8
0
 10
-12.6656
 20
-4.36554
 11
-12.756
 21
-4.42919
  0
LINE
  8
0
 10
-12.756
 20
-4.42919
 11
-12.8532
 21
-4.48106
  0
LINE
  8
0
 10
-12.8532
 20
-4.48106
 11
-12.9269
 21
-4.56129
  0
LINE
  8
0
 10
-12.9269
 20
-4.56129
 11
-12.9307
 21
-4.675
  0
LINE
  8
0
 10
-12.9307
 20
-4.675
 11
-12.8846
 21
-4.8057
  0
LINE
  8
0
 10
-12.8846
 20
-4.8057
 11
-12.8338
 21
-4.93467
  0
LINE
  8
0
 10
-12.8338
 20
-4.93467
 11
-12.7565
 21
-5.01798
  0
LINE
  8
0
 10
-12.7565
 20
-5.01798
 11
-12.6483
 21
-5.03048
  0
LINE
  8
0
 10
-12.6483
 20
-5.03048
 11
-12.5408
 21
-5.00598
  0
LINE
  8
0
 10
-12.5408
 20
-5.00598
 11
-12.4309
 21
-4.9948
  0
LINE
  8
0
 10
-12.4309
 20
-4.9948
 11
-12.3193
 21
-4.9968
  0
LINE
  8
0
 10
-12.3193
 20
-4.9968
 11
-12.2069
 21
-5.01184
  0
LINE
  8
0
 10
-12.2069
 20
-5.01184
 11
-12.0745
 21
-5.06774
  0
LINE
  8
0
 10
-12.0745
 20
-5.06774
 11
-11.9588
 21
-5.15178
  0
LINE
  8
0
 10
-11.9588
 20
-5.15178
 11
-11.8629
 21
-5.25896
  0
LINE
  8
0
 10
-11.8629
 20
-5.25896
 11
-11.7898
 21
-5.38422
  0
LINE
  8
0
 10
-11.7898
 20
-5.38422
 11
-11.743
 21
-5.52147
  0
LINE
  8
0
 10
-11.743
 20
-5.52147
 11
-11.7248
 21
-5.66417
  0
LINE
  8
0
 10
-11.7248
 20
-5.66417
 11
-11.7371
 21
-5.80667
  0
LINE
  8
0
 10
-11.7371
 20
-5.80667
 11
-11.7815
 21
-5.9433
  0
LINE
  8
0
 10
-11.7815
 20
-5.9433
 11
-11.8438
 21
-6.03793
  0
LINE
  8
0
 10
-11.8438
 20
-6.03793
 11
-11.9154
 21
-6.12361
  0
LINE
  8
0
 10
-11.9154
 20
-6.12361
 11
-11.9958
 21
-6.19947
  0
LINE
  8
0
 10
-11.9958
 20
-6.19947
 11
-12.0846
 21
-6.26465
  0
LINE
  8
0
 10
-12.0846
 20
-6.26465
 11
-12.1462
 21
-6.35455
  0
LINE
  8
0
 10
-12.1462
 20
-6.35455
 11
-12.1338
 21
-6.46765
  0
LINE
  8
0
 10
-12.1338
 20
-6.46765
 11
-12.0695
 21
-6.59046
  0
LINE
  8
0
 10
-12.0695
 20
-6.59046
 11
-12.0009
 21
-6.71089
  0
LINE
  8
0
 10
-12.0009
 20
-6.71089
 11
-11.9126
 21
-6.78235
  0
LINE
  8
0
 10
-11.9126
 20
-6.78235
 11
-11.8036
 21
-6.77931
  0
LINE
  8
0
 10
-11.8036
 20
-6.77931
 11
-11.7008
 21
-6.73977
  0
LINE
  8
0
 10
-11.7008
 20
-6.73977
 11
-11.5935
 21
-6.71306
  0
LINE
  8
0
 10
-11.5935
 20
-6.71306
 11
-11.4828
 21
-6.69916
  0
LINE
  8
0
 10
-11.4828
 20
-6.69916
 11
-11.3694
 21
-6.69804
  0
LINE
  8
0
 10
-11.3694
 20
-6.69804
 11
-11.2304
 21
-6.73454
  0
LINE
  8
0
 10
-11.2304
 20
-6.73454
 11
-11.1039
 21
-6.80126
  0
LINE
  8
0
 10
-11.1039
 20
-6.80126
 11
-10.9937
 21
-6.89369
  0
LINE
  8
0
 10
-10.9937
 20
-6.89369
 11
-10.9035
 21
-7.00728
  0
LINE
  8
0
 10
-10.9035
 20
-7.00728
 11
-10.8377
 21
-7.13647
  0
LINE
  8
0
 10
-10.8377
 20
-7.13647
 11
-10.7994
 21
-7.27514
  0
LINE
  8
0
 10
-10.7994
 20
-7.27514
 11
-10.7912
 21
-7.41793
  0
LINE
  8
0
 10
-10.7912
 20
-7.41793
 11
-10.8158
 21
-7.55949
  0
LINE
  8
0
 10
-10.8158
 20
-7.55949
 11
-10.864
 21
-7.66203
  0
LINE
  8
0
 10
-10.864
 20
-7.66203
 11
-10.9226
 21
-7.75702
  0
LINE
  8
0
 10
-10.9226
 20
-7.75702
 11
-10.9914
 21
-7.84354
  0
LINE
  8
0
 10
-10.9914
 20
-7.84354
 11
-11.0701
 21
-7.92071
  0
LINE
  8
0
 10
-11.0701
 20
-7.92071
 11
-11.1182
 21
-8.01845
  0
LINE
  8
0
 10
-11.1182
 20
-8.01845
 11
-11.0898
 21
-8.12863
  0
LINE
  8
0
 10
-11.0898
 20
-8.12863
 11
-11.0088
 21
-8.24105
  0
LINE
  8
0
 10
-11.0088
 20
-8.24105
 11
-10.9237
 21
-8.3505
  0
LINE
  8
0
 10
-10.9237
 20
-8.3505
 11
-10.8261
 21
-8.40866
  0
LINE
  8
0
 10
-10.8261
 20
-8.40866
 11
-10.7187
 21
-8.39014
  0
LINE
  8
0
 10
-10.7187
 20
-8.39014
 11
-10.6225
 21
-8.33636
  0
LINE
  8
0
 10
-10.6225
 20
-8.33636
 11
-10.5202
 21
-8.29467
  0
LINE
  8
0
 10
-10.5202
 20
-8.29467
 11
-10.4125
 21
-8.26514
  0
LINE
  8
0
 10
-10.4125
 20
-8.26514
 11
-10.3004
 21
-8.2479
  0
LINE
  8
0
 10
-10.3004
 20
-8.2479
 11
-10.1577
 21
-8.26425
  0
LINE
  8
0
 10
-10.1577
 20
-8.26425
 11
-10.023
 21
-8.31228
  0
LINE
  8
0
 10
-10.023
 20
-8.31228
 11
-9.90072
 21
-8.38809
  0
LINE
  8
0
 10
-9.90072
 20
-8.38809
 11
-9.79532
 21
-8.48769
  0
LINE
  8
0
 10
-9.79532
 20
-8.48769
 11
-9.71173
 21
-8.60619
  0
LINE
  8
0
 10
-9.71173
 20
-8.60619
 11
-9.65409
 21
-8.738
  0
LINE
  8
0
 10
-9.65409
 20
-8.738
 11
-9.62573
 21
-8.87818
  0
LINE
  8
0
 10
-9.62573
 20
-8.87818
 11
-9.62985
 21
-9.02179
  0
LINE
  8
0
 10
-9.62985
 20
-9.02179
 11
-9.66298
 21
-9.13014
  0
LINE
  8
0
 10
-9.66298
 20
-9.13014
 11
-9.70752
 21
-9.23251
  0
LINE
  8
0
 10
-9.70752
 20
-9.23251
 11
-9.76328
 21
-9.32795
  0
LINE
  8
0
 10
-9.76328
 20
-9.32795
 11
-9.83016
 21
-9.41553
  0
LINE
  8
0
 10
-9.83016
 20
-9.41553
 11
-9.86387
 21
-9.51911
  0
LINE
  8
0
 10
-9.86387
 20
-9.51911
 11
-9.82011
 21
-9.62414
  0
LINE
  8
0
 10
-9.82011
 20
-9.62414
 11
-9.72387
 21
-9.72387
  0
LINE
  8
0
 10
-9.72387
 20
-9.72387
 11
-9.62414
 21
-9.82011
  0
LINE
  8
0
 10
-9.62414
 20
-9.82011
 11
-9.51922
 21
-9.86378
  0
LINE
  8
0
 10
-9.51922
 20
-9.86378
 11
-9.41553
 21
-9.83016
  0
LINE
  8
0
 10
-9.41553
 20
-9.83016
 11
-9.32799
 21
-9.76325
  0
LINE
  8
0
 10
-9.32799
 20
-9.76325
 11
-9.23263
 21
-9.70741
  0
LINE
  8
0
 10
-9.23263
 20
-9.70741
 11
-9.13027
 21
-9.66287
  0
LINE
  8
0
 10
-9.13027
 20
-9.66287
 11
-9.02179
 21
-9.62985
  0
LINE
  8
0
 10
-9.02179
 20
-9.62985
 11
-8.87818
 21
-9.62573
  0
LINE
  8
0
 10
-8.87818
 20
-9.62573
 11
-8.738
 21
-9.65409
  0
LINE
  8
0
 10
-8.738
 20
-9.65409
 11
-8.60619
 21
-9.71173
  0
LINE
  8
0
 10
-8.60619
 20
-9.71173
 11
-8.48769
 21
-9.79532
  0
LINE
  8
0
 10
-8.48769
 20
-9.79532
 11
-8.38809
 21
-9.90072
  0
LINE
  8
0
 10
-8.38809
 20
-9.90072
 11
-8.31228
 21
-10.023
  0
LINE
  8
0
 10
-8.31228
 20
-10.023
 11
-8.26425
 21
-10.1577
  0
LINE
  8
0
 10
-8.26425
 20
-10.1577
 11
-8.2479
 21
-10.3004
  0
LINE
  8
0
 10
-8.2479
 20
-10.3004
 11
-8.26527
 21
-10.4124
  0
LINE
  8
0
 10
-8.26527
 20
-10.4124
 11
-8.29478
 21
-10.5201
  0
LINE
  8
0
 10
-8.29478
 20
-10.5201
 11
-8.3364
 21
-10.6225
  0
LINE
  8
0
 10
-8.3364
 20
-10.6225
 11
-8.39014
 21
-10.7187
  0
LINE
  8
0
 10
-8.39014
 20
-10.7187
 11
-8.40876
 21
-10.826
  0
LINE
  8
0
 10
-8.40876
 20
-10.826
 11
-8.3505
 21
-10.9237
  0
LINE
  8
0
 10
-8.3505
 20
-10.9237
 11
-8.24105
 21
-11.0088
  0
LINE
  8
0
 10
-8.24105
 20
-11.0088
 11
-8.12863
 21
-11.0898
  0
LINE
  8
0
 10
-8.12863
 20
-11.0898
 11
-8.01856
 21
-11.1181
  0
LINE
  8
0
 10
-8.01856
 20
-11.1181
 11
-7.92071
 21
-11.0701
  0
LINE
  8
0
 10
-7.92071
 20
-11.0701
 11
-7.84359
 21
-10.9914
  0
LINE
  8
0
 10
-7.84359
 20
-10.9914
 11
-7.75715
 21
-10.9225
  0
LINE
  8
0
 10
-7.75715
 20
-10.9225
 11
-7.66217
 21
-10.8639
  0
LINE
  8
0
 10
-7.66217
 20
-10.8639
 11
-7.55949
 21
-10.8158
  0
LINE
  8
0
 10
-7.55949
 20
-10.8158
 11
-7.41793
 21
-10.7912
  0
LINE
  8
0
 10
-7.41793
 20
-10.7912
 11
-7.27514
 21
-10.7994
  0
LINE
  8
0
 10
-7.27514
 20
-10.7994
 11
-7.13647
 21
-10.8377
  0
LINE
  8
0
 10
-7.13647
 20
-10.8377
 11
-7.00728
 21
-10.9035
  0
LINE
  8
0
 10
-7.00728
 20
-10.9035
 11
-6.89369
 21
-10.9937
  0
LINE
  8
0
 10
-6.89369
 20
-10.9937
 11
-6.80126
 21
-11.1039
  0
LINE
  8
0
 10
-6.80126
 20
-11.1039
 11
-6.73454
 21
-11.2304
  0
LINE
  8
0
 10
-6.73454
 20
-11.2304
 11
-6.69804
 21
-11.3694
  0
LINE
  8
0
 10
-6.69804
 20
-11.3694
 11
-6.69931
 21
-11.4827
  0
LINE
  8
0
 10
-6.69931
 20
-11.4827
 11
-6.71319
 21
-11.5935
  0
LINE
  8
0
 10
-6.71319
 20
-11.5935
 11
-6.73982
 21
-11.7007
  0
LINE
  8
0
 10
-6.73982
 20
-11.7007
 11
-6.77931
 21
-11.8036
  0
LINE
  8
0
 10
-6.77931
 20
-11.8036
 11
-6.78247
 21
-11.9125
  0
LINE
  8
0
 10
-6.78247
 20
-11.9125
 11
-6.7109
 21
-12.0009
  0
LINE
  8
0
 10
-6.7109
 20
-12.0009
 11
-6.59046
 21
-12.0695
  0
LINE
  8
0
 10
-6.59046
 20
-12.0695
 11
-6.46765
 21
-12.1338
  0
LINE
  8
0
 10
-6.46765
 20
-12.1338
 11
-6.35467
 21
-12.1461
  0
LINE
  8
0
 10
-6.35467
 20
-12.1461
 11
-6.26465
 21
-12.0846
  0
LINE
  8
0
 10
-6.26465
 20
-12.0846
 11
-6.19951
 21
-11.9958
  0
LINE
  8
0
 10
-6.19951
 20
-11.9958
 11
-6.12375
 21
-11.9153
  0
LINE
  8
0
 10
-6.12375
 20
-11.9153
 11
-6.03809
 21
-11.8438
  0
LINE
  8
0
 10
-6.03809
 20
-11.8438
 11
-5.9433
 21
-11.7815
  0
LINE
  8
0
 10
-5.9433
 20
-11.7815
 11
-5.80667
 21
-11.7371
  0
LINE
  8
0
 10
-5.80667
 20
-11.7371
 11
-5.66417
 21
-11.7248
  0
LINE
  8
0
 10
-5.66417
 20
-11.7248
 11
-5.52147
 21
-11.743
  0
LINE
  8
0
 10
-5.52147
 20
-11.743
 11
-5.38422
 21
-11.7898
  0
LINE
  8
0
 10
-5.38422
 20
-11.7898
 11
-5.25896
 21
-11.8629
  0
LINE
  8
0
 10
-5.25896
 20
-11.8629
 11
-5.15178
 21
-11.9588
  0
LINE
  8
0
 10
-5.15178
 20
-11.9588
 11
-5.06774
 21
-12.0745
  0
LINE
  8
0
 10
-5.06774
 20
-12.0745
 11
-5.01184
 21
-12.2069
  0
LINE
  8
0
 10
-5.01184
 20
-12.2069
 11
-4.99696
 21
-12.3192
  0
LINE
  8
0
 10
-4.99696
 20
-12.3192
 11
-4.99494
 21
-12.4308
  0
LINE
  8
0
 10
-4.99494
 20
-12.4308
 11
-5.00603
 21
-12.5408
  0
LINE
  8
0
 10
-5.00603
 20
-12.5408
 11
-5.03048
 21
-12.6483
  0
LINE
  8
0
 10
-5.03048
 20
-12.6483
 11
-5.01811
 21
-12.7565
  0
LINE
  8
0
 10
-5.01811
 20
-12.7565
 11
-4.93468
 21
-12.8338
  0
LINE
  8
0
 10
-4.93468
 20
-12.8338
 11
-4.8057
 21
-12.8846
  0
LINE
  8
0
 10
-4.8057
 20
-12.8846
 11
-4.67501
 21
-12.9307
  0
LINE
  8
0
 10
-4.67501
 20
-12.9307
 11
-4.56142
 21
-12.9268
  0
LINE
  8
0
 10
-4.56142
 20
-12.9268
 11
-4.48106
 21
-12.8532
  0
LINE
  8
0
 10
-4.48106
 20
-12.8532
 11
-4.42924
 21
-12.756
  0
LINE
  8
0
 10
-4.42924
 20
-12.756
 11
-4.36569
 21
-12.6655
  0
LINE
  8
0
 10
-4.36569
 20
-12.6655
 11
-4.29109
 21
-12.5825
  0
LINE
  8
0
 10
-4.29109
 20
-12.5825
 11
-4.20612
 21
-12.5074
  0
LINE
  8
0
 10
-4.20612
 20
-12.5074
 11
-4.0772
 21
-12.444
  0
LINE
  8
0
 10
-4.0772
 20
-12.444
 11
-3.93791
 21
-12.4116
  0
LINE
  8
0
 10
-3.93791
 20
-12.4116
 11
-3.79407
 21
-12.4092
  0
LINE
  8
0
 10
-3.79407
 20
-12.4092
 11
-3.65155
 21
-12.436
  0
LINE
  8
0
 10
-3.65155
 20
-12.436
 11
-3.51717
 21
-12.4905
  0
LINE
  8
0
 10
-3.51717
 20
-12.4905
 11
-3.39742
 21
-12.5703
  0
LINE
  8
0
 10
-3.39742
 20
-12.5703
 11
-3.29777
 21
-12.6729
  0
LINE
  8
0
 10
-3.29777
 20
-12.6729
 11
-3.2236
 21
-12.7959
  0
LINE
  8
0
 10
-3.2236
 20
-12.7959
 11
-3.19289
 21
-12.905
  0
LINE
  8
0
 10
-3.19289
 20
-12.905
 11
-3.17501
 21
-13.0152
  0
LINE
  8
0
 10
-3.17501
 20
-13.0152
 11
-3.17033
 21
-13.1256
  0
LINE
  8
0
 10
-3.17033
 20
-13.1256
 11
-3.17924
 21
-13.2354
  0
LINE
  8
0
 10
-3.17924
 20
-13.2354
 11
-3.1516
 21
-13.3408
  0
LINE
  8
0
 10
-3.1516
 20
-13.3408
 11
-3.058
 21
-13.4055
  0
LINE
  8
0
 10
-3.058
 20
-13.4055
 11
-2.92312
 21
-13.4374
  0
LINE
  8
0
 10
-2.92312
 20
-13.4374
 11
-2.78719
 21
-13.4644
  0
LINE
  8
0
 10
-2.78719
 20
-13.4644
 11
-2.67531
 21
-13.4444
  0
LINE
  8
0
 10
-2.67531
 20
-13.4444
 11
-2.60626
 21
-13.3601
  0
LINE
  8
0
 10
-2.60626
 20
-13.3601
 11
-2.56879
 21
-13.2565
  0
LINE
  8
0
 10
-2.56879
 20
-13.2565
 11
-2.51876
 21
-13.1579
  0
LINE
  8
0
 10
-2.51876
 20
-13.1579
 11
-2.45673
 21
-13.0651
  0
LINE
  8
0
 10
-2.45673
 20
-13.0651
 11
-2.38332
 21
-12.9787
  0
LINE
  8
0
 10
-2.38332
 20
-12.9787
 11
-2.26474
 21
-12.8976
  0
LINE
  8
0
 10
-2.26474
 20
-12.8976
 11
-2.13147
 21
-12.8457
  0
LINE
  8
0
 10
-2.13147
 20
-12.8457
 11
-1.98943
 21
-12.8229
  0
LINE
  8
0
 10
-1.98943
 20
-12.8229
 11
-1.84455
 21
-12.8291
  0
LINE
  8
0
 10
-1.84455
 20
-12.8291
 11
-1.70378
 21
-12.864
  0
LINE
  8
0
 10
-1.70378
 20
-12.864
 11
-1.57391
 21
-12.9258
  0
LINE
  8
0
 10
-1.57391
 20
-12.9258
 11
-1.46067
 21
-13.0132
  0
LINE
  8
0
 10
-1.46067
 20
-13.0132
 11
-1.36974
 21
-13.1244
  0
LINE
  8
0
 10
-1.36974
 20
-13.1244
 11
-1.32382
 21
-13.228
  0
LINE
  8
0
 10
-1.32382
 20
-13.228
 11
-1.29044
 21
-13.3345
  0
LINE
  8
0
 10
-1.29044
 20
-13.3345
 11
-1.27009
 21
-13.4432
  0
LINE
  8
0
 10
-1.27009
 20
-13.4432
 11
-1.26328
 21
-13.5532
  0
LINE
  8
0
 10
-1.26328
 20
-13.5532
 11
-1.22092
 21
-13.6535
  0
LINE
  8
0
 10
-1.22092
 20
-13.6535
 11
-1.11908
 21
-13.7042
  0
LINE
  8
0
 10
-1.11908
 20
-13.7042
 11
-0.98103
 21
-13.7166
  0
LINE
  8
0
 10
-0.98103
 20
-13.7166
 11
-0.842637
 21
-13.724
  0
LINE
  8
0
 10
-0.842637
 20
-13.724
 11
-0.734741
 21
-13.6883
  0
LINE
  8
0
 10
-0.734741
 20
-13.6883
 11
-0.67839
 21
-13.595
  0
LINE
  8
0
 10
-0.67839
 20
-13.595
 11
-0.656054
 21
-13.4871
  0
LINE
  8
0
 10
-0.656054
 20
-13.4871
 11
-0.620551
 21
-13.3825
  0
LINE
  8
0
 10
-0.620551
 20
-13.3825
 11
-0.572367
 21
-13.2818
  0
LINE
  8
0
 10
-0.572367
 20
-13.2818
 11
-0.512002
 21
-13.1858
  0
LINE
  8
0
 10
-0.512002
 20
-13.1858
 11
-0.406169
 21
-13.0886
  0
LINE
  8
0
 10
-0.406169
 20
-13.0886
 11
-0.281651
 21
-13.0182
  0
LINE
  8
0
 10
-0.281651
 20
-13.0182
 11
-0.144294
 21
-12.9755
  0
LINE
  8
0
 10
-0.144294
 20
-12.9755
 11
0
 21
-12.9611
  0
LINE
  8
0
 10
0
 20
-12.9611
 11
0.144294
 21
-12.9755
  0
LINE
  8
0
 10
0.144294
 20
-12.9755
 11
0.281651
 21
-13.0182
  0
LINE
  8
0
 10
0.281651
 20
-13.0182
 11
0.406169
 21
-13.0886
  0
LINE
  8
0
 10
0.406169
 20
-13.0886
 11
0.512002
 21
-13.1858
  0
LINE
  8
0
 10
0.512002
 20
-13.1858
 11
0.572193
 21
-13.2818
  0
LINE
  8
0
 10
0.572193
 20
-13.2818
 11
0.620396
 21
-13.3825
  0
LINE
  8
0
 10
0.620396
 20
-13.3825
 11
0.656002
 21
-13.4871
  0
LINE
  8
0
 10
0.656002
 20
-13.4871
 11
0.67839
 21
-13.595
  0
LINE
  8
0
 10
0.67839
 20
-13.595
 11
0.734602
 21
-13.6883
  0
LINE
  8
0
 10
0.734602
 20
-13.6883
 11
0.842632
 21
-13.724
  0
LINE
  8
0
 10
0.842632
 20
-13.724
 11
0.98103
 21
-13.7166
  0
LINE
  8
0
 10
0.98103
 20
-13.7166
 11
1.11907
 21
-13.7042
  0
LINE
  8
0
 10
1.11907
 20
-13.7042
 11
1.22079
 21
-13.6535
  0
LINE
  8
0
 10
1.22079
 20
-13.6535
 11
1.26328
 21
-13.5532
  0
LINE
  8
0
 10
1.26328
 20
-13.5532
 11
1.27004
 21
-13.4432
  0
LINE
  8
0
 10
1.27004
 20
-13.4432
 11
1.29029
 21
-13.3346
  0
LINE
  8
0
 10
1.29029
 20
-13.3346
 11
1.32365
 21
-13.228
  0
LINE
  8
0
 10
1.32365
 20
-13.228
 11
1.36974
 21
-13.1244
  0
LINE
  8
0
 10
1.36974
 20
-13.1244
 11
1.46067
 21
-13.0132
  0
LINE
  8
0
 10
1.46067
 20
-13.0132
 11
1.57391
 21
-12.9258
  0
LINE
  8
0
 10
1.57391
 20
-12.9258
 11
1.70378
 21
-12.864
  0
LINE
  8
0
 10
1.70378
 20
-12.864
 11
1.84455
 21
-12.8291
  0
LINE
  8
0
 10
1.84455
 20
-12.8291
 11
1.98943
 21
-12.8229
  0
LINE
  8
0
 10
1.98943
 20
-12.8229
 11
2.13147
 21
-12.8457
  0
LINE
  8
0
 10
2.13147
 20
-12.8457
 11
2.26474
 21
-12.8976
  0
LINE
  8
0
 10
2.26474
 20
-12.8976
 11
2.38332
 21
-12.9787
  0
LINE
  8
0
 10
2.38332
 20
-12.9787
 11
2.45656
 21
-13.0651
  0
LINE
  8
0
 10
2.45656
 20
-13.0651
 11
2.5186
 21
-13.158
  0
LINE
  8
0
 10
2.5186
 20
-13.158
 11
2.56874
 21
-13.2565
  0
LINE
  8
0
 10
2.56874
 20
-13.2565
 11
2.60626
 21
-13.3601
  0
LINE
  8
0
 10
2.60626
 20
-13.3601
 11
2.67517
 21
-13.4444
  0
LINE
  8
0
 10
2.67517
 20
-13.4444
 11
2.78719
 21
-13.4644
  0
LINE
  8
0
 10
2.78719
 20
-13.4644
 11
2.92312
 21
-13.4374
  0
LINE
  8
0
 10
2.92312
 20
-13.4374
 11
3.058
 21
-13.4055
  0
LINE
  8
0
 10
3.058
 20
-13.4055
 11
3.15146
 21
-13.3408
  0
LINE
  8
0
 10
3.15146
 20
-13.3408
 11
3.17924
 21
-13.2354
  0
LINE
  8
0
 10
3.17924
 20
-13.2354
 11
3.17028
 21
-13.1256
  0
LINE
  8
0
 10
3.17028
 20
-13.1256
 11
3.17486
 21
-13.0152
  0
LINE
  8
0
 10
3.17486
 20
-13.0152
 11
3.19272
 21
-12.905
  0
LINE
  8
0
 10
3.19272
 20
-12.905
 11
3.2236
 21
-12.7959
  0
LINE
  8
0
 10
3.2236
 20
-12.7959
 11
3.29777
 21
-12.6729
  0
LINE
  8
0
 10
3.29777
 20
-12.6729
 11
3.39742
 21
-12.5703
  0
LINE
  8
0
 10
3.39742
 20
-12.5703
 11
3.51717
 21
-12.4905
  0
LINE
  8
0
 10
3.51717
 20
-12.4905
 11
3.65155
 21
-12.436
  0
LINE
  8
0
 10
3.65155
 20
-12.436
 11
3.79407
 21
-12.4092
  0
LINE
  8
0
 10
3.79407
 20
-12.4092
 11
3.93791
 21
-12.4116
  0
LINE
  8
0
 10
3.93791
 20
-12.4116
 11
4.0772
 21
-12.444
  0
LINE
  8
0
 10
4.0772
 20
-12.444
 11
4.20612
 21
-12.5074
  0
LINE
  8
0
 10
4.20612
 20
-12.5074
 11
4.29092
 21
-12.5826
  0
LINE
  8
0
 10
4.29092
 20
-12.5826
 11
4.36554
 21
-12.6656
  0
LINE
  8
0
 10
4.36554
 20
-12.6656
 11
4.42919
 21
-12.756
  0
LINE
  8
0
 10
4.42919
 20
-12.756
 11
4.48106
 21
-12.8532
  0
LINE
  8
0
 10
4.48106
 20
-12.8532
 11
4.56129
 21
-12.9269
  0
LINE
  8
0
 10
4.56129
 20
-12.9269
 11
4.675
 21
-12.9307
  0
LINE
  8
0
 10
4.675
 20
-12.9307
 11
4.8057
 21
-12.8846
  0
LINE
  8
0
 10
4.8057
 20
-12.8846
 11
4.93467
 21
-12.8338
  0
LINE
  8
0
 10
4.93467
 20
-12.8338
 11
5.01798
 21
-12.7565
  0
LINE
  8
0
 10
5.01798
 20
-12.7565
 11
5.03048
 21
-12.6483
  0
LINE
  8
0
 10
5.03048
 20
-12.6483
 11
5.00598
 21
-12.5408
  0
LINE
  8
0
 10
5.00598
 20
-12.5408
 11
4.9948
 21
-12.4309
  0
LINE
  8
0
 10
4.9948
 20
-12.4309
 11
4.9968
 21
-12.3193
  0
LINE
  8
0
 10
4.9968
 20
-12.3193
 11
5.01184
 21
-12.2069
  0
LINE
  8
0
 10
5.01184
 20
-12.2069
 11
5.06774
 21
-12.0745
  0
LINE
  8
0
 10
5.06774
 20
-12.0745
 11
5.15178
 21
-11.9588
  0
LINE
  8
0
 10
5.15178
 20
-11.9588
 11
5.25896
 21
-11.8629
  0
LINE
  8
0
 10
5.25896
 20
-11.8629
 11
5.38422
 21
-11.7898
  0
LINE
  8
0
 10
5.38422
 20
-11.7898
 11
5.52147
 21
-11.743
  0
LINE
  8
0
 10
5.52147
 20
-11.743
 11
5.66417
 21
-11.7248
  0
LINE
  8
0
 10
5.66417
 20
-11.7248
 11
5.80667
 21
-11.7371
  0
LINE
  8
0
 10
5.80667
 20
-11.7371
 11
5.9433
 21
-11.7815
  0
LINE
  8
0
 10
5.9433
 20
-11.7815
 11
6.03793
 21
-11.8438
  0
LINE
  8
0
 10
6.03793
 20
-11.8438
 11
6.12361
 21
-11.9154
  0
LINE
  8
0
 10
6.12361
 20
-11.9154
 11
6.19947
 21
-11.9958
  0
LINE
  8
0
 10
6.19947
 20
-11.9958
 11
6.26465
 21
-12.0846
  0
LINE
  8
0
 10
6.26465
 20
-12.0846
 11
6.35455
 21
-12.1462
  0
LINE
  8
0
 10
6.35455
 20
-12.1462
 11
6.46765
 21
-12.1338
  0
LINE
  8
0
 10
6.46765
 20
-12.1338
 11
6.59046
 21
-12.0695
  0
LINE
  8
0
 10
6.59046
 20
-12.0695
 11
6.71089
 21
-12.0009
  0
LINE
  8
0
 10
6.71089
 20
-12.0009
 11
6.78235
 21
-11.9126
  0
LINE
  8
0
 10
6.78235
 20
-11.9126
 11
6.77931
 21
-11.8036
  0
LINE
  8
0
 10
6.77931
 20
-11.8036
 11
6.73977
 21
-11.7008
  0
LINE
  8
0
 10
6.73977
 20
-11.7008
 11
6.71306
 21
-11.5935
  0
LINE
  8
0
 10
6.71306
 20
-11.5935
 11
6.69916
 21
-11.4828
  0
LINE
  8
0
 10
6.69916
 20
-11.4828
 11
6.69804
 21
-11.3694
  0
LINE
  8
0
 10
6.69804
 20
-11.3694
 11
6.73454
 21
-11.2304
  0
LINE
  8
0
 10
6.73454
 20
-11.2304
 11
6.80126
 21
-11.1039
  0
LINE
  8
0
 10
6.80126
 20
-11.1039
 11
6.89369
 21
-10.9937
  0
LINE
  8
0
 10
6.89369
 20
-10.9937
 11
7.00728
 21
-10.9035
  0
LINE
  8
0
 10
7.00728
 20
-10.9035
 11
7.13647
 21
-10.8377
  0
LINE
  8
0
 10
7.13647
 20
-10.8377
 11
7.27514
 21
-10.7994
  0
LINE
  8
0
 10
7.27514
 20
-10.7994
 11
7.41793
 21
-10.7912
  0
LINE
  8
0
 10
7.41793
 20
-10.7912
 11
7.55949
 21
-10.8158
  0
LINE
  8
0
 10
7.55949
 20
-10.8158
 11
7.66203
 21
-10.864
  0
LINE
  8
0
 10
7.66203
 20
-10.864
 11
7.75702
 21
-10.9226
  0
LINE
  8
0
 10
7.75702
 20
-10.9226
 11
7.84354
 21
-10.9914
  0
LINE
  8
0
 10
7.84354
 20
-10.9914
 11
7.92071
 21
-11.0701
  0
LINE
  8
0
 10
7.92071
 20
-11.0701
 11
8.01845
 21
-11.1182
  0
LINE
  8
0
 10
8.01845
 20
-11.1182
 11
8.12863
 21
-11.0898
  0
LINE
  8
0
 10
8.12863
 20
-11.0898
 11
8.24105
 21
-11.0088
  0
LINE
  8
0
 10
8.24105
 20
-11.0088
 11
8.3505
 21
-10.9237
  0
LINE
  8
0
 10
8.3505
 20
-10.9237
 11
8.40866
 21
-10.8261
  0
LINE
  8
0
 10
8.40866
 20
-10.8261
 11
8.39014
 21
-10.7187
  0
LINE
  8
0
 10
8.39014
 20
-10.7187
 11
8.33636
 21
-10.6225
  0
LINE
  8
0
 10
8.33636
 20
-10.6225
 11
8.29467
 21
-10.5202
  0
LINE
  8
0
 10
8.29467
 20
-10.5202
 11
8.26514
 21
-10.4125
  0
LINE
  8
0
 10
8.26514
 20
-10.4125
 11
8.2479
 21
-10.3004
  0
LINE
  8
0
 10
8.2479
 20
-10.3004
 11
8.26425
 21
-10.1577
  0
LINE
  8
0
 10
8.26425
 20
-10.1577
 11
8.31228
 21
-10.023
  0
LINE
  8
0
 10
8.31228
 20
-10.023
 11
8.38809
 21
-9.90072
  0
LINE
  8
0
 10
8.38809
 20
-9.90072
 11
8.48769
 21
-9.79532
  0
LINE
  8
0
 10
8.48769
 20
-9.79532
 11
8.60619
 21
-9.71173
  0
LINE
  8
0
 10
8.60619
 20
-9.71173
 11
8.738
 21
-9.65409
  0
LINE
  8
0
 10
8.738
 20
-9.65409
 11
8.87818
 21
-9.62573
  0
LINE
  8
0
 10
8.87818
 20
-9.62573
 11
9.02179
 21
-9.62985
  0
LINE
  8
0
 10
9.02179
 20
-9.62985
 11
9.13014
 21
-9.66298
  0
LINE
  8
0
 10
9.13014
 20
-9.66298
 11
9.23251
 21
-9.70752
  0
LINE
  8
0
 10
9.23251
 20
-9.70752
 11
9.32795
 21
-9.76328
  0
LINE
  8
0
 10
9.32795
 20
-9.76328
 11
9.41553
 21
-9.83016
  0
LINE
  8
0
 10
9.41553
 20
-9.83016
 11
9.51911
 21
-9.86387
  0
LINE
  8
0
 10
9.51911
 20
-9.86387
 11
9.62414
 21
-9.82011
  0
LINE
  8
0
 10
9.62414
 20
-9.82011
 11
9.72387
 21
-9.72387
  0
LINE
  8
0
 10
9.72387
 20
-9.72387
 11
9.82011
 21
-9.62414
  0
LINE
  8
0
 10
9.82011
 20
-9.62414
 11
9.86378
 21
-9.51922
  0
LINE
  8
0
 10
9.86378
 20
-9.51922
 11
9.83016
 21
-9.41553
  0
LINE
  8
0
 10
9.83016
 20
-9.41553
 11
9.76325
 21
-9.32799
  0
LINE
  8
0
 10
9.76325
 20
-9.32799
 11
9.70741
 21
-9.23263
  0
LINE
  8
0
 10
9.70741
 20
-9.23263
 11
9.66287
 21
-9.13027
  0
LINE
  8
0
 10
9.66287
 20
-9.13027
 11
9.62985
 21
-9.02179
  0
LINE
  8
0
 10
9.62985
 20
-9.02179
 11
9.62573
 21
-8.87818
  0
LINE
  8
0
 10
9.62573
 20
-8.87818
 11
9.65409
 21
-8.738
  0
LINE
  8
0
 10
9.65409
 20
-8.738
 11
9.71173
 21
-8.60619
  0
LINE
  8
0
 10
9.71173
 20
-8.60619
 11
9.79532
 21
-8.48769
  0
LINE
  8
0
 10
9.79532
 20
-8.48769
 11
9.90072
 21
-8.38809
  0
LINE
  8
0
 10
9.90072
 20
-8.38809
 11
10.023
 21
-8.31228
  0
LINE
  8
0
 10
10.023
 20
-8.31228
 11
10.1577
 21
-8.26425
  0
LINE
  8
0
 10
10.1577
 20
-8.26425
 11
10.3004
 21
-8.2479
  0
LINE
  8
0
 10
10.3004
 20
-8.2479
 11
10.4124
 21
-8.26527
  0
LINE
  8
0
 10
10.4124
 20
-8.26527
 11
10.5201
 21
-8.29478
  0
LINE
  8
0
 10
10.5201
 20
-8.29478
 11
10.6225
 21
-8.3364
  0
LINE
  8
0
 10
10.6225
 20
-8.3364
 11
10.7187
 21
-8.39014
  0
LINE
  8
0
 10
10.7187
 20
-8.39014
 11
10.826
 21
-8.40876
  0
LINE
  8
0
 10
10.826
 20
-8.40876
 11
10.9237
 21
-8.3505
  0
LINE
  8
0
 10
10.9237
 20
-8.3505
 11
11.0088
 21
-8.24105
  0
LINE
  8
0
 10
11.0088
 20
-8.24105
 11
11.0898
 21
-8.12863
  0
LINE
  8
0
 10
11.0898
 20
-8.12863
 11
11.1181
 21
-8.01856
  0
LINE
  8
0
 10
11.1181
 20
-8.01856
 11
11.0701
 21
-7.92071
  0
LINE
  8
0
 10
11.0701
 20
-7.92071
 11
10.9914
 21
-7.84359
  0
LINE
  8
0
 10
10.9914
 20
-7.84359
 11
10.9225
 21
-7.75715
  0
LINE
  8
0
 10
10.9225
 20
-7.75715
 11
10.8639
 21
-7.66217
  0
LINE
  8
0
 10
10.8639
 20
-7.66217
 11
10.8158
 21
-7.55949
  0
LINE
  8
0
 10
10.8158
 20
-7.55949
 11
10.7912
 21
-7.41793
  0
LINE
  8
0
 10
10.7912
 20
-7.41793
 11
10.7994
 21
-7.27514
  0
LINE
  8
0
 10
10.7994
 20
-7.27514
 11
10.8377
 21
-7.13647
  0
LINE
  8
0
 10
10.8377
 20
-7.13647
 11
10.9035
 21
-7.00728
  0
LINE
  8
0
 10
10.9035
 20
-7.00728
 11
10.9937
 21
-6.89369
  0
LINE
  8
0
 10
10.9937
 20
-6.89369
 11
11.1039
 21
-6.80126
  0
LINE
  8
0
 10
11.1039
 20
-6.80126
 11
11.2304
 21
-6.73454
  0
LINE
  8
0
 10
11.2304
 20
-6.73454
 11
11.3694
 21
-6.69804
  0
LINE
  8
0
 10
11.3694
 20
-6.69804
 11
11.4827
 21
-6.69931
  0
LINE
  8
0
 10
11.4827
 20
-6.69931
 11
11.5935
 21
-6.71319
  0
LINE
  8
0
 10
11.5935
 20
-6.71319
 11
11.7007
 21
-6.73982
  0
LINE
  8
0
 10
11.7007
 20
-6.73982
 11
11.8036
 21
-6.77931
  0
LINE
  8
0
 10
11.8036
 20
-6.77931
 11
11.9125
 21
-6.78247
  0
LINE
  8
0
 10
11.9125
 20
-6.78247
 11
12.0009
 21
-6.7109
  0
LINE
  8
0
 10
12.0009
 20
-6.7109
 11
12.0695
 21
-6.59046
  0
LINE
  8
0
 10
12.0695
 20
-6.59046
 11
12.1338
 21
-6.46765
  0
LINE
  8
0
 10
12.1338
 20
-6.46765
 11
12.1461
 21
-6.35467
  0
LINE
  8
0
 10
12.1461
 20
-6.35467
 11
12.0846
 21
-6.26465
  0
LINE
  8
0
 10
12.0846
 20
-6.26465
 11
11.9958
 21
-6.19951
  0
LINE
  8
0
 10
11.9958
 20
-6.19951
 11
11.9153
 21
-6.12375
  0
LINE
  8
0
 10
11.9153
 20
-6.12375
 11
11.8438
 21
-6.03809
  0
LINE
  8
0
 10
11.8438
 20
-6.03809
 11
11.7815
 21
-5.9433
  0
LINE
  8
0
 10
11.7815
 20
-5.9433
 11
11.7371
 21
-5.80667
  0
LINE
  8
0
 10
11.7371
 20
-5.80667
 11
11.7248
 21
-5.66417
  0
LINE
  8
0
 10
11.7248
 20
-5.66417
 11
11.743
 21
-5.52147
  0
LINE
  8
0
 10
11.743
 20
-5.52147
 11
11.7898
 21
-5.38422
  0
LINE
  8
0
 10
11.7898
 20
-5.38422
 11
11.8629
 21
-5.25896
  0
LINE
  8
0
 10
11.8629
 20
-5.25896
 11
11.9588
 21
-5.15178
  0
LINE
  8
0
 10
11.9588
 20
-5.15178
 11
12.0745
 21
-5.06774
  0
LINE
  8
0
 10
12.0745
 20
-5.06774
 11
12.2069
 21
-5.01184
  0
LINE
  8
0
 10
12.2069
 20
-5.01184
 11
12.3192
 21
-4.99696
  0
LINE
  8
0
 10
12.3192
 20
-4.99696
 11
12.4308
 21
-4.99494
  0
LINE
  8
0
 10
12.4308
 20
-4.99494
 11
12.5408
 21
-5.00603
  0
LINE
  8
0
 10
12.5408
 20
-5.00603
 11
12.6483
 21
-5.03048
  0
LINE
  8
0
 10
12.6483
 20
-5.03048
 11
12.7565
 21
-5.01811
  0
LINE
  8
0
 10
12.7565
 20
-5.01811
 11
12.8338
 21
-4.93468
  0
LINE
  8
0
 10
12.8338
 20
-4.93468
 11
12.8846
 21
-4.8057
  0
LINE
  8
0
 10
12.8846
 20
-4.8057
 11
12.9307
 21
-4.67501
  0
LINE
  8
0
 10
12.9307
 20
-4.67501
 11
12.9268
 21
-4.56142
  0
LINE
  8
0
 10
12.9268
 20
-4.56142
 11
12.8532
 21
-4.48106
  0
LINE
  8
0
 10
12.8532
 20
-4.48106
 11
12.756
 21
-4.42924
  0
LINE
  8
0
 10
12.756
 20
-4.42924
 11
12.6655
 21
-4.36569
  0
LINE
  8
0
 10
12.6655
 20
-4.36569
 11
12.5825
 21
-4.29109
  0
LINE
  8
0
 10
12.5825
 20
-4.29109
 11
12.5074
 21
-4.20612
  0
LINE
  8
0
 10
12.5074
 20
-4.20612
 11
12.444
 21
-4.0772
  0
LINE
  8
0
 10
12.444
 20
-4.0772
 11
12.4116
 21
-3.93791
  0
LINE
  8
0
 10
12.4116
 20
-3.93791
 11
12.4092
 21
-3.79407
  0
LINE
  8
0
 10
12.4092
 20
-3.79407
 11
12.436
 21
-3.65155
  0
LINE
  8
0
 10
12.436
 20
-3.65155
 11
12.4905
 21
-3.51717
  0
LINE
  8
0
 10
12.4905
 20
-3.51717
 11
12.5703
 21
-3.39742
  0
LINE
  8
0
 10
12.5703
 20
-3.39742
 11
12.6729
 21
-3.29777
  0
LINE
  8
0
 10
12.6729
 20
-3.29777
 11
12.7959
 21
-3.2236
  0
LINE
  8
0
 10
12.7959
 20
-3.2236
 11
12.905
 21
-3.19289
  0
LINE
  8
0
 10
12.905
 20
-3.19289
 11
13.0152
 21
-3.17501
  0
LINE
  8
0
 10
13.0152
 20
-3.17501
 11
13.1256
 21
-3.17033
  0
LINE
  8
0
 10
13.1256
 20
-3.17033
 11
13.2354
 21
-3.17924
  0
LINE
  8
0
 10
13.2354
 20
-3.17924
 11
13.3408
 21
-3.1516
  0
LINE
  8
0
 10
13.3408
 20
-3.1516
 11
13.4055
 21
-3.058
  0
LINE
  8
0
 10
13.4055
 20
-3.058
 11
13.4374
 21
-2.92312
  0
LINE
  8
0
 10
13.4374
 20
-2.92312
 11
13.4644
 21
-2.78719
  0
LINE
  8
0
 10
13.4644
 20
-2.78719
 11
13.4444
 21
-2.67531
  0
LINE
  8
0
 10
13.4444
 20
-2.67531
 11
13.3601
 21
-2.60626
  0
LINE
  8
0
 10
13.3601
 20
-2.60626
 11
13.2565
 21
-2.56879
  0
LINE
  8
0
 10
13.2565
 20
-2.56879
 11
13.1579
 21
-2.51876
  0
LINE
  8
0
 10
13.1579
 20
-2.51876
 11
13.0651
 21
-2.45673
  0
LINE
  8
0
 10
13.0651
 20
-2.45673
 11
12.9787
 21
-2.38332
  0
LINE
  8
0
 10
12.9787
 20
-2.38332
 11
12.8976
 21
-2.26474
  0
LINE
  8
0
 10
12.8976
 20
-2.26474
 11
12.8457
 21
-2.13147
  0
LINE
  8
0
 10
12.8457
 20
-2.13147
 11
12.8229
 21
-1.98943
  0
LINE
  8
0
 10
12.8229
 20
-1.98943
 11
12.8291
 21
-1.84455
  0
LINE
  8
0
 10
12.8291
 20
-1.84455
 11
12.864
 21
-1.70378
  0
LINE
  8
0
 10
12.864
 20
-1.70378
 11
12.9258
 21
-1.57391
  0
LINE
  8
0
 10
12.9258
 20
-1.57391
 11
13.0132
 21
-1.46067
  0
LINE
  8
0
 10
13.0132
 20
-1.46067
 11
13.1244
 21
-1.36974
  0
LINE
  8
0
 10
13.1244
 20
-1.36974
 11
13.228
 21
-1.32382
  0
LINE
  8
0
 10
13.228
 20
-1.32382
 11
13.3345
 21
-1.29044
  0
LINE
  8
0
 10
13.3345
 20
-1.29044
 11
13.4432
 21
-1.27009
  0
LINE
  8
0
 10
13.4432
 20
-1.27009
 11
13.5532
 21
-1.26328
  0
LINE
  8
0
 10
13.5532
 20
-1.26328
 11
13.6535
 21
-1.22092
  0
LINE
  8
0
 10
13.6535
 20
-1.22092
 11
13.7042
 21
-1.11908
  0
LINE
  8
0
 10
13.7042
 20
-1.11908
 11
13.7166
 21
-0.98103
  0
LINE
  8
0
 10
13.7166
 20
-0.98103
 11
13.724
 21
-0.842637
  0
LINE
  8
0
 10
13.724
 20
-0.842637
 11
13.6883
 21
-0.734741
  0
LINE
  8
0
 10
13.6883
 20
-0.734741
 11
13.595
 21
-0.67839
  0
LINE
  8
0
 10
13.595
 20
-0.67839
 11
13.4871
 21
-0.656054
  0
LINE
  8
0
 10
13.4871
 20
-0.656054
 11
13.3825
 21
-0.620551
  0
LINE
  8
0
 10
13.3825
 20
-0.620551
 11
13.2818
 21
-0.572367
  0
LINE
  8
0
 10
13.2818
 20
-0.572367
 11
13.1858
 21
-0.512002
  0
LINE
  8
0
 10
13.1858
 20
-0.512002
 11
13.0886
 21
-0.406169
  0
LINE
  8
0
 10
13.0886
 20
-0.406169
 11
13.0182
 21
-0.281651
  0
LINE
  8
0
 10
13.0182
 20
-0.281651
 11
12.9755
 21
-0.144294
  0
LINE
  8
0
 10
12.9755
 20
-0.144294
 11
12.9611
 21
0
  0
LINE
  8
0
 10
12.9611
 20
0
 11
12.9755
 21
0.144294
  0
LINE
  8
0
 10
12.9755
 20
0.144294
 11
13.0182
 21
0.281651
  0
LINE
  8
0
 10
13.0182
 20
0.281651
 11
13.0886
 21
0.406169
  0
LINE
  8
0
 10
13.0886
 20
0.406169
 11
13.1858
 21
0.512002
  0
LINE
  8
0
 10
13.1858
 20
0.512002
 11
13.2818
 21
0.572193
  0
LINE
  8
0
 10
13.2818
 20
0.572193
 11
13.3825
 21
0.620396
  0
LINE
  8
0
 10
13.3825
 20
0.620396
 11
13.4871
 21
0.656002
  0
LINE
  8
0
 10
13.4871
 20
0.656002
 11
13.595
 21
0.67839
  0
LINE
  8
0
 10
13.595
 20
0.67839
 11
13.6883
 21
0.734602
  0
LINE
  8
0
 10
13.6883
 20
0.734602
 11
13.724
 21
0.842632
  0
LINE
  8
0
 10
13.724
 20
0.842632
 11
13.7166
 21
0.98103
  0
LINE
  8
0
 10
13.7166
 20
0.98103
 11
13.7042
 21
1.11907
  0
LINE
  8
0
 10
13.7042
 20
1.11907
 11
13.6535
 21
1.22079
  0
LINE
  8
0
 10
13.6535
 20
1.22079
 11
13.5532
 21
1.26328
  0
LINE
  8
0
 10
13.5532
 20
1.26328
 11
13.4432
 21
1.27004
  0
LINE
  8
0
 10
13.4432
 20
1.27004
 11
13.3346
 21
1.29029
  0
LINE
  8
0
 10
13.3346
 20
1.29029
 11
13.228
 21
1.32365
  0
LINE
  8
0
 10
13.228
 20
1.32365
 11
13.1244
 21
1.36974
  0
LINE
  8
0
 10
13.1244
 20
1.36974
 11
13.0132
 21
1.46067
  0
LINE
  8
0
 10
13.0132
 20
1.46067
 11
12.9258
 21
1.57391
  0
LINE
  8
0
 10
12.9258
 20
1.57391
 11
12.864
 21
1.70378
  0
LINE
  8
0
 10
12.864
 20
1.70378
 11
12.8291
 21
1.84455
  0
LINE
  8
0
 10
12.8291
 20
1.84455
 11
12.8229
 21
1.98943
  0
LINE
  8
0
 10
12.8229
 20
1.98943
 11
12.8457
 21
2.13147
  0
LINE
  8
0
 10
12.8457
 20
2.13147
 11
12.8976
 21
2.26474
  0
LINE
  8
0
 10
12.8976
 20
2.26474
 11
12.9787
 21
2.38332
  0
LINE
  8
0
 10
12.9787
 20
2.38332
 11
13.0651
 21
2.45656
  0
LINE
  8
0
 10
13.0651
 20
2.45656
 11
13.158
 21
2.5186
  0
LINE
  8
0
 10
13.158
 20
2.5186
 11
13.2565
 21
2.56874
  0
LINE
  8
0
 10
13.2565
 20
2.56874
 11
13.3601
 21
2.60626
  0
LINE
  8
0
 10
13.3601
 20
2.60626
 11
13.4444
 21
2.67517
  0
LINE
  8
0
 10
13.4444
 20
2.67517
 11
13.4644
 21
2.78719
  0
LINE
  8
0
 10
13.4644
 20
2.78719
 11
13.4374
 21
2.92312
  0
LINE
  8
0
 10
13.4374
 20
2.92312
 11
13.4055
 21
3.058
  0
LINE
  8
0
 10
13.4055
 20
3.058
 11
13.3408
 21
3.15146
  0
LINE
  8
0
 10
13.3408
 20
3.15146
 11
13.2354
 21
3.17924
  0
LINE
  8
0
 10
13.2354
 20
3.17924
 11
13.1256
 21
3.17028
  0
LINE
  8
0
 10
13.1256
 20
3.17028
 11
13.0152
 21
3.17486
  0
LINE
  8
0
 10
13.0152
 20
3.17486
 11
12.905
 21
3.19272
  0
LINE
  8
0
 10
12.905
 20
3.19272
 11
12.7959
 21
3.2236
  0
LINE
  8
0
 10
12.7959
 20
3.2236
 11
12.6729
 21
3.29777
  0
LINE
  8
0
 10
12.6729
 20
3.29777
 11
12.5703
 21
3.39742
  0
LINE
  8
0
 10
12.5703
 20
3.39742
 11
12.4905
 21
3.51717
  0
LINE
  8
0
 10
12.4905
 20
3.51717
 11
12.436
 21
3.65155
  0
LINE
  8
0
 10
12.436
 20
3.65155
 11
12.4092
 21
3.79407
  0
LINE
  8
0
 10
12.4092
 20
3.79407
 11
12.4116
 21
3.93791
  0
LINE
  8
0
 10
12.4116
 20
3.93791
 11
12.444
 21
4.0772
  0
LINE
  8
0
 10
12.444
 20
4.0772
 11
12.5074
 21
4.20612
  0
LINE
  8
0
 10
12.5074
 20
4.20612
 11
12.5826
 21
4.29092
  0
LINE
  8
0
 10
12.5826
 20
4.29092
 11
12.6656
 21
4.36554
  0
LINE
  8
0
 10
12.6656
 20
4.36554
 11
12.756
 21
4.42919
  0
LINE
  8
0
 10
12.756
 20
4.42919
 11
12.8532
 21
4.48106
  0
LINE
  8
0
 10
12.8532
 20
4.48106
 11
12.9269
 21
4.56129
  0
LINE
  8
0
 10
12.9269
 20
4.56129
 11
12.9307
 21
4.675
  0
LINE
  8
0
 10
12.9307
 20
4.675
 11
12.8846
 21
4.8057
  0
LINE
  8
0
 10
12.8846
 20
4.8057
 11
12.8338
 21
4.93467
  0
LINE
  8
0
 10
12.8338
 20
4.93467
 11
12.7565
 21
5.01798
  0
LINE
  8
0
 10
12.7565
 20
5.01798
 11
12.6483
 21
5.03048
  0
LINE
  8
0
 10
12.6483
 20
5.03048
 11
12.5408
 21
5.00598
  0
LINE
  8
0
 10
12.5408
 20
5.00598
 11
12.4309
 21
4.9948
  0
LINE
  8
0
 10
12.4309
 20
4.9948
 11
12.3193
 21
4.9968
  0
LINE
  8
0
 10
12.3193
 20
4.9968
 11
12.2069
 21
5.01184
  0
LINE
  8
0
 10
12.2069
 20
5.01184
 11
12.0745
 21
5.06774
  0
LINE
  8
0
 10
12.0745
 20
5.06774
 11
11.9588
 21
5.15178
  0
LINE
  8
0
 10
11.9588
 20
5.15178
 11
11.8629
 21
5.25896
  0
LINE
  8
0
 10
11.8629
 20
5.25896
 11
11.7898
 21
5.38422
  0
LINE
  8
0
 10
11.7898
 20
5.38422
 11
11.743
 21
5.52147
  0
LINE
  8
0
 10
11.743
 20
5.52147
 11
11.7248
 21
5.66417
  0
LINE
  8
0
 10
11.7248
 20
5.66417
 11
11.7371
 21
5.80667
  0
LINE
  8
0
 10
11.7371
 20
5.80667
 11
11.7815
 21
5.9433
  0
LINE
  8
0
 10
11.7815
 20
5.9433
 11
11.8438
 21
6.03793
  0
LINE
  8
0
 10
11.8438
 20
6.03793
 11
11.9154
 21
6.12361
  0
LINE
  8
0
 10
11.9154
 20
6.12361
 11
11.9958
 21
6.19947
  0
LINE
  8
0
 10
11.9958
 20
6.19947
 11
12.0846
 21
6.26465
  0
LINE
  8
0
 10
12.0846
 20
6.26465
 11
12.1462
 21
6.35455
  0
LINE
  8
0
 10
12.1462
 20
6.35455
 11
12.1338
 21
6.46765
  0
LINE
  8
0
 10
12.1338
 20
6.46765
 11
12.0695
 21
6.59046
  0
LINE
  8
0
 10
12.0695
 20
6.59046
 11
12.0009
 21
6.71089
  0
LINE
  8
0
 10
12.0009
 20
6.71089
 11
11.9126
 21
6.78235
  0
LINE
  8
0
 10
11.9126
 20
6.78235
 11
11.8036
 21
6.77931
  0
LINE
  8
0
 10
11.8036
 20
6.77931
 11
11.7008
 21
6.73977
  0
LINE
  8
0
 10
11.7008
 20
6.73977
 11
11.5935
 21
6.71306
  0
LINE
  8
0
 10
11.5935
 20
6.71306
 11
11.4828
 21
6.69916
  0
LINE
  8
0
 10
11.4828
 20
6.69916
 11
11.3694
 21
6.69804
  0
LINE
  8
0
 10
11.3694
 20
6.69804
 11
11.2304
 21
6.73454
  0
LINE
  8
0
 10
11.2304
 20
6.73454
 11
11.1039
 21
6.80126
  0
LINE
  8
0
 10
11.1039
 20
6.80126
 11
10.9937
 21
6.89369
  0
LINE
  8
0
 10
10.9937
 20
6.89369
 11
10.9035
 21
7.00728
  0
LINE
  8
0
 10
10.9035
 20
7.00728
 11
10.8377
 21
7.13647
  0
LINE
  8
0
 10
10.8377
 20
7.13647
 11
10.7994
 21
7.27514
  0
LINE
  8
0
 10
10.7994
 20
7.27514
 11
10.7912
 21
7.41793
  0
LINE
  8
0
 10
10.7912
 20
7.41793
 11
10.8158
 21
7.55949
  0
LINE
  8
0
 10
10.8158
 20
7.55949
 11
10.864
 21
7.66203
  0
LINE
  8
0
 10
10.864
 20
7.66203
 11
10.9226
 21
7.75702
  0
LINE
  8
0
 10
10.9226
 20
7.75702
 11
10.9914
 21
7.84354
  0
LINE
  8
0
 10
10.9914
 20
7.84354
 11
11.0701
 21
7.92071
  0
LINE
  8
0
 10
11.0701
 20
7.92071
 11
11.1182
 21
8.01845
  0
LINE
  8
0
 10
11.1182
 20
8.01845
 11
11.0898
 21
8.12863
  0
LINE
  8
0
 10
11.0898
 20
8.12863
 11
11.0088
 21
8.24105
  0
LINE
  8
0
 10
11.0088
 20
8.24105
 11
10.9237
 21
8.3505
  0
LINE
  8
0
 10
10.9237
 20
8.3505
 11
10.8261
 21
8.40866
  0
LINE
  8
0
 10
10.8261
 20
8.40866
 11
10.7187
 21
8.39014
  0
LINE
  8
0
 10
10.7187
 20
8.39014
 11
10.6225
 21
8.33636
  0
LINE
  8
0
 10
10.6225
 20
8.33636
 11
10.5202
 21
8.29467
  0
LINE
  8
0
 10
10.5202
 20
8.29467
 11
10.4125
 21
8.26514
  0
LINE
  8
0
 10
10.4125
 20
8.26514
 11
10.3004
 21
8.2479
  0
LINE
  8
0
 10
10.3004
 20
8.2479
 11
10.1577
 21
8.26425
  0
LINE
  8
0
 10
10.1577
 20
8.26425
 11
10.023
 21
8.31228
  0
LINE
  8
0
 10
10.023
 20
8.31228
 11
9.90072
 21
8.38809
  0
LINE
  8
0
 10
9.90072
 20
8.38809
 11
9.79532
 21
8.48769
  0
LINE
  8
0
 10
9.79532
 20
8.48769
 11
9.71173
 21
8.60619
  0
LINE
  8
0
 10
9.71173
 20
8.60619
 11
9.65409
 21
8.738
  0
LINE
  8
0
 10
9.65409
 20
8.738
 11
9.62573
 21
8.87818
  0
LINE
  8
0
 10
9.62573
 20
8.87818
 11
9.62985
 21
9.02179
  0
LINE
  8
0
 10
9.62985
 20
9.02179
 11
9.66298
 21
9.13014
  0
LINE
  8
0
 10
9.66298
 20
9.13014
 11
9.70752
 21
9.23251
  0
LINE
  8
0
 10
9.70752
 20
9.23251
 11
9.76328
 21
9.32795
  0
LINE
  8
0
 10
9.76328
 20
9.32795
 11
9.83016
 21
9.41553
  0
LINE
  8
0
 10
9.83016
 20
9.41553
 11
9.86387
 21
9.51911
  0
LINE
  8
0
 10
9.86387
 20
9.51911
 11
9.82011
 21
9.62414
  0
LINE
  8
0
 10
9.82011
 20
9.62414
 11
9.72387
 21
9.72387
  0
LINE
  8
0
 10
9.72387
 20
9.72387
 11
9.62414
 21
9.82011
  0
LINE
  8
0
 10
9.62414
 20
9.82011
 11
9.51922
 21
9.86378
  0
LINE
  8
0
 10
9.51922
 20
9.86378
 11
9.41553
 21
9.83016
  0
LINE
  8
0
 10
9.41553
 20
9.83016
 11
9.32799
 21
9.76325
  0
LINE
  8
0
 10
9.32799
 20
9.76325
 11
9.23263
 21
9.70741
  0
LINE
  8
0
 10
9.23263
 20
9.70741
 11
9.13027
 21
9.66287
  0
LINE
  8
0
 10
9.13027
 20
9.66287
 11
9.02179
 21
9.62985
  0
LINE
  8
0
 10
9.02179
 20
9.62985
 11
8.87818
 21
9.62573
  0
LINE
  8
0
 10
8.87818
 20
9.62573
 11
8.738
 21
9.65409
  0
LINE
  8
0
 10
8.738
 20
9.65409
 11
8.60619
 21
9.71173
  0
LINE
  8
0
 10
8.60619
 20
9.71173
 11
8.48769
 21
9.79532
  0
LINE
  8
0
 10
8.48769
 20
9.79532
 11
8.38809
 21
9.90072
  0
LINE
  8
0
 10
8.38809
 20
9.90072
 11
8.31228
 21
10.023
  0
LINE
  8
0
 10
8.31228
 20
10.023
 11
8.26425
 21
10.1577
  0
LINE
  8
0
 10
8.26425
 20
10.1577
 11
8.2479
 21
10.3004
  0
LINE
  8
0
 10
8.2479
 20
10.3004
 11
8.26527
 21
10.4124
  0
LINE
  8
0
 10
8.26527
 20
10.4124
 11
8.29478
 21
10.5201
  0
LINE
  8
0
 10
8.29478
 20
10.5201
 11
8.3364
 21
10.6225
  0
LINE
  8
0
 10
8.3364
 20
10.6225
 11
8.39014
 21
10.7187
  0
LINE
  8
0
 10
8.39014
 20
10.7187
 11
8.40876
 21
10.826
  0
LINE
  8
0
 10
8.40876
 20
10.826
 11
8.3505
 21
10.9237
  0
LINE
  8
0
 10
8.3505
 20
10.9237
 11
8.24105
 21
11.0088
  0
LINE
  8
0
 10
8.24105
 20
11.0088
 11
8.12863
 21
11.0898
  0
LINE
  8
0
 10
8.12863
 20
11.0898
 11
8.01856
 21
11.1181
  0
LINE
  8
0
 10
8.01856
 20
11.1181
 11
7.92071
 21
11.0701
  0
LINE
  8
0
 10
7.92071
 20
11.0701
 11
7.84359
 21
10.9914
  0
LINE
  8
0
 10
7.84359
 20
10.9914
 11
7.75715
 21
10.9225
  0
LINE
  8
0
 10
7.75715
 20
10.9225
 11
7.66217
 21
10.8639
  0
LINE
  8
0
 10
7.66217
 20
10.8639
 11
7.55949
 21
10.8158
  0
LINE
  8
0
 10
7.55949
 20
10.8158
 11
7.41793
 21
10.7912
  0
LINE
  8
0
 10
7.41793
 20
10.7912
 11
7.27514
 21
10.7994
  0
LINE
  8
0
 10
7.27514
 20
10.7994
 11
7.13647
 21
10.8377
  0
LINE
  8
0
 10
7.13647
 20
10.8377
 11
7.00728
 21
10.9035
  0
LINE
  8
0
 10
7.00728
 20
10.9035
 11
6.89369
 21
10.9937
  0
LINE
  8
0
 10
6.89369
 20
10.9937
 11
6.80126
 21
11.1039
  0
LINE
  8
0
 10
6.80126
 20
11.1039
 11
6.73454
 21
11.2304
  0
LINE
  8
0
 10
6.73454
 20
11.2304
 11
6.69804
 21
11.3694
  0
LINE
  8
0
 10
6.69804
 20
11.3694
 11
6.69931
 21
11.4827
  0
LINE
  8
0
 10
6.69931
 20
11.4827
 11
6.71319
 21
11.5935
  0
LINE
  8
0
 10
6.71319
 20
11.5935
 11
6.73982
 21
11.7007
  0
LINE
  8
0
 10
6.73982
 20
11.7007
 11
6.77931
 21
11.8036
  0
LINE
  8
0
 10
6.77931
 20
11.8036
 11
6.78247
 21
11.9125
  0
LINE
  8
0
 10
6.78247
 20
11.9125
 11
6.7109
 21
12.0009
  0
LINE
  8
0
 10
6.7109
 20
12.0009
 11
6.59046
 21
12.0695
  0
LINE
  8
0
 10
6.59046
 20
12.0695
 11
6.46765
 21
12.1338
  0
LINE
  8
0
 10
6.46765
 20
12.1338
 11
6.35467
 21
12.1461
  0
LINE
  8
0
 10
6.35467
 20
12.1461
 11
6.26465
 21
12.0846
  0
LINE
  8
0
 10
6.26465
 20
12.0846
 11
6.19951
 21
11.9958
  0
LINE
  8
0
 10
6.19951
 20
11.9958
 11
6.12375
 21
11.9153
  0
LINE
  8
0
 10
6.12375
 20
11.9153
 11
6.03809
 21
11.8438
  0
LINE
  8
0
 10
6.03809
 20
11.8438
 11
5.9433
 21
11.7815
  0
LINE
  8
0
 10
5.9433
 20
11.7815
 11
5.80667
 21
11.7371
  0
LINE
  8
0
 10
5.80667
 20
11.7371
 11
5.66417
 21
11.7248
  0
LINE
  8
0
 10
5.66417
 20
11.7248
 11
5.52147
 21
11.743
  0
LINE
  8
0
 10
5.52147
 20
11.743
 11
5.38422
 21
11.7898
  0
LINE
  8
0
 10
5.38422
 20
11.7898
 11
5.25896
 21
11.8629
  0
LINE
  8
0
 10
5.25896
 20
11.8629
 11
5.15178
 21
11.9588
  0
LINE
  8
0
 10
5.15178
 20
11.9588
 11
5.06774
 21
12.0745
  0
LINE
  8
0
 10
5.06774
 20
12.0745
 11
5.01184
 21
12.2069
  0
LINE
  8
0
 10
5.01184
 20
12.2069
 11
4.99696
 21
12.3192
  0
LINE
  8
0
 10
4.99696
 20
12.3192
 11
4.99494
 21
12.4308
  0
LINE
  8
0
 10
4.99494
 20
12.4308
 11
5.00603
 21
12.5408
  0
LINE
  8
0
 10
5.00603
 20
12.5408
 11
5.03048
 21
12.6483
  0
LINE
  8
0
 10
5.03048
 20
12.6483
 11
5.01811
 21
12.7565
  0
LINE
  8
0
 10
5.01811
 20
12.7565
 11
4.93468
 21
12.8338
  0
LINE
  8
0
 10
4.93468
 20
12.8338
 11
4.8057
 21
12.8846
  0
LINE
  8
0
 10
4.8057
 20
12.8846
 11
4.67501
 21
12.9307
  0
LINE
  8
0
 10
4.67501
 20
12.9307
 11
4.56142
 21
12.9268
  0
LINE
  8
0
 10
4.56142
 20
12.9268
 11
4.48106
 21
12.8532
  0
LINE
  8
0
 10
4.48106
 20
12.8532
 11
4.42924
 21
12.756
  0
LINE
  8
0
 10
4.42924
 20
12.756
 11
4.36569
 21
12.6655
  0
LINE
  8
0
 10
4.36569
 20
12.6655
 11
4.29109
 21
12.5825
  0
LINE
  8
0
 10
4.29109
 20
12.5825
 11
4.20612
 21
12.5074
  0
LINE
  8
0
 10
4.20612
 20
12.5074
 11
4.0772
 21
12.444
  0
LINE
  8
0
 10
4.0772
 20
12.444
 11
3.93791
 21
12.4116
  0
LINE
  8
0
 10
3.93791
 20
12.4116
 11
3.79407
 21
12.4092
  0
LINE
  8
0
 10
3.79407
 20
12.4092
 11
3.65155
 21
12.436
  0
LINE
  8
0
 10
3.65155
 20
12.436
 11
3.51717
 21
12.4905
  0
LINE
  8
0
 10
3.51717
 20
12.4905
 11
3.39742
 21
12.5703
  0
LINE
  8
0
 10
3.39742
 20
12.5703
 11
3.29777
 21
12.6729
  0
LINE
  8
0
 10
3.29777
 20
12.6729
 11
3.2236
 21
12.7959
  0
LINE
  8
0
 10
3.2236
 20
12.7959
 11
3.19289
 21
12.905
  0
LINE
  8
0
 10
3.19289
 20
12.905
 11
3.17501
 21
13.0152
  0
LINE
  8
0
 10
3.17501
 20
13.0152
 11
3.17033
 21
13.1256
  0
LINE
  8
0
 10
3.17033
 20
13.1256
 11
3.17924
 21
13.2354
  0
LINE
  8
0
 10
3.17924
 20
13.2354
 11
3.1516
 21
13.3408
  0
LINE
  8
0
 10
3.1516
 20
13.3408
 11
3.058
 21
13.4055
  0
LINE
  8
0
 10
3.058
 20
13.4055
 11
2.92312
 21
13.4374
  0
LINE
  8
0
 10
2.92312
 20
13.4374
 11
2.78719
 21
13.4644
  0
LINE
  8
0
 10
2.78719
 20
13.4644
 11
2.67531
 21
13.4444
  0
LINE
  8
0
 10
2.67531
 20
13.4444
 11
2.60626
 21
13.3601
  0
LINE
  8
0
 10
2.60626
 20
13.3601
 11
2.56879
 21
13.2565
  0
LINE
  8
0
 10
2.56879
 20
13.2565
 11
2.51876
 21
13.1579
  0
LINE
  8
0
 10
2.51876
 20
13.1579
 11
2.45673
 21
13.0651
  0
LINE
  8
0
 10
2.45673
 20
13.0651
 11
2.38332
 21
12.9787
  0
LINE
  8
0
 10
2.38332
 20
12.9787
 11
2.26474
 21
12.8976
  0
LINE
  8
0
 10
2.26474
 20
12.8976
 11
2.13147
 21
12.8457
  0
LINE
  8
0
 10
2.13147
 20
12.8457
 11
1.98943
 21
12.8229
  0
LINE
  8
0
 10
1.98943
 20
12.8229
 11
1.84455
 21
12.8291
  0
LINE
  8
0
 10
1.84455
 20
12.8291
 11
1.70378
 21
12.864
  0
LINE
  8
0
 10
1.70378
 20
12.864
 11
1.57391
 21
12.9258
  0
LINE
  8
0
 10
1.57391
 20
12.9258
 11
1.46067
 21
13.0132
  0
LINE
  8
0
 10
1.46067
 20
13.0132
 11
1.36974
 21
13.1244
  0
LINE
  8
0
 10
1.36974
 20
13.1244
 11
1.32382
 21
13.228
  0
LINE
  8
0
 10
1.32382
 20
13.228
 11
1.29044
 21
13.3345
  0
LINE
  8
0
 10
1.29044
 20
13.3345
 11
1.27009
 21
13.4432
  0
LINE
  8
0
 10
1.27009
 20
13.4432
 11
1.26328
 21
13.5532
  0
LINE
  8
0
 10
1.26328
 20
13.5532
 11
1.22092
 21
13.6535
  0
LINE
  8
0
 10
1.22092
 20
13.6535
 11
1.11908
 21
13.7042
  0
LINE
  8
0
 10
1.11908
 20
13.7042
 11
0.98103
 21
13.7166
  0
LINE
  8
0
 10
0.98103
 20
13.7166
 11
0.842637
 21
13.724
  0
LINE
  8
0
 10
0.842637
 20
13.724
 11
0.734741
 21
13.6883
  0
LINE
  8
0
 10
0.734741
 20
13.6883
 11
0.67839
 21
13.595
  0
LINE
  8
0
 10
0.67839
 20
13.595
 11
0.656054
 21
13.4871
  0
LINE
  8
0
 10
0.656054
 20
13.4871
 11
0.620551
 21
13.3825
  0
LINE
  8
0
 10
0.620551
 20
13.3825
 11
0.572367
 21
13.2818
  0
LINE
  8
0
 10
0.572367
 20
13.2818
 11
0.512002
 21
13.1858
  0
LINE
  8
0
 10
0.512002
 20
13.1858
 11
0.406169
 21
13.0886
  0
LINE
  8
0
 10
0.406169
 20
13.0886
 11
0.281651
 21
13.0182
  0
LINE
  8
0
 10
0.281651
 20
13.0182
 11
0.144294
 21
12.9755
  0
LINE
  8
0
 10
0.144294
 20
12.9755
 11
0
 21
12.9611
  0
LINE
  8
0
 10
0
 20
12.9611
 11
-0.144294
 21
12.9755
  0
LINE
  8
0
 10
-0.144294
 20
12.9755
 11
-0.281651
 21
13.0182
  0
LINE
  8
0
 10
-0.281651
 20
13.0182
 11
-0.406169
 21
13.0886
  0
LINE
  8
0
 10
-0.406169
 20
13.0886
 11
-0.512002
 21
13.1858
  0
LINE
  8
0
 10
-0.512002
 20
13.1858
 11
-0.572193
 21
13.2818
  0
LINE
  8
0
 10
-0.572193
 20
13.2818
 11
-0.620396
 21
13.3825
  0
LINE
  8
0
 10
-0.620396
 20
13.3825
 11
-0.656002
 21
13.4871
  0
LINE
  8
0
 10
-0.656002
 20
13.4871
 11
-0.67839
 21
13.595
  0
LINE
  8
0
 10
-0.67839
 20
13.595
 11
-0.734602
 21
13.6883
  0
LINE
  8
0
 10
-0.734602
 20
13.6883
 11
-0.842632
 21
13.724
  0
LINE
  8
0
 10
-0.842632
 20
13.724
 11
-0.98103
 21
13.7166
  0
LINE
  8
0
 10
-0.98103
 20
13.7166
 11
-1.11907
 21
13.7042
  0
LINE
  8
0
 10
-1.11907
 20
13.7042
 11
-1.22079
 21
13.6535
  0
LINE
  8
0
 10
-1.22079
 20
13.6535
 11
-1.26328
 21
13.5532
  0
LINE
  8
0
 10
-1.26328
 20
13.5532
 11
-1.27004
 21
13.4432
  0
LINE
  8
0
 10
-1.27004
 20
13.4432
 11
-1.29029
 21
13.3346
  0
LINE
  8
0
 10
-1.29029
 20
13.3346
 11
-1.32365
 21
13.228
  0
LINE
  8
0
 10
-1.32365
 20
13.228
 11
-1.36974
 21
13.1244
  0
LINE
  8
0
 10
-1.36974
 20
13.1244
 11
-1.46067
 21
13.0132
  0
LINE
  8
0
 10
-1.46067
 20
13.0132
 11
-1.57391
 21
12.9258
  0
LINE
  8
0
 10
-1.57391
 20
12.9258
 11
-1.70378
 21
12.864
  0
LINE
  8
0
 10
-1.70378
 20
12.864
 11
-1.84455
 21
12.8291
  0
LINE
  8
0
 10
-1.84455
 20
12.8291
 11
-1.98943
 21
12.8229
  0
LINE
  8
0
 10
-1.98943
 20
12.8229
 11
-2.13147
 21
12.8457
  0
LINE
  8
0
 10
-2.13147
 20
12.8457
 11
-2.26474
 21
12.8976
  0
LINE
  8
0
 10
-2.26474
 20
12.8976
 11
-2.38332
 21
12.9787
  0
LINE
  8
0
 10
-2.38332
 20
12.9787
 11
-2.45656
 21
13.0651
  0
LINE
  8
0
 10
-2.45656
 20
13.0651
 11
-2.5186
 21
13.158
  0
LINE
  8
0
 10
-2.5186
 20
13.158
 11
-2.56874
 21
13.2565
  0
LINE
  8
0
 10
-2.56874
 20
13.2565
 11
-2.60626
 21
13.3601
  0
LINE
  8
0
 10
-2.60626
 20
13.3601
 11
-2.67517
 21
13.4444
  0
LINE
  8
0
 10
-2.67517
 20
13.4444
 11
-2.78719
 21
13.4644
  0
LINE
  8
0
 10
-2.78719
 20
13.4644
 11
-2.92312
 21
13.4374
  0
LINE
  8
0
 10
-2.92312
 20
13.4374
 11
-3.058
 21
13.4055
  0
LINE
  8
0
 10
-3.058
 20
13.4055
 11
-3.15146
 21
13.3408
  0
LINE
  8
0
 10
-3.15146
 20
13.3408
 11
-3.17924
 21
13.2354
  0
LINE
  8
0
 10
-3.17924
 20
13.2354
 11
-3.17028
 21
13.1256
  0
LINE
  8
0
 10
-3.17028
 20
13.1256
 11
-3.17486
 21
13.0152
  0
LINE
  8
0
 10
-3.17486
 20
13.0152
 11
-3.19272
 21
12.905
  0
LINE
  8
0
 10
-3.19272
 20
12.905
 11
-3.2236
 21
12.7959
  0
LINE
  8
0
 10
-3.2236
 20
12.7959
 11
-3.29777
 21
12.6729
  0
LINE
  8
0
 10
-3.29777
 20
12.6729
 11
-3.39742
 21
12.5703
  0
LINE
  8
0
 10
-3.39742
 20
12.5703
 11
-3.51717
 21
12.4905
  0
LINE
  8
0
 10
-3.51717
 20
12.4905
 11
-3.65155
 21
12.436
  0
LINE
  8
0
 10
-3.65155
 20
12.436
 11
-3.79407
 21
12.4092
  0
LINE
  8
0
 10
-3.79407
 20
12.4092
 11
-3.93791
 21
12.4116
  0
LINE
  8
0
 10
-3.93791
 20
12.4116
 11
-4.0772
 21
12.444
  0
LINE
  8
0
 10
-4.0772
 20
12.444
 11
-4.20612
 21
12.5074
  0
LINE
  8
0
 10
-4.20612
 20
12.5074
 11
-4.29092
 21
12.5826
  0
LINE
  8
0
 10
-4.29092
 20
12.5826
 11
-4.36554
 21
12.6656
  0
LINE
  8
0
 10
-4.36554
 20
12.6656
 11
-4.42919
 21
12.756
  0
LINE
  8
0
 10
-4.42919
 20
12.756
 11
-4.48106
 21
12.8532
  0
LINE
  8
0
 10
-4.48106
 20
12.8532
 11
-4.56129
 21
12.9269
  0
LINE
  8
0
 10
-4.56129
 20
12.9269
 11
-4.675
 21
12.9307
  0
LINE
  8
0
 10
-4.675
 20
12.9307
 11
-4.8057
 21
12.8846
  0
LINE
  8
0
 10
-4.8057
 20
12.8846
 11
-4.93467
 21
12.8338
  0
LINE
  8
0
 10
-4.93467
 20
12.8338
 11
-5.01798
 21
12.7565
  0
LINE
  8
0
 10
-5.01798
 20
12.7565
 11
-5.03048
 21
12.6483
  0
LINE
  8
0
 10
-5.03048
 20
12.6483
 11
-5.00598
 21
12.5408
  0
LINE
  8
0
 10
-5.00598
 20
12.5408
 11
-4.9948
 21
12.4309
  0
LINE
  8
0
 10
-4.9948
 20
12.4309
 11
-4.9968
 21
12.3193
  0
LINE
  8
0
 10
-4.9968
 20
12.3193
 11
-5.01184
 21
12.2069
  0
LINE
  8
0
 10
-5.01184
 20
12.2069
 11
-5.06774
 21
12.0745
  0
LINE
  8
0
 10
-5.06774
 20
12.0745
 11
-5.15178
 21
11.9588
  0
LINE
  8
0
 10
-5.15178
 20
11.9588
 11
-5.25896
 21
11.8629
  0
LINE
  8
0
 10
-5.25896
 20
11.8629
 11
-5.38422
 21
11.7898
  0
LINE
  8
0
 10
-5.38422
 20
11.7898
 11
-5.52147
 21
11.743
  0
LINE
  8
0
 10
-5.52147
 20
11.743
 11
-5.66417
 21
11.7248
  0
LINE
  8
0
 10
-5.66417
 20
11.7248
 11
-5.80667
 21
11.7371
  0
LINE
  8
0
 10
-5.80667
 20
11.7371
 11
-5.9433
 21
11.7815
  0
LINE
  8
0
 10
-5.9433
 20
11.7815
 11
-6.03793
 21
11.8438
  0
LINE
  8
0
 10
-6.03793
 20
11.8438
 11
-6.12361
 21
11.9154
  0
LINE
  8
0
 10
-6.12361
 20
11.9154
 11
-6.19947
 21
11.9958
  0
LINE
  8
0
 10
-6.19947
 20
11.9958
 11
-6.26465
 21
12.0846
  0
LINE
  8
0
 10
-6.26465
 20
12.0846
 11
-6.35455
 21
12.1462
  0
LINE
  8
0
 10
-6.35455
 20
12.1462
 11
-6.46765
 21
12.1338
  0
LINE
  8
0
 10
-6.46765
 20
12.1338
 11
-6.59046
 21
12.0695
  0
LINE
  8
0
 10
-6.59046
 20
12.0695
 11
-6.71089
 21
12.0009
  0
LINE
  8
0
 10
-6.71089
 20
12.0009
 11
-6.78235
 21
11.9126
  0
LINE
  8
0
 10
-6.78235
 20
11.9126
 11
-6.77931
 21
11.8036
  0
LINE
  8
0
 10
-6.77931
 20
11.8036
 11
-6.73977
 21
11.7008
  0
LINE
  8
0
 10
-6.73977
 20
11.7008
 11
-6.71306
 21
11.5935
  0
LINE
  8
0
 10
-6.71306
 20
11.5935
 11
-6.69916
 21
11.4828
  0
LINE
  8
0
 10
-6.69916
 20
11.4828
 11
-6.69804
 21
11.3694
  0
LINE
  8
0
 10
-6.69804
 20
11.3694
 11
-6.73454
 21
11.2304
  0
LINE
  8
0
 10
-6.73454
 20
11.2304
 11
-6.80126
 21
11.1039
  0
LINE
  8
0
 10
-6.80126
 20
11.1039
 11
-6.89369
 21
10.9937
  0
LINE
  8
0
 10
-6.89369
 20
10.9937
 11
-7.00728
 21
10.9035
  0
LINE
  8
0
 10
-7.00728
 20
10.9035
 11
-7.13647
 21
10.8377
  0
LINE
  8
0
 10
-7.13647
 20
10.8377
 11
-7.27514
 21
10.7994
  0
LINE
  8
0
 10
-7.27514
 20
10.7994
 11
-7.41793
 21
10.7912
  0
LINE
  8
0
 10
-7.41793
 20
10.7912
 11
-7.55949
 21
10.8158
  0
LINE
  8
0
 10
-7.55949
 20
10.8158
 11
-7.66203
 21
10.864
  0
LINE
  8
0
 10
-7.66203
 20
10.864
 11
-7.75702
 21
10.9226
  0
LINE
  8
0
 10
-7.75702
 20
10.9226
 11
-7.84354
 21
10.9914
  0
LINE
  8
0
 10
-7.84354
 20
10.9914
 11
-7.92071
 21
11.0701
  0
LINE
  8
0
 10
-7.92071
 20
11.0701
 11
-8.01845
 21
11.1182
  0
LINE
  8
0
 10
-8.01845
 20
11.1182
 11
-8.12863
 21
11.0898
  0
LINE
  8
0
 10
-8.12863
 20
11.0898
 11
-8.24105
 21
11.0088
  0
LINE
  8
0
 10
-8.24105
 20
11.0088
 11
-8.3505
 21
10.9237
  0
LINE
  8
0
 10
-8.3505
 20
10.9237
 11
-8.40866
 21
10.8261
  0
LINE
  8
0
 10
-8.40866
 20
10.8261
 11
-8.39014
 21
10.7187
  0
LINE
  8
0
 10
-8.39014
 20
10.7187
 11
-8.33636
 21
10.6225
  0
LINE
  8
0
 10
-8.33636
 20
10.6225
 11
-8.29467
 21
10.5202
  0
LINE
  8
0
 10
-8.29467
 20
10.5202
 11
-8.26514
 21
10.4125
  0
LINE
  8
0
 10
-8.26514
 20
10.4125
 11
-8.2479
 21
10.3004
  0
LINE
  8
0
 10
-8.2479
 20
10.3004
 11
-8.26425
 21
10.1577
  0
LINE
  8
0
 10
-8.26425
 20
10.1577
 11
-8.31228
 21
10.023
  0
LINE
  8
0
 10
-8.31228
 20
10.023
 11
-8.38809
 21
9.90072
  0
LINE
  8
0
 10
-8.38809
 20
9.90072
 11
-8.48769
 21
9.79532
  0
LINE
  8
0
 10
-8.48769
 20
9.79532
 11
-8.60619
 21
9.71173
  0
LINE
  8
0
 10
-8.60619
 20
9.71173
 11
-8.738
 21
9.65409
  0
LINE
  8
0
 10
-8.738
 20
9.65409
 11
-8.87818
 21
9.62573
  0
LINE
  8
0
 10
-8.87818
 20
9.62573
 11
-9.02179
 21
9.62985
  0
LINE
  8
0
 10
-9.02179
 20
9.62985
 11
-9.13014
 21
9.66298
  0
LINE
  8
0
 10
-9.13014
 20
9.66298
 11
-9.23251
 21
9.70752
  0
LINE
  8
0
 10
-9.23251
 20
9.70752
 11
-9.32795
 21
9.76328
  0
LINE
  8
0
 10
-9.32795
 20
9.76328
 11
-9.41553
 21
9.83016
  0
LINE
  8
0
 10
-9.41553
 20
9.83016
 11
-9.51911
 21
9.86387
  0
LINE
  8
0
 10
-9.51911
 20
9.86387
 11
-9.62414
 21
9.82011
  0
LINE
  8
0
 10
-9.62414
 20
9.82011
 11
-9.72387
 21
9.72387
  0
LINE
  8
0
 10
-9.72387
 20
9.72387
 11
-9.82011
 21
9.62414
  0
LINE
  8
0
 10
-9.82011
 20
9.62414
 11
-9.86378
 21
9.51922
  0
LINE
  8
0
 10
-9.86378
 20
9.51922
 11
-9.83016
 21
9.41553
  0
LINE
  8
0
 10
-9.83016
 20
9.41553
 11
-9.76325
 21
9.32799
  0
LINE
  8
0
 10
-9.76325
 20
9.32799
 11
-9.70741
 21
9.23263
  0
LINE
  8
0
 10
-9.70741
 20
9.23263
 11
-9.66287
 21
9.13027
  0
LINE
  8
0
 10
-9.66287
 20
9.13027
 11
-9.62985
 21
9.02179
  0
LINE
  8
0
 10
-9.62985
 20
9.02179
 11
-9.62573
 21
8.87818
  0
LINE
  8
0
 10
-9.62573
 20
8.87818
 11
-9.65409
 21
8.738
  0
LINE
  8
0
 10
-9.65409
 20
8.738
 11
-9.71173
 21
8.60619
  0
LINE
  8
0
 10
-9.71173
 20
8.60619
 11
-9.79532
 21
8.48769
  0
LINE
  8
0
 10
-9.79532
 20
8.48769
 11
-9.90072
 21
8.38809
  0
LINE
  8
0
 10
-9.90072
 20
8.38809
 11
-10.023
 21
8.31228
  0
LINE
  8
0
 10
-10.023
 20
8.31228
 11
-10.1577
 21
8.26425
  0
LINE
  8
0
 10
-10.1577
 20
8.26425
 11
-10.3004
 21
8.2479
  0
LINE
  8
0
 10
-10.3004
 20
8.2479
 11
-10.4124
 21
8.26527
  0
LINE
  8
0
 10
-10.4124
 20
8.26527
 11
-10.5201
 21
8.29478
  0
LINE
  8
0
 10
-10.5201
 20
8.29478
 11
-10.6225
 21
8.3364
  0
LINE
  8
0
 10
-10.6225
 20
8.3364
 11
-10.7187
 21
8.39014
  0
LINE
  8
0
 10
-10.7187
 20
8.39014
 11
-10.826
 21
8.40876
  0
LINE
  8
0
 10
-10.826
 20
8.40876
 11
-10.9237
 21
8.3505
  0
LINE
  8
0
 10
-10.9237
 20
8.3505
 11
-11.0088
 21
8.24105
  0
LINE
  8
0
 10
-11.0088
 20
8.24105
 11
-11.0898
 21
8.12863
  0
LINE
  8
0
 10
-11.0898
 20
8.12863
 11
-11.1181
 21
8.01856
  0
LINE
  8
0
 10
-11.1181
 20
8.01856
 11
-11.0701
 21
7.92071
  0
LINE
  8
0
 10
-11.0701
 20
7.92071
 11
-10.9914
 21
7.84359
  0
LINE
  8
0
 10
-10.9914
 20
7.84359
 11
-10.9225
 21
7.75715
  0
LINE
  8
0
 10
-10.9225
 20
7.75715
 11
-10.8639
 21
7.66217
  0
LINE
  8
0
 10
-10.8639
 20
7.66217
 11
-10.8158
 21
7.55949
  0
LINE
  8
0
 10
-10.8158
 20
7.55949
 11
-10.7912
 21
7.41793
  0
LINE
  8
0
 10
-10.7912
 20
7.41793
 11
-10.7994
 21
7.27514
  0
LINE
  8
0
 10
-10.7994
 20
7.27514
 11
-10.8377
 21
7.13647
  0
LINE
  8
0
 10
-10.8377
 20
7.13647
 11
-10.9035
 21
7.00728
  0
LINE
  8
0
 10
-10.9035
 20
7.00728
 11
-10.9937
 21
6.89369
  0
LINE
  8
0
 10
-10.9937
 20
6.89369
 11
-11.1039
 21
6.80126
  0
LINE
  8
0
 10
-11.1039
 20
6.80126
 11
-11.2304
 21
6.73454
  0
LINE
  8
0
 10
-11.2304
 20
6.73454
 11
-11.3694
 21
6.69804
  0
LINE
  8
0
 10
-11.3694
 20
6.69804
 11
-11.4827
 21
6.69931
  0
LINE
  8
0
 10
-11.4827
 20
6.69931
 11
-11.5935
 21
6.71319
  0
LINE
  8
0
 10
-11.5935
 20
6.71319
 11
-11.7007
 21
6.73982
  0
LINE
  8
0
 10
-11.7007
 20
6.73982
 11
-11.8036
 21
6.77931
  0
LINE
  8
0
 10
-11.8036
 20
6.77931
 11
-11.9125
 21
6.78247
  0
LINE
  8
0
 10
-11.9125
 20
6.78247
 11
-12.0009
 21
6.7109
  0
LINE
  8
0
 10
-12.0009
 20
6.7109
 11
-12.0695
 21
6.59046
  0
LINE
  8
0
 10
-12.0695
 20
6.59046
 11
-12.1338
 21
6.46765
  0
LINE
  8
0
 10
-12.1338
 20
6.46765
 11
-12.1461
 21
6.35467
  0
LINE
  8
0
 10
-12.1461
 20
6.35467
 11
-12.0846
 21
6.26465
  0
LINE
  8
0
 10
-12.0846
 20
6.26465
 11
-11.9958
 21
6.19951
  0
LINE
  8
0
 10
-11.9958
 20
6.19951
 11
-11.9153
 21
6.12375
  0
LINE
  8
0
 10
-11.9153
 20
6.12375
 11
-11.8438
 21
6.03809
  0
LINE
  8
0
 10
-11.8438
 20
6.03809
 11
-11.7815
 21
5.9433
  0
LINE
  8
0
 10
-11.7815
 20
5.9433
 11
-11.7371
 21
5.80667
  0
LINE
  8
0
 10
-11.7371
 20
5.80667
 11
-11.7248
 21
5.66417
  0
LINE
  8
0
 10
-11.7248
 20
5.66417
 11
-11.743
 21
5.52147
  0
LINE
  8
0
 10
-11.743
 20
5.52147
 11
-11.7898
 21
5.38422
  0
LINE
  8
0
 10
-11.7898
 20
5.38422
 11
-11.8629
 21
5.25896
  0
LINE
  8
0
 10
-11.8629
 20
5.25896
 11
-11.9588
 21
5.15178
  0
LINE
  8
0
 10
-11.9588
 20
5.15178
 11
-12.0745
 21
5.06774
  0
LINE
  8
0
 10
-12.0745
 20
5.06774
 11
-12.2069
 21
5.01184
  0
LINE
  8
0
 10
-12.2069
 20
5.01184
 11
-12.3192
 21
4.99696
  0
LINE
  8
0
 10
-12.3192
 20
4.99696
 11
-12.4308
 21
4.99494
  0
LINE
  8
0
 10
-12.4308
 20
4.99494
 11
-12.5408
 21
5.00603
  0
LINE
  8
0
 10
-12.5408
 20
5.00603
 11
-12.6483
 21
5.03048
  0
LINE
  8
0
 10
-12.6483
 20
5.03048
 11
-12.7565
 21
5.01811
  0
LINE
  8
0
 10
-12.7565
 20
5.01811
 11
-12.8338
 21
4.93468
  0
LINE
  8
0
 10
-12.8338
 20
4.93468
 11
-12.8846
 21
4.8057
  0
LINE
  8
0
 10
-12.8846
 20
4.8057
 11
-12.9307
 21
4.67501
  0
LINE
  8
0
 10
-12.9307
 20
4.67501
 11
-12.9268
 21
4.56142
  0
LINE
  8
0
 10
-12.9268
 20
4.56142
 11
-12.8532
 21
4.48106
  0
LINE
  8
0
 10
-12.8532
 20
4.48106
 11
-12.756
 21
4.42924
  0
LINE
  8
0
 10
-12.756
 20
4.42924
 11
-12.6655
 21
4.36569
  0
LINE
  8
0
 10
-12.6655
 20
4.36569
 11
-12.5825
 21
4.29109
  0
LINE
  8
0
 10
-12.5825
 20
4.29109
 11
-12.5074
 21
4.20612
  0
LINE
  8
0
 10
-12.5074
 20
4.20612
 11
-12.444
 21
4.0772
  0
LINE
  8
0
 10
-12.444
 20
4.0772
 11
-12.4116
 21
3.93791
  0
LINE
  8
0
 10
-12.4116
 20
3.93791
 11
-12.4092
 21
3.79407
  0
LINE
  8
0
 10
-12.4092
 20
3.79407
 11
-12.436
 21
3.65155
  0
LINE
  8
0
 10
-12.436
 20
3.65155
 11
-12.4905
 21
3.51717
  0
LINE
  8
0
 10
-12.4905
 20
3.51717
 11
-12.5703
 21
3.39742
  0
LINE
  8
0
 10
-12.5703
 20
3.39742
 11
-12.6729
 21
3.29777
  0
LINE
  8
0
 10
-12.6729
 20
3.29777
 11
-12.7959
 21
3.2236
  0
LINE
  8
0
 10
-12.7959
 20
3.2236
 11
-12.905
 21
3.19289
  0
LINE
  8
0
 10
-12.905
 20
3.19289
 11
-13.0152
 21
3.17501
  0
LINE
  8
0
 10
-13.0152
 20
3.17501
 11
-13.1256
 21
3.17033
  0
LINE
  8
0
 10
-13.1256
 20
3.17033
 11
-13.2354
 21
3.17924
  0
LINE
  8
0
 10
-13.2354
 20
3.17924
 11
-13.3408
 21
3.1516
  0
LINE
  8
0
 10
-13.3408
 20
3.1516
 11
-13.4055
 21
3.058
  0
LINE
  8
0
 10
-13.4055
 20
3.058
 11
-13.4374
 21
2.92312
  0
LINE
  8
0
 10
-13.4374
 20
2.92312
 11
-13.4644
 21
2.78719
  0
LINE
  8
0
 10
-13.4644
 20
2.78719
 11
-13.4444
 21
2.67531
  0
LINE
  8
0
 10
-13.4444
 20
2.67531
 11
-13.3601
 21
2.60626
  0
LINE
  8
0
 10
-13.3601
 20
2.60626
 11
-13.2565
 21
2.56879
  0
LINE
  8
0
 10
-13.2565
 20
2.56879
 11
-13.1579
 21
2.51876
  0
LINE
  8
0
 10
-13.1579
 20
2.51876
 11
-13.0651
 21
2.45673
  0
LINE
  8
0
 10
-13.0651
 20
2.45673
 11
-12.9787
 21
2.38332
  0
LINE
  8
0
 10
-12.9787
 20
2.38332
 11
-12.8976
 21
2.26474
  0
LINE
  8
0
 10
-12.8976
 20
2.26474
 11
-12.8457
 21
2.13147
  0
LINE
  8
0
 10
-12.8457
 20
2.13147
 11
-12.8229
 21
1.98943
  0
LINE
  8
0
 10
-12.8229
 20
1.98943
 11
-12.8291
 21
1.84455
  0
LINE
  8
0
 10
-12.8291
 20
1.84455
 11
-12.864
 21
1.70378
  0
LINE
  8
0
 10
-12.864
 20
1.70378
 11
-12.9258
 21
1.57391
  0
LINE
  8
0
 10
-12.9258
 20
1.57391
 11
-13.0132
 21
1.46067
  0
LINE
  8
0
 10
-13.0132
 20
1.46067
 11
-13.1244
 21
1.36974
  0
LINE
  8
0
 10
-13.1244
 20
1.36974
 11
-13.228
 21
1.32382
  0
LINE
  8
0
 10
-13.228
 20
1.32382
 11
-13.3345
 21
1.29044
  0
LINE
  8
0
 10
-13.3345
 20
1.29044
 11
-13.4432
 21
1.27009
  0
LINE
  8
0
 10
-13.4432
 20
1.27009
 11
-13.5532
 21
1.26328
  0
LINE
  8
0
 10
-13.5532
 20
1.26328
 11
-13.6535
 21
1.22092
  0
LINE
  8
0
 10
-13.6535
 20
1.22092
 11
-13.7042
 21
1.11908
  0
LINE
  8
0
 10
-13.7042
 20
1.11908
 11
-13.7166
 21
0.98103
  0
LINE
  8
0
 10
-13.7166
 20
0.98103
 11
-13.724
 21
0.842637
  0
LINE
  8
0
 10
-13.724
 20
0.842637
 11
-13.6883
 21
0.734741
  0
LINE
  8
0
 10
-13.6883
 20
0.734741
 11
-13.595
 21
0.67839
  0
LINE
  8
0
 10
-13.595
 20
0.67839
 11
-13.4871
 21
0.656054
  0
LINE
  8
0
 10
-13.4871
 20
0.656054
 11
-13.3825
 21
0.620551
  0
LINE
  8
0
 10
-13.3825
 20
0.620551
 11
-13.2818
 21
0.572367
  0
LINE
  8
0
 10
-13.2818
 20
0.572367
 11
-13.1858
 21
0.512002
  0
LINE
  8
0
 10
-13.1858
 20
0.512002
 11
-13.0886
 21
0.406169
  0
LINE
  8
0
 10
-13.0886
 20
0.406169
 11
-13.0182
 21
0.281651
  0
LINE
  8
0
 10
-13.0182
 20
0.281651
 11
-12.9755
 21
0.144294
  0
LINE
  8
0
 10
-12.9755
 20
0.144294
 11
-12.9611
 21
0
  0
LINE
  8
0
 10
-12.9611
 20
0
 11
-12.9755
 21
-0.144294
  0
LINE
  8
0
 10
-12.9755
 20
-0.144294
 11
-13.0182
 21
-0.281651
  0
LINE
  8
0
 10
-13.0182
 20
-0.281651
 11
-13.0886
 21
-0.406169
  0
LINE
  8
0
 10
-13.0886
 20
-0.406169
 11
-13.1858
 21
-0.512002
  0
LINE
  8
0
 10
-13.1858
 20
-0.512002
 11
-13.2818
 21
-0.572193
  0
LINE
  8
0
 10
-13.2818
 20
-0.572193
 11
-13.3825
 21
-0.620396
  0
LINE
  8
0
 10
-13.3825
 20
-0.620396
 11
-13.4871
 21
-0.656002
  0
LINE
  8
0
 10
-13.4871
 20
-0.656002
 11
-13.595
 21
-0.67839
  0
LINE
  8
0
 10
-13.595
 20
-0.67839
 11
-13.6883
 21
-0.734602
  0
LINE
  8
0
 10
-13.6883
 20
-0.734602
 11
-13.724
 21
-0.842632
  0
LINE
  8
0
 10
-10.95
 20
0
 11
-10.8637
 21
1.3724
  0
LINE
  8
0
 10
-10.8637
 20
1.3724
 11
-10.606
 21
2.72315
  0
LINE
  8
0
 10
-10.606
 20
2.72315
 11
-10.1811
 21
4.03096
  0
LINE
  8
0
 10
-10.1811
 20
4.03096
 11
-9.59556
 21
5.2752
  0
LINE
  8
0
 10
-9.59556
 20
5.2752
 11
-8.85874
 21
6.43625
  0
LINE
  8
0
 10
-8.85874
 20
6.43625
 11
-7.98221
 21
7.49579
  0
LINE
  8
0
 10
-7.98221
 20
7.49579
 11
-6.97979
 21
8.43712
  0
LINE
  8
0
 10
-6.97979
 20
8.43712
 11
-5.8673
 21
9.24539
  0
LINE
  8
0
 10
-5.8673
 20
9.24539
 11
-4.66228
 21
9.90786
  0
LINE
  8
0
 10
-4.66228
 20
9.90786
 11
-3.38374
 21
10.4141
  0
LINE
  8
0
 10
-3.38374
 20
10.4141
 11
-2.05182
 21
10.756
  0
LINE
  8
0
 10
-2.05182
 20
10.756
 11
-0.687555
 21
10.9284
  0
LINE
  8
0
 10
-0.687555
 20
10.9284
 11
0.687555
 21
10.9284
  0
LINE
  8
0
 10
0.687555
 20
10.9284
 11
2.05182
 21
10.756
  0
LINE
  8
0
 10
2.05182
 20
10.756
 11
3.38374
 21
10.4141
  0
LINE
  8
0
 10
3.38374
 20
10.4141
 11
4.66228
 21
9.90786
  0
LINE
  8
0
 10
4.66228
 20
9.90786
 11
5.8673
 21
9.24539
  0
LINE
  8
0
 10
5.8673
 20
9.24539
 11
6.97979
 21
8.43712
  0
LINE
  8
0
 10
6.97979
 20
8.43712
 11
7.98221
 21
7.49579
  0
LINE
  8
0
 10
7.98221
 20
7.49579
 11
8.85874
 21
6.43625
  0
LINE
  8
0
 10
8.85874
 20
6.43625
 11
9.59556
 21
5.2752
  0
LINE
  8
0
 10
9.59556
 20
5.2752
 11
10.1811
 21
4.03096
  0
LINE
  8
0
 10
10.1811
 20
4.03096
 11
10.606
 21
2.72315
  0
LINE
  8
0
 10
10.606
 20
2.72315
 11
10.8637
 21
1.3724
  0
LINE
  8
0
 10
10.8637
 20
1.3724
 11
10.95
 21
0
  0
LINE
  8
0
 10
10.95
 20
0
 11
10.8637
 21
-1.3724
  0
LINE
  8
0
 10
10.8637
 20
-1.3724
 11
10.606
 21
-2.72315
  0
LINE
  8
0
 10
10.606
 20
-2.72315
 11
10.1811
 21
-4.03096
  0
LINE
  8
0
 10
10.1811
 20
-4.03096
 11
9.59556
 21
-5.2752
  0
LINE
  8
0
 10
9.59556
 20
-5.2752
 11
8.85874
 21
-6.43625
  0
LINE
  8
0
 10
8.85874
 20
-6.43625
 11
7.98221
 21
-7.49579
  0
LINE
  8
0
 10
7.98221
 20
-7.49579
 11
6.97979
 21
-8.43712
  0
LINE
  8
0
 10
6.97979
 20
-8.43712
 11
5.8673
 21
-9.24539
  0
LINE
  8
0
 10
5.8673
 20
-9.24539
 11
4.66228
 21
-9.90786
  0
LINE
  8
0
 10
4.66228
 20
-9.90786
 11
3.38374
 21
-10.4141
  0
LINE
  8
0
 10
3.38374
 20
-10.4141
 11
2.05182
 21
-10.756
  0
LINE
  8
0
 10
2.05182
 20
-10.756
 11
0.687555
 21
-10.9284
  0
LINE
  8
0
 10
0.687555
 20
-10.9284
 11
-0.687555
 21
-10.9284
  0
LINE
  8
0
 10
-0.687555
 20
-10.9284
 11
-2.05182
 21
-10.756
  0
LINE
  8
0
 10
-2.05182
 20
-10.756
 11
-3.38374
 21
-10.4141
  0
LINE
  8
0
 10
-3.38374
 20
-10.4141
 11
-4.66228
 21
-9.90786
  0
LINE
  8
0
 10
-4.66228
 20
-9.90786
 11
-5.8673
 21
-9.24539
  0
LINE
  8
0
 10
-5.8673
 20
-9.24539
 11
-6.97979
 21
-8.43712
  0
LINE
  8
0
 10
-6.97979
 20
-8.43712
 11
-7.98221
 21
-7.49579
  0
LINE
  8
0
 10
-7.98221
 20
-7.49579
 11
-8.85874
 21
-6.43625
  0
LINE
  8
0
 10
-8.85874
 20
-6.43625
 11
-9.59556
 21
-5.2752
  0
LINE
  8
0
 10
-9.59556
 20
-5.2752
 11
-10.1811
 21
-4.03096
  0
LINE
  8
0
 10
-10.1811
 20
-4.03096
 11
-10.606
 21
-2.72315
  0
LINE
  8
0
 10
-10.606
 20
-2.72315
 11
-10.8637
 21
-1.3724
  0
LINE
  8
0
 10
-10.8637
 20
-1.3724
 11
-10.95
 21
0
  0
ENDSEC
  0
SECTION
  2
OBJECTS
  0
DICTIONARY
  0
ENDSEC
  0
EOF
