  0
SECTION
  2
BLOCKS
  0
ENDSEC
  0
SECTION
  2
ENTITIES
  0
LINE
  8
0
 10
3.09178
 20
-16.2077
 11
5.09877
 21
-15.6924
  0
LINE
  8
0
 10
5.09877
 20
-15.6924
 11
7.02534
 21
-14.9296
  0
LINE
  8
0
 10
7.02534
 20
-14.9296
 11
8.84114
 21
-13.9314
  0
LINE
  8
0
 10
8.84114
 20
-13.9314
 11
10.5175
 21
-12.7135
  0
LINE
  8
0
 10
10.5175
 20
-12.7135
 11
12.028
 21
-11.295
  0
LINE
  8
0
 10
12.028
 20
-11.295
 11
12.1893
 21
-11.1
  0
LINE
  8
0
 10
12.1893
 20
-11.1
 11
55
 21
-11.1
  0
LINE
  8
0
 10
55
 20
-11.1
 11
55
 21
11.1
  0
LINE
  8
0
 10
55
 20
11.1
 11
12.1893
 21
11.1
  0
LINE
  8
0
 10
12.1893
 20
11.1
 11
12.028
 21
11.295
  0
LINE
  8
0
 10
12.028
 20
11.295
 11
10.5175
 21
12.7135
  0
LINE
  8
0
 10
10.5175
 20
12.7135
 11
8.84114
 21
13.9314
  0
LINE
  8
0
 10
8.84114
 20
13.9314
 11
7.02534
 21
14.9296
  0
LINE
  8
0
 10
7.02534
 20
14.9296
 11
5.09877
 21
15.6924
  0
LINE
  8
0
 10
5.09877
 20
15.6924
 11
3.09178
 21
16.2077
  0
LINE
  8
0
 10
3.09178
 20
16.2077
 11
1.03604
 21
16.4674
  0
LINE
  8
0
 10
1.03604
 20
16.4674
 11
-1.03604
 21
16.4674
  0
LINE
  8
0
 10
-1.03604
 20
16.4674
 11
-3.09178
 21
16.2077
  0
LINE
  8
0
 10
-3.09178
 20
16.2077
 11
-5.09877
 21
15.6924
  0
LINE
  8
0
 10
-5.09877
 20
15.6924
 11
-7.02534
 21
14.9296
  0
LINE
  8
0
 10
-7.02534
 20
14.9296
 11
-8.84114
 21
13.9314
  0
LINE
  8
0
 10
-8.84114
 20
13.9314
 11
-10.5175
 21
12.7135
  0
LINE
  8
0
 10
-10.5175
 20
12.7135
 11
-12.028
 21
11.295
  0
LINE
  8
0
 10
-12.028
 20
11.295
 11
-13.3488
 21
9.69846
  0
LINE
  8
0
 10
-13.3488
 20
9.69846
 11
-14.459
 21
7.94893
  0
LINE
  8
0
 10
-14.459
 20
7.94893
 11
-15.3413
 21
6.07405
  0
LINE
  8
0
 10
-15.3413
 20
6.07405
 11
-15.9816
 21
4.10338
  0
LINE
  8
0
 10
-15.9816
 20
4.10338
 11
-16.3699
 21
2.06799
  0
LINE
  8
0
 10
-16.3699
 20
2.06799
 11
-16.5
 21
0
  0
LINE
  8
0
 10
-16.5
 20
0
 11
-16.3699
 21
-2.06799
  0
LINE
  8
0
 10
-16.3699
 20
-2.06799
 11
-15.9816
 21
-4.10338
  0
LINE
  8
0
 10
-15.9816
 20
-4.10338
 11
-15.3413
 21
-6.07405
  0
LINE
  8
0
 10
-15.3413
 20
-6.07405
 11
-14.459
 21
-7.94893
  0
LINE
  8
0
 10
-14.459
 20
-7.94893
 11
-13.3488
 21
-9.69846
  0
LINE
  8
0
 10
-13.3488
 20
-9.69846
 11
-12.028
 21
-11.295
  0
LINE
  8
0
 10
-12.028
 20
-11.295
 11
-10.5175
 21
-12.7135
  0
LINE
  8
0
 10
-10.5175
 20
-12.7135
 11
-8.84114
 21
-13.9314
  0
LINE
  8
0
 10
-8.84114
 20
-13.9314
 11
-7.02534
 21
-14.9296
  0
LINE
  8
0
 10
-7.02534
 20
-14.9296
 11
-5.09877
 21
-15.6924
  0
LINE
  8
0
 10
-5.09877
 20
-15.6924
 11
-3.09178
 21
-16.2077
  0
LINE
  8
0
 10
-3.09178
 20
-16.2077
 11
-1.03604
 21
-16.4674
  0
LINE
  8
0
 10
-1.03604
 20
-16.4674
 11
1.03604
 21
-16.4674
  0
LINE
  8
0
 10
1.03604
 20
-16.4674
 11
3.09178
 21
-16.2077
  0
LINE
  8
0
 10
-0.687546
 20
-10.9284
 11
-2.05182
 21
-10.756
  0
LINE
  8
0
 10
-2.05182
 20
-10.756
 11
-3.38373
 21
-10.4141
  0
LINE
  8
0
 10
-3.38373
 20
-10.4141
 11
-4.66228
 21
-9.90785
  0
LINE
  8
0
 10
-4.66228
 20
-9.90785
 11
-5.86729
 21
-9.24538
  0
LINE
  8
0
 10
-5.86729
 20
-9.24538
 11
-6.97978
 21
-8.43712
  0
LINE
  8
0
 10
-6.97978
 20
-8.43712
 11
-7.98219
 21
-7.49579
  0
LINE
  8
0
 10
-7.98219
 20
-7.49579
 11
-8.85873
 21
-6.43623
  0
LINE
  8
0
 10
-8.85873
 20
-6.43623
 11
-9.59555
 21
-5.27519
  0
LINE
  8
0
 10
-9.59555
 20
-5.27519
 11
-10.181
 21
-4.03096
  0
LINE
  8
0
 10
-10.181
 20
-4.03096
 11
-10.606
 21
-2.72314
  0
LINE
  8
0
 10
-10.606
 20
-2.72314
 11
-10.8636
 21
-1.37239
  0
LINE
  8
0
 10
-10.8636
 20
-1.37239
 11
-10.95
 21
0
  0
LINE
  8
0
 10
-10.95
 20
0
 11
-10.8636
 21
1.37239
  0
LINE
  8
0
 10
-10.8636
 20
1.37239
 11
-10.606
 21
2.72314
  0
LINE
  8
0
 10
-10.606
 20
2.72314
 11
-10.181
 21
4.03096
  0
LINE
  8
0
 10
-10.181
 20
4.03096
 11
-9.59555
 21
5.27519
  0
LINE
  8
0
 10
-9.59555
 20
5.27519
 11
-8.85873
 21
6.43623
  0
LINE
  8
0
 10
-8.85873
 20
6.43623
 11
-7.98219
 21
7.49579
  0
LINE
  8
0
 10
-7.98219
 20
7.49579
 11
-6.97978
 21
8.43712
  0
LINE
  8
0
 10
-6.97978
 20
8.43712
 11
-5.86729
 21
9.24538
  0
LINE
  8
0
 10
-5.86729
 20
9.24538
 11
-4.66228
 21
9.90785
  0
LINE
  8
0
 10
-4.66228
 20
9.90785
 11
-3.38373
 21
10.4141
  0
LINE
  8
0
 10
-3.38373
 20
10.4141
 11
-2.05182
 21
10.756
  0
LINE
  8
0
 10
-2.05182
 20
10.756
 11
-0.687546
 21
10.9284
  0
LINE
  8
0
 10
-0.687546
 20
10.9284
 11
0.687546
 21
10.9284
  0
LINE
  8
0
 10
0.687546
 20
10.9284
 11
2.05182
 21
10.756
  0
LINE
  8
0
 10
2.05182
 20
10.756
 11
3.38373
 21
10.4141
  0
LINE
  8
0
 10
3.38373
 20
10.4141
 11
4.66228
 21
9.90785
  0
LINE
  8
0
 10
4.66228
 20
9.90785
 11
5.86729
 21
9.24538
  0
LINE
  8
0
 10
5.86729
 20
9.24538
 11
6.97978
 21
8.43712
  0
LINE
  8
0
 10
6.97978
 20
8.43712
 11
7.98219
 21
7.49579
  0
LINE
  8
0
 10
7.98219
 20
7.49579
 11
8.85873
 21
6.43623
  0
LINE
  8
0
 10
8.85873
 20
6.43623
 11
9.59555
 21
5.27519
  0
LINE
  8
0
 10
9.59555
 20
5.27519
 11
10.181
 21
4.03096
  0
LINE
  8
0
 10
10.181
 20
4.03096
 11
10.606
 21
2.72314
  0
LINE
  8
0
 10
10.606
 20
2.72314
 11
10.8636
 21
1.37239
  0
LINE
  8
0
 10
10.8636
 20
1.37239
 11
10.95
 21
0
  0
LINE
  8
0
 10
10.95
 20
0
 11
10.8636
 21
-1.37239
  0
LINE
  8
0
 10
10.8636
 20
-1.37239
 11
10.606
 21
-2.72314
  0
LINE
  8
0
 10
10.606
 20
-2.72314
 11
10.181
 21
-4.03096
  0
LINE
  8
0
 10
10.181
 20
-4.03096
 11
9.59555
 21
-5.27519
  0
LINE
  8
0
 10
9.59555
 20
-5.27519
 11
8.85873
 21
-6.43623
  0
LINE
  8
0
 10
8.85873
 20
-6.43623
 11
7.98219
 21
-7.49579
  0
LINE
  8
0
 10
7.98219
 20
-7.49579
 11
6.97978
 21
-8.43712
  0
LINE
  8
0
 10
6.97978
 20
-8.43712
 11
5.86729
 21
-9.24538
  0
LINE
  8
0
 10
5.86729
 20
-9.24538
 11
4.66228
 21
-9.90785
  0
LINE
  8
0
 10
4.66228
 20
-9.90785
 11
3.38373
 21
-10.4141
  0
LINE
  8
0
 10
3.38373
 20
-10.4141
 11
2.05182
 21
-10.756
  0
LINE
  8
0
 10
2.05182
 20
-10.756
 11
0.687546
 21
-10.9284
  0
LINE
  8
0
 10
0.687546
 20
-10.9284
 11
-0.687546
 21
-10.9284
  0
LINE
  8
0
 10
44.4058
 20
4.05295
 11
44.2189
 21
4.07657
  0
LINE
  8
0
 10
44.2189
 20
4.07657
 11
44.0365
 21
4.12341
  0
LINE
  8
0
 10
44.0365
 20
4.12341
 11
43.8613
 21
4.19275
  0
LINE
  8
0
 10
43.8613
 20
4.19275
 11
43.6963
 21
4.28351
  0
LINE
  8
0
 10
43.6963
 20
4.28351
 11
43.5439
 21
4.39423
  0
LINE
  8
0
 10
43.5439
 20
4.39423
 11
43.4065
 21
4.52318
  0
LINE
  8
0
 10
43.4065
 20
4.52318
 11
43.2865
 21
4.66832
  0
LINE
  8
0
 10
43.2865
 20
4.66832
 11
43.1855
 21
4.82736
  0
LINE
  8
0
 10
43.1855
 20
4.82736
 11
43.1053
 21
4.9978
  0
LINE
  8
0
 10
43.1053
 20
4.9978
 11
43.0471
 21
5.17696
  0
LINE
  8
0
 10
43.0471
 20
5.17696
 11
43.0118
 21
5.362
  0
LINE
  8
0
 10
43.0118
 20
5.362
 11
43
 21
5.54999
  0
LINE
  8
0
 10
43
 20
5.54999
 11
43.0118
 21
5.73799
  0
LINE
  8
0
 10
43.0118
 20
5.73799
 11
43.0471
 21
5.92303
  0
LINE
  8
0
 10
43.0471
 20
5.92303
 11
43.1053
 21
6.10217
  0
LINE
  8
0
 10
43.1053
 20
6.10217
 11
43.1855
 21
6.27263
  0
LINE
  8
0
 10
43.1855
 20
6.27263
 11
43.2865
 21
6.43167
  0
LINE
  8
0
 10
43.2865
 20
6.43167
 11
43.4065
 21
6.57681
  0
LINE
  8
0
 10
43.4065
 20
6.57681
 11
43.5439
 21
6.70576
  0
LINE
  8
0
 10
43.5439
 20
6.70576
 11
43.6963
 21
6.81648
  0
LINE
  8
0
 10
43.6963
 20
6.81648
 11
43.8613
 21
6.90723
  0
LINE
  8
0
 10
43.8613
 20
6.90723
 11
44.0365
 21
6.97658
  0
LINE
  8
0
 10
44.0365
 20
6.97658
 11
44.2189
 21
7.02342
  0
LINE
  8
0
 10
44.2189
 20
7.02342
 11
44.4058
 21
7.04703
  0
LINE
  8
0
 10
44.4058
 20
7.04703
 11
50.5942
 21
7.04703
  0
LINE
  8
0
 10
50.5942
 20
7.04703
 11
50.7811
 21
7.02342
  0
LINE
  8
0
 10
50.7811
 20
7.02342
 11
50.9635
 21
6.97658
  0
LINE
  8
0
 10
50.9635
 20
6.97658
 11
51.1387
 21
6.90723
  0
LINE
  8
0
 10
51.1387
 20
6.90723
 11
51.3037
 21
6.81648
  0
LINE
  8
0
 10
51.3037
 20
6.81648
 11
51.4561
 21
6.70576
  0
LINE
  8
0
 10
51.4561
 20
6.70576
 11
51.5934
 21
6.57681
  0
LINE
  8
0
 10
51.5934
 20
6.57681
 11
51.7135
 21
6.43167
  0
LINE
  8
0
 10
51.7135
 20
6.43167
 11
51.8145
 21
6.27263
  0
LINE
  8
0
 10
51.8145
 20
6.27263
 11
51.8947
 21
6.10217
  0
LINE
  8
0
 10
51.8947
 20
6.10217
 11
51.9529
 21
5.92303
  0
LINE
  8
0
 10
51.9529
 20
5.92303
 11
51.9882
 21
5.73799
  0
LINE
  8
0
 10
51.9882
 20
5.73799
 11
52
 21
5.54999
  0
LINE
  8
0
 10
52
 20
5.54999
 11
51.9882
 21
5.362
  0
LINE
  8
0
 10
51.9882
 20
5.362
 11
51.9529
 21
5.17696
  0
LINE
  8
0
 10
51.9529
 20
5.17696
 11
51.8947
 21
4.9978
  0
LINE
  8
0
 10
51.8947
 20
4.9978
 11
51.8145
 21
4.82736
  0
LINE
  8
0
 10
51.8145
 20
4.82736
 11
51.7135
 21
4.66832
  0
LINE
  8
0
 10
51.7135
 20
4.66832
 11
51.5934
 21
4.52318
  0
LINE
  8
0
 10
51.5934
 20
4.52318
 11
51.4561
 21
4.39423
  0
LINE
  8
0
 10
51.4561
 20
4.39423
 11
51.3037
 21
4.28351
  0
LINE
  8
0
 10
51.3037
 20
4.28351
 11
51.1387
 21
4.19275
  0
LINE
  8
0
 10
51.1387
 20
4.19275
 11
50.9635
 21
4.12341
  0
LINE
  8
0
 10
50.9635
 20
4.12341
 11
50.7811
 21
4.07657
  0
LINE
  8
0
 10
50.7811
 20
4.07657
 11
50.5942
 21
4.05295
  0
LINE
  8
0
 10
50.5942
 20
4.05295
 11
44.4058
 21
4.05295
  0
LINE
  8
0
 10
44.4058
 20
-7.04703
 11
44.2189
 21
-7.02342
  0
LINE
  8
0
 10
44.2189
 20
-7.02342
 11
44.0365
 21
-6.97658
  0
LINE
  8
0
 10
44.0365
 20
-6.97658
 11
43.8613
 21
-6.90723
  0
LINE
  8
0
 10
43.8613
 20
-6.90723
 11
43.6963
 21
-6.81648
  0
LINE
  8
0
 10
43.6963
 20
-6.81648
 11
43.5439
 21
-6.70576
  0
LINE
  8
0
 10
43.5439
 20
-6.70576
 11
43.4065
 21
-6.57681
  0
LINE
  8
0
 10
43.4065
 20
-6.57681
 11
43.2865
 21
-6.43167
  0
LINE
  8
0
 10
43.2865
 20
-6.43167
 11
43.1855
 21
-6.27263
  0
LINE
  8
0
 10
43.1855
 20
-6.27263
 11
43.1053
 21
-6.10217
  0
LINE
  8
0
 10
43.1053
 20
-6.10217
 11
43.0471
 21
-5.92303
  0
LINE
  8
0
 10
43.0471
 20
-5.92303
 11
43.0118
 21
-5.73799
  0
LINE
  8
0
 10
43.0118
 20
-5.73799
 11
43
 21
-5.54999
  0
LINE
  8
0
 10
43
 20
-5.54999
 11
43.0118
 21
-5.362
  0
LINE
  8
0
 10
43.0118
 20
-5.362
 11
43.0471
 21
-5.17696
  0
LINE
  8
0
 10
43.0471
 20
-5.17696
 11
43.1053
 21
-4.9978
  0
LINE
  8
0
 10
43.1053
 20
-4.9978
 11
43.1855
 21
-4.82736
  0
LINE
  8
0
 10
43.1855
 20
-4.82736
 11
43.2865
 21
-4.66832
  0
LINE
  8
0
 10
43.2865
 20
-4.66832
 11
43.4065
 21
-4.52318
  0
LINE
  8
0
 10
43.4065
 20
-4.52318
 11
43.5439
 21
-4.39423
  0
LINE
  8
0
 10
43.5439
 20
-4.39423
 11
43.6963
 21
-4.28351
  0
LINE
  8
0
 10
43.6963
 20
-4.28351
 11
43.8613
 21
-4.19275
  0
LINE
  8
0
 10
43.8613
 20
-4.19275
 11
44.0365
 21
-4.12341
  0
LINE
  8
0
 10
44.0365
 20
-4.12341
 11
44.2189
 21
-4.07657
  0
LINE
  8
0
 10
44.2189
 20
-4.07657
 11
44.4058
 21
-4.05295
  0
LINE
  8
0
 10
44.4058
 20
-4.05295
 11
50.5942
 21
-4.05295
  0
LINE
  8
0
 10
50.5942
 20
-4.05295
 11
50.7811
 21
-4.07657
  0
LINE
  8
0
 10
50.7811
 20
-4.07657
 11
50.9635
 21
-4.12341
  0
LINE
  8
0
 10
50.9635
 20
-4.12341
 11
51.1387
 21
-4.19275
  0
LINE
  8
0
 10
51.1387
 20
-4.19275
 11
51.3037
 21
-4.28351
  0
LINE
  8
0
 10
51.3037
 20
-4.28351
 11
51.4561
 21
-4.39423
  0
LINE
  8
0
 10
51.4561
 20
-4.39423
 11
51.5934
 21
-4.52318
  0
LINE
  8
0
 10
51.5934
 20
-4.52318
 11
51.7135
 21
-4.66832
  0
LINE
  8
0
 10
51.7135
 20
-4.66832
 11
51.8145
 21
-4.82736
  0
LINE
  8
0
 10
51.8145
 20
-4.82736
 11
51.8947
 21
-4.9978
  0
LINE
  8
0
 10
51.8947
 20
-4.9978
 11
51.9529
 21
-5.17696
  0
LINE
  8
0
 10
51.9529
 20
-5.17696
 11
51.9882
 21
-5.362
  0
LINE
  8
0
 10
51.9882
 20
-5.362
 11
52
 21
-5.54999
  0
LINE
  8
0
 10
52
 20
-5.54999
 11
51.9882
 21
-5.73799
  0
LINE
  8
0
 10
51.9882
 20
-5.73799
 11
51.9529
 21
-5.92303
  0
LINE
  8
0
 10
51.9529
 20
-5.92303
 11
51.8947
 21
-6.10217
  0
LINE
  8
0
 10
51.8947
 20
-6.10217
 11
51.8145
 21
-6.27263
  0
LINE
  8
0
 10
51.8145
 20
-6.27263
 11
51.7135
 21
-6.43167
  0
LINE
  8
0
 10
51.7135
 20
-6.43167
 11
51.5934
 21
-6.57681
  0
LINE
  8
0
 10
51.5934
 20
-6.57681
 11
51.4561
 21
-6.70576
  0
LINE
  8
0
 10
51.4561
 20
-6.70576
 11
51.3037
 21
-6.81648
  0
LINE
  8
0
 10
51.3037
 20
-6.81648
 11
51.1387
 21
-6.90723
  0
LINE
  8
0
 10
51.1387
 20
-6.90723
 11
50.9635
 21
-6.97658
  0
LINE
  8
0
 10
50.9635
 20
-6.97658
 11
50.7811
 21
-7.02342
  0
LINE
  8
0
 10
50.7811
 20
-7.02342
 11
50.5942
 21
-7.04703
  0
LINE
  8
0
 10
50.5942
 20
-7.04703
 11
44.4058
 21
-7.04703
  0
LINE
  8
0
 10
98.0918
 20
-16.2077
 11
100.099
 21
-15.6924
  0
LINE
  8
0
 10
100.099
 20
-15.6924
 11
102.025
 21
-14.9296
  0
LINE
  8
0
 10
102.025
 20
-14.9296
 11
103.841
 21
-13.9314
  0
LINE
  8
0
 10
103.841
 20
-13.9314
 11
105.517
 21
-12.7135
  0
LINE
  8
0
 10
105.517
 20
-12.7135
 11
107.028
 21
-11.295
  0
LINE
  8
0
 10
107.028
 20
-11.295
 11
108.349
 21
-9.69846
  0
LINE
  8
0
 10
108.349
 20
-9.69846
 11
109.459
 21
-7.94893
  0
LINE
  8
0
 10
109.459
 20
-7.94893
 11
110.341
 21
-6.07405
  0
LINE
  8
0
 10
110.341
 20
-6.07405
 11
110.982
 21
-4.10338
  0
LINE
  8
0
 10
110.982
 20
-4.10338
 11
111.37
 21
-2.06799
  0
LINE
  8
0
 10
111.37
 20
-2.06799
 11
111.5
 21
0
  0
LINE
  8
0
 10
111.5
 20
0
 11
111.37
 21
2.06799
  0
LINE
  8
0
 10
111.37
 20
2.06799
 11
110.982
 21
4.10338
  0
LINE
  8
0
 10
110.982
 20
4.10338
 11
110.341
 21
6.07405
  0
LINE
  8
0
 10
110.341
 20
6.07405
 11
109.459
 21
7.94893
  0
LINE
  8
0
 10
109.459
 20
7.94893
 11
108.349
 21
9.69846
  0
LINE
  8
0
 10
108.349
 20
9.69846
 11
107.028
 21
11.295
  0
LINE
  8
0
 10
107.028
 20
11.295
 11
105.517
 21
12.7135
  0
LINE
  8
0
 10
105.517
 20
12.7135
 11
103.841
 21
13.9314
  0
LINE
  8
0
 10
103.841
 20
13.9314
 11
102.025
 21
14.9296
  0
LINE
  8
0
 10
102.025
 20
14.9296
 11
100.099
 21
15.6924
  0
LINE
  8
0
 10
100.099
 20
15.6924
 11
98.0918
 21
16.2077
  0
LINE
  8
0
 10
98.0918
 20
16.2077
 11
96.036
 21
16.4674
  0
LINE
  8
0
 10
96.036
 20
16.4674
 11
93.964
 21
16.4674
  0
LINE
  8
0
 10
93.964
 20
16.4674
 11
91.9082
 21
16.2077
  0
LINE
  8
0
 10
91.9082
 20
16.2077
 11
89.9012
 21
15.6924
  0
LINE
  8
0
 10
89.9012
 20
15.6924
 11
87.9746
 21
14.9296
  0
LINE
  8
0
 10
87.9746
 20
14.9296
 11
86.1589
 21
13.9314
  0
LINE
  8
0
 10
86.1589
 20
13.9314
 11
84.4825
 21
12.7135
  0
LINE
  8
0
 10
84.4825
 20
12.7135
 11
82.972
 21
11.295
  0
LINE
  8
0
 10
82.972
 20
11.295
 11
82.8107
 21
11.1
  0
LINE
  8
0
 10
82.8107
 20
11.1
 11
57
 21
11.1
  0
LINE
  8
0
 10
57
 20
11.1
 11
57
 21
-11.1
  0
LINE
  8
0
 10
57
 20
-11.1
 11
82.8107
 21
-11.1
  0
LINE
  8
0
 10
82.8107
 20
-11.1
 11
82.972
 21
-11.295
  0
LINE
  8
0
 10
82.972
 20
-11.295
 11
84.4825
 21
-12.7135
  0
LINE
  8
0
 10
84.4825
 20
-12.7135
 11
86.1589
 21
-13.9314
  0
LINE
  8
0
 10
86.1589
 20
-13.9314
 11
87.9746
 21
-14.9296
  0
LINE
  8
0
 10
87.9746
 20
-14.9296
 11
89.9012
 21
-15.6924
  0
LINE
  8
0
 10
89.9012
 20
-15.6924
 11
91.9082
 21
-16.2077
  0
LINE
  8
0
 10
91.9082
 20
-16.2077
 11
93.964
 21
-16.4674
  0
LINE
  8
0
 10
93.964
 20
-16.4674
 11
96.036
 21
-16.4674
  0
LINE
  8
0
 10
96.036
 20
-16.4674
 11
98.0918
 21
-16.2077
  0
LINE
  8
0
 10
94.3124
 20
-10.9284
 11
92.9482
 21
-10.756
  0
LINE
  8
0
 10
92.9482
 20
-10.756
 11
91.6163
 21
-10.4141
  0
LINE
  8
0
 10
91.6163
 20
-10.4141
 11
90.3377
 21
-9.90785
  0
LINE
  8
0
 10
90.3377
 20
-9.90785
 11
89.1327
 21
-9.24538
  0
LINE
  8
0
 10
89.1327
 20
-9.24538
 11
88.0202
 21
-8.43712
  0
LINE
  8
0
 10
88.0202
 20
-8.43712
 11
87.0178
 21
-7.49579
  0
LINE
  8
0
 10
87.0178
 20
-7.49579
 11
86.1413
 21
-6.43623
  0
LINE
  8
0
 10
86.1413
 20
-6.43623
 11
85.4044
 21
-5.27519
  0
LINE
  8
0
 10
85.4044
 20
-5.27519
 11
84.8189
 21
-4.03096
  0
LINE
  8
0
 10
84.8189
 20
-4.03096
 11
84.394
 21
-2.72314
  0
LINE
  8
0
 10
84.394
 20
-2.72314
 11
84.1363
 21
-1.37239
  0
LINE
  8
0
 10
84.1363
 20
-1.37239
 11
84.05
 21
0
  0
LINE
  8
0
 10
84.05
 20
0
 11
84.1363
 21
1.37239
  0
LINE
  8
0
 10
84.1363
 20
1.37239
 11
84.394
 21
2.72314
  0
LINE
  8
0
 10
84.394
 20
2.72314
 11
84.8189
 21
4.03096
  0
LINE
  8
0
 10
84.8189
 20
4.03096
 11
85.4044
 21
5.27519
  0
LINE
  8
0
 10
85.4044
 20
5.27519
 11
86.1413
 21
6.43623
  0
LINE
  8
0
 10
86.1413
 20
6.43623
 11
87.0178
 21
7.49579
  0
LINE
  8
0
 10
87.0178
 20
7.49579
 11
88.0202
 21
8.43712
  0
LINE
  8
0
 10
88.0202
 20
8.43712
 11
89.1327
 21
9.24538
  0
LINE
  8
0
 10
89.1327
 20
9.24538
 11
90.3377
 21
9.90785
  0
LINE
  8
0
 10
90.3377
 20
9.90785
 11
91.6163
 21
10.4141
  0
LINE
  8
0
 10
91.6163
 20
10.4141
 11
92.9482
 21
10.756
  0
LINE
  8
0
 10
92.9482
 20
10.756
 11
94.3124
 21
10.9284
  0
LINE
  8
0
 10
94.3124
 20
10.9284
 11
95.6875
 21
10.9284
  0
LINE
  8
0
 10
95.6875
 20
10.9284
 11
97.0518
 21
10.756
  0
LINE
  8
0
 10
97.0518
 20
10.756
 11
98.3837
 21
10.4141
  0
LINE
  8
0
 10
98.3837
 20
10.4141
 11
99.6623
 21
9.90785
  0
LINE
  8
0
 10
99.6623
 20
9.90785
 11
100.867
 21
9.24538
  0
LINE
  8
0
 10
100.867
 20
9.24538
 11
101.98
 21
8.43712
  0
LINE
  8
0
 10
101.98
 20
8.43712
 11
102.982
 21
7.49579
  0
LINE
  8
0
 10
102.982
 20
7.49579
 11
103.859
 21
6.43623
  0
LINE
  8
0
 10
103.859
 20
6.43623
 11
104.596
 21
5.27519
  0
LINE
  8
0
 10
104.596
 20
5.27519
 11
105.181
 21
4.03096
  0
LINE
  8
0
 10
105.181
 20
4.03096
 11
105.606
 21
2.72314
  0
LINE
  8
0
 10
105.606
 20
2.72314
 11
105.864
 21
1.37239
  0
LINE
  8
0
 10
105.864
 20
1.37239
 11
105.95
 21
0
  0
LINE
  8
0
 10
105.95
 20
0
 11
105.864
 21
-1.37239
  0
LINE
  8
0
 10
105.864
 20
-1.37239
 11
105.606
 21
-2.72314
  0
LINE
  8
0
 10
105.606
 20
-2.72314
 11
105.181
 21
-4.03096
  0
LINE
  8
0
 10
105.181
 20
-4.03096
 11
104.596
 21
-5.27519
  0
LINE
  8
0
 10
104.596
 20
-5.27519
 11
103.859
 21
-6.43623
  0
LINE
  8
0
 10
103.859
 20
-6.43623
 11
102.982
 21
-7.49579
  0
LINE
  8
0
 10
102.982
 20
-7.49579
 11
101.98
 21
-8.43712
  0
LINE
  8
0
 10
101.98
 20
-8.43712
 11
100.867
 21
-9.24538
  0
LINE
  8
0
 10
100.867
 20
-9.24538
 11
99.6623
 21
-9.90785
  0
LINE
  8
0
 10
99.6623
 20
-9.90785
 11
98.3837
 21
-10.4141
  0
LINE
  8
0
 10
98.3837
 20
-10.4141
 11
97.0518
 21
-10.756
  0
LINE
  8
0
 10
97.0518
 20
-10.756
 11
95.6875
 21
-10.9284
  0
LINE
  8
0
 10
95.6875
 20
-10.9284
 11
94.3124
 21
-10.9284
  0
ENDSEC
  0
SECTION
  2
OBJECTS
  0
DICTIONARY
  0
ENDSEC
  0
EOF
