  0
SECTION
  2
BLOCKS
  0
ENDSEC
  0
SECTION
  2
ENTITIES
  0
LINE
  8
0
 10
-13.5
 20
0
 11
-13.3935
 21
-1.692
  0
LINE
  8
0
 10
-13.3935
 20
-1.692
 11
-13.0759
 21
-3.35731
  0
LINE
  8
0
 10
-13.0759
 20
-3.35731
 11
-12.552
 21
-4.96968
  0
LINE
  8
0
 10
-12.552
 20
-4.96968
 11
-11.8301
 21
-6.50367
  0
LINE
  8
0
 10
-11.8301
 20
-6.50367
 11
-10.9217
 21
-7.9351
  0
LINE
  8
0
 10
-10.9217
 20
-7.9351
 11
-9.84108
 21
-9.24139
  0
LINE
  8
0
 10
-9.84108
 20
-9.24139
 11
-8.60522
 21
-10.4019
  0
LINE
  8
0
 10
-8.60522
 20
-10.4019
 11
-7.23366
 21
-11.3984
  0
LINE
  8
0
 10
-7.23366
 20
-11.3984
 11
-5.74802
 21
-12.2152
  0
LINE
  8
0
 10
-5.74802
 20
-12.2152
 11
-4.17173
 21
-12.8393
  0
LINE
  8
0
 10
-4.17173
 20
-12.8393
 11
-2.52965
 21
-13.2609
  0
LINE
  8
0
 10
-2.52965
 20
-13.2609
 11
-0.847672
 21
-13.4734
  0
LINE
  8
0
 10
-0.847672
 20
-13.4734
 11
0.847672
 21
-13.4734
  0
LINE
  8
0
 10
0.847672
 20
-13.4734
 11
2.52965
 21
-13.2609
  0
LINE
  8
0
 10
2.52965
 20
-13.2609
 11
4.17173
 21
-12.8393
  0
LINE
  8
0
 10
4.17173
 20
-12.8393
 11
5.74802
 21
-12.2152
  0
LINE
  8
0
 10
5.74802
 20
-12.2152
 11
7.23366
 21
-11.3984
  0
LINE
  8
0
 10
7.23366
 20
-11.3984
 11
8.60522
 21
-10.4019
  0
LINE
  8
0
 10
8.60522
 20
-10.4019
 11
9.84108
 21
-9.24139
  0
LINE
  8
0
 10
9.84108
 20
-9.24139
 11
10.9217
 21
-7.9351
  0
LINE
  8
0
 10
10.9217
 20
-7.9351
 11
11.8301
 21
-6.50367
  0
LINE
  8
0
 10
11.8301
 20
-6.50367
 11
12.5424
 21
-4.99013
  0
LINE
  8
0
 10
12.5424
 20
-4.99013
 11
95.314
 21
-4.99013
  0
LINE
  8
0
 10
95.314
 20
-4.99013
 11
95.9369
 21
-4.91144
  0
LINE
  8
0
 10
95.9369
 20
-4.91144
 11
96.5451
 21
-4.75528
  0
LINE
  8
0
 10
96.5451
 20
-4.75528
 11
97.1289
 21
-4.52413
  0
LINE
  8
0
 10
97.1289
 20
-4.52413
 11
97.6791
 21
-4.22164
  0
LINE
  8
0
 10
97.6791
 20
-4.22164
 11
98.1871
 21
-3.85257
  0
LINE
  8
0
 10
98.1871
 20
-3.85257
 11
98.6448
 21
-3.42274
  0
LINE
  8
0
 10
98.6448
 20
-3.42274
 11
99.0451
 21
-2.93893
  0
LINE
  8
0
 10
99.0451
 20
-2.93893
 11
99.3815
 21
-2.40877
  0
LINE
  8
0
 10
99.3815
 20
-2.40877
 11
99.6489
 21
-1.84062
  0
LINE
  8
0
 10
99.6489
 20
-1.84062
 11
99.8429
 21
-1.24345
  0
LINE
  8
0
 10
99.8429
 20
-1.24345
 11
99.9606
 21
-0.626666
  0
LINE
  8
0
 10
99.9606
 20
-0.626666
 11
100
 21
0
  0
LINE
  8
0
 10
100
 20
0
 11
99.9606
 21
0.626666
  0
LINE
  8
0
 10
99.9606
 20
0.626666
 11
99.8429
 21
1.24345
  0
LINE
  8
0
 10
99.8429
 20
1.24345
 11
99.6489
 21
1.84062
  0
LINE
  8
0
 10
99.6489
 20
1.84062
 11
99.3815
 21
2.40877
  0
LINE
  8
0
 10
99.3815
 20
2.40877
 11
99.0451
 21
2.93893
  0
LINE
  8
0
 10
99.0451
 20
2.93893
 11
98.6448
 21
3.42274
  0
LINE
  8
0
 10
98.6448
 20
3.42274
 11
98.1871
 21
3.85257
  0
LINE
  8
0
 10
98.1871
 20
3.85257
 11
97.6791
 21
4.22164
  0
LINE
  8
0
 10
97.6791
 20
4.22164
 11
97.1289
 21
4.52413
  0
LINE
  8
0
 10
97.1289
 20
4.52413
 11
96.5451
 21
4.75528
  0
LINE
  8
0
 10
96.5451
 20
4.75528
 11
95.9369
 21
4.91144
  0
LINE
  8
0
 10
95.9369
 20
4.91144
 11
95.314
 21
4.99013
  0
LINE
  8
0
 10
95.314
 20
4.99013
 11
12.5424
 21
4.99013
  0
LINE
  8
0
 10
12.5424
 20
4.99013
 11
11.8301
 21
6.50367
  0
LINE
  8
0
 10
11.8301
 20
6.50367
 11
10.9217
 21
7.9351
  0
LINE
  8
0
 10
10.9217
 20
7.9351
 11
9.84108
 21
9.24139
  0
LINE
  8
0
 10
9.84108
 20
9.24139
 11
8.60522
 21
10.4019
  0
LINE
  8
0
 10
8.60522
 20
10.4019
 11
7.23366
 21
11.3984
  0
LINE
  8
0
 10
7.23366
 20
11.3984
 11
5.74802
 21
12.2152
  0
LINE
  8
0
 10
5.74802
 20
12.2152
 11
4.17173
 21
12.8393
  0
LINE
  8
0
 10
4.17173
 20
12.8393
 11
2.52965
 21
13.2609
  0
LINE
  8
0
 10
2.52965
 20
13.2609
 11
0.847672
 21
13.4734
  0
LINE
  8
0
 10
0.847672
 20
13.4734
 11
-0.847672
 21
13.4734
  0
LINE
  8
0
 10
-0.847672
 20
13.4734
 11
-2.52965
 21
13.2609
  0
LINE
  8
0
 10
-2.52965
 20
13.2609
 11
-4.17173
 21
12.8393
  0
LINE
  8
0
 10
-4.17173
 20
12.8393
 11
-5.74802
 21
12.2152
  0
LINE
  8
0
 10
-5.74802
 20
12.2152
 11
-7.23366
 21
11.3984
  0
LINE
  8
0
 10
-7.23366
 20
11.3984
 11
-8.60522
 21
10.4019
  0
LINE
  8
0
 10
-8.60522
 20
10.4019
 11
-9.84108
 21
9.24139
  0
LINE
  8
0
 10
-9.84108
 20
9.24139
 11
-10.9217
 21
7.9351
  0
LINE
  8
0
 10
-10.9217
 20
7.9351
 11
-11.8301
 21
6.50367
  0
LINE
  8
0
 10
-11.8301
 20
6.50367
 11
-12.552
 21
4.96968
  0
LINE
  8
0
 10
-12.552
 20
4.96968
 11
-13.0759
 21
3.35731
  0
LINE
  8
0
 10
-13.0759
 20
3.35731
 11
-13.3935
 21
1.692
  0
LINE
  8
0
 10
-13.3935
 20
1.692
 11
-13.5
 21
0
  0
LINE
  8
0
 10
-10
 20
0
 11
-9.99211
 21
0.125333
  0
LINE
  8
0
 10
-9.99211
 20
0.125333
 11
-9.96858
 21
0.24869
  0
LINE
  8
0
 10
-9.96858
 20
0.24869
 11
-9.92978
 21
0.368124
  0
LINE
  8
0
 10
-9.92978
 20
0.368124
 11
-9.87631
 21
0.481753
  0
LINE
  8
0
 10
-9.87631
 20
0.481753
 11
-9.80902
 21
0.587785
  0
LINE
  8
0
 10
-9.80902
 20
0.587785
 11
-9.72897
 21
0.684546
  0
LINE
  8
0
 10
-9.72897
 20
0.684546
 11
-9.63742
 21
0.770513
  0
LINE
  8
0
 10
-9.63742
 20
0.770513
 11
-9.53583
 21
0.844327
  0
LINE
  8
0
 10
-9.53583
 20
0.844327
 11
-9.42578
 21
0.904826
  0
LINE
  8
0
 10
-9.42578
 20
0.904826
 11
-9.30902
 21
0.951056
  0
LINE
  8
0
 10
-9.30902
 20
0.951056
 11
-9.18738
 21
0.982286
  0
LINE
  8
0
 10
-9.18738
 20
0.982286
 11
-9.06279
 21
0.998026
  0
LINE
  8
0
 10
-9.06279
 20
0.998026
 11
-8.93721
 21
0.998026
  0
LINE
  8
0
 10
-8.93721
 20
0.998026
 11
-8.81262
 21
0.982286
  0
LINE
  8
0
 10
-8.81262
 20
0.982286
 11
-8.69098
 21
0.951056
  0
LINE
  8
0
 10
-8.69098
 20
0.951056
 11
-8.57422
 21
0.904826
  0
LINE
  8
0
 10
-8.57422
 20
0.904826
 11
-8.46417
 21
0.844327
  0
LINE
  8
0
 10
-8.46417
 20
0.844327
 11
-8.36258
 21
0.770513
  0
LINE
  8
0
 10
-8.36258
 20
0.770513
 11
-8.27103
 21
0.684546
  0
LINE
  8
0
 10
-8.27103
 20
0.684546
 11
-8.19098
 21
0.587785
  0
LINE
  8
0
 10
-8.19098
 20
0.587785
 11
-8.12369
 21
0.481753
  0
LINE
  8
0
 10
-8.12369
 20
0.481753
 11
-8.07022
 21
0.368124
  0
LINE
  8
0
 10
-8.07022
 20
0.368124
 11
-8.03142
 21
0.24869
  0
LINE
  8
0
 10
-8.03142
 20
0.24869
 11
-8.00788
 21
0.125333
  0
LINE
  8
0
 10
-8.00788
 20
0.125333
 11
-8
 21
0
  0
LINE
  8
0
 10
-8
 20
0
 11
-8.00788
 21
-0.125333
  0
LINE
  8
0
 10
-8.00788
 20
-0.125333
 11
-8.03142
 21
-0.24869
  0
LINE
  8
0
 10
-8.03142
 20
-0.24869
 11
-8.07022
 21
-0.368124
  0
LINE
  8
0
 10
-8.07022
 20
-0.368124
 11
-8.12369
 21
-0.481753
  0
LINE
  8
0
 10
-8.12369
 20
-0.481753
 11
-8.19098
 21
-0.587785
  0
LINE
  8
0
 10
-8.19098
 20
-0.587785
 11
-8.27103
 21
-0.684546
  0
LINE
  8
0
 10
-8.27103
 20
-0.684546
 11
-8.36258
 21
-0.770513
  0
LINE
  8
0
 10
-8.36258
 20
-0.770513
 11
-8.46417
 21
-0.844327
  0
LINE
  8
0
 10
-8.46417
 20
-0.844327
 11
-8.57422
 21
-0.904826
  0
LINE
  8
0
 10
-8.57422
 20
-0.904826
 11
-8.69098
 21
-0.951056
  0
LINE
  8
0
 10
-8.69098
 20
-0.951056
 11
-8.81262
 21
-0.982286
  0
LINE
  8
0
 10
-8.81262
 20
-0.982286
 11
-8.93721
 21
-0.998026
  0
LINE
  8
0
 10
-8.93721
 20
-0.998026
 11
-9.06279
 21
-0.998026
  0
LINE
  8
0
 10
-9.06279
 20
-0.998026
 11
-9.18738
 21
-0.982286
  0
LINE
  8
0
 10
-9.18738
 20
-0.982286
 11
-9.30902
 21
-0.951056
  0
LINE
  8
0
 10
-9.30902
 20
-0.951056
 11
-9.42578
 21
-0.904826
  0
LINE
  8
0
 10
-9.42578
 20
-0.904826
 11
-9.53583
 21
-0.844327
  0
LINE
  8
0
 10
-9.53583
 20
-0.844327
 11
-9.63742
 21
-0.770513
  0
LINE
  8
0
 10
-9.63742
 20
-0.770513
 11
-9.72897
 21
-0.684546
  0
LINE
  8
0
 10
-9.72897
 20
-0.684546
 11
-9.80902
 21
-0.587785
  0
LINE
  8
0
 10
-9.80902
 20
-0.587785
 11
-9.87631
 21
-0.481753
  0
LINE
  8
0
 10
-9.87631
 20
-0.481753
 11
-9.92978
 21
-0.368124
  0
LINE
  8
0
 10
-9.92978
 20
-0.368124
 11
-9.96858
 21
-0.24869
  0
LINE
  8
0
 10
-9.96858
 20
-0.24869
 11
-9.99211
 21
-0.125333
  0
LINE
  8
0
 10
-9.99211
 20
-0.125333
 11
-10
 21
0
  0
LINE
  8
0
 10
-3.925
 20
0
 11
-3.89405
 21
0.491933
  0
LINE
  8
0
 10
-3.89405
 20
0.491933
 11
-3.80169
 21
0.976108
  0
LINE
  8
0
 10
-3.80169
 20
0.976108
 11
-3.64937
 21
1.44489
  0
LINE
  8
0
 10
-3.64937
 20
1.44489
 11
-3.4395
 21
1.89088
  0
LINE
  8
0
 10
-3.4395
 20
1.89088
 11
-3.17539
 21
2.30706
  0
LINE
  8
0
 10
-3.17539
 20
2.30706
 11
-2.8612
 21
2.68685
  0
LINE
  8
0
 10
-2.8612
 20
2.68685
 11
-2.50189
 21
3.02426
  0
LINE
  8
0
 10
-2.50189
 20
3.02426
 11
-2.10312
 21
3.31399
  0
LINE
  8
0
 10
-2.10312
 20
3.31399
 11
-1.67118
 21
3.55145
  0
LINE
  8
0
 10
-1.67118
 20
3.55145
 11
-1.21289
 21
3.7329
  0
LINE
  8
0
 10
-1.21289
 20
3.7329
 11
-0.735471
 21
3.85548
  0
LINE
  8
0
 10
-0.735471
 20
3.85548
 11
-0.246452
 21
3.91725
  0
LINE
  8
0
 10
-0.246452
 20
3.91725
 11
0.246452
 21
3.91725
  0
LINE
  8
0
 10
0.246452
 20
3.91725
 11
0.735471
 21
3.85548
  0
LINE
  8
0
 10
0.735471
 20
3.85548
 11
1.21289
 21
3.7329
  0
LINE
  8
0
 10
1.21289
 20
3.7329
 11
1.67118
 21
3.55145
  0
LINE
  8
0
 10
1.67118
 20
3.55145
 11
2.10312
 21
3.31399
  0
LINE
  8
0
 10
2.10312
 20
3.31399
 11
2.50189
 21
3.02426
  0
LINE
  8
0
 10
2.50189
 20
3.02426
 11
2.8612
 21
2.68685
  0
LINE
  8
0
 10
2.8612
 20
2.68685
 11
3.17539
 21
2.30706
  0
LINE
  8
0
 10
3.17539
 20
2.30706
 11
3.4395
 21
1.89088
  0
LINE
  8
0
 10
3.4395
 20
1.89088
 11
3.64937
 21
1.44489
  0
LINE
  8
0
 10
3.64937
 20
1.44489
 11
3.80169
 21
0.976108
  0
LINE
  8
0
 10
3.80169
 20
0.976108
 11
3.89405
 21
0.491933
  0
LINE
  8
0
 10
3.89405
 20
0.491933
 11
3.925
 21
0
  0
LINE
  8
0
 10
3.925
 20
0
 11
3.89405
 21
-0.491933
  0
LINE
  8
0
 10
3.89405
 20
-0.491933
 11
3.80169
 21
-0.976108
  0
LINE
  8
0
 10
3.80169
 20
-0.976108
 11
3.64937
 21
-1.44489
  0
LINE
  8
0
 10
3.64937
 20
-1.44489
 11
3.4395
 21
-1.89088
  0
LINE
  8
0
 10
3.4395
 20
-1.89088
 11
3.17539
 21
-2.30706
  0
LINE
  8
0
 10
3.17539
 20
-2.30706
 11
2.8612
 21
-2.68685
  0
LINE
  8
0
 10
2.8612
 20
-2.68685
 11
2.50189
 21
-3.02426
  0
LINE
  8
0
 10
2.50189
 20
-3.02426
 11
2.10312
 21
-3.31399
  0
LINE
  8
0
 10
2.10312
 20
-3.31399
 11
1.67118
 21
-3.55145
  0
LINE
  8
0
 10
1.67118
 20
-3.55145
 11
1.21289
 21
-3.7329
  0
LINE
  8
0
 10
1.21289
 20
-3.7329
 11
0.735471
 21
-3.85548
  0
LINE
  8
0
 10
0.735471
 20
-3.85548
 11
0.246452
 21
-3.91725
  0
LINE
  8
0
 10
0.246452
 20
-3.91725
 11
-0.246452
 21
-3.91725
  0
LINE
  8
0
 10
-0.246452
 20
-3.91725
 11
-0.735471
 21
-3.85548
  0
LINE
  8
0
 10
-0.735471
 20
-3.85548
 11
-1.21289
 21
-3.7329
  0
LINE
  8
0
 10
-1.21289
 20
-3.7329
 11
-1.67118
 21
-3.55145
  0
LINE
  8
0
 10
-1.67118
 20
-3.55145
 11
-2.10312
 21
-3.31399
  0
LINE
  8
0
 10
-2.10312
 20
-3.31399
 11
-2.50189
 21
-3.02426
  0
LINE
  8
0
 10
-2.50189
 20
-3.02426
 11
-2.8612
 21
-2.68685
  0
LINE
  8
0
 10
-2.8612
 20
-2.68685
 11
-3.17539
 21
-2.30706
  0
LINE
  8
0
 10
-3.17539
 20
-2.30706
 11
-3.4395
 21
-1.89088
  0
LINE
  8
0
 10
-3.4395
 20
-1.89088
 11
-3.64937
 21
-1.44489
  0
LINE
  8
0
 10
-3.64937
 20
-1.44489
 11
-3.80169
 21
-0.976108
  0
LINE
  8
0
 10
-3.80169
 20
-0.976108
 11
-3.89405
 21
-0.491933
  0
LINE
  8
0
 10
-3.89405
 20
-0.491933
 11
-3.925
 21
0
  0
LINE
  8
0
 10
8
 20
0
 11
8.00788
 21
0.125333
  0
LINE
  8
0
 10
8.00788
 20
0.125333
 11
8.03142
 21
0.24869
  0
LINE
  8
0
 10
8.03142
 20
0.24869
 11
8.07022
 21
0.368124
  0
LINE
  8
0
 10
8.07022
 20
0.368124
 11
8.12369
 21
0.481753
  0
LINE
  8
0
 10
8.12369
 20
0.481753
 11
8.19098
 21
0.587785
  0
LINE
  8
0
 10
8.19098
 20
0.587785
 11
8.27103
 21
0.684546
  0
LINE
  8
0
 10
8.27103
 20
0.684546
 11
8.36258
 21
0.770513
  0
LINE
  8
0
 10
8.36258
 20
0.770513
 11
8.46417
 21
0.844327
  0
LINE
  8
0
 10
8.46417
 20
0.844327
 11
8.57422
 21
0.904826
  0
LINE
  8
0
 10
8.57422
 20
0.904826
 11
8.69098
 21
0.951056
  0
LINE
  8
0
 10
8.69098
 20
0.951056
 11
8.81262
 21
0.982286
  0
LINE
  8
0
 10
8.81262
 20
0.982286
 11
8.93721
 21
0.998026
  0
LINE
  8
0
 10
8.93721
 20
0.998026
 11
9.06279
 21
0.998026
  0
LINE
  8
0
 10
9.06279
 20
0.998026
 11
9.18738
 21
0.982286
  0
LINE
  8
0
 10
9.18738
 20
0.982286
 11
9.30902
 21
0.951056
  0
LINE
  8
0
 10
9.30902
 20
0.951056
 11
9.42578
 21
0.904826
  0
LINE
  8
0
 10
9.42578
 20
0.904826
 11
9.53583
 21
0.844327
  0
LINE
  8
0
 10
9.53583
 20
0.844327
 11
9.63742
 21
0.770513
  0
LINE
  8
0
 10
9.63742
 20
0.770513
 11
9.72897
 21
0.684546
  0
LINE
  8
0
 10
9.72897
 20
0.684546
 11
9.80902
 21
0.587785
  0
LINE
  8
0
 10
9.80902
 20
0.587785
 11
9.87631
 21
0.481753
  0
LINE
  8
0
 10
9.87631
 20
0.481753
 11
9.92978
 21
0.368124
  0
LINE
  8
0
 10
9.92978
 20
0.368124
 11
9.96858
 21
0.24869
  0
LINE
  8
0
 10
9.96858
 20
0.24869
 11
9.99211
 21
0.125333
  0
LINE
  8
0
 10
9.99211
 20
0.125333
 11
10
 21
0
  0
LINE
  8
0
 10
10
 20
0
 11
9.99211
 21
-0.125333
  0
LINE
  8
0
 10
9.99211
 20
-0.125333
 11
9.96858
 21
-0.24869
  0
LINE
  8
0
 10
9.96858
 20
-0.24869
 11
9.92978
 21
-0.368124
  0
LINE
  8
0
 10
9.92978
 20
-0.368124
 11
9.87631
 21
-0.481753
  0
LINE
  8
0
 10
9.87631
 20
-0.481753
 11
9.80902
 21
-0.587785
  0
LINE
  8
0
 10
9.80902
 20
-0.587785
 11
9.72897
 21
-0.684546
  0
LINE
  8
0
 10
9.72897
 20
-0.684546
 11
9.63742
 21
-0.770513
  0
LINE
  8
0
 10
9.63742
 20
-0.770513
 11
9.53583
 21
-0.844327
  0
LINE
  8
0
 10
9.53583
 20
-0.844327
 11
9.42578
 21
-0.904826
  0
LINE
  8
0
 10
9.42578
 20
-0.904826
 11
9.30902
 21
-0.951056
  0
LINE
  8
0
 10
9.30902
 20
-0.951056
 11
9.18738
 21
-0.982286
  0
LINE
  8
0
 10
9.18738
 20
-0.982286
 11
9.06279
 21
-0.998026
  0
LINE
  8
0
 10
9.06279
 20
-0.998026
 11
8.93721
 21
-0.998026
  0
LINE
  8
0
 10
8.93721
 20
-0.998026
 11
8.81262
 21
-0.982286
  0
LINE
  8
0
 10
8.81262
 20
-0.982286
 11
8.69098
 21
-0.951056
  0
LINE
  8
0
 10
8.69098
 20
-0.951056
 11
8.57422
 21
-0.904826
  0
LINE
  8
0
 10
8.57422
 20
-0.904826
 11
8.46417
 21
-0.844327
  0
LINE
  8
0
 10
8.46417
 20
-0.844327
 11
8.36258
 21
-0.770513
  0
LINE
  8
0
 10
8.36258
 20
-0.770513
 11
8.27103
 21
-0.684546
  0
LINE
  8
0
 10
8.27103
 20
-0.684546
 11
8.19098
 21
-0.587785
  0
LINE
  8
0
 10
8.19098
 20
-0.587785
 11
8.12369
 21
-0.481753
  0
LINE
  8
0
 10
8.12369
 20
-0.481753
 11
8.07022
 21
-0.368124
  0
LINE
  8
0
 10
8.07022
 20
-0.368124
 11
8.03142
 21
-0.24869
  0
LINE
  8
0
 10
8.03142
 20
-0.24869
 11
8.00788
 21
-0.125333
  0
LINE
  8
0
 10
8.00788
 20
-0.125333
 11
8
 21
0
  0
ENDSEC
  0
SECTION
  2
OBJECTS
  0
DICTIONARY
  0
ENDSEC
  0
EOF
