  0
SECTION
  2
BLOCKS
  0
ENDSEC
  0
SECTION
  2
ENTITIES
  0
LINE
  8
0
 10
50
 20
4.5
 11
6.5
 21
4.5
  0
LINE
  8
0
 10
6.5
 20
4.5
 11
6.5
 21
14.4
  0
LINE
  8
0
 10
6.5
 20
14.4
 11
-6.5
 21
14.4
  0
LINE
  8
0
 10
-6.5
 20
14.4
 11
-6.5
 21
4.5
  0
LINE
  8
0
 10
-6.5
 20
4.5
 11
-50
 21
4.5
  0
LINE
  8
0
 10
-50
 20
4.5
 11
-50
 21
-4.5
  0
LINE
  8
0
 10
-50
 20
-4.5
 11
50
 21
-4.5
  0
LINE
  8
0
 10
50
 20
-4.5
 11
50
 21
4.5
  0
LINE
  8
0
 10
-40.0628
 20
-0.998016
 11
-40.1874
 21
-0.982285
  0
LINE
  8
0
 10
-40.1874
 20
-0.982285
 11
-40.309
 21
-0.95105
  0
LINE
  8
0
 10
-40.309
 20
-0.95105
 11
-40.4258
 21
-0.904816
  0
LINE
  8
0
 10
-40.4258
 20
-0.904816
 11
-40.5358
 21
-0.844315
  0
LINE
  8
0
 10
-40.5358
 20
-0.844315
 11
-40.6374
 21
-0.770508
  0
LINE
  8
0
 10
-40.6374
 20
-0.770508
 11
-40.729
 21
-0.68454
  0
LINE
  8
0
 10
-40.729
 20
-0.68454
 11
-40.809
 21
-0.587784
  0
LINE
  8
0
 10
-40.809
 20
-0.587784
 11
-40.8763
 21
-0.48175
  0
LINE
  8
0
 10
-40.8763
 20
-0.48175
 11
-40.9298
 21
-0.368118
  0
LINE
  8
0
 10
-40.9298
 20
-0.368118
 11
-40.9686
 21
-0.248688
  0
LINE
  8
0
 10
-40.9686
 20
-0.248688
 11
-40.9921
 21
-0.12532
  0
LINE
  8
0
 10
-40.9921
 20
-0.12532
 11
-41
 21
0
  0
LINE
  8
0
 10
-41
 20
0
 11
-40.9921
 21
0.12532
  0
LINE
  8
0
 10
-40.9921
 20
0.12532
 11
-40.9686
 21
0.248688
  0
LINE
  8
0
 10
-40.9686
 20
0.248688
 11
-40.9298
 21
0.368118
  0
LINE
  8
0
 10
-40.9298
 20
0.368118
 11
-40.8763
 21
0.48175
  0
LINE
  8
0
 10
-40.8763
 20
0.48175
 11
-40.809
 21
0.587784
  0
LINE
  8
0
 10
-40.809
 20
0.587784
 11
-40.729
 21
0.68454
  0
LINE
  8
0
 10
-40.729
 20
0.68454
 11
-40.6374
 21
0.770508
  0
LINE
  8
0
 10
-40.6374
 20
0.770508
 11
-40.5358
 21
0.844315
  0
LINE
  8
0
 10
-40.5358
 20
0.844315
 11
-40.4258
 21
0.904816
  0
LINE
  8
0
 10
-40.4258
 20
0.904816
 11
-40.309
 21
0.95105
  0
LINE
  8
0
 10
-40.309
 20
0.95105
 11
-40.1874
 21
0.982285
  0
LINE
  8
0
 10
-40.1874
 20
0.982285
 11
-40.0628
 21
0.998016
  0
LINE
  8
0
 10
-40.0628
 20
0.998016
 11
-39.9372
 21
0.998016
  0
LINE
  8
0
 10
-39.9372
 20
0.998016
 11
-39.8126
 21
0.982285
  0
LINE
  8
0
 10
-39.8126
 20
0.982285
 11
-39.691
 21
0.95105
  0
LINE
  8
0
 10
-39.691
 20
0.95105
 11
-39.5742
 21
0.904816
  0
LINE
  8
0
 10
-39.5742
 20
0.904816
 11
-39.4642
 21
0.844315
  0
LINE
  8
0
 10
-39.4642
 20
0.844315
 11
-39.3626
 21
0.770508
  0
LINE
  8
0
 10
-39.3626
 20
0.770508
 11
-39.271
 21
0.68454
  0
LINE
  8
0
 10
-39.271
 20
0.68454
 11
-39.191
 21
0.587784
  0
LINE
  8
0
 10
-39.191
 20
0.587784
 11
-39.1237
 21
0.48175
  0
LINE
  8
0
 10
-39.1237
 20
0.48175
 11
-39.0702
 21
0.368118
  0
LINE
  8
0
 10
-39.0702
 20
0.368118
 11
-39.0314
 21
0.248688
  0
LINE
  8
0
 10
-39.0314
 20
0.248688
 11
-39.0079
 21
0.12532
  0
LINE
  8
0
 10
-39.0079
 20
0.12532
 11
-39
 21
0
  0
LINE
  8
0
 10
-39
 20
0
 11
-39.0079
 21
-0.12532
  0
LINE
  8
0
 10
-39.0079
 20
-0.12532
 11
-39.0314
 21
-0.248688
  0
LINE
  8
0
 10
-39.0314
 20
-0.248688
 11
-39.0702
 21
-0.368118
  0
LINE
  8
0
 10
-39.0702
 20
-0.368118
 11
-39.1237
 21
-0.48175
  0
LINE
  8
0
 10
-39.1237
 20
-0.48175
 11
-39.191
 21
-0.587784
  0
LINE
  8
0
 10
-39.191
 20
-0.587784
 11
-39.271
 21
-0.68454
  0
LINE
  8
0
 10
-39.271
 20
-0.68454
 11
-39.3626
 21
-0.770508
  0
LINE
  8
0
 10
-39.3626
 20
-0.770508
 11
-39.4642
 21
-0.844315
  0
LINE
  8
0
 10
-39.4642
 20
-0.844315
 11
-39.5742
 21
-0.904816
  0
LINE
  8
0
 10
-39.5742
 20
-0.904816
 11
-39.691
 21
-0.95105
  0
LINE
  8
0
 10
-39.691
 20
-0.95105
 11
-39.8126
 21
-0.982285
  0
LINE
  8
0
 10
-39.8126
 20
-0.982285
 11
-39.9372
 21
-0.998016
  0
LINE
  8
0
 10
-39.9372
 20
-0.998016
 11
-40.0628
 21
-0.998016
  0
LINE
  8
0
 10
39.9372
 20
-0.998016
 11
39.8126
 21
-0.982285
  0
LINE
  8
0
 10
39.8126
 20
-0.982285
 11
39.691
 21
-0.95105
  0
LINE
  8
0
 10
39.691
 20
-0.95105
 11
39.5742
 21
-0.904816
  0
LINE
  8
0
 10
39.5742
 20
-0.904816
 11
39.4642
 21
-0.844315
  0
LINE
  8
0
 10
39.4642
 20
-0.844315
 11
39.3626
 21
-0.770508
  0
LINE
  8
0
 10
39.3626
 20
-0.770508
 11
39.271
 21
-0.68454
  0
LINE
  8
0
 10
39.271
 20
-0.68454
 11
39.191
 21
-0.587784
  0
LINE
  8
0
 10
39.191
 20
-0.587784
 11
39.1237
 21
-0.48175
  0
LINE
  8
0
 10
39.1237
 20
-0.48175
 11
39.0702
 21
-0.368118
  0
LINE
  8
0
 10
39.0702
 20
-0.368118
 11
39.0314
 21
-0.248688
  0
LINE
  8
0
 10
39.0314
 20
-0.248688
 11
39.0079
 21
-0.12532
  0
LINE
  8
0
 10
39.0079
 20
-0.12532
 11
39
 21
0
  0
LINE
  8
0
 10
39
 20
0
 11
39.0079
 21
0.12532
  0
LINE
  8
0
 10
39.0079
 20
0.12532
 11
39.0314
 21
0.248688
  0
LINE
  8
0
 10
39.0314
 20
0.248688
 11
39.0702
 21
0.368118
  0
LINE
  8
0
 10
39.0702
 20
0.368118
 11
39.1237
 21
0.48175
  0
LINE
  8
0
 10
39.1237
 20
0.48175
 11
39.191
 21
0.587784
  0
LINE
  8
0
 10
39.191
 20
0.587784
 11
39.271
 21
0.68454
  0
LINE
  8
0
 10
39.271
 20
0.68454
 11
39.3626
 21
0.770508
  0
LINE
  8
0
 10
39.3626
 20
0.770508
 11
39.4642
 21
0.844315
  0
LINE
  8
0
 10
39.4642
 20
0.844315
 11
39.5742
 21
0.904816
  0
LINE
  8
0
 10
39.5742
 20
0.904816
 11
39.691
 21
0.95105
  0
LINE
  8
0
 10
39.691
 20
0.95105
 11
39.8126
 21
0.982285
  0
LINE
  8
0
 10
39.8126
 20
0.982285
 11
39.9372
 21
0.998016
  0
LINE
  8
0
 10
39.9372
 20
0.998016
 11
40.0628
 21
0.998016
  0
LINE
  8
0
 10
40.0628
 20
0.998016
 11
40.1874
 21
0.982285
  0
LINE
  8
0
 10
40.1874
 20
0.982285
 11
40.309
 21
0.95105
  0
LINE
  8
0
 10
40.309
 20
0.95105
 11
40.4258
 21
0.904816
  0
LINE
  8
0
 10
40.4258
 20
0.904816
 11
40.5358
 21
0.844315
  0
LINE
  8
0
 10
40.5358
 20
0.844315
 11
40.6374
 21
0.770508
  0
LINE
  8
0
 10
40.6374
 20
0.770508
 11
40.729
 21
0.68454
  0
LINE
  8
0
 10
40.729
 20
0.68454
 11
40.809
 21
0.587784
  0
LINE
  8
0
 10
40.809
 20
0.587784
 11
40.8763
 21
0.48175
  0
LINE
  8
0
 10
40.8763
 20
0.48175
 11
40.9298
 21
0.368118
  0
LINE
  8
0
 10
40.9298
 20
0.368118
 11
40.9686
 21
0.248688
  0
LINE
  8
0
 10
40.9686
 20
0.248688
 11
40.9921
 21
0.12532
  0
LINE
  8
0
 10
40.9921
 20
0.12532
 11
41
 21
0
  0
LINE
  8
0
 10
41
 20
0
 11
40.9921
 21
-0.12532
  0
LINE
  8
0
 10
40.9921
 20
-0.12532
 11
40.9686
 21
-0.248688
  0
LINE
  8
0
 10
40.9686
 20
-0.248688
 11
40.9298
 21
-0.368118
  0
LINE
  8
0
 10
40.9298
 20
-0.368118
 11
40.8763
 21
-0.48175
  0
LINE
  8
0
 10
40.8763
 20
-0.48175
 11
40.809
 21
-0.587784
  0
LINE
  8
0
 10
40.809
 20
-0.587784
 11
40.729
 21
-0.68454
  0
LINE
  8
0
 10
40.729
 20
-0.68454
 11
40.6374
 21
-0.770508
  0
LINE
  8
0
 10
40.6374
 20
-0.770508
 11
40.5358
 21
-0.844315
  0
LINE
  8
0
 10
40.5358
 20
-0.844315
 11
40.4258
 21
-0.904816
  0
LINE
  8
0
 10
40.4258
 20
-0.904816
 11
40.309
 21
-0.95105
  0
LINE
  8
0
 10
40.309
 20
-0.95105
 11
40.1874
 21
-0.982285
  0
LINE
  8
0
 10
40.1874
 20
-0.982285
 11
40.0628
 21
-0.998016
  0
LINE
  8
0
 10
40.0628
 20
-0.998016
 11
39.9372
 21
-0.998016
  0
ENDSEC
  0
SECTION
  2
OBJECTS
  0
DICTIONARY
  0
ENDSEC
  0
EOF
