  0
SECTION
  2
BLOCKS
  0
ENDSEC
  0
SECTION
  2
ENTITIES
  0
LINE
  8
0
 10
50
 20
30
 11
-50
 21
30
  0
LINE
  8
0
 10
-50
 20
30
 11
-50
 21
-30
  0
LINE
  8
0
 10
-50
 20
-30
 11
50
 21
-30
  0
LINE
  8
0
 10
50
 20
-30
 11
50
 21
30
  0
LINE
  8
0
 10
39.9372
 20
24.502
 11
39.8126
 21
24.5177
  0
LINE
  8
0
 10
39.8126
 20
24.5177
 11
39.691
 21
24.5489
  0
LINE
  8
0
 10
39.691
 20
24.5489
 11
39.5742
 21
24.5952
  0
LINE
  8
0
 10
39.5742
 20
24.5952
 11
39.4642
 21
24.6557
  0
LINE
  8
0
 10
39.4642
 20
24.6557
 11
39.3626
 21
24.7295
  0
LINE
  8
0
 10
39.3626
 20
24.7295
 11
39.271
 21
24.8154
  0
LINE
  8
0
 10
39.271
 20
24.8154
 11
39.191
 21
24.9122
  0
LINE
  8
0
 10
39.191
 20
24.9122
 11
39.1237
 21
25.0182
  0
LINE
  8
0
 10
39.1237
 20
25.0182
 11
39.0702
 21
25.1319
  0
LINE
  8
0
 10
39.0702
 20
25.1319
 11
39.0314
 21
25.2513
  0
LINE
  8
0
 10
39.0314
 20
25.2513
 11
39.0079
 21
25.3747
  0
LINE
  8
0
 10
39.0079
 20
25.3747
 11
39
 21
25.5
  0
LINE
  8
0
 10
39
 20
25.5
 11
39.0079
 21
25.6253
  0
LINE
  8
0
 10
39.0079
 20
25.6253
 11
39.0314
 21
25.7487
  0
LINE
  8
0
 10
39.0314
 20
25.7487
 11
39.0702
 21
25.8681
  0
LINE
  8
0
 10
39.0702
 20
25.8681
 11
39.1237
 21
25.9818
  0
LINE
  8
0
 10
39.1237
 20
25.9818
 11
39.191
 21
26.0878
  0
LINE
  8
0
 10
39.191
 20
26.0878
 11
39.271
 21
26.1845
  0
LINE
  8
0
 10
39.271
 20
26.1845
 11
39.3626
 21
26.2705
  0
LINE
  8
0
 10
39.3626
 20
26.2705
 11
39.4642
 21
26.3443
  0
LINE
  8
0
 10
39.4642
 20
26.3443
 11
39.5742
 21
26.4048
  0
LINE
  8
0
 10
39.5742
 20
26.4048
 11
39.691
 21
26.451
  0
LINE
  8
0
 10
39.691
 20
26.451
 11
39.8126
 21
26.4823
  0
LINE
  8
0
 10
39.8126
 20
26.4823
 11
39.9372
 21
26.498
  0
LINE
  8
0
 10
39.9372
 20
26.498
 11
40.0628
 21
26.498
  0
LINE
  8
0
 10
40.0628
 20
26.498
 11
40.1874
 21
26.4823
  0
LINE
  8
0
 10
40.1874
 20
26.4823
 11
40.309
 21
26.451
  0
LINE
  8
0
 10
40.309
 20
26.451
 11
40.4258
 21
26.4048
  0
LINE
  8
0
 10
40.4258
 20
26.4048
 11
40.5358
 21
26.3443
  0
LINE
  8
0
 10
40.5358
 20
26.3443
 11
40.6374
 21
26.2705
  0
LINE
  8
0
 10
40.6374
 20
26.2705
 11
40.729
 21
26.1845
  0
LINE
  8
0
 10
40.729
 20
26.1845
 11
40.809
 21
26.0878
  0
LINE
  8
0
 10
40.809
 20
26.0878
 11
40.8763
 21
25.9818
  0
LINE
  8
0
 10
40.8763
 20
25.9818
 11
40.9298
 21
25.8681
  0
LINE
  8
0
 10
40.9298
 20
25.8681
 11
40.9686
 21
25.7487
  0
LINE
  8
0
 10
40.9686
 20
25.7487
 11
40.9921
 21
25.6253
  0
LINE
  8
0
 10
40.9921
 20
25.6253
 11
41
 21
25.5
  0
LINE
  8
0
 10
41
 20
25.5
 11
40.9921
 21
25.3747
  0
LINE
  8
0
 10
40.9921
 20
25.3747
 11
40.9686
 21
25.2513
  0
LINE
  8
0
 10
40.9686
 20
25.2513
 11
40.9298
 21
25.1319
  0
LINE
  8
0
 10
40.9298
 20
25.1319
 11
40.8763
 21
25.0182
  0
LINE
  8
0
 10
40.8763
 20
25.0182
 11
40.809
 21
24.9122
  0
LINE
  8
0
 10
40.809
 20
24.9122
 11
40.729
 21
24.8154
  0
LINE
  8
0
 10
40.729
 20
24.8154
 11
40.6374
 21
24.7295
  0
LINE
  8
0
 10
40.6374
 20
24.7295
 11
40.5358
 21
24.6557
  0
LINE
  8
0
 10
40.5358
 20
24.6557
 11
40.4258
 21
24.5952
  0
LINE
  8
0
 10
40.4258
 20
24.5952
 11
40.309
 21
24.5489
  0
LINE
  8
0
 10
40.309
 20
24.5489
 11
40.1874
 21
24.5177
  0
LINE
  8
0
 10
40.1874
 20
24.5177
 11
40.0628
 21
24.502
  0
LINE
  8
0
 10
40.0628
 20
24.502
 11
39.9372
 21
24.502
  0
LINE
  8
0
 10
-40.0628
 20
24.502
 11
-40.1874
 21
24.5177
  0
LINE
  8
0
 10
-40.1874
 20
24.5177
 11
-40.309
 21
24.5489
  0
LINE
  8
0
 10
-40.309
 20
24.5489
 11
-40.4258
 21
24.5952
  0
LINE
  8
0
 10
-40.4258
 20
24.5952
 11
-40.5358
 21
24.6557
  0
LINE
  8
0
 10
-40.5358
 20
24.6557
 11
-40.6374
 21
24.7295
  0
LINE
  8
0
 10
-40.6374
 20
24.7295
 11
-40.729
 21
24.8154
  0
LINE
  8
0
 10
-40.729
 20
24.8154
 11
-40.809
 21
24.9122
  0
LINE
  8
0
 10
-40.809
 20
24.9122
 11
-40.8763
 21
25.0182
  0
LINE
  8
0
 10
-40.8763
 20
25.0182
 11
-40.9298
 21
25.1319
  0
LINE
  8
0
 10
-40.9298
 20
25.1319
 11
-40.9686
 21
25.2513
  0
LINE
  8
0
 10
-40.9686
 20
25.2513
 11
-40.9921
 21
25.3747
  0
LINE
  8
0
 10
-40.9921
 20
25.3747
 11
-41
 21
25.5
  0
LINE
  8
0
 10
-41
 20
25.5
 11
-40.9921
 21
25.6253
  0
LINE
  8
0
 10
-40.9921
 20
25.6253
 11
-40.9686
 21
25.7487
  0
LINE
  8
0
 10
-40.9686
 20
25.7487
 11
-40.9298
 21
25.8681
  0
LINE
  8
0
 10
-40.9298
 20
25.8681
 11
-40.8763
 21
25.9818
  0
LINE
  8
0
 10
-40.8763
 20
25.9818
 11
-40.809
 21
26.0878
  0
LINE
  8
0
 10
-40.809
 20
26.0878
 11
-40.729
 21
26.1845
  0
LINE
  8
0
 10
-40.729
 20
26.1845
 11
-40.6374
 21
26.2705
  0
LINE
  8
0
 10
-40.6374
 20
26.2705
 11
-40.5358
 21
26.3443
  0
LINE
  8
0
 10
-40.5358
 20
26.3443
 11
-40.4258
 21
26.4048
  0
LINE
  8
0
 10
-40.4258
 20
26.4048
 11
-40.309
 21
26.451
  0
LINE
  8
0
 10
-40.309
 20
26.451
 11
-40.1874
 21
26.4823
  0
LINE
  8
0
 10
-40.1874
 20
26.4823
 11
-40.0628
 21
26.498
  0
LINE
  8
0
 10
-40.0628
 20
26.498
 11
-39.9372
 21
26.498
  0
LINE
  8
0
 10
-39.9372
 20
26.498
 11
-39.8126
 21
26.4823
  0
LINE
  8
0
 10
-39.8126
 20
26.4823
 11
-39.691
 21
26.451
  0
LINE
  8
0
 10
-39.691
 20
26.451
 11
-39.5742
 21
26.4048
  0
LINE
  8
0
 10
-39.5742
 20
26.4048
 11
-39.4642
 21
26.3443
  0
LINE
  8
0
 10
-39.4642
 20
26.3443
 11
-39.3626
 21
26.2705
  0
LINE
  8
0
 10
-39.3626
 20
26.2705
 11
-39.271
 21
26.1845
  0
LINE
  8
0
 10
-39.271
 20
26.1845
 11
-39.191
 21
26.0878
  0
LINE
  8
0
 10
-39.191
 20
26.0878
 11
-39.1237
 21
25.9818
  0
LINE
  8
0
 10
-39.1237
 20
25.9818
 11
-39.0702
 21
25.8681
  0
LINE
  8
0
 10
-39.0702
 20
25.8681
 11
-39.0314
 21
25.7487
  0
LINE
  8
0
 10
-39.0314
 20
25.7487
 11
-39.0079
 21
25.6253
  0
LINE
  8
0
 10
-39.0079
 20
25.6253
 11
-39
 21
25.5
  0
LINE
  8
0
 10
-39
 20
25.5
 11
-39.0079
 21
25.3747
  0
LINE
  8
0
 10
-39.0079
 20
25.3747
 11
-39.0314
 21
25.2513
  0
LINE
  8
0
 10
-39.0314
 20
25.2513
 11
-39.0702
 21
25.1319
  0
LINE
  8
0
 10
-39.0702
 20
25.1319
 11
-39.1237
 21
25.0182
  0
LINE
  8
0
 10
-39.1237
 20
25.0182
 11
-39.191
 21
24.9122
  0
LINE
  8
0
 10
-39.191
 20
24.9122
 11
-39.271
 21
24.8154
  0
LINE
  8
0
 10
-39.271
 20
24.8154
 11
-39.3626
 21
24.7295
  0
LINE
  8
0
 10
-39.3626
 20
24.7295
 11
-39.4642
 21
24.6557
  0
LINE
  8
0
 10
-39.4642
 20
24.6557
 11
-39.5742
 21
24.5952
  0
LINE
  8
0
 10
-39.5742
 20
24.5952
 11
-39.691
 21
24.5489
  0
LINE
  8
0
 10
-39.691
 20
24.5489
 11
-39.8126
 21
24.5177
  0
LINE
  8
0
 10
-39.8126
 20
24.5177
 11
-39.9372
 21
24.502
  0
LINE
  8
0
 10
-39.9372
 20
24.502
 11
-40.0628
 21
24.502
  0
LINE
  8
0
 10
-0.687546
 20
-10.9284
 11
-2.05182
 21
-10.756
  0
LINE
  8
0
 10
-2.05182
 20
-10.756
 11
-3.38373
 21
-10.4141
  0
LINE
  8
0
 10
-3.38373
 20
-10.4141
 11
-4.66228
 21
-9.90785
  0
LINE
  8
0
 10
-4.66228
 20
-9.90785
 11
-5.86729
 21
-9.24538
  0
LINE
  8
0
 10
-5.86729
 20
-9.24538
 11
-6.97978
 21
-8.43712
  0
LINE
  8
0
 10
-6.97978
 20
-8.43712
 11
-7.98219
 21
-7.49579
  0
LINE
  8
0
 10
-7.98219
 20
-7.49579
 11
-8.85873
 21
-6.43623
  0
LINE
  8
0
 10
-8.85873
 20
-6.43623
 11
-9.59555
 21
-5.27519
  0
LINE
  8
0
 10
-9.59555
 20
-5.27519
 11
-10.181
 21
-4.03096
  0
LINE
  8
0
 10
-10.181
 20
-4.03096
 11
-10.606
 21
-2.72314
  0
LINE
  8
0
 10
-10.606
 20
-2.72314
 11
-10.8636
 21
-1.37239
  0
LINE
  8
0
 10
-10.8636
 20
-1.37239
 11
-10.95
 21
0
  0
LINE
  8
0
 10
-10.95
 20
0
 11
-10.8636
 21
1.37239
  0
LINE
  8
0
 10
-10.8636
 20
1.37239
 11
-10.606
 21
2.72314
  0
LINE
  8
0
 10
-10.606
 20
2.72314
 11
-10.181
 21
4.03096
  0
LINE
  8
0
 10
-10.181
 20
4.03096
 11
-9.59555
 21
5.27519
  0
LINE
  8
0
 10
-9.59555
 20
5.27519
 11
-8.85873
 21
6.43623
  0
LINE
  8
0
 10
-8.85873
 20
6.43623
 11
-7.98219
 21
7.49579
  0
LINE
  8
0
 10
-7.98219
 20
7.49579
 11
-6.97978
 21
8.43712
  0
LINE
  8
0
 10
-6.97978
 20
8.43712
 11
-5.86729
 21
9.24538
  0
LINE
  8
0
 10
-5.86729
 20
9.24538
 11
-4.66228
 21
9.90785
  0
LINE
  8
0
 10
-4.66228
 20
9.90785
 11
-3.38373
 21
10.4141
  0
LINE
  8
0
 10
-3.38373
 20
10.4141
 11
-2.05182
 21
10.756
  0
LINE
  8
0
 10
-2.05182
 20
10.756
 11
-0.687546
 21
10.9284
  0
LINE
  8
0
 10
-0.687546
 20
10.9284
 11
0.687546
 21
10.9284
  0
LINE
  8
0
 10
0.687546
 20
10.9284
 11
2.05182
 21
10.756
  0
LINE
  8
0
 10
2.05182
 20
10.756
 11
3.38373
 21
10.4141
  0
LINE
  8
0
 10
3.38373
 20
10.4141
 11
4.66228
 21
9.90785
  0
LINE
  8
0
 10
4.66228
 20
9.90785
 11
5.86729
 21
9.24538
  0
LINE
  8
0
 10
5.86729
 20
9.24538
 11
6.97978
 21
8.43712
  0
LINE
  8
0
 10
6.97978
 20
8.43712
 11
7.98219
 21
7.49579
  0
LINE
  8
0
 10
7.98219
 20
7.49579
 11
8.85873
 21
6.43623
  0
LINE
  8
0
 10
8.85873
 20
6.43623
 11
9.59555
 21
5.27519
  0
LINE
  8
0
 10
9.59555
 20
5.27519
 11
10.181
 21
4.03096
  0
LINE
  8
0
 10
10.181
 20
4.03096
 11
10.606
 21
2.72314
  0
LINE
  8
0
 10
10.606
 20
2.72314
 11
10.8636
 21
1.37239
  0
LINE
  8
0
 10
10.8636
 20
1.37239
 11
10.95
 21
0
  0
LINE
  8
0
 10
10.95
 20
0
 11
10.8636
 21
-1.37239
  0
LINE
  8
0
 10
10.8636
 20
-1.37239
 11
10.606
 21
-2.72314
  0
LINE
  8
0
 10
10.606
 20
-2.72314
 11
10.181
 21
-4.03096
  0
LINE
  8
0
 10
10.181
 20
-4.03096
 11
9.59555
 21
-5.27519
  0
LINE
  8
0
 10
9.59555
 20
-5.27519
 11
8.85873
 21
-6.43623
  0
LINE
  8
0
 10
8.85873
 20
-6.43623
 11
7.98219
 21
-7.49579
  0
LINE
  8
0
 10
7.98219
 20
-7.49579
 11
6.97978
 21
-8.43712
  0
LINE
  8
0
 10
6.97978
 20
-8.43712
 11
5.86729
 21
-9.24538
  0
LINE
  8
0
 10
5.86729
 20
-9.24538
 11
4.66228
 21
-9.90785
  0
LINE
  8
0
 10
4.66228
 20
-9.90785
 11
3.38373
 21
-10.4141
  0
LINE
  8
0
 10
3.38373
 20
-10.4141
 11
2.05182
 21
-10.756
  0
LINE
  8
0
 10
2.05182
 20
-10.756
 11
0.687546
 21
-10.9284
  0
LINE
  8
0
 10
0.687546
 20
-10.9284
 11
-0.687546
 21
-10.9284
  0
LINE
  8
0
 10
-40.0628
 20
-26.498
 11
-40.1874
 21
-26.4823
  0
LINE
  8
0
 10
-40.1874
 20
-26.4823
 11
-40.309
 21
-26.451
  0
LINE
  8
0
 10
-40.309
 20
-26.451
 11
-40.4258
 21
-26.4048
  0
LINE
  8
0
 10
-40.4258
 20
-26.4048
 11
-40.5358
 21
-26.3443
  0
LINE
  8
0
 10
-40.5358
 20
-26.3443
 11
-40.6374
 21
-26.2705
  0
LINE
  8
0
 10
-40.6374
 20
-26.2705
 11
-40.729
 21
-26.1845
  0
LINE
  8
0
 10
-40.729
 20
-26.1845
 11
-40.809
 21
-26.0878
  0
LINE
  8
0
 10
-40.809
 20
-26.0878
 11
-40.8763
 21
-25.9818
  0
LINE
  8
0
 10
-40.8763
 20
-25.9818
 11
-40.9298
 21
-25.8681
  0
LINE
  8
0
 10
-40.9298
 20
-25.8681
 11
-40.9686
 21
-25.7487
  0
LINE
  8
0
 10
-40.9686
 20
-25.7487
 11
-40.9921
 21
-25.6253
  0
LINE
  8
0
 10
-40.9921
 20
-25.6253
 11
-41
 21
-25.5
  0
LINE
  8
0
 10
-41
 20
-25.5
 11
-40.9921
 21
-25.3747
  0
LINE
  8
0
 10
-40.9921
 20
-25.3747
 11
-40.9686
 21
-25.2513
  0
LINE
  8
0
 10
-40.9686
 20
-25.2513
 11
-40.9298
 21
-25.1319
  0
LINE
  8
0
 10
-40.9298
 20
-25.1319
 11
-40.8763
 21
-25.0182
  0
LINE
  8
0
 10
-40.8763
 20
-25.0182
 11
-40.809
 21
-24.9122
  0
LINE
  8
0
 10
-40.809
 20
-24.9122
 11
-40.729
 21
-24.8154
  0
LINE
  8
0
 10
-40.729
 20
-24.8154
 11
-40.6374
 21
-24.7295
  0
LINE
  8
0
 10
-40.6374
 20
-24.7295
 11
-40.5358
 21
-24.6557
  0
LINE
  8
0
 10
-40.5358
 20
-24.6557
 11
-40.4258
 21
-24.5952
  0
LINE
  8
0
 10
-40.4258
 20
-24.5952
 11
-40.309
 21
-24.5489
  0
LINE
  8
0
 10
-40.309
 20
-24.5489
 11
-40.1874
 21
-24.5177
  0
LINE
  8
0
 10
-40.1874
 20
-24.5177
 11
-40.0628
 21
-24.502
  0
LINE
  8
0
 10
-40.0628
 20
-24.502
 11
-39.9372
 21
-24.502
  0
LINE
  8
0
 10
-39.9372
 20
-24.502
 11
-39.8126
 21
-24.5177
  0
LINE
  8
0
 10
-39.8126
 20
-24.5177
 11
-39.691
 21
-24.5489
  0
LINE
  8
0
 10
-39.691
 20
-24.5489
 11
-39.5742
 21
-24.5952
  0
LINE
  8
0
 10
-39.5742
 20
-24.5952
 11
-39.4642
 21
-24.6557
  0
LINE
  8
0
 10
-39.4642
 20
-24.6557
 11
-39.3626
 21
-24.7295
  0
LINE
  8
0
 10
-39.3626
 20
-24.7295
 11
-39.271
 21
-24.8154
  0
LINE
  8
0
 10
-39.271
 20
-24.8154
 11
-39.191
 21
-24.9122
  0
LINE
  8
0
 10
-39.191
 20
-24.9122
 11
-39.1237
 21
-25.0182
  0
LINE
  8
0
 10
-39.1237
 20
-25.0182
 11
-39.0702
 21
-25.1319
  0
LINE
  8
0
 10
-39.0702
 20
-25.1319
 11
-39.0314
 21
-25.2513
  0
LINE
  8
0
 10
-39.0314
 20
-25.2513
 11
-39.0079
 21
-25.3747
  0
LINE
  8
0
 10
-39.0079
 20
-25.3747
 11
-39
 21
-25.5
  0
LINE
  8
0
 10
-39
 20
-25.5
 11
-39.0079
 21
-25.6253
  0
LINE
  8
0
 10
-39.0079
 20
-25.6253
 11
-39.0314
 21
-25.7487
  0
LINE
  8
0
 10
-39.0314
 20
-25.7487
 11
-39.0702
 21
-25.8681
  0
LINE
  8
0
 10
-39.0702
 20
-25.8681
 11
-39.1237
 21
-25.9818
  0
LINE
  8
0
 10
-39.1237
 20
-25.9818
 11
-39.191
 21
-26.0878
  0
LINE
  8
0
 10
-39.191
 20
-26.0878
 11
-39.271
 21
-26.1845
  0
LINE
  8
0
 10
-39.271
 20
-26.1845
 11
-39.3626
 21
-26.2705
  0
LINE
  8
0
 10
-39.3626
 20
-26.2705
 11
-39.4642
 21
-26.3443
  0
LINE
  8
0
 10
-39.4642
 20
-26.3443
 11
-39.5742
 21
-26.4048
  0
LINE
  8
0
 10
-39.5742
 20
-26.4048
 11
-39.691
 21
-26.451
  0
LINE
  8
0
 10
-39.691
 20
-26.451
 11
-39.8126
 21
-26.4823
  0
LINE
  8
0
 10
-39.8126
 20
-26.4823
 11
-39.9372
 21
-26.498
  0
LINE
  8
0
 10
-39.9372
 20
-26.498
 11
-40.0628
 21
-26.498
  0
LINE
  8
0
 10
39.9372
 20
-26.498
 11
39.8126
 21
-26.4823
  0
LINE
  8
0
 10
39.8126
 20
-26.4823
 11
39.691
 21
-26.451
  0
LINE
  8
0
 10
39.691
 20
-26.451
 11
39.5742
 21
-26.4048
  0
LINE
  8
0
 10
39.5742
 20
-26.4048
 11
39.4642
 21
-26.3443
  0
LINE
  8
0
 10
39.4642
 20
-26.3443
 11
39.3626
 21
-26.2705
  0
LINE
  8
0
 10
39.3626
 20
-26.2705
 11
39.271
 21
-26.1845
  0
LINE
  8
0
 10
39.271
 20
-26.1845
 11
39.191
 21
-26.0878
  0
LINE
  8
0
 10
39.191
 20
-26.0878
 11
39.1237
 21
-25.9818
  0
LINE
  8
0
 10
39.1237
 20
-25.9818
 11
39.0702
 21
-25.8681
  0
LINE
  8
0
 10
39.0702
 20
-25.8681
 11
39.0314
 21
-25.7487
  0
LINE
  8
0
 10
39.0314
 20
-25.7487
 11
39.0079
 21
-25.6253
  0
LINE
  8
0
 10
39.0079
 20
-25.6253
 11
39
 21
-25.5
  0
LINE
  8
0
 10
39
 20
-25.5
 11
39.0079
 21
-25.3747
  0
LINE
  8
0
 10
39.0079
 20
-25.3747
 11
39.0314
 21
-25.2513
  0
LINE
  8
0
 10
39.0314
 20
-25.2513
 11
39.0702
 21
-25.1319
  0
LINE
  8
0
 10
39.0702
 20
-25.1319
 11
39.1237
 21
-25.0182
  0
LINE
  8
0
 10
39.1237
 20
-25.0182
 11
39.191
 21
-24.9122
  0
LINE
  8
0
 10
39.191
 20
-24.9122
 11
39.271
 21
-24.8154
  0
LINE
  8
0
 10
39.271
 20
-24.8154
 11
39.3626
 21
-24.7295
  0
LINE
  8
0
 10
39.3626
 20
-24.7295
 11
39.4642
 21
-24.6557
  0
LINE
  8
0
 10
39.4642
 20
-24.6557
 11
39.5742
 21
-24.5952
  0
LINE
  8
0
 10
39.5742
 20
-24.5952
 11
39.691
 21
-24.5489
  0
LINE
  8
0
 10
39.691
 20
-24.5489
 11
39.8126
 21
-24.5177
  0
LINE
  8
0
 10
39.8126
 20
-24.5177
 11
39.9372
 21
-24.502
  0
LINE
  8
0
 10
39.9372
 20
-24.502
 11
40.0628
 21
-24.502
  0
LINE
  8
0
 10
40.0628
 20
-24.502
 11
40.1874
 21
-24.5177
  0
LINE
  8
0
 10
40.1874
 20
-24.5177
 11
40.309
 21
-24.5489
  0
LINE
  8
0
 10
40.309
 20
-24.5489
 11
40.4258
 21
-24.5952
  0
LINE
  8
0
 10
40.4258
 20
-24.5952
 11
40.5358
 21
-24.6557
  0
LINE
  8
0
 10
40.5358
 20
-24.6557
 11
40.6374
 21
-24.7295
  0
LINE
  8
0
 10
40.6374
 20
-24.7295
 11
40.729
 21
-24.8154
  0
LINE
  8
0
 10
40.729
 20
-24.8154
 11
40.809
 21
-24.9122
  0
LINE
  8
0
 10
40.809
 20
-24.9122
 11
40.8763
 21
-25.0182
  0
LINE
  8
0
 10
40.8763
 20
-25.0182
 11
40.9298
 21
-25.1319
  0
LINE
  8
0
 10
40.9298
 20
-25.1319
 11
40.9686
 21
-25.2513
  0
LINE
  8
0
 10
40.9686
 20
-25.2513
 11
40.9921
 21
-25.3747
  0
LINE
  8
0
 10
40.9921
 20
-25.3747
 11
41
 21
-25.5
  0
LINE
  8
0
 10
41
 20
-25.5
 11
40.9921
 21
-25.6253
  0
LINE
  8
0
 10
40.9921
 20
-25.6253
 11
40.9686
 21
-25.7487
  0
LINE
  8
0
 10
40.9686
 20
-25.7487
 11
40.9298
 21
-25.8681
  0
LINE
  8
0
 10
40.9298
 20
-25.8681
 11
40.8763
 21
-25.9818
  0
LINE
  8
0
 10
40.8763
 20
-25.9818
 11
40.809
 21
-26.0878
  0
LINE
  8
0
 10
40.809
 20
-26.0878
 11
40.729
 21
-26.1845
  0
LINE
  8
0
 10
40.729
 20
-26.1845
 11
40.6374
 21
-26.2705
  0
LINE
  8
0
 10
40.6374
 20
-26.2705
 11
40.5358
 21
-26.3443
  0
LINE
  8
0
 10
40.5358
 20
-26.3443
 11
40.4258
 21
-26.4048
  0
LINE
  8
0
 10
40.4258
 20
-26.4048
 11
40.309
 21
-26.451
  0
LINE
  8
0
 10
40.309
 20
-26.451
 11
40.1874
 21
-26.4823
  0
LINE
  8
0
 10
40.1874
 20
-26.4823
 11
40.0628
 21
-26.498
  0
LINE
  8
0
 10
40.0628
 20
-26.498
 11
39.9372
 21
-26.498
  0
ENDSEC
  0
SECTION
  2
OBJECTS
  0
DICTIONARY
  0
ENDSEC
  0
EOF
