  0
SECTION
  2
BLOCKS
  0
ENDSEC
  0
SECTION
  2
ENTITIES
  0
LINE
  8
0
 10
-76.3095
 20
0
 11
-76.2865
 21
-1.87273
  0
LINE
  8
0
 10
-76.2865
 20
-1.87273
 11
-76.2176
 21
-3.74433
  0
LINE
  8
0
 10
-76.2176
 20
-3.74433
 11
-76.1028
 21
-5.61368
  0
LINE
  8
0
 10
-76.1028
 20
-5.61368
 11
-75.9421
 21
-7.47964
  0
LINE
  8
0
 10
-75.9421
 20
-7.47964
 11
-75.7356
 21
-9.3411
  0
LINE
  8
0
 10
-75.7356
 20
-9.3411
 11
-75.4836
 21
-11.1969
  0
LINE
  8
0
 10
-75.4836
 20
-11.1969
 11
-75.1861
 21
-13.046
  0
LINE
  8
0
 10
-75.1861
 20
-13.046
 11
-74.8433
 21
-14.8872
  0
LINE
  8
0
 10
-74.8433
 20
-14.8872
 11
-74.4554
 21
-16.7195
  0
LINE
  8
0
 10
-74.4554
 20
-16.7195
 11
-74.0226
 21
-18.5417
  0
LINE
  8
0
 10
-74.0226
 20
-18.5417
 11
-73.5453
 21
-20.3527
  0
LINE
  8
0
 10
-73.5453
 20
-20.3527
 11
-73.0237
 21
-22.1515
  0
LINE
  8
0
 10
-73.0237
 20
-22.1515
 11
-72.458
 21
-23.9369
  0
LINE
  8
0
 10
-72.458
 20
-23.9369
 11
-71.8488
 21
-25.7079
  0
LINE
  8
0
 10
-71.8488
 20
-25.7079
 11
-71.1962
 21
-27.4634
  0
LINE
  8
0
 10
-71.1962
 20
-27.4634
 11
-70.5008
 21
-29.2024
  0
LINE
  8
0
 10
-70.5008
 20
-29.2024
 11
-69.7629
 21
-30.9238
  0
LINE
  8
0
 10
-69.7629
 20
-30.9238
 11
-68.983
 21
-32.6265
  0
LINE
  8
0
 10
-68.983
 20
-32.6265
 11
-68.1615
 21
-34.3096
  0
LINE
  8
0
 10
-68.1615
 20
-34.3096
 11
-67.299
 21
-35.9721
  0
LINE
  8
0
 10
-67.299
 20
-35.9721
 11
-66.3959
 21
-37.6128
  0
LINE
  8
0
 10
-66.3959
 20
-37.6128
 11
-65.4529
 21
-39.2309
  0
LINE
  8
0
 10
-65.4529
 20
-39.2309
 11
-64.4704
 21
-40.8254
  0
LINE
  8
0
 10
-64.4704
 20
-40.8254
 11
-63.449
 21
-42.3953
  0
LINE
  8
0
 10
-63.449
 20
-42.3953
 11
-62.3895
 21
-43.9396
  0
LINE
  8
0
 10
-62.3895
 20
-43.9396
 11
-61.2924
 21
-45.4575
  0
LINE
  8
0
 10
-61.2924
 20
-45.4575
 11
-60.1583
 21
-46.948
  0
LINE
  8
0
 10
-60.1583
 20
-46.948
 11
-58.9881
 21
-48.4102
  0
LINE
  8
0
 10
-58.9881
 20
-48.4102
 11
-57.7822
 21
-49.8433
  0
LINE
  8
0
 10
-57.7822
 20
-49.8433
 11
-56.5416
 21
-51.2463
  0
LINE
  8
0
 10
-56.5416
 20
-51.2463
 11
-55.2669
 21
-52.6185
  0
LINE
  8
0
 10
-55.2669
 20
-52.6185
 11
-53.959
 21
-53.959
  0
LINE
  8
0
 10
-53.959
 20
-53.959
 11
-52.6185
 21
-55.2669
  0
LINE
  8
0
 10
-52.6185
 20
-55.2669
 11
-51.2463
 21
-56.5416
  0
LINE
  8
0
 10
-51.2463
 20
-56.5416
 11
-49.8433
 21
-57.7822
  0
LINE
  8
0
 10
-49.8433
 20
-57.7822
 11
-48.4102
 21
-58.9881
  0
LINE
  8
0
 10
-48.4102
 20
-58.9881
 11
-46.948
 21
-60.1583
  0
LINE
  8
0
 10
-46.948
 20
-60.1583
 11
-45.4575
 21
-61.2924
  0
LINE
  8
0
 10
-45.4575
 20
-61.2924
 11
-43.9396
 21
-62.3895
  0
LINE
  8
0
 10
-43.9396
 20
-62.3895
 11
-42.3953
 21
-63.449
  0
LINE
  8
0
 10
-42.3953
 20
-63.449
 11
-40.8254
 21
-64.4704
  0
LINE
  8
0
 10
-40.8254
 20
-64.4704
 11
-39.2309
 21
-65.4529
  0
LINE
  8
0
 10
-39.2309
 20
-65.4529
 11
-37.6128
 21
-66.3959
  0
LINE
  8
0
 10
-37.6128
 20
-66.3959
 11
-35.9721
 21
-67.299
  0
LINE
  8
0
 10
-35.9721
 20
-67.299
 11
-34.3096
 21
-68.1615
  0
LINE
  8
0
 10
-34.3096
 20
-68.1615
 11
-32.6265
 21
-68.983
  0
LINE
  8
0
 10
-32.6265
 20
-68.983
 11
-30.9238
 21
-69.7629
  0
LINE
  8
0
 10
-30.9238
 20
-69.7629
 11
-29.2024
 21
-70.5008
  0
LINE
  8
0
 10
-29.2024
 20
-70.5008
 11
-27.4634
 21
-71.1962
  0
LINE
  8
0
 10
-27.4634
 20
-71.1962
 11
-25.7079
 21
-71.8488
  0
LINE
  8
0
 10
-25.7079
 20
-71.8488
 11
-23.9369
 21
-72.458
  0
LINE
  8
0
 10
-23.9369
 20
-72.458
 11
-22.1515
 21
-73.0237
  0
LINE
  8
0
 10
-22.1515
 20
-73.0237
 11
-20.3527
 21
-73.5453
  0
LINE
  8
0
 10
-20.3527
 20
-73.5453
 11
-18.5417
 21
-74.0226
  0
LINE
  8
0
 10
-18.5417
 20
-74.0226
 11
-16.7195
 21
-74.4554
  0
LINE
  8
0
 10
-16.7195
 20
-74.4554
 11
-14.8872
 21
-74.8433
  0
LINE
  8
0
 10
-14.8872
 20
-74.8433
 11
-13.046
 21
-75.1861
  0
LINE
  8
0
 10
-13.046
 20
-75.1861
 11
-11.1969
 21
-75.4836
  0
LINE
  8
0
 10
-11.1969
 20
-75.4836
 11
-9.3411
 21
-75.7356
  0
LINE
  8
0
 10
-9.3411
 20
-75.7356
 11
-7.47964
 21
-75.9421
  0
LINE
  8
0
 10
-7.47964
 20
-75.9421
 11
-5.61368
 21
-76.1028
  0
LINE
  8
0
 10
-5.61368
 20
-76.1028
 11
-3.74433
 21
-76.2176
  0
LINE
  8
0
 10
-3.74433
 20
-76.2176
 11
-1.87273
 21
-76.2865
  0
LINE
  8
0
 10
-1.87273
 20
-76.2865
 11
0
 21
-76.3095
  0
LINE
  8
0
 10
0
 20
-76.3095
 11
1.87273
 21
-76.2865
  0
LINE
  8
0
 10
1.87273
 20
-76.2865
 11
3.74433
 21
-76.2176
  0
LINE
  8
0
 10
3.74433
 20
-76.2176
 11
5.61368
 21
-76.1028
  0
LINE
  8
0
 10
5.61368
 20
-76.1028
 11
7.47964
 21
-75.9421
  0
LINE
  8
0
 10
7.47964
 20
-75.9421
 11
9.3411
 21
-75.7356
  0
LINE
  8
0
 10
9.3411
 20
-75.7356
 11
11.1969
 21
-75.4836
  0
LINE
  8
0
 10
11.1969
 20
-75.4836
 11
13.046
 21
-75.1861
  0
LINE
  8
0
 10
13.046
 20
-75.1861
 11
14.8872
 21
-74.8433
  0
LINE
  8
0
 10
14.8872
 20
-74.8433
 11
16.7195
 21
-74.4554
  0
LINE
  8
0
 10
16.7195
 20
-74.4554
 11
18.5417
 21
-74.0226
  0
LINE
  8
0
 10
18.5417
 20
-74.0226
 11
20.3527
 21
-73.5453
  0
LINE
  8
0
 10
20.3527
 20
-73.5453
 11
22.1515
 21
-73.0237
  0
LINE
  8
0
 10
22.1515
 20
-73.0237
 11
23.9369
 21
-72.458
  0
LINE
  8
0
 10
23.9369
 20
-72.458
 11
25.7079
 21
-71.8488
  0
LINE
  8
0
 10
25.7079
 20
-71.8488
 11
27.4634
 21
-71.1962
  0
LINE
  8
0
 10
27.4634
 20
-71.1962
 11
29.2024
 21
-70.5008
  0
LINE
  8
0
 10
29.2024
 20
-70.5008
 11
30.9238
 21
-69.7629
  0
LINE
  8
0
 10
30.9238
 20
-69.7629
 11
32.6265
 21
-68.983
  0
LINE
  8
0
 10
32.6265
 20
-68.983
 11
34.3096
 21
-68.1615
  0
LINE
  8
0
 10
34.3096
 20
-68.1615
 11
35.9721
 21
-67.299
  0
LINE
  8
0
 10
35.9721
 20
-67.299
 11
37.6128
 21
-66.3959
  0
LINE
  8
0
 10
37.6128
 20
-66.3959
 11
39.2309
 21
-65.4529
  0
LINE
  8
0
 10
39.2309
 20
-65.4529
 11
40.8254
 21
-64.4704
  0
LINE
  8
0
 10
40.8254
 20
-64.4704
 11
42.3953
 21
-63.449
  0
LINE
  8
0
 10
42.3953
 20
-63.449
 11
43.9396
 21
-62.3895
  0
LINE
  8
0
 10
43.9396
 20
-62.3895
 11
45.4575
 21
-61.2924
  0
LINE
  8
0
 10
45.4575
 20
-61.2924
 11
46.948
 21
-60.1583
  0
LINE
  8
0
 10
46.948
 20
-60.1583
 11
48.4102
 21
-58.9881
  0
LINE
  8
0
 10
48.4102
 20
-58.9881
 11
49.8433
 21
-57.7822
  0
LINE
  8
0
 10
49.8433
 20
-57.7822
 11
51.2463
 21
-56.5416
  0
LINE
  8
0
 10
51.2463
 20
-56.5416
 11
52.6185
 21
-55.2669
  0
LINE
  8
0
 10
52.6185
 20
-55.2669
 11
53.959
 21
-53.959
  0
LINE
  8
0
 10
53.959
 20
-53.959
 11
55.2669
 21
-52.6185
  0
LINE
  8
0
 10
55.2669
 20
-52.6185
 11
56.5416
 21
-51.2463
  0
LINE
  8
0
 10
56.5416
 20
-51.2463
 11
57.7822
 21
-49.8433
  0
LINE
  8
0
 10
57.7822
 20
-49.8433
 11
58.9881
 21
-48.4102
  0
LINE
  8
0
 10
58.9881
 20
-48.4102
 11
60.1583
 21
-46.948
  0
LINE
  8
0
 10
60.1583
 20
-46.948
 11
61.2924
 21
-45.4575
  0
LINE
  8
0
 10
61.2924
 20
-45.4575
 11
62.3895
 21
-43.9396
  0
LINE
  8
0
 10
62.3895
 20
-43.9396
 11
63.449
 21
-42.3953
  0
LINE
  8
0
 10
63.449
 20
-42.3953
 11
64.4704
 21
-40.8254
  0
LINE
  8
0
 10
64.4704
 20
-40.8254
 11
65.4529
 21
-39.2309
  0
LINE
  8
0
 10
65.4529
 20
-39.2309
 11
66.3959
 21
-37.6128
  0
LINE
  8
0
 10
66.3959
 20
-37.6128
 11
67.299
 21
-35.9721
  0
LINE
  8
0
 10
67.299
 20
-35.9721
 11
68.1615
 21
-34.3096
  0
LINE
  8
0
 10
68.1615
 20
-34.3096
 11
68.983
 21
-32.6265
  0
LINE
  8
0
 10
68.983
 20
-32.6265
 11
69.7629
 21
-30.9238
  0
LINE
  8
0
 10
69.7629
 20
-30.9238
 11
70.5008
 21
-29.2024
  0
LINE
  8
0
 10
70.5008
 20
-29.2024
 11
71.1962
 21
-27.4634
  0
LINE
  8
0
 10
71.1962
 20
-27.4634
 11
71.8488
 21
-25.7079
  0
LINE
  8
0
 10
71.8488
 20
-25.7079
 11
72.458
 21
-23.9369
  0
LINE
  8
0
 10
72.458
 20
-23.9369
 11
73.0237
 21
-22.1515
  0
LINE
  8
0
 10
73.0237
 20
-22.1515
 11
73.5453
 21
-20.3527
  0
LINE
  8
0
 10
73.5453
 20
-20.3527
 11
74.0226
 21
-18.5417
  0
LINE
  8
0
 10
74.0226
 20
-18.5417
 11
74.4554
 21
-16.7195
  0
LINE
  8
0
 10
74.4554
 20
-16.7195
 11
74.8433
 21
-14.8872
  0
LINE
  8
0
 10
74.8433
 20
-14.8872
 11
75.1861
 21
-13.046
  0
LINE
  8
0
 10
75.1861
 20
-13.046
 11
75.4836
 21
-11.1969
  0
LINE
  8
0
 10
75.4836
 20
-11.1969
 11
75.7356
 21
-9.3411
  0
LINE
  8
0
 10
75.7356
 20
-9.3411
 11
75.9421
 21
-7.47964
  0
LINE
  8
0
 10
75.9421
 20
-7.47964
 11
76.1028
 21
-5.61368
  0
LINE
  8
0
 10
76.1028
 20
-5.61368
 11
76.2176
 21
-3.74433
  0
LINE
  8
0
 10
76.2176
 20
-3.74433
 11
76.2865
 21
-1.87273
  0
LINE
  8
0
 10
76.2865
 20
-1.87273
 11
76.3095
 21
0
  0
LINE
  8
0
 10
76.3095
 20
0
 11
76.2865
 21
1.87273
  0
LINE
  8
0
 10
76.2865
 20
1.87273
 11
76.2176
 21
3.74433
  0
LINE
  8
0
 10
76.2176
 20
3.74433
 11
76.1028
 21
5.61368
  0
LINE
  8
0
 10
76.1028
 20
5.61368
 11
75.9421
 21
7.47964
  0
LINE
  8
0
 10
75.9421
 20
7.47964
 11
75.7356
 21
9.3411
  0
LINE
  8
0
 10
75.7356
 20
9.3411
 11
75.4836
 21
11.1969
  0
LINE
  8
0
 10
75.4836
 20
11.1969
 11
75.1861
 21
13.046
  0
LINE
  8
0
 10
75.1861
 20
13.046
 11
74.8433
 21
14.8872
  0
LINE
  8
0
 10
74.8433
 20
14.8872
 11
74.4554
 21
16.7195
  0
LINE
  8
0
 10
74.4554
 20
16.7195
 11
74.0226
 21
18.5417
  0
LINE
  8
0
 10
74.0226
 20
18.5417
 11
73.5453
 21
20.3527
  0
LINE
  8
0
 10
73.5453
 20
20.3527
 11
73.0237
 21
22.1515
  0
LINE
  8
0
 10
73.0237
 20
22.1515
 11
72.458
 21
23.9369
  0
LINE
  8
0
 10
72.458
 20
23.9369
 11
71.8488
 21
25.7079
  0
LINE
  8
0
 10
71.8488
 20
25.7079
 11
71.1962
 21
27.4634
  0
LINE
  8
0
 10
71.1962
 20
27.4634
 11
70.5008
 21
29.2024
  0
LINE
  8
0
 10
70.5008
 20
29.2024
 11
69.7629
 21
30.9238
  0
LINE
  8
0
 10
69.7629
 20
30.9238
 11
68.983
 21
32.6265
  0
LINE
  8
0
 10
68.983
 20
32.6265
 11
68.1615
 21
34.3096
  0
LINE
  8
0
 10
68.1615
 20
34.3096
 11
67.299
 21
35.9721
  0
LINE
  8
0
 10
67.299
 20
35.9721
 11
66.3959
 21
37.6128
  0
LINE
  8
0
 10
66.3959
 20
37.6128
 11
65.4529
 21
39.2309
  0
LINE
  8
0
 10
65.4529
 20
39.2309
 11
64.4704
 21
40.8254
  0
LINE
  8
0
 10
64.4704
 20
40.8254
 11
63.449
 21
42.3953
  0
LINE
  8
0
 10
63.449
 20
42.3953
 11
62.3895
 21
43.9396
  0
LINE
  8
0
 10
62.3895
 20
43.9396
 11
61.2924
 21
45.4575
  0
LINE
  8
0
 10
61.2924
 20
45.4575
 11
60.1583
 21
46.948
  0
LINE
  8
0
 10
60.1583
 20
46.948
 11
58.9881
 21
48.4102
  0
LINE
  8
0
 10
58.9881
 20
48.4102
 11
57.7822
 21
49.8433
  0
LINE
  8
0
 10
57.7822
 20
49.8433
 11
56.5416
 21
51.2463
  0
LINE
  8
0
 10
56.5416
 20
51.2463
 11
55.2669
 21
52.6185
  0
LINE
  8
0
 10
55.2669
 20
52.6185
 11
53.959
 21
53.959
  0
LINE
  8
0
 10
53.959
 20
53.959
 11
52.6185
 21
55.2669
  0
LINE
  8
0
 10
52.6185
 20
55.2669
 11
51.2463
 21
56.5416
  0
LINE
  8
0
 10
51.2463
 20
56.5416
 11
49.8433
 21
57.7822
  0
LINE
  8
0
 10
49.8433
 20
57.7822
 11
48.4102
 21
58.9881
  0
LINE
  8
0
 10
48.4102
 20
58.9881
 11
46.948
 21
60.1583
  0
LINE
  8
0
 10
46.948
 20
60.1583
 11
45.4575
 21
61.2924
  0
LINE
  8
0
 10
45.4575
 20
61.2924
 11
43.9396
 21
62.3895
  0
LINE
  8
0
 10
43.9396
 20
62.3895
 11
42.3953
 21
63.449
  0
LINE
  8
0
 10
42.3953
 20
63.449
 11
40.8254
 21
64.4704
  0
LINE
  8
0
 10
40.8254
 20
64.4704
 11
39.2309
 21
65.4529
  0
LINE
  8
0
 10
39.2309
 20
65.4529
 11
37.6128
 21
66.3959
  0
LINE
  8
0
 10
37.6128
 20
66.3959
 11
35.9721
 21
67.299
  0
LINE
  8
0
 10
35.9721
 20
67.299
 11
34.3096
 21
68.1615
  0
LINE
  8
0
 10
34.3096
 20
68.1615
 11
32.6265
 21
68.983
  0
LINE
  8
0
 10
32.6265
 20
68.983
 11
30.9238
 21
69.7629
  0
LINE
  8
0
 10
30.9238
 20
69.7629
 11
29.2024
 21
70.5008
  0
LINE
  8
0
 10
29.2024
 20
70.5008
 11
27.4634
 21
71.1962
  0
LINE
  8
0
 10
27.4634
 20
71.1962
 11
25.7079
 21
71.8488
  0
LINE
  8
0
 10
25.7079
 20
71.8488
 11
23.9369
 21
72.458
  0
LINE
  8
0
 10
23.9369
 20
72.458
 11
22.1515
 21
73.0237
  0
LINE
  8
0
 10
22.1515
 20
73.0237
 11
20.3527
 21
73.5453
  0
LINE
  8
0
 10
20.3527
 20
73.5453
 11
18.5417
 21
74.0226
  0
LINE
  8
0
 10
18.5417
 20
74.0226
 11
16.7195
 21
74.4554
  0
LINE
  8
0
 10
16.7195
 20
74.4554
 11
14.8872
 21
74.8433
  0
LINE
  8
0
 10
14.8872
 20
74.8433
 11
13.046
 21
75.1861
  0
LINE
  8
0
 10
13.046
 20
75.1861
 11
11.1969
 21
75.4836
  0
LINE
  8
0
 10
11.1969
 20
75.4836
 11
9.3411
 21
75.7356
  0
LINE
  8
0
 10
9.3411
 20
75.7356
 11
7.47964
 21
75.9421
  0
LINE
  8
0
 10
7.47964
 20
75.9421
 11
5.61368
 21
76.1028
  0
LINE
  8
0
 10
5.61368
 20
76.1028
 11
3.74433
 21
76.2176
  0
LINE
  8
0
 10
3.74433
 20
76.2176
 11
1.87273
 21
76.2865
  0
LINE
  8
0
 10
1.87273
 20
76.2865
 11
0
 21
76.3095
  0
LINE
  8
0
 10
0
 20
76.3095
 11
-1.87273
 21
76.2865
  0
LINE
  8
0
 10
-1.87273
 20
76.2865
 11
-3.74433
 21
76.2176
  0
LINE
  8
0
 10
-3.74433
 20
76.2176
 11
-5.61368
 21
76.1028
  0
LINE
  8
0
 10
-5.61368
 20
76.1028
 11
-7.47964
 21
75.9421
  0
LINE
  8
0
 10
-7.47964
 20
75.9421
 11
-9.3411
 21
75.7356
  0
LINE
  8
0
 10
-9.3411
 20
75.7356
 11
-11.1969
 21
75.4836
  0
LINE
  8
0
 10
-11.1969
 20
75.4836
 11
-13.046
 21
75.1861
  0
LINE
  8
0
 10
-13.046
 20
75.1861
 11
-14.8872
 21
74.8433
  0
LINE
  8
0
 10
-14.8872
 20
74.8433
 11
-16.7195
 21
74.4554
  0
LINE
  8
0
 10
-16.7195
 20
74.4554
 11
-18.5417
 21
74.0226
  0
LINE
  8
0
 10
-18.5417
 20
74.0226
 11
-20.3527
 21
73.5453
  0
LINE
  8
0
 10
-20.3527
 20
73.5453
 11
-22.1515
 21
73.0237
  0
LINE
  8
0
 10
-22.1515
 20
73.0237
 11
-23.9369
 21
72.458
  0
LINE
  8
0
 10
-23.9369
 20
72.458
 11
-25.7079
 21
71.8488
  0
LINE
  8
0
 10
-25.7079
 20
71.8488
 11
-27.4634
 21
71.1962
  0
LINE
  8
0
 10
-27.4634
 20
71.1962
 11
-29.2024
 21
70.5008
  0
LINE
  8
0
 10
-29.2024
 20
70.5008
 11
-30.9238
 21
69.7629
  0
LINE
  8
0
 10
-30.9238
 20
69.7629
 11
-32.6265
 21
68.983
  0
LINE
  8
0
 10
-32.6265
 20
68.983
 11
-34.3096
 21
68.1615
  0
LINE
  8
0
 10
-34.3096
 20
68.1615
 11
-35.9721
 21
67.299
  0
LINE
  8
0
 10
-35.9721
 20
67.299
 11
-37.6128
 21
66.3959
  0
LINE
  8
0
 10
-37.6128
 20
66.3959
 11
-39.2309
 21
65.4529
  0
LINE
  8
0
 10
-39.2309
 20
65.4529
 11
-40.8254
 21
64.4704
  0
LINE
  8
0
 10
-40.8254
 20
64.4704
 11
-42.3953
 21
63.449
  0
LINE
  8
0
 10
-42.3953
 20
63.449
 11
-43.9396
 21
62.3895
  0
LINE
  8
0
 10
-43.9396
 20
62.3895
 11
-45.4575
 21
61.2924
  0
LINE
  8
0
 10
-45.4575
 20
61.2924
 11
-46.948
 21
60.1583
  0
LINE
  8
0
 10
-46.948
 20
60.1583
 11
-48.4102
 21
58.9881
  0
LINE
  8
0
 10
-48.4102
 20
58.9881
 11
-49.8433
 21
57.7822
  0
LINE
  8
0
 10
-49.8433
 20
57.7822
 11
-51.2463
 21
56.5416
  0
LINE
  8
0
 10
-51.2463
 20
56.5416
 11
-52.6185
 21
55.2669
  0
LINE
  8
0
 10
-52.6185
 20
55.2669
 11
-53.959
 21
53.959
  0
LINE
  8
0
 10
-53.959
 20
53.959
 11
-55.2669
 21
52.6185
  0
LINE
  8
0
 10
-55.2669
 20
52.6185
 11
-56.5416
 21
51.2463
  0
LINE
  8
0
 10
-56.5416
 20
51.2463
 11
-57.7822
 21
49.8433
  0
LINE
  8
0
 10
-57.7822
 20
49.8433
 11
-58.9881
 21
48.4102
  0
LINE
  8
0
 10
-58.9881
 20
48.4102
 11
-60.1583
 21
46.948
  0
LINE
  8
0
 10
-60.1583
 20
46.948
 11
-61.2924
 21
45.4575
  0
LINE
  8
0
 10
-61.2924
 20
45.4575
 11
-62.3895
 21
43.9396
  0
LINE
  8
0
 10
-62.3895
 20
43.9396
 11
-63.449
 21
42.3953
  0
LINE
  8
0
 10
-63.449
 20
42.3953
 11
-64.4704
 21
40.8254
  0
LINE
  8
0
 10
-64.4704
 20
40.8254
 11
-65.4529
 21
39.2309
  0
LINE
  8
0
 10
-65.4529
 20
39.2309
 11
-66.3959
 21
37.6128
  0
LINE
  8
0
 10
-66.3959
 20
37.6128
 11
-67.299
 21
35.9721
  0
LINE
  8
0
 10
-67.299
 20
35.9721
 11
-68.1615
 21
34.3096
  0
LINE
  8
0
 10
-68.1615
 20
34.3096
 11
-68.983
 21
32.6265
  0
LINE
  8
0
 10
-68.983
 20
32.6265
 11
-69.7629
 21
30.9238
  0
LINE
  8
0
 10
-69.7629
 20
30.9238
 11
-70.5008
 21
29.2024
  0
LINE
  8
0
 10
-70.5008
 20
29.2024
 11
-71.1962
 21
27.4634
  0
LINE
  8
0
 10
-71.1962
 20
27.4634
 11
-71.8488
 21
25.7079
  0
LINE
  8
0
 10
-71.8488
 20
25.7079
 11
-72.458
 21
23.9369
  0
LINE
  8
0
 10
-72.458
 20
23.9369
 11
-73.0237
 21
22.1515
  0
LINE
  8
0
 10
-73.0237
 20
22.1515
 11
-73.5453
 21
20.3527
  0
LINE
  8
0
 10
-73.5453
 20
20.3527
 11
-74.0226
 21
18.5417
  0
LINE
  8
0
 10
-74.0226
 20
18.5417
 11
-74.4554
 21
16.7195
  0
LINE
  8
0
 10
-74.4554
 20
16.7195
 11
-74.8433
 21
14.8872
  0
LINE
  8
0
 10
-74.8433
 20
14.8872
 11
-75.1861
 21
13.046
  0
LINE
  8
0
 10
-75.1861
 20
13.046
 11
-75.4836
 21
11.1969
  0
LINE
  8
0
 10
-75.4836
 20
11.1969
 11
-75.7356
 21
9.3411
  0
LINE
  8
0
 10
-75.7356
 20
9.3411
 11
-75.9421
 21
7.47964
  0
LINE
  8
0
 10
-75.9421
 20
7.47964
 11
-76.1028
 21
5.61368
  0
LINE
  8
0
 10
-76.1028
 20
5.61368
 11
-76.2176
 21
3.74433
  0
LINE
  8
0
 10
-76.2176
 20
3.74433
 11
-76.2865
 21
1.87273
  0
LINE
  8
0
 10
-76.2865
 20
1.87273
 11
-76.3095
 21
0
  0
ENDSEC
  0
SECTION
  2
OBJECTS
  0
DICTIONARY
  0
ENDSEC
  0
EOF
