  0
SECTION
  2
BLOCKS
  0
ENDSEC
  0
SECTION
  2
ENTITIES
  0
LINE
  8
0
 10
-198
 20
0
 11
-197.94
 21
-4.85916
  0
LINE
  8
0
 10
-197.94
 20
-4.85916
 11
-197.761
 21
-9.7154
  0
LINE
  8
0
 10
-197.761
 20
-9.7154
 11
-197.464
 21
-14.5658
  0
LINE
  8
0
 10
-197.464
 20
-14.5658
 11
-197.047
 21
-19.4074
  0
LINE
  8
0
 10
-197.047
 20
-19.4074
 11
-196.511
 21
-24.2373
  0
LINE
  8
0
 10
-196.511
 20
-24.2373
 11
-195.857
 21
-29.0526
  0
LINE
  8
0
 10
-195.857
 20
-29.0526
 11
-195.085
 21
-33.8505
  0
LINE
  8
0
 10
-195.085
 20
-33.8505
 11
-194.195
 21
-38.6279
  0
LINE
  8
0
 10
-194.195
 20
-38.6279
 11
-193.189
 21
-43.382
  0
LINE
  8
0
 10
-193.189
 20
-43.382
 11
-192.066
 21
-48.1101
  0
LINE
  8
0
 10
-192.066
 20
-48.1101
 11
-190.828
 21
-52.8091
  0
LINE
  8
0
 10
-190.828
 20
-52.8091
 11
-189.474
 21
-57.4764
  0
LINE
  8
0
 10
-189.474
 20
-57.4764
 11
-188.007
 21
-62.109
  0
LINE
  8
0
 10
-188.007
 20
-62.109
 11
-186.426
 21
-66.7042
  0
LINE
  8
0
 10
-186.426
 20
-66.7042
 11
-184.733
 21
-71.2592
  0
LINE
  8
0
 10
-184.733
 20
-71.2592
 11
-182.928
 21
-75.7713
  0
LINE
  8
0
 10
-182.928
 20
-75.7713
 11
-181.014
 21
-80.2378
  0
LINE
  8
0
 10
-181.014
 20
-80.2378
 11
-178.99
 21
-84.6559
  0
LINE
  8
0
 10
-178.99
 20
-84.6559
 11
-176.858
 21
-89.023
  0
LINE
  8
0
 10
-176.858
 20
-89.023
 11
-174.62
 21
-93.3366
  0
LINE
  8
0
 10
-174.62
 20
-93.3366
 11
-172.277
 21
-97.5938
  0
LINE
  8
0
 10
-172.277
 20
-97.5938
 11
-169.83
 21
-101.792
  0
LINE
  8
0
 10
-169.83
 20
-101.792
 11
-167.281
 21
-105.93
  0
LINE
  8
0
 10
-167.281
 20
-105.93
 11
-164.631
 21
-110.003
  0
LINE
  8
0
 10
-164.631
 20
-110.003
 11
-161.882
 21
-114.01
  0
LINE
  8
0
 10
-161.882
 20
-114.01
 11
-159.035
 21
-117.948
  0
LINE
  8
0
 10
-159.035
 20
-117.948
 11
-156.093
 21
-121.816
  0
LINE
  8
0
 10
-156.093
 20
-121.816
 11
-153.056
 21
-125.61
  0
LINE
  8
0
 10
-153.056
 20
-125.61
 11
-149.927
 21
-129.328
  0
LINE
  8
0
 10
-149.927
 20
-129.328
 11
-146.708
 21
-132.969
  0
LINE
  8
0
 10
-146.708
 20
-132.969
 11
-143.401
 21
-136.529
  0
LINE
  8
0
 10
-143.401
 20
-136.529
 11
-140.007
 21
-140.007
  0
LINE
  8
0
 10
-140.007
 20
-140.007
 11
-136.529
 21
-143.401
  0
LINE
  8
0
 10
-136.529
 20
-143.401
 11
-132.969
 21
-146.708
  0
LINE
  8
0
 10
-132.969
 20
-146.708
 11
-129.328
 21
-149.927
  0
LINE
  8
0
 10
-129.328
 20
-149.927
 11
-125.61
 21
-153.056
  0
LINE
  8
0
 10
-125.61
 20
-153.056
 11
-121.816
 21
-156.093
  0
LINE
  8
0
 10
-121.816
 20
-156.093
 11
-117.948
 21
-159.035
  0
LINE
  8
0
 10
-117.948
 20
-159.035
 11
-114.01
 21
-161.882
  0
LINE
  8
0
 10
-114.01
 20
-161.882
 11
-110.003
 21
-164.631
  0
LINE
  8
0
 10
-110.003
 20
-164.631
 11
-105.93
 21
-167.281
  0
LINE
  8
0
 10
-105.93
 20
-167.281
 11
-101.792
 21
-169.83
  0
LINE
  8
0
 10
-101.792
 20
-169.83
 11
-97.5938
 21
-172.277
  0
LINE
  8
0
 10
-97.5938
 20
-172.277
 11
-93.3366
 21
-174.62
  0
LINE
  8
0
 10
-93.3366
 20
-174.62
 11
-89.023
 21
-176.858
  0
LINE
  8
0
 10
-89.023
 20
-176.858
 11
-84.6559
 21
-178.99
  0
LINE
  8
0
 10
-84.6559
 20
-178.99
 11
-80.2378
 21
-181.014
  0
LINE
  8
0
 10
-80.2378
 20
-181.014
 11
-75.7713
 21
-182.928
  0
LINE
  8
0
 10
-75.7713
 20
-182.928
 11
-71.2592
 21
-184.733
  0
LINE
  8
0
 10
-71.2592
 20
-184.733
 11
-66.7042
 21
-186.426
  0
LINE
  8
0
 10
-66.7042
 20
-186.426
 11
-62.109
 21
-188.007
  0
LINE
  8
0
 10
-62.109
 20
-188.007
 11
-57.4764
 21
-189.474
  0
LINE
  8
0
 10
-57.4764
 20
-189.474
 11
-52.8091
 21
-190.828
  0
LINE
  8
0
 10
-52.8091
 20
-190.828
 11
-48.1101
 21
-192.066
  0
LINE
  8
0
 10
-48.1101
 20
-192.066
 11
-43.382
 21
-193.189
  0
LINE
  8
0
 10
-43.382
 20
-193.189
 11
-38.6279
 21
-194.195
  0
LINE
  8
0
 10
-38.6279
 20
-194.195
 11
-33.8505
 21
-195.085
  0
LINE
  8
0
 10
-33.8505
 20
-195.085
 11
-29.0526
 21
-195.857
  0
LINE
  8
0
 10
-29.0526
 20
-195.857
 11
-24.2373
 21
-196.511
  0
LINE
  8
0
 10
-24.2373
 20
-196.511
 11
-19.4074
 21
-197.047
  0
LINE
  8
0
 10
-19.4074
 20
-197.047
 11
-14.5658
 21
-197.464
  0
LINE
  8
0
 10
-14.5658
 20
-197.464
 11
-9.7154
 21
-197.761
  0
LINE
  8
0
 10
-9.7154
 20
-197.761
 11
-4.85916
 21
-197.94
  0
LINE
  8
0
 10
-4.85916
 20
-197.94
 11
0
 21
-198
  0
LINE
  8
0
 10
0
 20
-198
 11
4.85916
 21
-197.94
  0
LINE
  8
0
 10
4.85916
 20
-197.94
 11
9.7154
 21
-197.761
  0
LINE
  8
0
 10
9.7154
 20
-197.761
 11
14.5658
 21
-197.464
  0
LINE
  8
0
 10
14.5658
 20
-197.464
 11
19.4074
 21
-197.047
  0
LINE
  8
0
 10
19.4074
 20
-197.047
 11
24.2373
 21
-196.511
  0
LINE
  8
0
 10
24.2373
 20
-196.511
 11
29.0526
 21
-195.857
  0
LINE
  8
0
 10
29.0526
 20
-195.857
 11
33.8505
 21
-195.085
  0
LINE
  8
0
 10
33.8505
 20
-195.085
 11
38.6279
 21
-194.195
  0
LINE
  8
0
 10
38.6279
 20
-194.195
 11
43.382
 21
-193.189
  0
LINE
  8
0
 10
43.382
 20
-193.189
 11
48.1101
 21
-192.066
  0
LINE
  8
0
 10
48.1101
 20
-192.066
 11
52.8091
 21
-190.828
  0
LINE
  8
0
 10
52.8091
 20
-190.828
 11
57.4764
 21
-189.474
  0
LINE
  8
0
 10
57.4764
 20
-189.474
 11
62.109
 21
-188.007
  0
LINE
  8
0
 10
62.109
 20
-188.007
 11
66.7042
 21
-186.426
  0
LINE
  8
0
 10
66.7042
 20
-186.426
 11
71.2592
 21
-184.733
  0
LINE
  8
0
 10
71.2592
 20
-184.733
 11
75.7713
 21
-182.928
  0
LINE
  8
0
 10
75.7713
 20
-182.928
 11
80.2378
 21
-181.014
  0
LINE
  8
0
 10
80.2378
 20
-181.014
 11
84.6559
 21
-178.99
  0
LINE
  8
0
 10
84.6559
 20
-178.99
 11
89.023
 21
-176.858
  0
LINE
  8
0
 10
89.023
 20
-176.858
 11
93.3366
 21
-174.62
  0
LINE
  8
0
 10
93.3366
 20
-174.62
 11
97.5938
 21
-172.277
  0
LINE
  8
0
 10
97.5938
 20
-172.277
 11
101.792
 21
-169.83
  0
LINE
  8
0
 10
101.792
 20
-169.83
 11
105.93
 21
-167.281
  0
LINE
  8
0
 10
105.93
 20
-167.281
 11
110.003
 21
-164.631
  0
LINE
  8
0
 10
110.003
 20
-164.631
 11
114.01
 21
-161.882
  0
LINE
  8
0
 10
114.01
 20
-161.882
 11
117.948
 21
-159.035
  0
LINE
  8
0
 10
117.948
 20
-159.035
 11
121.816
 21
-156.093
  0
LINE
  8
0
 10
121.816
 20
-156.093
 11
125.61
 21
-153.056
  0
LINE
  8
0
 10
125.61
 20
-153.056
 11
129.328
 21
-149.927
  0
LINE
  8
0
 10
129.328
 20
-149.927
 11
132.969
 21
-146.708
  0
LINE
  8
0
 10
132.969
 20
-146.708
 11
136.529
 21
-143.401
  0
LINE
  8
0
 10
136.529
 20
-143.401
 11
140.007
 21
-140.007
  0
LINE
  8
0
 10
140.007
 20
-140.007
 11
143.401
 21
-136.529
  0
LINE
  8
0
 10
143.401
 20
-136.529
 11
146.708
 21
-132.969
  0
LINE
  8
0
 10
146.708
 20
-132.969
 11
149.927
 21
-129.328
  0
LINE
  8
0
 10
149.927
 20
-129.328
 11
153.056
 21
-125.61
  0
LINE
  8
0
 10
153.056
 20
-125.61
 11
156.093
 21
-121.816
  0
LINE
  8
0
 10
156.093
 20
-121.816
 11
159.035
 21
-117.948
  0
LINE
  8
0
 10
159.035
 20
-117.948
 11
161.882
 21
-114.01
  0
LINE
  8
0
 10
161.882
 20
-114.01
 11
164.631
 21
-110.003
  0
LINE
  8
0
 10
164.631
 20
-110.003
 11
167.281
 21
-105.93
  0
LINE
  8
0
 10
167.281
 20
-105.93
 11
169.83
 21
-101.792
  0
LINE
  8
0
 10
169.83
 20
-101.792
 11
172.277
 21
-97.5938
  0
LINE
  8
0
 10
172.277
 20
-97.5938
 11
174.62
 21
-93.3366
  0
LINE
  8
0
 10
174.62
 20
-93.3366
 11
176.858
 21
-89.023
  0
LINE
  8
0
 10
176.858
 20
-89.023
 11
178.99
 21
-84.6559
  0
LINE
  8
0
 10
178.99
 20
-84.6559
 11
181.014
 21
-80.2378
  0
LINE
  8
0
 10
181.014
 20
-80.2378
 11
182.928
 21
-75.7713
  0
LINE
  8
0
 10
182.928
 20
-75.7713
 11
184.733
 21
-71.2592
  0
LINE
  8
0
 10
184.733
 20
-71.2592
 11
186.426
 21
-66.7042
  0
LINE
  8
0
 10
186.426
 20
-66.7042
 11
188.007
 21
-62.109
  0
LINE
  8
0
 10
188.007
 20
-62.109
 11
189.474
 21
-57.4764
  0
LINE
  8
0
 10
189.474
 20
-57.4764
 11
190.828
 21
-52.8091
  0
LINE
  8
0
 10
190.828
 20
-52.8091
 11
192.066
 21
-48.1101
  0
LINE
  8
0
 10
192.066
 20
-48.1101
 11
193.189
 21
-43.382
  0
LINE
  8
0
 10
193.189
 20
-43.382
 11
194.195
 21
-38.6279
  0
LINE
  8
0
 10
194.195
 20
-38.6279
 11
195.085
 21
-33.8505
  0
LINE
  8
0
 10
195.085
 20
-33.8505
 11
195.857
 21
-29.0526
  0
LINE
  8
0
 10
195.857
 20
-29.0526
 11
196.511
 21
-24.2373
  0
LINE
  8
0
 10
196.511
 20
-24.2373
 11
197.047
 21
-19.4074
  0
LINE
  8
0
 10
197.047
 20
-19.4074
 11
197.464
 21
-14.5658
  0
LINE
  8
0
 10
197.464
 20
-14.5658
 11
197.761
 21
-9.7154
  0
LINE
  8
0
 10
197.761
 20
-9.7154
 11
197.94
 21
-4.85916
  0
LINE
  8
0
 10
197.94
 20
-4.85916
 11
198
 21
0
  0
LINE
  8
0
 10
198
 20
0
 11
197.94
 21
4.85916
  0
LINE
  8
0
 10
197.94
 20
4.85916
 11
197.761
 21
9.7154
  0
LINE
  8
0
 10
197.761
 20
9.7154
 11
197.464
 21
14.5658
  0
LINE
  8
0
 10
197.464
 20
14.5658
 11
197.047
 21
19.4074
  0
LINE
  8
0
 10
197.047
 20
19.4074
 11
196.511
 21
24.2373
  0
LINE
  8
0
 10
196.511
 20
24.2373
 11
195.857
 21
29.0526
  0
LINE
  8
0
 10
195.857
 20
29.0526
 11
195.085
 21
33.8505
  0
LINE
  8
0
 10
195.085
 20
33.8505
 11
194.195
 21
38.6279
  0
LINE
  8
0
 10
194.195
 20
38.6279
 11
193.189
 21
43.382
  0
LINE
  8
0
 10
193.189
 20
43.382
 11
192.066
 21
48.1101
  0
LINE
  8
0
 10
192.066
 20
48.1101
 11
190.828
 21
52.8091
  0
LINE
  8
0
 10
190.828
 20
52.8091
 11
189.474
 21
57.4764
  0
LINE
  8
0
 10
189.474
 20
57.4764
 11
188.007
 21
62.109
  0
LINE
  8
0
 10
188.007
 20
62.109
 11
186.426
 21
66.7042
  0
LINE
  8
0
 10
186.426
 20
66.7042
 11
184.733
 21
71.2592
  0
LINE
  8
0
 10
184.733
 20
71.2592
 11
182.928
 21
75.7713
  0
LINE
  8
0
 10
182.928
 20
75.7713
 11
181.014
 21
80.2378
  0
LINE
  8
0
 10
181.014
 20
80.2378
 11
178.99
 21
84.6559
  0
LINE
  8
0
 10
178.99
 20
84.6559
 11
176.858
 21
89.023
  0
LINE
  8
0
 10
176.858
 20
89.023
 11
174.62
 21
93.3366
  0
LINE
  8
0
 10
174.62
 20
93.3366
 11
172.277
 21
97.5938
  0
LINE
  8
0
 10
172.277
 20
97.5938
 11
169.83
 21
101.792
  0
LINE
  8
0
 10
169.83
 20
101.792
 11
167.281
 21
105.93
  0
LINE
  8
0
 10
167.281
 20
105.93
 11
164.631
 21
110.003
  0
LINE
  8
0
 10
164.631
 20
110.003
 11
161.882
 21
114.01
  0
LINE
  8
0
 10
161.882
 20
114.01
 11
159.035
 21
117.948
  0
LINE
  8
0
 10
159.035
 20
117.948
 11
156.093
 21
121.816
  0
LINE
  8
0
 10
156.093
 20
121.816
 11
153.056
 21
125.61
  0
LINE
  8
0
 10
153.056
 20
125.61
 11
149.927
 21
129.328
  0
LINE
  8
0
 10
149.927
 20
129.328
 11
146.708
 21
132.969
  0
LINE
  8
0
 10
146.708
 20
132.969
 11
143.401
 21
136.529
  0
LINE
  8
0
 10
143.401
 20
136.529
 11
140.007
 21
140.007
  0
LINE
  8
0
 10
140.007
 20
140.007
 11
136.529
 21
143.401
  0
LINE
  8
0
 10
136.529
 20
143.401
 11
132.969
 21
146.708
  0
LINE
  8
0
 10
132.969
 20
146.708
 11
129.328
 21
149.927
  0
LINE
  8
0
 10
129.328
 20
149.927
 11
125.61
 21
153.056
  0
LINE
  8
0
 10
125.61
 20
153.056
 11
121.816
 21
156.093
  0
LINE
  8
0
 10
121.816
 20
156.093
 11
117.948
 21
159.035
  0
LINE
  8
0
 10
117.948
 20
159.035
 11
114.01
 21
161.882
  0
LINE
  8
0
 10
114.01
 20
161.882
 11
110.003
 21
164.631
  0
LINE
  8
0
 10
110.003
 20
164.631
 11
105.93
 21
167.281
  0
LINE
  8
0
 10
105.93
 20
167.281
 11
101.792
 21
169.83
  0
LINE
  8
0
 10
101.792
 20
169.83
 11
97.5938
 21
172.277
  0
LINE
  8
0
 10
97.5938
 20
172.277
 11
93.3366
 21
174.62
  0
LINE
  8
0
 10
93.3366
 20
174.62
 11
89.023
 21
176.858
  0
LINE
  8
0
 10
89.023
 20
176.858
 11
84.6559
 21
178.99
  0
LINE
  8
0
 10
84.6559
 20
178.99
 11
80.2378
 21
181.014
  0
LINE
  8
0
 10
80.2378
 20
181.014
 11
75.7713
 21
182.928
  0
LINE
  8
0
 10
75.7713
 20
182.928
 11
71.2592
 21
184.733
  0
LINE
  8
0
 10
71.2592
 20
184.733
 11
66.7042
 21
186.426
  0
LINE
  8
0
 10
66.7042
 20
186.426
 11
62.109
 21
188.007
  0
LINE
  8
0
 10
62.109
 20
188.007
 11
57.4764
 21
189.474
  0
LINE
  8
0
 10
57.4764
 20
189.474
 11
52.8091
 21
190.828
  0
LINE
  8
0
 10
52.8091
 20
190.828
 11
48.1101
 21
192.066
  0
LINE
  8
0
 10
48.1101
 20
192.066
 11
43.382
 21
193.189
  0
LINE
  8
0
 10
43.382
 20
193.189
 11
38.6279
 21
194.195
  0
LINE
  8
0
 10
38.6279
 20
194.195
 11
33.8505
 21
195.085
  0
LINE
  8
0
 10
33.8505
 20
195.085
 11
29.0526
 21
195.857
  0
LINE
  8
0
 10
29.0526
 20
195.857
 11
24.2373
 21
196.511
  0
LINE
  8
0
 10
24.2373
 20
196.511
 11
19.4074
 21
197.047
  0
LINE
  8
0
 10
19.4074
 20
197.047
 11
14.5658
 21
197.464
  0
LINE
  8
0
 10
14.5658
 20
197.464
 11
9.7154
 21
197.761
  0
LINE
  8
0
 10
9.7154
 20
197.761
 11
4.85916
 21
197.94
  0
LINE
  8
0
 10
4.85916
 20
197.94
 11
0
 21
198
  0
LINE
  8
0
 10
0
 20
198
 11
-4.85916
 21
197.94
  0
LINE
  8
0
 10
-4.85916
 20
197.94
 11
-9.7154
 21
197.761
  0
LINE
  8
0
 10
-9.7154
 20
197.761
 11
-14.5658
 21
197.464
  0
LINE
  8
0
 10
-14.5658
 20
197.464
 11
-19.4074
 21
197.047
  0
LINE
  8
0
 10
-19.4074
 20
197.047
 11
-24.2373
 21
196.511
  0
LINE
  8
0
 10
-24.2373
 20
196.511
 11
-29.0526
 21
195.857
  0
LINE
  8
0
 10
-29.0526
 20
195.857
 11
-33.8505
 21
195.085
  0
LINE
  8
0
 10
-33.8505
 20
195.085
 11
-38.6279
 21
194.195
  0
LINE
  8
0
 10
-38.6279
 20
194.195
 11
-43.382
 21
193.189
  0
LINE
  8
0
 10
-43.382
 20
193.189
 11
-48.1101
 21
192.066
  0
LINE
  8
0
 10
-48.1101
 20
192.066
 11
-52.8091
 21
190.828
  0
LINE
  8
0
 10
-52.8091
 20
190.828
 11
-57.4764
 21
189.474
  0
LINE
  8
0
 10
-57.4764
 20
189.474
 11
-62.109
 21
188.007
  0
LINE
  8
0
 10
-62.109
 20
188.007
 11
-66.7042
 21
186.426
  0
LINE
  8
0
 10
-66.7042
 20
186.426
 11
-71.2592
 21
184.733
  0
LINE
  8
0
 10
-71.2592
 20
184.733
 11
-75.7713
 21
182.928
  0
LINE
  8
0
 10
-75.7713
 20
182.928
 11
-80.2378
 21
181.014
  0
LINE
  8
0
 10
-80.2378
 20
181.014
 11
-84.6559
 21
178.99
  0
LINE
  8
0
 10
-84.6559
 20
178.99
 11
-89.023
 21
176.858
  0
LINE
  8
0
 10
-89.023
 20
176.858
 11
-93.3366
 21
174.62
  0
LINE
  8
0
 10
-93.3366
 20
174.62
 11
-97.5938
 21
172.277
  0
LINE
  8
0
 10
-97.5938
 20
172.277
 11
-101.792
 21
169.83
  0
LINE
  8
0
 10
-101.792
 20
169.83
 11
-105.93
 21
167.281
  0
LINE
  8
0
 10
-105.93
 20
167.281
 11
-110.003
 21
164.631
  0
LINE
  8
0
 10
-110.003
 20
164.631
 11
-114.01
 21
161.882
  0
LINE
  8
0
 10
-114.01
 20
161.882
 11
-117.948
 21
159.035
  0
LINE
  8
0
 10
-117.948
 20
159.035
 11
-121.816
 21
156.093
  0
LINE
  8
0
 10
-121.816
 20
156.093
 11
-125.61
 21
153.056
  0
LINE
  8
0
 10
-125.61
 20
153.056
 11
-129.328
 21
149.927
  0
LINE
  8
0
 10
-129.328
 20
149.927
 11
-132.969
 21
146.708
  0
LINE
  8
0
 10
-132.969
 20
146.708
 11
-136.529
 21
143.401
  0
LINE
  8
0
 10
-136.529
 20
143.401
 11
-140.007
 21
140.007
  0
LINE
  8
0
 10
-140.007
 20
140.007
 11
-143.401
 21
136.529
  0
LINE
  8
0
 10
-143.401
 20
136.529
 11
-146.708
 21
132.969
  0
LINE
  8
0
 10
-146.708
 20
132.969
 11
-149.927
 21
129.328
  0
LINE
  8
0
 10
-149.927
 20
129.328
 11
-153.056
 21
125.61
  0
LINE
  8
0
 10
-153.056
 20
125.61
 11
-156.093
 21
121.816
  0
LINE
  8
0
 10
-156.093
 20
121.816
 11
-159.035
 21
117.948
  0
LINE
  8
0
 10
-159.035
 20
117.948
 11
-161.882
 21
114.01
  0
LINE
  8
0
 10
-161.882
 20
114.01
 11
-164.631
 21
110.003
  0
LINE
  8
0
 10
-164.631
 20
110.003
 11
-167.281
 21
105.93
  0
LINE
  8
0
 10
-167.281
 20
105.93
 11
-169.83
 21
101.792
  0
LINE
  8
0
 10
-169.83
 20
101.792
 11
-172.277
 21
97.5938
  0
LINE
  8
0
 10
-172.277
 20
97.5938
 11
-174.62
 21
93.3366
  0
LINE
  8
0
 10
-174.62
 20
93.3366
 11
-176.858
 21
89.023
  0
LINE
  8
0
 10
-176.858
 20
89.023
 11
-178.99
 21
84.6559
  0
LINE
  8
0
 10
-178.99
 20
84.6559
 11
-181.014
 21
80.2378
  0
LINE
  8
0
 10
-181.014
 20
80.2378
 11
-182.928
 21
75.7713
  0
LINE
  8
0
 10
-182.928
 20
75.7713
 11
-184.733
 21
71.2592
  0
LINE
  8
0
 10
-184.733
 20
71.2592
 11
-186.426
 21
66.7042
  0
LINE
  8
0
 10
-186.426
 20
66.7042
 11
-188.007
 21
62.109
  0
LINE
  8
0
 10
-188.007
 20
62.109
 11
-189.474
 21
57.4764
  0
LINE
  8
0
 10
-189.474
 20
57.4764
 11
-190.828
 21
52.8091
  0
LINE
  8
0
 10
-190.828
 20
52.8091
 11
-192.066
 21
48.1101
  0
LINE
  8
0
 10
-192.066
 20
48.1101
 11
-193.189
 21
43.382
  0
LINE
  8
0
 10
-193.189
 20
43.382
 11
-194.195
 21
38.6279
  0
LINE
  8
0
 10
-194.195
 20
38.6279
 11
-195.085
 21
33.8505
  0
LINE
  8
0
 10
-195.085
 20
33.8505
 11
-195.857
 21
29.0526
  0
LINE
  8
0
 10
-195.857
 20
29.0526
 11
-196.511
 21
24.2373
  0
LINE
  8
0
 10
-196.511
 20
24.2373
 11
-197.047
 21
19.4074
  0
LINE
  8
0
 10
-197.047
 20
19.4074
 11
-197.464
 21
14.5658
  0
LINE
  8
0
 10
-197.464
 20
14.5658
 11
-197.761
 21
9.7154
  0
LINE
  8
0
 10
-197.761
 20
9.7154
 11
-197.94
 21
4.85916
  0
LINE
  8
0
 10
-197.94
 20
4.85916
 11
-198
 21
0
  0
LINE
  8
0
 10
-73.0095
 20
0
 11
-73.004
 21
0.0877323
  0
LINE
  8
0
 10
-73.004
 20
0.0877323
 11
-72.9875
 21
0.174083
  0
LINE
  8
0
 10
-72.9875
 20
0.174083
 11
-72.9604
 21
0.257687
  0
LINE
  8
0
 10
-72.9604
 20
0.257687
 11
-72.9229
 21
0.337227
  0
LINE
  8
0
 10
-72.9229
 20
0.337227
 11
-72.8758
 21
0.411449
  0
LINE
  8
0
 10
-72.8758
 20
0.411449
 11
-72.8198
 21
0.479182
  0
LINE
  8
0
 10
-72.8198
 20
0.479182
 11
-72.7557
 21
0.539359
  0
LINE
  8
0
 10
-72.7557
 20
0.539359
 11
-72.6846
 21
0.591029
  0
LINE
  8
0
 10
-72.6846
 20
0.591029
 11
-72.6076
 21
0.633378
  0
LINE
  8
0
 10
-72.6076
 20
0.633378
 11
-72.5258
 21
0.665739
  0
LINE
  8
0
 10
-72.5258
 20
0.665739
 11
-72.4407
 21
0.6876
  0
LINE
  8
0
 10
-72.4407
 20
0.6876
 11
-72.3535
 21
0.698618
  0
LINE
  8
0
 10
-72.3535
 20
0.698618
 11
-72.2656
 21
0.698618
  0
LINE
  8
0
 10
-72.2656
 20
0.698618
 11
-72.1784
 21
0.6876
  0
LINE
  8
0
 10
-72.1784
 20
0.6876
 11
-72.0932
 21
0.665739
  0
LINE
  8
0
 10
-72.0932
 20
0.665739
 11
-72.0115
 21
0.633378
  0
LINE
  8
0
 10
-72.0115
 20
0.633378
 11
-71.9344
 21
0.591029
  0
LINE
  8
0
 10
-71.9344
 20
0.591029
 11
-71.8633
 21
0.539359
  0
LINE
  8
0
 10
-71.8633
 20
0.539359
 11
-71.7992
 21
0.479182
  0
LINE
  8
0
 10
-71.7992
 20
0.479182
 11
-71.7432
 21
0.411449
  0
LINE
  8
0
 10
-71.7432
 20
0.411449
 11
-71.6961
 21
0.337227
  0
LINE
  8
0
 10
-71.6961
 20
0.337227
 11
-71.6587
 21
0.257687
  0
LINE
  8
0
 10
-71.6587
 20
0.257687
 11
-71.6315
 21
0.174083
  0
LINE
  8
0
 10
-71.6315
 20
0.174083
 11
-71.615
 21
0.0877323
  0
LINE
  8
0
 10
-71.615
 20
0.0877323
 11
-71.6095
 21
0
  0
LINE
  8
0
 10
-71.6095
 20
0
 11
-71.615
 21
-0.0877323
  0
LINE
  8
0
 10
-71.615
 20
-0.0877323
 11
-71.6315
 21
-0.174083
  0
LINE
  8
0
 10
-71.6315
 20
-0.174083
 11
-71.6587
 21
-0.257687
  0
LINE
  8
0
 10
-71.6587
 20
-0.257687
 11
-71.6961
 21
-0.337227
  0
LINE
  8
0
 10
-71.6961
 20
-0.337227
 11
-71.7432
 21
-0.411449
  0
LINE
  8
0
 10
-71.7432
 20
-0.411449
 11
-71.7992
 21
-0.479182
  0
LINE
  8
0
 10
-71.7992
 20
-0.479182
 11
-71.8633
 21
-0.539359
  0
LINE
  8
0
 10
-71.8633
 20
-0.539359
 11
-71.9344
 21
-0.591029
  0
LINE
  8
0
 10
-71.9344
 20
-0.591029
 11
-72.0115
 21
-0.633378
  0
LINE
  8
0
 10
-72.0115
 20
-0.633378
 11
-72.0932
 21
-0.665739
  0
LINE
  8
0
 10
-72.0932
 20
-0.665739
 11
-72.1784
 21
-0.6876
  0
LINE
  8
0
 10
-72.1784
 20
-0.6876
 11
-72.2656
 21
-0.698618
  0
LINE
  8
0
 10
-72.2656
 20
-0.698618
 11
-72.3535
 21
-0.698618
  0
LINE
  8
0
 10
-72.3535
 20
-0.698618
 11
-72.4407
 21
-0.6876
  0
LINE
  8
0
 10
-72.4407
 20
-0.6876
 11
-72.5258
 21
-0.665739
  0
LINE
  8
0
 10
-72.5258
 20
-0.665739
 11
-72.6076
 21
-0.633378
  0
LINE
  8
0
 10
-72.6076
 20
-0.633378
 11
-72.6846
 21
-0.591029
  0
LINE
  8
0
 10
-72.6846
 20
-0.591029
 11
-72.7557
 21
-0.539359
  0
LINE
  8
0
 10
-72.7557
 20
-0.539359
 11
-72.8198
 21
-0.479182
  0
LINE
  8
0
 10
-72.8198
 20
-0.479182
 11
-72.8758
 21
-0.411449
  0
LINE
  8
0
 10
-72.8758
 20
-0.411449
 11
-72.9229
 21
-0.337227
  0
LINE
  8
0
 10
-72.9229
 20
-0.337227
 11
-72.9604
 21
-0.257687
  0
LINE
  8
0
 10
-72.9604
 20
-0.257687
 11
-72.9875
 21
-0.174083
  0
LINE
  8
0
 10
-72.9875
 20
-0.174083
 11
-73.004
 21
-0.0877323
  0
LINE
  8
0
 10
-73.004
 20
-0.0877323
 11
-73.0095
 21
0
  0
LINE
  8
0
 10
-68.3095
 20
0
 11
-67.7709
 21
8.56145
  0
LINE
  8
0
 10
-67.7709
 20
8.56145
 11
-66.1634
 21
16.9879
  0
LINE
  8
0
 10
-66.1634
 20
16.9879
 11
-63.5126
 21
25.1464
  0
LINE
  8
0
 10
-63.5126
 20
25.1464
 11
-59.8601
 21
32.9084
  0
LINE
  8
0
 10
-59.8601
 20
32.9084
 11
-55.2636
 21
40.1513
  0
LINE
  8
0
 10
-55.2636
 20
40.1513
 11
-49.7955
 21
46.7611
  0
LINE
  8
0
 10
-49.7955
 20
46.7611
 11
-43.5421
 21
52.6334
  0
LINE
  8
0
 10
-43.5421
 20
52.6334
 11
-36.6021
 21
57.6756
  0
LINE
  8
0
 10
-36.6021
 20
57.6756
 11
-29.0848
 21
61.8083
  0
LINE
  8
0
 10
-29.0848
 20
61.8083
 11
-21.1088
 21
64.9662
  0
LINE
  8
0
 10
-21.1088
 20
64.9662
 11
-12.7999
 21
67.0996
  0
LINE
  8
0
 10
-12.7999
 20
67.0996
 11
-4.28919
 21
68.1747
  0
LINE
  8
0
 10
-4.28919
 20
68.1747
 11
4.28919
 21
68.1747
  0
LINE
  8
0
 10
4.28919
 20
68.1747
 11
12.7999
 21
67.0996
  0
LINE
  8
0
 10
12.7999
 20
67.0996
 11
21.1088
 21
64.9662
  0
LINE
  8
0
 10
21.1088
 20
64.9662
 11
29.0848
 21
61.8083
  0
LINE
  8
0
 10
29.0848
 20
61.8083
 11
36.6021
 21
57.6756
  0
LINE
  8
0
 10
36.6021
 20
57.6756
 11
43.5421
 21
52.6334
  0
LINE
  8
0
 10
43.5421
 20
52.6334
 11
49.7955
 21
46.7611
  0
LINE
  8
0
 10
49.7955
 20
46.7611
 11
55.2636
 21
40.1513
  0
LINE
  8
0
 10
55.2636
 20
40.1513
 11
59.8601
 21
32.9084
  0
LINE
  8
0
 10
59.8601
 20
32.9084
 11
63.5126
 21
25.1464
  0
LINE
  8
0
 10
63.5126
 20
25.1464
 11
66.1634
 21
16.9879
  0
LINE
  8
0
 10
66.1634
 20
16.9879
 11
67.7709
 21
8.56145
  0
LINE
  8
0
 10
67.7709
 20
8.56145
 11
68.3095
 21
0
  0
LINE
  8
0
 10
68.3095
 20
0
 11
67.7709
 21
-8.56145
  0
LINE
  8
0
 10
67.7709
 20
-8.56145
 11
66.1634
 21
-16.9879
  0
LINE
  8
0
 10
66.1634
 20
-16.9879
 11
63.5126
 21
-25.1464
  0
LINE
  8
0
 10
63.5126
 20
-25.1464
 11
59.8601
 21
-32.9084
  0
LINE
  8
0
 10
59.8601
 20
-32.9084
 11
55.2636
 21
-40.1513
  0
LINE
  8
0
 10
55.2636
 20
-40.1513
 11
49.7955
 21
-46.7611
  0
LINE
  8
0
 10
49.7955
 20
-46.7611
 11
43.5421
 21
-52.6334
  0
LINE
  8
0
 10
43.5421
 20
-52.6334
 11
36.6021
 21
-57.6756
  0
LINE
  8
0
 10
36.6021
 20
-57.6756
 11
29.0848
 21
-61.8083
  0
LINE
  8
0
 10
29.0848
 20
-61.8083
 11
21.1088
 21
-64.9662
  0
LINE
  8
0
 10
21.1088
 20
-64.9662
 11
12.7999
 21
-67.0996
  0
LINE
  8
0
 10
12.7999
 20
-67.0996
 11
4.28919
 21
-68.1747
  0
LINE
  8
0
 10
4.28919
 20
-68.1747
 11
-4.28919
 21
-68.1747
  0
LINE
  8
0
 10
-4.28919
 20
-68.1747
 11
-12.7999
 21
-67.0996
  0
LINE
  8
0
 10
-12.7999
 20
-67.0996
 11
-21.1088
 21
-64.9662
  0
LINE
  8
0
 10
-21.1088
 20
-64.9662
 11
-29.0848
 21
-61.8083
  0
LINE
  8
0
 10
-29.0848
 20
-61.8083
 11
-36.6021
 21
-57.6756
  0
LINE
  8
0
 10
-36.6021
 20
-57.6756
 11
-43.5421
 21
-52.6334
  0
LINE
  8
0
 10
-43.5421
 20
-52.6334
 11
-49.7955
 21
-46.7611
  0
LINE
  8
0
 10
-49.7955
 20
-46.7611
 11
-55.2636
 21
-40.1513
  0
LINE
  8
0
 10
-55.2636
 20
-40.1513
 11
-59.8601
 21
-32.9084
  0
LINE
  8
0
 10
-59.8601
 20
-32.9084
 11
-63.5126
 21
-25.1464
  0
LINE
  8
0
 10
-63.5126
 20
-25.1464
 11
-66.1634
 21
-16.9879
  0
LINE
  8
0
 10
-66.1634
 20
-16.9879
 11
-67.7709
 21
-8.56145
  0
LINE
  8
0
 10
-67.7709
 20
-8.56145
 11
-68.3095
 21
0
  0
LINE
  8
0
 10
-36.8541
 20
-62.6512
 11
-36.8523
 21
-62.5633
  0
LINE
  8
0
 10
-36.8523
 20
-62.5633
 11
-36.8395
 21
-62.4763
  0
LINE
  8
0
 10
-36.8395
 20
-62.4763
 11
-36.8158
 21
-62.3917
  0
LINE
  8
0
 10
-36.8158
 20
-62.3917
 11
-36.7818
 21
-62.3106
  0
LINE
  8
0
 10
-36.7818
 20
-62.3106
 11
-36.7378
 21
-62.2345
  0
LINE
  8
0
 10
-36.7378
 20
-62.2345
 11
-36.6847
 21
-62.1645
  0
LINE
  8
0
 10
-36.6847
 20
-62.1645
 11
-36.6232
 21
-62.1017
  0
LINE
  8
0
 10
-36.6232
 20
-62.1017
 11
-36.5543
 21
-62.0471
  0
LINE
  8
0
 10
-36.5543
 20
-62.0471
 11
-36.4791
 21
-62.0015
  0
LINE
  8
0
 10
-36.4791
 20
-62.0015
 11
-36.3988
 21
-61.9658
  0
LINE
  8
0
 10
-36.3988
 20
-61.9658
 11
-36.3146
 21
-61.9404
  0
LINE
  8
0
 10
-36.3146
 20
-61.9404
 11
-36.2279
 21
-61.9257
  0
LINE
  8
0
 10
-36.2279
 20
-61.9257
 11
-36.1401
 21
-61.922
  0
LINE
  8
0
 10
-36.1401
 20
-61.922
 11
-36.0525
 21
-61.9294
  0
LINE
  8
0
 10
-36.0525
 20
-61.9294
 11
-35.9665
 21
-61.9477
  0
LINE
  8
0
 10
-35.9665
 20
-61.9477
 11
-35.8835
 21
-61.9766
  0
LINE
  8
0
 10
-35.8835
 20
-61.9766
 11
-35.8048
 21
-62.0157
  0
LINE
  8
0
 10
-35.8048
 20
-62.0157
 11
-35.7315
 21
-62.0643
  0
LINE
  8
0
 10
-35.7315
 20
-62.0643
 11
-35.665
 21
-62.1217
  0
LINE
  8
0
 10
-35.665
 20
-62.1217
 11
-35.6062
 21
-62.1871
  0
LINE
  8
0
 10
-35.6062
 20
-62.1871
 11
-35.556
 21
-62.2593
  0
LINE
  8
0
 10
-35.556
 20
-62.2593
 11
-35.5153
 21
-62.3372
  0
LINE
  8
0
 10
-35.5153
 20
-62.3372
 11
-35.4846
 21
-62.4196
  0
LINE
  8
0
 10
-35.4846
 20
-62.4196
 11
-35.4646
 21
-62.5051
  0
LINE
  8
0
 10
-35.4646
 20
-62.5051
 11
-35.4554
 21
-62.5926
  0
LINE
  8
0
 10
-35.4554
 20
-62.5926
 11
-35.4572
 21
-62.6805
  0
LINE
  8
0
 10
-35.4572
 20
-62.6805
 11
-35.4701
 21
-62.7674
  0
LINE
  8
0
 10
-35.4701
 20
-62.7674
 11
-35.4937
 21
-62.8521
  0
LINE
  8
0
 10
-35.4937
 20
-62.8521
 11
-35.5278
 21
-62.9331
  0
LINE
  8
0
 10
-35.5278
 20
-62.9331
 11
-35.5717
 21
-63.0093
  0
LINE
  8
0
 10
-35.5717
 20
-63.0093
 11
-35.6249
 21
-63.0793
  0
LINE
  8
0
 10
-35.6249
 20
-63.0793
 11
-35.6864
 21
-63.1421
  0
LINE
  8
0
 10
-35.6864
 20
-63.1421
 11
-35.7553
 21
-63.1967
  0
LINE
  8
0
 10
-35.7553
 20
-63.1967
 11
-35.8305
 21
-63.2422
  0
LINE
  8
0
 10
-35.8305
 20
-63.2422
 11
-35.9108
 21
-63.278
  0
LINE
  8
0
 10
-35.9108
 20
-63.278
 11
-35.9949
 21
-63.3034
  0
LINE
  8
0
 10
-35.9949
 20
-63.3034
 11
-36.0816
 21
-63.318
  0
LINE
  8
0
 10
-36.0816
 20
-63.318
 11
-36.1694
 21
-63.3217
  0
LINE
  8
0
 10
-36.1694
 20
-63.3217
 11
-36.257
 21
-63.3144
  0
LINE
  8
0
 10
-36.257
 20
-63.3144
 11
-36.343
 21
-63.2961
  0
LINE
  8
0
 10
-36.343
 20
-63.2961
 11
-36.426
 21
-63.2672
  0
LINE
  8
0
 10
-36.426
 20
-63.2672
 11
-36.5048
 21
-63.2281
  0
LINE
  8
0
 10
-36.5048
 20
-63.2281
 11
-36.578
 21
-63.1795
  0
LINE
  8
0
 10
-36.578
 20
-63.1795
 11
-36.6445
 21
-63.122
  0
LINE
  8
0
 10
-36.6445
 20
-63.122
 11
-36.7033
 21
-63.0567
  0
LINE
  8
0
 10
-36.7033
 20
-63.0567
 11
-36.7535
 21
-62.9845
  0
LINE
  8
0
 10
-36.7535
 20
-62.9845
 11
-36.7942
 21
-62.9066
  0
LINE
  8
0
 10
-36.7942
 20
-62.9066
 11
-36.8249
 21
-62.8242
  0
LINE
  8
0
 10
-36.8249
 20
-62.8242
 11
-36.845
 21
-62.7386
  0
LINE
  8
0
 10
-36.845
 20
-62.7386
 11
-36.8541
 21
-62.6512
  0
LINE
  8
0
 10
-36.8541
 20
62.6512
 11
-36.845
 21
62.7386
  0
LINE
  8
0
 10
-36.845
 20
62.7386
 11
-36.8249
 21
62.8242
  0
LINE
  8
0
 10
-36.8249
 20
62.8242
 11
-36.7942
 21
62.9066
  0
LINE
  8
0
 10
-36.7942
 20
62.9066
 11
-36.7535
 21
62.9845
  0
LINE
  8
0
 10
-36.7535
 20
62.9845
 11
-36.7033
 21
63.0567
  0
LINE
  8
0
 10
-36.7033
 20
63.0567
 11
-36.6445
 21
63.122
  0
LINE
  8
0
 10
-36.6445
 20
63.122
 11
-36.578
 21
63.1795
  0
LINE
  8
0
 10
-36.578
 20
63.1795
 11
-36.5048
 21
63.2281
  0
LINE
  8
0
 10
-36.5048
 20
63.2281
 11
-36.426
 21
63.2672
  0
LINE
  8
0
 10
-36.426
 20
63.2672
 11
-36.343
 21
63.2961
  0
LINE
  8
0
 10
-36.343
 20
63.2961
 11
-36.257
 21
63.3144
  0
LINE
  8
0
 10
-36.257
 20
63.3144
 11
-36.1694
 21
63.3217
  0
LINE
  8
0
 10
-36.1694
 20
63.3217
 11
-36.0816
 21
63.318
  0
LINE
  8
0
 10
-36.0816
 20
63.318
 11
-35.9949
 21
63.3034
  0
LINE
  8
0
 10
-35.9949
 20
63.3034
 11
-35.9108
 21
63.278
  0
LINE
  8
0
 10
-35.9108
 20
63.278
 11
-35.8305
 21
63.2422
  0
LINE
  8
0
 10
-35.8305
 20
63.2422
 11
-35.7553
 21
63.1967
  0
LINE
  8
0
 10
-35.7553
 20
63.1967
 11
-35.6864
 21
63.1421
  0
LINE
  8
0
 10
-35.6864
 20
63.1421
 11
-35.6249
 21
63.0793
  0
LINE
  8
0
 10
-35.6249
 20
63.0793
 11
-35.5717
 21
63.0093
  0
LINE
  8
0
 10
-35.5717
 20
63.0093
 11
-35.5278
 21
62.9331
  0
LINE
  8
0
 10
-35.5278
 20
62.9331
 11
-35.4937
 21
62.8521
  0
LINE
  8
0
 10
-35.4937
 20
62.8521
 11
-35.4701
 21
62.7674
  0
LINE
  8
0
 10
-35.4701
 20
62.7674
 11
-35.4572
 21
62.6805
  0
LINE
  8
0
 10
-35.4572
 20
62.6805
 11
-35.4554
 21
62.5926
  0
LINE
  8
0
 10
-35.4554
 20
62.5926
 11
-35.4646
 21
62.5051
  0
LINE
  8
0
 10
-35.4646
 20
62.5051
 11
-35.4846
 21
62.4196
  0
LINE
  8
0
 10
-35.4846
 20
62.4196
 11
-35.5153
 21
62.3372
  0
LINE
  8
0
 10
-35.5153
 20
62.3372
 11
-35.556
 21
62.2593
  0
LINE
  8
0
 10
-35.556
 20
62.2593
 11
-35.6062
 21
62.1871
  0
LINE
  8
0
 10
-35.6062
 20
62.1871
 11
-35.665
 21
62.1217
  0
LINE
  8
0
 10
-35.665
 20
62.1217
 11
-35.7315
 21
62.0643
  0
LINE
  8
0
 10
-35.7315
 20
62.0643
 11
-35.8048
 21
62.0157
  0
LINE
  8
0
 10
-35.8048
 20
62.0157
 11
-35.8835
 21
61.9766
  0
LINE
  8
0
 10
-35.8835
 20
61.9766
 11
-35.9665
 21
61.9477
  0
LINE
  8
0
 10
-35.9665
 20
61.9477
 11
-36.0525
 21
61.9294
  0
LINE
  8
0
 10
-36.0525
 20
61.9294
 11
-36.1401
 21
61.922
  0
LINE
  8
0
 10
-36.1401
 20
61.922
 11
-36.2279
 21
61.9257
  0
LINE
  8
0
 10
-36.2279
 20
61.9257
 11
-36.3146
 21
61.9404
  0
LINE
  8
0
 10
-36.3146
 20
61.9404
 11
-36.3988
 21
61.9658
  0
LINE
  8
0
 10
-36.3988
 20
61.9658
 11
-36.4791
 21
62.0015
  0
LINE
  8
0
 10
-36.4791
 20
62.0015
 11
-36.5543
 21
62.0471
  0
LINE
  8
0
 10
-36.5543
 20
62.0471
 11
-36.6232
 21
62.1017
  0
LINE
  8
0
 10
-36.6232
 20
62.1017
 11
-36.6847
 21
62.1645
  0
LINE
  8
0
 10
-36.6847
 20
62.1645
 11
-36.7378
 21
62.2345
  0
LINE
  8
0
 10
-36.7378
 20
62.2345
 11
-36.7818
 21
62.3106
  0
LINE
  8
0
 10
-36.7818
 20
62.3106
 11
-36.8158
 21
62.3917
  0
LINE
  8
0
 10
-36.8158
 20
62.3917
 11
-36.8395
 21
62.4763
  0
LINE
  8
0
 10
-36.8395
 20
62.4763
 11
-36.8523
 21
62.5633
  0
LINE
  8
0
 10
-36.8523
 20
62.5633
 11
-36.8541
 21
62.6512
  0
LINE
  8
0
 10
35.4554
 20
-62.5926
 11
35.4646
 21
-62.5051
  0
LINE
  8
0
 10
35.4646
 20
-62.5051
 11
35.4846
 21
-62.4196
  0
LINE
  8
0
 10
35.4846
 20
-62.4196
 11
35.5153
 21
-62.3372
  0
LINE
  8
0
 10
35.5153
 20
-62.3372
 11
35.556
 21
-62.2593
  0
LINE
  8
0
 10
35.556
 20
-62.2593
 11
35.6062
 21
-62.1871
  0
LINE
  8
0
 10
35.6062
 20
-62.1871
 11
35.665
 21
-62.1217
  0
LINE
  8
0
 10
35.665
 20
-62.1217
 11
35.7315
 21
-62.0643
  0
LINE
  8
0
 10
35.7315
 20
-62.0643
 11
35.8048
 21
-62.0157
  0
LINE
  8
0
 10
35.8048
 20
-62.0157
 11
35.8835
 21
-61.9766
  0
LINE
  8
0
 10
35.8835
 20
-61.9766
 11
35.9665
 21
-61.9477
  0
LINE
  8
0
 10
35.9665
 20
-61.9477
 11
36.0525
 21
-61.9294
  0
LINE
  8
0
 10
36.0525
 20
-61.9294
 11
36.1401
 21
-61.922
  0
LINE
  8
0
 10
36.1401
 20
-61.922
 11
36.2279
 21
-61.9257
  0
LINE
  8
0
 10
36.2279
 20
-61.9257
 11
36.3146
 21
-61.9404
  0
LINE
  8
0
 10
36.3146
 20
-61.9404
 11
36.3988
 21
-61.9658
  0
LINE
  8
0
 10
36.3988
 20
-61.9658
 11
36.4791
 21
-62.0015
  0
LINE
  8
0
 10
36.4791
 20
-62.0015
 11
36.5543
 21
-62.0471
  0
LINE
  8
0
 10
36.5543
 20
-62.0471
 11
36.6232
 21
-62.1017
  0
LINE
  8
0
 10
36.6232
 20
-62.1017
 11
36.6847
 21
-62.1645
  0
LINE
  8
0
 10
36.6847
 20
-62.1645
 11
36.7378
 21
-62.2345
  0
LINE
  8
0
 10
36.7378
 20
-62.2345
 11
36.7818
 21
-62.3106
  0
LINE
  8
0
 10
36.7818
 20
-62.3106
 11
36.8158
 21
-62.3917
  0
LINE
  8
0
 10
36.8158
 20
-62.3917
 11
36.8395
 21
-62.4763
  0
LINE
  8
0
 10
36.8395
 20
-62.4763
 11
36.8523
 21
-62.5633
  0
LINE
  8
0
 10
36.8523
 20
-62.5633
 11
36.8541
 21
-62.6512
  0
LINE
  8
0
 10
36.8541
 20
-62.6512
 11
36.845
 21
-62.7386
  0
LINE
  8
0
 10
36.845
 20
-62.7386
 11
36.8249
 21
-62.8242
  0
LINE
  8
0
 10
36.8249
 20
-62.8242
 11
36.7942
 21
-62.9066
  0
LINE
  8
0
 10
36.7942
 20
-62.9066
 11
36.7535
 21
-62.9845
  0
LINE
  8
0
 10
36.7535
 20
-62.9845
 11
36.7033
 21
-63.0567
  0
LINE
  8
0
 10
36.7033
 20
-63.0567
 11
36.6445
 21
-63.122
  0
LINE
  8
0
 10
36.6445
 20
-63.122
 11
36.578
 21
-63.1795
  0
LINE
  8
0
 10
36.578
 20
-63.1795
 11
36.5048
 21
-63.2281
  0
LINE
  8
0
 10
36.5048
 20
-63.2281
 11
36.426
 21
-63.2672
  0
LINE
  8
0
 10
36.426
 20
-63.2672
 11
36.343
 21
-63.2961
  0
LINE
  8
0
 10
36.343
 20
-63.2961
 11
36.257
 21
-63.3144
  0
LINE
  8
0
 10
36.257
 20
-63.3144
 11
36.1694
 21
-63.3217
  0
LINE
  8
0
 10
36.1694
 20
-63.3217
 11
36.0816
 21
-63.318
  0
LINE
  8
0
 10
36.0816
 20
-63.318
 11
35.9949
 21
-63.3034
  0
LINE
  8
0
 10
35.9949
 20
-63.3034
 11
35.9108
 21
-63.278
  0
LINE
  8
0
 10
35.9108
 20
-63.278
 11
35.8305
 21
-63.2422
  0
LINE
  8
0
 10
35.8305
 20
-63.2422
 11
35.7553
 21
-63.1967
  0
LINE
  8
0
 10
35.7553
 20
-63.1967
 11
35.6864
 21
-63.1421
  0
LINE
  8
0
 10
35.6864
 20
-63.1421
 11
35.6249
 21
-63.0793
  0
LINE
  8
0
 10
35.6249
 20
-63.0793
 11
35.5717
 21
-63.0093
  0
LINE
  8
0
 10
35.5717
 20
-63.0093
 11
35.5278
 21
-62.9331
  0
LINE
  8
0
 10
35.5278
 20
-62.9331
 11
35.4937
 21
-62.8521
  0
LINE
  8
0
 10
35.4937
 20
-62.8521
 11
35.4701
 21
-62.7674
  0
LINE
  8
0
 10
35.4701
 20
-62.7674
 11
35.4572
 21
-62.6805
  0
LINE
  8
0
 10
35.4572
 20
-62.6805
 11
35.4554
 21
-62.5926
  0
LINE
  8
0
 10
35.4554
 20
62.5926
 11
35.4572
 21
62.6805
  0
LINE
  8
0
 10
35.4572
 20
62.6805
 11
35.4701
 21
62.7674
  0
LINE
  8
0
 10
35.4701
 20
62.7674
 11
35.4937
 21
62.8521
  0
LINE
  8
0
 10
35.4937
 20
62.8521
 11
35.5278
 21
62.9331
  0
LINE
  8
0
 10
35.5278
 20
62.9331
 11
35.5717
 21
63.0093
  0
LINE
  8
0
 10
35.5717
 20
63.0093
 11
35.6249
 21
63.0793
  0
LINE
  8
0
 10
35.6249
 20
63.0793
 11
35.6864
 21
63.1421
  0
LINE
  8
0
 10
35.6864
 20
63.1421
 11
35.7553
 21
63.1967
  0
LINE
  8
0
 10
35.7553
 20
63.1967
 11
35.8305
 21
63.2422
  0
LINE
  8
0
 10
35.8305
 20
63.2422
 11
35.9108
 21
63.278
  0
LINE
  8
0
 10
35.9108
 20
63.278
 11
35.9949
 21
63.3034
  0
LINE
  8
0
 10
35.9949
 20
63.3034
 11
36.0816
 21
63.318
  0
LINE
  8
0
 10
36.0816
 20
63.318
 11
36.1694
 21
63.3217
  0
LINE
  8
0
 10
36.1694
 20
63.3217
 11
36.257
 21
63.3144
  0
LINE
  8
0
 10
36.257
 20
63.3144
 11
36.343
 21
63.2961
  0
LINE
  8
0
 10
36.343
 20
63.2961
 11
36.426
 21
63.2672
  0
LINE
  8
0
 10
36.426
 20
63.2672
 11
36.5048
 21
63.2281
  0
LINE
  8
0
 10
36.5048
 20
63.2281
 11
36.578
 21
63.1795
  0
LINE
  8
0
 10
36.578
 20
63.1795
 11
36.6445
 21
63.122
  0
LINE
  8
0
 10
36.6445
 20
63.122
 11
36.7033
 21
63.0567
  0
LINE
  8
0
 10
36.7033
 20
63.0567
 11
36.7535
 21
62.9845
  0
LINE
  8
0
 10
36.7535
 20
62.9845
 11
36.7942
 21
62.9066
  0
LINE
  8
0
 10
36.7942
 20
62.9066
 11
36.8249
 21
62.8242
  0
LINE
  8
0
 10
36.8249
 20
62.8242
 11
36.845
 21
62.7386
  0
LINE
  8
0
 10
36.845
 20
62.7386
 11
36.8541
 21
62.6512
  0
LINE
  8
0
 10
36.8541
 20
62.6512
 11
36.8523
 21
62.5633
  0
LINE
  8
0
 10
36.8523
 20
62.5633
 11
36.8395
 21
62.4763
  0
LINE
  8
0
 10
36.8395
 20
62.4763
 11
36.8158
 21
62.3917
  0
LINE
  8
0
 10
36.8158
 20
62.3917
 11
36.7818
 21
62.3106
  0
LINE
  8
0
 10
36.7818
 20
62.3106
 11
36.7378
 21
62.2345
  0
LINE
  8
0
 10
36.7378
 20
62.2345
 11
36.6847
 21
62.1645
  0
LINE
  8
0
 10
36.6847
 20
62.1645
 11
36.6232
 21
62.1017
  0
LINE
  8
0
 10
36.6232
 20
62.1017
 11
36.5543
 21
62.0471
  0
LINE
  8
0
 10
36.5543
 20
62.0471
 11
36.4791
 21
62.0015
  0
LINE
  8
0
 10
36.4791
 20
62.0015
 11
36.3988
 21
61.9658
  0
LINE
  8
0
 10
36.3988
 20
61.9658
 11
36.3146
 21
61.9404
  0
LINE
  8
0
 10
36.3146
 20
61.9404
 11
36.2279
 21
61.9257
  0
LINE
  8
0
 10
36.2279
 20
61.9257
 11
36.1401
 21
61.922
  0
LINE
  8
0
 10
36.1401
 20
61.922
 11
36.0525
 21
61.9294
  0
LINE
  8
0
 10
36.0525
 20
61.9294
 11
35.9665
 21
61.9477
  0
LINE
  8
0
 10
35.9665
 20
61.9477
 11
35.8835
 21
61.9766
  0
LINE
  8
0
 10
35.8835
 20
61.9766
 11
35.8048
 21
62.0157
  0
LINE
  8
0
 10
35.8048
 20
62.0157
 11
35.7315
 21
62.0643
  0
LINE
  8
0
 10
35.7315
 20
62.0643
 11
35.665
 21
62.1217
  0
LINE
  8
0
 10
35.665
 20
62.1217
 11
35.6062
 21
62.1871
  0
LINE
  8
0
 10
35.6062
 20
62.1871
 11
35.556
 21
62.2593
  0
LINE
  8
0
 10
35.556
 20
62.2593
 11
35.5153
 21
62.3372
  0
LINE
  8
0
 10
35.5153
 20
62.3372
 11
35.4846
 21
62.4196
  0
LINE
  8
0
 10
35.4846
 20
62.4196
 11
35.4646
 21
62.5051
  0
LINE
  8
0
 10
35.4646
 20
62.5051
 11
35.4554
 21
62.5926
  0
LINE
  8
0
 10
71.6095
 20
0
 11
71.615
 21
0.0877323
  0
LINE
  8
0
 10
71.615
 20
0.0877323
 11
71.6315
 21
0.174083
  0
LINE
  8
0
 10
71.6315
 20
0.174083
 11
71.6587
 21
0.257687
  0
LINE
  8
0
 10
71.6587
 20
0.257687
 11
71.6961
 21
0.337227
  0
LINE
  8
0
 10
71.6961
 20
0.337227
 11
71.7432
 21
0.411449
  0
LINE
  8
0
 10
71.7432
 20
0.411449
 11
71.7992
 21
0.479182
  0
LINE
  8
0
 10
71.7992
 20
0.479182
 11
71.8633
 21
0.539359
  0
LINE
  8
0
 10
71.8633
 20
0.539359
 11
71.9344
 21
0.591029
  0
LINE
  8
0
 10
71.9344
 20
0.591029
 11
72.0115
 21
0.633378
  0
LINE
  8
0
 10
72.0115
 20
0.633378
 11
72.0932
 21
0.665739
  0
LINE
  8
0
 10
72.0932
 20
0.665739
 11
72.1784
 21
0.6876
  0
LINE
  8
0
 10
72.1784
 20
0.6876
 11
72.2656
 21
0.698618
  0
LINE
  8
0
 10
72.2656
 20
0.698618
 11
72.3535
 21
0.698618
  0
LINE
  8
0
 10
72.3535
 20
0.698618
 11
72.4407
 21
0.6876
  0
LINE
  8
0
 10
72.4407
 20
0.6876
 11
72.5258
 21
0.665739
  0
LINE
  8
0
 10
72.5258
 20
0.665739
 11
72.6076
 21
0.633378
  0
LINE
  8
0
 10
72.6076
 20
0.633378
 11
72.6846
 21
0.591029
  0
LINE
  8
0
 10
72.6846
 20
0.591029
 11
72.7557
 21
0.539359
  0
LINE
  8
0
 10
72.7557
 20
0.539359
 11
72.8198
 21
0.479182
  0
LINE
  8
0
 10
72.8198
 20
0.479182
 11
72.8758
 21
0.411449
  0
LINE
  8
0
 10
72.8758
 20
0.411449
 11
72.9229
 21
0.337227
  0
LINE
  8
0
 10
72.9229
 20
0.337227
 11
72.9604
 21
0.257687
  0
LINE
  8
0
 10
72.9604
 20
0.257687
 11
72.9875
 21
0.174083
  0
LINE
  8
0
 10
72.9875
 20
0.174083
 11
73.004
 21
0.0877323
  0
LINE
  8
0
 10
73.004
 20
0.0877323
 11
73.0095
 21
0
  0
LINE
  8
0
 10
73.0095
 20
0
 11
73.004
 21
-0.0877323
  0
LINE
  8
0
 10
73.004
 20
-0.0877323
 11
72.9875
 21
-0.174083
  0
LINE
  8
0
 10
72.9875
 20
-0.174083
 11
72.9604
 21
-0.257687
  0
LINE
  8
0
 10
72.9604
 20
-0.257687
 11
72.9229
 21
-0.337227
  0
LINE
  8
0
 10
72.9229
 20
-0.337227
 11
72.8758
 21
-0.411449
  0
LINE
  8
0
 10
72.8758
 20
-0.411449
 11
72.8198
 21
-0.479182
  0
LINE
  8
0
 10
72.8198
 20
-0.479182
 11
72.7557
 21
-0.539359
  0
LINE
  8
0
 10
72.7557
 20
-0.539359
 11
72.6846
 21
-0.591029
  0
LINE
  8
0
 10
72.6846
 20
-0.591029
 11
72.6076
 21
-0.633378
  0
LINE
  8
0
 10
72.6076
 20
-0.633378
 11
72.5258
 21
-0.665739
  0
LINE
  8
0
 10
72.5258
 20
-0.665739
 11
72.4407
 21
-0.6876
  0
LINE
  8
0
 10
72.4407
 20
-0.6876
 11
72.3535
 21
-0.698618
  0
LINE
  8
0
 10
72.3535
 20
-0.698618
 11
72.2656
 21
-0.698618
  0
LINE
  8
0
 10
72.2656
 20
-0.698618
 11
72.1784
 21
-0.6876
  0
LINE
  8
0
 10
72.1784
 20
-0.6876
 11
72.0932
 21
-0.665739
  0
LINE
  8
0
 10
72.0932
 20
-0.665739
 11
72.0115
 21
-0.633378
  0
LINE
  8
0
 10
72.0115
 20
-0.633378
 11
71.9344
 21
-0.591029
  0
LINE
  8
0
 10
71.9344
 20
-0.591029
 11
71.8633
 21
-0.539359
  0
LINE
  8
0
 10
71.8633
 20
-0.539359
 11
71.7992
 21
-0.479182
  0
LINE
  8
0
 10
71.7992
 20
-0.479182
 11
71.7432
 21
-0.411449
  0
LINE
  8
0
 10
71.7432
 20
-0.411449
 11
71.6961
 21
-0.337227
  0
LINE
  8
0
 10
71.6961
 20
-0.337227
 11
71.6587
 21
-0.257687
  0
LINE
  8
0
 10
71.6587
 20
-0.257687
 11
71.6315
 21
-0.174083
  0
LINE
  8
0
 10
71.6315
 20
-0.174083
 11
71.615
 21
-0.0877323
  0
LINE
  8
0
 10
71.615
 20
-0.0877323
 11
71.6095
 21
0
  0
ENDSEC
  0
SECTION
  2
OBJECTS
  0
DICTIONARY
  0
ENDSEC
  0
EOF
