  0
SECTION
  2
BLOCKS
  0
ENDSEC
  0
SECTION
  2
ENTITIES
  0
LINE
  8
0
 10
66.0816
 20
38.1522
 11
65.4529
 21
39.2309
  0
LINE
  8
0
 10
65.4529
 20
39.2309
 11
64.4704
 21
40.8254
  0
LINE
  8
0
 10
64.4704
 20
40.8254
 11
63.449
 21
42.3953
  0
LINE
  8
0
 10
63.449
 20
42.3953
 11
62.3895
 21
43.9396
  0
LINE
  8
0
 10
62.3895
 20
43.9396
 11
61.2924
 21
45.4575
  0
LINE
  8
0
 10
61.2924
 20
45.4575
 11
60.1583
 21
46.948
  0
LINE
  8
0
 10
60.1583
 20
46.948
 11
58.9881
 21
48.4102
  0
LINE
  8
0
 10
58.9881
 20
48.4102
 11
57.7822
 21
49.8433
  0
LINE
  8
0
 10
57.7822
 20
49.8433
 11
56.5416
 21
51.2463
  0
LINE
  8
0
 10
56.5416
 20
51.2463
 11
55.2669
 21
52.6185
  0
LINE
  8
0
 10
55.2669
 20
52.6185
 11
53.959
 21
53.959
  0
LINE
  8
0
 10
53.959
 20
53.959
 11
52.6185
 21
55.2669
  0
LINE
  8
0
 10
52.6185
 20
55.2669
 11
51.2463
 21
56.5416
  0
LINE
  8
0
 10
51.2463
 20
56.5416
 11
49.8433
 21
57.7822
  0
LINE
  8
0
 10
49.8433
 20
57.7822
 11
48.4102
 21
58.9881
  0
LINE
  8
0
 10
48.4102
 20
58.9881
 11
46.948
 21
60.1583
  0
LINE
  8
0
 10
46.948
 20
60.1583
 11
45.4575
 21
61.2924
  0
LINE
  8
0
 10
45.4575
 20
61.2924
 11
43.9396
 21
62.3895
  0
LINE
  8
0
 10
43.9396
 20
62.3895
 11
42.3953
 21
63.449
  0
LINE
  8
0
 10
42.3953
 20
63.449
 11
40.8254
 21
64.4704
  0
LINE
  8
0
 10
40.8254
 20
64.4704
 11
39.2309
 21
65.4529
  0
LINE
  8
0
 10
39.2309
 20
65.4529
 11
37.6128
 21
66.3959
  0
LINE
  8
0
 10
37.6128
 20
66.3959
 11
35.972
 21
67.299
  0
LINE
  8
0
 10
35.972
 20
67.299
 11
34.3096
 21
68.1615
  0
LINE
  8
0
 10
34.3096
 20
68.1615
 11
32.6265
 21
68.983
  0
LINE
  8
0
 10
32.6265
 20
68.983
 11
30.9238
 21
69.7629
  0
LINE
  8
0
 10
30.9238
 20
69.7629
 11
29.2024
 21
70.5008
  0
LINE
  8
0
 10
29.2024
 20
70.5008
 11
27.4634
 21
71.1962
  0
LINE
  8
0
 10
27.4634
 20
71.1962
 11
25.7079
 21
71.8488
  0
LINE
  8
0
 10
25.7079
 20
71.8488
 11
23.9369
 21
72.458
  0
LINE
  8
0
 10
23.9369
 20
72.458
 11
22.1515
 21
73.0237
  0
LINE
  8
0
 10
22.1515
 20
73.0237
 11
20.3527
 21
73.5453
  0
LINE
  8
0
 10
20.3527
 20
73.5453
 11
18.5417
 21
74.0226
  0
LINE
  8
0
 10
18.5417
 20
74.0226
 11
16.7195
 21
74.4554
  0
LINE
  8
0
 10
16.7195
 20
74.4554
 11
14.8872
 21
74.8432
  0
LINE
  8
0
 10
14.8872
 20
74.8432
 11
13.046
 21
75.1861
  0
LINE
  8
0
 10
13.046
 20
75.1861
 11
11.1969
 21
75.4836
  0
LINE
  8
0
 10
11.1969
 20
75.4836
 11
9.34109
 21
75.7356
  0
LINE
  8
0
 10
9.34109
 20
75.7356
 11
7.47963
 21
75.9421
  0
LINE
  8
0
 10
7.47963
 20
75.9421
 11
5.61366
 21
76.1028
  0
LINE
  8
0
 10
5.61366
 20
76.1028
 11
3.74432
 21
76.2176
  0
LINE
  8
0
 10
3.74432
 20
76.2176
 11
1.87273
 21
76.2865
  0
LINE
  8
0
 10
1.87273
 20
76.2865
 11
0
 21
76.3095
  0
LINE
  8
0
 10
0
 20
76.3095
 11
-1.87273
 21
76.2865
  0
LINE
  8
0
 10
-1.87273
 20
76.2865
 11
-3.74432
 21
76.2176
  0
LINE
  8
0
 10
-3.74432
 20
76.2176
 11
-5.61366
 21
76.1028
  0
LINE
  8
0
 10
-5.61366
 20
76.1028
 11
-7.47963
 21
75.9421
  0
LINE
  8
0
 10
-7.47963
 20
75.9421
 11
-9.34109
 21
75.7356
  0
LINE
  8
0
 10
-9.34109
 20
75.7356
 11
-11.1969
 21
75.4836
  0
LINE
  8
0
 10
-11.1969
 20
75.4836
 11
-13.046
 21
75.1861
  0
LINE
  8
0
 10
-13.046
 20
75.1861
 11
-14.8872
 21
74.8432
  0
LINE
  8
0
 10
-14.8872
 20
74.8432
 11
-16.7195
 21
74.4554
  0
LINE
  8
0
 10
-16.7195
 20
74.4554
 11
-18.5417
 21
74.0226
  0
LINE
  8
0
 10
-18.5417
 20
74.0226
 11
-20.3527
 21
73.5453
  0
LINE
  8
0
 10
-20.3527
 20
73.5453
 11
-22.1515
 21
73.0237
  0
LINE
  8
0
 10
-22.1515
 20
73.0237
 11
-23.9369
 21
72.458
  0
LINE
  8
0
 10
-23.9369
 20
72.458
 11
-25.7079
 21
71.8488
  0
LINE
  8
0
 10
-25.7079
 20
71.8488
 11
-27.4634
 21
71.1962
  0
LINE
  8
0
 10
-27.4634
 20
71.1962
 11
-29.2024
 21
70.5008
  0
LINE
  8
0
 10
-29.2024
 20
70.5008
 11
-30.9238
 21
69.7629
  0
LINE
  8
0
 10
-30.9238
 20
69.7629
 11
-32.6265
 21
68.983
  0
LINE
  8
0
 10
-32.6265
 20
68.983
 11
-34.3096
 21
68.1615
  0
LINE
  8
0
 10
-34.3096
 20
68.1615
 11
-35.972
 21
67.299
  0
LINE
  8
0
 10
-35.972
 20
67.299
 11
-37.6128
 21
66.3959
  0
LINE
  8
0
 10
-37.6128
 20
66.3959
 11
-39.2309
 21
65.4529
  0
LINE
  8
0
 10
-39.2309
 20
65.4529
 11
-40.8254
 21
64.4704
  0
LINE
  8
0
 10
-40.8254
 20
64.4704
 11
-42.3953
 21
63.449
  0
LINE
  8
0
 10
-42.3953
 20
63.449
 11
-43.9396
 21
62.3895
  0
LINE
  8
0
 10
-43.9396
 20
62.3895
 11
-45.4575
 21
61.2924
  0
LINE
  8
0
 10
-45.4575
 20
61.2924
 11
-46.948
 21
60.1583
  0
LINE
  8
0
 10
-46.948
 20
60.1583
 11
-48.4102
 21
58.9881
  0
LINE
  8
0
 10
-48.4102
 20
58.9881
 11
-49.8433
 21
57.7822
  0
LINE
  8
0
 10
-49.8433
 20
57.7822
 11
-51.2463
 21
56.5416
  0
LINE
  8
0
 10
-51.2463
 20
56.5416
 11
-52.6185
 21
55.2669
  0
LINE
  8
0
 10
-52.6185
 20
55.2669
 11
-53.959
 21
53.959
  0
LINE
  8
0
 10
-53.959
 20
53.959
 11
-55.2669
 21
52.6185
  0
LINE
  8
0
 10
-55.2669
 20
52.6185
 11
-56.5416
 21
51.2463
  0
LINE
  8
0
 10
-56.5416
 20
51.2463
 11
-57.7822
 21
49.8433
  0
LINE
  8
0
 10
-57.7822
 20
49.8433
 11
-58.9881
 21
48.4102
  0
LINE
  8
0
 10
-58.9881
 20
48.4102
 11
-60.1583
 21
46.948
  0
LINE
  8
0
 10
-60.1583
 20
46.948
 11
-61.2924
 21
45.4575
  0
LINE
  8
0
 10
-61.2924
 20
45.4575
 11
-62.3895
 21
43.9396
  0
LINE
  8
0
 10
-62.3895
 20
43.9396
 11
-63.449
 21
42.3953
  0
LINE
  8
0
 10
-63.449
 20
42.3953
 11
-64.4704
 21
40.8254
  0
LINE
  8
0
 10
-64.4704
 20
40.8254
 11
-65.4529
 21
39.2309
  0
LINE
  8
0
 10
-65.4529
 20
39.2309
 11
-66.0816
 21
38.1522
  0
LINE
  8
0
 10
-66.0816
 20
38.1522
 11
-59.1538
 21
34.1525
  0
LINE
  8
0
 10
-59.1538
 20
34.1525
 11
-58.591
 21
35.1181
  0
LINE
  8
0
 10
-58.591
 20
35.1181
 11
-57.7115
 21
36.5454
  0
LINE
  8
0
 10
-57.7115
 20
36.5454
 11
-56.7973
 21
37.9507
  0
LINE
  8
0
 10
-56.7973
 20
37.9507
 11
-55.8488
 21
39.3332
  0
LINE
  8
0
 10
-55.8488
 20
39.3332
 11
-54.8667
 21
40.6919
  0
LINE
  8
0
 10
-54.8667
 20
40.6919
 11
-53.8516
 21
42.0262
  0
LINE
  8
0
 10
-53.8516
 20
42.0262
 11
-52.804
 21
43.3351
  0
LINE
  8
0
 10
-52.804
 20
43.3351
 11
-51.7246
 21
44.6179
  0
LINE
  8
0
 10
-51.7246
 20
44.6179
 11
-50.614
 21
45.8739
  0
LINE
  8
0
 10
-50.614
 20
45.8739
 11
-49.473
 21
47.1022
  0
LINE
  8
0
 10
-49.473
 20
47.1022
 11
-48.3021
 21
48.3021
  0
LINE
  8
0
 10
-48.3021
 20
48.3021
 11
-47.1022
 21
49.473
  0
LINE
  8
0
 10
-47.1022
 20
49.473
 11
-45.8739
 21
50.614
  0
LINE
  8
0
 10
-45.8739
 20
50.614
 11
-44.6179
 21
51.7246
  0
LINE
  8
0
 10
-44.6179
 20
51.7246
 11
-43.3351
 21
52.804
  0
LINE
  8
0
 10
-43.3351
 20
52.804
 11
-42.0262
 21
53.8516
  0
LINE
  8
0
 10
-42.0262
 20
53.8516
 11
-40.6919
 21
54.8667
  0
LINE
  8
0
 10
-40.6919
 20
54.8667
 11
-39.3332
 21
55.8488
  0
LINE
  8
0
 10
-39.3332
 20
55.8488
 11
-37.9507
 21
56.7973
  0
LINE
  8
0
 10
-37.9507
 20
56.7973
 11
-36.5454
 21
57.7115
  0
LINE
  8
0
 10
-36.5454
 20
57.7115
 11
-35.1181
 21
58.591
  0
LINE
  8
0
 10
-35.1181
 20
58.591
 11
-33.6696
 21
59.4352
  0
LINE
  8
0
 10
-33.6696
 20
59.4352
 11
-32.2009
 21
60.2436
  0
LINE
  8
0
 10
-32.2009
 20
60.2436
 11
-30.7127
 21
61.0157
  0
LINE
  8
0
 10
-30.7127
 20
61.0157
 11
-29.2061
 21
61.7511
  0
LINE
  8
0
 10
-29.2061
 20
61.7511
 11
-27.6818
 21
62.4492
  0
LINE
  8
0
 10
-27.6818
 20
62.4492
 11
-26.1409
 21
63.1098
  0
LINE
  8
0
 10
-26.1409
 20
63.1098
 11
-24.5842
 21
63.7323
  0
LINE
  8
0
 10
-24.5842
 20
63.7323
 11
-23.0128
 21
64.3164
  0
LINE
  8
0
 10
-23.0128
 20
64.3164
 11
-21.4274
 21
64.8618
  0
LINE
  8
0
 10
-21.4274
 20
64.8618
 11
-19.8292
 21
65.3681
  0
LINE
  8
0
 10
-19.8292
 20
65.3681
 11
-18.219
 21
65.8351
  0
LINE
  8
0
 10
-18.219
 20
65.8351
 11
-16.5979
 21
66.2624
  0
LINE
  8
0
 10
-16.5979
 20
66.2624
 11
-14.9667
 21
66.6497
  0
LINE
  8
0
 10
-14.9667
 20
66.6497
 11
-13.3265
 21
66.997
  0
LINE
  8
0
 10
-13.3265
 20
66.997
 11
-11.6783
 21
67.3038
  0
LINE
  8
0
 10
-11.6783
 20
67.3038
 11
-10.0231
 21
67.5702
  0
LINE
  8
0
 10
-10.0231
 20
67.5702
 11
-8.3618
 21
67.7958
  0
LINE
  8
0
 10
-8.3618
 20
67.7958
 11
-6.6955
 21
67.9806
  0
LINE
  8
0
 10
-6.6955
 20
67.9806
 11
-5.02515
 21
68.1244
  0
LINE
  8
0
 10
-5.02515
 20
68.1244
 11
-3.35178
 21
68.2272
  0
LINE
  8
0
 10
-3.35178
 20
68.2272
 11
-1.67639
 21
68.2889
  0
LINE
  8
0
 10
-1.67639
 20
68.2889
 11
0
 21
68.3095
  0
LINE
  8
0
 10
0
 20
68.3095
 11
1.67639
 21
68.2889
  0
LINE
  8
0
 10
1.67639
 20
68.2889
 11
3.35178
 21
68.2272
  0
LINE
  8
0
 10
3.35178
 20
68.2272
 11
5.02515
 21
68.1244
  0
LINE
  8
0
 10
5.02515
 20
68.1244
 11
6.6955
 21
67.9806
  0
LINE
  8
0
 10
6.6955
 20
67.9806
 11
8.3618
 21
67.7958
  0
LINE
  8
0
 10
8.3618
 20
67.7958
 11
10.0231
 21
67.5702
  0
LINE
  8
0
 10
10.0231
 20
67.5702
 11
11.6783
 21
67.3038
  0
LINE
  8
0
 10
11.6783
 20
67.3038
 11
13.3265
 21
66.997
  0
LINE
  8
0
 10
13.3265
 20
66.997
 11
14.9667
 21
66.6497
  0
LINE
  8
0
 10
14.9667
 20
66.6497
 11
16.5979
 21
66.2624
  0
LINE
  8
0
 10
16.5979
 20
66.2624
 11
18.219
 21
65.8351
  0
LINE
  8
0
 10
18.219
 20
65.8351
 11
19.8292
 21
65.3681
  0
LINE
  8
0
 10
19.8292
 20
65.3681
 11
21.4274
 21
64.8618
  0
LINE
  8
0
 10
21.4274
 20
64.8618
 11
23.0128
 21
64.3164
  0
LINE
  8
0
 10
23.0128
 20
64.3164
 11
24.5842
 21
63.7323
  0
LINE
  8
0
 10
24.5842
 20
63.7323
 11
26.1409
 21
63.1098
  0
LINE
  8
0
 10
26.1409
 20
63.1098
 11
27.6818
 21
62.4492
  0
LINE
  8
0
 10
27.6818
 20
62.4492
 11
29.2061
 21
61.7511
  0
LINE
  8
0
 10
29.2061
 20
61.7511
 11
30.7127
 21
61.0157
  0
LINE
  8
0
 10
30.7127
 20
61.0157
 11
32.2009
 21
60.2436
  0
LINE
  8
0
 10
32.2009
 20
60.2436
 11
33.6696
 21
59.4352
  0
LINE
  8
0
 10
33.6696
 20
59.4352
 11
35.1181
 21
58.591
  0
LINE
  8
0
 10
35.1181
 20
58.591
 11
36.5454
 21
57.7115
  0
LINE
  8
0
 10
36.5454
 20
57.7115
 11
37.9507
 21
56.7973
  0
LINE
  8
0
 10
37.9507
 20
56.7973
 11
39.3332
 21
55.8488
  0
LINE
  8
0
 10
39.3332
 20
55.8488
 11
40.6919
 21
54.8667
  0
LINE
  8
0
 10
40.6919
 20
54.8667
 11
42.0262
 21
53.8516
  0
LINE
  8
0
 10
42.0262
 20
53.8516
 11
43.3351
 21
52.804
  0
LINE
  8
0
 10
43.3351
 20
52.804
 11
44.6179
 21
51.7246
  0
LINE
  8
0
 10
44.6179
 20
51.7246
 11
45.8739
 21
50.614
  0
LINE
  8
0
 10
45.8739
 20
50.614
 11
47.1022
 21
49.473
  0
LINE
  8
0
 10
47.1022
 20
49.473
 11
48.3021
 21
48.3021
  0
LINE
  8
0
 10
48.3021
 20
48.3021
 11
49.473
 21
47.1022
  0
LINE
  8
0
 10
49.473
 20
47.1022
 11
50.614
 21
45.8739
  0
LINE
  8
0
 10
50.614
 20
45.8739
 11
51.7246
 21
44.6179
  0
LINE
  8
0
 10
51.7246
 20
44.6179
 11
52.804
 21
43.3351
  0
LINE
  8
0
 10
52.804
 20
43.3351
 11
53.8516
 21
42.0262
  0
LINE
  8
0
 10
53.8516
 20
42.0262
 11
54.8667
 21
40.6919
  0
LINE
  8
0
 10
54.8667
 20
40.6919
 11
55.8488
 21
39.3332
  0
LINE
  8
0
 10
55.8488
 20
39.3332
 11
56.7973
 21
37.9507
  0
LINE
  8
0
 10
56.7973
 20
37.9507
 11
57.7115
 21
36.5454
  0
LINE
  8
0
 10
57.7115
 20
36.5454
 11
58.591
 21
35.1181
  0
LINE
  8
0
 10
58.591
 20
35.1181
 11
59.1538
 21
34.1525
  0
LINE
  8
0
 10
59.1538
 20
34.1525
 11
66.0816
 21
38.1522
  0
LINE
  8
0
 10
-36.2279
 20
61.9257
 11
-36.3146
 21
61.9404
  0
LINE
  8
0
 10
-36.3146
 20
61.9404
 11
-36.3988
 21
61.9658
  0
LINE
  8
0
 10
-36.3988
 20
61.9658
 11
-36.4791
 21
62.0015
  0
LINE
  8
0
 10
-36.4791
 20
62.0015
 11
-36.5543
 21
62.0471
  0
LINE
  8
0
 10
-36.5543
 20
62.0471
 11
-36.6231
 21
62.1017
  0
LINE
  8
0
 10
-36.6231
 20
62.1017
 11
-36.6846
 21
62.1645
  0
LINE
  8
0
 10
-36.6846
 20
62.1645
 11
-36.7378
 21
62.2345
  0
LINE
  8
0
 10
-36.7378
 20
62.2345
 11
-36.7818
 21
62.3106
  0
LINE
  8
0
 10
-36.7818
 20
62.3106
 11
-36.8158
 21
62.3917
  0
LINE
  8
0
 10
-36.8158
 20
62.3917
 11
-36.8395
 21
62.4763
  0
LINE
  8
0
 10
-36.8395
 20
62.4763
 11
-36.8523
 21
62.5633
  0
LINE
  8
0
 10
-36.8523
 20
62.5633
 11
-36.8541
 21
62.6512
  0
LINE
  8
0
 10
-36.8541
 20
62.6512
 11
-36.845
 21
62.7386
  0
LINE
  8
0
 10
-36.845
 20
62.7386
 11
-36.8249
 21
62.8242
  0
LINE
  8
0
 10
-36.8249
 20
62.8242
 11
-36.7942
 21
62.9066
  0
LINE
  8
0
 10
-36.7942
 20
62.9066
 11
-36.7535
 21
62.9845
  0
LINE
  8
0
 10
-36.7535
 20
62.9845
 11
-36.7033
 21
63.0567
  0
LINE
  8
0
 10
-36.7033
 20
63.0567
 11
-36.6445
 21
63.122
  0
LINE
  8
0
 10
-36.6445
 20
63.122
 11
-36.578
 21
63.1794
  0
LINE
  8
0
 10
-36.578
 20
63.1794
 11
-36.5048
 21
63.2281
  0
LINE
  8
0
 10
-36.5048
 20
63.2281
 11
-36.426
 21
63.2672
  0
LINE
  8
0
 10
-36.426
 20
63.2672
 11
-36.343
 21
63.2961
  0
LINE
  8
0
 10
-36.343
 20
63.2961
 11
-36.257
 21
63.3144
  0
LINE
  8
0
 10
-36.257
 20
63.3144
 11
-36.1694
 21
63.3217
  0
LINE
  8
0
 10
-36.1694
 20
63.3217
 11
-36.0816
 21
63.318
  0
LINE
  8
0
 10
-36.0816
 20
63.318
 11
-35.9949
 21
63.3034
  0
LINE
  8
0
 10
-35.9949
 20
63.3034
 11
-35.9108
 21
63.278
  0
LINE
  8
0
 10
-35.9108
 20
63.278
 11
-35.8304
 21
63.2422
  0
LINE
  8
0
 10
-35.8304
 20
63.2422
 11
-35.7552
 21
63.1967
  0
LINE
  8
0
 10
-35.7552
 20
63.1967
 11
-35.6864
 21
63.1421
  0
LINE
  8
0
 10
-35.6864
 20
63.1421
 11
-35.6249
 21
63.0793
  0
LINE
  8
0
 10
-35.6249
 20
63.0793
 11
-35.5717
 21
63.0092
  0
LINE
  8
0
 10
-35.5717
 20
63.0092
 11
-35.5278
 21
62.9331
  0
LINE
  8
0
 10
-35.5278
 20
62.9331
 11
-35.4937
 21
62.8521
  0
LINE
  8
0
 10
-35.4937
 20
62.8521
 11
-35.47
 21
62.7674
  0
LINE
  8
0
 10
-35.47
 20
62.7674
 11
-35.4572
 21
62.6805
  0
LINE
  8
0
 10
-35.4572
 20
62.6805
 11
-35.4554
 21
62.5926
  0
LINE
  8
0
 10
-35.4554
 20
62.5926
 11
-35.4646
 21
62.5051
  0
LINE
  8
0
 10
-35.4646
 20
62.5051
 11
-35.4846
 21
62.4196
  0
LINE
  8
0
 10
-35.4846
 20
62.4196
 11
-35.5153
 21
62.3372
  0
LINE
  8
0
 10
-35.5153
 20
62.3372
 11
-35.556
 21
62.2593
  0
LINE
  8
0
 10
-35.556
 20
62.2593
 11
-35.6062
 21
62.1871
  0
LINE
  8
0
 10
-35.6062
 20
62.1871
 11
-35.665
 21
62.1217
  0
LINE
  8
0
 10
-35.665
 20
62.1217
 11
-35.7315
 21
62.0643
  0
LINE
  8
0
 10
-35.7315
 20
62.0643
 11
-35.8047
 21
62.0157
  0
LINE
  8
0
 10
-35.8047
 20
62.0157
 11
-35.8835
 21
61.9766
  0
LINE
  8
0
 10
-35.8835
 20
61.9766
 11
-35.9665
 21
61.9477
  0
LINE
  8
0
 10
-35.9665
 20
61.9477
 11
-36.0525
 21
61.9294
  0
LINE
  8
0
 10
-36.0525
 20
61.9294
 11
-36.1401
 21
61.922
  0
LINE
  8
0
 10
-36.1401
 20
61.922
 11
-36.2279
 21
61.9257
  0
LINE
  8
0
 10
36.0525
 20
61.9294
 11
35.9665
 21
61.9477
  0
LINE
  8
0
 10
35.9665
 20
61.9477
 11
35.8835
 21
61.9766
  0
LINE
  8
0
 10
35.8835
 20
61.9766
 11
35.8047
 21
62.0157
  0
LINE
  8
0
 10
35.8047
 20
62.0157
 11
35.7315
 21
62.0643
  0
LINE
  8
0
 10
35.7315
 20
62.0643
 11
35.665
 21
62.1217
  0
LINE
  8
0
 10
35.665
 20
62.1217
 11
35.6062
 21
62.1871
  0
LINE
  8
0
 10
35.6062
 20
62.1871
 11
35.556
 21
62.2593
  0
LINE
  8
0
 10
35.556
 20
62.2593
 11
35.5153
 21
62.3372
  0
LINE
  8
0
 10
35.5153
 20
62.3372
 11
35.4846
 21
62.4196
  0
LINE
  8
0
 10
35.4846
 20
62.4196
 11
35.4646
 21
62.5051
  0
LINE
  8
0
 10
35.4646
 20
62.5051
 11
35.4554
 21
62.5926
  0
LINE
  8
0
 10
35.4554
 20
62.5926
 11
35.4572
 21
62.6805
  0
LINE
  8
0
 10
35.4572
 20
62.6805
 11
35.47
 21
62.7674
  0
LINE
  8
0
 10
35.47
 20
62.7674
 11
35.4937
 21
62.8521
  0
LINE
  8
0
 10
35.4937
 20
62.8521
 11
35.5278
 21
62.9331
  0
LINE
  8
0
 10
35.5278
 20
62.9331
 11
35.5717
 21
63.0092
  0
LINE
  8
0
 10
35.5717
 20
63.0092
 11
35.6249
 21
63.0793
  0
LINE
  8
0
 10
35.6249
 20
63.0793
 11
35.6864
 21
63.1421
  0
LINE
  8
0
 10
35.6864
 20
63.1421
 11
35.7552
 21
63.1967
  0
LINE
  8
0
 10
35.7552
 20
63.1967
 11
35.8304
 21
63.2422
  0
LINE
  8
0
 10
35.8304
 20
63.2422
 11
35.9108
 21
63.278
  0
LINE
  8
0
 10
35.9108
 20
63.278
 11
35.9949
 21
63.3034
  0
LINE
  8
0
 10
35.9949
 20
63.3034
 11
36.0816
 21
63.318
  0
LINE
  8
0
 10
36.0816
 20
63.318
 11
36.1694
 21
63.3217
  0
LINE
  8
0
 10
36.1694
 20
63.3217
 11
36.257
 21
63.3144
  0
LINE
  8
0
 10
36.257
 20
63.3144
 11
36.343
 21
63.2961
  0
LINE
  8
0
 10
36.343
 20
63.2961
 11
36.426
 21
63.2672
  0
LINE
  8
0
 10
36.426
 20
63.2672
 11
36.5048
 21
63.2281
  0
LINE
  8
0
 10
36.5048
 20
63.2281
 11
36.578
 21
63.1794
  0
LINE
  8
0
 10
36.578
 20
63.1794
 11
36.6445
 21
63.122
  0
LINE
  8
0
 10
36.6445
 20
63.122
 11
36.7033
 21
63.0567
  0
LINE
  8
0
 10
36.7033
 20
63.0567
 11
36.7535
 21
62.9845
  0
LINE
  8
0
 10
36.7535
 20
62.9845
 11
36.7942
 21
62.9066
  0
LINE
  8
0
 10
36.7942
 20
62.9066
 11
36.8249
 21
62.8242
  0
LINE
  8
0
 10
36.8249
 20
62.8242
 11
36.845
 21
62.7386
  0
LINE
  8
0
 10
36.845
 20
62.7386
 11
36.8541
 21
62.6512
  0
LINE
  8
0
 10
36.8541
 20
62.6512
 11
36.8523
 21
62.5633
  0
LINE
  8
0
 10
36.8523
 20
62.5633
 11
36.8395
 21
62.4763
  0
LINE
  8
0
 10
36.8395
 20
62.4763
 11
36.8158
 21
62.3917
  0
LINE
  8
0
 10
36.8158
 20
62.3917
 11
36.7818
 21
62.3106
  0
LINE
  8
0
 10
36.7818
 20
62.3106
 11
36.7378
 21
62.2345
  0
LINE
  8
0
 10
36.7378
 20
62.2345
 11
36.6846
 21
62.1645
  0
LINE
  8
0
 10
36.6846
 20
62.1645
 11
36.6231
 21
62.1017
  0
LINE
  8
0
 10
36.6231
 20
62.1017
 11
36.5543
 21
62.0471
  0
LINE
  8
0
 10
36.5543
 20
62.0471
 11
36.4791
 21
62.0015
  0
LINE
  8
0
 10
36.4791
 20
62.0015
 11
36.3988
 21
61.9658
  0
LINE
  8
0
 10
36.3988
 20
61.9658
 11
36.3146
 21
61.9404
  0
LINE
  8
0
 10
36.3146
 20
61.9404
 11
36.2279
 21
61.9257
  0
LINE
  8
0
 10
36.2279
 20
61.9257
 11
36.1401
 21
61.922
  0
LINE
  8
0
 10
36.1401
 20
61.922
 11
36.0525
 21
61.9294
  0
ENDSEC
  0
SECTION
  2
OBJECTS
  0
DICTIONARY
  0
ENDSEC
  0
EOF
