  0
SECTION
  2
BLOCKS
  0
ENDSEC
  0
SECTION
  2
ENTITIES
  0
LINE
  8
0
 10
-190
 20
0
 11
-189.943
 21
-4.66283
  0
LINE
  8
0
 10
-189.943
 20
-4.66283
 11
-189.771
 21
-9.32286
  0
LINE
  8
0
 10
-189.771
 20
-9.32286
 11
-189.485
 21
-13.9773
  0
LINE
  8
0
 10
-189.485
 20
-13.9773
 11
-189.085
 21
-18.6233
  0
LINE
  8
0
 10
-189.085
 20
-18.6233
 11
-188.571
 21
-23.258
  0
LINE
  8
0
 10
-188.571
 20
-23.258
 11
-187.944
 21
-27.8788
  0
LINE
  8
0
 10
-187.944
 20
-27.8788
 11
-187.203
 21
-32.4828
  0
LINE
  8
0
 10
-187.203
 20
-32.4828
 11
-186.349
 21
-37.0672
  0
LINE
  8
0
 10
-186.349
 20
-37.0672
 11
-185.383
 21
-41.6292
  0
LINE
  8
0
 10
-185.383
 20
-41.6292
 11
-184.306
 21
-46.1662
  0
LINE
  8
0
 10
-184.306
 20
-46.1662
 11
-183.117
 21
-50.6754
  0
LINE
  8
0
 10
-183.117
 20
-50.6754
 11
-181.819
 21
-55.1541
  0
LINE
  8
0
 10
-181.819
 20
-55.1541
 11
-180.41
 21
-59.5995
  0
LINE
  8
0
 10
-180.41
 20
-59.5995
 11
-178.893
 21
-64.0091
  0
LINE
  8
0
 10
-178.893
 20
-64.0091
 11
-177.269
 21
-68.3801
  0
LINE
  8
0
 10
-177.269
 20
-68.3801
 11
-175.537
 21
-72.7099
  0
LINE
  8
0
 10
-175.537
 20
-72.7099
 11
-173.7
 21
-76.9958
  0
LINE
  8
0
 10
-173.7
 20
-76.9958
 11
-171.758
 21
-81.2355
  0
LINE
  8
0
 10
-171.758
 20
-81.2355
 11
-169.713
 21
-85.4262
  0
LINE
  8
0
 10
-169.713
 20
-85.4262
 11
-167.565
 21
-89.5654
  0
LINE
  8
0
 10
-167.565
 20
-89.5654
 11
-165.317
 21
-93.6507
  0
LINE
  8
0
 10
-165.317
 20
-93.6507
 11
-162.968
 21
-97.6795
  0
LINE
  8
0
 10
-162.968
 20
-97.6795
 11
-160.522
 21
-101.65
  0
LINE
  8
0
 10
-160.522
 20
-101.65
 11
-157.979
 21
-105.558
  0
LINE
  8
0
 10
-157.979
 20
-105.558
 11
-155.341
 21
-109.404
  0
LINE
  8
0
 10
-155.341
 20
-109.404
 11
-152.609
 21
-113.183
  0
LINE
  8
0
 10
-152.609
 20
-113.183
 11
-149.786
 21
-116.894
  0
LINE
  8
0
 10
-149.786
 20
-116.894
 11
-146.872
 21
-120.535
  0
LINE
  8
0
 10
-146.872
 20
-120.535
 11
-143.87
 21
-124.103
  0
LINE
  8
0
 10
-143.87
 20
-124.103
 11
-140.781
 21
-127.596
  0
LINE
  8
0
 10
-140.781
 20
-127.596
 11
-137.607
 21
-131.013
  0
LINE
  8
0
 10
-137.607
 20
-131.013
 11
-134.35
 21
-134.35
  0
LINE
  8
0
 10
-134.35
 20
-134.35
 11
-131.013
 21
-137.607
  0
LINE
  8
0
 10
-131.013
 20
-137.607
 11
-127.596
 21
-140.781
  0
LINE
  8
0
 10
-127.596
 20
-140.781
 11
-124.103
 21
-143.87
  0
LINE
  8
0
 10
-124.103
 20
-143.87
 11
-120.535
 21
-146.872
  0
LINE
  8
0
 10
-120.535
 20
-146.872
 11
-116.894
 21
-149.786
  0
LINE
  8
0
 10
-116.894
 20
-149.786
 11
-113.183
 21
-152.609
  0
LINE
  8
0
 10
-113.183
 20
-152.609
 11
-109.404
 21
-155.341
  0
LINE
  8
0
 10
-109.404
 20
-155.341
 11
-105.558
 21
-157.979
  0
LINE
  8
0
 10
-105.558
 20
-157.979
 11
-101.65
 21
-160.522
  0
LINE
  8
0
 10
-101.65
 20
-160.522
 11
-97.6795
 21
-162.968
  0
LINE
  8
0
 10
-97.6795
 20
-162.968
 11
-93.6507
 21
-165.317
  0
LINE
  8
0
 10
-93.6507
 20
-165.317
 11
-89.5654
 21
-167.565
  0
LINE
  8
0
 10
-89.5654
 20
-167.565
 11
-85.4262
 21
-169.713
  0
LINE
  8
0
 10
-85.4262
 20
-169.713
 11
-81.2355
 21
-171.758
  0
LINE
  8
0
 10
-81.2355
 20
-171.758
 11
-76.9958
 21
-173.7
  0
LINE
  8
0
 10
-76.9958
 20
-173.7
 11
-72.7099
 21
-175.537
  0
LINE
  8
0
 10
-72.7099
 20
-175.537
 11
-68.3801
 21
-177.269
  0
LINE
  8
0
 10
-68.3801
 20
-177.269
 11
-64.0091
 21
-178.893
  0
LINE
  8
0
 10
-64.0091
 20
-178.893
 11
-59.5995
 21
-180.41
  0
LINE
  8
0
 10
-59.5995
 20
-180.41
 11
-55.1541
 21
-181.819
  0
LINE
  8
0
 10
-55.1541
 20
-181.819
 11
-50.6754
 21
-183.117
  0
LINE
  8
0
 10
-50.6754
 20
-183.117
 11
-46.1662
 21
-184.306
  0
LINE
  8
0
 10
-46.1662
 20
-184.306
 11
-41.6292
 21
-185.383
  0
LINE
  8
0
 10
-41.6292
 20
-185.383
 11
-37.0672
 21
-186.349
  0
LINE
  8
0
 10
-37.0672
 20
-186.349
 11
-32.4828
 21
-187.203
  0
LINE
  8
0
 10
-32.4828
 20
-187.203
 11
-27.8788
 21
-187.944
  0
LINE
  8
0
 10
-27.8788
 20
-187.944
 11
-23.258
 21
-188.571
  0
LINE
  8
0
 10
-23.258
 20
-188.571
 11
-18.6233
 21
-189.085
  0
LINE
  8
0
 10
-18.6233
 20
-189.085
 11
-13.9773
 21
-189.485
  0
LINE
  8
0
 10
-13.9773
 20
-189.485
 11
-9.32286
 21
-189.771
  0
LINE
  8
0
 10
-9.32286
 20
-189.771
 11
-4.66283
 21
-189.943
  0
LINE
  8
0
 10
-4.66283
 20
-189.943
 11
0
 21
-190
  0
LINE
  8
0
 10
0
 20
-190
 11
4.66283
 21
-189.943
  0
LINE
  8
0
 10
4.66283
 20
-189.943
 11
9.32286
 21
-189.771
  0
LINE
  8
0
 10
9.32286
 20
-189.771
 11
13.9773
 21
-189.485
  0
LINE
  8
0
 10
13.9773
 20
-189.485
 11
18.6233
 21
-189.085
  0
LINE
  8
0
 10
18.6233
 20
-189.085
 11
23.258
 21
-188.571
  0
LINE
  8
0
 10
23.258
 20
-188.571
 11
27.8788
 21
-187.944
  0
LINE
  8
0
 10
27.8788
 20
-187.944
 11
32.4828
 21
-187.203
  0
LINE
  8
0
 10
32.4828
 20
-187.203
 11
37.0672
 21
-186.349
  0
LINE
  8
0
 10
37.0672
 20
-186.349
 11
41.6292
 21
-185.383
  0
LINE
  8
0
 10
41.6292
 20
-185.383
 11
46.1662
 21
-184.306
  0
LINE
  8
0
 10
46.1662
 20
-184.306
 11
50.6754
 21
-183.117
  0
LINE
  8
0
 10
50.6754
 20
-183.117
 11
55.1541
 21
-181.819
  0
LINE
  8
0
 10
55.1541
 20
-181.819
 11
59.5995
 21
-180.41
  0
LINE
  8
0
 10
59.5995
 20
-180.41
 11
64.0091
 21
-178.893
  0
LINE
  8
0
 10
64.0091
 20
-178.893
 11
68.3801
 21
-177.269
  0
LINE
  8
0
 10
68.3801
 20
-177.269
 11
72.7099
 21
-175.537
  0
LINE
  8
0
 10
72.7099
 20
-175.537
 11
76.9958
 21
-173.7
  0
LINE
  8
0
 10
76.9958
 20
-173.7
 11
81.2355
 21
-171.758
  0
LINE
  8
0
 10
81.2355
 20
-171.758
 11
85.4262
 21
-169.713
  0
LINE
  8
0
 10
85.4262
 20
-169.713
 11
89.5654
 21
-167.565
  0
LINE
  8
0
 10
89.5654
 20
-167.565
 11
93.6507
 21
-165.317
  0
LINE
  8
0
 10
93.6507
 20
-165.317
 11
97.6795
 21
-162.968
  0
LINE
  8
0
 10
97.6795
 20
-162.968
 11
101.65
 21
-160.522
  0
LINE
  8
0
 10
101.65
 20
-160.522
 11
105.558
 21
-157.979
  0
LINE
  8
0
 10
105.558
 20
-157.979
 11
109.404
 21
-155.341
  0
LINE
  8
0
 10
109.404
 20
-155.341
 11
113.183
 21
-152.609
  0
LINE
  8
0
 10
113.183
 20
-152.609
 11
116.894
 21
-149.786
  0
LINE
  8
0
 10
116.894
 20
-149.786
 11
120.535
 21
-146.872
  0
LINE
  8
0
 10
120.535
 20
-146.872
 11
124.103
 21
-143.87
  0
LINE
  8
0
 10
124.103
 20
-143.87
 11
127.596
 21
-140.781
  0
LINE
  8
0
 10
127.596
 20
-140.781
 11
131.013
 21
-137.607
  0
LINE
  8
0
 10
131.013
 20
-137.607
 11
134.35
 21
-134.35
  0
LINE
  8
0
 10
134.35
 20
-134.35
 11
137.607
 21
-131.013
  0
LINE
  8
0
 10
137.607
 20
-131.013
 11
140.781
 21
-127.596
  0
LINE
  8
0
 10
140.781
 20
-127.596
 11
143.87
 21
-124.103
  0
LINE
  8
0
 10
143.87
 20
-124.103
 11
146.872
 21
-120.535
  0
LINE
  8
0
 10
146.872
 20
-120.535
 11
149.786
 21
-116.894
  0
LINE
  8
0
 10
149.786
 20
-116.894
 11
152.609
 21
-113.183
  0
LINE
  8
0
 10
152.609
 20
-113.183
 11
155.341
 21
-109.404
  0
LINE
  8
0
 10
155.341
 20
-109.404
 11
157.979
 21
-105.558
  0
LINE
  8
0
 10
157.979
 20
-105.558
 11
160.522
 21
-101.65
  0
LINE
  8
0
 10
160.522
 20
-101.65
 11
162.968
 21
-97.6795
  0
LINE
  8
0
 10
162.968
 20
-97.6795
 11
165.317
 21
-93.6507
  0
LINE
  8
0
 10
165.317
 20
-93.6507
 11
167.565
 21
-89.5654
  0
LINE
  8
0
 10
167.565
 20
-89.5654
 11
169.713
 21
-85.4262
  0
LINE
  8
0
 10
169.713
 20
-85.4262
 11
171.758
 21
-81.2355
  0
LINE
  8
0
 10
171.758
 20
-81.2355
 11
173.7
 21
-76.9958
  0
LINE
  8
0
 10
173.7
 20
-76.9958
 11
175.537
 21
-72.7099
  0
LINE
  8
0
 10
175.537
 20
-72.7099
 11
177.269
 21
-68.3801
  0
LINE
  8
0
 10
177.269
 20
-68.3801
 11
178.893
 21
-64.0091
  0
LINE
  8
0
 10
178.893
 20
-64.0091
 11
180.41
 21
-59.5995
  0
LINE
  8
0
 10
180.41
 20
-59.5995
 11
181.819
 21
-55.1541
  0
LINE
  8
0
 10
181.819
 20
-55.1541
 11
183.117
 21
-50.6754
  0
LINE
  8
0
 10
183.117
 20
-50.6754
 11
184.306
 21
-46.1662
  0
LINE
  8
0
 10
184.306
 20
-46.1662
 11
185.383
 21
-41.6292
  0
LINE
  8
0
 10
185.383
 20
-41.6292
 11
186.349
 21
-37.0672
  0
LINE
  8
0
 10
186.349
 20
-37.0672
 11
187.203
 21
-32.4828
  0
LINE
  8
0
 10
187.203
 20
-32.4828
 11
187.944
 21
-27.8788
  0
LINE
  8
0
 10
187.944
 20
-27.8788
 11
188.571
 21
-23.258
  0
LINE
  8
0
 10
188.571
 20
-23.258
 11
189.085
 21
-18.6233
  0
LINE
  8
0
 10
189.085
 20
-18.6233
 11
189.485
 21
-13.9773
  0
LINE
  8
0
 10
189.485
 20
-13.9773
 11
189.771
 21
-9.32286
  0
LINE
  8
0
 10
189.771
 20
-9.32286
 11
189.943
 21
-4.66283
  0
LINE
  8
0
 10
189.943
 20
-4.66283
 11
190
 21
0
  0
LINE
  8
0
 10
190
 20
0
 11
189.943
 21
4.66283
  0
LINE
  8
0
 10
189.943
 20
4.66283
 11
189.771
 21
9.32286
  0
LINE
  8
0
 10
189.771
 20
9.32286
 11
189.485
 21
13.9773
  0
LINE
  8
0
 10
189.485
 20
13.9773
 11
189.085
 21
18.6233
  0
LINE
  8
0
 10
189.085
 20
18.6233
 11
188.571
 21
23.258
  0
LINE
  8
0
 10
188.571
 20
23.258
 11
187.944
 21
27.8788
  0
LINE
  8
0
 10
187.944
 20
27.8788
 11
187.203
 21
32.4828
  0
LINE
  8
0
 10
187.203
 20
32.4828
 11
186.349
 21
37.0672
  0
LINE
  8
0
 10
186.349
 20
37.0672
 11
185.383
 21
41.6292
  0
LINE
  8
0
 10
185.383
 20
41.6292
 11
184.306
 21
46.1662
  0
LINE
  8
0
 10
184.306
 20
46.1662
 11
183.117
 21
50.6754
  0
LINE
  8
0
 10
183.117
 20
50.6754
 11
181.819
 21
55.1541
  0
LINE
  8
0
 10
181.819
 20
55.1541
 11
180.41
 21
59.5995
  0
LINE
  8
0
 10
180.41
 20
59.5995
 11
178.893
 21
64.0091
  0
LINE
  8
0
 10
178.893
 20
64.0091
 11
177.269
 21
68.3801
  0
LINE
  8
0
 10
177.269
 20
68.3801
 11
175.537
 21
72.7099
  0
LINE
  8
0
 10
175.537
 20
72.7099
 11
173.7
 21
76.9958
  0
LINE
  8
0
 10
173.7
 20
76.9958
 11
171.758
 21
81.2355
  0
LINE
  8
0
 10
171.758
 20
81.2355
 11
169.713
 21
85.4262
  0
LINE
  8
0
 10
169.713
 20
85.4262
 11
167.565
 21
89.5654
  0
LINE
  8
0
 10
167.565
 20
89.5654
 11
165.317
 21
93.6507
  0
LINE
  8
0
 10
165.317
 20
93.6507
 11
162.968
 21
97.6795
  0
LINE
  8
0
 10
162.968
 20
97.6795
 11
160.522
 21
101.65
  0
LINE
  8
0
 10
160.522
 20
101.65
 11
157.979
 21
105.558
  0
LINE
  8
0
 10
157.979
 20
105.558
 11
155.341
 21
109.404
  0
LINE
  8
0
 10
155.341
 20
109.404
 11
152.609
 21
113.183
  0
LINE
  8
0
 10
152.609
 20
113.183
 11
149.786
 21
116.894
  0
LINE
  8
0
 10
149.786
 20
116.894
 11
146.872
 21
120.535
  0
LINE
  8
0
 10
146.872
 20
120.535
 11
143.87
 21
124.103
  0
LINE
  8
0
 10
143.87
 20
124.103
 11
140.781
 21
127.596
  0
LINE
  8
0
 10
140.781
 20
127.596
 11
137.607
 21
131.013
  0
LINE
  8
0
 10
137.607
 20
131.013
 11
134.35
 21
134.35
  0
LINE
  8
0
 10
134.35
 20
134.35
 11
131.013
 21
137.607
  0
LINE
  8
0
 10
131.013
 20
137.607
 11
127.596
 21
140.781
  0
LINE
  8
0
 10
127.596
 20
140.781
 11
124.103
 21
143.87
  0
LINE
  8
0
 10
124.103
 20
143.87
 11
120.535
 21
146.872
  0
LINE
  8
0
 10
120.535
 20
146.872
 11
116.894
 21
149.786
  0
LINE
  8
0
 10
116.894
 20
149.786
 11
113.183
 21
152.609
  0
LINE
  8
0
 10
113.183
 20
152.609
 11
109.404
 21
155.341
  0
LINE
  8
0
 10
109.404
 20
155.341
 11
105.558
 21
157.979
  0
LINE
  8
0
 10
105.558
 20
157.979
 11
101.65
 21
160.522
  0
LINE
  8
0
 10
101.65
 20
160.522
 11
97.6795
 21
162.968
  0
LINE
  8
0
 10
97.6795
 20
162.968
 11
93.6507
 21
165.317
  0
LINE
  8
0
 10
93.6507
 20
165.317
 11
89.5654
 21
167.565
  0
LINE
  8
0
 10
89.5654
 20
167.565
 11
85.4262
 21
169.713
  0
LINE
  8
0
 10
85.4262
 20
169.713
 11
81.2355
 21
171.758
  0
LINE
  8
0
 10
81.2355
 20
171.758
 11
76.9958
 21
173.7
  0
LINE
  8
0
 10
76.9958
 20
173.7
 11
72.7099
 21
175.537
  0
LINE
  8
0
 10
72.7099
 20
175.537
 11
68.3801
 21
177.269
  0
LINE
  8
0
 10
68.3801
 20
177.269
 11
64.0091
 21
178.893
  0
LINE
  8
0
 10
64.0091
 20
178.893
 11
59.5995
 21
180.41
  0
LINE
  8
0
 10
59.5995
 20
180.41
 11
55.1541
 21
181.819
  0
LINE
  8
0
 10
55.1541
 20
181.819
 11
50.6754
 21
183.117
  0
LINE
  8
0
 10
50.6754
 20
183.117
 11
46.1662
 21
184.306
  0
LINE
  8
0
 10
46.1662
 20
184.306
 11
41.6292
 21
185.383
  0
LINE
  8
0
 10
41.6292
 20
185.383
 11
37.0672
 21
186.349
  0
LINE
  8
0
 10
37.0672
 20
186.349
 11
32.4828
 21
187.203
  0
LINE
  8
0
 10
32.4828
 20
187.203
 11
27.8788
 21
187.944
  0
LINE
  8
0
 10
27.8788
 20
187.944
 11
23.258
 21
188.571
  0
LINE
  8
0
 10
23.258
 20
188.571
 11
18.6233
 21
189.085
  0
LINE
  8
0
 10
18.6233
 20
189.085
 11
13.9773
 21
189.485
  0
LINE
  8
0
 10
13.9773
 20
189.485
 11
9.32286
 21
189.771
  0
LINE
  8
0
 10
9.32286
 20
189.771
 11
4.66283
 21
189.943
  0
LINE
  8
0
 10
4.66283
 20
189.943
 11
0
 21
190
  0
LINE
  8
0
 10
0
 20
190
 11
-4.66283
 21
189.943
  0
LINE
  8
0
 10
-4.66283
 20
189.943
 11
-9.32286
 21
189.771
  0
LINE
  8
0
 10
-9.32286
 20
189.771
 11
-13.9773
 21
189.485
  0
LINE
  8
0
 10
-13.9773
 20
189.485
 11
-18.6233
 21
189.085
  0
LINE
  8
0
 10
-18.6233
 20
189.085
 11
-23.258
 21
188.571
  0
LINE
  8
0
 10
-23.258
 20
188.571
 11
-27.8788
 21
187.944
  0
LINE
  8
0
 10
-27.8788
 20
187.944
 11
-32.4828
 21
187.203
  0
LINE
  8
0
 10
-32.4828
 20
187.203
 11
-37.0672
 21
186.349
  0
LINE
  8
0
 10
-37.0672
 20
186.349
 11
-41.6292
 21
185.383
  0
LINE
  8
0
 10
-41.6292
 20
185.383
 11
-46.1662
 21
184.306
  0
LINE
  8
0
 10
-46.1662
 20
184.306
 11
-50.6754
 21
183.117
  0
LINE
  8
0
 10
-50.6754
 20
183.117
 11
-55.1541
 21
181.819
  0
LINE
  8
0
 10
-55.1541
 20
181.819
 11
-59.5995
 21
180.41
  0
LINE
  8
0
 10
-59.5995
 20
180.41
 11
-64.0091
 21
178.893
  0
LINE
  8
0
 10
-64.0091
 20
178.893
 11
-68.3801
 21
177.269
  0
LINE
  8
0
 10
-68.3801
 20
177.269
 11
-72.7099
 21
175.537
  0
LINE
  8
0
 10
-72.7099
 20
175.537
 11
-76.9958
 21
173.7
  0
LINE
  8
0
 10
-76.9958
 20
173.7
 11
-81.2355
 21
171.758
  0
LINE
  8
0
 10
-81.2355
 20
171.758
 11
-85.4262
 21
169.713
  0
LINE
  8
0
 10
-85.4262
 20
169.713
 11
-89.5654
 21
167.565
  0
LINE
  8
0
 10
-89.5654
 20
167.565
 11
-93.6507
 21
165.317
  0
LINE
  8
0
 10
-93.6507
 20
165.317
 11
-97.6795
 21
162.968
  0
LINE
  8
0
 10
-97.6795
 20
162.968
 11
-101.65
 21
160.522
  0
LINE
  8
0
 10
-101.65
 20
160.522
 11
-105.558
 21
157.979
  0
LINE
  8
0
 10
-105.558
 20
157.979
 11
-109.404
 21
155.341
  0
LINE
  8
0
 10
-109.404
 20
155.341
 11
-113.183
 21
152.609
  0
LINE
  8
0
 10
-113.183
 20
152.609
 11
-116.894
 21
149.786
  0
LINE
  8
0
 10
-116.894
 20
149.786
 11
-120.535
 21
146.872
  0
LINE
  8
0
 10
-120.535
 20
146.872
 11
-124.103
 21
143.87
  0
LINE
  8
0
 10
-124.103
 20
143.87
 11
-127.596
 21
140.781
  0
LINE
  8
0
 10
-127.596
 20
140.781
 11
-131.013
 21
137.607
  0
LINE
  8
0
 10
-131.013
 20
137.607
 11
-134.35
 21
134.35
  0
LINE
  8
0
 10
-134.35
 20
134.35
 11
-137.607
 21
131.013
  0
LINE
  8
0
 10
-137.607
 20
131.013
 11
-140.781
 21
127.596
  0
LINE
  8
0
 10
-140.781
 20
127.596
 11
-143.87
 21
124.103
  0
LINE
  8
0
 10
-143.87
 20
124.103
 11
-146.872
 21
120.535
  0
LINE
  8
0
 10
-146.872
 20
120.535
 11
-149.786
 21
116.894
  0
LINE
  8
0
 10
-149.786
 20
116.894
 11
-152.609
 21
113.183
  0
LINE
  8
0
 10
-152.609
 20
113.183
 11
-155.341
 21
109.404
  0
LINE
  8
0
 10
-155.341
 20
109.404
 11
-157.979
 21
105.558
  0
LINE
  8
0
 10
-157.979
 20
105.558
 11
-160.522
 21
101.65
  0
LINE
  8
0
 10
-160.522
 20
101.65
 11
-162.968
 21
97.6795
  0
LINE
  8
0
 10
-162.968
 20
97.6795
 11
-165.317
 21
93.6507
  0
LINE
  8
0
 10
-165.317
 20
93.6507
 11
-167.565
 21
89.5654
  0
LINE
  8
0
 10
-167.565
 20
89.5654
 11
-169.713
 21
85.4262
  0
LINE
  8
0
 10
-169.713
 20
85.4262
 11
-171.758
 21
81.2355
  0
LINE
  8
0
 10
-171.758
 20
81.2355
 11
-173.7
 21
76.9958
  0
LINE
  8
0
 10
-173.7
 20
76.9958
 11
-175.537
 21
72.7099
  0
LINE
  8
0
 10
-175.537
 20
72.7099
 11
-177.269
 21
68.3801
  0
LINE
  8
0
 10
-177.269
 20
68.3801
 11
-178.893
 21
64.0091
  0
LINE
  8
0
 10
-178.893
 20
64.0091
 11
-180.41
 21
59.5995
  0
LINE
  8
0
 10
-180.41
 20
59.5995
 11
-181.819
 21
55.1541
  0
LINE
  8
0
 10
-181.819
 20
55.1541
 11
-183.117
 21
50.6754
  0
LINE
  8
0
 10
-183.117
 20
50.6754
 11
-184.306
 21
46.1662
  0
LINE
  8
0
 10
-184.306
 20
46.1662
 11
-185.383
 21
41.6292
  0
LINE
  8
0
 10
-185.383
 20
41.6292
 11
-186.349
 21
37.0672
  0
LINE
  8
0
 10
-186.349
 20
37.0672
 11
-187.203
 21
32.4828
  0
LINE
  8
0
 10
-187.203
 20
32.4828
 11
-187.944
 21
27.8788
  0
LINE
  8
0
 10
-187.944
 20
27.8788
 11
-188.571
 21
23.258
  0
LINE
  8
0
 10
-188.571
 20
23.258
 11
-189.085
 21
18.6233
  0
LINE
  8
0
 10
-189.085
 20
18.6233
 11
-189.485
 21
13.9773
  0
LINE
  8
0
 10
-189.485
 20
13.9773
 11
-189.771
 21
9.32286
  0
LINE
  8
0
 10
-189.771
 20
9.32286
 11
-189.943
 21
4.66283
  0
LINE
  8
0
 10
-189.943
 20
4.66283
 11
-190
 21
0
  0
ENDSEC
  0
SECTION
  2
OBJECTS
  0
DICTIONARY
  0
ENDSEC
  0
EOF
