  0
SECTION
  2
BLOCKS
  0
ENDSEC
  0
SECTION
  2
ENTITIES
  0
LINE
  8
0
 10
191.241
 20
51.2427
 11
190.828
 21
52.8091
  0
LINE
  8
0
 10
190.828
 20
52.8091
 11
189.474
 21
57.4764
  0
LINE
  8
0
 10
189.474
 20
57.4764
 11
188.007
 21
62.109
  0
LINE
  8
0
 10
188.007
 20
62.109
 11
186.426
 21
66.7042
  0
LINE
  8
0
 10
186.426
 20
66.7042
 11
184.733
 21
71.2592
  0
LINE
  8
0
 10
184.733
 20
71.2592
 11
182.928
 21
75.7713
  0
LINE
  8
0
 10
182.928
 20
75.7713
 11
181.014
 21
80.2378
  0
LINE
  8
0
 10
181.014
 20
80.2378
 11
178.99
 21
84.6559
  0
LINE
  8
0
 10
178.99
 20
84.6559
 11
176.858
 21
89.023
  0
LINE
  8
0
 10
176.858
 20
89.023
 11
174.62
 21
93.3365
  0
LINE
  8
0
 10
174.62
 20
93.3365
 11
172.277
 21
97.5938
  0
LINE
  8
0
 10
172.277
 20
97.5938
 11
169.83
 21
101.792
  0
LINE
  8
0
 10
169.83
 20
101.792
 11
167.281
 21
105.93
  0
LINE
  8
0
 10
167.281
 20
105.93
 11
164.631
 21
110.003
  0
LINE
  8
0
 10
164.631
 20
110.003
 11
161.882
 21
114.01
  0
LINE
  8
0
 10
161.882
 20
114.01
 11
159.035
 21
117.948
  0
LINE
  8
0
 10
159.035
 20
117.948
 11
156.093
 21
121.816
  0
LINE
  8
0
 10
156.093
 20
121.816
 11
153.056
 21
125.61
  0
LINE
  8
0
 10
153.056
 20
125.61
 11
149.927
 21
129.328
  0
LINE
  8
0
 10
149.927
 20
129.328
 11
146.708
 21
132.969
  0
LINE
  8
0
 10
146.708
 20
132.969
 11
143.401
 21
136.529
  0
LINE
  8
0
 10
143.401
 20
136.529
 11
140.007
 21
140.007
  0
LINE
  8
0
 10
140.007
 20
140.007
 11
136.529
 21
143.401
  0
LINE
  8
0
 10
136.529
 20
143.401
 11
132.969
 21
146.708
  0
LINE
  8
0
 10
132.969
 20
146.708
 11
129.328
 21
149.927
  0
LINE
  8
0
 10
129.328
 20
149.927
 11
125.61
 21
153.056
  0
LINE
  8
0
 10
125.61
 20
153.056
 11
121.816
 21
156.093
  0
LINE
  8
0
 10
121.816
 20
156.093
 11
117.948
 21
159.035
  0
LINE
  8
0
 10
117.948
 20
159.035
 11
114.01
 21
161.882
  0
LINE
  8
0
 10
114.01
 20
161.882
 11
110.003
 21
164.631
  0
LINE
  8
0
 10
110.003
 20
164.631
 11
105.93
 21
167.281
  0
LINE
  8
0
 10
105.93
 20
167.281
 11
101.792
 21
169.83
  0
LINE
  8
0
 10
101.792
 20
169.83
 11
97.5938
 21
172.277
  0
LINE
  8
0
 10
97.5938
 20
172.277
 11
93.3365
 21
174.62
  0
LINE
  8
0
 10
93.3365
 20
174.62
 11
89.023
 21
176.858
  0
LINE
  8
0
 10
89.023
 20
176.858
 11
84.6559
 21
178.99
  0
LINE
  8
0
 10
84.6559
 20
178.99
 11
80.2378
 21
181.014
  0
LINE
  8
0
 10
80.2378
 20
181.014
 11
75.7713
 21
182.928
  0
LINE
  8
0
 10
75.7713
 20
182.928
 11
71.2592
 21
184.733
  0
LINE
  8
0
 10
71.2592
 20
184.733
 11
66.7042
 21
186.426
  0
LINE
  8
0
 10
66.7042
 20
186.426
 11
62.109
 21
188.007
  0
LINE
  8
0
 10
62.109
 20
188.007
 11
57.4764
 21
189.474
  0
LINE
  8
0
 10
57.4764
 20
189.474
 11
52.8091
 21
190.828
  0
LINE
  8
0
 10
52.8091
 20
190.828
 11
48.1101
 21
192.066
  0
LINE
  8
0
 10
48.1101
 20
192.066
 11
43.382
 21
193.189
  0
LINE
  8
0
 10
43.382
 20
193.189
 11
38.6279
 21
194.195
  0
LINE
  8
0
 10
38.6279
 20
194.195
 11
33.8504
 21
195.085
  0
LINE
  8
0
 10
33.8504
 20
195.085
 11
29.0526
 21
195.857
  0
LINE
  8
0
 10
29.0526
 20
195.857
 11
24.2373
 21
196.511
  0
LINE
  8
0
 10
24.2373
 20
196.511
 11
19.4074
 21
197.047
  0
LINE
  8
0
 10
19.4074
 20
197.047
 11
14.5658
 21
197.464
  0
LINE
  8
0
 10
14.5658
 20
197.464
 11
9.71539
 21
197.762
  0
LINE
  8
0
 10
9.71539
 20
197.762
 11
4.85916
 21
197.94
  0
LINE
  8
0
 10
4.85916
 20
197.94
 11
0
 21
198
  0
LINE
  8
0
 10
0
 20
198
 11
-4.85916
 21
197.94
  0
LINE
  8
0
 10
-4.85916
 20
197.94
 11
-9.71539
 21
197.762
  0
LINE
  8
0
 10
-9.71539
 20
197.762
 11
-14.5658
 21
197.464
  0
LINE
  8
0
 10
-14.5658
 20
197.464
 11
-19.4074
 21
197.047
  0
LINE
  8
0
 10
-19.4074
 20
197.047
 11
-24.2373
 21
196.511
  0
LINE
  8
0
 10
-24.2373
 20
196.511
 11
-29.0526
 21
195.857
  0
LINE
  8
0
 10
-29.0526
 20
195.857
 11
-33.8504
 21
195.085
  0
LINE
  8
0
 10
-33.8504
 20
195.085
 11
-38.6279
 21
194.195
  0
LINE
  8
0
 10
-38.6279
 20
194.195
 11
-43.382
 21
193.189
  0
LINE
  8
0
 10
-43.382
 20
193.189
 11
-48.1101
 21
192.066
  0
LINE
  8
0
 10
-48.1101
 20
192.066
 11
-52.8091
 21
190.828
  0
LINE
  8
0
 10
-52.8091
 20
190.828
 11
-57.4764
 21
189.474
  0
LINE
  8
0
 10
-57.4764
 20
189.474
 11
-62.109
 21
188.007
  0
LINE
  8
0
 10
-62.109
 20
188.007
 11
-66.7042
 21
186.426
  0
LINE
  8
0
 10
-66.7042
 20
186.426
 11
-71.2592
 21
184.733
  0
LINE
  8
0
 10
-71.2592
 20
184.733
 11
-75.7713
 21
182.928
  0
LINE
  8
0
 10
-75.7713
 20
182.928
 11
-80.2378
 21
181.014
  0
LINE
  8
0
 10
-80.2378
 20
181.014
 11
-84.6559
 21
178.99
  0
LINE
  8
0
 10
-84.6559
 20
178.99
 11
-89.023
 21
176.858
  0
LINE
  8
0
 10
-89.023
 20
176.858
 11
-93.3365
 21
174.62
  0
LINE
  8
0
 10
-93.3365
 20
174.62
 11
-97.5938
 21
172.277
  0
LINE
  8
0
 10
-97.5938
 20
172.277
 11
-101.792
 21
169.83
  0
LINE
  8
0
 10
-101.792
 20
169.83
 11
-105.93
 21
167.281
  0
LINE
  8
0
 10
-105.93
 20
167.281
 11
-110.003
 21
164.631
  0
LINE
  8
0
 10
-110.003
 20
164.631
 11
-114.01
 21
161.882
  0
LINE
  8
0
 10
-114.01
 20
161.882
 11
-117.948
 21
159.035
  0
LINE
  8
0
 10
-117.948
 20
159.035
 11
-121.816
 21
156.093
  0
LINE
  8
0
 10
-121.816
 20
156.093
 11
-125.61
 21
153.056
  0
LINE
  8
0
 10
-125.61
 20
153.056
 11
-129.328
 21
149.927
  0
LINE
  8
0
 10
-129.328
 20
149.927
 11
-132.969
 21
146.708
  0
LINE
  8
0
 10
-132.969
 20
146.708
 11
-136.529
 21
143.401
  0
LINE
  8
0
 10
-136.529
 20
143.401
 11
-140.007
 21
140.007
  0
LINE
  8
0
 10
-140.007
 20
140.007
 11
-134.35
 21
134.35
  0
LINE
  8
0
 10
-134.35
 20
134.35
 11
-131.013
 21
137.607
  0
LINE
  8
0
 10
-131.013
 20
137.607
 11
-127.596
 21
140.781
  0
LINE
  8
0
 10
-127.596
 20
140.781
 11
-124.103
 21
143.87
  0
LINE
  8
0
 10
-124.103
 20
143.87
 11
-120.535
 21
146.872
  0
LINE
  8
0
 10
-120.535
 20
146.872
 11
-116.894
 21
149.786
  0
LINE
  8
0
 10
-116.894
 20
149.786
 11
-113.183
 21
152.609
  0
LINE
  8
0
 10
-113.183
 20
152.609
 11
-109.404
 21
155.341
  0
LINE
  8
0
 10
-109.404
 20
155.341
 11
-105.558
 21
157.979
  0
LINE
  8
0
 10
-105.558
 20
157.979
 11
-101.65
 21
160.522
  0
LINE
  8
0
 10
-101.65
 20
160.522
 11
-97.6795
 21
162.968
  0
LINE
  8
0
 10
-97.6795
 20
162.968
 11
-93.6507
 21
165.317
  0
LINE
  8
0
 10
-93.6507
 20
165.317
 11
-89.5654
 21
167.565
  0
LINE
  8
0
 10
-89.5654
 20
167.565
 11
-85.4261
 21
169.713
  0
LINE
  8
0
 10
-85.4261
 20
169.713
 11
-81.2355
 21
171.758
  0
LINE
  8
0
 10
-81.2355
 20
171.758
 11
-76.9958
 21
173.7
  0
LINE
  8
0
 10
-76.9958
 20
173.7
 11
-72.7099
 21
175.537
  0
LINE
  8
0
 10
-72.7099
 20
175.537
 11
-68.3801
 21
177.269
  0
LINE
  8
0
 10
-68.3801
 20
177.269
 11
-64.0091
 21
178.893
  0
LINE
  8
0
 10
-64.0091
 20
178.893
 11
-59.5995
 21
180.41
  0
LINE
  8
0
 10
-59.5995
 20
180.41
 11
-55.1541
 21
181.819
  0
LINE
  8
0
 10
-55.1541
 20
181.819
 11
-50.6754
 21
183.117
  0
LINE
  8
0
 10
-50.6754
 20
183.117
 11
-46.1662
 21
184.306
  0
LINE
  8
0
 10
-46.1662
 20
184.306
 11
-41.6292
 21
185.383
  0
LINE
  8
0
 10
-41.6292
 20
185.383
 11
-37.0672
 21
186.349
  0
LINE
  8
0
 10
-37.0672
 20
186.349
 11
-32.4828
 21
187.203
  0
LINE
  8
0
 10
-32.4828
 20
187.203
 11
-27.8788
 21
187.944
  0
LINE
  8
0
 10
-27.8788
 20
187.944
 11
-23.258
 21
188.571
  0
LINE
  8
0
 10
-23.258
 20
188.571
 11
-18.6232
 21
189.085
  0
LINE
  8
0
 10
-18.6232
 20
189.085
 11
-13.9773
 21
189.485
  0
LINE
  8
0
 10
-13.9773
 20
189.485
 11
-9.32285
 21
189.771
  0
LINE
  8
0
 10
-9.32285
 20
189.771
 11
-4.66283
 21
189.943
  0
LINE
  8
0
 10
-4.66283
 20
189.943
 11
0
 21
190
  0
LINE
  8
0
 10
0
 20
190
 11
4.66283
 21
189.943
  0
LINE
  8
0
 10
4.66283
 20
189.943
 11
9.32285
 21
189.771
  0
LINE
  8
0
 10
9.32285
 20
189.771
 11
13.9773
 21
189.485
  0
LINE
  8
0
 10
13.9773
 20
189.485
 11
18.6232
 21
189.085
  0
LINE
  8
0
 10
18.6232
 20
189.085
 11
23.258
 21
188.571
  0
LINE
  8
0
 10
23.258
 20
188.571
 11
27.8788
 21
187.944
  0
LINE
  8
0
 10
27.8788
 20
187.944
 11
32.4828
 21
187.203
  0
LINE
  8
0
 10
32.4828
 20
187.203
 11
37.0672
 21
186.349
  0
LINE
  8
0
 10
37.0672
 20
186.349
 11
41.6292
 21
185.383
  0
LINE
  8
0
 10
41.6292
 20
185.383
 11
46.1662
 21
184.306
  0
LINE
  8
0
 10
46.1662
 20
184.306
 11
50.6754
 21
183.117
  0
LINE
  8
0
 10
50.6754
 20
183.117
 11
55.1541
 21
181.819
  0
LINE
  8
0
 10
55.1541
 20
181.819
 11
59.5995
 21
180.41
  0
LINE
  8
0
 10
59.5995
 20
180.41
 11
64.0091
 21
178.893
  0
LINE
  8
0
 10
64.0091
 20
178.893
 11
68.3801
 21
177.269
  0
LINE
  8
0
 10
68.3801
 20
177.269
 11
72.7099
 21
175.537
  0
LINE
  8
0
 10
72.7099
 20
175.537
 11
76.9958
 21
173.7
  0
LINE
  8
0
 10
76.9958
 20
173.7
 11
81.2355
 21
171.758
  0
LINE
  8
0
 10
81.2355
 20
171.758
 11
85.4261
 21
169.713
  0
LINE
  8
0
 10
85.4261
 20
169.713
 11
89.5654
 21
167.565
  0
LINE
  8
0
 10
89.5654
 20
167.565
 11
93.6507
 21
165.317
  0
LINE
  8
0
 10
93.6507
 20
165.317
 11
97.6795
 21
162.968
  0
LINE
  8
0
 10
97.6795
 20
162.968
 11
101.65
 21
160.522
  0
LINE
  8
0
 10
101.65
 20
160.522
 11
105.558
 21
157.979
  0
LINE
  8
0
 10
105.558
 20
157.979
 11
109.404
 21
155.341
  0
LINE
  8
0
 10
109.404
 20
155.341
 11
113.183
 21
152.609
  0
LINE
  8
0
 10
113.183
 20
152.609
 11
116.894
 21
149.786
  0
LINE
  8
0
 10
116.894
 20
149.786
 11
120.535
 21
146.872
  0
LINE
  8
0
 10
120.535
 20
146.872
 11
124.103
 21
143.87
  0
LINE
  8
0
 10
124.103
 20
143.87
 11
127.596
 21
140.781
  0
LINE
  8
0
 10
127.596
 20
140.781
 11
131.013
 21
137.607
  0
LINE
  8
0
 10
131.013
 20
137.607
 11
134.35
 21
134.35
  0
LINE
  8
0
 10
134.35
 20
134.35
 11
137.607
 21
131.013
  0
LINE
  8
0
 10
137.607
 20
131.013
 11
140.781
 21
127.596
  0
LINE
  8
0
 10
140.781
 20
127.596
 11
143.87
 21
124.103
  0
LINE
  8
0
 10
143.87
 20
124.103
 11
146.872
 21
120.535
  0
LINE
  8
0
 10
146.872
 20
120.535
 11
149.786
 21
116.894
  0
LINE
  8
0
 10
149.786
 20
116.894
 11
152.609
 21
113.183
  0
LINE
  8
0
 10
152.609
 20
113.183
 11
155.341
 21
109.404
  0
LINE
  8
0
 10
155.341
 20
109.404
 11
157.979
 21
105.558
  0
LINE
  8
0
 10
157.979
 20
105.558
 11
160.522
 21
101.65
  0
LINE
  8
0
 10
160.522
 20
101.65
 11
162.968
 21
97.6795
  0
LINE
  8
0
 10
162.968
 20
97.6795
 11
165.317
 21
93.6507
  0
LINE
  8
0
 10
165.317
 20
93.6507
 11
167.565
 21
89.5654
  0
LINE
  8
0
 10
167.565
 20
89.5654
 11
169.713
 21
85.4261
  0
LINE
  8
0
 10
169.713
 20
85.4261
 11
171.758
 21
81.2355
  0
LINE
  8
0
 10
171.758
 20
81.2355
 11
173.7
 21
76.9958
  0
LINE
  8
0
 10
173.7
 20
76.9958
 11
175.537
 21
72.7099
  0
LINE
  8
0
 10
175.537
 20
72.7099
 11
177.269
 21
68.3801
  0
LINE
  8
0
 10
177.269
 20
68.3801
 11
178.893
 21
64.0091
  0
LINE
  8
0
 10
178.893
 20
64.0091
 11
180.41
 21
59.5995
  0
LINE
  8
0
 10
180.41
 20
59.5995
 11
181.819
 21
55.1541
  0
LINE
  8
0
 10
181.819
 20
55.1541
 11
183.117
 21
50.6754
  0
LINE
  8
0
 10
183.117
 20
50.6754
 11
183.514
 21
49.1723
  0
LINE
  8
0
 10
183.514
 20
49.1723
 11
191.241
 21
51.2427
  0
LINE
  8
0
 10
-0.0877228
 20
193.306
 11
-0.174072
 21
193.322
  0
LINE
  8
0
 10
-0.174072
 20
193.322
 11
-0.257675
 21
193.349
  0
LINE
  8
0
 10
-0.257675
 20
193.349
 11
-0.337219
 21
193.387
  0
LINE
  8
0
 10
-0.337219
 20
193.387
 11
-0.411438
 21
193.434
  0
LINE
  8
0
 10
-0.411438
 20
193.434
 11
-0.479172
 21
193.49
  0
LINE
  8
0
 10
-0.479172
 20
193.49
 11
-0.539352
 21
193.554
  0
LINE
  8
0
 10
-0.539352
 20
193.554
 11
-0.591019
 21
193.625
  0
LINE
  8
0
 10
-0.591019
 20
193.625
 11
-0.633377
 21
193.702
  0
LINE
  8
0
 10
-0.633377
 20
193.702
 11
-0.665726
 21
193.784
  0
LINE
  8
0
 10
-0.665726
 20
193.784
 11
-0.687592
 21
193.869
  0
LINE
  8
0
 10
-0.687592
 20
193.869
 11
-0.698608
 21
193.956
  0
LINE
  8
0
 10
-0.698608
 20
193.956
 11
-0.698608
 21
194.044
  0
LINE
  8
0
 10
-0.698608
 20
194.044
 11
-0.687592
 21
194.131
  0
LINE
  8
0
 10
-0.687592
 20
194.131
 11
-0.665726
 21
194.216
  0
LINE
  8
0
 10
-0.665726
 20
194.216
 11
-0.633377
 21
194.298
  0
LINE
  8
0
 10
-0.633377
 20
194.298
 11
-0.591019
 21
194.375
  0
LINE
  8
0
 10
-0.591019
 20
194.375
 11
-0.539352
 21
194.446
  0
LINE
  8
0
 10
-0.539352
 20
194.446
 11
-0.479172
 21
194.51
  0
LINE
  8
0
 10
-0.479172
 20
194.51
 11
-0.411438
 21
194.566
  0
LINE
  8
0
 10
-0.411438
 20
194.566
 11
-0.337219
 21
194.613
  0
LINE
  8
0
 10
-0.337219
 20
194.613
 11
-0.257675
 21
194.651
  0
LINE
  8
0
 10
-0.257675
 20
194.651
 11
-0.174072
 21
194.678
  0
LINE
  8
0
 10
-0.174072
 20
194.678
 11
-0.0877228
 21
194.694
  0
LINE
  8
0
 10
-0.0877228
 20
194.694
 11
0
 21
194.7
  0
LINE
  8
0
 10
0
 20
194.7
 11
0.0877228
 21
194.694
  0
LINE
  8
0
 10
0.0877228
 20
194.694
 11
0.174072
 21
194.678
  0
LINE
  8
0
 10
0.174072
 20
194.678
 11
0.257675
 21
194.651
  0
LINE
  8
0
 10
0.257675
 20
194.651
 11
0.337219
 21
194.613
  0
LINE
  8
0
 10
0.337219
 20
194.613
 11
0.411438
 21
194.566
  0
LINE
  8
0
 10
0.411438
 20
194.566
 11
0.479172
 21
194.51
  0
LINE
  8
0
 10
0.479172
 20
194.51
 11
0.539352
 21
194.446
  0
LINE
  8
0
 10
0.539352
 20
194.446
 11
0.591019
 21
194.375
  0
LINE
  8
0
 10
0.591019
 20
194.375
 11
0.633377
 21
194.298
  0
LINE
  8
0
 10
0.633377
 20
194.298
 11
0.665726
 21
194.216
  0
LINE
  8
0
 10
0.665726
 20
194.216
 11
0.687592
 21
194.131
  0
LINE
  8
0
 10
0.687592
 20
194.131
 11
0.698608
 21
194.044
  0
LINE
  8
0
 10
0.698608
 20
194.044
 11
0.698608
 21
193.956
  0
LINE
  8
0
 10
0.698608
 20
193.956
 11
0.687592
 21
193.869
  0
LINE
  8
0
 10
0.687592
 20
193.869
 11
0.665726
 21
193.784
  0
LINE
  8
0
 10
0.665726
 20
193.784
 11
0.633377
 21
193.702
  0
LINE
  8
0
 10
0.633377
 20
193.702
 11
0.591019
 21
193.625
  0
LINE
  8
0
 10
0.591019
 20
193.625
 11
0.539352
 21
193.554
  0
LINE
  8
0
 10
0.539352
 20
193.554
 11
0.479172
 21
193.49
  0
LINE
  8
0
 10
0.479172
 20
193.49
 11
0.411438
 21
193.434
  0
LINE
  8
0
 10
0.411438
 20
193.434
 11
0.337219
 21
193.387
  0
LINE
  8
0
 10
0.337219
 20
193.387
 11
0.257675
 21
193.349
  0
LINE
  8
0
 10
0.257675
 20
193.349
 11
0.174072
 21
193.322
  0
LINE
  8
0
 10
0.174072
 20
193.322
 11
0.0877228
 21
193.306
  0
LINE
  8
0
 10
0.0877228
 20
193.306
 11
0
 21
193.3
  0
LINE
  8
0
 10
0
 20
193.3
 11
-0.0877228
 21
193.306
  0
LINE
  8
0
 10
-97.0732
 20
167.313
 11
-97.1598
 21
167.327
  0
LINE
  8
0
 10
-97.1598
 20
167.327
 11
-97.244
 21
167.353
  0
LINE
  8
0
 10
-97.244
 20
167.353
 11
-97.3243
 21
167.389
  0
LINE
  8
0
 10
-97.3243
 20
167.389
 11
-97.3995
 21
167.434
  0
LINE
  8
0
 10
-97.3995
 20
167.434
 11
-97.4684
 21
167.489
  0
LINE
  8
0
 10
-97.4684
 20
167.489
 11
-97.5299
 21
167.552
  0
LINE
  8
0
 10
-97.5299
 20
167.552
 11
-97.583
 21
167.622
  0
LINE
  8
0
 10
-97.583
 20
167.622
 11
-97.627
 21
167.698
  0
LINE
  8
0
 10
-97.627
 20
167.698
 11
-97.6611
 21
167.779
  0
LINE
  8
0
 10
-97.6611
 20
167.779
 11
-97.6847
 21
167.863
  0
LINE
  8
0
 10
-97.6847
 20
167.863
 11
-97.6975
 21
167.95
  0
LINE
  8
0
 10
-97.6975
 20
167.95
 11
-97.6994
 21
168.038
  0
LINE
  8
0
 10
-97.6994
 20
168.038
 11
-97.6902
 21
168.126
  0
LINE
  8
0
 10
-97.6902
 20
168.126
 11
-97.6701
 21
168.211
  0
LINE
  8
0
 10
-97.6701
 20
168.211
 11
-97.6395
 21
168.294
  0
LINE
  8
0
 10
-97.6395
 20
168.294
 11
-97.5988
 21
168.372
  0
LINE
  8
0
 10
-97.5988
 20
168.372
 11
-97.5486
 21
168.444
  0
LINE
  8
0
 10
-97.5486
 20
168.444
 11
-97.4898
 21
168.509
  0
LINE
  8
0
 10
-97.4898
 20
168.509
 11
-97.4232
 21
168.566
  0
LINE
  8
0
 10
-97.4232
 20
168.566
 11
-97.35
 21
168.615
  0
LINE
  8
0
 10
-97.35
 20
168.615
 11
-97.2713
 21
168.654
  0
LINE
  8
0
 10
-97.2713
 20
168.654
 11
-97.1882
 21
168.683
  0
LINE
  8
0
 10
-97.1882
 20
168.683
 11
-97.1022
 21
168.701
  0
LINE
  8
0
 10
-97.1022
 20
168.701
 11
-97.0146
 21
168.709
  0
LINE
  8
0
 10
-97.0146
 20
168.709
 11
-96.9268
 21
168.705
  0
LINE
  8
0
 10
-96.9268
 20
168.705
 11
-96.8401
 21
168.69
  0
LINE
  8
0
 10
-96.8401
 20
168.69
 11
-96.756
 21
168.665
  0
LINE
  8
0
 10
-96.756
 20
168.665
 11
-96.6757
 21
168.629
  0
LINE
  8
0
 10
-96.6757
 20
168.629
 11
-96.6005
 21
168.584
  0
LINE
  8
0
 10
-96.6005
 20
168.584
 11
-96.5316
 21
168.529
  0
LINE
  8
0
 10
-96.5316
 20
168.529
 11
-96.4701
 21
168.466
  0
LINE
  8
0
 10
-96.4701
 20
168.466
 11
-96.4169
 21
168.396
  0
LINE
  8
0
 10
-96.4169
 20
168.396
 11
-96.373
 21
168.32
  0
LINE
  8
0
 10
-96.373
 20
168.32
 11
-96.3389
 21
168.239
  0
LINE
  8
0
 10
-96.3389
 20
168.239
 11
-96.3153
 21
168.154
  0
LINE
  8
0
 10
-96.3153
 20
168.154
 11
-96.3024
 21
168.068
  0
LINE
  8
0
 10
-96.3024
 20
168.068
 11
-96.3006
 21
167.98
  0
LINE
  8
0
 10
-96.3006
 20
167.98
 11
-96.3098
 21
167.892
  0
LINE
  8
0
 10
-96.3098
 20
167.892
 11
-96.3299
 21
167.807
  0
LINE
  8
0
 10
-96.3299
 20
167.807
 11
-96.3605
 21
167.724
  0
LINE
  8
0
 10
-96.3605
 20
167.724
 11
-96.4012
 21
167.646
  0
LINE
  8
0
 10
-96.4012
 20
167.646
 11
-96.4514
 21
167.574
  0
LINE
  8
0
 10
-96.4514
 20
167.574
 11
-96.5102
 21
167.509
  0
LINE
  8
0
 10
-96.5102
 20
167.509
 11
-96.5768
 21
167.451
  0
LINE
  8
0
 10
-96.5768
 20
167.451
 11
-96.65
 21
167.403
  0
LINE
  8
0
 10
-96.65
 20
167.403
 11
-96.7287
 21
167.364
  0
LINE
  8
0
 10
-96.7287
 20
167.364
 11
-96.8118
 21
167.335
  0
LINE
  8
0
 10
-96.8118
 20
167.335
 11
-96.8977
 21
167.316
  0
LINE
  8
0
 10
-96.8977
 20
167.316
 11
-96.9853
 21
167.309
  0
LINE
  8
0
 10
-96.9853
 20
167.309
 11
-97.0732
 21
167.313
  0
LINE
  8
0
 10
96.8977
 20
167.316
 11
96.8118
 21
167.335
  0
LINE
  8
0
 10
96.8118
 20
167.335
 11
96.7287
 21
167.364
  0
LINE
  8
0
 10
96.7287
 20
167.364
 11
96.65
 21
167.403
  0
LINE
  8
0
 10
96.65
 20
167.403
 11
96.5768
 21
167.451
  0
LINE
  8
0
 10
96.5768
 20
167.451
 11
96.5102
 21
167.509
  0
LINE
  8
0
 10
96.5102
 20
167.509
 11
96.4514
 21
167.574
  0
LINE
  8
0
 10
96.4514
 20
167.574
 11
96.4012
 21
167.646
  0
LINE
  8
0
 10
96.4012
 20
167.646
 11
96.3605
 21
167.724
  0
LINE
  8
0
 10
96.3605
 20
167.724
 11
96.3299
 21
167.807
  0
LINE
  8
0
 10
96.3299
 20
167.807
 11
96.3098
 21
167.892
  0
LINE
  8
0
 10
96.3098
 20
167.892
 11
96.3006
 21
167.98
  0
LINE
  8
0
 10
96.3006
 20
167.98
 11
96.3024
 21
168.068
  0
LINE
  8
0
 10
96.3024
 20
168.068
 11
96.3153
 21
168.154
  0
LINE
  8
0
 10
96.3153
 20
168.154
 11
96.3389
 21
168.239
  0
LINE
  8
0
 10
96.3389
 20
168.239
 11
96.373
 21
168.32
  0
LINE
  8
0
 10
96.373
 20
168.32
 11
96.4169
 21
168.396
  0
LINE
  8
0
 10
96.4169
 20
168.396
 11
96.4701
 21
168.466
  0
LINE
  8
0
 10
96.4701
 20
168.466
 11
96.5316
 21
168.529
  0
LINE
  8
0
 10
96.5316
 20
168.529
 11
96.6005
 21
168.584
  0
LINE
  8
0
 10
96.6005
 20
168.584
 11
96.6757
 21
168.629
  0
LINE
  8
0
 10
96.6757
 20
168.629
 11
96.756
 21
168.665
  0
LINE
  8
0
 10
96.756
 20
168.665
 11
96.8401
 21
168.69
  0
LINE
  8
0
 10
96.8401
 20
168.69
 11
96.9268
 21
168.705
  0
LINE
  8
0
 10
96.9268
 20
168.705
 11
97.0146
 21
168.709
  0
LINE
  8
0
 10
97.0146
 20
168.709
 11
97.1022
 21
168.701
  0
LINE
  8
0
 10
97.1022
 20
168.701
 11
97.1882
 21
168.683
  0
LINE
  8
0
 10
97.1882
 20
168.683
 11
97.2713
 21
168.654
  0
LINE
  8
0
 10
97.2713
 20
168.654
 11
97.35
 21
168.615
  0
LINE
  8
0
 10
97.35
 20
168.615
 11
97.4232
 21
168.566
  0
LINE
  8
0
 10
97.4232
 20
168.566
 11
97.4898
 21
168.509
  0
LINE
  8
0
 10
97.4898
 20
168.509
 11
97.5486
 21
168.444
  0
LINE
  8
0
 10
97.5486
 20
168.444
 11
97.5988
 21
168.372
  0
LINE
  8
0
 10
97.5988
 20
168.372
 11
97.6395
 21
168.294
  0
LINE
  8
0
 10
97.6395
 20
168.294
 11
97.6701
 21
168.211
  0
LINE
  8
0
 10
97.6701
 20
168.211
 11
97.6902
 21
168.126
  0
LINE
  8
0
 10
97.6902
 20
168.126
 11
97.6994
 21
168.038
  0
LINE
  8
0
 10
97.6994
 20
168.038
 11
97.6975
 21
167.95
  0
LINE
  8
0
 10
97.6975
 20
167.95
 11
97.6847
 21
167.863
  0
LINE
  8
0
 10
97.6847
 20
167.863
 11
97.6611
 21
167.779
  0
LINE
  8
0
 10
97.6611
 20
167.779
 11
97.627
 21
167.698
  0
LINE
  8
0
 10
97.627
 20
167.698
 11
97.583
 21
167.622
  0
LINE
  8
0
 10
97.583
 20
167.622
 11
97.5299
 21
167.552
  0
LINE
  8
0
 10
97.5299
 20
167.552
 11
97.4684
 21
167.489
  0
LINE
  8
0
 10
97.4684
 20
167.489
 11
97.3995
 21
167.434
  0
LINE
  8
0
 10
97.3995
 20
167.434
 11
97.3243
 21
167.389
  0
LINE
  8
0
 10
97.3243
 20
167.389
 11
97.244
 21
167.353
  0
LINE
  8
0
 10
97.244
 20
167.353
 11
97.1598
 21
167.327
  0
LINE
  8
0
 10
97.1598
 20
167.327
 11
97.0732
 21
167.313
  0
LINE
  8
0
 10
97.0732
 20
167.313
 11
96.9853
 21
167.309
  0
LINE
  8
0
 10
96.9853
 20
167.309
 11
96.8977
 21
167.316
  0
LINE
  8
0
 10
167.892
 20
96.3098
 11
167.807
 21
96.3299
  0
LINE
  8
0
 10
167.807
 20
96.3299
 11
167.724
 21
96.3605
  0
LINE
  8
0
 10
167.724
 20
96.3605
 11
167.646
 21
96.4012
  0
LINE
  8
0
 10
167.646
 20
96.4012
 11
167.574
 21
96.4514
  0
LINE
  8
0
 10
167.574
 20
96.4514
 11
167.509
 21
96.5102
  0
LINE
  8
0
 10
167.509
 20
96.5102
 11
167.451
 21
96.5768
  0
LINE
  8
0
 10
167.451
 20
96.5768
 11
167.403
 21
96.65
  0
LINE
  8
0
 10
167.403
 20
96.65
 11
167.364
 21
96.7287
  0
LINE
  8
0
 10
167.364
 20
96.7287
 11
167.335
 21
96.8118
  0
LINE
  8
0
 10
167.335
 20
96.8118
 11
167.316
 21
96.8977
  0
LINE
  8
0
 10
167.316
 20
96.8977
 11
167.309
 21
96.9853
  0
LINE
  8
0
 10
167.309
 20
96.9853
 11
167.313
 21
97.0732
  0
LINE
  8
0
 10
167.313
 20
97.0732
 11
167.327
 21
97.1598
  0
LINE
  8
0
 10
167.327
 20
97.1598
 11
167.353
 21
97.244
  0
LINE
  8
0
 10
167.353
 20
97.244
 11
167.389
 21
97.3243
  0
LINE
  8
0
 10
167.389
 20
97.3243
 11
167.434
 21
97.3995
  0
LINE
  8
0
 10
167.434
 20
97.3995
 11
167.489
 21
97.4684
  0
LINE
  8
0
 10
167.489
 20
97.4684
 11
167.552
 21
97.5299
  0
LINE
  8
0
 10
167.552
 20
97.5299
 11
167.622
 21
97.583
  0
LINE
  8
0
 10
167.622
 20
97.583
 11
167.698
 21
97.627
  0
LINE
  8
0
 10
167.698
 20
97.627
 11
167.779
 21
97.6611
  0
LINE
  8
0
 10
167.779
 20
97.6611
 11
167.863
 21
97.6847
  0
LINE
  8
0
 10
167.863
 20
97.6847
 11
167.95
 21
97.6975
  0
LINE
  8
0
 10
167.95
 20
97.6975
 11
168.038
 21
97.6994
  0
LINE
  8
0
 10
168.038
 20
97.6994
 11
168.126
 21
97.6902
  0
LINE
  8
0
 10
168.126
 20
97.6902
 11
168.211
 21
97.6701
  0
LINE
  8
0
 10
168.211
 20
97.6701
 11
168.294
 21
97.6395
  0
LINE
  8
0
 10
168.294
 20
97.6395
 11
168.372
 21
97.5988
  0
LINE
  8
0
 10
168.372
 20
97.5988
 11
168.444
 21
97.5486
  0
LINE
  8
0
 10
168.444
 20
97.5486
 11
168.509
 21
97.4898
  0
LINE
  8
0
 10
168.509
 20
97.4898
 11
168.566
 21
97.4232
  0
LINE
  8
0
 10
168.566
 20
97.4232
 11
168.615
 21
97.35
  0
LINE
  8
0
 10
168.615
 20
97.35
 11
168.654
 21
97.2713
  0
LINE
  8
0
 10
168.654
 20
97.2713
 11
168.683
 21
97.1882
  0
LINE
  8
0
 10
168.683
 20
97.1882
 11
168.701
 21
97.1022
  0
LINE
  8
0
 10
168.701
 20
97.1022
 11
168.709
 21
97.0146
  0
LINE
  8
0
 10
168.709
 20
97.0146
 11
168.705
 21
96.9268
  0
LINE
  8
0
 10
168.705
 20
96.9268
 11
168.69
 21
96.8401
  0
LINE
  8
0
 10
168.69
 20
96.8401
 11
168.665
 21
96.756
  0
LINE
  8
0
 10
168.665
 20
96.756
 11
168.629
 21
96.6757
  0
LINE
  8
0
 10
168.629
 20
96.6757
 11
168.584
 21
96.6005
  0
LINE
  8
0
 10
168.584
 20
96.6005
 11
168.529
 21
96.5316
  0
LINE
  8
0
 10
168.529
 20
96.5316
 11
168.466
 21
96.4701
  0
LINE
  8
0
 10
168.466
 20
96.4701
 11
168.396
 21
96.4169
  0
LINE
  8
0
 10
168.396
 20
96.4169
 11
168.32
 21
96.373
  0
LINE
  8
0
 10
168.32
 20
96.373
 11
168.239
 21
96.3389
  0
LINE
  8
0
 10
168.239
 20
96.3389
 11
168.154
 21
96.3153
  0
LINE
  8
0
 10
168.154
 20
96.3153
 11
168.068
 21
96.3024
  0
LINE
  8
0
 10
168.068
 20
96.3024
 11
167.98
 21
96.3006
  0
LINE
  8
0
 10
167.98
 20
96.3006
 11
167.892
 21
96.3098
  0
ENDSEC
  0
SECTION
  2
OBJECTS
  0
DICTIONARY
  0
ENDSEC
  0
EOF
