  0
SECTION
  2
BLOCKS
  0
ENDSEC
  0
SECTION
  2
ENTITIES
  0
LINE
  8
0
 10
-198
 20
0
 11
-197.94
 21
-4.85916
  0
LINE
  8
0
 10
-197.94
 20
-4.85916
 11
-197.761
 21
-9.7154
  0
LINE
  8
0
 10
-197.761
 20
-9.7154
 11
-197.464
 21
-14.5658
  0
LINE
  8
0
 10
-197.464
 20
-14.5658
 11
-197.047
 21
-19.4074
  0
LINE
  8
0
 10
-197.047
 20
-19.4074
 11
-196.511
 21
-24.2373
  0
LINE
  8
0
 10
-196.511
 20
-24.2373
 11
-195.857
 21
-29.0526
  0
LINE
  8
0
 10
-195.857
 20
-29.0526
 11
-195.085
 21
-33.8505
  0
LINE
  8
0
 10
-195.085
 20
-33.8505
 11
-194.195
 21
-38.6279
  0
LINE
  8
0
 10
-194.195
 20
-38.6279
 11
-193.189
 21
-43.382
  0
LINE
  8
0
 10
-193.189
 20
-43.382
 11
-192.066
 21
-48.1101
  0
LINE
  8
0
 10
-192.066
 20
-48.1101
 11
-190.828
 21
-52.8091
  0
LINE
  8
0
 10
-190.828
 20
-52.8091
 11
-189.474
 21
-57.4764
  0
LINE
  8
0
 10
-189.474
 20
-57.4764
 11
-188.007
 21
-62.109
  0
LINE
  8
0
 10
-188.007
 20
-62.109
 11
-186.426
 21
-66.7042
  0
LINE
  8
0
 10
-186.426
 20
-66.7042
 11
-184.733
 21
-71.2592
  0
LINE
  8
0
 10
-184.733
 20
-71.2592
 11
-182.928
 21
-75.7713
  0
LINE
  8
0
 10
-182.928
 20
-75.7713
 11
-181.014
 21
-80.2378
  0
LINE
  8
0
 10
-181.014
 20
-80.2378
 11
-178.99
 21
-84.6559
  0
LINE
  8
0
 10
-178.99
 20
-84.6559
 11
-176.858
 21
-89.023
  0
LINE
  8
0
 10
-176.858
 20
-89.023
 11
-174.62
 21
-93.3366
  0
LINE
  8
0
 10
-174.62
 20
-93.3366
 11
-172.277
 21
-97.5938
  0
LINE
  8
0
 10
-172.277
 20
-97.5938
 11
-169.83
 21
-101.792
  0
LINE
  8
0
 10
-169.83
 20
-101.792
 11
-167.281
 21
-105.93
  0
LINE
  8
0
 10
-167.281
 20
-105.93
 11
-164.631
 21
-110.003
  0
LINE
  8
0
 10
-164.631
 20
-110.003
 11
-161.882
 21
-114.01
  0
LINE
  8
0
 10
-161.882
 20
-114.01
 11
-159.035
 21
-117.948
  0
LINE
  8
0
 10
-159.035
 20
-117.948
 11
-156.093
 21
-121.816
  0
LINE
  8
0
 10
-156.093
 20
-121.816
 11
-153.056
 21
-125.61
  0
LINE
  8
0
 10
-153.056
 20
-125.61
 11
-149.927
 21
-129.328
  0
LINE
  8
0
 10
-149.927
 20
-129.328
 11
-146.708
 21
-132.969
  0
LINE
  8
0
 10
-146.708
 20
-132.969
 11
-143.401
 21
-136.529
  0
LINE
  8
0
 10
-143.401
 20
-136.529
 11
-140.007
 21
-140.007
  0
LINE
  8
0
 10
-140.007
 20
-140.007
 11
-136.529
 21
-143.401
  0
LINE
  8
0
 10
-136.529
 20
-143.401
 11
-132.969
 21
-146.708
  0
LINE
  8
0
 10
-132.969
 20
-146.708
 11
-129.328
 21
-149.927
  0
LINE
  8
0
 10
-129.328
 20
-149.927
 11
-125.61
 21
-153.056
  0
LINE
  8
0
 10
-125.61
 20
-153.056
 11
-121.816
 21
-156.093
  0
LINE
  8
0
 10
-121.816
 20
-156.093
 11
-117.948
 21
-159.035
  0
LINE
  8
0
 10
-117.948
 20
-159.035
 11
-114.01
 21
-161.882
  0
LINE
  8
0
 10
-114.01
 20
-161.882
 11
-110.003
 21
-164.631
  0
LINE
  8
0
 10
-110.003
 20
-164.631
 11
-105.93
 21
-167.281
  0
LINE
  8
0
 10
-105.93
 20
-167.281
 11
-101.792
 21
-169.83
  0
LINE
  8
0
 10
-101.792
 20
-169.83
 11
-97.5938
 21
-172.277
  0
LINE
  8
0
 10
-97.5938
 20
-172.277
 11
-93.3366
 21
-174.62
  0
LINE
  8
0
 10
-93.3366
 20
-174.62
 11
-89.023
 21
-176.858
  0
LINE
  8
0
 10
-89.023
 20
-176.858
 11
-84.6559
 21
-178.99
  0
LINE
  8
0
 10
-84.6559
 20
-178.99
 11
-80.2378
 21
-181.014
  0
LINE
  8
0
 10
-80.2378
 20
-181.014
 11
-75.7713
 21
-182.928
  0
LINE
  8
0
 10
-75.7713
 20
-182.928
 11
-71.2592
 21
-184.733
  0
LINE
  8
0
 10
-71.2592
 20
-184.733
 11
-66.7042
 21
-186.426
  0
LINE
  8
0
 10
-66.7042
 20
-186.426
 11
-62.109
 21
-188.007
  0
LINE
  8
0
 10
-62.109
 20
-188.007
 11
-57.4764
 21
-189.474
  0
LINE
  8
0
 10
-57.4764
 20
-189.474
 11
-52.8091
 21
-190.828
  0
LINE
  8
0
 10
-52.8091
 20
-190.828
 11
-48.1101
 21
-192.066
  0
LINE
  8
0
 10
-48.1101
 20
-192.066
 11
-43.382
 21
-193.189
  0
LINE
  8
0
 10
-43.382
 20
-193.189
 11
-38.6279
 21
-194.195
  0
LINE
  8
0
 10
-38.6279
 20
-194.195
 11
-33.8505
 21
-195.085
  0
LINE
  8
0
 10
-33.8505
 20
-195.085
 11
-29.0526
 21
-195.857
  0
LINE
  8
0
 10
-29.0526
 20
-195.857
 11
-24.2373
 21
-196.511
  0
LINE
  8
0
 10
-24.2373
 20
-196.511
 11
-19.4074
 21
-197.047
  0
LINE
  8
0
 10
-19.4074
 20
-197.047
 11
-14.5658
 21
-197.464
  0
LINE
  8
0
 10
-14.5658
 20
-197.464
 11
-9.7154
 21
-197.761
  0
LINE
  8
0
 10
-9.7154
 20
-197.761
 11
-4.85916
 21
-197.94
  0
LINE
  8
0
 10
-4.85916
 20
-197.94
 11
0
 21
-198
  0
LINE
  8
0
 10
0
 20
-198
 11
4.85916
 21
-197.94
  0
LINE
  8
0
 10
4.85916
 20
-197.94
 11
9.7154
 21
-197.761
  0
LINE
  8
0
 10
9.7154
 20
-197.761
 11
14.5658
 21
-197.464
  0
LINE
  8
0
 10
14.5658
 20
-197.464
 11
19.4074
 21
-197.047
  0
LINE
  8
0
 10
19.4074
 20
-197.047
 11
24.2373
 21
-196.511
  0
LINE
  8
0
 10
24.2373
 20
-196.511
 11
29.0526
 21
-195.857
  0
LINE
  8
0
 10
29.0526
 20
-195.857
 11
33.8505
 21
-195.085
  0
LINE
  8
0
 10
33.8505
 20
-195.085
 11
38.6279
 21
-194.195
  0
LINE
  8
0
 10
38.6279
 20
-194.195
 11
43.382
 21
-193.189
  0
LINE
  8
0
 10
43.382
 20
-193.189
 11
48.1101
 21
-192.066
  0
LINE
  8
0
 10
48.1101
 20
-192.066
 11
52.8091
 21
-190.828
  0
LINE
  8
0
 10
52.8091
 20
-190.828
 11
57.4764
 21
-189.474
  0
LINE
  8
0
 10
57.4764
 20
-189.474
 11
62.109
 21
-188.007
  0
LINE
  8
0
 10
62.109
 20
-188.007
 11
66.7042
 21
-186.426
  0
LINE
  8
0
 10
66.7042
 20
-186.426
 11
71.2592
 21
-184.733
  0
LINE
  8
0
 10
71.2592
 20
-184.733
 11
75.7713
 21
-182.928
  0
LINE
  8
0
 10
75.7713
 20
-182.928
 11
80.2378
 21
-181.014
  0
LINE
  8
0
 10
80.2378
 20
-181.014
 11
84.6559
 21
-178.99
  0
LINE
  8
0
 10
84.6559
 20
-178.99
 11
89.023
 21
-176.858
  0
LINE
  8
0
 10
89.023
 20
-176.858
 11
93.3366
 21
-174.62
  0
LINE
  8
0
 10
93.3366
 20
-174.62
 11
97.5938
 21
-172.277
  0
LINE
  8
0
 10
97.5938
 20
-172.277
 11
101.792
 21
-169.83
  0
LINE
  8
0
 10
101.792
 20
-169.83
 11
105.93
 21
-167.281
  0
LINE
  8
0
 10
105.93
 20
-167.281
 11
110.003
 21
-164.631
  0
LINE
  8
0
 10
110.003
 20
-164.631
 11
114.01
 21
-161.882
  0
LINE
  8
0
 10
114.01
 20
-161.882
 11
117.948
 21
-159.035
  0
LINE
  8
0
 10
117.948
 20
-159.035
 11
121.816
 21
-156.093
  0
LINE
  8
0
 10
121.816
 20
-156.093
 11
125.61
 21
-153.056
  0
LINE
  8
0
 10
125.61
 20
-153.056
 11
129.328
 21
-149.927
  0
LINE
  8
0
 10
129.328
 20
-149.927
 11
132.969
 21
-146.708
  0
LINE
  8
0
 10
132.969
 20
-146.708
 11
136.529
 21
-143.401
  0
LINE
  8
0
 10
136.529
 20
-143.401
 11
140.007
 21
-140.007
  0
LINE
  8
0
 10
140.007
 20
-140.007
 11
143.401
 21
-136.529
  0
LINE
  8
0
 10
143.401
 20
-136.529
 11
146.708
 21
-132.969
  0
LINE
  8
0
 10
146.708
 20
-132.969
 11
149.927
 21
-129.328
  0
LINE
  8
0
 10
149.927
 20
-129.328
 11
153.056
 21
-125.61
  0
LINE
  8
0
 10
153.056
 20
-125.61
 11
156.093
 21
-121.816
  0
LINE
  8
0
 10
156.093
 20
-121.816
 11
159.035
 21
-117.948
  0
LINE
  8
0
 10
159.035
 20
-117.948
 11
161.882
 21
-114.01
  0
LINE
  8
0
 10
161.882
 20
-114.01
 11
164.631
 21
-110.003
  0
LINE
  8
0
 10
164.631
 20
-110.003
 11
167.281
 21
-105.93
  0
LINE
  8
0
 10
167.281
 20
-105.93
 11
169.83
 21
-101.792
  0
LINE
  8
0
 10
169.83
 20
-101.792
 11
172.277
 21
-97.5938
  0
LINE
  8
0
 10
172.277
 20
-97.5938
 11
174.62
 21
-93.3366
  0
LINE
  8
0
 10
174.62
 20
-93.3366
 11
176.858
 21
-89.023
  0
LINE
  8
0
 10
176.858
 20
-89.023
 11
178.99
 21
-84.6559
  0
LINE
  8
0
 10
178.99
 20
-84.6559
 11
181.014
 21
-80.2378
  0
LINE
  8
0
 10
181.014
 20
-80.2378
 11
182.928
 21
-75.7713
  0
LINE
  8
0
 10
182.928
 20
-75.7713
 11
184.733
 21
-71.2592
  0
LINE
  8
0
 10
184.733
 20
-71.2592
 11
186.426
 21
-66.7042
  0
LINE
  8
0
 10
186.426
 20
-66.7042
 11
188.007
 21
-62.109
  0
LINE
  8
0
 10
188.007
 20
-62.109
 11
189.474
 21
-57.4764
  0
LINE
  8
0
 10
189.474
 20
-57.4764
 11
190.828
 21
-52.8091
  0
LINE
  8
0
 10
190.828
 20
-52.8091
 11
192.066
 21
-48.1101
  0
LINE
  8
0
 10
192.066
 20
-48.1101
 11
193.189
 21
-43.382
  0
LINE
  8
0
 10
193.189
 20
-43.382
 11
194.195
 21
-38.6279
  0
LINE
  8
0
 10
194.195
 20
-38.6279
 11
195.085
 21
-33.8505
  0
LINE
  8
0
 10
195.085
 20
-33.8505
 11
195.857
 21
-29.0526
  0
LINE
  8
0
 10
195.857
 20
-29.0526
 11
196.511
 21
-24.2373
  0
LINE
  8
0
 10
196.511
 20
-24.2373
 11
197.047
 21
-19.4074
  0
LINE
  8
0
 10
197.047
 20
-19.4074
 11
197.464
 21
-14.5658
  0
LINE
  8
0
 10
197.464
 20
-14.5658
 11
197.761
 21
-9.7154
  0
LINE
  8
0
 10
197.761
 20
-9.7154
 11
197.94
 21
-4.85916
  0
LINE
  8
0
 10
197.94
 20
-4.85916
 11
198
 21
0
  0
LINE
  8
0
 10
198
 20
0
 11
197.94
 21
4.85916
  0
LINE
  8
0
 10
197.94
 20
4.85916
 11
197.761
 21
9.7154
  0
LINE
  8
0
 10
197.761
 20
9.7154
 11
197.464
 21
14.5658
  0
LINE
  8
0
 10
197.464
 20
14.5658
 11
197.047
 21
19.4074
  0
LINE
  8
0
 10
197.047
 20
19.4074
 11
196.511
 21
24.2373
  0
LINE
  8
0
 10
196.511
 20
24.2373
 11
195.857
 21
29.0526
  0
LINE
  8
0
 10
195.857
 20
29.0526
 11
195.085
 21
33.8505
  0
LINE
  8
0
 10
195.085
 20
33.8505
 11
194.195
 21
38.6279
  0
LINE
  8
0
 10
194.195
 20
38.6279
 11
193.189
 21
43.382
  0
LINE
  8
0
 10
193.189
 20
43.382
 11
192.066
 21
48.1101
  0
LINE
  8
0
 10
192.066
 20
48.1101
 11
190.828
 21
52.8091
  0
LINE
  8
0
 10
190.828
 20
52.8091
 11
189.474
 21
57.4764
  0
LINE
  8
0
 10
189.474
 20
57.4764
 11
188.007
 21
62.109
  0
LINE
  8
0
 10
188.007
 20
62.109
 11
186.426
 21
66.7042
  0
LINE
  8
0
 10
186.426
 20
66.7042
 11
184.733
 21
71.2592
  0
LINE
  8
0
 10
184.733
 20
71.2592
 11
182.928
 21
75.7713
  0
LINE
  8
0
 10
182.928
 20
75.7713
 11
181.014
 21
80.2378
  0
LINE
  8
0
 10
181.014
 20
80.2378
 11
178.99
 21
84.6559
  0
LINE
  8
0
 10
178.99
 20
84.6559
 11
176.858
 21
89.023
  0
LINE
  8
0
 10
176.858
 20
89.023
 11
174.62
 21
93.3366
  0
LINE
  8
0
 10
174.62
 20
93.3366
 11
172.277
 21
97.5938
  0
LINE
  8
0
 10
172.277
 20
97.5938
 11
169.83
 21
101.792
  0
LINE
  8
0
 10
169.83
 20
101.792
 11
167.281
 21
105.93
  0
LINE
  8
0
 10
167.281
 20
105.93
 11
164.631
 21
110.003
  0
LINE
  8
0
 10
164.631
 20
110.003
 11
161.882
 21
114.01
  0
LINE
  8
0
 10
161.882
 20
114.01
 11
159.035
 21
117.948
  0
LINE
  8
0
 10
159.035
 20
117.948
 11
156.093
 21
121.816
  0
LINE
  8
0
 10
156.093
 20
121.816
 11
153.056
 21
125.61
  0
LINE
  8
0
 10
153.056
 20
125.61
 11
149.927
 21
129.328
  0
LINE
  8
0
 10
149.927
 20
129.328
 11
146.708
 21
132.969
  0
LINE
  8
0
 10
146.708
 20
132.969
 11
143.401
 21
136.529
  0
LINE
  8
0
 10
143.401
 20
136.529
 11
140.007
 21
140.007
  0
LINE
  8
0
 10
140.007
 20
140.007
 11
136.529
 21
143.401
  0
LINE
  8
0
 10
136.529
 20
143.401
 11
132.969
 21
146.708
  0
LINE
  8
0
 10
132.969
 20
146.708
 11
129.328
 21
149.927
  0
LINE
  8
0
 10
129.328
 20
149.927
 11
125.61
 21
153.056
  0
LINE
  8
0
 10
125.61
 20
153.056
 11
121.816
 21
156.093
  0
LINE
  8
0
 10
121.816
 20
156.093
 11
117.948
 21
159.035
  0
LINE
  8
0
 10
117.948
 20
159.035
 11
114.01
 21
161.882
  0
LINE
  8
0
 10
114.01
 20
161.882
 11
110.003
 21
164.631
  0
LINE
  8
0
 10
110.003
 20
164.631
 11
105.93
 21
167.281
  0
LINE
  8
0
 10
105.93
 20
167.281
 11
101.792
 21
169.83
  0
LINE
  8
0
 10
101.792
 20
169.83
 11
97.5938
 21
172.277
  0
LINE
  8
0
 10
97.5938
 20
172.277
 11
93.3366
 21
174.62
  0
LINE
  8
0
 10
93.3366
 20
174.62
 11
89.023
 21
176.858
  0
LINE
  8
0
 10
89.023
 20
176.858
 11
84.6559
 21
178.99
  0
LINE
  8
0
 10
84.6559
 20
178.99
 11
80.2378
 21
181.014
  0
LINE
  8
0
 10
80.2378
 20
181.014
 11
75.7713
 21
182.928
  0
LINE
  8
0
 10
75.7713
 20
182.928
 11
71.2592
 21
184.733
  0
LINE
  8
0
 10
71.2592
 20
184.733
 11
66.7042
 21
186.426
  0
LINE
  8
0
 10
66.7042
 20
186.426
 11
62.109
 21
188.007
  0
LINE
  8
0
 10
62.109
 20
188.007
 11
57.4764
 21
189.474
  0
LINE
  8
0
 10
57.4764
 20
189.474
 11
52.8091
 21
190.828
  0
LINE
  8
0
 10
52.8091
 20
190.828
 11
48.1101
 21
192.066
  0
LINE
  8
0
 10
48.1101
 20
192.066
 11
43.382
 21
193.189
  0
LINE
  8
0
 10
43.382
 20
193.189
 11
38.6279
 21
194.195
  0
LINE
  8
0
 10
38.6279
 20
194.195
 11
33.8505
 21
195.085
  0
LINE
  8
0
 10
33.8505
 20
195.085
 11
29.0526
 21
195.857
  0
LINE
  8
0
 10
29.0526
 20
195.857
 11
24.2373
 21
196.511
  0
LINE
  8
0
 10
24.2373
 20
196.511
 11
19.4074
 21
197.047
  0
LINE
  8
0
 10
19.4074
 20
197.047
 11
14.5658
 21
197.464
  0
LINE
  8
0
 10
14.5658
 20
197.464
 11
9.7154
 21
197.761
  0
LINE
  8
0
 10
9.7154
 20
197.761
 11
4.85916
 21
197.94
  0
LINE
  8
0
 10
4.85916
 20
197.94
 11
0
 21
198
  0
LINE
  8
0
 10
0
 20
198
 11
-4.85916
 21
197.94
  0
LINE
  8
0
 10
-4.85916
 20
197.94
 11
-9.7154
 21
197.761
  0
LINE
  8
0
 10
-9.7154
 20
197.761
 11
-14.5658
 21
197.464
  0
LINE
  8
0
 10
-14.5658
 20
197.464
 11
-19.4074
 21
197.047
  0
LINE
  8
0
 10
-19.4074
 20
197.047
 11
-24.2373
 21
196.511
  0
LINE
  8
0
 10
-24.2373
 20
196.511
 11
-29.0526
 21
195.857
  0
LINE
  8
0
 10
-29.0526
 20
195.857
 11
-33.8505
 21
195.085
  0
LINE
  8
0
 10
-33.8505
 20
195.085
 11
-38.6279
 21
194.195
  0
LINE
  8
0
 10
-38.6279
 20
194.195
 11
-43.382
 21
193.189
  0
LINE
  8
0
 10
-43.382
 20
193.189
 11
-48.1101
 21
192.066
  0
LINE
  8
0
 10
-48.1101
 20
192.066
 11
-52.8091
 21
190.828
  0
LINE
  8
0
 10
-52.8091
 20
190.828
 11
-57.4764
 21
189.474
  0
LINE
  8
0
 10
-57.4764
 20
189.474
 11
-62.109
 21
188.007
  0
LINE
  8
0
 10
-62.109
 20
188.007
 11
-66.7042
 21
186.426
  0
LINE
  8
0
 10
-66.7042
 20
186.426
 11
-71.2592
 21
184.733
  0
LINE
  8
0
 10
-71.2592
 20
184.733
 11
-75.7713
 21
182.928
  0
LINE
  8
0
 10
-75.7713
 20
182.928
 11
-80.2378
 21
181.014
  0
LINE
  8
0
 10
-80.2378
 20
181.014
 11
-84.6559
 21
178.99
  0
LINE
  8
0
 10
-84.6559
 20
178.99
 11
-89.023
 21
176.858
  0
LINE
  8
0
 10
-89.023
 20
176.858
 11
-93.3366
 21
174.62
  0
LINE
  8
0
 10
-93.3366
 20
174.62
 11
-97.5938
 21
172.277
  0
LINE
  8
0
 10
-97.5938
 20
172.277
 11
-101.792
 21
169.83
  0
LINE
  8
0
 10
-101.792
 20
169.83
 11
-105.93
 21
167.281
  0
LINE
  8
0
 10
-105.93
 20
167.281
 11
-110.003
 21
164.631
  0
LINE
  8
0
 10
-110.003
 20
164.631
 11
-114.01
 21
161.882
  0
LINE
  8
0
 10
-114.01
 20
161.882
 11
-117.948
 21
159.035
  0
LINE
  8
0
 10
-117.948
 20
159.035
 11
-121.816
 21
156.093
  0
LINE
  8
0
 10
-121.816
 20
156.093
 11
-125.61
 21
153.056
  0
LINE
  8
0
 10
-125.61
 20
153.056
 11
-129.328
 21
149.927
  0
LINE
  8
0
 10
-129.328
 20
149.927
 11
-132.969
 21
146.708
  0
LINE
  8
0
 10
-132.969
 20
146.708
 11
-136.529
 21
143.401
  0
LINE
  8
0
 10
-136.529
 20
143.401
 11
-140.007
 21
140.007
  0
LINE
  8
0
 10
-140.007
 20
140.007
 11
-143.401
 21
136.529
  0
LINE
  8
0
 10
-143.401
 20
136.529
 11
-146.708
 21
132.969
  0
LINE
  8
0
 10
-146.708
 20
132.969
 11
-149.927
 21
129.328
  0
LINE
  8
0
 10
-149.927
 20
129.328
 11
-153.056
 21
125.61
  0
LINE
  8
0
 10
-153.056
 20
125.61
 11
-156.093
 21
121.816
  0
LINE
  8
0
 10
-156.093
 20
121.816
 11
-159.035
 21
117.948
  0
LINE
  8
0
 10
-159.035
 20
117.948
 11
-161.882
 21
114.01
  0
LINE
  8
0
 10
-161.882
 20
114.01
 11
-164.631
 21
110.003
  0
LINE
  8
0
 10
-164.631
 20
110.003
 11
-167.281
 21
105.93
  0
LINE
  8
0
 10
-167.281
 20
105.93
 11
-169.83
 21
101.792
  0
LINE
  8
0
 10
-169.83
 20
101.792
 11
-172.277
 21
97.5938
  0
LINE
  8
0
 10
-172.277
 20
97.5938
 11
-174.62
 21
93.3366
  0
LINE
  8
0
 10
-174.62
 20
93.3366
 11
-176.858
 21
89.023
  0
LINE
  8
0
 10
-176.858
 20
89.023
 11
-178.99
 21
84.6559
  0
LINE
  8
0
 10
-178.99
 20
84.6559
 11
-181.014
 21
80.2378
  0
LINE
  8
0
 10
-181.014
 20
80.2378
 11
-182.928
 21
75.7713
  0
LINE
  8
0
 10
-182.928
 20
75.7713
 11
-184.733
 21
71.2592
  0
LINE
  8
0
 10
-184.733
 20
71.2592
 11
-186.426
 21
66.7042
  0
LINE
  8
0
 10
-186.426
 20
66.7042
 11
-188.007
 21
62.109
  0
LINE
  8
0
 10
-188.007
 20
62.109
 11
-189.474
 21
57.4764
  0
LINE
  8
0
 10
-189.474
 20
57.4764
 11
-190.828
 21
52.8091
  0
LINE
  8
0
 10
-190.828
 20
52.8091
 11
-192.066
 21
48.1101
  0
LINE
  8
0
 10
-192.066
 20
48.1101
 11
-193.189
 21
43.382
  0
LINE
  8
0
 10
-193.189
 20
43.382
 11
-194.195
 21
38.6279
  0
LINE
  8
0
 10
-194.195
 20
38.6279
 11
-195.085
 21
33.8505
  0
LINE
  8
0
 10
-195.085
 20
33.8505
 11
-195.857
 21
29.0526
  0
LINE
  8
0
 10
-195.857
 20
29.0526
 11
-196.511
 21
24.2373
  0
LINE
  8
0
 10
-196.511
 20
24.2373
 11
-197.047
 21
19.4074
  0
LINE
  8
0
 10
-197.047
 20
19.4074
 11
-197.464
 21
14.5658
  0
LINE
  8
0
 10
-197.464
 20
14.5658
 11
-197.761
 21
9.7154
  0
LINE
  8
0
 10
-197.761
 20
9.7154
 11
-197.94
 21
4.85916
  0
LINE
  8
0
 10
-197.94
 20
4.85916
 11
-198
 21
0
  0
LINE
  8
0
 10
-194.7
 20
0
 11
-194.694
 21
0.0877323
  0
LINE
  8
0
 10
-194.694
 20
0.0877323
 11
-194.678
 21
0.174083
  0
LINE
  8
0
 10
-194.678
 20
0.174083
 11
-194.651
 21
0.257687
  0
LINE
  8
0
 10
-194.651
 20
0.257687
 11
-194.613
 21
0.337227
  0
LINE
  8
0
 10
-194.613
 20
0.337227
 11
-194.566
 21
0.411449
  0
LINE
  8
0
 10
-194.566
 20
0.411449
 11
-194.51
 21
0.479182
  0
LINE
  8
0
 10
-194.51
 20
0.479182
 11
-194.446
 21
0.539359
  0
LINE
  8
0
 10
-194.446
 20
0.539359
 11
-194.375
 21
0.591029
  0
LINE
  8
0
 10
-194.375
 20
0.591029
 11
-194.298
 21
0.633378
  0
LINE
  8
0
 10
-194.298
 20
0.633378
 11
-194.216
 21
0.665739
  0
LINE
  8
0
 10
-194.216
 20
0.665739
 11
-194.131
 21
0.6876
  0
LINE
  8
0
 10
-194.131
 20
0.6876
 11
-194.044
 21
0.698618
  0
LINE
  8
0
 10
-194.044
 20
0.698618
 11
-193.956
 21
0.698618
  0
LINE
  8
0
 10
-193.956
 20
0.698618
 11
-193.869
 21
0.6876
  0
LINE
  8
0
 10
-193.869
 20
0.6876
 11
-193.784
 21
0.665739
  0
LINE
  8
0
 10
-193.784
 20
0.665739
 11
-193.702
 21
0.633378
  0
LINE
  8
0
 10
-193.702
 20
0.633378
 11
-193.625
 21
0.591029
  0
LINE
  8
0
 10
-193.625
 20
0.591029
 11
-193.554
 21
0.539359
  0
LINE
  8
0
 10
-193.554
 20
0.539359
 11
-193.49
 21
0.479182
  0
LINE
  8
0
 10
-193.49
 20
0.479182
 11
-193.434
 21
0.411449
  0
LINE
  8
0
 10
-193.434
 20
0.411449
 11
-193.387
 21
0.337227
  0
LINE
  8
0
 10
-193.387
 20
0.337227
 11
-193.349
 21
0.257687
  0
LINE
  8
0
 10
-193.349
 20
0.257687
 11
-193.322
 21
0.174083
  0
LINE
  8
0
 10
-193.322
 20
0.174083
 11
-193.306
 21
0.0877323
  0
LINE
  8
0
 10
-193.306
 20
0.0877323
 11
-193.3
 21
0
  0
LINE
  8
0
 10
-193.3
 20
0
 11
-193.306
 21
-0.0877323
  0
LINE
  8
0
 10
-193.306
 20
-0.0877323
 11
-193.322
 21
-0.174083
  0
LINE
  8
0
 10
-193.322
 20
-0.174083
 11
-193.349
 21
-0.257687
  0
LINE
  8
0
 10
-193.349
 20
-0.257687
 11
-193.387
 21
-0.337227
  0
LINE
  8
0
 10
-193.387
 20
-0.337227
 11
-193.434
 21
-0.411449
  0
LINE
  8
0
 10
-193.434
 20
-0.411449
 11
-193.49
 21
-0.479182
  0
LINE
  8
0
 10
-193.49
 20
-0.479182
 11
-193.554
 21
-0.539359
  0
LINE
  8
0
 10
-193.554
 20
-0.539359
 11
-193.625
 21
-0.591029
  0
LINE
  8
0
 10
-193.625
 20
-0.591029
 11
-193.702
 21
-0.633378
  0
LINE
  8
0
 10
-193.702
 20
-0.633378
 11
-193.784
 21
-0.665739
  0
LINE
  8
0
 10
-193.784
 20
-0.665739
 11
-193.869
 21
-0.6876
  0
LINE
  8
0
 10
-193.869
 20
-0.6876
 11
-193.956
 21
-0.698618
  0
LINE
  8
0
 10
-193.956
 20
-0.698618
 11
-194.044
 21
-0.698618
  0
LINE
  8
0
 10
-194.044
 20
-0.698618
 11
-194.131
 21
-0.6876
  0
LINE
  8
0
 10
-194.131
 20
-0.6876
 11
-194.216
 21
-0.665739
  0
LINE
  8
0
 10
-194.216
 20
-0.665739
 11
-194.298
 21
-0.633378
  0
LINE
  8
0
 10
-194.298
 20
-0.633378
 11
-194.375
 21
-0.591029
  0
LINE
  8
0
 10
-194.375
 20
-0.591029
 11
-194.446
 21
-0.539359
  0
LINE
  8
0
 10
-194.446
 20
-0.539359
 11
-194.51
 21
-0.479182
  0
LINE
  8
0
 10
-194.51
 20
-0.479182
 11
-194.566
 21
-0.411449
  0
LINE
  8
0
 10
-194.566
 20
-0.411449
 11
-194.613
 21
-0.337227
  0
LINE
  8
0
 10
-194.613
 20
-0.337227
 11
-194.651
 21
-0.257687
  0
LINE
  8
0
 10
-194.651
 20
-0.257687
 11
-194.678
 21
-0.174083
  0
LINE
  8
0
 10
-194.678
 20
-0.174083
 11
-194.694
 21
-0.0877323
  0
LINE
  8
0
 10
-194.694
 20
-0.0877323
 11
-194.7
 21
0
  0
LINE
  8
0
 10
-168.709
 20
-97.0147
 11
-168.705
 21
-96.9268
  0
LINE
  8
0
 10
-168.705
 20
-96.9268
 11
-168.69
 21
-96.8402
  0
LINE
  8
0
 10
-168.69
 20
-96.8402
 11
-168.665
 21
-96.756
  0
LINE
  8
0
 10
-168.665
 20
-96.756
 11
-168.629
 21
-96.6757
  0
LINE
  8
0
 10
-168.629
 20
-96.6757
 11
-168.584
 21
-96.6005
  0
LINE
  8
0
 10
-168.584
 20
-96.6005
 11
-168.529
 21
-96.5316
  0
LINE
  8
0
 10
-168.529
 20
-96.5316
 11
-168.466
 21
-96.4701
  0
LINE
  8
0
 10
-168.466
 20
-96.4701
 11
-168.396
 21
-96.417
  0
LINE
  8
0
 10
-168.396
 20
-96.417
 11
-168.32
 21
-96.373
  0
LINE
  8
0
 10
-168.32
 20
-96.373
 11
-168.239
 21
-96.3389
  0
LINE
  8
0
 10
-168.239
 20
-96.3389
 11
-168.154
 21
-96.3153
  0
LINE
  8
0
 10
-168.154
 20
-96.3153
 11
-168.068
 21
-96.3025
  0
LINE
  8
0
 10
-168.068
 20
-96.3025
 11
-167.98
 21
-96.3006
  0
LINE
  8
0
 10
-167.98
 20
-96.3006
 11
-167.892
 21
-96.3098
  0
LINE
  8
0
 10
-167.892
 20
-96.3098
 11
-167.807
 21
-96.3299
  0
LINE
  8
0
 10
-167.807
 20
-96.3299
 11
-167.724
 21
-96.3605
  0
LINE
  8
0
 10
-167.724
 20
-96.3605
 11
-167.646
 21
-96.4012
  0
LINE
  8
0
 10
-167.646
 20
-96.4012
 11
-167.574
 21
-96.4514
  0
LINE
  8
0
 10
-167.574
 20
-96.4514
 11
-167.509
 21
-96.5102
  0
LINE
  8
0
 10
-167.509
 20
-96.5102
 11
-167.451
 21
-96.5768
  0
LINE
  8
0
 10
-167.451
 20
-96.5768
 11
-167.403
 21
-96.65
  0
LINE
  8
0
 10
-167.403
 20
-96.65
 11
-167.364
 21
-96.7287
  0
LINE
  8
0
 10
-167.364
 20
-96.7287
 11
-167.335
 21
-96.8118
  0
LINE
  8
0
 10
-167.335
 20
-96.8118
 11
-167.316
 21
-96.8977
  0
LINE
  8
0
 10
-167.316
 20
-96.8977
 11
-167.309
 21
-96.9853
  0
LINE
  8
0
 10
-167.309
 20
-96.9853
 11
-167.313
 21
-97.0732
  0
LINE
  8
0
 10
-167.313
 20
-97.0732
 11
-167.327
 21
-97.1598
  0
LINE
  8
0
 10
-167.327
 20
-97.1598
 11
-167.353
 21
-97.244
  0
LINE
  8
0
 10
-167.353
 20
-97.244
 11
-167.389
 21
-97.3243
  0
LINE
  8
0
 10
-167.389
 20
-97.3243
 11
-167.434
 21
-97.3995
  0
LINE
  8
0
 10
-167.434
 20
-97.3995
 11
-167.489
 21
-97.4684
  0
LINE
  8
0
 10
-167.489
 20
-97.4684
 11
-167.552
 21
-97.5299
  0
LINE
  8
0
 10
-167.552
 20
-97.5299
 11
-167.622
 21
-97.583
  0
LINE
  8
0
 10
-167.622
 20
-97.583
 11
-167.698
 21
-97.627
  0
LINE
  8
0
 10
-167.698
 20
-97.627
 11
-167.779
 21
-97.6611
  0
LINE
  8
0
 10
-167.779
 20
-97.6611
 11
-167.863
 21
-97.6847
  0
LINE
  8
0
 10
-167.863
 20
-97.6847
 11
-167.95
 21
-97.6975
  0
LINE
  8
0
 10
-167.95
 20
-97.6975
 11
-168.038
 21
-97.6994
  0
LINE
  8
0
 10
-168.038
 20
-97.6994
 11
-168.126
 21
-97.6902
  0
LINE
  8
0
 10
-168.126
 20
-97.6902
 11
-168.211
 21
-97.6701
  0
LINE
  8
0
 10
-168.211
 20
-97.6701
 11
-168.294
 21
-97.6395
  0
LINE
  8
0
 10
-168.294
 20
-97.6395
 11
-168.372
 21
-97.5988
  0
LINE
  8
0
 10
-168.372
 20
-97.5988
 11
-168.444
 21
-97.5486
  0
LINE
  8
0
 10
-168.444
 20
-97.5486
 11
-168.509
 21
-97.4898
  0
LINE
  8
0
 10
-168.509
 20
-97.4898
 11
-168.566
 21
-97.4232
  0
LINE
  8
0
 10
-168.566
 20
-97.4232
 11
-168.615
 21
-97.35
  0
LINE
  8
0
 10
-168.615
 20
-97.35
 11
-168.654
 21
-97.2713
  0
LINE
  8
0
 10
-168.654
 20
-97.2713
 11
-168.683
 21
-97.1882
  0
LINE
  8
0
 10
-168.683
 20
-97.1882
 11
-168.701
 21
-97.1023
  0
LINE
  8
0
 10
-168.701
 20
-97.1023
 11
-168.709
 21
-97.0147
  0
LINE
  8
0
 10
-168.709
 20
97.0147
 11
-168.701
 21
97.1023
  0
LINE
  8
0
 10
-168.701
 20
97.1023
 11
-168.683
 21
97.1882
  0
LINE
  8
0
 10
-168.683
 20
97.1882
 11
-168.654
 21
97.2713
  0
LINE
  8
0
 10
-168.654
 20
97.2713
 11
-168.615
 21
97.35
  0
LINE
  8
0
 10
-168.615
 20
97.35
 11
-168.566
 21
97.4232
  0
LINE
  8
0
 10
-168.566
 20
97.4232
 11
-168.509
 21
97.4898
  0
LINE
  8
0
 10
-168.509
 20
97.4898
 11
-168.444
 21
97.5486
  0
LINE
  8
0
 10
-168.444
 20
97.5486
 11
-168.372
 21
97.5988
  0
LINE
  8
0
 10
-168.372
 20
97.5988
 11
-168.294
 21
97.6395
  0
LINE
  8
0
 10
-168.294
 20
97.6395
 11
-168.211
 21
97.6701
  0
LINE
  8
0
 10
-168.211
 20
97.6701
 11
-168.126
 21
97.6902
  0
LINE
  8
0
 10
-168.126
 20
97.6902
 11
-168.038
 21
97.6994
  0
LINE
  8
0
 10
-168.038
 20
97.6994
 11
-167.95
 21
97.6975
  0
LINE
  8
0
 10
-167.95
 20
97.6975
 11
-167.863
 21
97.6847
  0
LINE
  8
0
 10
-167.863
 20
97.6847
 11
-167.779
 21
97.6611
  0
LINE
  8
0
 10
-167.779
 20
97.6611
 11
-167.698
 21
97.627
  0
LINE
  8
0
 10
-167.698
 20
97.627
 11
-167.622
 21
97.583
  0
LINE
  8
0
 10
-167.622
 20
97.583
 11
-167.552
 21
97.5299
  0
LINE
  8
0
 10
-167.552
 20
97.5299
 11
-167.489
 21
97.4684
  0
LINE
  8
0
 10
-167.489
 20
97.4684
 11
-167.434
 21
97.3995
  0
LINE
  8
0
 10
-167.434
 20
97.3995
 11
-167.389
 21
97.3243
  0
LINE
  8
0
 10
-167.389
 20
97.3243
 11
-167.353
 21
97.244
  0
LINE
  8
0
 10
-167.353
 20
97.244
 11
-167.327
 21
97.1598
  0
LINE
  8
0
 10
-167.327
 20
97.1598
 11
-167.313
 21
97.0732
  0
LINE
  8
0
 10
-167.313
 20
97.0732
 11
-167.309
 21
96.9853
  0
LINE
  8
0
 10
-167.309
 20
96.9853
 11
-167.316
 21
96.8977
  0
LINE
  8
0
 10
-167.316
 20
96.8977
 11
-167.335
 21
96.8118
  0
LINE
  8
0
 10
-167.335
 20
96.8118
 11
-167.364
 21
96.7287
  0
LINE
  8
0
 10
-167.364
 20
96.7287
 11
-167.403
 21
96.65
  0
LINE
  8
0
 10
-167.403
 20
96.65
 11
-167.451
 21
96.5768
  0
LINE
  8
0
 10
-167.451
 20
96.5768
 11
-167.509
 21
96.5102
  0
LINE
  8
0
 10
-167.509
 20
96.5102
 11
-167.574
 21
96.4514
  0
LINE
  8
0
 10
-167.574
 20
96.4514
 11
-167.646
 21
96.4012
  0
LINE
  8
0
 10
-167.646
 20
96.4012
 11
-167.724
 21
96.3605
  0
LINE
  8
0
 10
-167.724
 20
96.3605
 11
-167.807
 21
96.3299
  0
LINE
  8
0
 10
-167.807
 20
96.3299
 11
-167.892
 21
96.3098
  0
LINE
  8
0
 10
-167.892
 20
96.3098
 11
-167.98
 21
96.3006
  0
LINE
  8
0
 10
-167.98
 20
96.3006
 11
-168.068
 21
96.3025
  0
LINE
  8
0
 10
-168.068
 20
96.3025
 11
-168.154
 21
96.3153
  0
LINE
  8
0
 10
-168.154
 20
96.3153
 11
-168.239
 21
96.3389
  0
LINE
  8
0
 10
-168.239
 20
96.3389
 11
-168.32
 21
96.373
  0
LINE
  8
0
 10
-168.32
 20
96.373
 11
-168.396
 21
96.417
  0
LINE
  8
0
 10
-168.396
 20
96.417
 11
-168.466
 21
96.4701
  0
LINE
  8
0
 10
-168.466
 20
96.4701
 11
-168.529
 21
96.5316
  0
LINE
  8
0
 10
-168.529
 20
96.5316
 11
-168.584
 21
96.6005
  0
LINE
  8
0
 10
-168.584
 20
96.6005
 11
-168.629
 21
96.6757
  0
LINE
  8
0
 10
-168.629
 20
96.6757
 11
-168.665
 21
96.756
  0
LINE
  8
0
 10
-168.665
 20
96.756
 11
-168.69
 21
96.8402
  0
LINE
  8
0
 10
-168.69
 20
96.8402
 11
-168.705
 21
96.9268
  0
LINE
  8
0
 10
-168.705
 20
96.9268
 11
-168.709
 21
97.0147
  0
LINE
  8
0
 10
-97.6994
 20
-168.038
 11
-97.6975
 21
-167.95
  0
LINE
  8
0
 10
-97.6975
 20
-167.95
 11
-97.6847
 21
-167.863
  0
LINE
  8
0
 10
-97.6847
 20
-167.863
 11
-97.6611
 21
-167.779
  0
LINE
  8
0
 10
-97.6611
 20
-167.779
 11
-97.627
 21
-167.698
  0
LINE
  8
0
 10
-97.627
 20
-167.698
 11
-97.583
 21
-167.622
  0
LINE
  8
0
 10
-97.583
 20
-167.622
 11
-97.5299
 21
-167.552
  0
LINE
  8
0
 10
-97.5299
 20
-167.552
 11
-97.4684
 21
-167.489
  0
LINE
  8
0
 10
-97.4684
 20
-167.489
 11
-97.3995
 21
-167.434
  0
LINE
  8
0
 10
-97.3995
 20
-167.434
 11
-97.3243
 21
-167.389
  0
LINE
  8
0
 10
-97.3243
 20
-167.389
 11
-97.244
 21
-167.353
  0
LINE
  8
0
 10
-97.244
 20
-167.353
 11
-97.1598
 21
-167.327
  0
LINE
  8
0
 10
-97.1598
 20
-167.327
 11
-97.0732
 21
-167.313
  0
LINE
  8
0
 10
-97.0732
 20
-167.313
 11
-96.9853
 21
-167.309
  0
LINE
  8
0
 10
-96.9853
 20
-167.309
 11
-96.8977
 21
-167.316
  0
LINE
  8
0
 10
-96.8977
 20
-167.316
 11
-96.8118
 21
-167.335
  0
LINE
  8
0
 10
-96.8118
 20
-167.335
 11
-96.7287
 21
-167.364
  0
LINE
  8
0
 10
-96.7287
 20
-167.364
 11
-96.65
 21
-167.403
  0
LINE
  8
0
 10
-96.65
 20
-167.403
 11
-96.5768
 21
-167.451
  0
LINE
  8
0
 10
-96.5768
 20
-167.451
 11
-96.5102
 21
-167.509
  0
LINE
  8
0
 10
-96.5102
 20
-167.509
 11
-96.4514
 21
-167.574
  0
LINE
  8
0
 10
-96.4514
 20
-167.574
 11
-96.4012
 21
-167.646
  0
LINE
  8
0
 10
-96.4012
 20
-167.646
 11
-96.3605
 21
-167.724
  0
LINE
  8
0
 10
-96.3605
 20
-167.724
 11
-96.3299
 21
-167.807
  0
LINE
  8
0
 10
-96.3299
 20
-167.807
 11
-96.3098
 21
-167.892
  0
LINE
  8
0
 10
-96.3098
 20
-167.892
 11
-96.3006
 21
-167.98
  0
LINE
  8
0
 10
-96.3006
 20
-167.98
 11
-96.3025
 21
-168.068
  0
LINE
  8
0
 10
-96.3025
 20
-168.068
 11
-96.3153
 21
-168.154
  0
LINE
  8
0
 10
-96.3153
 20
-168.154
 11
-96.3389
 21
-168.239
  0
LINE
  8
0
 10
-96.3389
 20
-168.239
 11
-96.373
 21
-168.32
  0
LINE
  8
0
 10
-96.373
 20
-168.32
 11
-96.417
 21
-168.396
  0
LINE
  8
0
 10
-96.417
 20
-168.396
 11
-96.4701
 21
-168.466
  0
LINE
  8
0
 10
-96.4701
 20
-168.466
 11
-96.5316
 21
-168.529
  0
LINE
  8
0
 10
-96.5316
 20
-168.529
 11
-96.6005
 21
-168.584
  0
LINE
  8
0
 10
-96.6005
 20
-168.584
 11
-96.6757
 21
-168.629
  0
LINE
  8
0
 10
-96.6757
 20
-168.629
 11
-96.756
 21
-168.665
  0
LINE
  8
0
 10
-96.756
 20
-168.665
 11
-96.8402
 21
-168.69
  0
LINE
  8
0
 10
-96.8402
 20
-168.69
 11
-96.9268
 21
-168.705
  0
LINE
  8
0
 10
-96.9268
 20
-168.705
 11
-97.0147
 21
-168.709
  0
LINE
  8
0
 10
-97.0147
 20
-168.709
 11
-97.1023
 21
-168.701
  0
LINE
  8
0
 10
-97.1023
 20
-168.701
 11
-97.1882
 21
-168.683
  0
LINE
  8
0
 10
-97.1882
 20
-168.683
 11
-97.2713
 21
-168.654
  0
LINE
  8
0
 10
-97.2713
 20
-168.654
 11
-97.35
 21
-168.615
  0
LINE
  8
0
 10
-97.35
 20
-168.615
 11
-97.4232
 21
-168.566
  0
LINE
  8
0
 10
-97.4232
 20
-168.566
 11
-97.4898
 21
-168.509
  0
LINE
  8
0
 10
-97.4898
 20
-168.509
 11
-97.5486
 21
-168.444
  0
LINE
  8
0
 10
-97.5486
 20
-168.444
 11
-97.5988
 21
-168.372
  0
LINE
  8
0
 10
-97.5988
 20
-168.372
 11
-97.6395
 21
-168.294
  0
LINE
  8
0
 10
-97.6395
 20
-168.294
 11
-97.6701
 21
-168.211
  0
LINE
  8
0
 10
-97.6701
 20
-168.211
 11
-97.6902
 21
-168.126
  0
LINE
  8
0
 10
-97.6902
 20
-168.126
 11
-97.6994
 21
-168.038
  0
LINE
  8
0
 10
-97.6994
 20
168.038
 11
-97.6902
 21
168.126
  0
LINE
  8
0
 10
-97.6902
 20
168.126
 11
-97.6701
 21
168.211
  0
LINE
  8
0
 10
-97.6701
 20
168.211
 11
-97.6395
 21
168.294
  0
LINE
  8
0
 10
-97.6395
 20
168.294
 11
-97.5988
 21
168.372
  0
LINE
  8
0
 10
-97.5988
 20
168.372
 11
-97.5486
 21
168.444
  0
LINE
  8
0
 10
-97.5486
 20
168.444
 11
-97.4898
 21
168.509
  0
LINE
  8
0
 10
-97.4898
 20
168.509
 11
-97.4232
 21
168.566
  0
LINE
  8
0
 10
-97.4232
 20
168.566
 11
-97.35
 21
168.615
  0
LINE
  8
0
 10
-97.35
 20
168.615
 11
-97.2713
 21
168.654
  0
LINE
  8
0
 10
-97.2713
 20
168.654
 11
-97.1882
 21
168.683
  0
LINE
  8
0
 10
-97.1882
 20
168.683
 11
-97.1023
 21
168.701
  0
LINE
  8
0
 10
-97.1023
 20
168.701
 11
-97.0147
 21
168.709
  0
LINE
  8
0
 10
-97.0147
 20
168.709
 11
-96.9268
 21
168.705
  0
LINE
  8
0
 10
-96.9268
 20
168.705
 11
-96.8402
 21
168.69
  0
LINE
  8
0
 10
-96.8402
 20
168.69
 11
-96.756
 21
168.665
  0
LINE
  8
0
 10
-96.756
 20
168.665
 11
-96.6757
 21
168.629
  0
LINE
  8
0
 10
-96.6757
 20
168.629
 11
-96.6005
 21
168.584
  0
LINE
  8
0
 10
-96.6005
 20
168.584
 11
-96.5316
 21
168.529
  0
LINE
  8
0
 10
-96.5316
 20
168.529
 11
-96.4701
 21
168.466
  0
LINE
  8
0
 10
-96.4701
 20
168.466
 11
-96.417
 21
168.396
  0
LINE
  8
0
 10
-96.417
 20
168.396
 11
-96.373
 21
168.32
  0
LINE
  8
0
 10
-96.373
 20
168.32
 11
-96.3389
 21
168.239
  0
LINE
  8
0
 10
-96.3389
 20
168.239
 11
-96.3153
 21
168.154
  0
LINE
  8
0
 10
-96.3153
 20
168.154
 11
-96.3025
 21
168.068
  0
LINE
  8
0
 10
-96.3025
 20
168.068
 11
-96.3006
 21
167.98
  0
LINE
  8
0
 10
-96.3006
 20
167.98
 11
-96.3098
 21
167.892
  0
LINE
  8
0
 10
-96.3098
 20
167.892
 11
-96.3299
 21
167.807
  0
LINE
  8
0
 10
-96.3299
 20
167.807
 11
-96.3605
 21
167.724
  0
LINE
  8
0
 10
-96.3605
 20
167.724
 11
-96.4012
 21
167.646
  0
LINE
  8
0
 10
-96.4012
 20
167.646
 11
-96.4514
 21
167.574
  0
LINE
  8
0
 10
-96.4514
 20
167.574
 11
-96.5102
 21
167.509
  0
LINE
  8
0
 10
-96.5102
 20
167.509
 11
-96.5768
 21
167.451
  0
LINE
  8
0
 10
-96.5768
 20
167.451
 11
-96.65
 21
167.403
  0
LINE
  8
0
 10
-96.65
 20
167.403
 11
-96.7287
 21
167.364
  0
LINE
  8
0
 10
-96.7287
 20
167.364
 11
-96.8118
 21
167.335
  0
LINE
  8
0
 10
-96.8118
 20
167.335
 11
-96.8977
 21
167.316
  0
LINE
  8
0
 10
-96.8977
 20
167.316
 11
-96.9853
 21
167.309
  0
LINE
  8
0
 10
-96.9853
 20
167.309
 11
-97.0732
 21
167.313
  0
LINE
  8
0
 10
-97.0732
 20
167.313
 11
-97.1598
 21
167.327
  0
LINE
  8
0
 10
-97.1598
 20
167.327
 11
-97.244
 21
167.353
  0
LINE
  8
0
 10
-97.244
 20
167.353
 11
-97.3243
 21
167.389
  0
LINE
  8
0
 10
-97.3243
 20
167.389
 11
-97.3995
 21
167.434
  0
LINE
  8
0
 10
-97.3995
 20
167.434
 11
-97.4684
 21
167.489
  0
LINE
  8
0
 10
-97.4684
 20
167.489
 11
-97.5299
 21
167.552
  0
LINE
  8
0
 10
-97.5299
 20
167.552
 11
-97.583
 21
167.622
  0
LINE
  8
0
 10
-97.583
 20
167.622
 11
-97.627
 21
167.698
  0
LINE
  8
0
 10
-97.627
 20
167.698
 11
-97.6611
 21
167.779
  0
LINE
  8
0
 10
-97.6611
 20
167.779
 11
-97.6847
 21
167.863
  0
LINE
  8
0
 10
-97.6847
 20
167.863
 11
-97.6975
 21
167.95
  0
LINE
  8
0
 10
-97.6975
 20
167.95
 11
-97.6994
 21
168.038
  0
LINE
  8
0
 10
-0.698618
 20
-194.044
 11
-0.698618
 21
-193.956
  0
LINE
  8
0
 10
-0.698618
 20
-193.956
 11
-0.6876
 21
-193.869
  0
LINE
  8
0
 10
-0.6876
 20
-193.869
 11
-0.665739
 21
-193.784
  0
LINE
  8
0
 10
-0.665739
 20
-193.784
 11
-0.633378
 21
-193.702
  0
LINE
  8
0
 10
-0.633378
 20
-193.702
 11
-0.591029
 21
-193.625
  0
LINE
  8
0
 10
-0.591029
 20
-193.625
 11
-0.539359
 21
-193.554
  0
LINE
  8
0
 10
-0.539359
 20
-193.554
 11
-0.479182
 21
-193.49
  0
LINE
  8
0
 10
-0.479182
 20
-193.49
 11
-0.411449
 21
-193.434
  0
LINE
  8
0
 10
-0.411449
 20
-193.434
 11
-0.337227
 21
-193.387
  0
LINE
  8
0
 10
-0.337227
 20
-193.387
 11
-0.257687
 21
-193.349
  0
LINE
  8
0
 10
-0.257687
 20
-193.349
 11
-0.174083
 21
-193.322
  0
LINE
  8
0
 10
-0.174083
 20
-193.322
 11
-0.0877323
 21
-193.306
  0
LINE
  8
0
 10
-0.0877323
 20
-193.306
 11
0
 21
-193.3
  0
LINE
  8
0
 10
0
 20
-193.3
 11
0.0877323
 21
-193.306
  0
LINE
  8
0
 10
0.0877323
 20
-193.306
 11
0.174083
 21
-193.322
  0
LINE
  8
0
 10
0.174083
 20
-193.322
 11
0.257687
 21
-193.349
  0
LINE
  8
0
 10
0.257687
 20
-193.349
 11
0.337227
 21
-193.387
  0
LINE
  8
0
 10
0.337227
 20
-193.387
 11
0.411449
 21
-193.434
  0
LINE
  8
0
 10
0.411449
 20
-193.434
 11
0.479182
 21
-193.49
  0
LINE
  8
0
 10
0.479182
 20
-193.49
 11
0.539359
 21
-193.554
  0
LINE
  8
0
 10
0.539359
 20
-193.554
 11
0.591029
 21
-193.625
  0
LINE
  8
0
 10
0.591029
 20
-193.625
 11
0.633378
 21
-193.702
  0
LINE
  8
0
 10
0.633378
 20
-193.702
 11
0.665739
 21
-193.784
  0
LINE
  8
0
 10
0.665739
 20
-193.784
 11
0.6876
 21
-193.869
  0
LINE
  8
0
 10
0.6876
 20
-193.869
 11
0.698618
 21
-193.956
  0
LINE
  8
0
 10
0.698618
 20
-193.956
 11
0.698618
 21
-194.044
  0
LINE
  8
0
 10
0.698618
 20
-194.044
 11
0.6876
 21
-194.131
  0
LINE
  8
0
 10
0.6876
 20
-194.131
 11
0.665739
 21
-194.216
  0
LINE
  8
0
 10
0.665739
 20
-194.216
 11
0.633378
 21
-194.298
  0
LINE
  8
0
 10
0.633378
 20
-194.298
 11
0.591029
 21
-194.375
  0
LINE
  8
0
 10
0.591029
 20
-194.375
 11
0.539359
 21
-194.446
  0
LINE
  8
0
 10
0.539359
 20
-194.446
 11
0.479182
 21
-194.51
  0
LINE
  8
0
 10
0.479182
 20
-194.51
 11
0.411449
 21
-194.566
  0
LINE
  8
0
 10
0.411449
 20
-194.566
 11
0.337227
 21
-194.613
  0
LINE
  8
0
 10
0.337227
 20
-194.613
 11
0.257687
 21
-194.651
  0
LINE
  8
0
 10
0.257687
 20
-194.651
 11
0.174083
 21
-194.678
  0
LINE
  8
0
 10
0.174083
 20
-194.678
 11
0.0877323
 21
-194.694
  0
LINE
  8
0
 10
0.0877323
 20
-194.694
 11
0
 21
-194.7
  0
LINE
  8
0
 10
0
 20
-194.7
 11
-0.0877323
 21
-194.694
  0
LINE
  8
0
 10
-0.0877323
 20
-194.694
 11
-0.174083
 21
-194.678
  0
LINE
  8
0
 10
-0.174083
 20
-194.678
 11
-0.257687
 21
-194.651
  0
LINE
  8
0
 10
-0.257687
 20
-194.651
 11
-0.337227
 21
-194.613
  0
LINE
  8
0
 10
-0.337227
 20
-194.613
 11
-0.411449
 21
-194.566
  0
LINE
  8
0
 10
-0.411449
 20
-194.566
 11
-0.479182
 21
-194.51
  0
LINE
  8
0
 10
-0.479182
 20
-194.51
 11
-0.539359
 21
-194.446
  0
LINE
  8
0
 10
-0.539359
 20
-194.446
 11
-0.591029
 21
-194.375
  0
LINE
  8
0
 10
-0.591029
 20
-194.375
 11
-0.633378
 21
-194.298
  0
LINE
  8
0
 10
-0.633378
 20
-194.298
 11
-0.665739
 21
-194.216
  0
LINE
  8
0
 10
-0.665739
 20
-194.216
 11
-0.6876
 21
-194.131
  0
LINE
  8
0
 10
-0.6876
 20
-194.131
 11
-0.698618
 21
-194.044
  0
LINE
  8
0
 10
-0.698618
 20
193.956
 11
-0.698618
 21
194.044
  0
LINE
  8
0
 10
-0.698618
 20
194.044
 11
-0.6876
 21
194.131
  0
LINE
  8
0
 10
-0.6876
 20
194.131
 11
-0.665739
 21
194.216
  0
LINE
  8
0
 10
-0.665739
 20
194.216
 11
-0.633378
 21
194.298
  0
LINE
  8
0
 10
-0.633378
 20
194.298
 11
-0.591029
 21
194.375
  0
LINE
  8
0
 10
-0.591029
 20
194.375
 11
-0.539359
 21
194.446
  0
LINE
  8
0
 10
-0.539359
 20
194.446
 11
-0.479182
 21
194.51
  0
LINE
  8
0
 10
-0.479182
 20
194.51
 11
-0.411449
 21
194.566
  0
LINE
  8
0
 10
-0.411449
 20
194.566
 11
-0.337227
 21
194.613
  0
LINE
  8
0
 10
-0.337227
 20
194.613
 11
-0.257687
 21
194.651
  0
LINE
  8
0
 10
-0.257687
 20
194.651
 11
-0.174083
 21
194.678
  0
LINE
  8
0
 10
-0.174083
 20
194.678
 11
-0.0877323
 21
194.694
  0
LINE
  8
0
 10
-0.0877323
 20
194.694
 11
0
 21
194.7
  0
LINE
  8
0
 10
0
 20
194.7
 11
0.0877323
 21
194.694
  0
LINE
  8
0
 10
0.0877323
 20
194.694
 11
0.174083
 21
194.678
  0
LINE
  8
0
 10
0.174083
 20
194.678
 11
0.257687
 21
194.651
  0
LINE
  8
0
 10
0.257687
 20
194.651
 11
0.337227
 21
194.613
  0
LINE
  8
0
 10
0.337227
 20
194.613
 11
0.411449
 21
194.566
  0
LINE
  8
0
 10
0.411449
 20
194.566
 11
0.479182
 21
194.51
  0
LINE
  8
0
 10
0.479182
 20
194.51
 11
0.539359
 21
194.446
  0
LINE
  8
0
 10
0.539359
 20
194.446
 11
0.591029
 21
194.375
  0
LINE
  8
0
 10
0.591029
 20
194.375
 11
0.633378
 21
194.298
  0
LINE
  8
0
 10
0.633378
 20
194.298
 11
0.665739
 21
194.216
  0
LINE
  8
0
 10
0.665739
 20
194.216
 11
0.6876
 21
194.131
  0
LINE
  8
0
 10
0.6876
 20
194.131
 11
0.698618
 21
194.044
  0
LINE
  8
0
 10
0.698618
 20
194.044
 11
0.698618
 21
193.956
  0
LINE
  8
0
 10
0.698618
 20
193.956
 11
0.6876
 21
193.869
  0
LINE
  8
0
 10
0.6876
 20
193.869
 11
0.665739
 21
193.784
  0
LINE
  8
0
 10
0.665739
 20
193.784
 11
0.633378
 21
193.702
  0
LINE
  8
0
 10
0.633378
 20
193.702
 11
0.591029
 21
193.625
  0
LINE
  8
0
 10
0.591029
 20
193.625
 11
0.539359
 21
193.554
  0
LINE
  8
0
 10
0.539359
 20
193.554
 11
0.479182
 21
193.49
  0
LINE
  8
0
 10
0.479182
 20
193.49
 11
0.411449
 21
193.434
  0
LINE
  8
0
 10
0.411449
 20
193.434
 11
0.337227
 21
193.387
  0
LINE
  8
0
 10
0.337227
 20
193.387
 11
0.257687
 21
193.349
  0
LINE
  8
0
 10
0.257687
 20
193.349
 11
0.174083
 21
193.322
  0
LINE
  8
0
 10
0.174083
 20
193.322
 11
0.0877323
 21
193.306
  0
LINE
  8
0
 10
0.0877323
 20
193.306
 11
0
 21
193.3
  0
LINE
  8
0
 10
0
 20
193.3
 11
-0.0877323
 21
193.306
  0
LINE
  8
0
 10
-0.0877323
 20
193.306
 11
-0.174083
 21
193.322
  0
LINE
  8
0
 10
-0.174083
 20
193.322
 11
-0.257687
 21
193.349
  0
LINE
  8
0
 10
-0.257687
 20
193.349
 11
-0.337227
 21
193.387
  0
LINE
  8
0
 10
-0.337227
 20
193.387
 11
-0.411449
 21
193.434
  0
LINE
  8
0
 10
-0.411449
 20
193.434
 11
-0.479182
 21
193.49
  0
LINE
  8
0
 10
-0.479182
 20
193.49
 11
-0.539359
 21
193.554
  0
LINE
  8
0
 10
-0.539359
 20
193.554
 11
-0.591029
 21
193.625
  0
LINE
  8
0
 10
-0.591029
 20
193.625
 11
-0.633378
 21
193.702
  0
LINE
  8
0
 10
-0.633378
 20
193.702
 11
-0.665739
 21
193.784
  0
LINE
  8
0
 10
-0.665739
 20
193.784
 11
-0.6876
 21
193.869
  0
LINE
  8
0
 10
-0.6876
 20
193.869
 11
-0.698618
 21
193.956
  0
LINE
  8
0
 10
96.3006
 20
-167.98
 11
96.3098
 21
-167.892
  0
LINE
  8
0
 10
96.3098
 20
-167.892
 11
96.3299
 21
-167.807
  0
LINE
  8
0
 10
96.3299
 20
-167.807
 11
96.3605
 21
-167.724
  0
LINE
  8
0
 10
96.3605
 20
-167.724
 11
96.4012
 21
-167.646
  0
LINE
  8
0
 10
96.4012
 20
-167.646
 11
96.4514
 21
-167.574
  0
LINE
  8
0
 10
96.4514
 20
-167.574
 11
96.5102
 21
-167.509
  0
LINE
  8
0
 10
96.5102
 20
-167.509
 11
96.5768
 21
-167.451
  0
LINE
  8
0
 10
96.5768
 20
-167.451
 11
96.65
 21
-167.403
  0
LINE
  8
0
 10
96.65
 20
-167.403
 11
96.7287
 21
-167.364
  0
LINE
  8
0
 10
96.7287
 20
-167.364
 11
96.8118
 21
-167.335
  0
LINE
  8
0
 10
96.8118
 20
-167.335
 11
96.8977
 21
-167.316
  0
LINE
  8
0
 10
96.8977
 20
-167.316
 11
96.9853
 21
-167.309
  0
LINE
  8
0
 10
96.9853
 20
-167.309
 11
97.0732
 21
-167.313
  0
LINE
  8
0
 10
97.0732
 20
-167.313
 11
97.1598
 21
-167.327
  0
LINE
  8
0
 10
97.1598
 20
-167.327
 11
97.244
 21
-167.353
  0
LINE
  8
0
 10
97.244
 20
-167.353
 11
97.3243
 21
-167.389
  0
LINE
  8
0
 10
97.3243
 20
-167.389
 11
97.3995
 21
-167.434
  0
LINE
  8
0
 10
97.3995
 20
-167.434
 11
97.4684
 21
-167.489
  0
LINE
  8
0
 10
97.4684
 20
-167.489
 11
97.5299
 21
-167.552
  0
LINE
  8
0
 10
97.5299
 20
-167.552
 11
97.583
 21
-167.622
  0
LINE
  8
0
 10
97.583
 20
-167.622
 11
97.627
 21
-167.698
  0
LINE
  8
0
 10
97.627
 20
-167.698
 11
97.6611
 21
-167.779
  0
LINE
  8
0
 10
97.6611
 20
-167.779
 11
97.6847
 21
-167.863
  0
LINE
  8
0
 10
97.6847
 20
-167.863
 11
97.6975
 21
-167.95
  0
LINE
  8
0
 10
97.6975
 20
-167.95
 11
97.6994
 21
-168.038
  0
LINE
  8
0
 10
97.6994
 20
-168.038
 11
97.6902
 21
-168.126
  0
LINE
  8
0
 10
97.6902
 20
-168.126
 11
97.6701
 21
-168.211
  0
LINE
  8
0
 10
97.6701
 20
-168.211
 11
97.6395
 21
-168.294
  0
LINE
  8
0
 10
97.6395
 20
-168.294
 11
97.5988
 21
-168.372
  0
LINE
  8
0
 10
97.5988
 20
-168.372
 11
97.5486
 21
-168.444
  0
LINE
  8
0
 10
97.5486
 20
-168.444
 11
97.4898
 21
-168.509
  0
LINE
  8
0
 10
97.4898
 20
-168.509
 11
97.4232
 21
-168.566
  0
LINE
  8
0
 10
97.4232
 20
-168.566
 11
97.35
 21
-168.615
  0
LINE
  8
0
 10
97.35
 20
-168.615
 11
97.2713
 21
-168.654
  0
LINE
  8
0
 10
97.2713
 20
-168.654
 11
97.1882
 21
-168.683
  0
LINE
  8
0
 10
97.1882
 20
-168.683
 11
97.1023
 21
-168.701
  0
LINE
  8
0
 10
97.1023
 20
-168.701
 11
97.0147
 21
-168.709
  0
LINE
  8
0
 10
97.0147
 20
-168.709
 11
96.9268
 21
-168.705
  0
LINE
  8
0
 10
96.9268
 20
-168.705
 11
96.8402
 21
-168.69
  0
LINE
  8
0
 10
96.8402
 20
-168.69
 11
96.756
 21
-168.665
  0
LINE
  8
0
 10
96.756
 20
-168.665
 11
96.6757
 21
-168.629
  0
LINE
  8
0
 10
96.6757
 20
-168.629
 11
96.6005
 21
-168.584
  0
LINE
  8
0
 10
96.6005
 20
-168.584
 11
96.5316
 21
-168.529
  0
LINE
  8
0
 10
96.5316
 20
-168.529
 11
96.4701
 21
-168.466
  0
LINE
  8
0
 10
96.4701
 20
-168.466
 11
96.417
 21
-168.396
  0
LINE
  8
0
 10
96.417
 20
-168.396
 11
96.373
 21
-168.32
  0
LINE
  8
0
 10
96.373
 20
-168.32
 11
96.3389
 21
-168.239
  0
LINE
  8
0
 10
96.3389
 20
-168.239
 11
96.3153
 21
-168.154
  0
LINE
  8
0
 10
96.3153
 20
-168.154
 11
96.3025
 21
-168.068
  0
LINE
  8
0
 10
96.3025
 20
-168.068
 11
96.3006
 21
-167.98
  0
LINE
  8
0
 10
96.3006
 20
167.98
 11
96.3025
 21
168.068
  0
LINE
  8
0
 10
96.3025
 20
168.068
 11
96.3153
 21
168.154
  0
LINE
  8
0
 10
96.3153
 20
168.154
 11
96.3389
 21
168.239
  0
LINE
  8
0
 10
96.3389
 20
168.239
 11
96.373
 21
168.32
  0
LINE
  8
0
 10
96.373
 20
168.32
 11
96.417
 21
168.396
  0
LINE
  8
0
 10
96.417
 20
168.396
 11
96.4701
 21
168.466
  0
LINE
  8
0
 10
96.4701
 20
168.466
 11
96.5316
 21
168.529
  0
LINE
  8
0
 10
96.5316
 20
168.529
 11
96.6005
 21
168.584
  0
LINE
  8
0
 10
96.6005
 20
168.584
 11
96.6757
 21
168.629
  0
LINE
  8
0
 10
96.6757
 20
168.629
 11
96.756
 21
168.665
  0
LINE
  8
0
 10
96.756
 20
168.665
 11
96.8402
 21
168.69
  0
LINE
  8
0
 10
96.8402
 20
168.69
 11
96.9268
 21
168.705
  0
LINE
  8
0
 10
96.9268
 20
168.705
 11
97.0147
 21
168.709
  0
LINE
  8
0
 10
97.0147
 20
168.709
 11
97.1023
 21
168.701
  0
LINE
  8
0
 10
97.1023
 20
168.701
 11
97.1882
 21
168.683
  0
LINE
  8
0
 10
97.1882
 20
168.683
 11
97.2713
 21
168.654
  0
LINE
  8
0
 10
97.2713
 20
168.654
 11
97.35
 21
168.615
  0
LINE
  8
0
 10
97.35
 20
168.615
 11
97.4232
 21
168.566
  0
LINE
  8
0
 10
97.4232
 20
168.566
 11
97.4898
 21
168.509
  0
LINE
  8
0
 10
97.4898
 20
168.509
 11
97.5486
 21
168.444
  0
LINE
  8
0
 10
97.5486
 20
168.444
 11
97.5988
 21
168.372
  0
LINE
  8
0
 10
97.5988
 20
168.372
 11
97.6395
 21
168.294
  0
LINE
  8
0
 10
97.6395
 20
168.294
 11
97.6701
 21
168.211
  0
LINE
  8
0
 10
97.6701
 20
168.211
 11
97.6902
 21
168.126
  0
LINE
  8
0
 10
97.6902
 20
168.126
 11
97.6994
 21
168.038
  0
LINE
  8
0
 10
97.6994
 20
168.038
 11
97.6975
 21
167.95
  0
LINE
  8
0
 10
97.6975
 20
167.95
 11
97.6847
 21
167.863
  0
LINE
  8
0
 10
97.6847
 20
167.863
 11
97.6611
 21
167.779
  0
LINE
  8
0
 10
97.6611
 20
167.779
 11
97.627
 21
167.698
  0
LINE
  8
0
 10
97.627
 20
167.698
 11
97.583
 21
167.622
  0
LINE
  8
0
 10
97.583
 20
167.622
 11
97.5299
 21
167.552
  0
LINE
  8
0
 10
97.5299
 20
167.552
 11
97.4684
 21
167.489
  0
LINE
  8
0
 10
97.4684
 20
167.489
 11
97.3995
 21
167.434
  0
LINE
  8
0
 10
97.3995
 20
167.434
 11
97.3243
 21
167.389
  0
LINE
  8
0
 10
97.3243
 20
167.389
 11
97.244
 21
167.353
  0
LINE
  8
0
 10
97.244
 20
167.353
 11
97.1598
 21
167.327
  0
LINE
  8
0
 10
97.1598
 20
167.327
 11
97.0732
 21
167.313
  0
LINE
  8
0
 10
97.0732
 20
167.313
 11
96.9853
 21
167.309
  0
LINE
  8
0
 10
96.9853
 20
167.309
 11
96.8977
 21
167.316
  0
LINE
  8
0
 10
96.8977
 20
167.316
 11
96.8118
 21
167.335
  0
LINE
  8
0
 10
96.8118
 20
167.335
 11
96.7287
 21
167.364
  0
LINE
  8
0
 10
96.7287
 20
167.364
 11
96.65
 21
167.403
  0
LINE
  8
0
 10
96.65
 20
167.403
 11
96.5768
 21
167.451
  0
LINE
  8
0
 10
96.5768
 20
167.451
 11
96.5102
 21
167.509
  0
LINE
  8
0
 10
96.5102
 20
167.509
 11
96.4514
 21
167.574
  0
LINE
  8
0
 10
96.4514
 20
167.574
 11
96.4012
 21
167.646
  0
LINE
  8
0
 10
96.4012
 20
167.646
 11
96.3605
 21
167.724
  0
LINE
  8
0
 10
96.3605
 20
167.724
 11
96.3299
 21
167.807
  0
LINE
  8
0
 10
96.3299
 20
167.807
 11
96.3098
 21
167.892
  0
LINE
  8
0
 10
96.3098
 20
167.892
 11
96.3006
 21
167.98
  0
LINE
  8
0
 10
167.309
 20
-96.9853
 11
167.316
 21
-96.8977
  0
LINE
  8
0
 10
167.316
 20
-96.8977
 11
167.335
 21
-96.8118
  0
LINE
  8
0
 10
167.335
 20
-96.8118
 11
167.364
 21
-96.7287
  0
LINE
  8
0
 10
167.364
 20
-96.7287
 11
167.403
 21
-96.65
  0
LINE
  8
0
 10
167.403
 20
-96.65
 11
167.451
 21
-96.5768
  0
LINE
  8
0
 10
167.451
 20
-96.5768
 11
167.509
 21
-96.5102
  0
LINE
  8
0
 10
167.509
 20
-96.5102
 11
167.574
 21
-96.4514
  0
LINE
  8
0
 10
167.574
 20
-96.4514
 11
167.646
 21
-96.4012
  0
LINE
  8
0
 10
167.646
 20
-96.4012
 11
167.724
 21
-96.3605
  0
LINE
  8
0
 10
167.724
 20
-96.3605
 11
167.807
 21
-96.3299
  0
LINE
  8
0
 10
167.807
 20
-96.3299
 11
167.892
 21
-96.3098
  0
LINE
  8
0
 10
167.892
 20
-96.3098
 11
167.98
 21
-96.3006
  0
LINE
  8
0
 10
167.98
 20
-96.3006
 11
168.068
 21
-96.3025
  0
LINE
  8
0
 10
168.068
 20
-96.3025
 11
168.154
 21
-96.3153
  0
LINE
  8
0
 10
168.154
 20
-96.3153
 11
168.239
 21
-96.3389
  0
LINE
  8
0
 10
168.239
 20
-96.3389
 11
168.32
 21
-96.373
  0
LINE
  8
0
 10
168.32
 20
-96.373
 11
168.396
 21
-96.417
  0
LINE
  8
0
 10
168.396
 20
-96.417
 11
168.466
 21
-96.4701
  0
LINE
  8
0
 10
168.466
 20
-96.4701
 11
168.529
 21
-96.5316
  0
LINE
  8
0
 10
168.529
 20
-96.5316
 11
168.584
 21
-96.6005
  0
LINE
  8
0
 10
168.584
 20
-96.6005
 11
168.629
 21
-96.6757
  0
LINE
  8
0
 10
168.629
 20
-96.6757
 11
168.665
 21
-96.756
  0
LINE
  8
0
 10
168.665
 20
-96.756
 11
168.69
 21
-96.8402
  0
LINE
  8
0
 10
168.69
 20
-96.8402
 11
168.705
 21
-96.9268
  0
LINE
  8
0
 10
168.705
 20
-96.9268
 11
168.709
 21
-97.0147
  0
LINE
  8
0
 10
168.709
 20
-97.0147
 11
168.701
 21
-97.1023
  0
LINE
  8
0
 10
168.701
 20
-97.1023
 11
168.683
 21
-97.1882
  0
LINE
  8
0
 10
168.683
 20
-97.1882
 11
168.654
 21
-97.2713
  0
LINE
  8
0
 10
168.654
 20
-97.2713
 11
168.615
 21
-97.35
  0
LINE
  8
0
 10
168.615
 20
-97.35
 11
168.566
 21
-97.4232
  0
LINE
  8
0
 10
168.566
 20
-97.4232
 11
168.509
 21
-97.4898
  0
LINE
  8
0
 10
168.509
 20
-97.4898
 11
168.444
 21
-97.5486
  0
LINE
  8
0
 10
168.444
 20
-97.5486
 11
168.372
 21
-97.5988
  0
LINE
  8
0
 10
168.372
 20
-97.5988
 11
168.294
 21
-97.6395
  0
LINE
  8
0
 10
168.294
 20
-97.6395
 11
168.211
 21
-97.6701
  0
LINE
  8
0
 10
168.211
 20
-97.6701
 11
168.126
 21
-97.6902
  0
LINE
  8
0
 10
168.126
 20
-97.6902
 11
168.038
 21
-97.6994
  0
LINE
  8
0
 10
168.038
 20
-97.6994
 11
167.95
 21
-97.6975
  0
LINE
  8
0
 10
167.95
 20
-97.6975
 11
167.863
 21
-97.6847
  0
LINE
  8
0
 10
167.863
 20
-97.6847
 11
167.779
 21
-97.6611
  0
LINE
  8
0
 10
167.779
 20
-97.6611
 11
167.698
 21
-97.627
  0
LINE
  8
0
 10
167.698
 20
-97.627
 11
167.622
 21
-97.583
  0
LINE
  8
0
 10
167.622
 20
-97.583
 11
167.552
 21
-97.5299
  0
LINE
  8
0
 10
167.552
 20
-97.5299
 11
167.489
 21
-97.4684
  0
LINE
  8
0
 10
167.489
 20
-97.4684
 11
167.434
 21
-97.3995
  0
LINE
  8
0
 10
167.434
 20
-97.3995
 11
167.389
 21
-97.3243
  0
LINE
  8
0
 10
167.389
 20
-97.3243
 11
167.353
 21
-97.244
  0
LINE
  8
0
 10
167.353
 20
-97.244
 11
167.327
 21
-97.1598
  0
LINE
  8
0
 10
167.327
 20
-97.1598
 11
167.313
 21
-97.0732
  0
LINE
  8
0
 10
167.313
 20
-97.0732
 11
167.309
 21
-96.9853
  0
LINE
  8
0
 10
167.309
 20
96.9853
 11
167.313
 21
97.0732
  0
LINE
  8
0
 10
167.313
 20
97.0732
 11
167.327
 21
97.1598
  0
LINE
  8
0
 10
167.327
 20
97.1598
 11
167.353
 21
97.244
  0
LINE
  8
0
 10
167.353
 20
97.244
 11
167.389
 21
97.3243
  0
LINE
  8
0
 10
167.389
 20
97.3243
 11
167.434
 21
97.3995
  0
LINE
  8
0
 10
167.434
 20
97.3995
 11
167.489
 21
97.4684
  0
LINE
  8
0
 10
167.489
 20
97.4684
 11
167.552
 21
97.5299
  0
LINE
  8
0
 10
167.552
 20
97.5299
 11
167.622
 21
97.583
  0
LINE
  8
0
 10
167.622
 20
97.583
 11
167.698
 21
97.627
  0
LINE
  8
0
 10
167.698
 20
97.627
 11
167.779
 21
97.6611
  0
LINE
  8
0
 10
167.779
 20
97.6611
 11
167.863
 21
97.6847
  0
LINE
  8
0
 10
167.863
 20
97.6847
 11
167.95
 21
97.6975
  0
LINE
  8
0
 10
167.95
 20
97.6975
 11
168.038
 21
97.6994
  0
LINE
  8
0
 10
168.038
 20
97.6994
 11
168.126
 21
97.6902
  0
LINE
  8
0
 10
168.126
 20
97.6902
 11
168.211
 21
97.6701
  0
LINE
  8
0
 10
168.211
 20
97.6701
 11
168.294
 21
97.6395
  0
LINE
  8
0
 10
168.294
 20
97.6395
 11
168.372
 21
97.5988
  0
LINE
  8
0
 10
168.372
 20
97.5988
 11
168.444
 21
97.5486
  0
LINE
  8
0
 10
168.444
 20
97.5486
 11
168.509
 21
97.4898
  0
LINE
  8
0
 10
168.509
 20
97.4898
 11
168.566
 21
97.4232
  0
LINE
  8
0
 10
168.566
 20
97.4232
 11
168.615
 21
97.35
  0
LINE
  8
0
 10
168.615
 20
97.35
 11
168.654
 21
97.2713
  0
LINE
  8
0
 10
168.654
 20
97.2713
 11
168.683
 21
97.1882
  0
LINE
  8
0
 10
168.683
 20
97.1882
 11
168.701
 21
97.1023
  0
LINE
  8
0
 10
168.701
 20
97.1023
 11
168.709
 21
97.0147
  0
LINE
  8
0
 10
168.709
 20
97.0147
 11
168.705
 21
96.9268
  0
LINE
  8
0
 10
168.705
 20
96.9268
 11
168.69
 21
96.8402
  0
LINE
  8
0
 10
168.69
 20
96.8402
 11
168.665
 21
96.756
  0
LINE
  8
0
 10
168.665
 20
96.756
 11
168.629
 21
96.6757
  0
LINE
  8
0
 10
168.629
 20
96.6757
 11
168.584
 21
96.6005
  0
LINE
  8
0
 10
168.584
 20
96.6005
 11
168.529
 21
96.5316
  0
LINE
  8
0
 10
168.529
 20
96.5316
 11
168.466
 21
96.4701
  0
LINE
  8
0
 10
168.466
 20
96.4701
 11
168.396
 21
96.417
  0
LINE
  8
0
 10
168.396
 20
96.417
 11
168.32
 21
96.373
  0
LINE
  8
0
 10
168.32
 20
96.373
 11
168.239
 21
96.3389
  0
LINE
  8
0
 10
168.239
 20
96.3389
 11
168.154
 21
96.3153
  0
LINE
  8
0
 10
168.154
 20
96.3153
 11
168.068
 21
96.3025
  0
LINE
  8
0
 10
168.068
 20
96.3025
 11
167.98
 21
96.3006
  0
LINE
  8
0
 10
167.98
 20
96.3006
 11
167.892
 21
96.3098
  0
LINE
  8
0
 10
167.892
 20
96.3098
 11
167.807
 21
96.3299
  0
LINE
  8
0
 10
167.807
 20
96.3299
 11
167.724
 21
96.3605
  0
LINE
  8
0
 10
167.724
 20
96.3605
 11
167.646
 21
96.4012
  0
LINE
  8
0
 10
167.646
 20
96.4012
 11
167.574
 21
96.4514
  0
LINE
  8
0
 10
167.574
 20
96.4514
 11
167.509
 21
96.5102
  0
LINE
  8
0
 10
167.509
 20
96.5102
 11
167.451
 21
96.5768
  0
LINE
  8
0
 10
167.451
 20
96.5768
 11
167.403
 21
96.65
  0
LINE
  8
0
 10
167.403
 20
96.65
 11
167.364
 21
96.7287
  0
LINE
  8
0
 10
167.364
 20
96.7287
 11
167.335
 21
96.8118
  0
LINE
  8
0
 10
167.335
 20
96.8118
 11
167.316
 21
96.8977
  0
LINE
  8
0
 10
167.316
 20
96.8977
 11
167.309
 21
96.9853
  0
LINE
  8
0
 10
193.3
 20
0
 11
193.306
 21
0.0877323
  0
LINE
  8
0
 10
193.306
 20
0.0877323
 11
193.322
 21
0.174083
  0
LINE
  8
0
 10
193.322
 20
0.174083
 11
193.349
 21
0.257687
  0
LINE
  8
0
 10
193.349
 20
0.257687
 11
193.387
 21
0.337227
  0
LINE
  8
0
 10
193.387
 20
0.337227
 11
193.434
 21
0.411449
  0
LINE
  8
0
 10
193.434
 20
0.411449
 11
193.49
 21
0.479182
  0
LINE
  8
0
 10
193.49
 20
0.479182
 11
193.554
 21
0.539359
  0
LINE
  8
0
 10
193.554
 20
0.539359
 11
193.625
 21
0.591029
  0
LINE
  8
0
 10
193.625
 20
0.591029
 11
193.702
 21
0.633378
  0
LINE
  8
0
 10
193.702
 20
0.633378
 11
193.784
 21
0.665739
  0
LINE
  8
0
 10
193.784
 20
0.665739
 11
193.869
 21
0.6876
  0
LINE
  8
0
 10
193.869
 20
0.6876
 11
193.956
 21
0.698618
  0
LINE
  8
0
 10
193.956
 20
0.698618
 11
194.044
 21
0.698618
  0
LINE
  8
0
 10
194.044
 20
0.698618
 11
194.131
 21
0.6876
  0
LINE
  8
0
 10
194.131
 20
0.6876
 11
194.216
 21
0.665739
  0
LINE
  8
0
 10
194.216
 20
0.665739
 11
194.298
 21
0.633378
  0
LINE
  8
0
 10
194.298
 20
0.633378
 11
194.375
 21
0.591029
  0
LINE
  8
0
 10
194.375
 20
0.591029
 11
194.446
 21
0.539359
  0
LINE
  8
0
 10
194.446
 20
0.539359
 11
194.51
 21
0.479182
  0
LINE
  8
0
 10
194.51
 20
0.479182
 11
194.566
 21
0.411449
  0
LINE
  8
0
 10
194.566
 20
0.411449
 11
194.613
 21
0.337227
  0
LINE
  8
0
 10
194.613
 20
0.337227
 11
194.651
 21
0.257687
  0
LINE
  8
0
 10
194.651
 20
0.257687
 11
194.678
 21
0.174083
  0
LINE
  8
0
 10
194.678
 20
0.174083
 11
194.694
 21
0.0877323
  0
LINE
  8
0
 10
194.694
 20
0.0877323
 11
194.7
 21
0
  0
LINE
  8
0
 10
194.7
 20
0
 11
194.694
 21
-0.0877323
  0
LINE
  8
0
 10
194.694
 20
-0.0877323
 11
194.678
 21
-0.174083
  0
LINE
  8
0
 10
194.678
 20
-0.174083
 11
194.651
 21
-0.257687
  0
LINE
  8
0
 10
194.651
 20
-0.257687
 11
194.613
 21
-0.337227
  0
LINE
  8
0
 10
194.613
 20
-0.337227
 11
194.566
 21
-0.411449
  0
LINE
  8
0
 10
194.566
 20
-0.411449
 11
194.51
 21
-0.479182
  0
LINE
  8
0
 10
194.51
 20
-0.479182
 11
194.446
 21
-0.539359
  0
LINE
  8
0
 10
194.446
 20
-0.539359
 11
194.375
 21
-0.591029
  0
LINE
  8
0
 10
194.375
 20
-0.591029
 11
194.298
 21
-0.633378
  0
LINE
  8
0
 10
194.298
 20
-0.633378
 11
194.216
 21
-0.665739
  0
LINE
  8
0
 10
194.216
 20
-0.665739
 11
194.131
 21
-0.6876
  0
LINE
  8
0
 10
194.131
 20
-0.6876
 11
194.044
 21
-0.698618
  0
LINE
  8
0
 10
194.044
 20
-0.698618
 11
193.956
 21
-0.698618
  0
LINE
  8
0
 10
193.956
 20
-0.698618
 11
193.869
 21
-0.6876
  0
LINE
  8
0
 10
193.869
 20
-0.6876
 11
193.784
 21
-0.665739
  0
LINE
  8
0
 10
193.784
 20
-0.665739
 11
193.702
 21
-0.633378
  0
LINE
  8
0
 10
193.702
 20
-0.633378
 11
193.625
 21
-0.591029
  0
LINE
  8
0
 10
193.625
 20
-0.591029
 11
193.554
 21
-0.539359
  0
LINE
  8
0
 10
193.554
 20
-0.539359
 11
193.49
 21
-0.479182
  0
LINE
  8
0
 10
193.49
 20
-0.479182
 11
193.434
 21
-0.411449
  0
LINE
  8
0
 10
193.434
 20
-0.411449
 11
193.387
 21
-0.337227
  0
LINE
  8
0
 10
193.387
 20
-0.337227
 11
193.349
 21
-0.257687
  0
LINE
  8
0
 10
193.349
 20
-0.257687
 11
193.322
 21
-0.174083
  0
LINE
  8
0
 10
193.322
 20
-0.174083
 11
193.306
 21
-0.0877323
  0
LINE
  8
0
 10
193.306
 20
-0.0877323
 11
193.3
 21
0
  0
ENDSEC
  0
SECTION
  2
OBJECTS
  0
DICTIONARY
  0
ENDSEC
  0
EOF
