  0
SECTION
  2
BLOCKS
  0
ENDSEC
  0
SECTION
  2
ENTITIES
  0
LINE
  8
0
 10
-76.3095
 20
0
 11
-76.2865
 21
-1.87273
  0
LINE
  8
0
 10
-76.2865
 20
-1.87273
 11
-76.2176
 21
-3.74433
  0
LINE
  8
0
 10
-76.2176
 20
-3.74433
 11
-76.1028
 21
-5.61368
  0
LINE
  8
0
 10
-76.1028
 20
-5.61368
 11
-75.9421
 21
-7.47964
  0
LINE
  8
0
 10
-75.9421
 20
-7.47964
 11
-75.7356
 21
-9.3411
  0
LINE
  8
0
 10
-75.7356
 20
-9.3411
 11
-75.4836
 21
-11.1969
  0
LINE
  8
0
 10
-75.4836
 20
-11.1969
 11
-75.1861
 21
-13.046
  0
LINE
  8
0
 10
-75.1861
 20
-13.046
 11
-74.8433
 21
-14.8872
  0
LINE
  8
0
 10
-74.8433
 20
-14.8872
 11
-74.4554
 21
-16.7195
  0
LINE
  8
0
 10
-74.4554
 20
-16.7195
 11
-74.0226
 21
-18.5417
  0
LINE
  8
0
 10
-74.0226
 20
-18.5417
 11
-73.5453
 21
-20.3527
  0
LINE
  8
0
 10
-73.5453
 20
-20.3527
 11
-73.0237
 21
-22.1515
  0
LINE
  8
0
 10
-73.0237
 20
-22.1515
 11
-72.458
 21
-23.9369
  0
LINE
  8
0
 10
-72.458
 20
-23.9369
 11
-71.8488
 21
-25.7079
  0
LINE
  8
0
 10
-71.8488
 20
-25.7079
 11
-71.1962
 21
-27.4634
  0
LINE
  8
0
 10
-71.1962
 20
-27.4634
 11
-70.5008
 21
-29.2024
  0
LINE
  8
0
 10
-70.5008
 20
-29.2024
 11
-69.7629
 21
-30.9238
  0
LINE
  8
0
 10
-69.7629
 20
-30.9238
 11
-68.983
 21
-32.6265
  0
LINE
  8
0
 10
-68.983
 20
-32.6265
 11
-68.1615
 21
-34.3096
  0
LINE
  8
0
 10
-68.1615
 20
-34.3096
 11
-67.299
 21
-35.9721
  0
LINE
  8
0
 10
-67.299
 20
-35.9721
 11
-66.3959
 21
-37.6128
  0
LINE
  8
0
 10
-66.3959
 20
-37.6128
 11
-65.4529
 21
-39.2309
  0
LINE
  8
0
 10
-65.4529
 20
-39.2309
 11
-64.4704
 21
-40.8254
  0
LINE
  8
0
 10
-64.4704
 20
-40.8254
 11
-63.449
 21
-42.3953
  0
LINE
  8
0
 10
-63.449
 20
-42.3953
 11
-62.3895
 21
-43.9396
  0
LINE
  8
0
 10
-62.3895
 20
-43.9396
 11
-61.2924
 21
-45.4575
  0
LINE
  8
0
 10
-61.2924
 20
-45.4575
 11
-60.1583
 21
-46.948
  0
LINE
  8
0
 10
-60.1583
 20
-46.948
 11
-58.9881
 21
-48.4102
  0
LINE
  8
0
 10
-58.9881
 20
-48.4102
 11
-57.7822
 21
-49.8433
  0
LINE
  8
0
 10
-57.7822
 20
-49.8433
 11
-56.5416
 21
-51.2463
  0
LINE
  8
0
 10
-56.5416
 20
-51.2463
 11
-55.2669
 21
-52.6185
  0
LINE
  8
0
 10
-55.2669
 20
-52.6185
 11
-53.959
 21
-53.959
  0
LINE
  8
0
 10
-53.959
 20
-53.959
 11
-52.6185
 21
-55.2669
  0
LINE
  8
0
 10
-52.6185
 20
-55.2669
 11
-51.2463
 21
-56.5416
  0
LINE
  8
0
 10
-51.2463
 20
-56.5416
 11
-49.8433
 21
-57.7822
  0
LINE
  8
0
 10
-49.8433
 20
-57.7822
 11
-48.4102
 21
-58.9881
  0
LINE
  8
0
 10
-48.4102
 20
-58.9881
 11
-46.948
 21
-60.1583
  0
LINE
  8
0
 10
-46.948
 20
-60.1583
 11
-45.4575
 21
-61.2924
  0
LINE
  8
0
 10
-45.4575
 20
-61.2924
 11
-43.9396
 21
-62.3895
  0
LINE
  8
0
 10
-43.9396
 20
-62.3895
 11
-42.3953
 21
-63.449
  0
LINE
  8
0
 10
-42.3953
 20
-63.449
 11
-40.8254
 21
-64.4704
  0
LINE
  8
0
 10
-40.8254
 20
-64.4704
 11
-39.2309
 21
-65.4529
  0
LINE
  8
0
 10
-39.2309
 20
-65.4529
 11
-37.6128
 21
-66.3959
  0
LINE
  8
0
 10
-37.6128
 20
-66.3959
 11
-35.9721
 21
-67.299
  0
LINE
  8
0
 10
-35.9721
 20
-67.299
 11
-34.3096
 21
-68.1615
  0
LINE
  8
0
 10
-34.3096
 20
-68.1615
 11
-32.6265
 21
-68.983
  0
LINE
  8
0
 10
-32.6265
 20
-68.983
 11
-30.9238
 21
-69.7629
  0
LINE
  8
0
 10
-30.9238
 20
-69.7629
 11
-29.2024
 21
-70.5008
  0
LINE
  8
0
 10
-29.2024
 20
-70.5008
 11
-27.4634
 21
-71.1962
  0
LINE
  8
0
 10
-27.4634
 20
-71.1962
 11
-25.7079
 21
-71.8488
  0
LINE
  8
0
 10
-25.7079
 20
-71.8488
 11
-23.9369
 21
-72.458
  0
LINE
  8
0
 10
-23.9369
 20
-72.458
 11
-22.1515
 21
-73.0237
  0
LINE
  8
0
 10
-22.1515
 20
-73.0237
 11
-20.3527
 21
-73.5453
  0
LINE
  8
0
 10
-20.3527
 20
-73.5453
 11
-18.5417
 21
-74.0226
  0
LINE
  8
0
 10
-18.5417
 20
-74.0226
 11
-16.7195
 21
-74.4554
  0
LINE
  8
0
 10
-16.7195
 20
-74.4554
 11
-14.8872
 21
-74.8433
  0
LINE
  8
0
 10
-14.8872
 20
-74.8433
 11
-13.046
 21
-75.1861
  0
LINE
  8
0
 10
-13.046
 20
-75.1861
 11
-11.1969
 21
-75.4836
  0
LINE
  8
0
 10
-11.1969
 20
-75.4836
 11
-9.3411
 21
-75.7356
  0
LINE
  8
0
 10
-9.3411
 20
-75.7356
 11
-7.47964
 21
-75.9421
  0
LINE
  8
0
 10
-7.47964
 20
-75.9421
 11
-5.61368
 21
-76.1028
  0
LINE
  8
0
 10
-5.61368
 20
-76.1028
 11
-3.74433
 21
-76.2176
  0
LINE
  8
0
 10
-3.74433
 20
-76.2176
 11
-1.87273
 21
-76.2865
  0
LINE
  8
0
 10
-1.87273
 20
-76.2865
 11
0
 21
-76.3095
  0
LINE
  8
0
 10
0
 20
-76.3095
 11
1.87273
 21
-76.2865
  0
LINE
  8
0
 10
1.87273
 20
-76.2865
 11
3.74433
 21
-76.2176
  0
LINE
  8
0
 10
3.74433
 20
-76.2176
 11
5.61368
 21
-76.1028
  0
LINE
  8
0
 10
5.61368
 20
-76.1028
 11
7.47964
 21
-75.9421
  0
LINE
  8
0
 10
7.47964
 20
-75.9421
 11
9.3411
 21
-75.7356
  0
LINE
  8
0
 10
9.3411
 20
-75.7356
 11
11.1969
 21
-75.4836
  0
LINE
  8
0
 10
11.1969
 20
-75.4836
 11
13.046
 21
-75.1861
  0
LINE
  8
0
 10
13.046
 20
-75.1861
 11
14.8872
 21
-74.8433
  0
LINE
  8
0
 10
14.8872
 20
-74.8433
 11
16.7195
 21
-74.4554
  0
LINE
  8
0
 10
16.7195
 20
-74.4554
 11
18.5417
 21
-74.0226
  0
LINE
  8
0
 10
18.5417
 20
-74.0226
 11
20.3527
 21
-73.5453
  0
LINE
  8
0
 10
20.3527
 20
-73.5453
 11
22.1515
 21
-73.0237
  0
LINE
  8
0
 10
22.1515
 20
-73.0237
 11
23.9369
 21
-72.458
  0
LINE
  8
0
 10
23.9369
 20
-72.458
 11
25.7079
 21
-71.8488
  0
LINE
  8
0
 10
25.7079
 20
-71.8488
 11
27.4634
 21
-71.1962
  0
LINE
  8
0
 10
27.4634
 20
-71.1962
 11
29.2024
 21
-70.5008
  0
LINE
  8
0
 10
29.2024
 20
-70.5008
 11
30.9238
 21
-69.7629
  0
LINE
  8
0
 10
30.9238
 20
-69.7629
 11
32.6265
 21
-68.983
  0
LINE
  8
0
 10
32.6265
 20
-68.983
 11
34.3096
 21
-68.1615
  0
LINE
  8
0
 10
34.3096
 20
-68.1615
 11
35.9721
 21
-67.299
  0
LINE
  8
0
 10
35.9721
 20
-67.299
 11
37.6128
 21
-66.3959
  0
LINE
  8
0
 10
37.6128
 20
-66.3959
 11
39.2309
 21
-65.4529
  0
LINE
  8
0
 10
39.2309
 20
-65.4529
 11
40.8254
 21
-64.4704
  0
LINE
  8
0
 10
40.8254
 20
-64.4704
 11
42.3953
 21
-63.449
  0
LINE
  8
0
 10
42.3953
 20
-63.449
 11
43.9396
 21
-62.3895
  0
LINE
  8
0
 10
43.9396
 20
-62.3895
 11
45.4575
 21
-61.2924
  0
LINE
  8
0
 10
45.4575
 20
-61.2924
 11
46.948
 21
-60.1583
  0
LINE
  8
0
 10
46.948
 20
-60.1583
 11
48.4102
 21
-58.9881
  0
LINE
  8
0
 10
48.4102
 20
-58.9881
 11
49.8433
 21
-57.7822
  0
LINE
  8
0
 10
49.8433
 20
-57.7822
 11
51.2463
 21
-56.5416
  0
LINE
  8
0
 10
51.2463
 20
-56.5416
 11
52.6185
 21
-55.2669
  0
LINE
  8
0
 10
52.6185
 20
-55.2669
 11
53.959
 21
-53.959
  0
LINE
  8
0
 10
53.959
 20
-53.959
 11
55.2669
 21
-52.6185
  0
LINE
  8
0
 10
55.2669
 20
-52.6185
 11
56.5416
 21
-51.2463
  0
LINE
  8
0
 10
56.5416
 20
-51.2463
 11
57.7822
 21
-49.8433
  0
LINE
  8
0
 10
57.7822
 20
-49.8433
 11
58.9881
 21
-48.4102
  0
LINE
  8
0
 10
58.9881
 20
-48.4102
 11
60.1583
 21
-46.948
  0
LINE
  8
0
 10
60.1583
 20
-46.948
 11
61.2924
 21
-45.4575
  0
LINE
  8
0
 10
61.2924
 20
-45.4575
 11
62.3895
 21
-43.9396
  0
LINE
  8
0
 10
62.3895
 20
-43.9396
 11
63.449
 21
-42.3953
  0
LINE
  8
0
 10
63.449
 20
-42.3953
 11
64.4704
 21
-40.8254
  0
LINE
  8
0
 10
64.4704
 20
-40.8254
 11
65.4529
 21
-39.2309
  0
LINE
  8
0
 10
65.4529
 20
-39.2309
 11
66.3959
 21
-37.6128
  0
LINE
  8
0
 10
66.3959
 20
-37.6128
 11
67.299
 21
-35.9721
  0
LINE
  8
0
 10
67.299
 20
-35.9721
 11
68.1615
 21
-34.3096
  0
LINE
  8
0
 10
68.1615
 20
-34.3096
 11
68.983
 21
-32.6265
  0
LINE
  8
0
 10
68.983
 20
-32.6265
 11
69.7629
 21
-30.9238
  0
LINE
  8
0
 10
69.7629
 20
-30.9238
 11
70.5008
 21
-29.2024
  0
LINE
  8
0
 10
70.5008
 20
-29.2024
 11
71.1962
 21
-27.4634
  0
LINE
  8
0
 10
71.1962
 20
-27.4634
 11
71.8488
 21
-25.7079
  0
LINE
  8
0
 10
71.8488
 20
-25.7079
 11
72.458
 21
-23.9369
  0
LINE
  8
0
 10
72.458
 20
-23.9369
 11
73.0237
 21
-22.1515
  0
LINE
  8
0
 10
73.0237
 20
-22.1515
 11
73.5453
 21
-20.3527
  0
LINE
  8
0
 10
73.5453
 20
-20.3527
 11
74.0226
 21
-18.5417
  0
LINE
  8
0
 10
74.0226
 20
-18.5417
 11
74.4554
 21
-16.7195
  0
LINE
  8
0
 10
74.4554
 20
-16.7195
 11
74.8433
 21
-14.8872
  0
LINE
  8
0
 10
74.8433
 20
-14.8872
 11
75.1861
 21
-13.046
  0
LINE
  8
0
 10
75.1861
 20
-13.046
 11
75.4836
 21
-11.1969
  0
LINE
  8
0
 10
75.4836
 20
-11.1969
 11
75.7356
 21
-9.3411
  0
LINE
  8
0
 10
75.7356
 20
-9.3411
 11
75.9421
 21
-7.47964
  0
LINE
  8
0
 10
75.9421
 20
-7.47964
 11
76.1028
 21
-5.61368
  0
LINE
  8
0
 10
76.1028
 20
-5.61368
 11
76.2176
 21
-3.74433
  0
LINE
  8
0
 10
76.2176
 20
-3.74433
 11
76.2865
 21
-1.87273
  0
LINE
  8
0
 10
76.2865
 20
-1.87273
 11
76.3095
 21
0
  0
LINE
  8
0
 10
76.3095
 20
0
 11
76.2865
 21
1.87273
  0
LINE
  8
0
 10
76.2865
 20
1.87273
 11
76.2176
 21
3.74433
  0
LINE
  8
0
 10
76.2176
 20
3.74433
 11
76.1028
 21
5.61368
  0
LINE
  8
0
 10
76.1028
 20
5.61368
 11
75.9421
 21
7.47964
  0
LINE
  8
0
 10
75.9421
 20
7.47964
 11
75.7356
 21
9.3411
  0
LINE
  8
0
 10
75.7356
 20
9.3411
 11
75.4836
 21
11.1969
  0
LINE
  8
0
 10
75.4836
 20
11.1969
 11
75.1861
 21
13.046
  0
LINE
  8
0
 10
75.1861
 20
13.046
 11
74.8433
 21
14.8872
  0
LINE
  8
0
 10
74.8433
 20
14.8872
 11
74.4554
 21
16.7195
  0
LINE
  8
0
 10
74.4554
 20
16.7195
 11
74.0226
 21
18.5417
  0
LINE
  8
0
 10
74.0226
 20
18.5417
 11
73.5453
 21
20.3527
  0
LINE
  8
0
 10
73.5453
 20
20.3527
 11
73.0237
 21
22.1515
  0
LINE
  8
0
 10
73.0237
 20
22.1515
 11
72.458
 21
23.9369
  0
LINE
  8
0
 10
72.458
 20
23.9369
 11
71.8488
 21
25.7079
  0
LINE
  8
0
 10
71.8488
 20
25.7079
 11
71.1962
 21
27.4634
  0
LINE
  8
0
 10
71.1962
 20
27.4634
 11
70.5008
 21
29.2024
  0
LINE
  8
0
 10
70.5008
 20
29.2024
 11
69.7629
 21
30.9238
  0
LINE
  8
0
 10
69.7629
 20
30.9238
 11
68.983
 21
32.6265
  0
LINE
  8
0
 10
68.983
 20
32.6265
 11
68.1615
 21
34.3096
  0
LINE
  8
0
 10
68.1615
 20
34.3096
 11
67.299
 21
35.9721
  0
LINE
  8
0
 10
67.299
 20
35.9721
 11
66.3959
 21
37.6128
  0
LINE
  8
0
 10
66.3959
 20
37.6128
 11
65.4529
 21
39.2309
  0
LINE
  8
0
 10
65.4529
 20
39.2309
 11
64.4704
 21
40.8254
  0
LINE
  8
0
 10
64.4704
 20
40.8254
 11
63.449
 21
42.3953
  0
LINE
  8
0
 10
63.449
 20
42.3953
 11
62.3895
 21
43.9396
  0
LINE
  8
0
 10
62.3895
 20
43.9396
 11
61.2924
 21
45.4575
  0
LINE
  8
0
 10
61.2924
 20
45.4575
 11
60.1583
 21
46.948
  0
LINE
  8
0
 10
60.1583
 20
46.948
 11
58.9881
 21
48.4102
  0
LINE
  8
0
 10
58.9881
 20
48.4102
 11
57.7822
 21
49.8433
  0
LINE
  8
0
 10
57.7822
 20
49.8433
 11
56.5416
 21
51.2463
  0
LINE
  8
0
 10
56.5416
 20
51.2463
 11
55.2669
 21
52.6185
  0
LINE
  8
0
 10
55.2669
 20
52.6185
 11
53.959
 21
53.959
  0
LINE
  8
0
 10
53.959
 20
53.959
 11
52.6185
 21
55.2669
  0
LINE
  8
0
 10
52.6185
 20
55.2669
 11
51.2463
 21
56.5416
  0
LINE
  8
0
 10
51.2463
 20
56.5416
 11
49.8433
 21
57.7822
  0
LINE
  8
0
 10
49.8433
 20
57.7822
 11
48.4102
 21
58.9881
  0
LINE
  8
0
 10
48.4102
 20
58.9881
 11
46.948
 21
60.1583
  0
LINE
  8
0
 10
46.948
 20
60.1583
 11
45.4575
 21
61.2924
  0
LINE
  8
0
 10
45.4575
 20
61.2924
 11
43.9396
 21
62.3895
  0
LINE
  8
0
 10
43.9396
 20
62.3895
 11
42.3953
 21
63.449
  0
LINE
  8
0
 10
42.3953
 20
63.449
 11
40.8254
 21
64.4704
  0
LINE
  8
0
 10
40.8254
 20
64.4704
 11
39.2309
 21
65.4529
  0
LINE
  8
0
 10
39.2309
 20
65.4529
 11
37.6128
 21
66.3959
  0
LINE
  8
0
 10
37.6128
 20
66.3959
 11
35.9721
 21
67.299
  0
LINE
  8
0
 10
35.9721
 20
67.299
 11
34.3096
 21
68.1615
  0
LINE
  8
0
 10
34.3096
 20
68.1615
 11
32.6265
 21
68.983
  0
LINE
  8
0
 10
32.6265
 20
68.983
 11
30.9238
 21
69.7629
  0
LINE
  8
0
 10
30.9238
 20
69.7629
 11
29.2024
 21
70.5008
  0
LINE
  8
0
 10
29.2024
 20
70.5008
 11
27.4634
 21
71.1962
  0
LINE
  8
0
 10
27.4634
 20
71.1962
 11
25.7079
 21
71.8488
  0
LINE
  8
0
 10
25.7079
 20
71.8488
 11
23.9369
 21
72.458
  0
LINE
  8
0
 10
23.9369
 20
72.458
 11
22.1515
 21
73.0237
  0
LINE
  8
0
 10
22.1515
 20
73.0237
 11
20.3527
 21
73.5453
  0
LINE
  8
0
 10
20.3527
 20
73.5453
 11
18.5417
 21
74.0226
  0
LINE
  8
0
 10
18.5417
 20
74.0226
 11
16.7195
 21
74.4554
  0
LINE
  8
0
 10
16.7195
 20
74.4554
 11
14.8872
 21
74.8433
  0
LINE
  8
0
 10
14.8872
 20
74.8433
 11
13.046
 21
75.1861
  0
LINE
  8
0
 10
13.046
 20
75.1861
 11
11.1969
 21
75.4836
  0
LINE
  8
0
 10
11.1969
 20
75.4836
 11
9.3411
 21
75.7356
  0
LINE
  8
0
 10
9.3411
 20
75.7356
 11
7.47964
 21
75.9421
  0
LINE
  8
0
 10
7.47964
 20
75.9421
 11
5.61368
 21
76.1028
  0
LINE
  8
0
 10
5.61368
 20
76.1028
 11
3.74433
 21
76.2176
  0
LINE
  8
0
 10
3.74433
 20
76.2176
 11
1.87273
 21
76.2865
  0
LINE
  8
0
 10
1.87273
 20
76.2865
 11
0
 21
76.3095
  0
LINE
  8
0
 10
0
 20
76.3095
 11
-1.87273
 21
76.2865
  0
LINE
  8
0
 10
-1.87273
 20
76.2865
 11
-3.74433
 21
76.2176
  0
LINE
  8
0
 10
-3.74433
 20
76.2176
 11
-5.61368
 21
76.1028
  0
LINE
  8
0
 10
-5.61368
 20
76.1028
 11
-7.47964
 21
75.9421
  0
LINE
  8
0
 10
-7.47964
 20
75.9421
 11
-9.3411
 21
75.7356
  0
LINE
  8
0
 10
-9.3411
 20
75.7356
 11
-11.1969
 21
75.4836
  0
LINE
  8
0
 10
-11.1969
 20
75.4836
 11
-13.046
 21
75.1861
  0
LINE
  8
0
 10
-13.046
 20
75.1861
 11
-14.8872
 21
74.8433
  0
LINE
  8
0
 10
-14.8872
 20
74.8433
 11
-16.7195
 21
74.4554
  0
LINE
  8
0
 10
-16.7195
 20
74.4554
 11
-18.5417
 21
74.0226
  0
LINE
  8
0
 10
-18.5417
 20
74.0226
 11
-20.3527
 21
73.5453
  0
LINE
  8
0
 10
-20.3527
 20
73.5453
 11
-22.1515
 21
73.0237
  0
LINE
  8
0
 10
-22.1515
 20
73.0237
 11
-23.9369
 21
72.458
  0
LINE
  8
0
 10
-23.9369
 20
72.458
 11
-25.7079
 21
71.8488
  0
LINE
  8
0
 10
-25.7079
 20
71.8488
 11
-27.4634
 21
71.1962
  0
LINE
  8
0
 10
-27.4634
 20
71.1962
 11
-29.2024
 21
70.5008
  0
LINE
  8
0
 10
-29.2024
 20
70.5008
 11
-30.9238
 21
69.7629
  0
LINE
  8
0
 10
-30.9238
 20
69.7629
 11
-32.6265
 21
68.983
  0
LINE
  8
0
 10
-32.6265
 20
68.983
 11
-34.3096
 21
68.1615
  0
LINE
  8
0
 10
-34.3096
 20
68.1615
 11
-35.9721
 21
67.299
  0
LINE
  8
0
 10
-35.9721
 20
67.299
 11
-37.6128
 21
66.3959
  0
LINE
  8
0
 10
-37.6128
 20
66.3959
 11
-39.2309
 21
65.4529
  0
LINE
  8
0
 10
-39.2309
 20
65.4529
 11
-40.8254
 21
64.4704
  0
LINE
  8
0
 10
-40.8254
 20
64.4704
 11
-42.3953
 21
63.449
  0
LINE
  8
0
 10
-42.3953
 20
63.449
 11
-43.9396
 21
62.3895
  0
LINE
  8
0
 10
-43.9396
 20
62.3895
 11
-45.4575
 21
61.2924
  0
LINE
  8
0
 10
-45.4575
 20
61.2924
 11
-46.948
 21
60.1583
  0
LINE
  8
0
 10
-46.948
 20
60.1583
 11
-48.4102
 21
58.9881
  0
LINE
  8
0
 10
-48.4102
 20
58.9881
 11
-49.8433
 21
57.7822
  0
LINE
  8
0
 10
-49.8433
 20
57.7822
 11
-51.2463
 21
56.5416
  0
LINE
  8
0
 10
-51.2463
 20
56.5416
 11
-52.6185
 21
55.2669
  0
LINE
  8
0
 10
-52.6185
 20
55.2669
 11
-53.959
 21
53.959
  0
LINE
  8
0
 10
-53.959
 20
53.959
 11
-55.2669
 21
52.6185
  0
LINE
  8
0
 10
-55.2669
 20
52.6185
 11
-56.5416
 21
51.2463
  0
LINE
  8
0
 10
-56.5416
 20
51.2463
 11
-57.7822
 21
49.8433
  0
LINE
  8
0
 10
-57.7822
 20
49.8433
 11
-58.9881
 21
48.4102
  0
LINE
  8
0
 10
-58.9881
 20
48.4102
 11
-60.1583
 21
46.948
  0
LINE
  8
0
 10
-60.1583
 20
46.948
 11
-61.2924
 21
45.4575
  0
LINE
  8
0
 10
-61.2924
 20
45.4575
 11
-62.3895
 21
43.9396
  0
LINE
  8
0
 10
-62.3895
 20
43.9396
 11
-63.449
 21
42.3953
  0
LINE
  8
0
 10
-63.449
 20
42.3953
 11
-64.4704
 21
40.8254
  0
LINE
  8
0
 10
-64.4704
 20
40.8254
 11
-65.4529
 21
39.2309
  0
LINE
  8
0
 10
-65.4529
 20
39.2309
 11
-66.3959
 21
37.6128
  0
LINE
  8
0
 10
-66.3959
 20
37.6128
 11
-67.299
 21
35.9721
  0
LINE
  8
0
 10
-67.299
 20
35.9721
 11
-68.1615
 21
34.3096
  0
LINE
  8
0
 10
-68.1615
 20
34.3096
 11
-68.983
 21
32.6265
  0
LINE
  8
0
 10
-68.983
 20
32.6265
 11
-69.7629
 21
30.9238
  0
LINE
  8
0
 10
-69.7629
 20
30.9238
 11
-70.5008
 21
29.2024
  0
LINE
  8
0
 10
-70.5008
 20
29.2024
 11
-71.1962
 21
27.4634
  0
LINE
  8
0
 10
-71.1962
 20
27.4634
 11
-71.8488
 21
25.7079
  0
LINE
  8
0
 10
-71.8488
 20
25.7079
 11
-72.458
 21
23.9369
  0
LINE
  8
0
 10
-72.458
 20
23.9369
 11
-73.0237
 21
22.1515
  0
LINE
  8
0
 10
-73.0237
 20
22.1515
 11
-73.5453
 21
20.3527
  0
LINE
  8
0
 10
-73.5453
 20
20.3527
 11
-74.0226
 21
18.5417
  0
LINE
  8
0
 10
-74.0226
 20
18.5417
 11
-74.4554
 21
16.7195
  0
LINE
  8
0
 10
-74.4554
 20
16.7195
 11
-74.8433
 21
14.8872
  0
LINE
  8
0
 10
-74.8433
 20
14.8872
 11
-75.1861
 21
13.046
  0
LINE
  8
0
 10
-75.1861
 20
13.046
 11
-75.4836
 21
11.1969
  0
LINE
  8
0
 10
-75.4836
 20
11.1969
 11
-75.7356
 21
9.3411
  0
LINE
  8
0
 10
-75.7356
 20
9.3411
 11
-75.9421
 21
7.47964
  0
LINE
  8
0
 10
-75.9421
 20
7.47964
 11
-76.1028
 21
5.61368
  0
LINE
  8
0
 10
-76.1028
 20
5.61368
 11
-76.2176
 21
3.74433
  0
LINE
  8
0
 10
-76.2176
 20
3.74433
 11
-76.2865
 21
1.87273
  0
LINE
  8
0
 10
-76.2865
 20
1.87273
 11
-76.3095
 21
0
  0
LINE
  8
0
 10
-73.0095
 20
0
 11
-73.004
 21
0.0877323
  0
LINE
  8
0
 10
-73.004
 20
0.0877323
 11
-72.9875
 21
0.174083
  0
LINE
  8
0
 10
-72.9875
 20
0.174083
 11
-72.9604
 21
0.257687
  0
LINE
  8
0
 10
-72.9604
 20
0.257687
 11
-72.9229
 21
0.337227
  0
LINE
  8
0
 10
-72.9229
 20
0.337227
 11
-72.8758
 21
0.411449
  0
LINE
  8
0
 10
-72.8758
 20
0.411449
 11
-72.8198
 21
0.479182
  0
LINE
  8
0
 10
-72.8198
 20
0.479182
 11
-72.7557
 21
0.539359
  0
LINE
  8
0
 10
-72.7557
 20
0.539359
 11
-72.6846
 21
0.591029
  0
LINE
  8
0
 10
-72.6846
 20
0.591029
 11
-72.6076
 21
0.633378
  0
LINE
  8
0
 10
-72.6076
 20
0.633378
 11
-72.5258
 21
0.665739
  0
LINE
  8
0
 10
-72.5258
 20
0.665739
 11
-72.4407
 21
0.6876
  0
LINE
  8
0
 10
-72.4407
 20
0.6876
 11
-72.3535
 21
0.698618
  0
LINE
  8
0
 10
-72.3535
 20
0.698618
 11
-72.2656
 21
0.698618
  0
LINE
  8
0
 10
-72.2656
 20
0.698618
 11
-72.1784
 21
0.6876
  0
LINE
  8
0
 10
-72.1784
 20
0.6876
 11
-72.0932
 21
0.665739
  0
LINE
  8
0
 10
-72.0932
 20
0.665739
 11
-72.0115
 21
0.633378
  0
LINE
  8
0
 10
-72.0115
 20
0.633378
 11
-71.9344
 21
0.591029
  0
LINE
  8
0
 10
-71.9344
 20
0.591029
 11
-71.8633
 21
0.539359
  0
LINE
  8
0
 10
-71.8633
 20
0.539359
 11
-71.7992
 21
0.479182
  0
LINE
  8
0
 10
-71.7992
 20
0.479182
 11
-71.7432
 21
0.411449
  0
LINE
  8
0
 10
-71.7432
 20
0.411449
 11
-71.6961
 21
0.337227
  0
LINE
  8
0
 10
-71.6961
 20
0.337227
 11
-71.6587
 21
0.257687
  0
LINE
  8
0
 10
-71.6587
 20
0.257687
 11
-71.6315
 21
0.174083
  0
LINE
  8
0
 10
-71.6315
 20
0.174083
 11
-71.615
 21
0.0877323
  0
LINE
  8
0
 10
-71.615
 20
0.0877323
 11
-71.6095
 21
0
  0
LINE
  8
0
 10
-71.6095
 20
0
 11
-71.615
 21
-0.0877323
  0
LINE
  8
0
 10
-71.615
 20
-0.0877323
 11
-71.6315
 21
-0.174083
  0
LINE
  8
0
 10
-71.6315
 20
-0.174083
 11
-71.6587
 21
-0.257687
  0
LINE
  8
0
 10
-71.6587
 20
-0.257687
 11
-71.6961
 21
-0.337227
  0
LINE
  8
0
 10
-71.6961
 20
-0.337227
 11
-71.7432
 21
-0.411449
  0
LINE
  8
0
 10
-71.7432
 20
-0.411449
 11
-71.7992
 21
-0.479182
  0
LINE
  8
0
 10
-71.7992
 20
-0.479182
 11
-71.8633
 21
-0.539359
  0
LINE
  8
0
 10
-71.8633
 20
-0.539359
 11
-71.9344
 21
-0.591029
  0
LINE
  8
0
 10
-71.9344
 20
-0.591029
 11
-72.0115
 21
-0.633378
  0
LINE
  8
0
 10
-72.0115
 20
-0.633378
 11
-72.0932
 21
-0.665739
  0
LINE
  8
0
 10
-72.0932
 20
-0.665739
 11
-72.1784
 21
-0.6876
  0
LINE
  8
0
 10
-72.1784
 20
-0.6876
 11
-72.2656
 21
-0.698618
  0
LINE
  8
0
 10
-72.2656
 20
-0.698618
 11
-72.3535
 21
-0.698618
  0
LINE
  8
0
 10
-72.3535
 20
-0.698618
 11
-72.4407
 21
-0.6876
  0
LINE
  8
0
 10
-72.4407
 20
-0.6876
 11
-72.5258
 21
-0.665739
  0
LINE
  8
0
 10
-72.5258
 20
-0.665739
 11
-72.6076
 21
-0.633378
  0
LINE
  8
0
 10
-72.6076
 20
-0.633378
 11
-72.6846
 21
-0.591029
  0
LINE
  8
0
 10
-72.6846
 20
-0.591029
 11
-72.7557
 21
-0.539359
  0
LINE
  8
0
 10
-72.7557
 20
-0.539359
 11
-72.8198
 21
-0.479182
  0
LINE
  8
0
 10
-72.8198
 20
-0.479182
 11
-72.8758
 21
-0.411449
  0
LINE
  8
0
 10
-72.8758
 20
-0.411449
 11
-72.9229
 21
-0.337227
  0
LINE
  8
0
 10
-72.9229
 20
-0.337227
 11
-72.9604
 21
-0.257687
  0
LINE
  8
0
 10
-72.9604
 20
-0.257687
 11
-72.9875
 21
-0.174083
  0
LINE
  8
0
 10
-72.9875
 20
-0.174083
 11
-73.004
 21
-0.0877323
  0
LINE
  8
0
 10
-73.004
 20
-0.0877323
 11
-73.0095
 21
0
  0
LINE
  8
0
 10
-36.8541
 20
-62.6512
 11
-36.8523
 21
-62.5633
  0
LINE
  8
0
 10
-36.8523
 20
-62.5633
 11
-36.8395
 21
-62.4763
  0
LINE
  8
0
 10
-36.8395
 20
-62.4763
 11
-36.8158
 21
-62.3917
  0
LINE
  8
0
 10
-36.8158
 20
-62.3917
 11
-36.7818
 21
-62.3106
  0
LINE
  8
0
 10
-36.7818
 20
-62.3106
 11
-36.7378
 21
-62.2345
  0
LINE
  8
0
 10
-36.7378
 20
-62.2345
 11
-36.6847
 21
-62.1645
  0
LINE
  8
0
 10
-36.6847
 20
-62.1645
 11
-36.6232
 21
-62.1017
  0
LINE
  8
0
 10
-36.6232
 20
-62.1017
 11
-36.5543
 21
-62.0471
  0
LINE
  8
0
 10
-36.5543
 20
-62.0471
 11
-36.4791
 21
-62.0015
  0
LINE
  8
0
 10
-36.4791
 20
-62.0015
 11
-36.3988
 21
-61.9658
  0
LINE
  8
0
 10
-36.3988
 20
-61.9658
 11
-36.3146
 21
-61.9404
  0
LINE
  8
0
 10
-36.3146
 20
-61.9404
 11
-36.2279
 21
-61.9257
  0
LINE
  8
0
 10
-36.2279
 20
-61.9257
 11
-36.1401
 21
-61.922
  0
LINE
  8
0
 10
-36.1401
 20
-61.922
 11
-36.0525
 21
-61.9294
  0
LINE
  8
0
 10
-36.0525
 20
-61.9294
 11
-35.9665
 21
-61.9477
  0
LINE
  8
0
 10
-35.9665
 20
-61.9477
 11
-35.8835
 21
-61.9766
  0
LINE
  8
0
 10
-35.8835
 20
-61.9766
 11
-35.8048
 21
-62.0157
  0
LINE
  8
0
 10
-35.8048
 20
-62.0157
 11
-35.7315
 21
-62.0643
  0
LINE
  8
0
 10
-35.7315
 20
-62.0643
 11
-35.665
 21
-62.1217
  0
LINE
  8
0
 10
-35.665
 20
-62.1217
 11
-35.6062
 21
-62.1871
  0
LINE
  8
0
 10
-35.6062
 20
-62.1871
 11
-35.556
 21
-62.2593
  0
LINE
  8
0
 10
-35.556
 20
-62.2593
 11
-35.5153
 21
-62.3372
  0
LINE
  8
0
 10
-35.5153
 20
-62.3372
 11
-35.4846
 21
-62.4196
  0
LINE
  8
0
 10
-35.4846
 20
-62.4196
 11
-35.4646
 21
-62.5051
  0
LINE
  8
0
 10
-35.4646
 20
-62.5051
 11
-35.4554
 21
-62.5926
  0
LINE
  8
0
 10
-35.4554
 20
-62.5926
 11
-35.4572
 21
-62.6805
  0
LINE
  8
0
 10
-35.4572
 20
-62.6805
 11
-35.4701
 21
-62.7674
  0
LINE
  8
0
 10
-35.4701
 20
-62.7674
 11
-35.4937
 21
-62.8521
  0
LINE
  8
0
 10
-35.4937
 20
-62.8521
 11
-35.5278
 21
-62.9331
  0
LINE
  8
0
 10
-35.5278
 20
-62.9331
 11
-35.5717
 21
-63.0093
  0
LINE
  8
0
 10
-35.5717
 20
-63.0093
 11
-35.6249
 21
-63.0793
  0
LINE
  8
0
 10
-35.6249
 20
-63.0793
 11
-35.6864
 21
-63.1421
  0
LINE
  8
0
 10
-35.6864
 20
-63.1421
 11
-35.7553
 21
-63.1967
  0
LINE
  8
0
 10
-35.7553
 20
-63.1967
 11
-35.8305
 21
-63.2422
  0
LINE
  8
0
 10
-35.8305
 20
-63.2422
 11
-35.9108
 21
-63.278
  0
LINE
  8
0
 10
-35.9108
 20
-63.278
 11
-35.9949
 21
-63.3034
  0
LINE
  8
0
 10
-35.9949
 20
-63.3034
 11
-36.0816
 21
-63.318
  0
LINE
  8
0
 10
-36.0816
 20
-63.318
 11
-36.1694
 21
-63.3217
  0
LINE
  8
0
 10
-36.1694
 20
-63.3217
 11
-36.257
 21
-63.3144
  0
LINE
  8
0
 10
-36.257
 20
-63.3144
 11
-36.343
 21
-63.2961
  0
LINE
  8
0
 10
-36.343
 20
-63.2961
 11
-36.426
 21
-63.2672
  0
LINE
  8
0
 10
-36.426
 20
-63.2672
 11
-36.5048
 21
-63.2281
  0
LINE
  8
0
 10
-36.5048
 20
-63.2281
 11
-36.578
 21
-63.1795
  0
LINE
  8
0
 10
-36.578
 20
-63.1795
 11
-36.6445
 21
-63.122
  0
LINE
  8
0
 10
-36.6445
 20
-63.122
 11
-36.7033
 21
-63.0567
  0
LINE
  8
0
 10
-36.7033
 20
-63.0567
 11
-36.7535
 21
-62.9845
  0
LINE
  8
0
 10
-36.7535
 20
-62.9845
 11
-36.7942
 21
-62.9066
  0
LINE
  8
0
 10
-36.7942
 20
-62.9066
 11
-36.8249
 21
-62.8242
  0
LINE
  8
0
 10
-36.8249
 20
-62.8242
 11
-36.845
 21
-62.7386
  0
LINE
  8
0
 10
-36.845
 20
-62.7386
 11
-36.8541
 21
-62.6512
  0
LINE
  8
0
 10
-36.8541
 20
62.6512
 11
-36.845
 21
62.7386
  0
LINE
  8
0
 10
-36.845
 20
62.7386
 11
-36.8249
 21
62.8242
  0
LINE
  8
0
 10
-36.8249
 20
62.8242
 11
-36.7942
 21
62.9066
  0
LINE
  8
0
 10
-36.7942
 20
62.9066
 11
-36.7535
 21
62.9845
  0
LINE
  8
0
 10
-36.7535
 20
62.9845
 11
-36.7033
 21
63.0567
  0
LINE
  8
0
 10
-36.7033
 20
63.0567
 11
-36.6445
 21
63.122
  0
LINE
  8
0
 10
-36.6445
 20
63.122
 11
-36.578
 21
63.1795
  0
LINE
  8
0
 10
-36.578
 20
63.1795
 11
-36.5048
 21
63.2281
  0
LINE
  8
0
 10
-36.5048
 20
63.2281
 11
-36.426
 21
63.2672
  0
LINE
  8
0
 10
-36.426
 20
63.2672
 11
-36.343
 21
63.2961
  0
LINE
  8
0
 10
-36.343
 20
63.2961
 11
-36.257
 21
63.3144
  0
LINE
  8
0
 10
-36.257
 20
63.3144
 11
-36.1694
 21
63.3217
  0
LINE
  8
0
 10
-36.1694
 20
63.3217
 11
-36.0816
 21
63.318
  0
LINE
  8
0
 10
-36.0816
 20
63.318
 11
-35.9949
 21
63.3034
  0
LINE
  8
0
 10
-35.9949
 20
63.3034
 11
-35.9108
 21
63.278
  0
LINE
  8
0
 10
-35.9108
 20
63.278
 11
-35.8305
 21
63.2422
  0
LINE
  8
0
 10
-35.8305
 20
63.2422
 11
-35.7553
 21
63.1967
  0
LINE
  8
0
 10
-35.7553
 20
63.1967
 11
-35.6864
 21
63.1421
  0
LINE
  8
0
 10
-35.6864
 20
63.1421
 11
-35.6249
 21
63.0793
  0
LINE
  8
0
 10
-35.6249
 20
63.0793
 11
-35.5717
 21
63.0093
  0
LINE
  8
0
 10
-35.5717
 20
63.0093
 11
-35.5278
 21
62.9331
  0
LINE
  8
0
 10
-35.5278
 20
62.9331
 11
-35.4937
 21
62.8521
  0
LINE
  8
0
 10
-35.4937
 20
62.8521
 11
-35.4701
 21
62.7674
  0
LINE
  8
0
 10
-35.4701
 20
62.7674
 11
-35.4572
 21
62.6805
  0
LINE
  8
0
 10
-35.4572
 20
62.6805
 11
-35.4554
 21
62.5926
  0
LINE
  8
0
 10
-35.4554
 20
62.5926
 11
-35.4646
 21
62.5051
  0
LINE
  8
0
 10
-35.4646
 20
62.5051
 11
-35.4846
 21
62.4196
  0
LINE
  8
0
 10
-35.4846
 20
62.4196
 11
-35.5153
 21
62.3372
  0
LINE
  8
0
 10
-35.5153
 20
62.3372
 11
-35.556
 21
62.2593
  0
LINE
  8
0
 10
-35.556
 20
62.2593
 11
-35.6062
 21
62.1871
  0
LINE
  8
0
 10
-35.6062
 20
62.1871
 11
-35.665
 21
62.1217
  0
LINE
  8
0
 10
-35.665
 20
62.1217
 11
-35.7315
 21
62.0643
  0
LINE
  8
0
 10
-35.7315
 20
62.0643
 11
-35.8048
 21
62.0157
  0
LINE
  8
0
 10
-35.8048
 20
62.0157
 11
-35.8835
 21
61.9766
  0
LINE
  8
0
 10
-35.8835
 20
61.9766
 11
-35.9665
 21
61.9477
  0
LINE
  8
0
 10
-35.9665
 20
61.9477
 11
-36.0525
 21
61.9294
  0
LINE
  8
0
 10
-36.0525
 20
61.9294
 11
-36.1401
 21
61.922
  0
LINE
  8
0
 10
-36.1401
 20
61.922
 11
-36.2279
 21
61.9257
  0
LINE
  8
0
 10
-36.2279
 20
61.9257
 11
-36.3146
 21
61.9404
  0
LINE
  8
0
 10
-36.3146
 20
61.9404
 11
-36.3988
 21
61.9658
  0
LINE
  8
0
 10
-36.3988
 20
61.9658
 11
-36.4791
 21
62.0015
  0
LINE
  8
0
 10
-36.4791
 20
62.0015
 11
-36.5543
 21
62.0471
  0
LINE
  8
0
 10
-36.5543
 20
62.0471
 11
-36.6232
 21
62.1017
  0
LINE
  8
0
 10
-36.6232
 20
62.1017
 11
-36.6847
 21
62.1645
  0
LINE
  8
0
 10
-36.6847
 20
62.1645
 11
-36.7378
 21
62.2345
  0
LINE
  8
0
 10
-36.7378
 20
62.2345
 11
-36.7818
 21
62.3106
  0
LINE
  8
0
 10
-36.7818
 20
62.3106
 11
-36.8158
 21
62.3917
  0
LINE
  8
0
 10
-36.8158
 20
62.3917
 11
-36.8395
 21
62.4763
  0
LINE
  8
0
 10
-36.8395
 20
62.4763
 11
-36.8523
 21
62.5633
  0
LINE
  8
0
 10
-36.8523
 20
62.5633
 11
-36.8541
 21
62.6512
  0
LINE
  8
0
 10
-11.1
 20
0
 11
-11.0125
 21
1.3912
  0
LINE
  8
0
 10
-11.0125
 20
1.3912
 11
-10.7513
 21
2.76046
  0
LINE
  8
0
 10
-10.7513
 20
2.76046
 11
-10.3205
 21
4.08618
  0
LINE
  8
0
 10
-10.3205
 20
4.08618
 11
-9.727
 21
5.34747
  0
LINE
  8
0
 10
-9.727
 20
5.34747
 11
-8.98009
 21
6.52442
  0
LINE
  8
0
 10
-8.98009
 20
6.52442
 11
-8.09155
 21
7.59847
  0
LINE
  8
0
 10
-8.09155
 20
7.59847
 11
-7.07541
 21
8.5527
  0
LINE
  8
0
 10
-7.07541
 20
8.5527
 11
-5.94768
 21
9.37204
  0
LINE
  8
0
 10
-5.94768
 20
9.37204
 11
-4.72615
 21
10.0436
  0
LINE
  8
0
 10
-4.72615
 20
10.0436
 11
-3.43009
 21
10.5567
  0
LINE
  8
0
 10
-3.43009
 20
10.5567
 11
-2.07993
 21
10.9034
  0
LINE
  8
0
 10
-2.07993
 20
10.9034
 11
-0.696975
 21
11.0781
  0
LINE
  8
0
 10
-0.696975
 20
11.0781
 11
0.696975
 21
11.0781
  0
LINE
  8
0
 10
0.696975
 20
11.0781
 11
2.07993
 21
10.9034
  0
LINE
  8
0
 10
2.07993
 20
10.9034
 11
3.43009
 21
10.5567
  0
LINE
  8
0
 10
3.43009
 20
10.5567
 11
4.72615
 21
10.0436
  0
LINE
  8
0
 10
4.72615
 20
10.0436
 11
5.94768
 21
9.37204
  0
LINE
  8
0
 10
5.94768
 20
9.37204
 11
7.07541
 21
8.5527
  0
LINE
  8
0
 10
7.07541
 20
8.5527
 11
8.09155
 21
7.59847
  0
LINE
  8
0
 10
8.09155
 20
7.59847
 11
8.98009
 21
6.52442
  0
LINE
  8
0
 10
8.98009
 20
6.52442
 11
9.727
 21
5.34747
  0
LINE
  8
0
 10
9.727
 20
5.34747
 11
10.3205
 21
4.08618
  0
LINE
  8
0
 10
10.3205
 20
4.08618
 11
10.7513
 21
2.76046
  0
LINE
  8
0
 10
10.7513
 20
2.76046
 11
11.0125
 21
1.3912
  0
LINE
  8
0
 10
11.0125
 20
1.3912
 11
11.1
 21
0
  0
LINE
  8
0
 10
11.1
 20
0
 11
11.0125
 21
-1.3912
  0
LINE
  8
0
 10
11.0125
 20
-1.3912
 11
10.7513
 21
-2.76046
  0
LINE
  8
0
 10
10.7513
 20
-2.76046
 11
10.3205
 21
-4.08618
  0
LINE
  8
0
 10
10.3205
 20
-4.08618
 11
9.727
 21
-5.34747
  0
LINE
  8
0
 10
9.727
 20
-5.34747
 11
8.98009
 21
-6.52442
  0
LINE
  8
0
 10
8.98009
 20
-6.52442
 11
8.09155
 21
-7.59847
  0
LINE
  8
0
 10
8.09155
 20
-7.59847
 11
7.07541
 21
-8.5527
  0
LINE
  8
0
 10
7.07541
 20
-8.5527
 11
5.94768
 21
-9.37204
  0
LINE
  8
0
 10
5.94768
 20
-9.37204
 11
4.72615
 21
-10.0436
  0
LINE
  8
0
 10
4.72615
 20
-10.0436
 11
3.43009
 21
-10.5567
  0
LINE
  8
0
 10
3.43009
 20
-10.5567
 11
2.07993
 21
-10.9034
  0
LINE
  8
0
 10
2.07993
 20
-10.9034
 11
0.696975
 21
-11.0781
  0
LINE
  8
0
 10
0.696975
 20
-11.0781
 11
-0.696975
 21
-11.0781
  0
LINE
  8
0
 10
-0.696975
 20
-11.0781
 11
-2.07993
 21
-10.9034
  0
LINE
  8
0
 10
-2.07993
 20
-10.9034
 11
-3.43009
 21
-10.5567
  0
LINE
  8
0
 10
-3.43009
 20
-10.5567
 11
-4.72615
 21
-10.0436
  0
LINE
  8
0
 10
-4.72615
 20
-10.0436
 11
-5.94768
 21
-9.37204
  0
LINE
  8
0
 10
-5.94768
 20
-9.37204
 11
-7.07541
 21
-8.5527
  0
LINE
  8
0
 10
-7.07541
 20
-8.5527
 11
-8.09155
 21
-7.59847
  0
LINE
  8
0
 10
-8.09155
 20
-7.59847
 11
-8.98009
 21
-6.52442
  0
LINE
  8
0
 10
-8.98009
 20
-6.52442
 11
-9.727
 21
-5.34747
  0
LINE
  8
0
 10
-9.727
 20
-5.34747
 11
-10.3205
 21
-4.08618
  0
LINE
  8
0
 10
-10.3205
 20
-4.08618
 11
-10.7513
 21
-2.76046
  0
LINE
  8
0
 10
-10.7513
 20
-2.76046
 11
-11.0125
 21
-1.3912
  0
LINE
  8
0
 10
-11.0125
 20
-1.3912
 11
-11.1
 21
0
  0
LINE
  8
0
 10
35.4554
 20
-62.5926
 11
35.4646
 21
-62.5051
  0
LINE
  8
0
 10
35.4646
 20
-62.5051
 11
35.4846
 21
-62.4196
  0
LINE
  8
0
 10
35.4846
 20
-62.4196
 11
35.5153
 21
-62.3372
  0
LINE
  8
0
 10
35.5153
 20
-62.3372
 11
35.556
 21
-62.2593
  0
LINE
  8
0
 10
35.556
 20
-62.2593
 11
35.6062
 21
-62.1871
  0
LINE
  8
0
 10
35.6062
 20
-62.1871
 11
35.665
 21
-62.1217
  0
LINE
  8
0
 10
35.665
 20
-62.1217
 11
35.7315
 21
-62.0643
  0
LINE
  8
0
 10
35.7315
 20
-62.0643
 11
35.8048
 21
-62.0157
  0
LINE
  8
0
 10
35.8048
 20
-62.0157
 11
35.8835
 21
-61.9766
  0
LINE
  8
0
 10
35.8835
 20
-61.9766
 11
35.9665
 21
-61.9477
  0
LINE
  8
0
 10
35.9665
 20
-61.9477
 11
36.0525
 21
-61.9294
  0
LINE
  8
0
 10
36.0525
 20
-61.9294
 11
36.1401
 21
-61.922
  0
LINE
  8
0
 10
36.1401
 20
-61.922
 11
36.2279
 21
-61.9257
  0
LINE
  8
0
 10
36.2279
 20
-61.9257
 11
36.3146
 21
-61.9404
  0
LINE
  8
0
 10
36.3146
 20
-61.9404
 11
36.3988
 21
-61.9658
  0
LINE
  8
0
 10
36.3988
 20
-61.9658
 11
36.4791
 21
-62.0015
  0
LINE
  8
0
 10
36.4791
 20
-62.0015
 11
36.5543
 21
-62.0471
  0
LINE
  8
0
 10
36.5543
 20
-62.0471
 11
36.6232
 21
-62.1017
  0
LINE
  8
0
 10
36.6232
 20
-62.1017
 11
36.6847
 21
-62.1645
  0
LINE
  8
0
 10
36.6847
 20
-62.1645
 11
36.7378
 21
-62.2345
  0
LINE
  8
0
 10
36.7378
 20
-62.2345
 11
36.7818
 21
-62.3106
  0
LINE
  8
0
 10
36.7818
 20
-62.3106
 11
36.8158
 21
-62.3917
  0
LINE
  8
0
 10
36.8158
 20
-62.3917
 11
36.8395
 21
-62.4763
  0
LINE
  8
0
 10
36.8395
 20
-62.4763
 11
36.8523
 21
-62.5633
  0
LINE
  8
0
 10
36.8523
 20
-62.5633
 11
36.8541
 21
-62.6512
  0
LINE
  8
0
 10
36.8541
 20
-62.6512
 11
36.845
 21
-62.7386
  0
LINE
  8
0
 10
36.845
 20
-62.7386
 11
36.8249
 21
-62.8242
  0
LINE
  8
0
 10
36.8249
 20
-62.8242
 11
36.7942
 21
-62.9066
  0
LINE
  8
0
 10
36.7942
 20
-62.9066
 11
36.7535
 21
-62.9845
  0
LINE
  8
0
 10
36.7535
 20
-62.9845
 11
36.7033
 21
-63.0567
  0
LINE
  8
0
 10
36.7033
 20
-63.0567
 11
36.6445
 21
-63.122
  0
LINE
  8
0
 10
36.6445
 20
-63.122
 11
36.578
 21
-63.1795
  0
LINE
  8
0
 10
36.578
 20
-63.1795
 11
36.5048
 21
-63.2281
  0
LINE
  8
0
 10
36.5048
 20
-63.2281
 11
36.426
 21
-63.2672
  0
LINE
  8
0
 10
36.426
 20
-63.2672
 11
36.343
 21
-63.2961
  0
LINE
  8
0
 10
36.343
 20
-63.2961
 11
36.257
 21
-63.3144
  0
LINE
  8
0
 10
36.257
 20
-63.3144
 11
36.1694
 21
-63.3217
  0
LINE
  8
0
 10
36.1694
 20
-63.3217
 11
36.0816
 21
-63.318
  0
LINE
  8
0
 10
36.0816
 20
-63.318
 11
35.9949
 21
-63.3034
  0
LINE
  8
0
 10
35.9949
 20
-63.3034
 11
35.9108
 21
-63.278
  0
LINE
  8
0
 10
35.9108
 20
-63.278
 11
35.8305
 21
-63.2422
  0
LINE
  8
0
 10
35.8305
 20
-63.2422
 11
35.7553
 21
-63.1967
  0
LINE
  8
0
 10
35.7553
 20
-63.1967
 11
35.6864
 21
-63.1421
  0
LINE
  8
0
 10
35.6864
 20
-63.1421
 11
35.6249
 21
-63.0793
  0
LINE
  8
0
 10
35.6249
 20
-63.0793
 11
35.5717
 21
-63.0093
  0
LINE
  8
0
 10
35.5717
 20
-63.0093
 11
35.5278
 21
-62.9331
  0
LINE
  8
0
 10
35.5278
 20
-62.9331
 11
35.4937
 21
-62.8521
  0
LINE
  8
0
 10
35.4937
 20
-62.8521
 11
35.4701
 21
-62.7674
  0
LINE
  8
0
 10
35.4701
 20
-62.7674
 11
35.4572
 21
-62.6805
  0
LINE
  8
0
 10
35.4572
 20
-62.6805
 11
35.4554
 21
-62.5926
  0
LINE
  8
0
 10
35.4554
 20
62.5926
 11
35.4572
 21
62.6805
  0
LINE
  8
0
 10
35.4572
 20
62.6805
 11
35.4701
 21
62.7674
  0
LINE
  8
0
 10
35.4701
 20
62.7674
 11
35.4937
 21
62.8521
  0
LINE
  8
0
 10
35.4937
 20
62.8521
 11
35.5278
 21
62.9331
  0
LINE
  8
0
 10
35.5278
 20
62.9331
 11
35.5717
 21
63.0093
  0
LINE
  8
0
 10
35.5717
 20
63.0093
 11
35.6249
 21
63.0793
  0
LINE
  8
0
 10
35.6249
 20
63.0793
 11
35.6864
 21
63.1421
  0
LINE
  8
0
 10
35.6864
 20
63.1421
 11
35.7553
 21
63.1967
  0
LINE
  8
0
 10
35.7553
 20
63.1967
 11
35.8305
 21
63.2422
  0
LINE
  8
0
 10
35.8305
 20
63.2422
 11
35.9108
 21
63.278
  0
LINE
  8
0
 10
35.9108
 20
63.278
 11
35.9949
 21
63.3034
  0
LINE
  8
0
 10
35.9949
 20
63.3034
 11
36.0816
 21
63.318
  0
LINE
  8
0
 10
36.0816
 20
63.318
 11
36.1694
 21
63.3217
  0
LINE
  8
0
 10
36.1694
 20
63.3217
 11
36.257
 21
63.3144
  0
LINE
  8
0
 10
36.257
 20
63.3144
 11
36.343
 21
63.2961
  0
LINE
  8
0
 10
36.343
 20
63.2961
 11
36.426
 21
63.2672
  0
LINE
  8
0
 10
36.426
 20
63.2672
 11
36.5048
 21
63.2281
  0
LINE
  8
0
 10
36.5048
 20
63.2281
 11
36.578
 21
63.1795
  0
LINE
  8
0
 10
36.578
 20
63.1795
 11
36.6445
 21
63.122
  0
LINE
  8
0
 10
36.6445
 20
63.122
 11
36.7033
 21
63.0567
  0
LINE
  8
0
 10
36.7033
 20
63.0567
 11
36.7535
 21
62.9845
  0
LINE
  8
0
 10
36.7535
 20
62.9845
 11
36.7942
 21
62.9066
  0
LINE
  8
0
 10
36.7942
 20
62.9066
 11
36.8249
 21
62.8242
  0
LINE
  8
0
 10
36.8249
 20
62.8242
 11
36.845
 21
62.7386
  0
LINE
  8
0
 10
36.845
 20
62.7386
 11
36.8541
 21
62.6512
  0
LINE
  8
0
 10
36.8541
 20
62.6512
 11
36.8523
 21
62.5633
  0
LINE
  8
0
 10
36.8523
 20
62.5633
 11
36.8395
 21
62.4763
  0
LINE
  8
0
 10
36.8395
 20
62.4763
 11
36.8158
 21
62.3917
  0
LINE
  8
0
 10
36.8158
 20
62.3917
 11
36.7818
 21
62.3106
  0
LINE
  8
0
 10
36.7818
 20
62.3106
 11
36.7378
 21
62.2345
  0
LINE
  8
0
 10
36.7378
 20
62.2345
 11
36.6847
 21
62.1645
  0
LINE
  8
0
 10
36.6847
 20
62.1645
 11
36.6232
 21
62.1017
  0
LINE
  8
0
 10
36.6232
 20
62.1017
 11
36.5543
 21
62.0471
  0
LINE
  8
0
 10
36.5543
 20
62.0471
 11
36.4791
 21
62.0015
  0
LINE
  8
0
 10
36.4791
 20
62.0015
 11
36.3988
 21
61.9658
  0
LINE
  8
0
 10
36.3988
 20
61.9658
 11
36.3146
 21
61.9404
  0
LINE
  8
0
 10
36.3146
 20
61.9404
 11
36.2279
 21
61.9257
  0
LINE
  8
0
 10
36.2279
 20
61.9257
 11
36.1401
 21
61.922
  0
LINE
  8
0
 10
36.1401
 20
61.922
 11
36.0525
 21
61.9294
  0
LINE
  8
0
 10
36.0525
 20
61.9294
 11
35.9665
 21
61.9477
  0
LINE
  8
0
 10
35.9665
 20
61.9477
 11
35.8835
 21
61.9766
  0
LINE
  8
0
 10
35.8835
 20
61.9766
 11
35.8048
 21
62.0157
  0
LINE
  8
0
 10
35.8048
 20
62.0157
 11
35.7315
 21
62.0643
  0
LINE
  8
0
 10
35.7315
 20
62.0643
 11
35.665
 21
62.1217
  0
LINE
  8
0
 10
35.665
 20
62.1217
 11
35.6062
 21
62.1871
  0
LINE
  8
0
 10
35.6062
 20
62.1871
 11
35.556
 21
62.2593
  0
LINE
  8
0
 10
35.556
 20
62.2593
 11
35.5153
 21
62.3372
  0
LINE
  8
0
 10
35.5153
 20
62.3372
 11
35.4846
 21
62.4196
  0
LINE
  8
0
 10
35.4846
 20
62.4196
 11
35.4646
 21
62.5051
  0
LINE
  8
0
 10
35.4646
 20
62.5051
 11
35.4554
 21
62.5926
  0
LINE
  8
0
 10
71.6095
 20
0
 11
71.615
 21
0.0877323
  0
LINE
  8
0
 10
71.615
 20
0.0877323
 11
71.6315
 21
0.174083
  0
LINE
  8
0
 10
71.6315
 20
0.174083
 11
71.6587
 21
0.257687
  0
LINE
  8
0
 10
71.6587
 20
0.257687
 11
71.6961
 21
0.337227
  0
LINE
  8
0
 10
71.6961
 20
0.337227
 11
71.7432
 21
0.411449
  0
LINE
  8
0
 10
71.7432
 20
0.411449
 11
71.7992
 21
0.479182
  0
LINE
  8
0
 10
71.7992
 20
0.479182
 11
71.8633
 21
0.539359
  0
LINE
  8
0
 10
71.8633
 20
0.539359
 11
71.9344
 21
0.591029
  0
LINE
  8
0
 10
71.9344
 20
0.591029
 11
72.0115
 21
0.633378
  0
LINE
  8
0
 10
72.0115
 20
0.633378
 11
72.0932
 21
0.665739
  0
LINE
  8
0
 10
72.0932
 20
0.665739
 11
72.1784
 21
0.6876
  0
LINE
  8
0
 10
72.1784
 20
0.6876
 11
72.2656
 21
0.698618
  0
LINE
  8
0
 10
72.2656
 20
0.698618
 11
72.3535
 21
0.698618
  0
LINE
  8
0
 10
72.3535
 20
0.698618
 11
72.4407
 21
0.6876
  0
LINE
  8
0
 10
72.4407
 20
0.6876
 11
72.5258
 21
0.665739
  0
LINE
  8
0
 10
72.5258
 20
0.665739
 11
72.6076
 21
0.633378
  0
LINE
  8
0
 10
72.6076
 20
0.633378
 11
72.6846
 21
0.591029
  0
LINE
  8
0
 10
72.6846
 20
0.591029
 11
72.7557
 21
0.539359
  0
LINE
  8
0
 10
72.7557
 20
0.539359
 11
72.8198
 21
0.479182
  0
LINE
  8
0
 10
72.8198
 20
0.479182
 11
72.8758
 21
0.411449
  0
LINE
  8
0
 10
72.8758
 20
0.411449
 11
72.9229
 21
0.337227
  0
LINE
  8
0
 10
72.9229
 20
0.337227
 11
72.9604
 21
0.257687
  0
LINE
  8
0
 10
72.9604
 20
0.257687
 11
72.9875
 21
0.174083
  0
LINE
  8
0
 10
72.9875
 20
0.174083
 11
73.004
 21
0.0877323
  0
LINE
  8
0
 10
73.004
 20
0.0877323
 11
73.0095
 21
0
  0
LINE
  8
0
 10
73.0095
 20
0
 11
73.004
 21
-0.0877323
  0
LINE
  8
0
 10
73.004
 20
-0.0877323
 11
72.9875
 21
-0.174083
  0
LINE
  8
0
 10
72.9875
 20
-0.174083
 11
72.9604
 21
-0.257687
  0
LINE
  8
0
 10
72.9604
 20
-0.257687
 11
72.9229
 21
-0.337227
  0
LINE
  8
0
 10
72.9229
 20
-0.337227
 11
72.8758
 21
-0.411449
  0
LINE
  8
0
 10
72.8758
 20
-0.411449
 11
72.8198
 21
-0.479182
  0
LINE
  8
0
 10
72.8198
 20
-0.479182
 11
72.7557
 21
-0.539359
  0
LINE
  8
0
 10
72.7557
 20
-0.539359
 11
72.6846
 21
-0.591029
  0
LINE
  8
0
 10
72.6846
 20
-0.591029
 11
72.6076
 21
-0.633378
  0
LINE
  8
0
 10
72.6076
 20
-0.633378
 11
72.5258
 21
-0.665739
  0
LINE
  8
0
 10
72.5258
 20
-0.665739
 11
72.4407
 21
-0.6876
  0
LINE
  8
0
 10
72.4407
 20
-0.6876
 11
72.3535
 21
-0.698618
  0
LINE
  8
0
 10
72.3535
 20
-0.698618
 11
72.2656
 21
-0.698618
  0
LINE
  8
0
 10
72.2656
 20
-0.698618
 11
72.1784
 21
-0.6876
  0
LINE
  8
0
 10
72.1784
 20
-0.6876
 11
72.0932
 21
-0.665739
  0
LINE
  8
0
 10
72.0932
 20
-0.665739
 11
72.0115
 21
-0.633378
  0
LINE
  8
0
 10
72.0115
 20
-0.633378
 11
71.9344
 21
-0.591029
  0
LINE
  8
0
 10
71.9344
 20
-0.591029
 11
71.8633
 21
-0.539359
  0
LINE
  8
0
 10
71.8633
 20
-0.539359
 11
71.7992
 21
-0.479182
  0
LINE
  8
0
 10
71.7992
 20
-0.479182
 11
71.7432
 21
-0.411449
  0
LINE
  8
0
 10
71.7432
 20
-0.411449
 11
71.6961
 21
-0.337227
  0
LINE
  8
0
 10
71.6961
 20
-0.337227
 11
71.6587
 21
-0.257687
  0
LINE
  8
0
 10
71.6587
 20
-0.257687
 11
71.6315
 21
-0.174083
  0
LINE
  8
0
 10
71.6315
 20
-0.174083
 11
71.615
 21
-0.0877323
  0
LINE
  8
0
 10
71.615
 20
-0.0877323
 11
71.6095
 21
0
  0
ENDSEC
  0
SECTION
  2
OBJECTS
  0
DICTIONARY
  0
ENDSEC
  0
EOF
