  0
SECTION
  2
BLOCKS
  0
ENDSEC
  0
SECTION
  2
ENTITIES
  0
LINE
  8
0
 10
-48.1
 20
-20.1
 11
48.1
 21
-20.1
  0
LINE
  8
0
 10
48.1
 20
-20.1
 11
48.1
 21
20.1
  0
LINE
  8
0
 10
48.1
 20
20.1
 11
-48.1
 21
20.1
  0
LINE
  8
0
 10
-48.1
 20
20.1
 11
-48.1
 21
-20.1
  0
LINE
  8
0
 10
-45.1
 20
-15.5
 11
-45.0874
 21
-15.2995
  0
LINE
  8
0
 10
-45.0874
 20
-15.2995
 11
-45.0497
 21
-15.1021
  0
LINE
  8
0
 10
-45.0497
 20
-15.1021
 11
-44.9876
 21
-14.911
  0
LINE
  8
0
 10
-44.9876
 20
-14.911
 11
-44.9021
 21
-14.7292
  0
LINE
  8
0
 10
-44.9021
 20
-14.7292
 11
-44.7944
 21
-14.5595
  0
LINE
  8
0
 10
-44.7944
 20
-14.5595
 11
-44.6663
 21
-14.4047
  0
LINE
  8
0
 10
-44.6663
 20
-14.4047
 11
-44.5199
 21
-14.2672
  0
LINE
  8
0
 10
-44.5199
 20
-14.2672
 11
-44.3573
 21
-14.1491
  0
LINE
  8
0
 10
-44.3573
 20
-14.1491
 11
-44.1812
 21
-14.0523
  0
LINE
  8
0
 10
-44.1812
 20
-14.0523
 11
-43.9944
 21
-13.9783
  0
LINE
  8
0
 10
-43.9944
 20
-13.9783
 11
-43.7998
 21
-13.9283
  0
LINE
  8
0
 10
-43.7998
 20
-13.9283
 11
-43.6005
 21
-13.9032
  0
LINE
  8
0
 10
-43.6005
 20
-13.9032
 11
-40.3995
 21
-13.9032
  0
LINE
  8
0
 10
-40.3995
 20
-13.9032
 11
-40.2002
 21
-13.9283
  0
LINE
  8
0
 10
-40.2002
 20
-13.9283
 11
-40.0056
 21
-13.9783
  0
LINE
  8
0
 10
-40.0056
 20
-13.9783
 11
-39.8188
 21
-14.0523
  0
LINE
  8
0
 10
-39.8188
 20
-14.0523
 11
-39.6427
 21
-14.1491
  0
LINE
  8
0
 10
-39.6427
 20
-14.1491
 11
-39.4801
 21
-14.2672
  0
LINE
  8
0
 10
-39.4801
 20
-14.2672
 11
-39.3336
 21
-14.4047
  0
LINE
  8
0
 10
-39.3336
 20
-14.4047
 11
-39.2056
 21
-14.5595
  0
LINE
  8
0
 10
-39.2056
 20
-14.5595
 11
-39.0979
 21
-14.7292
  0
LINE
  8
0
 10
-39.0979
 20
-14.7292
 11
-39.0124
 21
-14.911
  0
LINE
  8
0
 10
-39.0124
 20
-14.911
 11
-38.9503
 21
-15.1021
  0
LINE
  8
0
 10
-38.9503
 20
-15.1021
 11
-38.9126
 21
-15.2995
  0
LINE
  8
0
 10
-38.9126
 20
-15.2995
 11
-38.9
 21
-15.5
  0
LINE
  8
0
 10
-38.9
 20
-15.5
 11
-38.9126
 21
-15.7005
  0
LINE
  8
0
 10
-38.9126
 20
-15.7005
 11
-38.9503
 21
-15.8979
  0
LINE
  8
0
 10
-38.9503
 20
-15.8979
 11
-39.0124
 21
-16.089
  0
LINE
  8
0
 10
-39.0124
 20
-16.089
 11
-39.0979
 21
-16.2708
  0
LINE
  8
0
 10
-39.0979
 20
-16.2708
 11
-39.2056
 21
-16.4405
  0
LINE
  8
0
 10
-39.2056
 20
-16.4405
 11
-39.3336
 21
-16.5953
  0
LINE
  8
0
 10
-39.3336
 20
-16.5953
 11
-39.4801
 21
-16.7328
  0
LINE
  8
0
 10
-39.4801
 20
-16.7328
 11
-39.6427
 21
-16.8509
  0
LINE
  8
0
 10
-39.6427
 20
-16.8509
 11
-39.8188
 21
-16.9477
  0
LINE
  8
0
 10
-39.8188
 20
-16.9477
 11
-40.0056
 21
-17.0217
  0
LINE
  8
0
 10
-40.0056
 20
-17.0217
 11
-40.2002
 21
-17.0717
  0
LINE
  8
0
 10
-40.2002
 20
-17.0717
 11
-40.3995
 21
-17.0968
  0
LINE
  8
0
 10
-40.3995
 20
-17.0968
 11
-43.6005
 21
-17.0968
  0
LINE
  8
0
 10
-43.6005
 20
-17.0968
 11
-43.7998
 21
-17.0717
  0
LINE
  8
0
 10
-43.7998
 20
-17.0717
 11
-43.9944
 21
-17.0217
  0
LINE
  8
0
 10
-43.9944
 20
-17.0217
 11
-44.1812
 21
-16.9477
  0
LINE
  8
0
 10
-44.1812
 20
-16.9477
 11
-44.3573
 21
-16.8509
  0
LINE
  8
0
 10
-44.3573
 20
-16.8509
 11
-44.5199
 21
-16.7328
  0
LINE
  8
0
 10
-44.5199
 20
-16.7328
 11
-44.6663
 21
-16.5953
  0
LINE
  8
0
 10
-44.6663
 20
-16.5953
 11
-44.7944
 21
-16.4405
  0
LINE
  8
0
 10
-44.7944
 20
-16.4405
 11
-44.9021
 21
-16.2708
  0
LINE
  8
0
 10
-44.9021
 20
-16.2708
 11
-44.9876
 21
-16.089
  0
LINE
  8
0
 10
-44.9876
 20
-16.089
 11
-45.0497
 21
-15.8979
  0
LINE
  8
0
 10
-45.0497
 20
-15.8979
 11
-45.0874
 21
-15.7005
  0
LINE
  8
0
 10
-45.0874
 20
-15.7005
 11
-45.1
 21
-15.5
  0
LINE
  8
0
 10
-45.1
 20
15.5
 11
-45.0874
 21
15.7005
  0
LINE
  8
0
 10
-45.0874
 20
15.7005
 11
-45.0497
 21
15.8979
  0
LINE
  8
0
 10
-45.0497
 20
15.8979
 11
-44.9876
 21
16.089
  0
LINE
  8
0
 10
-44.9876
 20
16.089
 11
-44.9021
 21
16.2708
  0
LINE
  8
0
 10
-44.9021
 20
16.2708
 11
-44.7944
 21
16.4405
  0
LINE
  8
0
 10
-44.7944
 20
16.4405
 11
-44.6663
 21
16.5953
  0
LINE
  8
0
 10
-44.6663
 20
16.5953
 11
-44.5199
 21
16.7328
  0
LINE
  8
0
 10
-44.5199
 20
16.7328
 11
-44.3573
 21
16.8509
  0
LINE
  8
0
 10
-44.3573
 20
16.8509
 11
-44.1812
 21
16.9477
  0
LINE
  8
0
 10
-44.1812
 20
16.9477
 11
-43.9944
 21
17.0217
  0
LINE
  8
0
 10
-43.9944
 20
17.0217
 11
-43.7998
 21
17.0717
  0
LINE
  8
0
 10
-43.7998
 20
17.0717
 11
-43.6005
 21
17.0968
  0
LINE
  8
0
 10
-43.6005
 20
17.0968
 11
-40.3995
 21
17.0968
  0
LINE
  8
0
 10
-40.3995
 20
17.0968
 11
-40.2002
 21
17.0717
  0
LINE
  8
0
 10
-40.2002
 20
17.0717
 11
-40.0056
 21
17.0217
  0
LINE
  8
0
 10
-40.0056
 20
17.0217
 11
-39.8188
 21
16.9477
  0
LINE
  8
0
 10
-39.8188
 20
16.9477
 11
-39.6427
 21
16.8509
  0
LINE
  8
0
 10
-39.6427
 20
16.8509
 11
-39.4801
 21
16.7328
  0
LINE
  8
0
 10
-39.4801
 20
16.7328
 11
-39.3336
 21
16.5953
  0
LINE
  8
0
 10
-39.3336
 20
16.5953
 11
-39.2056
 21
16.4405
  0
LINE
  8
0
 10
-39.2056
 20
16.4405
 11
-39.0979
 21
16.2708
  0
LINE
  8
0
 10
-39.0979
 20
16.2708
 11
-39.0124
 21
16.089
  0
LINE
  8
0
 10
-39.0124
 20
16.089
 11
-38.9503
 21
15.8979
  0
LINE
  8
0
 10
-38.9503
 20
15.8979
 11
-38.9126
 21
15.7005
  0
LINE
  8
0
 10
-38.9126
 20
15.7005
 11
-38.9
 21
15.5
  0
LINE
  8
0
 10
-38.9
 20
15.5
 11
-38.9126
 21
15.2995
  0
LINE
  8
0
 10
-38.9126
 20
15.2995
 11
-38.9503
 21
15.1021
  0
LINE
  8
0
 10
-38.9503
 20
15.1021
 11
-39.0124
 21
14.911
  0
LINE
  8
0
 10
-39.0124
 20
14.911
 11
-39.0979
 21
14.7292
  0
LINE
  8
0
 10
-39.0979
 20
14.7292
 11
-39.2056
 21
14.5595
  0
LINE
  8
0
 10
-39.2056
 20
14.5595
 11
-39.3336
 21
14.4047
  0
LINE
  8
0
 10
-39.3336
 20
14.4047
 11
-39.4801
 21
14.2672
  0
LINE
  8
0
 10
-39.4801
 20
14.2672
 11
-39.6427
 21
14.1491
  0
LINE
  8
0
 10
-39.6427
 20
14.1491
 11
-39.8188
 21
14.0523
  0
LINE
  8
0
 10
-39.8188
 20
14.0523
 11
-40.0056
 21
13.9783
  0
LINE
  8
0
 10
-40.0056
 20
13.9783
 11
-40.2002
 21
13.9283
  0
LINE
  8
0
 10
-40.2002
 20
13.9283
 11
-40.3995
 21
13.9032
  0
LINE
  8
0
 10
-40.3995
 20
13.9032
 11
-43.6005
 21
13.9032
  0
LINE
  8
0
 10
-43.6005
 20
13.9032
 11
-43.7998
 21
13.9283
  0
LINE
  8
0
 10
-43.7998
 20
13.9283
 11
-43.9944
 21
13.9783
  0
LINE
  8
0
 10
-43.9944
 20
13.9783
 11
-44.1812
 21
14.0523
  0
LINE
  8
0
 10
-44.1812
 20
14.0523
 11
-44.3573
 21
14.1491
  0
LINE
  8
0
 10
-44.3573
 20
14.1491
 11
-44.5199
 21
14.2672
  0
LINE
  8
0
 10
-44.5199
 20
14.2672
 11
-44.6663
 21
14.4047
  0
LINE
  8
0
 10
-44.6663
 20
14.4047
 11
-44.7944
 21
14.5595
  0
LINE
  8
0
 10
-44.7944
 20
14.5595
 11
-44.9021
 21
14.7292
  0
LINE
  8
0
 10
-44.9021
 20
14.7292
 11
-44.9876
 21
14.911
  0
LINE
  8
0
 10
-44.9876
 20
14.911
 11
-45.0497
 21
15.1021
  0
LINE
  8
0
 10
-45.0497
 20
15.1021
 11
-45.0874
 21
15.2995
  0
LINE
  8
0
 10
-45.0874
 20
15.2995
 11
-45.1
 21
15.5
  0
LINE
  8
0
 10
-39.1
 20
0
 11
-39.0125
 21
1.3912
  0
LINE
  8
0
 10
-39.0125
 20
1.3912
 11
-38.7513
 21
2.76046
  0
LINE
  8
0
 10
-38.7513
 20
2.76046
 11
-38.3205
 21
4.08618
  0
LINE
  8
0
 10
-38.3205
 20
4.08618
 11
-37.727
 21
5.34747
  0
LINE
  8
0
 10
-37.727
 20
5.34747
 11
-36.9801
 21
6.52442
  0
LINE
  8
0
 10
-36.9801
 20
6.52442
 11
-36.0916
 21
7.59847
  0
LINE
  8
0
 10
-36.0916
 20
7.59847
 11
-35.0754
 21
8.5527
  0
LINE
  8
0
 10
-35.0754
 20
8.5527
 11
-33.9477
 21
9.37204
  0
LINE
  8
0
 10
-33.9477
 20
9.37204
 11
-32.7261
 21
10.0436
  0
LINE
  8
0
 10
-32.7261
 20
10.0436
 11
-31.4301
 21
10.5567
  0
LINE
  8
0
 10
-31.4301
 20
10.5567
 11
-30.0799
 21
10.9034
  0
LINE
  8
0
 10
-30.0799
 20
10.9034
 11
-28.697
 21
11.0781
  0
LINE
  8
0
 10
-28.697
 20
11.0781
 11
-24.303
 21
11.0781
  0
LINE
  8
0
 10
-24.303
 20
11.0781
 11
-22.9201
 21
10.9034
  0
LINE
  8
0
 10
-22.9201
 20
10.9034
 11
-21.5699
 21
10.5567
  0
LINE
  8
0
 10
-21.5699
 20
10.5567
 11
-20.2739
 21
10.0436
  0
LINE
  8
0
 10
-20.2739
 20
10.0436
 11
-19.0523
 21
9.37204
  0
LINE
  8
0
 10
-19.0523
 20
9.37204
 11
-17.9246
 21
8.5527
  0
LINE
  8
0
 10
-17.9246
 20
8.5527
 11
-16.9084
 21
7.59847
  0
LINE
  8
0
 10
-16.9084
 20
7.59847
 11
-16.0199
 21
6.52442
  0
LINE
  8
0
 10
-16.0199
 20
6.52442
 11
-15.273
 21
5.34747
  0
LINE
  8
0
 10
-15.273
 20
5.34747
 11
-14.6795
 21
4.08618
  0
LINE
  8
0
 10
-14.6795
 20
4.08618
 11
-14.2487
 21
2.76046
  0
LINE
  8
0
 10
-14.2487
 20
2.76046
 11
-13.9875
 21
1.3912
  0
LINE
  8
0
 10
-13.9875
 20
1.3912
 11
-13.9
 21
0
  0
LINE
  8
0
 10
-13.9
 20
0
 11
-13.9875
 21
-1.3912
  0
LINE
  8
0
 10
-13.9875
 20
-1.3912
 11
-14.2487
 21
-2.76046
  0
LINE
  8
0
 10
-14.2487
 20
-2.76046
 11
-14.6795
 21
-4.08618
  0
LINE
  8
0
 10
-14.6795
 20
-4.08618
 11
-15.273
 21
-5.34747
  0
LINE
  8
0
 10
-15.273
 20
-5.34747
 11
-16.0199
 21
-6.52442
  0
LINE
  8
0
 10
-16.0199
 20
-6.52442
 11
-16.9084
 21
-7.59847
  0
LINE
  8
0
 10
-16.9084
 20
-7.59847
 11
-17.9246
 21
-8.5527
  0
LINE
  8
0
 10
-17.9246
 20
-8.5527
 11
-19.0523
 21
-9.37204
  0
LINE
  8
0
 10
-19.0523
 20
-9.37204
 11
-20.2739
 21
-10.0436
  0
LINE
  8
0
 10
-20.2739
 20
-10.0436
 11
-21.5699
 21
-10.5567
  0
LINE
  8
0
 10
-21.5699
 20
-10.5567
 11
-22.9201
 21
-10.9034
  0
LINE
  8
0
 10
-22.9201
 20
-10.9034
 11
-24.303
 21
-11.0781
  0
LINE
  8
0
 10
-24.303
 20
-11.0781
 11
-28.697
 21
-11.0781
  0
LINE
  8
0
 10
-28.697
 20
-11.0781
 11
-30.0799
 21
-10.9034
  0
LINE
  8
0
 10
-30.0799
 20
-10.9034
 11
-31.4301
 21
-10.5567
  0
LINE
  8
0
 10
-31.4301
 20
-10.5567
 11
-32.7261
 21
-10.0436
  0
LINE
  8
0
 10
-32.7261
 20
-10.0436
 11
-33.9477
 21
-9.37204
  0
LINE
  8
0
 10
-33.9477
 20
-9.37204
 11
-35.0754
 21
-8.5527
  0
LINE
  8
0
 10
-35.0754
 20
-8.5527
 11
-36.0916
 21
-7.59847
  0
LINE
  8
0
 10
-36.0916
 20
-7.59847
 11
-36.9801
 21
-6.52442
  0
LINE
  8
0
 10
-36.9801
 20
-6.52442
 11
-37.727
 21
-5.34747
  0
LINE
  8
0
 10
-37.727
 20
-5.34747
 11
-38.3205
 21
-4.08618
  0
LINE
  8
0
 10
-38.3205
 20
-4.08618
 11
-38.7513
 21
-2.76046
  0
LINE
  8
0
 10
-38.7513
 20
-2.76046
 11
-39.0125
 21
-1.3912
  0
LINE
  8
0
 10
-39.0125
 20
-1.3912
 11
-39.1
 21
0
  0
LINE
  8
0
 10
-14.1
 20
-15.5
 11
-14.0874
 21
-15.2995
  0
LINE
  8
0
 10
-14.0874
 20
-15.2995
 11
-14.0497
 21
-15.1021
  0
LINE
  8
0
 10
-14.0497
 20
-15.1021
 11
-13.9876
 21
-14.911
  0
LINE
  8
0
 10
-13.9876
 20
-14.911
 11
-13.9021
 21
-14.7292
  0
LINE
  8
0
 10
-13.9021
 20
-14.7292
 11
-13.7944
 21
-14.5595
  0
LINE
  8
0
 10
-13.7944
 20
-14.5595
 11
-13.6664
 21
-14.4047
  0
LINE
  8
0
 10
-13.6664
 20
-14.4047
 11
-13.5199
 21
-14.2672
  0
LINE
  8
0
 10
-13.5199
 20
-14.2672
 11
-13.3573
 21
-14.1491
  0
LINE
  8
0
 10
-13.3573
 20
-14.1491
 11
-13.1812
 21
-14.0523
  0
LINE
  8
0
 10
-13.1812
 20
-14.0523
 11
-12.9944
 21
-13.9783
  0
LINE
  8
0
 10
-12.9944
 20
-13.9783
 11
-12.7998
 21
-13.9283
  0
LINE
  8
0
 10
-12.7998
 20
-13.9283
 11
-12.6005
 21
-13.9032
  0
LINE
  8
0
 10
-12.6005
 20
-13.9032
 11
-9.39954
 21
-13.9032
  0
LINE
  8
0
 10
-9.39954
 20
-13.9032
 11
-9.20019
 21
-13.9283
  0
LINE
  8
0
 10
-9.20019
 20
-13.9283
 11
-9.00557
 21
-13.9783
  0
LINE
  8
0
 10
-9.00557
 20
-13.9783
 11
-8.81875
 21
-14.0523
  0
LINE
  8
0
 10
-8.81875
 20
-14.0523
 11
-8.64268
 21
-14.1491
  0
LINE
  8
0
 10
-8.64268
 20
-14.1491
 11
-8.48012
 21
-14.2672
  0
LINE
  8
0
 10
-8.48012
 20
-14.2672
 11
-8.33365
 21
-14.4047
  0
LINE
  8
0
 10
-8.33365
 20
-14.4047
 11
-8.20557
 21
-14.5595
  0
LINE
  8
0
 10
-8.20557
 20
-14.5595
 11
-8.09791
 21
-14.7292
  0
LINE
  8
0
 10
-8.09791
 20
-14.7292
 11
-8.01236
 21
-14.911
  0
LINE
  8
0
 10
-8.01236
 20
-14.911
 11
-7.95027
 21
-15.1021
  0
LINE
  8
0
 10
-7.95027
 20
-15.1021
 11
-7.91262
 21
-15.2995
  0
LINE
  8
0
 10
-7.91262
 20
-15.2995
 11
-7.9
 21
-15.5
  0
LINE
  8
0
 10
-7.9
 20
-15.5
 11
-7.91262
 21
-15.7005
  0
LINE
  8
0
 10
-7.91262
 20
-15.7005
 11
-7.95027
 21
-15.8979
  0
LINE
  8
0
 10
-7.95027
 20
-15.8979
 11
-8.01236
 21
-16.089
  0
LINE
  8
0
 10
-8.01236
 20
-16.089
 11
-8.09791
 21
-16.2708
  0
LINE
  8
0
 10
-8.09791
 20
-16.2708
 11
-8.20557
 21
-16.4405
  0
LINE
  8
0
 10
-8.20557
 20
-16.4405
 11
-8.33365
 21
-16.5953
  0
LINE
  8
0
 10
-8.33365
 20
-16.5953
 11
-8.48012
 21
-16.7328
  0
LINE
  8
0
 10
-8.48012
 20
-16.7328
 11
-8.64268
 21
-16.8509
  0
LINE
  8
0
 10
-8.64268
 20
-16.8509
 11
-8.81875
 21
-16.9477
  0
LINE
  8
0
 10
-8.81875
 20
-16.9477
 11
-9.00557
 21
-17.0217
  0
LINE
  8
0
 10
-9.00557
 20
-17.0217
 11
-9.20019
 21
-17.0717
  0
LINE
  8
0
 10
-9.20019
 20
-17.0717
 11
-9.39954
 21
-17.0968
  0
LINE
  8
0
 10
-9.39954
 20
-17.0968
 11
-12.6005
 21
-17.0968
  0
LINE
  8
0
 10
-12.6005
 20
-17.0968
 11
-12.7998
 21
-17.0717
  0
LINE
  8
0
 10
-12.7998
 20
-17.0717
 11
-12.9944
 21
-17.0217
  0
LINE
  8
0
 10
-12.9944
 20
-17.0217
 11
-13.1812
 21
-16.9477
  0
LINE
  8
0
 10
-13.1812
 20
-16.9477
 11
-13.3573
 21
-16.8509
  0
LINE
  8
0
 10
-13.3573
 20
-16.8509
 11
-13.5199
 21
-16.7328
  0
LINE
  8
0
 10
-13.5199
 20
-16.7328
 11
-13.6664
 21
-16.5953
  0
LINE
  8
0
 10
-13.6664
 20
-16.5953
 11
-13.7944
 21
-16.4405
  0
LINE
  8
0
 10
-13.7944
 20
-16.4405
 11
-13.9021
 21
-16.2708
  0
LINE
  8
0
 10
-13.9021
 20
-16.2708
 11
-13.9876
 21
-16.089
  0
LINE
  8
0
 10
-13.9876
 20
-16.089
 11
-14.0497
 21
-15.8979
  0
LINE
  8
0
 10
-14.0497
 20
-15.8979
 11
-14.0874
 21
-15.7005
  0
LINE
  8
0
 10
-14.0874
 20
-15.7005
 11
-14.1
 21
-15.5
  0
LINE
  8
0
 10
-14.1
 20
15.5
 11
-14.0874
 21
15.7005
  0
LINE
  8
0
 10
-14.0874
 20
15.7005
 11
-14.0497
 21
15.8979
  0
LINE
  8
0
 10
-14.0497
 20
15.8979
 11
-13.9876
 21
16.089
  0
LINE
  8
0
 10
-13.9876
 20
16.089
 11
-13.9021
 21
16.2708
  0
LINE
  8
0
 10
-13.9021
 20
16.2708
 11
-13.7944
 21
16.4405
  0
LINE
  8
0
 10
-13.7944
 20
16.4405
 11
-13.6664
 21
16.5953
  0
LINE
  8
0
 10
-13.6664
 20
16.5953
 11
-13.5199
 21
16.7328
  0
LINE
  8
0
 10
-13.5199
 20
16.7328
 11
-13.3573
 21
16.8509
  0
LINE
  8
0
 10
-13.3573
 20
16.8509
 11
-13.1812
 21
16.9477
  0
LINE
  8
0
 10
-13.1812
 20
16.9477
 11
-12.9944
 21
17.0217
  0
LINE
  8
0
 10
-12.9944
 20
17.0217
 11
-12.7998
 21
17.0717
  0
LINE
  8
0
 10
-12.7998
 20
17.0717
 11
-12.6005
 21
17.0968
  0
LINE
  8
0
 10
-12.6005
 20
17.0968
 11
-9.39954
 21
17.0968
  0
LINE
  8
0
 10
-9.39954
 20
17.0968
 11
-9.20019
 21
17.0717
  0
LINE
  8
0
 10
-9.20019
 20
17.0717
 11
-9.00557
 21
17.0217
  0
LINE
  8
0
 10
-9.00557
 20
17.0217
 11
-8.81875
 21
16.9477
  0
LINE
  8
0
 10
-8.81875
 20
16.9477
 11
-8.64268
 21
16.8509
  0
LINE
  8
0
 10
-8.64268
 20
16.8509
 11
-8.48012
 21
16.7328
  0
LINE
  8
0
 10
-8.48012
 20
16.7328
 11
-8.33365
 21
16.5953
  0
LINE
  8
0
 10
-8.33365
 20
16.5953
 11
-8.20557
 21
16.4405
  0
LINE
  8
0
 10
-8.20557
 20
16.4405
 11
-8.09791
 21
16.2708
  0
LINE
  8
0
 10
-8.09791
 20
16.2708
 11
-8.01236
 21
16.089
  0
LINE
  8
0
 10
-8.01236
 20
16.089
 11
-7.95027
 21
15.8979
  0
LINE
  8
0
 10
-7.95027
 20
15.8979
 11
-7.91262
 21
15.7005
  0
LINE
  8
0
 10
-7.91262
 20
15.7005
 11
-7.9
 21
15.5
  0
LINE
  8
0
 10
-7.9
 20
15.5
 11
-7.91262
 21
15.2995
  0
LINE
  8
0
 10
-7.91262
 20
15.2995
 11
-7.95027
 21
15.1021
  0
LINE
  8
0
 10
-7.95027
 20
15.1021
 11
-8.01236
 21
14.911
  0
LINE
  8
0
 10
-8.01236
 20
14.911
 11
-8.09791
 21
14.7292
  0
LINE
  8
0
 10
-8.09791
 20
14.7292
 11
-8.20557
 21
14.5595
  0
LINE
  8
0
 10
-8.20557
 20
14.5595
 11
-8.33365
 21
14.4047
  0
LINE
  8
0
 10
-8.33365
 20
14.4047
 11
-8.48012
 21
14.2672
  0
LINE
  8
0
 10
-8.48012
 20
14.2672
 11
-8.64268
 21
14.1491
  0
LINE
  8
0
 10
-8.64268
 20
14.1491
 11
-8.81875
 21
14.0523
  0
LINE
  8
0
 10
-8.81875
 20
14.0523
 11
-9.00557
 21
13.9783
  0
LINE
  8
0
 10
-9.00557
 20
13.9783
 11
-9.20019
 21
13.9283
  0
LINE
  8
0
 10
-9.20019
 20
13.9283
 11
-9.39954
 21
13.9032
  0
LINE
  8
0
 10
-9.39954
 20
13.9032
 11
-12.6005
 21
13.9032
  0
LINE
  8
0
 10
-12.6005
 20
13.9032
 11
-12.7998
 21
13.9283
  0
LINE
  8
0
 10
-12.7998
 20
13.9283
 11
-12.9944
 21
13.9783
  0
LINE
  8
0
 10
-12.9944
 20
13.9783
 11
-13.1812
 21
14.0523
  0
LINE
  8
0
 10
-13.1812
 20
14.0523
 11
-13.3573
 21
14.1491
  0
LINE
  8
0
 10
-13.3573
 20
14.1491
 11
-13.5199
 21
14.2672
  0
LINE
  8
0
 10
-13.5199
 20
14.2672
 11
-13.6664
 21
14.4047
  0
LINE
  8
0
 10
-13.6664
 20
14.4047
 11
-13.7944
 21
14.5595
  0
LINE
  8
0
 10
-13.7944
 20
14.5595
 11
-13.9021
 21
14.7292
  0
LINE
  8
0
 10
-13.9021
 20
14.7292
 11
-13.9876
 21
14.911
  0
LINE
  8
0
 10
-13.9876
 20
14.911
 11
-14.0497
 21
15.1021
  0
LINE
  8
0
 10
-14.0497
 20
15.1021
 11
-14.0874
 21
15.2995
  0
LINE
  8
0
 10
-14.0874
 20
15.2995
 11
-14.1
 21
15.5
  0
LINE
  8
0
 10
-10.95
 20
0
 11
-10.8637
 21
1.3724
  0
LINE
  8
0
 10
-10.8637
 20
1.3724
 11
-10.606
 21
2.72315
  0
LINE
  8
0
 10
-10.606
 20
2.72315
 11
-10.1811
 21
4.03096
  0
LINE
  8
0
 10
-10.1811
 20
4.03096
 11
-9.59556
 21
5.2752
  0
LINE
  8
0
 10
-9.59556
 20
5.2752
 11
-8.85874
 21
6.43625
  0
LINE
  8
0
 10
-8.85874
 20
6.43625
 11
-7.98221
 21
7.49579
  0
LINE
  8
0
 10
-7.98221
 20
7.49579
 11
-6.97979
 21
8.43712
  0
LINE
  8
0
 10
-6.97979
 20
8.43712
 11
-5.8673
 21
9.24539
  0
LINE
  8
0
 10
-5.8673
 20
9.24539
 11
-4.66228
 21
9.90786
  0
LINE
  8
0
 10
-4.66228
 20
9.90786
 11
-3.38374
 21
10.4141
  0
LINE
  8
0
 10
-3.38374
 20
10.4141
 11
-2.05182
 21
10.756
  0
LINE
  8
0
 10
-2.05182
 20
10.756
 11
-0.687555
 21
10.9284
  0
LINE
  8
0
 10
-0.687555
 20
10.9284
 11
0.687555
 21
10.9284
  0
LINE
  8
0
 10
0.687555
 20
10.9284
 11
2.05182
 21
10.756
  0
LINE
  8
0
 10
2.05182
 20
10.756
 11
3.38374
 21
10.4141
  0
LINE
  8
0
 10
3.38374
 20
10.4141
 11
4.66228
 21
9.90786
  0
LINE
  8
0
 10
4.66228
 20
9.90786
 11
5.8673
 21
9.24539
  0
LINE
  8
0
 10
5.8673
 20
9.24539
 11
6.97979
 21
8.43712
  0
LINE
  8
0
 10
6.97979
 20
8.43712
 11
7.98221
 21
7.49579
  0
LINE
  8
0
 10
7.98221
 20
7.49579
 11
8.85874
 21
6.43625
  0
LINE
  8
0
 10
8.85874
 20
6.43625
 11
9.59556
 21
5.2752
  0
LINE
  8
0
 10
9.59556
 20
5.2752
 11
10.1811
 21
4.03096
  0
LINE
  8
0
 10
10.1811
 20
4.03096
 11
10.606
 21
2.72315
  0
LINE
  8
0
 10
10.606
 20
2.72315
 11
10.8637
 21
1.3724
  0
LINE
  8
0
 10
10.8637
 20
1.3724
 11
10.95
 21
0
  0
LINE
  8
0
 10
10.95
 20
0
 11
10.8637
 21
-1.3724
  0
LINE
  8
0
 10
10.8637
 20
-1.3724
 11
10.606
 21
-2.72315
  0
LINE
  8
0
 10
10.606
 20
-2.72315
 11
10.1811
 21
-4.03096
  0
LINE
  8
0
 10
10.1811
 20
-4.03096
 11
9.59556
 21
-5.2752
  0
LINE
  8
0
 10
9.59556
 20
-5.2752
 11
8.85874
 21
-6.43625
  0
LINE
  8
0
 10
8.85874
 20
-6.43625
 11
7.98221
 21
-7.49579
  0
LINE
  8
0
 10
7.98221
 20
-7.49579
 11
6.97979
 21
-8.43712
  0
LINE
  8
0
 10
6.97979
 20
-8.43712
 11
5.8673
 21
-9.24539
  0
LINE
  8
0
 10
5.8673
 20
-9.24539
 11
4.66228
 21
-9.90786
  0
LINE
  8
0
 10
4.66228
 20
-9.90786
 11
3.38374
 21
-10.4141
  0
LINE
  8
0
 10
3.38374
 20
-10.4141
 11
2.05182
 21
-10.756
  0
LINE
  8
0
 10
2.05182
 20
-10.756
 11
0.687555
 21
-10.9284
  0
LINE
  8
0
 10
0.687555
 20
-10.9284
 11
-0.687555
 21
-10.9284
  0
LINE
  8
0
 10
-0.687555
 20
-10.9284
 11
-2.05182
 21
-10.756
  0
LINE
  8
0
 10
-2.05182
 20
-10.756
 11
-3.38374
 21
-10.4141
  0
LINE
  8
0
 10
-3.38374
 20
-10.4141
 11
-4.66228
 21
-9.90786
  0
LINE
  8
0
 10
-4.66228
 20
-9.90786
 11
-5.8673
 21
-9.24539
  0
LINE
  8
0
 10
-5.8673
 20
-9.24539
 11
-6.97979
 21
-8.43712
  0
LINE
  8
0
 10
-6.97979
 20
-8.43712
 11
-7.98221
 21
-7.49579
  0
LINE
  8
0
 10
-7.98221
 20
-7.49579
 11
-8.85874
 21
-6.43625
  0
LINE
  8
0
 10
-8.85874
 20
-6.43625
 11
-9.59556
 21
-5.2752
  0
LINE
  8
0
 10
-9.59556
 20
-5.2752
 11
-10.1811
 21
-4.03096
  0
LINE
  8
0
 10
-10.1811
 20
-4.03096
 11
-10.606
 21
-2.72315
  0
LINE
  8
0
 10
-10.606
 20
-2.72315
 11
-10.8637
 21
-1.3724
  0
LINE
  8
0
 10
-10.8637
 20
-1.3724
 11
-10.95
 21
0
  0
LINE
  8
0
 10
7.9
 20
-15.5
 11
7.91262
 21
-15.2995
  0
LINE
  8
0
 10
7.91262
 20
-15.2995
 11
7.95027
 21
-15.1021
  0
LINE
  8
0
 10
7.95027
 20
-15.1021
 11
8.01236
 21
-14.911
  0
LINE
  8
0
 10
8.01236
 20
-14.911
 11
8.09791
 21
-14.7292
  0
LINE
  8
0
 10
8.09791
 20
-14.7292
 11
8.20557
 21
-14.5595
  0
LINE
  8
0
 10
8.20557
 20
-14.5595
 11
8.33365
 21
-14.4047
  0
LINE
  8
0
 10
8.33365
 20
-14.4047
 11
8.48012
 21
-14.2672
  0
LINE
  8
0
 10
8.48012
 20
-14.2672
 11
8.64268
 21
-14.1491
  0
LINE
  8
0
 10
8.64268
 20
-14.1491
 11
8.81875
 21
-14.0523
  0
LINE
  8
0
 10
8.81875
 20
-14.0523
 11
9.00557
 21
-13.9783
  0
LINE
  8
0
 10
9.00557
 20
-13.9783
 11
9.20019
 21
-13.9283
  0
LINE
  8
0
 10
9.20019
 20
-13.9283
 11
9.39954
 21
-13.9032
  0
LINE
  8
0
 10
9.39954
 20
-13.9032
 11
12.6005
 21
-13.9032
  0
LINE
  8
0
 10
12.6005
 20
-13.9032
 11
12.7998
 21
-13.9283
  0
LINE
  8
0
 10
12.7998
 20
-13.9283
 11
12.9944
 21
-13.9783
  0
LINE
  8
0
 10
12.9944
 20
-13.9783
 11
13.1812
 21
-14.0523
  0
LINE
  8
0
 10
13.1812
 20
-14.0523
 11
13.3573
 21
-14.1491
  0
LINE
  8
0
 10
13.3573
 20
-14.1491
 11
13.5199
 21
-14.2672
  0
LINE
  8
0
 10
13.5199
 20
-14.2672
 11
13.6664
 21
-14.4047
  0
LINE
  8
0
 10
13.6664
 20
-14.4047
 11
13.7944
 21
-14.5595
  0
LINE
  8
0
 10
13.7944
 20
-14.5595
 11
13.9021
 21
-14.7292
  0
LINE
  8
0
 10
13.9021
 20
-14.7292
 11
13.9876
 21
-14.911
  0
LINE
  8
0
 10
13.9876
 20
-14.911
 11
14.0497
 21
-15.1021
  0
LINE
  8
0
 10
14.0497
 20
-15.1021
 11
14.0874
 21
-15.2995
  0
LINE
  8
0
 10
14.0874
 20
-15.2995
 11
14.1
 21
-15.5
  0
LINE
  8
0
 10
14.1
 20
-15.5
 11
14.0874
 21
-15.7005
  0
LINE
  8
0
 10
14.0874
 20
-15.7005
 11
14.0497
 21
-15.8979
  0
LINE
  8
0
 10
14.0497
 20
-15.8979
 11
13.9876
 21
-16.089
  0
LINE
  8
0
 10
13.9876
 20
-16.089
 11
13.9021
 21
-16.2708
  0
LINE
  8
0
 10
13.9021
 20
-16.2708
 11
13.7944
 21
-16.4405
  0
LINE
  8
0
 10
13.7944
 20
-16.4405
 11
13.6664
 21
-16.5953
  0
LINE
  8
0
 10
13.6664
 20
-16.5953
 11
13.5199
 21
-16.7328
  0
LINE
  8
0
 10
13.5199
 20
-16.7328
 11
13.3573
 21
-16.8509
  0
LINE
  8
0
 10
13.3573
 20
-16.8509
 11
13.1812
 21
-16.9477
  0
LINE
  8
0
 10
13.1812
 20
-16.9477
 11
12.9944
 21
-17.0217
  0
LINE
  8
0
 10
12.9944
 20
-17.0217
 11
12.7998
 21
-17.0717
  0
LINE
  8
0
 10
12.7998
 20
-17.0717
 11
12.6005
 21
-17.0968
  0
LINE
  8
0
 10
12.6005
 20
-17.0968
 11
9.39954
 21
-17.0968
  0
LINE
  8
0
 10
9.39954
 20
-17.0968
 11
9.20019
 21
-17.0717
  0
LINE
  8
0
 10
9.20019
 20
-17.0717
 11
9.00557
 21
-17.0217
  0
LINE
  8
0
 10
9.00557
 20
-17.0217
 11
8.81875
 21
-16.9477
  0
LINE
  8
0
 10
8.81875
 20
-16.9477
 11
8.64268
 21
-16.8509
  0
LINE
  8
0
 10
8.64268
 20
-16.8509
 11
8.48012
 21
-16.7328
  0
LINE
  8
0
 10
8.48012
 20
-16.7328
 11
8.33365
 21
-16.5953
  0
LINE
  8
0
 10
8.33365
 20
-16.5953
 11
8.20557
 21
-16.4405
  0
LINE
  8
0
 10
8.20557
 20
-16.4405
 11
8.09791
 21
-16.2708
  0
LINE
  8
0
 10
8.09791
 20
-16.2708
 11
8.01236
 21
-16.089
  0
LINE
  8
0
 10
8.01236
 20
-16.089
 11
7.95027
 21
-15.8979
  0
LINE
  8
0
 10
7.95027
 20
-15.8979
 11
7.91262
 21
-15.7005
  0
LINE
  8
0
 10
7.91262
 20
-15.7005
 11
7.9
 21
-15.5
  0
LINE
  8
0
 10
7.9
 20
15.5
 11
7.91262
 21
15.7005
  0
LINE
  8
0
 10
7.91262
 20
15.7005
 11
7.95027
 21
15.8979
  0
LINE
  8
0
 10
7.95027
 20
15.8979
 11
8.01236
 21
16.089
  0
LINE
  8
0
 10
8.01236
 20
16.089
 11
8.09791
 21
16.2708
  0
LINE
  8
0
 10
8.09791
 20
16.2708
 11
8.20557
 21
16.4405
  0
LINE
  8
0
 10
8.20557
 20
16.4405
 11
8.33365
 21
16.5953
  0
LINE
  8
0
 10
8.33365
 20
16.5953
 11
8.48012
 21
16.7328
  0
LINE
  8
0
 10
8.48012
 20
16.7328
 11
8.64268
 21
16.8509
  0
LINE
  8
0
 10
8.64268
 20
16.8509
 11
8.81875
 21
16.9477
  0
LINE
  8
0
 10
8.81875
 20
16.9477
 11
9.00557
 21
17.0217
  0
LINE
  8
0
 10
9.00557
 20
17.0217
 11
9.20019
 21
17.0717
  0
LINE
  8
0
 10
9.20019
 20
17.0717
 11
9.39954
 21
17.0968
  0
LINE
  8
0
 10
9.39954
 20
17.0968
 11
12.6005
 21
17.0968
  0
LINE
  8
0
 10
12.6005
 20
17.0968
 11
12.7998
 21
17.0717
  0
LINE
  8
0
 10
12.7998
 20
17.0717
 11
12.9944
 21
17.0217
  0
LINE
  8
0
 10
12.9944
 20
17.0217
 11
13.1812
 21
16.9477
  0
LINE
  8
0
 10
13.1812
 20
16.9477
 11
13.3573
 21
16.8509
  0
LINE
  8
0
 10
13.3573
 20
16.8509
 11
13.5199
 21
16.7328
  0
LINE
  8
0
 10
13.5199
 20
16.7328
 11
13.6664
 21
16.5953
  0
LINE
  8
0
 10
13.6664
 20
16.5953
 11
13.7944
 21
16.4405
  0
LINE
  8
0
 10
13.7944
 20
16.4405
 11
13.9021
 21
16.2708
  0
LINE
  8
0
 10
13.9021
 20
16.2708
 11
13.9876
 21
16.089
  0
LINE
  8
0
 10
13.9876
 20
16.089
 11
14.0497
 21
15.8979
  0
LINE
  8
0
 10
14.0497
 20
15.8979
 11
14.0874
 21
15.7005
  0
LINE
  8
0
 10
14.0874
 20
15.7005
 11
14.1
 21
15.5
  0
LINE
  8
0
 10
14.1
 20
15.5
 11
14.0874
 21
15.2995
  0
LINE
  8
0
 10
14.0874
 20
15.2995
 11
14.0497
 21
15.1021
  0
LINE
  8
0
 10
14.0497
 20
15.1021
 11
13.9876
 21
14.911
  0
LINE
  8
0
 10
13.9876
 20
14.911
 11
13.9021
 21
14.7292
  0
LINE
  8
0
 10
13.9021
 20
14.7292
 11
13.7944
 21
14.5595
  0
LINE
  8
0
 10
13.7944
 20
14.5595
 11
13.6664
 21
14.4047
  0
LINE
  8
0
 10
13.6664
 20
14.4047
 11
13.5199
 21
14.2672
  0
LINE
  8
0
 10
13.5199
 20
14.2672
 11
13.3573
 21
14.1491
  0
LINE
  8
0
 10
13.3573
 20
14.1491
 11
13.1812
 21
14.0523
  0
LINE
  8
0
 10
13.1812
 20
14.0523
 11
12.9944
 21
13.9783
  0
LINE
  8
0
 10
12.9944
 20
13.9783
 11
12.7998
 21
13.9283
  0
LINE
  8
0
 10
12.7998
 20
13.9283
 11
12.6005
 21
13.9032
  0
LINE
  8
0
 10
12.6005
 20
13.9032
 11
9.39954
 21
13.9032
  0
LINE
  8
0
 10
9.39954
 20
13.9032
 11
9.20019
 21
13.9283
  0
LINE
  8
0
 10
9.20019
 20
13.9283
 11
9.00557
 21
13.9783
  0
LINE
  8
0
 10
9.00557
 20
13.9783
 11
8.81875
 21
14.0523
  0
LINE
  8
0
 10
8.81875
 20
14.0523
 11
8.64268
 21
14.1491
  0
LINE
  8
0
 10
8.64268
 20
14.1491
 11
8.48012
 21
14.2672
  0
LINE
  8
0
 10
8.48012
 20
14.2672
 11
8.33365
 21
14.4047
  0
LINE
  8
0
 10
8.33365
 20
14.4047
 11
8.20557
 21
14.5595
  0
LINE
  8
0
 10
8.20557
 20
14.5595
 11
8.09791
 21
14.7292
  0
LINE
  8
0
 10
8.09791
 20
14.7292
 11
8.01236
 21
14.911
  0
LINE
  8
0
 10
8.01236
 20
14.911
 11
7.95027
 21
15.1021
  0
LINE
  8
0
 10
7.95027
 20
15.1021
 11
7.91262
 21
15.2995
  0
LINE
  8
0
 10
7.91262
 20
15.2995
 11
7.9
 21
15.5
  0
LINE
  8
0
 10
13.9
 20
0
 11
13.9875
 21
1.3912
  0
LINE
  8
0
 10
13.9875
 20
1.3912
 11
14.2487
 21
2.76046
  0
LINE
  8
0
 10
14.2487
 20
2.76046
 11
14.6795
 21
4.08618
  0
LINE
  8
0
 10
14.6795
 20
4.08618
 11
15.273
 21
5.34747
  0
LINE
  8
0
 10
15.273
 20
5.34747
 11
16.0199
 21
6.52442
  0
LINE
  8
0
 10
16.0199
 20
6.52442
 11
16.9084
 21
7.59847
  0
LINE
  8
0
 10
16.9084
 20
7.59847
 11
17.9246
 21
8.5527
  0
LINE
  8
0
 10
17.9246
 20
8.5527
 11
19.0523
 21
9.37204
  0
LINE
  8
0
 10
19.0523
 20
9.37204
 11
20.2739
 21
10.0436
  0
LINE
  8
0
 10
20.2739
 20
10.0436
 11
21.5699
 21
10.5567
  0
LINE
  8
0
 10
21.5699
 20
10.5567
 11
22.9201
 21
10.9034
  0
LINE
  8
0
 10
22.9201
 20
10.9034
 11
24.303
 21
11.0781
  0
LINE
  8
0
 10
24.303
 20
11.0781
 11
28.697
 21
11.0781
  0
LINE
  8
0
 10
28.697
 20
11.0781
 11
30.0799
 21
10.9034
  0
LINE
  8
0
 10
30.0799
 20
10.9034
 11
31.4301
 21
10.5567
  0
LINE
  8
0
 10
31.4301
 20
10.5567
 11
32.7261
 21
10.0436
  0
LINE
  8
0
 10
32.7261
 20
10.0436
 11
33.9477
 21
9.37204
  0
LINE
  8
0
 10
33.9477
 20
9.37204
 11
35.0754
 21
8.5527
  0
LINE
  8
0
 10
35.0754
 20
8.5527
 11
36.0916
 21
7.59847
  0
LINE
  8
0
 10
36.0916
 20
7.59847
 11
36.9801
 21
6.52442
  0
LINE
  8
0
 10
36.9801
 20
6.52442
 11
37.727
 21
5.34747
  0
LINE
  8
0
 10
37.727
 20
5.34747
 11
38.3205
 21
4.08618
  0
LINE
  8
0
 10
38.3205
 20
4.08618
 11
38.7513
 21
2.76046
  0
LINE
  8
0
 10
38.7513
 20
2.76046
 11
39.0125
 21
1.3912
  0
LINE
  8
0
 10
39.0125
 20
1.3912
 11
39.1
 21
0
  0
LINE
  8
0
 10
39.1
 20
0
 11
39.0125
 21
-1.3912
  0
LINE
  8
0
 10
39.0125
 20
-1.3912
 11
38.7513
 21
-2.76046
  0
LINE
  8
0
 10
38.7513
 20
-2.76046
 11
38.3205
 21
-4.08618
  0
LINE
  8
0
 10
38.3205
 20
-4.08618
 11
37.727
 21
-5.34747
  0
LINE
  8
0
 10
37.727
 20
-5.34747
 11
36.9801
 21
-6.52442
  0
LINE
  8
0
 10
36.9801
 20
-6.52442
 11
36.0916
 21
-7.59847
  0
LINE
  8
0
 10
36.0916
 20
-7.59847
 11
35.0754
 21
-8.5527
  0
LINE
  8
0
 10
35.0754
 20
-8.5527
 11
33.9477
 21
-9.37204
  0
LINE
  8
0
 10
33.9477
 20
-9.37204
 11
32.7261
 21
-10.0436
  0
LINE
  8
0
 10
32.7261
 20
-10.0436
 11
31.4301
 21
-10.5567
  0
LINE
  8
0
 10
31.4301
 20
-10.5567
 11
30.0799
 21
-10.9034
  0
LINE
  8
0
 10
30.0799
 20
-10.9034
 11
28.697
 21
-11.0781
  0
LINE
  8
0
 10
28.697
 20
-11.0781
 11
24.303
 21
-11.0781
  0
LINE
  8
0
 10
24.303
 20
-11.0781
 11
22.9201
 21
-10.9034
  0
LINE
  8
0
 10
22.9201
 20
-10.9034
 11
21.5699
 21
-10.5567
  0
LINE
  8
0
 10
21.5699
 20
-10.5567
 11
20.2739
 21
-10.0436
  0
LINE
  8
0
 10
20.2739
 20
-10.0436
 11
19.0523
 21
-9.37204
  0
LINE
  8
0
 10
19.0523
 20
-9.37204
 11
17.9246
 21
-8.5527
  0
LINE
  8
0
 10
17.9246
 20
-8.5527
 11
16.9084
 21
-7.59847
  0
LINE
  8
0
 10
16.9084
 20
-7.59847
 11
16.0199
 21
-6.52442
  0
LINE
  8
0
 10
16.0199
 20
-6.52442
 11
15.273
 21
-5.34747
  0
LINE
  8
0
 10
15.273
 20
-5.34747
 11
14.6795
 21
-4.08618
  0
LINE
  8
0
 10
14.6795
 20
-4.08618
 11
14.2487
 21
-2.76046
  0
LINE
  8
0
 10
14.2487
 20
-2.76046
 11
13.9875
 21
-1.3912
  0
LINE
  8
0
 10
13.9875
 20
-1.3912
 11
13.9
 21
0
  0
LINE
  8
0
 10
38.9
 20
-15.5
 11
38.9126
 21
-15.2995
  0
LINE
  8
0
 10
38.9126
 20
-15.2995
 11
38.9503
 21
-15.1021
  0
LINE
  8
0
 10
38.9503
 20
-15.1021
 11
39.0124
 21
-14.911
  0
LINE
  8
0
 10
39.0124
 20
-14.911
 11
39.0979
 21
-14.7292
  0
LINE
  8
0
 10
39.0979
 20
-14.7292
 11
39.2056
 21
-14.5595
  0
LINE
  8
0
 10
39.2056
 20
-14.5595
 11
39.3336
 21
-14.4047
  0
LINE
  8
0
 10
39.3336
 20
-14.4047
 11
39.4801
 21
-14.2672
  0
LINE
  8
0
 10
39.4801
 20
-14.2672
 11
39.6427
 21
-14.1491
  0
LINE
  8
0
 10
39.6427
 20
-14.1491
 11
39.8188
 21
-14.0523
  0
LINE
  8
0
 10
39.8188
 20
-14.0523
 11
40.0056
 21
-13.9783
  0
LINE
  8
0
 10
40.0056
 20
-13.9783
 11
40.2002
 21
-13.9283
  0
LINE
  8
0
 10
40.2002
 20
-13.9283
 11
40.3995
 21
-13.9032
  0
LINE
  8
0
 10
40.3995
 20
-13.9032
 11
43.6005
 21
-13.9032
  0
LINE
  8
0
 10
43.6005
 20
-13.9032
 11
43.7998
 21
-13.9283
  0
LINE
  8
0
 10
43.7998
 20
-13.9283
 11
43.9944
 21
-13.9783
  0
LINE
  8
0
 10
43.9944
 20
-13.9783
 11
44.1812
 21
-14.0523
  0
LINE
  8
0
 10
44.1812
 20
-14.0523
 11
44.3573
 21
-14.1491
  0
LINE
  8
0
 10
44.3573
 20
-14.1491
 11
44.5199
 21
-14.2672
  0
LINE
  8
0
 10
44.5199
 20
-14.2672
 11
44.6663
 21
-14.4047
  0
LINE
  8
0
 10
44.6663
 20
-14.4047
 11
44.7944
 21
-14.5595
  0
LINE
  8
0
 10
44.7944
 20
-14.5595
 11
44.9021
 21
-14.7292
  0
LINE
  8
0
 10
44.9021
 20
-14.7292
 11
44.9876
 21
-14.911
  0
LINE
  8
0
 10
44.9876
 20
-14.911
 11
45.0497
 21
-15.1021
  0
LINE
  8
0
 10
45.0497
 20
-15.1021
 11
45.0874
 21
-15.2995
  0
LINE
  8
0
 10
45.0874
 20
-15.2995
 11
45.1
 21
-15.5
  0
LINE
  8
0
 10
45.1
 20
-15.5
 11
45.0874
 21
-15.7005
  0
LINE
  8
0
 10
45.0874
 20
-15.7005
 11
45.0497
 21
-15.8979
  0
LINE
  8
0
 10
45.0497
 20
-15.8979
 11
44.9876
 21
-16.089
  0
LINE
  8
0
 10
44.9876
 20
-16.089
 11
44.9021
 21
-16.2708
  0
LINE
  8
0
 10
44.9021
 20
-16.2708
 11
44.7944
 21
-16.4405
  0
LINE
  8
0
 10
44.7944
 20
-16.4405
 11
44.6663
 21
-16.5953
  0
LINE
  8
0
 10
44.6663
 20
-16.5953
 11
44.5199
 21
-16.7328
  0
LINE
  8
0
 10
44.5199
 20
-16.7328
 11
44.3573
 21
-16.8509
  0
LINE
  8
0
 10
44.3573
 20
-16.8509
 11
44.1812
 21
-16.9477
  0
LINE
  8
0
 10
44.1812
 20
-16.9477
 11
43.9944
 21
-17.0217
  0
LINE
  8
0
 10
43.9944
 20
-17.0217
 11
43.7998
 21
-17.0717
  0
LINE
  8
0
 10
43.7998
 20
-17.0717
 11
43.6005
 21
-17.0968
  0
LINE
  8
0
 10
43.6005
 20
-17.0968
 11
40.3995
 21
-17.0968
  0
LINE
  8
0
 10
40.3995
 20
-17.0968
 11
40.2002
 21
-17.0717
  0
LINE
  8
0
 10
40.2002
 20
-17.0717
 11
40.0056
 21
-17.0217
  0
LINE
  8
0
 10
40.0056
 20
-17.0217
 11
39.8188
 21
-16.9477
  0
LINE
  8
0
 10
39.8188
 20
-16.9477
 11
39.6427
 21
-16.8509
  0
LINE
  8
0
 10
39.6427
 20
-16.8509
 11
39.4801
 21
-16.7328
  0
LINE
  8
0
 10
39.4801
 20
-16.7328
 11
39.3336
 21
-16.5953
  0
LINE
  8
0
 10
39.3336
 20
-16.5953
 11
39.2056
 21
-16.4405
  0
LINE
  8
0
 10
39.2056
 20
-16.4405
 11
39.0979
 21
-16.2708
  0
LINE
  8
0
 10
39.0979
 20
-16.2708
 11
39.0124
 21
-16.089
  0
LINE
  8
0
 10
39.0124
 20
-16.089
 11
38.9503
 21
-15.8979
  0
LINE
  8
0
 10
38.9503
 20
-15.8979
 11
38.9126
 21
-15.7005
  0
LINE
  8
0
 10
38.9126
 20
-15.7005
 11
38.9
 21
-15.5
  0
LINE
  8
0
 10
38.9
 20
15.5
 11
38.9126
 21
15.7005
  0
LINE
  8
0
 10
38.9126
 20
15.7005
 11
38.9503
 21
15.8979
  0
LINE
  8
0
 10
38.9503
 20
15.8979
 11
39.0124
 21
16.089
  0
LINE
  8
0
 10
39.0124
 20
16.089
 11
39.0979
 21
16.2708
  0
LINE
  8
0
 10
39.0979
 20
16.2708
 11
39.2056
 21
16.4405
  0
LINE
  8
0
 10
39.2056
 20
16.4405
 11
39.3336
 21
16.5953
  0
LINE
  8
0
 10
39.3336
 20
16.5953
 11
39.4801
 21
16.7328
  0
LINE
  8
0
 10
39.4801
 20
16.7328
 11
39.6427
 21
16.8509
  0
LINE
  8
0
 10
39.6427
 20
16.8509
 11
39.8188
 21
16.9477
  0
LINE
  8
0
 10
39.8188
 20
16.9477
 11
40.0056
 21
17.0217
  0
LINE
  8
0
 10
40.0056
 20
17.0217
 11
40.2002
 21
17.0717
  0
LINE
  8
0
 10
40.2002
 20
17.0717
 11
40.3995
 21
17.0968
  0
LINE
  8
0
 10
40.3995
 20
17.0968
 11
43.6005
 21
17.0968
  0
LINE
  8
0
 10
43.6005
 20
17.0968
 11
43.7998
 21
17.0717
  0
LINE
  8
0
 10
43.7998
 20
17.0717
 11
43.9944
 21
17.0217
  0
LINE
  8
0
 10
43.9944
 20
17.0217
 11
44.1812
 21
16.9477
  0
LINE
  8
0
 10
44.1812
 20
16.9477
 11
44.3573
 21
16.8509
  0
LINE
  8
0
 10
44.3573
 20
16.8509
 11
44.5199
 21
16.7328
  0
LINE
  8
0
 10
44.5199
 20
16.7328
 11
44.6663
 21
16.5953
  0
LINE
  8
0
 10
44.6663
 20
16.5953
 11
44.7944
 21
16.4405
  0
LINE
  8
0
 10
44.7944
 20
16.4405
 11
44.9021
 21
16.2708
  0
LINE
  8
0
 10
44.9021
 20
16.2708
 11
44.9876
 21
16.089
  0
LINE
  8
0
 10
44.9876
 20
16.089
 11
45.0497
 21
15.8979
  0
LINE
  8
0
 10
45.0497
 20
15.8979
 11
45.0874
 21
15.7005
  0
LINE
  8
0
 10
45.0874
 20
15.7005
 11
45.1
 21
15.5
  0
LINE
  8
0
 10
45.1
 20
15.5
 11
45.0874
 21
15.2995
  0
LINE
  8
0
 10
45.0874
 20
15.2995
 11
45.0497
 21
15.1021
  0
LINE
  8
0
 10
45.0497
 20
15.1021
 11
44.9876
 21
14.911
  0
LINE
  8
0
 10
44.9876
 20
14.911
 11
44.9021
 21
14.7292
  0
LINE
  8
0
 10
44.9021
 20
14.7292
 11
44.7944
 21
14.5595
  0
LINE
  8
0
 10
44.7944
 20
14.5595
 11
44.6663
 21
14.4047
  0
LINE
  8
0
 10
44.6663
 20
14.4047
 11
44.5199
 21
14.2672
  0
LINE
  8
0
 10
44.5199
 20
14.2672
 11
44.3573
 21
14.1491
  0
LINE
  8
0
 10
44.3573
 20
14.1491
 11
44.1812
 21
14.0523
  0
LINE
  8
0
 10
44.1812
 20
14.0523
 11
43.9944
 21
13.9783
  0
LINE
  8
0
 10
43.9944
 20
13.9783
 11
43.7998
 21
13.9283
  0
LINE
  8
0
 10
43.7998
 20
13.9283
 11
43.6005
 21
13.9032
  0
LINE
  8
0
 10
43.6005
 20
13.9032
 11
40.3995
 21
13.9032
  0
LINE
  8
0
 10
40.3995
 20
13.9032
 11
40.2002
 21
13.9283
  0
LINE
  8
0
 10
40.2002
 20
13.9283
 11
40.0056
 21
13.9783
  0
LINE
  8
0
 10
40.0056
 20
13.9783
 11
39.8188
 21
14.0523
  0
LINE
  8
0
 10
39.8188
 20
14.0523
 11
39.6427
 21
14.1491
  0
LINE
  8
0
 10
39.6427
 20
14.1491
 11
39.4801
 21
14.2672
  0
LINE
  8
0
 10
39.4801
 20
14.2672
 11
39.3336
 21
14.4047
  0
LINE
  8
0
 10
39.3336
 20
14.4047
 11
39.2056
 21
14.5595
  0
LINE
  8
0
 10
39.2056
 20
14.5595
 11
39.0979
 21
14.7292
  0
LINE
  8
0
 10
39.0979
 20
14.7292
 11
39.0124
 21
14.911
  0
LINE
  8
0
 10
39.0124
 20
14.911
 11
38.9503
 21
15.1021
  0
LINE
  8
0
 10
38.9503
 20
15.1021
 11
38.9126
 21
15.2995
  0
LINE
  8
0
 10
38.9126
 20
15.2995
 11
38.9
 21
15.5
  0
ENDSEC
  0
SECTION
  2
OBJECTS
  0
DICTIONARY
  0
ENDSEC
  0
EOF
