G04 #@! TF.GenerationSoftware,KiCad,Pcbnew,(5.1.6)-1*
G04 #@! TF.CreationDate,2020-05-30T15:14:58+10:00*
G04 #@! TF.ProjectId,sand_drawing,73616e64-5f64-4726-9177-696e672e6b69,rev?*
G04 #@! TF.SameCoordinates,Original*
G04 #@! TF.FileFunction,Legend,Top*
G04 #@! TF.FilePolarity,Positive*
%FSLAX46Y46*%
G04 Gerber Fmt 4.6, Leading zero omitted, Abs format (unit mm)*
G04 Created by KiCad (PCBNEW (5.1.6)-1) date 2020-05-30 15:14:58*
%MOMM*%
%LPD*%
G01*
G04 APERTURE LIST*
%ADD10C,0.150000*%
%ADD11C,0.300000*%
%ADD12C,0.010000*%
%ADD13C,0.120000*%
G04 APERTURE END LIST*
D10*
X113018396Y-78797281D02*
X113161253Y-78844900D01*
X113399348Y-78844900D01*
X113494586Y-78797281D01*
X113542205Y-78749662D01*
X113589824Y-78654424D01*
X113589824Y-78559186D01*
X113542205Y-78463948D01*
X113494586Y-78416329D01*
X113399348Y-78368710D01*
X113208872Y-78321091D01*
X113113634Y-78273472D01*
X113066015Y-78225853D01*
X113018396Y-78130615D01*
X113018396Y-78035377D01*
X113066015Y-77940139D01*
X113113634Y-77892520D01*
X113208872Y-77844900D01*
X113446967Y-77844900D01*
X113589824Y-77892520D01*
X114446967Y-78844900D02*
X114446967Y-78321091D01*
X114399348Y-78225853D01*
X114304110Y-78178234D01*
X114113634Y-78178234D01*
X114018396Y-78225853D01*
X114446967Y-78797281D02*
X114351729Y-78844900D01*
X114113634Y-78844900D01*
X114018396Y-78797281D01*
X113970777Y-78702043D01*
X113970777Y-78606805D01*
X114018396Y-78511567D01*
X114113634Y-78463948D01*
X114351729Y-78463948D01*
X114446967Y-78416329D01*
X114923158Y-78178234D02*
X114923158Y-78844900D01*
X114923158Y-78273472D02*
X114970777Y-78225853D01*
X115066015Y-78178234D01*
X115208872Y-78178234D01*
X115304110Y-78225853D01*
X115351729Y-78321091D01*
X115351729Y-78844900D01*
X116256491Y-78844900D02*
X116256491Y-77844900D01*
X116256491Y-78797281D02*
X116161253Y-78844900D01*
X115970777Y-78844900D01*
X115875539Y-78797281D01*
X115827920Y-78749662D01*
X115780300Y-78654424D01*
X115780300Y-78368710D01*
X115827920Y-78273472D01*
X115875539Y-78225853D01*
X115970777Y-78178234D01*
X116161253Y-78178234D01*
X116256491Y-78225853D01*
X117494586Y-78844900D02*
X117494586Y-77844900D01*
X117732681Y-77844900D01*
X117875539Y-77892520D01*
X117970777Y-77987758D01*
X118018396Y-78082996D01*
X118066015Y-78273472D01*
X118066015Y-78416329D01*
X118018396Y-78606805D01*
X117970777Y-78702043D01*
X117875539Y-78797281D01*
X117732681Y-78844900D01*
X117494586Y-78844900D01*
X118494586Y-78844900D02*
X118494586Y-78178234D01*
X118494586Y-78368710D02*
X118542205Y-78273472D01*
X118589824Y-78225853D01*
X118685062Y-78178234D01*
X118780300Y-78178234D01*
X119542205Y-78844900D02*
X119542205Y-78321091D01*
X119494586Y-78225853D01*
X119399348Y-78178234D01*
X119208872Y-78178234D01*
X119113634Y-78225853D01*
X119542205Y-78797281D02*
X119446967Y-78844900D01*
X119208872Y-78844900D01*
X119113634Y-78797281D01*
X119066015Y-78702043D01*
X119066015Y-78606805D01*
X119113634Y-78511567D01*
X119208872Y-78463948D01*
X119446967Y-78463948D01*
X119542205Y-78416329D01*
X119923158Y-78178234D02*
X120113634Y-78844900D01*
X120304110Y-78368710D01*
X120494586Y-78844900D01*
X120685062Y-78178234D01*
X121066015Y-78844900D02*
X121066015Y-78178234D01*
X121066015Y-77844900D02*
X121018396Y-77892520D01*
X121066015Y-77940139D01*
X121113634Y-77892520D01*
X121066015Y-77844900D01*
X121066015Y-77940139D01*
X121542205Y-78178234D02*
X121542205Y-78844900D01*
X121542205Y-78273472D02*
X121589824Y-78225853D01*
X121685062Y-78178234D01*
X121827920Y-78178234D01*
X121923158Y-78225853D01*
X121970777Y-78321091D01*
X121970777Y-78844900D01*
X122875539Y-78178234D02*
X122875539Y-78987758D01*
X122827920Y-79082996D01*
X122780300Y-79130615D01*
X122685062Y-79178234D01*
X122542205Y-79178234D01*
X122446967Y-79130615D01*
X122875539Y-78797281D02*
X122780300Y-78844900D01*
X122589824Y-78844900D01*
X122494586Y-78797281D01*
X122446967Y-78749662D01*
X122399348Y-78654424D01*
X122399348Y-78368710D01*
X122446967Y-78273472D01*
X122494586Y-78225853D01*
X122589824Y-78178234D01*
X122780300Y-78178234D01*
X122875539Y-78225853D01*
X124685062Y-78844900D02*
X124351729Y-78368710D01*
X124113634Y-78844900D02*
X124113634Y-77844900D01*
X124494586Y-77844900D01*
X124589824Y-77892520D01*
X124637443Y-77940139D01*
X124685062Y-78035377D01*
X124685062Y-78178234D01*
X124637443Y-78273472D01*
X124589824Y-78321091D01*
X124494586Y-78368710D01*
X124113634Y-78368710D01*
X125256491Y-78844900D02*
X125161253Y-78797281D01*
X125113634Y-78749662D01*
X125066015Y-78654424D01*
X125066015Y-78368710D01*
X125113634Y-78273472D01*
X125161253Y-78225853D01*
X125256491Y-78178234D01*
X125399348Y-78178234D01*
X125494586Y-78225853D01*
X125542205Y-78273472D01*
X125589824Y-78368710D01*
X125589824Y-78654424D01*
X125542205Y-78749662D01*
X125494586Y-78797281D01*
X125399348Y-78844900D01*
X125256491Y-78844900D01*
X126018396Y-78844900D02*
X126018396Y-77844900D01*
X126018396Y-78225853D02*
X126113634Y-78178234D01*
X126304110Y-78178234D01*
X126399348Y-78225853D01*
X126446967Y-78273472D01*
X126494586Y-78368710D01*
X126494586Y-78654424D01*
X126446967Y-78749662D01*
X126399348Y-78797281D01*
X126304110Y-78844900D01*
X126113634Y-78844900D01*
X126018396Y-78797281D01*
X127066015Y-78844900D02*
X126970777Y-78797281D01*
X126923158Y-78749662D01*
X126875539Y-78654424D01*
X126875539Y-78368710D01*
X126923158Y-78273472D01*
X126970777Y-78225853D01*
X127066015Y-78178234D01*
X127208872Y-78178234D01*
X127304110Y-78225853D01*
X127351729Y-78273472D01*
X127399348Y-78368710D01*
X127399348Y-78654424D01*
X127351729Y-78749662D01*
X127304110Y-78797281D01*
X127208872Y-78844900D01*
X127066015Y-78844900D01*
X127685062Y-78178234D02*
X128066015Y-78178234D01*
X127827920Y-77844900D02*
X127827920Y-78702043D01*
X127875539Y-78797281D01*
X127970777Y-78844900D01*
X128066015Y-78844900D01*
X129161253Y-78844900D02*
X129161253Y-77844900D01*
X129542205Y-77844900D01*
X129637443Y-77892520D01*
X129685062Y-77940139D01*
X129732681Y-78035377D01*
X129732681Y-78178234D01*
X129685062Y-78273472D01*
X129637443Y-78321091D01*
X129542205Y-78368710D01*
X129161253Y-78368710D01*
X130732681Y-78749662D02*
X130685062Y-78797281D01*
X130542205Y-78844900D01*
X130446967Y-78844900D01*
X130304110Y-78797281D01*
X130208872Y-78702043D01*
X130161253Y-78606805D01*
X130113634Y-78416329D01*
X130113634Y-78273472D01*
X130161253Y-78082996D01*
X130208872Y-77987758D01*
X130304110Y-77892520D01*
X130446967Y-77844900D01*
X130542205Y-77844900D01*
X130685062Y-77892520D01*
X130732681Y-77940139D01*
X131494586Y-78321091D02*
X131637443Y-78368710D01*
X131685062Y-78416329D01*
X131732681Y-78511567D01*
X131732681Y-78654424D01*
X131685062Y-78749662D01*
X131637443Y-78797281D01*
X131542205Y-78844900D01*
X131161253Y-78844900D01*
X131161253Y-77844900D01*
X131494586Y-77844900D01*
X131589824Y-77892520D01*
X131637443Y-77940139D01*
X131685062Y-78035377D01*
X131685062Y-78130615D01*
X131637443Y-78225853D01*
X131589824Y-78273472D01*
X131494586Y-78321091D01*
X131161253Y-78321091D01*
X132827920Y-78178234D02*
X133066015Y-78844900D01*
X133304110Y-78178234D01*
X134208872Y-78844900D02*
X133637443Y-78844900D01*
X133923158Y-78844900D02*
X133923158Y-77844900D01*
X133827920Y-77987758D01*
X133732681Y-78082996D01*
X133637443Y-78130615D01*
X134637443Y-78749662D02*
X134685062Y-78797281D01*
X134637443Y-78844900D01*
X134589824Y-78797281D01*
X134637443Y-78749662D01*
X134637443Y-78844900D01*
X135304110Y-77844900D02*
X135399348Y-77844900D01*
X135494586Y-77892520D01*
X135542205Y-77940139D01*
X135589824Y-78035377D01*
X135637443Y-78225853D01*
X135637443Y-78463948D01*
X135589824Y-78654424D01*
X135542205Y-78749662D01*
X135494586Y-78797281D01*
X135399348Y-78844900D01*
X135304110Y-78844900D01*
X135208872Y-78797281D01*
X135161253Y-78749662D01*
X135113634Y-78654424D01*
X135066015Y-78463948D01*
X135066015Y-78225853D01*
X135113634Y-78035377D01*
X135161253Y-77940139D01*
X135208872Y-77892520D01*
X135304110Y-77844900D01*
X108423158Y-80494900D02*
X108423158Y-79494900D01*
X108851729Y-80494900D02*
X108851729Y-79971091D01*
X108804110Y-79875853D01*
X108708872Y-79828234D01*
X108566015Y-79828234D01*
X108470777Y-79875853D01*
X108423158Y-79923472D01*
X109185062Y-79828234D02*
X109566015Y-79828234D01*
X109327920Y-79494900D02*
X109327920Y-80352043D01*
X109375539Y-80447281D01*
X109470777Y-80494900D01*
X109566015Y-80494900D01*
X109756491Y-79828234D02*
X110137443Y-79828234D01*
X109899348Y-79494900D02*
X109899348Y-80352043D01*
X109946967Y-80447281D01*
X110042205Y-80494900D01*
X110137443Y-80494900D01*
X110470777Y-79828234D02*
X110470777Y-80828234D01*
X110470777Y-79875853D02*
X110566015Y-79828234D01*
X110756491Y-79828234D01*
X110851729Y-79875853D01*
X110899348Y-79923472D01*
X110946967Y-80018710D01*
X110946967Y-80304424D01*
X110899348Y-80399662D01*
X110851729Y-80447281D01*
X110756491Y-80494900D01*
X110566015Y-80494900D01*
X110470777Y-80447281D01*
X111327920Y-80447281D02*
X111423158Y-80494900D01*
X111613634Y-80494900D01*
X111708872Y-80447281D01*
X111756491Y-80352043D01*
X111756491Y-80304424D01*
X111708872Y-80209186D01*
X111613634Y-80161567D01*
X111470777Y-80161567D01*
X111375539Y-80113948D01*
X111327920Y-80018710D01*
X111327920Y-79971091D01*
X111375539Y-79875853D01*
X111470777Y-79828234D01*
X111613634Y-79828234D01*
X111708872Y-79875853D01*
X112185062Y-80399662D02*
X112232681Y-80447281D01*
X112185062Y-80494900D01*
X112137443Y-80447281D01*
X112185062Y-80399662D01*
X112185062Y-80494900D01*
X112185062Y-79875853D02*
X112232681Y-79923472D01*
X112185062Y-79971091D01*
X112137443Y-79923472D01*
X112185062Y-79875853D01*
X112185062Y-79971091D01*
X113375539Y-79447281D02*
X112518396Y-80732996D01*
X114423158Y-79447281D02*
X113566015Y-80732996D01*
X115185062Y-79828234D02*
X115185062Y-80637758D01*
X115137443Y-80732996D01*
X115089824Y-80780615D01*
X114994586Y-80828234D01*
X114851729Y-80828234D01*
X114756491Y-80780615D01*
X115185062Y-80447281D02*
X115089824Y-80494900D01*
X114899348Y-80494900D01*
X114804110Y-80447281D01*
X114756491Y-80399662D01*
X114708872Y-80304424D01*
X114708872Y-80018710D01*
X114756491Y-79923472D01*
X114804110Y-79875853D01*
X114899348Y-79828234D01*
X115089824Y-79828234D01*
X115185062Y-79875853D01*
X115661253Y-80494900D02*
X115661253Y-79828234D01*
X115661253Y-79494900D02*
X115613634Y-79542520D01*
X115661253Y-79590139D01*
X115708872Y-79542520D01*
X115661253Y-79494900D01*
X115661253Y-79590139D01*
X115994586Y-79828234D02*
X116375539Y-79828234D01*
X116137443Y-79494900D02*
X116137443Y-80352043D01*
X116185062Y-80447281D01*
X116280300Y-80494900D01*
X116375539Y-80494900D01*
X116708872Y-80494900D02*
X116708872Y-79494900D01*
X117137443Y-80494900D02*
X117137443Y-79971091D01*
X117089824Y-79875853D01*
X116994586Y-79828234D01*
X116851729Y-79828234D01*
X116756491Y-79875853D01*
X116708872Y-79923472D01*
X118042205Y-79828234D02*
X118042205Y-80494900D01*
X117613634Y-79828234D02*
X117613634Y-80352043D01*
X117661253Y-80447281D01*
X117756491Y-80494900D01*
X117899348Y-80494900D01*
X117994586Y-80447281D01*
X118042205Y-80399662D01*
X118518396Y-80494900D02*
X118518396Y-79494900D01*
X118518396Y-79875853D02*
X118613634Y-79828234D01*
X118804110Y-79828234D01*
X118899348Y-79875853D01*
X118946967Y-79923472D01*
X118994586Y-80018710D01*
X118994586Y-80304424D01*
X118946967Y-80399662D01*
X118899348Y-80447281D01*
X118804110Y-80494900D01*
X118613634Y-80494900D01*
X118518396Y-80447281D01*
X119423158Y-80399662D02*
X119470777Y-80447281D01*
X119423158Y-80494900D01*
X119375539Y-80447281D01*
X119423158Y-80399662D01*
X119423158Y-80494900D01*
X120327920Y-80447281D02*
X120232681Y-80494900D01*
X120042205Y-80494900D01*
X119946967Y-80447281D01*
X119899348Y-80399662D01*
X119851729Y-80304424D01*
X119851729Y-80018710D01*
X119899348Y-79923472D01*
X119946967Y-79875853D01*
X120042205Y-79828234D01*
X120232681Y-79828234D01*
X120327920Y-79875853D01*
X120899348Y-80494900D02*
X120804110Y-80447281D01*
X120756491Y-80399662D01*
X120708872Y-80304424D01*
X120708872Y-80018710D01*
X120756491Y-79923472D01*
X120804110Y-79875853D01*
X120899348Y-79828234D01*
X121042205Y-79828234D01*
X121137443Y-79875853D01*
X121185062Y-79923472D01*
X121232681Y-80018710D01*
X121232681Y-80304424D01*
X121185062Y-80399662D01*
X121137443Y-80447281D01*
X121042205Y-80494900D01*
X120899348Y-80494900D01*
X121661253Y-80494900D02*
X121661253Y-79828234D01*
X121661253Y-79923472D02*
X121708872Y-79875853D01*
X121804110Y-79828234D01*
X121946967Y-79828234D01*
X122042205Y-79875853D01*
X122089824Y-79971091D01*
X122089824Y-80494900D01*
X122089824Y-79971091D02*
X122137443Y-79875853D01*
X122232681Y-79828234D01*
X122375539Y-79828234D01*
X122470777Y-79875853D01*
X122518396Y-79971091D01*
X122518396Y-80494900D01*
X123708872Y-79447281D02*
X122851729Y-80732996D01*
X123899348Y-79828234D02*
X124280300Y-79828234D01*
X124042205Y-79494900D02*
X124042205Y-80352043D01*
X124089824Y-80447281D01*
X124185062Y-80494900D01*
X124280300Y-80494900D01*
X124613634Y-79828234D02*
X124613634Y-80685377D01*
X124566015Y-80780615D01*
X124470777Y-80828234D01*
X124423158Y-80828234D01*
X124613634Y-79494900D02*
X124566015Y-79542520D01*
X124613634Y-79590139D01*
X124661253Y-79542520D01*
X124613634Y-79494900D01*
X124613634Y-79590139D01*
X125089824Y-80494900D02*
X125089824Y-79494900D01*
X125518396Y-80494900D02*
X125518396Y-79971091D01*
X125470777Y-79875853D01*
X125375539Y-79828234D01*
X125232681Y-79828234D01*
X125137443Y-79875853D01*
X125089824Y-79923472D01*
X126137443Y-80494900D02*
X126042205Y-80447281D01*
X125994586Y-80399662D01*
X125946967Y-80304424D01*
X125946967Y-80018710D01*
X125994586Y-79923472D01*
X126042205Y-79875853D01*
X126137443Y-79828234D01*
X126280300Y-79828234D01*
X126375539Y-79875853D01*
X126423158Y-79923472D01*
X126470777Y-80018710D01*
X126470777Y-80304424D01*
X126423158Y-80399662D01*
X126375539Y-80447281D01*
X126280300Y-80494900D01*
X126137443Y-80494900D01*
X126804110Y-79828234D02*
X126994586Y-80494900D01*
X127185062Y-80018710D01*
X127375539Y-80494900D01*
X127566015Y-79828234D01*
X127899348Y-80447281D02*
X127994586Y-80494900D01*
X128185062Y-80494900D01*
X128280300Y-80447281D01*
X128327919Y-80352043D01*
X128327919Y-80304424D01*
X128280300Y-80209186D01*
X128185062Y-80161567D01*
X128042205Y-80161567D01*
X127946967Y-80113948D01*
X127899348Y-80018710D01*
X127899348Y-79971091D01*
X127946967Y-79875853D01*
X128042205Y-79828234D01*
X128185062Y-79828234D01*
X128280300Y-79875853D01*
X129137443Y-80447281D02*
X129042205Y-80494900D01*
X128851729Y-80494900D01*
X128756491Y-80447281D01*
X128708872Y-80352043D01*
X128708872Y-79971091D01*
X128756491Y-79875853D01*
X128851729Y-79828234D01*
X129042205Y-79828234D01*
X129137443Y-79875853D01*
X129185062Y-79971091D01*
X129185062Y-80066329D01*
X128708872Y-80161567D01*
X130327919Y-79447281D02*
X129470777Y-80732996D01*
X130613634Y-80447281D02*
X130708872Y-80494900D01*
X130899348Y-80494900D01*
X130994586Y-80447281D01*
X131042205Y-80352043D01*
X131042205Y-80304424D01*
X130994586Y-80209186D01*
X130899348Y-80161567D01*
X130756491Y-80161567D01*
X130661253Y-80113948D01*
X130613634Y-80018710D01*
X130613634Y-79971091D01*
X130661253Y-79875853D01*
X130756491Y-79828234D01*
X130899348Y-79828234D01*
X130994586Y-79875853D01*
X131899348Y-80494900D02*
X131899348Y-79971091D01*
X131851729Y-79875853D01*
X131756491Y-79828234D01*
X131566015Y-79828234D01*
X131470777Y-79875853D01*
X131899348Y-80447281D02*
X131804110Y-80494900D01*
X131566015Y-80494900D01*
X131470777Y-80447281D01*
X131423158Y-80352043D01*
X131423158Y-80256805D01*
X131470777Y-80161567D01*
X131566015Y-80113948D01*
X131804110Y-80113948D01*
X131899348Y-80066329D01*
X132375539Y-79828234D02*
X132375539Y-80494900D01*
X132375539Y-79923472D02*
X132423158Y-79875853D01*
X132518396Y-79828234D01*
X132661253Y-79828234D01*
X132756491Y-79875853D01*
X132804110Y-79971091D01*
X132804110Y-80494900D01*
X133708872Y-80494900D02*
X133708872Y-79494900D01*
X133708872Y-80447281D02*
X133613634Y-80494900D01*
X133423158Y-80494900D01*
X133327919Y-80447281D01*
X133280300Y-80399662D01*
X133232681Y-80304424D01*
X133232681Y-80018710D01*
X133280300Y-79923472D01*
X133327919Y-79875853D01*
X133423158Y-79828234D01*
X133613634Y-79828234D01*
X133708872Y-79875853D01*
X133946967Y-80590139D02*
X134708872Y-80590139D01*
X135375539Y-80494900D02*
X135375539Y-79494900D01*
X135375539Y-80447281D02*
X135280300Y-80494900D01*
X135089824Y-80494900D01*
X134994586Y-80447281D01*
X134946967Y-80399662D01*
X134899348Y-80304424D01*
X134899348Y-80018710D01*
X134946967Y-79923472D01*
X134994586Y-79875853D01*
X135089824Y-79828234D01*
X135280300Y-79828234D01*
X135375539Y-79875853D01*
X135851729Y-80494900D02*
X135851729Y-79828234D01*
X135851729Y-80018710D02*
X135899348Y-79923472D01*
X135946967Y-79875853D01*
X136042205Y-79828234D01*
X136137443Y-79828234D01*
X136899348Y-80494900D02*
X136899348Y-79971091D01*
X136851729Y-79875853D01*
X136756491Y-79828234D01*
X136566015Y-79828234D01*
X136470777Y-79875853D01*
X136899348Y-80447281D02*
X136804110Y-80494900D01*
X136566015Y-80494900D01*
X136470777Y-80447281D01*
X136423158Y-80352043D01*
X136423158Y-80256805D01*
X136470777Y-80161567D01*
X136566015Y-80113948D01*
X136804110Y-80113948D01*
X136899348Y-80066329D01*
X137280300Y-79828234D02*
X137470777Y-80494900D01*
X137661253Y-80018710D01*
X137851729Y-80494900D01*
X138042205Y-79828234D01*
X138423158Y-80494900D02*
X138423158Y-79828234D01*
X138423158Y-79494900D02*
X138375539Y-79542520D01*
X138423158Y-79590139D01*
X138470777Y-79542520D01*
X138423158Y-79494900D01*
X138423158Y-79590139D01*
X138899348Y-79828234D02*
X138899348Y-80494900D01*
X138899348Y-79923472D02*
X138946967Y-79875853D01*
X139042205Y-79828234D01*
X139185062Y-79828234D01*
X139280300Y-79875853D01*
X139327920Y-79971091D01*
X139327920Y-80494900D01*
X140232681Y-79828234D02*
X140232681Y-80637758D01*
X140185062Y-80732996D01*
X140137443Y-80780615D01*
X140042205Y-80828234D01*
X139899348Y-80828234D01*
X139804110Y-80780615D01*
X140232681Y-80447281D02*
X140137443Y-80494900D01*
X139946967Y-80494900D01*
X139851729Y-80447281D01*
X139804110Y-80399662D01*
X139756491Y-80304424D01*
X139756491Y-80018710D01*
X139804110Y-79923472D01*
X139851729Y-79875853D01*
X139946967Y-79828234D01*
X140137443Y-79828234D01*
X140232681Y-79875853D01*
X98108499Y-104798240D02*
X98013260Y-104750620D01*
X97870403Y-104750620D01*
X97727546Y-104798240D01*
X97632308Y-104893478D01*
X97584689Y-104988716D01*
X97537070Y-105179192D01*
X97537070Y-105322049D01*
X97584689Y-105512525D01*
X97632308Y-105607763D01*
X97727546Y-105703001D01*
X97870403Y-105750620D01*
X97965641Y-105750620D01*
X98108499Y-105703001D01*
X98156118Y-105655382D01*
X98156118Y-105322049D01*
X97965641Y-105322049D01*
X98584689Y-105750620D02*
X98584689Y-104750620D01*
X99156118Y-105750620D01*
X99156118Y-104750620D01*
X99632308Y-105750620D02*
X99632308Y-104750620D01*
X99870403Y-104750620D01*
X100013260Y-104798240D01*
X100108499Y-104893478D01*
X100156118Y-104988716D01*
X100203737Y-105179192D01*
X100203737Y-105322049D01*
X100156118Y-105512525D01*
X100108499Y-105607763D01*
X100013260Y-105703001D01*
X99870403Y-105750620D01*
X99632308Y-105750620D01*
X101394213Y-105750620D02*
X101394213Y-104750620D01*
X101870403Y-105083954D02*
X101870403Y-105750620D01*
X101870403Y-105179192D02*
X101918022Y-105131573D01*
X102013260Y-105083954D01*
X102156118Y-105083954D01*
X102251356Y-105131573D01*
X102298975Y-105226811D01*
X102298975Y-105750620D01*
X102775165Y-105083954D02*
X102775165Y-106083954D01*
X102775165Y-105131573D02*
X102870403Y-105083954D01*
X103060880Y-105083954D01*
X103156118Y-105131573D01*
X103203737Y-105179192D01*
X103251356Y-105274430D01*
X103251356Y-105560144D01*
X103203737Y-105655382D01*
X103156118Y-105703001D01*
X103060880Y-105750620D01*
X102870403Y-105750620D01*
X102775165Y-105703001D01*
X104108499Y-105083954D02*
X104108499Y-105750620D01*
X103679927Y-105083954D02*
X103679927Y-105607763D01*
X103727546Y-105703001D01*
X103822784Y-105750620D01*
X103965641Y-105750620D01*
X104060880Y-105703001D01*
X104108499Y-105655382D01*
X104441832Y-105083954D02*
X104822784Y-105083954D01*
X104584689Y-104750620D02*
X104584689Y-105607763D01*
X104632308Y-105703001D01*
X104727546Y-105750620D01*
X104822784Y-105750620D01*
X105679927Y-105750620D02*
X105108499Y-105750620D01*
X105394213Y-105750620D02*
X105394213Y-104750620D01*
X105298975Y-104893478D01*
X105203737Y-104988716D01*
X105108499Y-105036335D01*
X106775165Y-104750620D02*
X107394213Y-104750620D01*
X107060880Y-105131573D01*
X107203737Y-105131573D01*
X107298975Y-105179192D01*
X107346594Y-105226811D01*
X107394213Y-105322049D01*
X107394213Y-105560144D01*
X107346594Y-105655382D01*
X107298975Y-105703001D01*
X107203737Y-105750620D01*
X106918022Y-105750620D01*
X106822784Y-105703001D01*
X106775165Y-105655382D01*
X107822784Y-105655382D02*
X107870403Y-105703001D01*
X107822784Y-105750620D01*
X107775165Y-105703001D01*
X107822784Y-105655382D01*
X107822784Y-105750620D01*
X108203737Y-104750620D02*
X108822784Y-104750620D01*
X108489451Y-105131573D01*
X108632308Y-105131573D01*
X108727546Y-105179192D01*
X108775165Y-105226811D01*
X108822784Y-105322049D01*
X108822784Y-105560144D01*
X108775165Y-105655382D01*
X108727546Y-105703001D01*
X108632308Y-105750620D01*
X108346594Y-105750620D01*
X108251356Y-105703001D01*
X108203737Y-105655382D01*
X109156118Y-105083954D02*
X109394213Y-105750620D01*
X109632308Y-105083954D01*
X98133899Y-116639720D02*
X98038660Y-116592100D01*
X97895803Y-116592100D01*
X97752946Y-116639720D01*
X97657708Y-116734958D01*
X97610089Y-116830196D01*
X97562470Y-117020672D01*
X97562470Y-117163529D01*
X97610089Y-117354005D01*
X97657708Y-117449243D01*
X97752946Y-117544481D01*
X97895803Y-117592100D01*
X97991041Y-117592100D01*
X98133899Y-117544481D01*
X98181518Y-117496862D01*
X98181518Y-117163529D01*
X97991041Y-117163529D01*
X98610089Y-117592100D02*
X98610089Y-116592100D01*
X99181518Y-117592100D01*
X99181518Y-116592100D01*
X99657708Y-117592100D02*
X99657708Y-116592100D01*
X99895803Y-116592100D01*
X100038660Y-116639720D01*
X100133899Y-116734958D01*
X100181518Y-116830196D01*
X100229137Y-117020672D01*
X100229137Y-117163529D01*
X100181518Y-117354005D01*
X100133899Y-117449243D01*
X100038660Y-117544481D01*
X99895803Y-117592100D01*
X99657708Y-117592100D01*
X101419613Y-117592100D02*
X101419613Y-116592100D01*
X101895803Y-116925434D02*
X101895803Y-117592100D01*
X101895803Y-117020672D02*
X101943422Y-116973053D01*
X102038660Y-116925434D01*
X102181518Y-116925434D01*
X102276756Y-116973053D01*
X102324375Y-117068291D01*
X102324375Y-117592100D01*
X102800565Y-116925434D02*
X102800565Y-117925434D01*
X102800565Y-116973053D02*
X102895803Y-116925434D01*
X103086280Y-116925434D01*
X103181518Y-116973053D01*
X103229137Y-117020672D01*
X103276756Y-117115910D01*
X103276756Y-117401624D01*
X103229137Y-117496862D01*
X103181518Y-117544481D01*
X103086280Y-117592100D01*
X102895803Y-117592100D01*
X102800565Y-117544481D01*
X104133899Y-116925434D02*
X104133899Y-117592100D01*
X103705327Y-116925434D02*
X103705327Y-117449243D01*
X103752946Y-117544481D01*
X103848184Y-117592100D01*
X103991041Y-117592100D01*
X104086280Y-117544481D01*
X104133899Y-117496862D01*
X104467232Y-116925434D02*
X104848184Y-116925434D01*
X104610089Y-116592100D02*
X104610089Y-117449243D01*
X104657708Y-117544481D01*
X104752946Y-117592100D01*
X104848184Y-117592100D01*
X105133899Y-116687339D02*
X105181518Y-116639720D01*
X105276756Y-116592100D01*
X105514851Y-116592100D01*
X105610089Y-116639720D01*
X105657708Y-116687339D01*
X105705327Y-116782577D01*
X105705327Y-116877815D01*
X105657708Y-117020672D01*
X105086280Y-117592100D01*
X105705327Y-117592100D01*
X106800565Y-116592100D02*
X107419613Y-116592100D01*
X107086280Y-116973053D01*
X107229137Y-116973053D01*
X107324375Y-117020672D01*
X107371994Y-117068291D01*
X107419613Y-117163529D01*
X107419613Y-117401624D01*
X107371994Y-117496862D01*
X107324375Y-117544481D01*
X107229137Y-117592100D01*
X106943422Y-117592100D01*
X106848184Y-117544481D01*
X106800565Y-117496862D01*
X107848184Y-117496862D02*
X107895803Y-117544481D01*
X107848184Y-117592100D01*
X107800565Y-117544481D01*
X107848184Y-117496862D01*
X107848184Y-117592100D01*
X108229137Y-116592100D02*
X108848184Y-116592100D01*
X108514851Y-116973053D01*
X108657708Y-116973053D01*
X108752946Y-117020672D01*
X108800565Y-117068291D01*
X108848184Y-117163529D01*
X108848184Y-117401624D01*
X108800565Y-117496862D01*
X108752946Y-117544481D01*
X108657708Y-117592100D01*
X108371994Y-117592100D01*
X108276756Y-117544481D01*
X108229137Y-117496862D01*
X109181518Y-116925434D02*
X109419613Y-117592100D01*
X109657708Y-116925434D01*
X149344760Y-118133689D02*
X149297140Y-118228927D01*
X149297140Y-118371784D01*
X149344760Y-118514641D01*
X149439998Y-118609880D01*
X149535236Y-118657499D01*
X149725712Y-118705118D01*
X149868569Y-118705118D01*
X150059045Y-118657499D01*
X150154283Y-118609880D01*
X150249521Y-118514641D01*
X150297140Y-118371784D01*
X150297140Y-118276546D01*
X150249521Y-118133689D01*
X150201902Y-118086070D01*
X149868569Y-118086070D01*
X149868569Y-118276546D01*
X150297140Y-117657499D02*
X149297140Y-117657499D01*
X150297140Y-117086070D01*
X149297140Y-117086070D01*
X150297140Y-116609880D02*
X149297140Y-116609880D01*
X149297140Y-116371784D01*
X149344760Y-116228927D01*
X149439998Y-116133689D01*
X149535236Y-116086070D01*
X149725712Y-116038451D01*
X149868569Y-116038451D01*
X150059045Y-116086070D01*
X150154283Y-116133689D01*
X150249521Y-116228927D01*
X150297140Y-116371784D01*
X150297140Y-116609880D01*
X150297140Y-114324165D02*
X150297140Y-114895594D01*
X150297140Y-114609880D02*
X149297140Y-114609880D01*
X149439998Y-114705118D01*
X149535236Y-114800356D01*
X149582855Y-114895594D01*
X149392379Y-113943213D02*
X149344760Y-113895594D01*
X149297140Y-113800356D01*
X149297140Y-113562260D01*
X149344760Y-113467022D01*
X149392379Y-113419403D01*
X149487617Y-113371784D01*
X149582855Y-113371784D01*
X149725712Y-113419403D01*
X150297140Y-113990832D01*
X150297140Y-113371784D01*
X149297140Y-113086070D02*
X150297140Y-112752737D01*
X149297140Y-112419403D01*
X150297140Y-112086070D02*
X149297140Y-112086070D01*
X149297140Y-111847975D01*
X149344760Y-111705118D01*
X149439998Y-111609880D01*
X149535236Y-111562260D01*
X149725712Y-111514641D01*
X149868569Y-111514641D01*
X150059045Y-111562260D01*
X150154283Y-111609880D01*
X150249521Y-111705118D01*
X150297140Y-111847975D01*
X150297140Y-112086070D01*
X150201902Y-110514641D02*
X150249521Y-110562260D01*
X150297140Y-110705118D01*
X150297140Y-110800356D01*
X150249521Y-110943213D01*
X150154283Y-111038451D01*
X150059045Y-111086070D01*
X149868569Y-111133689D01*
X149725712Y-111133689D01*
X149535236Y-111086070D01*
X149439998Y-111038451D01*
X149344760Y-110943213D01*
X149297140Y-110800356D01*
X149297140Y-110705118D01*
X149344760Y-110562260D01*
X149392379Y-110514641D01*
X137215578Y-99944940D02*
X137787006Y-99944940D01*
X137501292Y-100944940D02*
X137501292Y-99944940D01*
X138025101Y-99944940D02*
X138691768Y-100944940D01*
X138691768Y-99944940D02*
X138025101Y-100944940D01*
X140406054Y-100944940D02*
X140072720Y-100468750D01*
X139834625Y-100944940D02*
X139834625Y-99944940D01*
X140215578Y-99944940D01*
X140310816Y-99992560D01*
X140358435Y-100040179D01*
X140406054Y-100135417D01*
X140406054Y-100278274D01*
X140358435Y-100373512D01*
X140310816Y-100421131D01*
X140215578Y-100468750D01*
X139834625Y-100468750D01*
X140739387Y-99944940D02*
X141406054Y-100944940D01*
X141406054Y-99944940D02*
X140739387Y-100944940D01*
X143072720Y-99992560D02*
X142977482Y-99944940D01*
X142834625Y-99944940D01*
X142691768Y-99992560D01*
X142596530Y-100087798D01*
X142548911Y-100183036D01*
X142501292Y-100373512D01*
X142501292Y-100516369D01*
X142548911Y-100706845D01*
X142596530Y-100802083D01*
X142691768Y-100897321D01*
X142834625Y-100944940D01*
X142929863Y-100944940D01*
X143072720Y-100897321D01*
X143120340Y-100849702D01*
X143120340Y-100516369D01*
X142929863Y-100516369D01*
X143548911Y-100944940D02*
X143548911Y-99944940D01*
X144120340Y-100944940D01*
X144120340Y-99944940D01*
X144596530Y-100944940D02*
X144596530Y-99944940D01*
X144834625Y-99944940D01*
X144977482Y-99992560D01*
X145072720Y-100087798D01*
X145120340Y-100183036D01*
X145167959Y-100373512D01*
X145167959Y-100516369D01*
X145120340Y-100706845D01*
X145072720Y-100802083D01*
X144977482Y-100897321D01*
X144834625Y-100944940D01*
X144596530Y-100944940D01*
X100128571Y-89088095D02*
X100128571Y-88754761D01*
X100652380Y-88611904D02*
X100652380Y-89088095D01*
X99652380Y-89088095D01*
X99652380Y-88611904D01*
X100652380Y-88183333D02*
X99652380Y-88183333D01*
X100652380Y-87611904D01*
X99652380Y-87611904D01*
X148302380Y-89550000D02*
X147302380Y-89550000D01*
X147302380Y-88883333D02*
X147302380Y-88692857D01*
X147350000Y-88597619D01*
X147445238Y-88502380D01*
X147635714Y-88454761D01*
X147969047Y-88454761D01*
X148159523Y-88502380D01*
X148254761Y-88597619D01*
X148302380Y-88692857D01*
X148302380Y-88883333D01*
X148254761Y-88978571D01*
X148159523Y-89073809D01*
X147969047Y-89121428D01*
X147635714Y-89121428D01*
X147445238Y-89073809D01*
X147350000Y-88978571D01*
X147302380Y-88883333D01*
X147302380Y-87835714D02*
X147302380Y-87740476D01*
X147350000Y-87645238D01*
X147397619Y-87597619D01*
X147492857Y-87550000D01*
X147683333Y-87502380D01*
X147921428Y-87502380D01*
X148111904Y-87550000D01*
X148207142Y-87597619D01*
X148254761Y-87645238D01*
X148302380Y-87740476D01*
X148302380Y-87835714D01*
X148254761Y-87930952D01*
X148207142Y-87978571D01*
X148111904Y-88026190D01*
X147921428Y-88073809D01*
X147683333Y-88073809D01*
X147492857Y-88026190D01*
X147397619Y-87978571D01*
X147350000Y-87930952D01*
X147302380Y-87835714D01*
D11*
X99229171Y-146191691D02*
X100300600Y-146191691D01*
X100514885Y-146263120D01*
X100657742Y-146405977D01*
X100729171Y-146620262D01*
X100729171Y-146763120D01*
X100729171Y-144763120D02*
X100729171Y-145477405D01*
X99229171Y-145477405D01*
X100586314Y-143405977D02*
X100657742Y-143477405D01*
X100729171Y-143691691D01*
X100729171Y-143834548D01*
X100657742Y-144048834D01*
X100514885Y-144191691D01*
X100372028Y-144263120D01*
X100086314Y-144334548D01*
X99872028Y-144334548D01*
X99586314Y-144263120D01*
X99443457Y-144191691D01*
X99300600Y-144048834D01*
X99229171Y-143834548D01*
X99229171Y-143691691D01*
X99300600Y-143477405D01*
X99372028Y-143405977D01*
X99229171Y-142334548D02*
X100300600Y-142334548D01*
X100514885Y-142405977D01*
X100657742Y-142548834D01*
X100729171Y-142763120D01*
X100729171Y-142905977D01*
X100729171Y-140905977D02*
X100729171Y-141620262D01*
X99229171Y-141620262D01*
X100586314Y-139548834D02*
X100657742Y-139620262D01*
X100729171Y-139834548D01*
X100729171Y-139977405D01*
X100657742Y-140191691D01*
X100514885Y-140334548D01*
X100372028Y-140405977D01*
X100086314Y-140477405D01*
X99872028Y-140477405D01*
X99586314Y-140405977D01*
X99443457Y-140334548D01*
X99300600Y-140191691D01*
X99229171Y-139977405D01*
X99229171Y-139834548D01*
X99300600Y-139620262D01*
X99372028Y-139548834D01*
X99229171Y-138477405D02*
X100300600Y-138477405D01*
X100514885Y-138548834D01*
X100657742Y-138691691D01*
X100729171Y-138905977D01*
X100729171Y-139048834D01*
X100729171Y-137048834D02*
X100729171Y-137763120D01*
X99229171Y-137763120D01*
X100586314Y-135691691D02*
X100657742Y-135763120D01*
X100729171Y-135977405D01*
X100729171Y-136120262D01*
X100657742Y-136334548D01*
X100514885Y-136477405D01*
X100372028Y-136548834D01*
X100086314Y-136620262D01*
X99872028Y-136620262D01*
X99586314Y-136548834D01*
X99443457Y-136477405D01*
X99300600Y-136334548D01*
X99229171Y-136120262D01*
X99229171Y-135977405D01*
X99300600Y-135763120D01*
X99372028Y-135691691D01*
X99229171Y-134620262D02*
X100300600Y-134620262D01*
X100514885Y-134691691D01*
X100657742Y-134834548D01*
X100729171Y-135048834D01*
X100729171Y-135191691D01*
X100729171Y-133191691D02*
X100729171Y-133905977D01*
X99229171Y-133905977D01*
X100586314Y-131834548D02*
X100657742Y-131905977D01*
X100729171Y-132120262D01*
X100729171Y-132263120D01*
X100657742Y-132477405D01*
X100514885Y-132620262D01*
X100372028Y-132691691D01*
X100086314Y-132763120D01*
X99872028Y-132763120D01*
X99586314Y-132691691D01*
X99443457Y-132620262D01*
X99300600Y-132477405D01*
X99229171Y-132263120D01*
X99229171Y-132120262D01*
X99300600Y-131905977D01*
X99372028Y-131834548D01*
D12*
G36*
X142037776Y-146760122D02*
G01*
X142038355Y-146654388D01*
X142039922Y-146577868D01*
X142042972Y-146525628D01*
X142047996Y-146492737D01*
X142055489Y-146474263D01*
X142065944Y-146465273D01*
X142079853Y-146460837D01*
X142081654Y-146460406D01*
X142114145Y-146453667D01*
X142178252Y-146441192D01*
X142267151Y-146424281D01*
X142374019Y-146404229D01*
X142492033Y-146382336D01*
X142496178Y-146381571D01*
X142611831Y-146359641D01*
X142714014Y-146339123D01*
X142796598Y-146321341D01*
X142853456Y-146307619D01*
X142878458Y-146299282D01*
X142878901Y-146298884D01*
X142891110Y-146274323D01*
X142911456Y-146223685D01*
X142935545Y-146157905D01*
X142935674Y-146157539D01*
X142966818Y-146074683D01*
X143006491Y-145977000D01*
X143046381Y-145884923D01*
X143048353Y-145880566D01*
X143116420Y-145730593D01*
X142889639Y-145398502D01*
X142820504Y-145296626D01*
X142758697Y-145204343D01*
X142707733Y-145126997D01*
X142671127Y-145069936D01*
X142652394Y-145038505D01*
X142651004Y-145035521D01*
X142657190Y-145012679D01*
X142687035Y-144970018D01*
X142741947Y-144905872D01*
X142823334Y-144818579D01*
X142909922Y-144729465D01*
X142995247Y-144643559D01*
X143073108Y-144566673D01*
X143138697Y-144503436D01*
X143187205Y-144458477D01*
X143213825Y-144436424D01*
X143215195Y-144435604D01*
X143233463Y-144433166D01*
X143263295Y-144442350D01*
X143308721Y-144465426D01*
X143373770Y-144504663D01*
X143462470Y-144562330D01*
X143576657Y-144639205D01*
X143677162Y-144707430D01*
X143767303Y-144768418D01*
X143841849Y-144818644D01*
X143895565Y-144854584D01*
X143923218Y-144872713D01*
X143925095Y-144873854D01*
X143951590Y-144871641D01*
X144003086Y-144854862D01*
X144069851Y-144826858D01*
X144091172Y-144816878D01*
X144186159Y-144773328D01*
X144293937Y-144726866D01*
X144387192Y-144689123D01*
X144456406Y-144661927D01*
X144509006Y-144640325D01*
X144536497Y-144627842D01*
X144538616Y-144626291D01*
X144542124Y-144603332D01*
X144551738Y-144549214D01*
X144566089Y-144471132D01*
X144583807Y-144376281D01*
X144603525Y-144271857D01*
X144623874Y-144165056D01*
X144643486Y-144063074D01*
X144660991Y-143973106D01*
X144675022Y-143902347D01*
X144684209Y-143857994D01*
X144686807Y-143847115D01*
X144693218Y-143835878D01*
X144707697Y-143827395D01*
X144735133Y-143821286D01*
X144780411Y-143817168D01*
X144848420Y-143814659D01*
X144944047Y-143813379D01*
X145072180Y-143812946D01*
X145124701Y-143812923D01*
X145551845Y-143812923D01*
X145572091Y-143915500D01*
X145583070Y-143972569D01*
X145599095Y-144057731D01*
X145618233Y-144160628D01*
X145638551Y-144270904D01*
X145644132Y-144301385D01*
X145663917Y-144403145D01*
X145683373Y-144491795D01*
X145700697Y-144559892D01*
X145714088Y-144599996D01*
X145718079Y-144606677D01*
X145746342Y-144623081D01*
X145801109Y-144646601D01*
X145871588Y-144672684D01*
X145886769Y-144677858D01*
X145980896Y-144712044D01*
X146087101Y-144754477D01*
X146182473Y-144796003D01*
X146182916Y-144796208D01*
X146332525Y-144865360D01*
X147001617Y-144410488D01*
X147294116Y-144702500D01*
X147381170Y-144790820D01*
X147457909Y-144871375D01*
X147520237Y-144939640D01*
X147564056Y-144991092D01*
X147585270Y-145021206D01*
X147586616Y-145025526D01*
X147576016Y-145050889D01*
X147546547Y-145102642D01*
X147501705Y-145175132D01*
X147444984Y-145262706D01*
X147381462Y-145357388D01*
X147316668Y-145453484D01*
X147260287Y-145539163D01*
X147215788Y-145608984D01*
X147186639Y-145657506D01*
X147176308Y-145679218D01*
X147185050Y-145705707D01*
X147208087Y-145755938D01*
X147240631Y-145819549D01*
X147244249Y-145826292D01*
X147287210Y-145911954D01*
X147308279Y-145970694D01*
X147308503Y-146007228D01*
X147288928Y-146026269D01*
X147288654Y-146026380D01*
X147265472Y-146035898D01*
X147210441Y-146058597D01*
X147127822Y-146092718D01*
X147021872Y-146136500D01*
X146896852Y-146188184D01*
X146757020Y-146246008D01*
X146621637Y-146302009D01*
X146472234Y-146363553D01*
X146333832Y-146420061D01*
X146210673Y-146469839D01*
X146107002Y-146511194D01*
X146027059Y-146542432D01*
X145975088Y-146561859D01*
X145955692Y-146567846D01*
X145933443Y-146552832D01*
X145897982Y-146513561D01*
X145858887Y-146461193D01*
X145735245Y-146312059D01*
X145593522Y-146195489D01*
X145436704Y-146112882D01*
X145267775Y-146065634D01*
X145089722Y-146055143D01*
X145007539Y-146062769D01*
X144837031Y-146104318D01*
X144686459Y-146175877D01*
X144557309Y-146273005D01*
X144451064Y-146391266D01*
X144369210Y-146526220D01*
X144313232Y-146673429D01*
X144284615Y-146828456D01*
X144284844Y-146986861D01*
X144315405Y-147144206D01*
X144377782Y-147296054D01*
X144473460Y-147437965D01*
X144527572Y-147497197D01*
X144666520Y-147610797D01*
X144818361Y-147689894D01*
X144978667Y-147735014D01*
X145143012Y-147746684D01*
X145306971Y-147725431D01*
X145466118Y-147671780D01*
X145616025Y-147586260D01*
X145752267Y-147469395D01*
X145858887Y-147338807D01*
X145899642Y-147284412D01*
X145934718Y-147245986D01*
X145955726Y-147232154D01*
X145978635Y-147239397D01*
X146033365Y-147259995D01*
X146115672Y-147292254D01*
X146221315Y-147334479D01*
X146346050Y-147384977D01*
X146485636Y-147442052D01*
X146621670Y-147498146D01*
X146771201Y-147560033D01*
X146909767Y-147617356D01*
X147033107Y-147668356D01*
X147136964Y-147711273D01*
X147217080Y-147744347D01*
X147269195Y-147765819D01*
X147288654Y-147773775D01*
X147308423Y-147792571D01*
X147308365Y-147828926D01*
X147287441Y-147887521D01*
X147244613Y-147973032D01*
X147244249Y-147973708D01*
X147211012Y-148038093D01*
X147186802Y-148090139D01*
X147176404Y-148119488D01*
X147176308Y-148120783D01*
X147186855Y-148142876D01*
X147216184Y-148191652D01*
X147260827Y-148261669D01*
X147317314Y-148347486D01*
X147381462Y-148442612D01*
X147446411Y-148539460D01*
X147502896Y-148626747D01*
X147547421Y-148698819D01*
X147576490Y-148750023D01*
X147586616Y-148774474D01*
X147573307Y-148796990D01*
X147536112Y-148842258D01*
X147479128Y-148905756D01*
X147406449Y-148982961D01*
X147322171Y-149069349D01*
X147294016Y-149097601D01*
X147001416Y-149389713D01*
X146675104Y-149167369D01*
X146574897Y-149099798D01*
X146484963Y-149040493D01*
X146410510Y-148992783D01*
X146356751Y-148959993D01*
X146328894Y-148945452D01*
X146326912Y-148945026D01*
X146300655Y-148952692D01*
X146247837Y-148973311D01*
X146177310Y-149003315D01*
X146130093Y-149024375D01*
X146039694Y-149063752D01*
X145948366Y-149100835D01*
X145871200Y-149129585D01*
X145847692Y-149137395D01*
X145784916Y-149159583D01*
X145736411Y-149181273D01*
X145718079Y-149193187D01*
X145706859Y-149219477D01*
X145690954Y-149276858D01*
X145672167Y-149357882D01*
X145652299Y-149455105D01*
X145644132Y-149498615D01*
X145623829Y-149609104D01*
X145604170Y-149715084D01*
X145587088Y-149806199D01*
X145574518Y-149872092D01*
X145572091Y-149884500D01*
X145551845Y-149987077D01*
X145124701Y-149987077D01*
X144984246Y-149986847D01*
X144877979Y-149985901D01*
X144801013Y-149983859D01*
X144748460Y-149980338D01*
X144715433Y-149974957D01*
X144697045Y-149967334D01*
X144688408Y-149957088D01*
X144686807Y-149952885D01*
X144681127Y-149927530D01*
X144669795Y-149871516D01*
X144654179Y-149792036D01*
X144635647Y-149696288D01*
X144615569Y-149591467D01*
X144595312Y-149484768D01*
X144576246Y-149383387D01*
X144559739Y-149294521D01*
X144547159Y-149225363D01*
X144539875Y-149183111D01*
X144538616Y-149173710D01*
X144521763Y-149165193D01*
X144476870Y-149146340D01*
X144412430Y-149120676D01*
X144387192Y-149110877D01*
X144289686Y-149071352D01*
X144181959Y-149024808D01*
X144091172Y-148983123D01*
X144021753Y-148952450D01*
X143964710Y-148932044D01*
X143929777Y-148925232D01*
X143925095Y-148926318D01*
X143902991Y-148940715D01*
X143853831Y-148973588D01*
X143782848Y-149021410D01*
X143695278Y-149080652D01*
X143596357Y-149147785D01*
X143576830Y-149161059D01*
X143461140Y-149238954D01*
X143373044Y-149296213D01*
X143308486Y-149335119D01*
X143263411Y-149357956D01*
X143233763Y-149367006D01*
X143215485Y-149364552D01*
X143215369Y-149364489D01*
X143191361Y-149345173D01*
X143144947Y-149302449D01*
X143080937Y-149240949D01*
X143004145Y-149165302D01*
X142919382Y-149080139D01*
X142909922Y-149070535D01*
X142805989Y-148963210D01*
X142729675Y-148880385D01*
X142679571Y-148820395D01*
X142654270Y-148781577D01*
X142651004Y-148764480D01*
X142665250Y-148739527D01*
X142698156Y-148687745D01*
X142746208Y-148614480D01*
X142805890Y-148525080D01*
X142873688Y-148424889D01*
X142889639Y-148401499D01*
X143116420Y-148069407D01*
X143048353Y-147919435D01*
X143008685Y-147828230D01*
X142968791Y-147730331D01*
X142936983Y-147646169D01*
X142935674Y-147642462D01*
X142911576Y-147576631D01*
X142891200Y-147525884D01*
X142878936Y-147501158D01*
X142878901Y-147501116D01*
X142856734Y-147493271D01*
X142802217Y-147479934D01*
X142721480Y-147462430D01*
X142620650Y-147442083D01*
X142505856Y-147420218D01*
X142496178Y-147418429D01*
X142377904Y-147396496D01*
X142270542Y-147376360D01*
X142180917Y-147359320D01*
X142115851Y-147346672D01*
X142082168Y-147339716D01*
X142081654Y-147339594D01*
X142067325Y-147335361D01*
X142056507Y-147327129D01*
X142048706Y-147309967D01*
X142043429Y-147278942D01*
X142040182Y-147229122D01*
X142038472Y-147155576D01*
X142037807Y-147053371D01*
X142037693Y-146917575D01*
X142037692Y-146900000D01*
X142037776Y-146760122D01*
G37*
X142037776Y-146760122D02*
X142038355Y-146654388D01*
X142039922Y-146577868D01*
X142042972Y-146525628D01*
X142047996Y-146492737D01*
X142055489Y-146474263D01*
X142065944Y-146465273D01*
X142079853Y-146460837D01*
X142081654Y-146460406D01*
X142114145Y-146453667D01*
X142178252Y-146441192D01*
X142267151Y-146424281D01*
X142374019Y-146404229D01*
X142492033Y-146382336D01*
X142496178Y-146381571D01*
X142611831Y-146359641D01*
X142714014Y-146339123D01*
X142796598Y-146321341D01*
X142853456Y-146307619D01*
X142878458Y-146299282D01*
X142878901Y-146298884D01*
X142891110Y-146274323D01*
X142911456Y-146223685D01*
X142935545Y-146157905D01*
X142935674Y-146157539D01*
X142966818Y-146074683D01*
X143006491Y-145977000D01*
X143046381Y-145884923D01*
X143048353Y-145880566D01*
X143116420Y-145730593D01*
X142889639Y-145398502D01*
X142820504Y-145296626D01*
X142758697Y-145204343D01*
X142707733Y-145126997D01*
X142671127Y-145069936D01*
X142652394Y-145038505D01*
X142651004Y-145035521D01*
X142657190Y-145012679D01*
X142687035Y-144970018D01*
X142741947Y-144905872D01*
X142823334Y-144818579D01*
X142909922Y-144729465D01*
X142995247Y-144643559D01*
X143073108Y-144566673D01*
X143138697Y-144503436D01*
X143187205Y-144458477D01*
X143213825Y-144436424D01*
X143215195Y-144435604D01*
X143233463Y-144433166D01*
X143263295Y-144442350D01*
X143308721Y-144465426D01*
X143373770Y-144504663D01*
X143462470Y-144562330D01*
X143576657Y-144639205D01*
X143677162Y-144707430D01*
X143767303Y-144768418D01*
X143841849Y-144818644D01*
X143895565Y-144854584D01*
X143923218Y-144872713D01*
X143925095Y-144873854D01*
X143951590Y-144871641D01*
X144003086Y-144854862D01*
X144069851Y-144826858D01*
X144091172Y-144816878D01*
X144186159Y-144773328D01*
X144293937Y-144726866D01*
X144387192Y-144689123D01*
X144456406Y-144661927D01*
X144509006Y-144640325D01*
X144536497Y-144627842D01*
X144538616Y-144626291D01*
X144542124Y-144603332D01*
X144551738Y-144549214D01*
X144566089Y-144471132D01*
X144583807Y-144376281D01*
X144603525Y-144271857D01*
X144623874Y-144165056D01*
X144643486Y-144063074D01*
X144660991Y-143973106D01*
X144675022Y-143902347D01*
X144684209Y-143857994D01*
X144686807Y-143847115D01*
X144693218Y-143835878D01*
X144707697Y-143827395D01*
X144735133Y-143821286D01*
X144780411Y-143817168D01*
X144848420Y-143814659D01*
X144944047Y-143813379D01*
X145072180Y-143812946D01*
X145124701Y-143812923D01*
X145551845Y-143812923D01*
X145572091Y-143915500D01*
X145583070Y-143972569D01*
X145599095Y-144057731D01*
X145618233Y-144160628D01*
X145638551Y-144270904D01*
X145644132Y-144301385D01*
X145663917Y-144403145D01*
X145683373Y-144491795D01*
X145700697Y-144559892D01*
X145714088Y-144599996D01*
X145718079Y-144606677D01*
X145746342Y-144623081D01*
X145801109Y-144646601D01*
X145871588Y-144672684D01*
X145886769Y-144677858D01*
X145980896Y-144712044D01*
X146087101Y-144754477D01*
X146182473Y-144796003D01*
X146182916Y-144796208D01*
X146332525Y-144865360D01*
X147001617Y-144410488D01*
X147294116Y-144702500D01*
X147381170Y-144790820D01*
X147457909Y-144871375D01*
X147520237Y-144939640D01*
X147564056Y-144991092D01*
X147585270Y-145021206D01*
X147586616Y-145025526D01*
X147576016Y-145050889D01*
X147546547Y-145102642D01*
X147501705Y-145175132D01*
X147444984Y-145262706D01*
X147381462Y-145357388D01*
X147316668Y-145453484D01*
X147260287Y-145539163D01*
X147215788Y-145608984D01*
X147186639Y-145657506D01*
X147176308Y-145679218D01*
X147185050Y-145705707D01*
X147208087Y-145755938D01*
X147240631Y-145819549D01*
X147244249Y-145826292D01*
X147287210Y-145911954D01*
X147308279Y-145970694D01*
X147308503Y-146007228D01*
X147288928Y-146026269D01*
X147288654Y-146026380D01*
X147265472Y-146035898D01*
X147210441Y-146058597D01*
X147127822Y-146092718D01*
X147021872Y-146136500D01*
X146896852Y-146188184D01*
X146757020Y-146246008D01*
X146621637Y-146302009D01*
X146472234Y-146363553D01*
X146333832Y-146420061D01*
X146210673Y-146469839D01*
X146107002Y-146511194D01*
X146027059Y-146542432D01*
X145975088Y-146561859D01*
X145955692Y-146567846D01*
X145933443Y-146552832D01*
X145897982Y-146513561D01*
X145858887Y-146461193D01*
X145735245Y-146312059D01*
X145593522Y-146195489D01*
X145436704Y-146112882D01*
X145267775Y-146065634D01*
X145089722Y-146055143D01*
X145007539Y-146062769D01*
X144837031Y-146104318D01*
X144686459Y-146175877D01*
X144557309Y-146273005D01*
X144451064Y-146391266D01*
X144369210Y-146526220D01*
X144313232Y-146673429D01*
X144284615Y-146828456D01*
X144284844Y-146986861D01*
X144315405Y-147144206D01*
X144377782Y-147296054D01*
X144473460Y-147437965D01*
X144527572Y-147497197D01*
X144666520Y-147610797D01*
X144818361Y-147689894D01*
X144978667Y-147735014D01*
X145143012Y-147746684D01*
X145306971Y-147725431D01*
X145466118Y-147671780D01*
X145616025Y-147586260D01*
X145752267Y-147469395D01*
X145858887Y-147338807D01*
X145899642Y-147284412D01*
X145934718Y-147245986D01*
X145955726Y-147232154D01*
X145978635Y-147239397D01*
X146033365Y-147259995D01*
X146115672Y-147292254D01*
X146221315Y-147334479D01*
X146346050Y-147384977D01*
X146485636Y-147442052D01*
X146621670Y-147498146D01*
X146771201Y-147560033D01*
X146909767Y-147617356D01*
X147033107Y-147668356D01*
X147136964Y-147711273D01*
X147217080Y-147744347D01*
X147269195Y-147765819D01*
X147288654Y-147773775D01*
X147308423Y-147792571D01*
X147308365Y-147828926D01*
X147287441Y-147887521D01*
X147244613Y-147973032D01*
X147244249Y-147973708D01*
X147211012Y-148038093D01*
X147186802Y-148090139D01*
X147176404Y-148119488D01*
X147176308Y-148120783D01*
X147186855Y-148142876D01*
X147216184Y-148191652D01*
X147260827Y-148261669D01*
X147317314Y-148347486D01*
X147381462Y-148442612D01*
X147446411Y-148539460D01*
X147502896Y-148626747D01*
X147547421Y-148698819D01*
X147576490Y-148750023D01*
X147586616Y-148774474D01*
X147573307Y-148796990D01*
X147536112Y-148842258D01*
X147479128Y-148905756D01*
X147406449Y-148982961D01*
X147322171Y-149069349D01*
X147294016Y-149097601D01*
X147001416Y-149389713D01*
X146675104Y-149167369D01*
X146574897Y-149099798D01*
X146484963Y-149040493D01*
X146410510Y-148992783D01*
X146356751Y-148959993D01*
X146328894Y-148945452D01*
X146326912Y-148945026D01*
X146300655Y-148952692D01*
X146247837Y-148973311D01*
X146177310Y-149003315D01*
X146130093Y-149024375D01*
X146039694Y-149063752D01*
X145948366Y-149100835D01*
X145871200Y-149129585D01*
X145847692Y-149137395D01*
X145784916Y-149159583D01*
X145736411Y-149181273D01*
X145718079Y-149193187D01*
X145706859Y-149219477D01*
X145690954Y-149276858D01*
X145672167Y-149357882D01*
X145652299Y-149455105D01*
X145644132Y-149498615D01*
X145623829Y-149609104D01*
X145604170Y-149715084D01*
X145587088Y-149806199D01*
X145574518Y-149872092D01*
X145572091Y-149884500D01*
X145551845Y-149987077D01*
X145124701Y-149987077D01*
X144984246Y-149986847D01*
X144877979Y-149985901D01*
X144801013Y-149983859D01*
X144748460Y-149980338D01*
X144715433Y-149974957D01*
X144697045Y-149967334D01*
X144688408Y-149957088D01*
X144686807Y-149952885D01*
X144681127Y-149927530D01*
X144669795Y-149871516D01*
X144654179Y-149792036D01*
X144635647Y-149696288D01*
X144615569Y-149591467D01*
X144595312Y-149484768D01*
X144576246Y-149383387D01*
X144559739Y-149294521D01*
X144547159Y-149225363D01*
X144539875Y-149183111D01*
X144538616Y-149173710D01*
X144521763Y-149165193D01*
X144476870Y-149146340D01*
X144412430Y-149120676D01*
X144387192Y-149110877D01*
X144289686Y-149071352D01*
X144181959Y-149024808D01*
X144091172Y-148983123D01*
X144021753Y-148952450D01*
X143964710Y-148932044D01*
X143929777Y-148925232D01*
X143925095Y-148926318D01*
X143902991Y-148940715D01*
X143853831Y-148973588D01*
X143782848Y-149021410D01*
X143695278Y-149080652D01*
X143596357Y-149147785D01*
X143576830Y-149161059D01*
X143461140Y-149238954D01*
X143373044Y-149296213D01*
X143308486Y-149335119D01*
X143263411Y-149357956D01*
X143233763Y-149367006D01*
X143215485Y-149364552D01*
X143215369Y-149364489D01*
X143191361Y-149345173D01*
X143144947Y-149302449D01*
X143080937Y-149240949D01*
X143004145Y-149165302D01*
X142919382Y-149080139D01*
X142909922Y-149070535D01*
X142805989Y-148963210D01*
X142729675Y-148880385D01*
X142679571Y-148820395D01*
X142654270Y-148781577D01*
X142651004Y-148764480D01*
X142665250Y-148739527D01*
X142698156Y-148687745D01*
X142746208Y-148614480D01*
X142805890Y-148525080D01*
X142873688Y-148424889D01*
X142889639Y-148401499D01*
X143116420Y-148069407D01*
X143048353Y-147919435D01*
X143008685Y-147828230D01*
X142968791Y-147730331D01*
X142936983Y-147646169D01*
X142935674Y-147642462D01*
X142911576Y-147576631D01*
X142891200Y-147525884D01*
X142878936Y-147501158D01*
X142878901Y-147501116D01*
X142856734Y-147493271D01*
X142802217Y-147479934D01*
X142721480Y-147462430D01*
X142620650Y-147442083D01*
X142505856Y-147420218D01*
X142496178Y-147418429D01*
X142377904Y-147396496D01*
X142270542Y-147376360D01*
X142180917Y-147359320D01*
X142115851Y-147346672D01*
X142082168Y-147339716D01*
X142081654Y-147339594D01*
X142067325Y-147335361D01*
X142056507Y-147327129D01*
X142048706Y-147309967D01*
X142043429Y-147278942D01*
X142040182Y-147229122D01*
X142038472Y-147155576D01*
X142037807Y-147053371D01*
X142037693Y-146917575D01*
X142037692Y-146900000D01*
X142037776Y-146760122D01*
G36*
X148397838Y-142654776D02*
G01*
X148448361Y-142577472D01*
X148493590Y-142540186D01*
X148575663Y-142510647D01*
X148640607Y-142508301D01*
X148727445Y-142513615D01*
X148815103Y-142713885D01*
X148859887Y-142811261D01*
X148895913Y-142874887D01*
X148927117Y-142907971D01*
X148957436Y-142913720D01*
X148990805Y-142895342D01*
X149012923Y-142875077D01*
X149048393Y-142816111D01*
X149050879Y-142751976D01*
X149023235Y-142693074D01*
X148968320Y-142649803D01*
X148948928Y-142642064D01*
X148888364Y-142604994D01*
X148862552Y-142562346D01*
X148840471Y-142503846D01*
X148924184Y-142503846D01*
X148981150Y-142509018D01*
X149029189Y-142529277D01*
X149084346Y-142571738D01*
X149091514Y-142578049D01*
X149140585Y-142625280D01*
X149166920Y-142665879D01*
X149179035Y-142716672D01*
X149183003Y-142758780D01*
X149183991Y-142834098D01*
X149171466Y-142887714D01*
X149152869Y-142921162D01*
X149111975Y-142973732D01*
X149067748Y-143010121D01*
X149012126Y-143033150D01*
X148937047Y-143045641D01*
X148834449Y-143050413D01*
X148782376Y-143050794D01*
X148719948Y-143049499D01*
X148719948Y-142931529D01*
X148753438Y-142930161D01*
X148758923Y-142926751D01*
X148751472Y-142904247D01*
X148731753Y-142855818D01*
X148703718Y-142791092D01*
X148697692Y-142777557D01*
X148656096Y-142695756D01*
X148619538Y-142650688D01*
X148585296Y-142640783D01*
X148550648Y-142664474D01*
X148535339Y-142684040D01*
X148504721Y-142754640D01*
X148509780Y-142820720D01*
X148547151Y-142876041D01*
X148613473Y-142914364D01*
X148666116Y-142926651D01*
X148719948Y-142931529D01*
X148719948Y-143049499D01*
X148660720Y-143048270D01*
X148570710Y-143038968D01*
X148505167Y-143020540D01*
X148456912Y-142990640D01*
X148418767Y-142946920D01*
X148406440Y-142927859D01*
X148374336Y-142841274D01*
X148372316Y-142746478D01*
X148397838Y-142654776D01*
G37*
X148397838Y-142654776D02*
X148448361Y-142577472D01*
X148493590Y-142540186D01*
X148575663Y-142510647D01*
X148640607Y-142508301D01*
X148727445Y-142513615D01*
X148815103Y-142713885D01*
X148859887Y-142811261D01*
X148895913Y-142874887D01*
X148927117Y-142907971D01*
X148957436Y-142913720D01*
X148990805Y-142895342D01*
X149012923Y-142875077D01*
X149048393Y-142816111D01*
X149050879Y-142751976D01*
X149023235Y-142693074D01*
X148968320Y-142649803D01*
X148948928Y-142642064D01*
X148888364Y-142604994D01*
X148862552Y-142562346D01*
X148840471Y-142503846D01*
X148924184Y-142503846D01*
X148981150Y-142509018D01*
X149029189Y-142529277D01*
X149084346Y-142571738D01*
X149091514Y-142578049D01*
X149140585Y-142625280D01*
X149166920Y-142665879D01*
X149179035Y-142716672D01*
X149183003Y-142758780D01*
X149183991Y-142834098D01*
X149171466Y-142887714D01*
X149152869Y-142921162D01*
X149111975Y-142973732D01*
X149067748Y-143010121D01*
X149012126Y-143033150D01*
X148937047Y-143045641D01*
X148834449Y-143050413D01*
X148782376Y-143050794D01*
X148719948Y-143049499D01*
X148719948Y-142931529D01*
X148753438Y-142930161D01*
X148758923Y-142926751D01*
X148751472Y-142904247D01*
X148731753Y-142855818D01*
X148703718Y-142791092D01*
X148697692Y-142777557D01*
X148656096Y-142695756D01*
X148619538Y-142650688D01*
X148585296Y-142640783D01*
X148550648Y-142664474D01*
X148535339Y-142684040D01*
X148504721Y-142754640D01*
X148509780Y-142820720D01*
X148547151Y-142876041D01*
X148613473Y-142914364D01*
X148666116Y-142926651D01*
X148719948Y-142931529D01*
X148719948Y-143049499D01*
X148660720Y-143048270D01*
X148570710Y-143038968D01*
X148505167Y-143020540D01*
X148456912Y-142990640D01*
X148418767Y-142946920D01*
X148406440Y-142927859D01*
X148374336Y-142841274D01*
X148372316Y-142746478D01*
X148397838Y-142654776D01*
G36*
X148386782Y-143329193D02*
G01*
X148396988Y-143305839D01*
X148441134Y-143250098D01*
X148504967Y-143202431D01*
X148573087Y-143172952D01*
X148606670Y-143168154D01*
X148653556Y-143184240D01*
X148678365Y-143219525D01*
X148693387Y-143257356D01*
X148696155Y-143274679D01*
X148676066Y-143283114D01*
X148632351Y-143299770D01*
X148612598Y-143307077D01*
X148544271Y-143348052D01*
X148510191Y-143407378D01*
X148511239Y-143483448D01*
X148512581Y-143489082D01*
X148531836Y-143529695D01*
X148569375Y-143559552D01*
X148629809Y-143579945D01*
X148717751Y-143592164D01*
X148837813Y-143597500D01*
X148901698Y-143598000D01*
X149002403Y-143598248D01*
X149071054Y-143599874D01*
X149114673Y-143604199D01*
X149140282Y-143612546D01*
X149154903Y-143626235D01*
X149165558Y-143646589D01*
X149166095Y-143647766D01*
X149182667Y-143686962D01*
X149188769Y-143706381D01*
X149170319Y-143709365D01*
X149119323Y-143711919D01*
X149042308Y-143713860D01*
X148945805Y-143715003D01*
X148875184Y-143715231D01*
X148738525Y-143714068D01*
X148634851Y-143709521D01*
X148558108Y-143700001D01*
X148502246Y-143683919D01*
X148461212Y-143659687D01*
X148428954Y-143625714D01*
X148406440Y-143592167D01*
X148376476Y-143511501D01*
X148369718Y-143417619D01*
X148386782Y-143329193D01*
G37*
X148386782Y-143329193D02*
X148396988Y-143305839D01*
X148441134Y-143250098D01*
X148504967Y-143202431D01*
X148573087Y-143172952D01*
X148606670Y-143168154D01*
X148653556Y-143184240D01*
X148678365Y-143219525D01*
X148693387Y-143257356D01*
X148696155Y-143274679D01*
X148676066Y-143283114D01*
X148632351Y-143299770D01*
X148612598Y-143307077D01*
X148544271Y-143348052D01*
X148510191Y-143407378D01*
X148511239Y-143483448D01*
X148512581Y-143489082D01*
X148531836Y-143529695D01*
X148569375Y-143559552D01*
X148629809Y-143579945D01*
X148717751Y-143592164D01*
X148837813Y-143597500D01*
X148901698Y-143598000D01*
X149002403Y-143598248D01*
X149071054Y-143599874D01*
X149114673Y-143604199D01*
X149140282Y-143612546D01*
X149154903Y-143626235D01*
X149165558Y-143646589D01*
X149166095Y-143647766D01*
X149182667Y-143686962D01*
X149188769Y-143706381D01*
X149170319Y-143709365D01*
X149119323Y-143711919D01*
X149042308Y-143713860D01*
X148945805Y-143715003D01*
X148875184Y-143715231D01*
X148738525Y-143714068D01*
X148634851Y-143709521D01*
X148558108Y-143700001D01*
X148502246Y-143683919D01*
X148461212Y-143659687D01*
X148428954Y-143625714D01*
X148406440Y-143592167D01*
X148376476Y-143511501D01*
X148369718Y-143417619D01*
X148386782Y-143329193D01*
G36*
X148383528Y-144012667D02*
G01*
X148409117Y-143956410D01*
X148440124Y-143912253D01*
X148474795Y-143879899D01*
X148519520Y-143857562D01*
X148580692Y-143843454D01*
X148664701Y-143835789D01*
X148777940Y-143832780D01*
X148852509Y-143832462D01*
X149143420Y-143832462D01*
X149166095Y-143882227D01*
X149182667Y-143921424D01*
X149188769Y-143940843D01*
X149170610Y-143944558D01*
X149121648Y-143947505D01*
X149050153Y-143949309D01*
X148993385Y-143949692D01*
X148911371Y-143951339D01*
X148846309Y-143955778D01*
X148806467Y-143962260D01*
X148798000Y-143967410D01*
X148806646Y-144002023D01*
X148828823Y-144056360D01*
X148858886Y-144119278D01*
X148891192Y-144179632D01*
X148920098Y-144226279D01*
X148939961Y-144248074D01*
X148940175Y-144248161D01*
X148976935Y-144246286D01*
X149012026Y-144229475D01*
X149040528Y-144199961D01*
X149050061Y-144156884D01*
X149048950Y-144120068D01*
X149048133Y-144067926D01*
X149060349Y-144040556D01*
X149092624Y-144024118D01*
X149098710Y-144022045D01*
X149144739Y-144014919D01*
X149172687Y-144033976D01*
X149186007Y-144083647D01*
X149188470Y-144137303D01*
X149170210Y-144233858D01*
X149144131Y-144283841D01*
X149082868Y-144345571D01*
X149007670Y-144378310D01*
X148928211Y-144381247D01*
X148854167Y-144353576D01*
X148807769Y-144311953D01*
X148781793Y-144270396D01*
X148748907Y-144205078D01*
X148715557Y-144128962D01*
X148710461Y-144116274D01*
X148673565Y-144032667D01*
X148641046Y-143984470D01*
X148608718Y-143968970D01*
X148572394Y-143983450D01*
X148544000Y-144008308D01*
X148509039Y-144067061D01*
X148506417Y-144131707D01*
X148533358Y-144190992D01*
X148587088Y-144233661D01*
X148600950Y-144239261D01*
X148651936Y-144271867D01*
X148689787Y-144319470D01*
X148720850Y-144379539D01*
X148632768Y-144379539D01*
X148578951Y-144376003D01*
X148536534Y-144360844D01*
X148491279Y-144327232D01*
X148456420Y-144294965D01*
X148407062Y-144244791D01*
X148380547Y-144205807D01*
X148369911Y-144163936D01*
X148368154Y-144116540D01*
X148383528Y-144012667D01*
G37*
X148383528Y-144012667D02*
X148409117Y-143956410D01*
X148440124Y-143912253D01*
X148474795Y-143879899D01*
X148519520Y-143857562D01*
X148580692Y-143843454D01*
X148664701Y-143835789D01*
X148777940Y-143832780D01*
X148852509Y-143832462D01*
X149143420Y-143832462D01*
X149166095Y-143882227D01*
X149182667Y-143921424D01*
X149188769Y-143940843D01*
X149170610Y-143944558D01*
X149121648Y-143947505D01*
X149050153Y-143949309D01*
X148993385Y-143949692D01*
X148911371Y-143951339D01*
X148846309Y-143955778D01*
X148806467Y-143962260D01*
X148798000Y-143967410D01*
X148806646Y-144002023D01*
X148828823Y-144056360D01*
X148858886Y-144119278D01*
X148891192Y-144179632D01*
X148920098Y-144226279D01*
X148939961Y-144248074D01*
X148940175Y-144248161D01*
X148976935Y-144246286D01*
X149012026Y-144229475D01*
X149040528Y-144199961D01*
X149050061Y-144156884D01*
X149048950Y-144120068D01*
X149048133Y-144067926D01*
X149060349Y-144040556D01*
X149092624Y-144024118D01*
X149098710Y-144022045D01*
X149144739Y-144014919D01*
X149172687Y-144033976D01*
X149186007Y-144083647D01*
X149188470Y-144137303D01*
X149170210Y-144233858D01*
X149144131Y-144283841D01*
X149082868Y-144345571D01*
X149007670Y-144378310D01*
X148928211Y-144381247D01*
X148854167Y-144353576D01*
X148807769Y-144311953D01*
X148781793Y-144270396D01*
X148748907Y-144205078D01*
X148715557Y-144128962D01*
X148710461Y-144116274D01*
X148673565Y-144032667D01*
X148641046Y-143984470D01*
X148608718Y-143968970D01*
X148572394Y-143983450D01*
X148544000Y-144008308D01*
X148509039Y-144067061D01*
X148506417Y-144131707D01*
X148533358Y-144190992D01*
X148587088Y-144233661D01*
X148600950Y-144239261D01*
X148651936Y-144271867D01*
X148689787Y-144319470D01*
X148720850Y-144379539D01*
X148632768Y-144379539D01*
X148578951Y-144376003D01*
X148536534Y-144360844D01*
X148491279Y-144327232D01*
X148456420Y-144294965D01*
X148407062Y-144244791D01*
X148380547Y-144205807D01*
X148369911Y-144163936D01*
X148368154Y-144116540D01*
X148383528Y-144012667D01*
G36*
X148386662Y-144504071D02*
G01*
X148438068Y-144501089D01*
X148516192Y-144498753D01*
X148614857Y-144497251D01*
X148718343Y-144496769D01*
X149068533Y-144496769D01*
X149130363Y-144558599D01*
X149168462Y-144601207D01*
X149183895Y-144638610D01*
X149182918Y-144689730D01*
X149180433Y-144710022D01*
X149173200Y-144773446D01*
X149169055Y-144825905D01*
X149168672Y-144838692D01*
X149171176Y-144881801D01*
X149177462Y-144943456D01*
X149180433Y-144967362D01*
X149185028Y-145026078D01*
X149175046Y-145065536D01*
X149144228Y-145104662D01*
X149130363Y-145118785D01*
X149068533Y-145180615D01*
X148413503Y-145180615D01*
X148390829Y-145130850D01*
X148374034Y-145087998D01*
X148368154Y-145062927D01*
X148386736Y-145056499D01*
X148438655Y-145050491D01*
X148518172Y-145045303D01*
X148619546Y-145041336D01*
X148705192Y-145039423D01*
X149042231Y-145034077D01*
X149048825Y-144987440D01*
X149044214Y-144945024D01*
X149029287Y-144924240D01*
X149001377Y-144918430D01*
X148941925Y-144913470D01*
X148858466Y-144909754D01*
X148758532Y-144907676D01*
X148707104Y-144907376D01*
X148411054Y-144907077D01*
X148389604Y-144845546D01*
X148375020Y-144801996D01*
X148368219Y-144778306D01*
X148368154Y-144777623D01*
X148386642Y-144775246D01*
X148437906Y-144772634D01*
X148515649Y-144770005D01*
X148613574Y-144767579D01*
X148705192Y-144765885D01*
X149042231Y-144760539D01*
X149042231Y-144643308D01*
X148734746Y-144637928D01*
X148427261Y-144632549D01*
X148397707Y-144575399D01*
X148377413Y-144533203D01*
X148368204Y-144508230D01*
X148368154Y-144507509D01*
X148386662Y-144504071D01*
G37*
X148386662Y-144504071D02*
X148438068Y-144501089D01*
X148516192Y-144498753D01*
X148614857Y-144497251D01*
X148718343Y-144496769D01*
X149068533Y-144496769D01*
X149130363Y-144558599D01*
X149168462Y-144601207D01*
X149183895Y-144638610D01*
X149182918Y-144689730D01*
X149180433Y-144710022D01*
X149173200Y-144773446D01*
X149169055Y-144825905D01*
X149168672Y-144838692D01*
X149171176Y-144881801D01*
X149177462Y-144943456D01*
X149180433Y-144967362D01*
X149185028Y-145026078D01*
X149175046Y-145065536D01*
X149144228Y-145104662D01*
X149130363Y-145118785D01*
X149068533Y-145180615D01*
X148413503Y-145180615D01*
X148390829Y-145130850D01*
X148374034Y-145087998D01*
X148368154Y-145062927D01*
X148386736Y-145056499D01*
X148438655Y-145050491D01*
X148518172Y-145045303D01*
X148619546Y-145041336D01*
X148705192Y-145039423D01*
X149042231Y-145034077D01*
X149048825Y-144987440D01*
X149044214Y-144945024D01*
X149029287Y-144924240D01*
X149001377Y-144918430D01*
X148941925Y-144913470D01*
X148858466Y-144909754D01*
X148758532Y-144907676D01*
X148707104Y-144907376D01*
X148411054Y-144907077D01*
X148389604Y-144845546D01*
X148375020Y-144801996D01*
X148368219Y-144778306D01*
X148368154Y-144777623D01*
X148386642Y-144775246D01*
X148437906Y-144772634D01*
X148515649Y-144770005D01*
X148613574Y-144767579D01*
X148705192Y-144765885D01*
X149042231Y-144760539D01*
X149042231Y-144643308D01*
X148734746Y-144637928D01*
X148427261Y-144632549D01*
X148397707Y-144575399D01*
X148377413Y-144533203D01*
X148368204Y-144508230D01*
X148368154Y-144507509D01*
X148386662Y-144504071D01*
G36*
X148530289Y-145297919D02*
G01*
X148676320Y-145298167D01*
X148788655Y-145299128D01*
X148872678Y-145301206D01*
X148933769Y-145304807D01*
X148977309Y-145310335D01*
X149008679Y-145318196D01*
X149033262Y-145328793D01*
X149047294Y-145336818D01*
X149123388Y-145403272D01*
X149171084Y-145487530D01*
X149188199Y-145580751D01*
X149172546Y-145674100D01*
X149144418Y-145729688D01*
X149095760Y-145788043D01*
X149036333Y-145827814D01*
X148958507Y-145851810D01*
X148854652Y-145862839D01*
X148778462Y-145864401D01*
X148772986Y-145864191D01*
X148772986Y-145727692D01*
X148860355Y-145726859D01*
X148918192Y-145723039D01*
X148956029Y-145714254D01*
X148983398Y-145698526D01*
X149004042Y-145679734D01*
X149043890Y-145616625D01*
X149047295Y-145548863D01*
X149014025Y-145484821D01*
X149009517Y-145479836D01*
X148986067Y-145458561D01*
X148958166Y-145445221D01*
X148916641Y-145437999D01*
X148852316Y-145435077D01*
X148781200Y-145434615D01*
X148691858Y-145435617D01*
X148632258Y-145439762D01*
X148593089Y-145448764D01*
X148565040Y-145464333D01*
X148550144Y-145477098D01*
X148512575Y-145536400D01*
X148508057Y-145604699D01*
X148536753Y-145669890D01*
X148547406Y-145682472D01*
X148571063Y-145703889D01*
X148599251Y-145717256D01*
X148641245Y-145724434D01*
X148706319Y-145727281D01*
X148772986Y-145727692D01*
X148772986Y-145864191D01*
X148655765Y-145859678D01*
X148563577Y-145843638D01*
X148494269Y-145813472D01*
X148440211Y-145766371D01*
X148412505Y-145729688D01*
X148382572Y-145663010D01*
X148368678Y-145585728D01*
X148372397Y-145513890D01*
X148387400Y-145473692D01*
X148391670Y-145457918D01*
X148375750Y-145447450D01*
X148333089Y-145440144D01*
X148268106Y-145434615D01*
X148195732Y-145428563D01*
X148152187Y-145420156D01*
X148127287Y-145404859D01*
X148110845Y-145378136D01*
X148103564Y-145361346D01*
X148076963Y-145297846D01*
X148530289Y-145297919D01*
G37*
X148530289Y-145297919D02*
X148676320Y-145298167D01*
X148788655Y-145299128D01*
X148872678Y-145301206D01*
X148933769Y-145304807D01*
X148977309Y-145310335D01*
X149008679Y-145318196D01*
X149033262Y-145328793D01*
X149047294Y-145336818D01*
X149123388Y-145403272D01*
X149171084Y-145487530D01*
X149188199Y-145580751D01*
X149172546Y-145674100D01*
X149144418Y-145729688D01*
X149095760Y-145788043D01*
X149036333Y-145827814D01*
X148958507Y-145851810D01*
X148854652Y-145862839D01*
X148778462Y-145864401D01*
X148772986Y-145864191D01*
X148772986Y-145727692D01*
X148860355Y-145726859D01*
X148918192Y-145723039D01*
X148956029Y-145714254D01*
X148983398Y-145698526D01*
X149004042Y-145679734D01*
X149043890Y-145616625D01*
X149047295Y-145548863D01*
X149014025Y-145484821D01*
X149009517Y-145479836D01*
X148986067Y-145458561D01*
X148958166Y-145445221D01*
X148916641Y-145437999D01*
X148852316Y-145435077D01*
X148781200Y-145434615D01*
X148691858Y-145435617D01*
X148632258Y-145439762D01*
X148593089Y-145448764D01*
X148565040Y-145464333D01*
X148550144Y-145477098D01*
X148512575Y-145536400D01*
X148508057Y-145604699D01*
X148536753Y-145669890D01*
X148547406Y-145682472D01*
X148571063Y-145703889D01*
X148599251Y-145717256D01*
X148641245Y-145724434D01*
X148706319Y-145727281D01*
X148772986Y-145727692D01*
X148772986Y-145864191D01*
X148655765Y-145859678D01*
X148563577Y-145843638D01*
X148494269Y-145813472D01*
X148440211Y-145766371D01*
X148412505Y-145729688D01*
X148382572Y-145663010D01*
X148368678Y-145585728D01*
X148372397Y-145513890D01*
X148387400Y-145473692D01*
X148391670Y-145457918D01*
X148375750Y-145447450D01*
X148333089Y-145440144D01*
X148268106Y-145434615D01*
X148195732Y-145428563D01*
X148152187Y-145420156D01*
X148127287Y-145404859D01*
X148110845Y-145378136D01*
X148103564Y-145361346D01*
X148076963Y-145297846D01*
X148530289Y-145297919D01*
G36*
X148374670Y-146186638D02*
G01*
X148407421Y-146097883D01*
X148465350Y-146025978D01*
X148506128Y-145997856D01*
X148580954Y-145967198D01*
X148635058Y-145967835D01*
X148671446Y-146000013D01*
X148677633Y-146011919D01*
X148696925Y-146063325D01*
X148691982Y-146089578D01*
X148659587Y-146098470D01*
X148641692Y-146098923D01*
X148575859Y-146115203D01*
X148529807Y-146157635D01*
X148507564Y-146216612D01*
X148513161Y-146282525D01*
X148542229Y-146336105D01*
X148558810Y-146354202D01*
X148578925Y-146367029D01*
X148609332Y-146375694D01*
X148656788Y-146381304D01*
X148728050Y-146384965D01*
X148829875Y-146387785D01*
X148862115Y-146388516D01*
X148972410Y-146391180D01*
X149050036Y-146394208D01*
X149101396Y-146398750D01*
X149132890Y-146405954D01*
X149150920Y-146416967D01*
X149161888Y-146432940D01*
X149166733Y-146443166D01*
X149183301Y-146486594D01*
X149188769Y-146512158D01*
X149170507Y-146520605D01*
X149115296Y-146525761D01*
X149022499Y-146527654D01*
X148891478Y-146526311D01*
X148871269Y-146525893D01*
X148751733Y-146522942D01*
X148664449Y-146519452D01*
X148602591Y-146514486D01*
X148559336Y-146507107D01*
X148527860Y-146496376D01*
X148501339Y-146481355D01*
X148489975Y-146473498D01*
X148439692Y-146428447D01*
X148400581Y-146378060D01*
X148397167Y-146371892D01*
X148370212Y-146281542D01*
X148374670Y-146186638D01*
G37*
X148374670Y-146186638D02*
X148407421Y-146097883D01*
X148465350Y-146025978D01*
X148506128Y-145997856D01*
X148580954Y-145967198D01*
X148635058Y-145967835D01*
X148671446Y-146000013D01*
X148677633Y-146011919D01*
X148696925Y-146063325D01*
X148691982Y-146089578D01*
X148659587Y-146098470D01*
X148641692Y-146098923D01*
X148575859Y-146115203D01*
X148529807Y-146157635D01*
X148507564Y-146216612D01*
X148513161Y-146282525D01*
X148542229Y-146336105D01*
X148558810Y-146354202D01*
X148578925Y-146367029D01*
X148609332Y-146375694D01*
X148656788Y-146381304D01*
X148728050Y-146384965D01*
X148829875Y-146387785D01*
X148862115Y-146388516D01*
X148972410Y-146391180D01*
X149050036Y-146394208D01*
X149101396Y-146398750D01*
X149132890Y-146405954D01*
X149150920Y-146416967D01*
X149161888Y-146432940D01*
X149166733Y-146443166D01*
X149183301Y-146486594D01*
X149188769Y-146512158D01*
X149170507Y-146520605D01*
X149115296Y-146525761D01*
X149022499Y-146527654D01*
X148891478Y-146526311D01*
X148871269Y-146525893D01*
X148751733Y-146522942D01*
X148664449Y-146519452D01*
X148602591Y-146514486D01*
X148559336Y-146507107D01*
X148527860Y-146496376D01*
X148501339Y-146481355D01*
X148489975Y-146473498D01*
X148439692Y-146428447D01*
X148400581Y-146378060D01*
X148397167Y-146371892D01*
X148370212Y-146281542D01*
X148374670Y-146186638D01*
G36*
X148376303Y-146846499D02*
G01*
X148404733Y-146769940D01*
X148405279Y-146769064D01*
X148440127Y-146721715D01*
X148480852Y-146686759D01*
X148533925Y-146662175D01*
X148605814Y-146645938D01*
X148702992Y-146636025D01*
X148831928Y-146630414D01*
X148850298Y-146629923D01*
X149127287Y-146622859D01*
X149158028Y-146682305D01*
X149178802Y-146725319D01*
X149188646Y-146751290D01*
X149188769Y-146752491D01*
X149170606Y-146756986D01*
X149121612Y-146760556D01*
X149050031Y-146762752D01*
X148992068Y-146763231D01*
X148898170Y-146763242D01*
X148839203Y-146767534D01*
X148811079Y-146782497D01*
X148809706Y-146814518D01*
X148830998Y-146869986D01*
X148870136Y-146953731D01*
X148902643Y-147015311D01*
X148930845Y-147046983D01*
X148961582Y-147056294D01*
X148963104Y-147056308D01*
X149016054Y-147040943D01*
X149044660Y-146995453D01*
X149048803Y-146925834D01*
X149048084Y-146875687D01*
X149062527Y-146849246D01*
X149097218Y-146832757D01*
X149141416Y-146823267D01*
X149166493Y-146836943D01*
X149170082Y-146842093D01*
X149184496Y-146890575D01*
X149186537Y-146958469D01*
X149176983Y-147028388D01*
X149159522Y-147077932D01*
X149101364Y-147146430D01*
X149020408Y-147185366D01*
X148957160Y-147193077D01*
X148900111Y-147187193D01*
X148853542Y-147165899D01*
X148812181Y-147123735D01*
X148770755Y-147055241D01*
X148723993Y-146954956D01*
X148721350Y-146948846D01*
X148679617Y-146858510D01*
X148645391Y-146802765D01*
X148614635Y-146778871D01*
X148583311Y-146784087D01*
X148547383Y-146815672D01*
X148539116Y-146825117D01*
X148507058Y-146888383D01*
X148508407Y-146953936D01*
X148539838Y-147011028D01*
X148598024Y-147048907D01*
X148609446Y-147052426D01*
X148664837Y-147086700D01*
X148691518Y-147130191D01*
X148717960Y-147193077D01*
X148649548Y-147193077D01*
X148550110Y-147173948D01*
X148458902Y-147117169D01*
X148428389Y-147087622D01*
X148389228Y-147020458D01*
X148371500Y-146935044D01*
X148376303Y-146846499D01*
G37*
X148376303Y-146846499D02*
X148404733Y-146769940D01*
X148405279Y-146769064D01*
X148440127Y-146721715D01*
X148480852Y-146686759D01*
X148533925Y-146662175D01*
X148605814Y-146645938D01*
X148702992Y-146636025D01*
X148831928Y-146630414D01*
X148850298Y-146629923D01*
X149127287Y-146622859D01*
X149158028Y-146682305D01*
X149178802Y-146725319D01*
X149188646Y-146751290D01*
X149188769Y-146752491D01*
X149170606Y-146756986D01*
X149121612Y-146760556D01*
X149050031Y-146762752D01*
X148992068Y-146763231D01*
X148898170Y-146763242D01*
X148839203Y-146767534D01*
X148811079Y-146782497D01*
X148809706Y-146814518D01*
X148830998Y-146869986D01*
X148870136Y-146953731D01*
X148902643Y-147015311D01*
X148930845Y-147046983D01*
X148961582Y-147056294D01*
X148963104Y-147056308D01*
X149016054Y-147040943D01*
X149044660Y-146995453D01*
X149048803Y-146925834D01*
X149048084Y-146875687D01*
X149062527Y-146849246D01*
X149097218Y-146832757D01*
X149141416Y-146823267D01*
X149166493Y-146836943D01*
X149170082Y-146842093D01*
X149184496Y-146890575D01*
X149186537Y-146958469D01*
X149176983Y-147028388D01*
X149159522Y-147077932D01*
X149101364Y-147146430D01*
X149020408Y-147185366D01*
X148957160Y-147193077D01*
X148900111Y-147187193D01*
X148853542Y-147165899D01*
X148812181Y-147123735D01*
X148770755Y-147055241D01*
X148723993Y-146954956D01*
X148721350Y-146948846D01*
X148679617Y-146858510D01*
X148645391Y-146802765D01*
X148614635Y-146778871D01*
X148583311Y-146784087D01*
X148547383Y-146815672D01*
X148539116Y-146825117D01*
X148507058Y-146888383D01*
X148508407Y-146953936D01*
X148539838Y-147011028D01*
X148598024Y-147048907D01*
X148609446Y-147052426D01*
X148664837Y-147086700D01*
X148691518Y-147130191D01*
X148717960Y-147193077D01*
X148649548Y-147193077D01*
X148550110Y-147173948D01*
X148458902Y-147117169D01*
X148428389Y-147087622D01*
X148389228Y-147020458D01*
X148371500Y-146935044D01*
X148376303Y-146846499D01*
G36*
X148242120Y-147740154D02*
G01*
X148321980Y-147734428D01*
X148369039Y-147727851D01*
X148389566Y-147718738D01*
X148389829Y-147705402D01*
X148387378Y-147701077D01*
X148369636Y-147643556D01*
X148370672Y-147568732D01*
X148388910Y-147492661D01*
X148412505Y-147445082D01*
X148450198Y-147396298D01*
X148492855Y-147360636D01*
X148547057Y-147336155D01*
X148619384Y-147320913D01*
X148716419Y-147312970D01*
X148844742Y-147310384D01*
X148869358Y-147310338D01*
X149145870Y-147310308D01*
X149167320Y-147371839D01*
X149181912Y-147415541D01*
X149188706Y-147439518D01*
X149188769Y-147440223D01*
X149170345Y-147442585D01*
X149119526Y-147444594D01*
X149042993Y-147446099D01*
X148947430Y-147446947D01*
X148889329Y-147447077D01*
X148774771Y-147447349D01*
X148692667Y-147448748D01*
X148636393Y-147452151D01*
X148599326Y-147458433D01*
X148574844Y-147468471D01*
X148556325Y-147483139D01*
X148547406Y-147492298D01*
X148511466Y-147555211D01*
X148508775Y-147623864D01*
X148539170Y-147686152D01*
X148550144Y-147697671D01*
X148570779Y-147714567D01*
X148595256Y-147726286D01*
X148630647Y-147733767D01*
X148684026Y-147737946D01*
X148762466Y-147739763D01*
X148870617Y-147740154D01*
X149145870Y-147740154D01*
X149167320Y-147801685D01*
X149181912Y-147845387D01*
X149188706Y-147869364D01*
X149188769Y-147870070D01*
X149170069Y-147871874D01*
X149117322Y-147873500D01*
X149035557Y-147874883D01*
X148929805Y-147875958D01*
X148805094Y-147876660D01*
X148666455Y-147876923D01*
X148131806Y-147876923D01*
X148078236Y-147749923D01*
X148242120Y-147740154D01*
G37*
X148242120Y-147740154D02*
X148321980Y-147734428D01*
X148369039Y-147727851D01*
X148389566Y-147718738D01*
X148389829Y-147705402D01*
X148387378Y-147701077D01*
X148369636Y-147643556D01*
X148370672Y-147568732D01*
X148388910Y-147492661D01*
X148412505Y-147445082D01*
X148450198Y-147396298D01*
X148492855Y-147360636D01*
X148547057Y-147336155D01*
X148619384Y-147320913D01*
X148716419Y-147312970D01*
X148844742Y-147310384D01*
X148869358Y-147310338D01*
X149145870Y-147310308D01*
X149167320Y-147371839D01*
X149181912Y-147415541D01*
X149188706Y-147439518D01*
X149188769Y-147440223D01*
X149170345Y-147442585D01*
X149119526Y-147444594D01*
X149042993Y-147446099D01*
X148947430Y-147446947D01*
X148889329Y-147447077D01*
X148774771Y-147447349D01*
X148692667Y-147448748D01*
X148636393Y-147452151D01*
X148599326Y-147458433D01*
X148574844Y-147468471D01*
X148556325Y-147483139D01*
X148547406Y-147492298D01*
X148511466Y-147555211D01*
X148508775Y-147623864D01*
X148539170Y-147686152D01*
X148550144Y-147697671D01*
X148570779Y-147714567D01*
X148595256Y-147726286D01*
X148630647Y-147733767D01*
X148684026Y-147737946D01*
X148762466Y-147739763D01*
X148870617Y-147740154D01*
X149145870Y-147740154D01*
X149167320Y-147801685D01*
X149181912Y-147845387D01*
X149188706Y-147869364D01*
X149188769Y-147870070D01*
X149170069Y-147871874D01*
X149117322Y-147873500D01*
X149035557Y-147874883D01*
X148929805Y-147875958D01*
X148805094Y-147876660D01*
X148666455Y-147876923D01*
X148131806Y-147876923D01*
X148078236Y-147749923D01*
X148242120Y-147740154D01*
G36*
X148349745Y-149365746D02*
G01*
X148401567Y-149288714D01*
X148476412Y-149229184D01*
X148571654Y-149193622D01*
X148641756Y-149186429D01*
X148671009Y-149187246D01*
X148693407Y-149194086D01*
X148713474Y-149212888D01*
X148735733Y-149249592D01*
X148764709Y-149310138D01*
X148804927Y-149400466D01*
X148805129Y-149400923D01*
X148843210Y-149484067D01*
X148877025Y-149552247D01*
X148902933Y-149598495D01*
X148917295Y-149615842D01*
X148917411Y-149615846D01*
X148948685Y-149600557D01*
X148983157Y-149564804D01*
X149007990Y-149523758D01*
X149012923Y-149502963D01*
X148995862Y-149446230D01*
X148953133Y-149397373D01*
X148906155Y-149373535D01*
X148871522Y-149350603D01*
X148832081Y-149305682D01*
X148798009Y-149252877D01*
X148779480Y-149206290D01*
X148778462Y-149196548D01*
X148795215Y-149185582D01*
X148838039Y-149184921D01*
X148895781Y-149192980D01*
X148957289Y-149208173D01*
X149011409Y-149228914D01*
X149013510Y-149229962D01*
X149100660Y-149292379D01*
X149159939Y-149373274D01*
X149189034Y-149465144D01*
X149185634Y-149560487D01*
X149147428Y-149651802D01*
X149144741Y-149655862D01*
X149079642Y-149727694D01*
X148994705Y-149774927D01*
X148883021Y-149801066D01*
X148851643Y-149804574D01*
X148703536Y-149810787D01*
X148634468Y-149803339D01*
X148634468Y-149615846D01*
X148677552Y-149613410D01*
X148690126Y-149600086D01*
X148680719Y-149566868D01*
X148658483Y-149514506D01*
X148630610Y-149455976D01*
X148629872Y-149454521D01*
X148603777Y-149404911D01*
X148586363Y-149385000D01*
X148568107Y-149389910D01*
X148544120Y-149410584D01*
X148509406Y-149463181D01*
X148506856Y-149519823D01*
X148532119Y-149570631D01*
X148580847Y-149605724D01*
X148634468Y-149615846D01*
X148634468Y-149803339D01*
X148585036Y-149798008D01*
X148491055Y-149765222D01*
X148425215Y-149719579D01*
X148358681Y-149637198D01*
X148325676Y-149546454D01*
X148323573Y-149453815D01*
X148349745Y-149365746D01*
G37*
X148349745Y-149365746D02*
X148401567Y-149288714D01*
X148476412Y-149229184D01*
X148571654Y-149193622D01*
X148641756Y-149186429D01*
X148671009Y-149187246D01*
X148693407Y-149194086D01*
X148713474Y-149212888D01*
X148735733Y-149249592D01*
X148764709Y-149310138D01*
X148804927Y-149400466D01*
X148805129Y-149400923D01*
X148843210Y-149484067D01*
X148877025Y-149552247D01*
X148902933Y-149598495D01*
X148917295Y-149615842D01*
X148917411Y-149615846D01*
X148948685Y-149600557D01*
X148983157Y-149564804D01*
X149007990Y-149523758D01*
X149012923Y-149502963D01*
X148995862Y-149446230D01*
X148953133Y-149397373D01*
X148906155Y-149373535D01*
X148871522Y-149350603D01*
X148832081Y-149305682D01*
X148798009Y-149252877D01*
X148779480Y-149206290D01*
X148778462Y-149196548D01*
X148795215Y-149185582D01*
X148838039Y-149184921D01*
X148895781Y-149192980D01*
X148957289Y-149208173D01*
X149011409Y-149228914D01*
X149013510Y-149229962D01*
X149100660Y-149292379D01*
X149159939Y-149373274D01*
X149189034Y-149465144D01*
X149185634Y-149560487D01*
X149147428Y-149651802D01*
X149144741Y-149655862D01*
X149079642Y-149727694D01*
X148994705Y-149774927D01*
X148883021Y-149801066D01*
X148851643Y-149804574D01*
X148703536Y-149810787D01*
X148634468Y-149803339D01*
X148634468Y-149615846D01*
X148677552Y-149613410D01*
X148690126Y-149600086D01*
X148680719Y-149566868D01*
X148658483Y-149514506D01*
X148630610Y-149455976D01*
X148629872Y-149454521D01*
X148603777Y-149404911D01*
X148586363Y-149385000D01*
X148568107Y-149389910D01*
X148544120Y-149410584D01*
X148509406Y-149463181D01*
X148506856Y-149519823D01*
X148532119Y-149570631D01*
X148580847Y-149605724D01*
X148634468Y-149615846D01*
X148634468Y-149803339D01*
X148585036Y-149798008D01*
X148491055Y-149765222D01*
X148425215Y-149719579D01*
X148358681Y-149637198D01*
X148325676Y-149546454D01*
X148323573Y-149453815D01*
X148349745Y-149365746D01*
G36*
X148337256Y-150883114D02*
G01*
X148385409Y-150791536D01*
X148462905Y-150723951D01*
X148512727Y-150699943D01*
X148587533Y-150681262D01*
X148682052Y-150671699D01*
X148785210Y-150670792D01*
X148885935Y-150678079D01*
X148973153Y-150693097D01*
X149035791Y-150715385D01*
X149046579Y-150722235D01*
X149127105Y-150803368D01*
X149175336Y-150899734D01*
X149189450Y-151004299D01*
X149167629Y-151110032D01*
X149154547Y-151139457D01*
X149114231Y-151196759D01*
X149060775Y-151247050D01*
X149053995Y-151251803D01*
X149021321Y-151271122D01*
X148986394Y-151283892D01*
X148940414Y-151291436D01*
X148874584Y-151295076D01*
X148780105Y-151296135D01*
X148758923Y-151296154D01*
X148752182Y-151296106D01*
X148752182Y-151100769D01*
X148841349Y-151099632D01*
X148900520Y-151095159D01*
X148938741Y-151085754D01*
X148965053Y-151069824D01*
X148973846Y-151061692D01*
X149007261Y-151014942D01*
X149005737Y-150969553D01*
X148976752Y-150923660D01*
X148945809Y-150896288D01*
X148900643Y-150880077D01*
X148829420Y-150870974D01*
X148821114Y-150870349D01*
X148692037Y-150868796D01*
X148596172Y-150885035D01*
X148534107Y-150918848D01*
X148506432Y-150970016D01*
X148504923Y-150988280D01*
X148512513Y-151036240D01*
X148538808Y-151069047D01*
X148589095Y-151089105D01*
X148668664Y-151098822D01*
X148752182Y-151100769D01*
X148752182Y-151296106D01*
X148658249Y-151295426D01*
X148587906Y-151292371D01*
X148539163Y-151285678D01*
X148503288Y-151274040D01*
X148471548Y-151256147D01*
X148465648Y-151252192D01*
X148386104Y-151185733D01*
X148339929Y-151113315D01*
X148321599Y-151025151D01*
X148320703Y-150995213D01*
X148337256Y-150883114D01*
G37*
X148337256Y-150883114D02*
X148385409Y-150791536D01*
X148462905Y-150723951D01*
X148512727Y-150699943D01*
X148587533Y-150681262D01*
X148682052Y-150671699D01*
X148785210Y-150670792D01*
X148885935Y-150678079D01*
X148973153Y-150693097D01*
X149035791Y-150715385D01*
X149046579Y-150722235D01*
X149127105Y-150803368D01*
X149175336Y-150899734D01*
X149189450Y-151004299D01*
X149167629Y-151110032D01*
X149154547Y-151139457D01*
X149114231Y-151196759D01*
X149060775Y-151247050D01*
X149053995Y-151251803D01*
X149021321Y-151271122D01*
X148986394Y-151283892D01*
X148940414Y-151291436D01*
X148874584Y-151295076D01*
X148780105Y-151296135D01*
X148758923Y-151296154D01*
X148752182Y-151296106D01*
X148752182Y-151100769D01*
X148841349Y-151099632D01*
X148900520Y-151095159D01*
X148938741Y-151085754D01*
X148965053Y-151069824D01*
X148973846Y-151061692D01*
X149007261Y-151014942D01*
X149005737Y-150969553D01*
X148976752Y-150923660D01*
X148945809Y-150896288D01*
X148900643Y-150880077D01*
X148829420Y-150870974D01*
X148821114Y-150870349D01*
X148692037Y-150868796D01*
X148596172Y-150885035D01*
X148534107Y-150918848D01*
X148506432Y-150970016D01*
X148504923Y-150988280D01*
X148512513Y-151036240D01*
X148538808Y-151069047D01*
X148589095Y-151089105D01*
X148668664Y-151098822D01*
X148752182Y-151100769D01*
X148752182Y-151296106D01*
X148658249Y-151295426D01*
X148587906Y-151292371D01*
X148539163Y-151285678D01*
X148503288Y-151274040D01*
X148471548Y-151256147D01*
X148465648Y-151252192D01*
X148386104Y-151185733D01*
X148339929Y-151113315D01*
X148321599Y-151025151D01*
X148320703Y-150995213D01*
X148337256Y-150883114D01*
G36*
X148345089Y-148628336D02*
G01*
X148381358Y-148565633D01*
X148417358Y-148522039D01*
X148455075Y-148490155D01*
X148501199Y-148468190D01*
X148562421Y-148454351D01*
X148645431Y-148446847D01*
X148756919Y-148443883D01*
X148837062Y-148443539D01*
X149132065Y-148443539D01*
X149206515Y-148609615D01*
X148883402Y-148619385D01*
X148762729Y-148623421D01*
X148675141Y-148627656D01*
X148614650Y-148632903D01*
X148575268Y-148639975D01*
X148551007Y-148649689D01*
X148535880Y-148662856D01*
X148532606Y-148667081D01*
X148507034Y-148731091D01*
X148517153Y-148795792D01*
X148544000Y-148834308D01*
X148563024Y-148849975D01*
X148587988Y-148860820D01*
X148625834Y-148867712D01*
X148683502Y-148871521D01*
X148767935Y-148873117D01*
X148855928Y-148873385D01*
X148966323Y-148873437D01*
X149044463Y-148875328D01*
X149097165Y-148881655D01*
X149131242Y-148895017D01*
X149153511Y-148918015D01*
X149170787Y-148953246D01*
X149188738Y-149000303D01*
X149208278Y-149051697D01*
X148861485Y-149045579D01*
X148736468Y-149043116D01*
X148644082Y-149040233D01*
X148577881Y-149036102D01*
X148531420Y-149029893D01*
X148498256Y-149020774D01*
X148471944Y-149007917D01*
X148448729Y-148992416D01*
X148374569Y-148917629D01*
X148331684Y-148826372D01*
X148321412Y-148727117D01*
X148345089Y-148628336D01*
G37*
X148345089Y-148628336D02*
X148381358Y-148565633D01*
X148417358Y-148522039D01*
X148455075Y-148490155D01*
X148501199Y-148468190D01*
X148562421Y-148454351D01*
X148645431Y-148446847D01*
X148756919Y-148443883D01*
X148837062Y-148443539D01*
X149132065Y-148443539D01*
X149206515Y-148609615D01*
X148883402Y-148619385D01*
X148762729Y-148623421D01*
X148675141Y-148627656D01*
X148614650Y-148632903D01*
X148575268Y-148639975D01*
X148551007Y-148649689D01*
X148535880Y-148662856D01*
X148532606Y-148667081D01*
X148507034Y-148731091D01*
X148517153Y-148795792D01*
X148544000Y-148834308D01*
X148563024Y-148849975D01*
X148587988Y-148860820D01*
X148625834Y-148867712D01*
X148683502Y-148871521D01*
X148767935Y-148873117D01*
X148855928Y-148873385D01*
X148966323Y-148873437D01*
X149044463Y-148875328D01*
X149097165Y-148881655D01*
X149131242Y-148895017D01*
X149153511Y-148918015D01*
X149170787Y-148953246D01*
X149188738Y-149000303D01*
X149208278Y-149051697D01*
X148861485Y-149045579D01*
X148736468Y-149043116D01*
X148644082Y-149040233D01*
X148577881Y-149036102D01*
X148531420Y-149029893D01*
X148498256Y-149020774D01*
X148471944Y-149007917D01*
X148448729Y-148992416D01*
X148374569Y-148917629D01*
X148331684Y-148826372D01*
X148321412Y-148727117D01*
X148345089Y-148628336D01*
G36*
X148334505Y-150131114D02*
G01*
X148371727Y-150056461D01*
X148440261Y-149990569D01*
X148465648Y-149972423D01*
X148498866Y-149952655D01*
X148534945Y-149939828D01*
X148583098Y-149932490D01*
X148652536Y-149929187D01*
X148744206Y-149928462D01*
X148869830Y-149931737D01*
X148964154Y-149943123D01*
X149034523Y-149964959D01*
X149088286Y-149999581D01*
X149132788Y-150049330D01*
X149135423Y-150052986D01*
X149162377Y-150102015D01*
X149175712Y-150161055D01*
X149179000Y-150236141D01*
X149179000Y-150358205D01*
X149297497Y-150358256D01*
X149363492Y-150359392D01*
X149402202Y-150366314D01*
X149425419Y-150384402D01*
X149444933Y-150419038D01*
X149448920Y-150427355D01*
X149467603Y-150466280D01*
X149479403Y-150496417D01*
X149480422Y-150518826D01*
X149466761Y-150534567D01*
X149434522Y-150544698D01*
X149379804Y-150550277D01*
X149298711Y-150552365D01*
X149187344Y-150552019D01*
X149041802Y-150550300D01*
X148998269Y-150549763D01*
X148848205Y-150547828D01*
X148750042Y-150546096D01*
X148750042Y-150358308D01*
X148833364Y-150357252D01*
X148887880Y-150352562D01*
X148923837Y-150341949D01*
X148951482Y-150323128D01*
X148964965Y-150310350D01*
X149004417Y-150258110D01*
X149007628Y-150211858D01*
X148975049Y-150164133D01*
X148973846Y-150162923D01*
X148948668Y-150143506D01*
X148914447Y-150131693D01*
X148861748Y-150125735D01*
X148781131Y-150123880D01*
X148763271Y-150123846D01*
X148652175Y-150128330D01*
X148575161Y-150142926D01*
X148528147Y-150169350D01*
X148507050Y-150209317D01*
X148504923Y-150232416D01*
X148514900Y-150287238D01*
X148547752Y-150324842D01*
X148607857Y-150347477D01*
X148699598Y-150357394D01*
X148750042Y-150358308D01*
X148750042Y-150546096D01*
X148732060Y-150545778D01*
X148644679Y-150543127D01*
X148580905Y-150539394D01*
X148535582Y-150534093D01*
X148503555Y-150526742D01*
X148479668Y-150516857D01*
X148458764Y-150503954D01*
X148450898Y-150498421D01*
X148376595Y-150425031D01*
X148334467Y-150332240D01*
X148322722Y-150224904D01*
X148334505Y-150131114D01*
G37*
X148334505Y-150131114D02*
X148371727Y-150056461D01*
X148440261Y-149990569D01*
X148465648Y-149972423D01*
X148498866Y-149952655D01*
X148534945Y-149939828D01*
X148583098Y-149932490D01*
X148652536Y-149929187D01*
X148744206Y-149928462D01*
X148869830Y-149931737D01*
X148964154Y-149943123D01*
X149034523Y-149964959D01*
X149088286Y-149999581D01*
X149132788Y-150049330D01*
X149135423Y-150052986D01*
X149162377Y-150102015D01*
X149175712Y-150161055D01*
X149179000Y-150236141D01*
X149179000Y-150358205D01*
X149297497Y-150358256D01*
X149363492Y-150359392D01*
X149402202Y-150366314D01*
X149425419Y-150384402D01*
X149444933Y-150419038D01*
X149448920Y-150427355D01*
X149467603Y-150466280D01*
X149479403Y-150496417D01*
X149480422Y-150518826D01*
X149466761Y-150534567D01*
X149434522Y-150544698D01*
X149379804Y-150550277D01*
X149298711Y-150552365D01*
X149187344Y-150552019D01*
X149041802Y-150550300D01*
X148998269Y-150549763D01*
X148848205Y-150547828D01*
X148750042Y-150546096D01*
X148750042Y-150358308D01*
X148833364Y-150357252D01*
X148887880Y-150352562D01*
X148923837Y-150341949D01*
X148951482Y-150323128D01*
X148964965Y-150310350D01*
X149004417Y-150258110D01*
X149007628Y-150211858D01*
X148975049Y-150164133D01*
X148973846Y-150162923D01*
X148948668Y-150143506D01*
X148914447Y-150131693D01*
X148861748Y-150125735D01*
X148781131Y-150123880D01*
X148763271Y-150123846D01*
X148652175Y-150128330D01*
X148575161Y-150142926D01*
X148528147Y-150169350D01*
X148507050Y-150209317D01*
X148504923Y-150232416D01*
X148514900Y-150287238D01*
X148547752Y-150324842D01*
X148607857Y-150347477D01*
X148699598Y-150357394D01*
X148750042Y-150358308D01*
X148750042Y-150546096D01*
X148732060Y-150545778D01*
X148644679Y-150543127D01*
X148580905Y-150539394D01*
X148535582Y-150534093D01*
X148503555Y-150526742D01*
X148479668Y-150516857D01*
X148458764Y-150503954D01*
X148450898Y-150498421D01*
X148376595Y-150425031D01*
X148334467Y-150332240D01*
X148322722Y-150224904D01*
X148334505Y-150131114D01*
D13*
X103884920Y-95996040D02*
X102884920Y-95996040D01*
X102884920Y-94636040D02*
X103884920Y-94636040D01*
X97238000Y-96103240D02*
X99238000Y-96103240D01*
X97238000Y-97353240D02*
X97238000Y-96103240D01*
X108688000Y-103103240D02*
X107938000Y-103103240D01*
X108688000Y-98803240D02*
X108688000Y-103103240D01*
X107938000Y-98803240D02*
X108688000Y-98803240D01*
X107938000Y-98453240D02*
X107938000Y-98803240D01*
X108438000Y-98453240D02*
X107938000Y-98453240D01*
X108688000Y-97453240D02*
X108438000Y-98453240D01*
X105688000Y-97453240D02*
X108688000Y-97453240D01*
X105938000Y-98453240D02*
X105688000Y-97453240D01*
X106438000Y-98453240D02*
X105938000Y-98453240D01*
X106438000Y-98803240D02*
X106438000Y-98453240D01*
X105688000Y-98803240D02*
X106438000Y-98803240D01*
X105688000Y-103103240D02*
X105688000Y-98803240D01*
X106438000Y-103103240D02*
X105688000Y-103103240D01*
X105188000Y-103103240D02*
X104438000Y-103103240D01*
X105188000Y-98803240D02*
X105188000Y-103103240D01*
X104438000Y-98803240D02*
X105188000Y-98803240D01*
X104438000Y-98453240D02*
X104438000Y-98803240D01*
X104938000Y-98453240D02*
X104438000Y-98453240D01*
X105188000Y-97453240D02*
X104938000Y-98453240D01*
X102188000Y-97453240D02*
X105188000Y-97453240D01*
X102438000Y-98453240D02*
X102188000Y-97453240D01*
X102938000Y-98453240D02*
X102438000Y-98453240D01*
X102938000Y-98803240D02*
X102938000Y-98453240D01*
X102188000Y-98803240D02*
X102938000Y-98803240D01*
X102188000Y-103103240D02*
X102188000Y-98803240D01*
X102938000Y-103103240D02*
X102188000Y-103103240D01*
X101688000Y-103103240D02*
X100938000Y-103103240D01*
X101688000Y-98803240D02*
X101688000Y-103103240D01*
X100938000Y-98803240D02*
X101688000Y-98803240D01*
X100938000Y-98453240D02*
X100938000Y-98803240D01*
X101438000Y-98453240D02*
X100938000Y-98453240D01*
X101688000Y-97453240D02*
X101438000Y-98453240D01*
X98688000Y-97453240D02*
X101688000Y-97453240D01*
X98938000Y-98453240D02*
X98688000Y-97453240D01*
X99438000Y-98453240D02*
X98938000Y-98453240D01*
X99438000Y-98803240D02*
X99438000Y-98453240D01*
X98688000Y-98803240D02*
X99438000Y-98803240D01*
X98688000Y-103103240D02*
X98688000Y-98803240D01*
X99438000Y-103103240D02*
X98688000Y-103103240D01*
X109718000Y-96523240D02*
X97658000Y-96523240D01*
X109718000Y-103933240D02*
X109718000Y-96523240D01*
X97658000Y-103933240D02*
X109718000Y-103933240D01*
X97658000Y-96523240D02*
X97658000Y-103933240D01*
X100937647Y-103103085D02*
G75*
G03*
X99438000Y-103103240I-749647J-1700155D01*
G01*
X104437647Y-103103085D02*
G75*
G03*
X102938000Y-103103240I-749647J-1700155D01*
G01*
X107937647Y-103103085D02*
G75*
G03*
X106438000Y-103103240I-749647J-1700155D01*
G01*
X97126000Y-108026000D02*
X99126000Y-108026000D01*
X97126000Y-109276000D02*
X97126000Y-108026000D01*
X108576000Y-115026000D02*
X107826000Y-115026000D01*
X108576000Y-110726000D02*
X108576000Y-115026000D01*
X107826000Y-110726000D02*
X108576000Y-110726000D01*
X107826000Y-110376000D02*
X107826000Y-110726000D01*
X108326000Y-110376000D02*
X107826000Y-110376000D01*
X108576000Y-109376000D02*
X108326000Y-110376000D01*
X105576000Y-109376000D02*
X108576000Y-109376000D01*
X105826000Y-110376000D02*
X105576000Y-109376000D01*
X106326000Y-110376000D02*
X105826000Y-110376000D01*
X106326000Y-110726000D02*
X106326000Y-110376000D01*
X105576000Y-110726000D02*
X106326000Y-110726000D01*
X105576000Y-115026000D02*
X105576000Y-110726000D01*
X106326000Y-115026000D02*
X105576000Y-115026000D01*
X105076000Y-115026000D02*
X104326000Y-115026000D01*
X105076000Y-110726000D02*
X105076000Y-115026000D01*
X104326000Y-110726000D02*
X105076000Y-110726000D01*
X104326000Y-110376000D02*
X104326000Y-110726000D01*
X104826000Y-110376000D02*
X104326000Y-110376000D01*
X105076000Y-109376000D02*
X104826000Y-110376000D01*
X102076000Y-109376000D02*
X105076000Y-109376000D01*
X102326000Y-110376000D02*
X102076000Y-109376000D01*
X102826000Y-110376000D02*
X102326000Y-110376000D01*
X102826000Y-110726000D02*
X102826000Y-110376000D01*
X102076000Y-110726000D02*
X102826000Y-110726000D01*
X102076000Y-115026000D02*
X102076000Y-110726000D01*
X102826000Y-115026000D02*
X102076000Y-115026000D01*
X101576000Y-115026000D02*
X100826000Y-115026000D01*
X101576000Y-110726000D02*
X101576000Y-115026000D01*
X100826000Y-110726000D02*
X101576000Y-110726000D01*
X100826000Y-110376000D02*
X100826000Y-110726000D01*
X101326000Y-110376000D02*
X100826000Y-110376000D01*
X101576000Y-109376000D02*
X101326000Y-110376000D01*
X98576000Y-109376000D02*
X101576000Y-109376000D01*
X98826000Y-110376000D02*
X98576000Y-109376000D01*
X99326000Y-110376000D02*
X98826000Y-110376000D01*
X99326000Y-110726000D02*
X99326000Y-110376000D01*
X98576000Y-110726000D02*
X99326000Y-110726000D01*
X98576000Y-115026000D02*
X98576000Y-110726000D01*
X99326000Y-115026000D02*
X98576000Y-115026000D01*
X109606000Y-108446000D02*
X97546000Y-108446000D01*
X109606000Y-115856000D02*
X109606000Y-108446000D01*
X97546000Y-115856000D02*
X109606000Y-115856000D01*
X97546000Y-108446000D02*
X97546000Y-115856000D01*
X100825647Y-115025845D02*
G75*
G03*
X99326000Y-115026000I-749647J-1700155D01*
G01*
X104325647Y-115025845D02*
G75*
G03*
X102826000Y-115026000I-749647J-1700155D01*
G01*
X107825647Y-115025845D02*
G75*
G03*
X106326000Y-115026000I-749647J-1700155D01*
G01*
X122035000Y-152070000D02*
X120035000Y-152070000D01*
X122035000Y-150820000D02*
X122035000Y-152070000D01*
X107085000Y-145070000D02*
X107835000Y-145070000D01*
X107085000Y-149370000D02*
X107085000Y-145070000D01*
X107835000Y-149370000D02*
X107085000Y-149370000D01*
X107835000Y-149720000D02*
X107835000Y-149370000D01*
X107335000Y-149720000D02*
X107835000Y-149720000D01*
X107085000Y-150720000D02*
X107335000Y-149720000D01*
X110085000Y-150720000D02*
X107085000Y-150720000D01*
X109835000Y-149720000D02*
X110085000Y-150720000D01*
X109335000Y-149720000D02*
X109835000Y-149720000D01*
X109335000Y-149370000D02*
X109335000Y-149720000D01*
X110085000Y-149370000D02*
X109335000Y-149370000D01*
X110085000Y-145070000D02*
X110085000Y-149370000D01*
X109335000Y-145070000D02*
X110085000Y-145070000D01*
X110585000Y-145070000D02*
X111335000Y-145070000D01*
X110585000Y-149370000D02*
X110585000Y-145070000D01*
X111335000Y-149370000D02*
X110585000Y-149370000D01*
X111335000Y-149720000D02*
X111335000Y-149370000D01*
X110835000Y-149720000D02*
X111335000Y-149720000D01*
X110585000Y-150720000D02*
X110835000Y-149720000D01*
X113585000Y-150720000D02*
X110585000Y-150720000D01*
X113335000Y-149720000D02*
X113585000Y-150720000D01*
X112835000Y-149720000D02*
X113335000Y-149720000D01*
X112835000Y-149370000D02*
X112835000Y-149720000D01*
X113585000Y-149370000D02*
X112835000Y-149370000D01*
X113585000Y-145070000D02*
X113585000Y-149370000D01*
X112835000Y-145070000D02*
X113585000Y-145070000D01*
X114085000Y-145070000D02*
X114835000Y-145070000D01*
X114085000Y-149370000D02*
X114085000Y-145070000D01*
X114835000Y-149370000D02*
X114085000Y-149370000D01*
X114835000Y-149720000D02*
X114835000Y-149370000D01*
X114335000Y-149720000D02*
X114835000Y-149720000D01*
X114085000Y-150720000D02*
X114335000Y-149720000D01*
X117085000Y-150720000D02*
X114085000Y-150720000D01*
X116835000Y-149720000D02*
X117085000Y-150720000D01*
X116335000Y-149720000D02*
X116835000Y-149720000D01*
X116335000Y-149370000D02*
X116335000Y-149720000D01*
X117085000Y-149370000D02*
X116335000Y-149370000D01*
X117085000Y-145070000D02*
X117085000Y-149370000D01*
X116335000Y-145070000D02*
X117085000Y-145070000D01*
X117585000Y-145070000D02*
X118335000Y-145070000D01*
X117585000Y-149370000D02*
X117585000Y-145070000D01*
X118335000Y-149370000D02*
X117585000Y-149370000D01*
X118335000Y-149720000D02*
X118335000Y-149370000D01*
X117835000Y-149720000D02*
X118335000Y-149720000D01*
X117585000Y-150720000D02*
X117835000Y-149720000D01*
X120585000Y-150720000D02*
X117585000Y-150720000D01*
X120335000Y-149720000D02*
X120585000Y-150720000D01*
X119835000Y-149720000D02*
X120335000Y-149720000D01*
X119835000Y-149370000D02*
X119835000Y-149720000D01*
X120585000Y-149370000D02*
X119835000Y-149370000D01*
X120585000Y-145070000D02*
X120585000Y-149370000D01*
X119835000Y-145070000D02*
X120585000Y-145070000D01*
X106055000Y-151650000D02*
X121615000Y-151650000D01*
X106055000Y-144240000D02*
X106055000Y-151650000D01*
X121615000Y-144240000D02*
X106055000Y-144240000D01*
X121615000Y-151650000D02*
X121615000Y-144240000D01*
X118335353Y-145070155D02*
G75*
G03*
X119835000Y-145070000I749647J1700155D01*
G01*
X114835353Y-145070155D02*
G75*
G03*
X116335000Y-145070000I749647J1700155D01*
G01*
X111335353Y-145070155D02*
G75*
G03*
X112835000Y-145070000I749647J1700155D01*
G01*
X107835353Y-145070155D02*
G75*
G03*
X109335000Y-145070000I749647J1700155D01*
G01*
X141705000Y-152070000D02*
X139705000Y-152070000D01*
X141705000Y-150820000D02*
X141705000Y-152070000D01*
X126755000Y-145070000D02*
X127505000Y-145070000D01*
X126755000Y-149370000D02*
X126755000Y-145070000D01*
X127505000Y-149370000D02*
X126755000Y-149370000D01*
X127505000Y-149720000D02*
X127505000Y-149370000D01*
X127005000Y-149720000D02*
X127505000Y-149720000D01*
X126755000Y-150720000D02*
X127005000Y-149720000D01*
X129755000Y-150720000D02*
X126755000Y-150720000D01*
X129505000Y-149720000D02*
X129755000Y-150720000D01*
X129005000Y-149720000D02*
X129505000Y-149720000D01*
X129005000Y-149370000D02*
X129005000Y-149720000D01*
X129755000Y-149370000D02*
X129005000Y-149370000D01*
X129755000Y-145070000D02*
X129755000Y-149370000D01*
X129005000Y-145070000D02*
X129755000Y-145070000D01*
X130255000Y-145070000D02*
X131005000Y-145070000D01*
X130255000Y-149370000D02*
X130255000Y-145070000D01*
X131005000Y-149370000D02*
X130255000Y-149370000D01*
X131005000Y-149720000D02*
X131005000Y-149370000D01*
X130505000Y-149720000D02*
X131005000Y-149720000D01*
X130255000Y-150720000D02*
X130505000Y-149720000D01*
X133255000Y-150720000D02*
X130255000Y-150720000D01*
X133005000Y-149720000D02*
X133255000Y-150720000D01*
X132505000Y-149720000D02*
X133005000Y-149720000D01*
X132505000Y-149370000D02*
X132505000Y-149720000D01*
X133255000Y-149370000D02*
X132505000Y-149370000D01*
X133255000Y-145070000D02*
X133255000Y-149370000D01*
X132505000Y-145070000D02*
X133255000Y-145070000D01*
X133755000Y-145070000D02*
X134505000Y-145070000D01*
X133755000Y-149370000D02*
X133755000Y-145070000D01*
X134505000Y-149370000D02*
X133755000Y-149370000D01*
X134505000Y-149720000D02*
X134505000Y-149370000D01*
X134005000Y-149720000D02*
X134505000Y-149720000D01*
X133755000Y-150720000D02*
X134005000Y-149720000D01*
X136755000Y-150720000D02*
X133755000Y-150720000D01*
X136505000Y-149720000D02*
X136755000Y-150720000D01*
X136005000Y-149720000D02*
X136505000Y-149720000D01*
X136005000Y-149370000D02*
X136005000Y-149720000D01*
X136755000Y-149370000D02*
X136005000Y-149370000D01*
X136755000Y-145070000D02*
X136755000Y-149370000D01*
X136005000Y-145070000D02*
X136755000Y-145070000D01*
X137255000Y-145070000D02*
X138005000Y-145070000D01*
X137255000Y-149370000D02*
X137255000Y-145070000D01*
X138005000Y-149370000D02*
X137255000Y-149370000D01*
X138005000Y-149720000D02*
X138005000Y-149370000D01*
X137505000Y-149720000D02*
X138005000Y-149720000D01*
X137255000Y-150720000D02*
X137505000Y-149720000D01*
X140255000Y-150720000D02*
X137255000Y-150720000D01*
X140005000Y-149720000D02*
X140255000Y-150720000D01*
X139505000Y-149720000D02*
X140005000Y-149720000D01*
X139505000Y-149370000D02*
X139505000Y-149720000D01*
X140255000Y-149370000D02*
X139505000Y-149370000D01*
X140255000Y-145070000D02*
X140255000Y-149370000D01*
X139505000Y-145070000D02*
X140255000Y-145070000D01*
X125725000Y-151650000D02*
X141285000Y-151650000D01*
X125725000Y-144240000D02*
X125725000Y-151650000D01*
X141285000Y-144240000D02*
X125725000Y-144240000D01*
X141285000Y-151650000D02*
X141285000Y-144240000D01*
X138005353Y-145070155D02*
G75*
G03*
X139505000Y-145070000I749647J1700155D01*
G01*
X134505353Y-145070155D02*
G75*
G03*
X136005000Y-145070000I749647J1700155D01*
G01*
X131005353Y-145070155D02*
G75*
G03*
X132505000Y-145070000I749647J1700155D01*
G01*
X127505353Y-145070155D02*
G75*
G03*
X129005000Y-145070000I749647J1700155D01*
G01*
X149022000Y-109882000D02*
X149022000Y-111882000D01*
X147772000Y-109882000D02*
X149022000Y-109882000D01*
X142022000Y-117832000D02*
X142022000Y-117082000D01*
X146322000Y-117832000D02*
X142022000Y-117832000D01*
X146322000Y-117082000D02*
X146322000Y-117832000D01*
X146672000Y-117082000D02*
X146322000Y-117082000D01*
X146672000Y-117582000D02*
X146672000Y-117082000D01*
X147672000Y-117832000D02*
X146672000Y-117582000D01*
X147672000Y-114832000D02*
X147672000Y-117832000D01*
X146672000Y-115082000D02*
X147672000Y-114832000D01*
X146672000Y-115582000D02*
X146672000Y-115082000D01*
X146322000Y-115582000D02*
X146672000Y-115582000D01*
X146322000Y-114832000D02*
X146322000Y-115582000D01*
X142022000Y-114832000D02*
X146322000Y-114832000D01*
X142022000Y-115582000D02*
X142022000Y-114832000D01*
X142022000Y-114332000D02*
X142022000Y-113582000D01*
X146322000Y-114332000D02*
X142022000Y-114332000D01*
X146322000Y-113582000D02*
X146322000Y-114332000D01*
X146672000Y-113582000D02*
X146322000Y-113582000D01*
X146672000Y-114082000D02*
X146672000Y-113582000D01*
X147672000Y-114332000D02*
X146672000Y-114082000D01*
X147672000Y-111332000D02*
X147672000Y-114332000D01*
X146672000Y-111582000D02*
X147672000Y-111332000D01*
X146672000Y-112082000D02*
X146672000Y-111582000D01*
X146322000Y-112082000D02*
X146672000Y-112082000D01*
X146322000Y-111332000D02*
X146322000Y-112082000D01*
X142022000Y-111332000D02*
X146322000Y-111332000D01*
X142022000Y-112082000D02*
X142022000Y-111332000D01*
X148602000Y-118862000D02*
X148602000Y-110302000D01*
X141192000Y-118862000D02*
X148602000Y-118862000D01*
X141192000Y-110302000D02*
X141192000Y-118862000D01*
X148602000Y-110302000D02*
X141192000Y-110302000D01*
X142022155Y-113581647D02*
G75*
G03*
X142022000Y-112082000I-1700155J749647D01*
G01*
X142022155Y-117081647D02*
G75*
G03*
X142022000Y-115582000I-1700155J749647D01*
G01*
X111545000Y-97290000D02*
X111545000Y-98290000D01*
X113245000Y-98290000D02*
X113245000Y-97290000D01*
X136945000Y-103640000D02*
X136945000Y-104640000D01*
X138645000Y-104640000D02*
X138645000Y-103640000D01*
X138850000Y-113800000D02*
X138850000Y-114800000D01*
X140550000Y-114800000D02*
X140550000Y-113800000D01*
X139950000Y-87010000D02*
X139950000Y-91510000D01*
X143950000Y-85760000D02*
X142450000Y-85760000D01*
X146450000Y-91510000D02*
X146450000Y-87010000D01*
X142450000Y-92760000D02*
X143950000Y-92760000D01*
X108116000Y-91860000D02*
X108116000Y-87360000D01*
X104116000Y-93110000D02*
X105616000Y-93110000D01*
X101616000Y-87360000D02*
X101616000Y-91860000D01*
X105616000Y-86110000D02*
X104116000Y-86110000D01*
X139410000Y-102000000D02*
X145420000Y-102000000D01*
X141660000Y-108820000D02*
X145420000Y-108820000D01*
X145420000Y-102000000D02*
X145420000Y-103260000D01*
X145420000Y-108820000D02*
X145420000Y-107560000D01*
X137290000Y-130555000D02*
X131890000Y-130555000D01*
X137290000Y-127255000D02*
X131890000Y-127255000D01*
X137290000Y-130555000D02*
X137290000Y-127255000D01*
X116970000Y-130555000D02*
X111570000Y-130555000D01*
X116970000Y-127255000D02*
X111570000Y-127255000D01*
X116970000Y-130555000D02*
X116970000Y-127255000D01*
X126620000Y-159705000D02*
X126620000Y-154305000D01*
X129920000Y-159705000D02*
X129920000Y-154305000D01*
X126620000Y-159705000D02*
X129920000Y-159705000D01*
X130430000Y-159705000D02*
X130430000Y-154305000D01*
X133730000Y-159705000D02*
X133730000Y-154305000D01*
X130430000Y-159705000D02*
X133730000Y-159705000D01*
X134240000Y-159705000D02*
X134240000Y-154305000D01*
X137540000Y-159705000D02*
X137540000Y-154305000D01*
X134240000Y-159705000D02*
X137540000Y-159705000D01*
X138050000Y-159705000D02*
X138050000Y-154305000D01*
X141350000Y-159705000D02*
X141350000Y-154305000D01*
X138050000Y-159705000D02*
X141350000Y-159705000D01*
X126620000Y-143195000D02*
X126620000Y-137795000D01*
X129920000Y-143195000D02*
X129920000Y-137795000D01*
X126620000Y-143195000D02*
X129920000Y-143195000D01*
X130430000Y-143195000D02*
X130430000Y-137795000D01*
X133730000Y-143195000D02*
X133730000Y-137795000D01*
X130430000Y-143195000D02*
X133730000Y-143195000D01*
X134240000Y-143195000D02*
X134240000Y-137795000D01*
X137540000Y-143195000D02*
X137540000Y-137795000D01*
X134240000Y-143195000D02*
X137540000Y-143195000D01*
X138050000Y-143195000D02*
X138050000Y-137795000D01*
X141350000Y-143195000D02*
X141350000Y-137795000D01*
X138050000Y-143195000D02*
X141350000Y-143195000D01*
X106300000Y-159705000D02*
X106300000Y-154305000D01*
X109600000Y-159705000D02*
X109600000Y-154305000D01*
X106300000Y-159705000D02*
X109600000Y-159705000D01*
X110110000Y-159705000D02*
X110110000Y-154305000D01*
X113410000Y-159705000D02*
X113410000Y-154305000D01*
X110110000Y-159705000D02*
X113410000Y-159705000D01*
X113920000Y-159705000D02*
X113920000Y-154305000D01*
X117220000Y-159705000D02*
X117220000Y-154305000D01*
X113920000Y-159705000D02*
X117220000Y-159705000D01*
X117730000Y-159705000D02*
X117730000Y-154305000D01*
X121030000Y-159705000D02*
X121030000Y-154305000D01*
X117730000Y-159705000D02*
X121030000Y-159705000D01*
X106300000Y-143195000D02*
X106300000Y-137795000D01*
X109600000Y-143195000D02*
X109600000Y-137795000D01*
X106300000Y-143195000D02*
X109600000Y-143195000D01*
X110110000Y-143195000D02*
X110110000Y-137795000D01*
X113410000Y-143195000D02*
X113410000Y-137795000D01*
X110110000Y-143195000D02*
X113410000Y-143195000D01*
X113920000Y-143195000D02*
X113920000Y-137795000D01*
X117220000Y-143195000D02*
X117220000Y-137795000D01*
X113920000Y-143195000D02*
X117220000Y-143195000D01*
X117730000Y-143195000D02*
X117730000Y-137795000D01*
X121030000Y-143195000D02*
X121030000Y-137795000D01*
X117730000Y-143195000D02*
X121030000Y-143195000D01*
X115020000Y-95125000D02*
X114640000Y-95125000D01*
X115020000Y-88705000D02*
X115020000Y-95125000D01*
X133260000Y-88705000D02*
X133260000Y-95125000D01*
X115020000Y-88705000D02*
X133260000Y-88705000D01*
X133260000Y-114450000D02*
X132260000Y-114450000D01*
X133260000Y-113670000D02*
X133260000Y-114450000D01*
X115020000Y-114450000D02*
X116020000Y-114450000D01*
X115020000Y-113670000D02*
X115020000Y-114450000D01*
X140970000Y-96460000D02*
X135830000Y-96460000D01*
X135830000Y-96460000D02*
X135830000Y-99120000D01*
X135830000Y-99120000D02*
X140970000Y-99120000D01*
X140970000Y-99120000D02*
X140970000Y-96460000D01*
X142240000Y-96460000D02*
X143570000Y-96460000D01*
X143570000Y-96460000D02*
X143570000Y-97790000D01*
X102740000Y-122555000D02*
X123320000Y-122555000D01*
X105410000Y-132715000D02*
X123320000Y-132715000D01*
X102740000Y-133985000D02*
X102740000Y-135385000D01*
X102740000Y-135385000D02*
X104140000Y-135385000D01*
X102740000Y-132715000D02*
X105410000Y-132715000D01*
X105410000Y-132715000D02*
X105410000Y-135385000D01*
X105410000Y-135385000D02*
X123320000Y-135385000D01*
X123320000Y-135385000D02*
X123320000Y-119885000D01*
X123320000Y-119885000D02*
X102740000Y-119885000D01*
X102740000Y-119885000D02*
X102740000Y-132715000D01*
X123060000Y-122555000D02*
X143640000Y-122555000D01*
X125730000Y-132715000D02*
X143640000Y-132715000D01*
X123060000Y-133985000D02*
X123060000Y-135385000D01*
X123060000Y-135385000D02*
X124460000Y-135385000D01*
X123060000Y-132715000D02*
X125730000Y-132715000D01*
X125730000Y-132715000D02*
X125730000Y-135385000D01*
X125730000Y-135385000D02*
X143640000Y-135385000D01*
X143640000Y-135385000D02*
X143640000Y-119885000D01*
X143640000Y-119885000D02*
X123060000Y-119885000D01*
X123060000Y-119885000D02*
X123060000Y-132715000D01*
D10*
X145588095Y-155652380D02*
X145588095Y-154652380D01*
X145588095Y-155128571D02*
X146159523Y-155128571D01*
X146159523Y-155652380D02*
X146159523Y-154652380D01*
X147064285Y-154985714D02*
X147064285Y-155652380D01*
X146826190Y-154604761D02*
X146588095Y-155319047D01*
X147207142Y-155319047D01*
X100688095Y-155652380D02*
X100688095Y-154652380D01*
X100688095Y-155128571D02*
X101259523Y-155128571D01*
X101259523Y-155652380D02*
X101259523Y-154652380D01*
X101640476Y-154652380D02*
X102259523Y-154652380D01*
X101926190Y-155033333D01*
X102069047Y-155033333D01*
X102164285Y-155080952D01*
X102211904Y-155128571D01*
X102259523Y-155223809D01*
X102259523Y-155461904D01*
X102211904Y-155557142D01*
X102164285Y-155604761D01*
X102069047Y-155652380D01*
X101783333Y-155652380D01*
X101688095Y-155604761D01*
X101640476Y-155557142D01*
X100688095Y-76202380D02*
X100688095Y-75202380D01*
X100688095Y-75678571D02*
X101259523Y-75678571D01*
X101259523Y-76202380D02*
X101259523Y-75202380D01*
X101688095Y-75297619D02*
X101735714Y-75250000D01*
X101830952Y-75202380D01*
X102069047Y-75202380D01*
X102164285Y-75250000D01*
X102211904Y-75297619D01*
X102259523Y-75392857D01*
X102259523Y-75488095D01*
X102211904Y-75630952D01*
X101640476Y-76202380D01*
X102259523Y-76202380D01*
X145588095Y-76202380D02*
X145588095Y-75202380D01*
X145588095Y-75678571D02*
X146159523Y-75678571D01*
X146159523Y-76202380D02*
X146159523Y-75202380D01*
X147159523Y-76202380D02*
X146588095Y-76202380D01*
X146873809Y-76202380D02*
X146873809Y-75202380D01*
X146778571Y-75345238D01*
X146683333Y-75440476D01*
X146588095Y-75488095D01*
X105695453Y-95768420D02*
X105362120Y-95292230D01*
X105124024Y-95768420D02*
X105124024Y-94768420D01*
X105504977Y-94768420D01*
X105600215Y-94816040D01*
X105647834Y-94863659D01*
X105695453Y-94958897D01*
X105695453Y-95101754D01*
X105647834Y-95196992D01*
X105600215Y-95244611D01*
X105504977Y-95292230D01*
X105124024Y-95292230D01*
X106647834Y-95768420D02*
X106076405Y-95768420D01*
X106362120Y-95768420D02*
X106362120Y-94768420D01*
X106266881Y-94911278D01*
X106171643Y-95006516D01*
X106076405Y-95054135D01*
X111025346Y-99599500D02*
X111025346Y-100313786D01*
X110977727Y-100456643D01*
X110882489Y-100551881D01*
X110739632Y-100599500D01*
X110644394Y-100599500D01*
X111406299Y-99599500D02*
X112025346Y-99599500D01*
X111692013Y-99980453D01*
X111834870Y-99980453D01*
X111930108Y-100028072D01*
X111977727Y-100075691D01*
X112025346Y-100170929D01*
X112025346Y-100409024D01*
X111977727Y-100504262D01*
X111930108Y-100551881D01*
X111834870Y-100599500D01*
X111549156Y-100599500D01*
X111453918Y-100551881D01*
X111406299Y-100504262D01*
X110568146Y-111369860D02*
X110568146Y-112084146D01*
X110520527Y-112227003D01*
X110425289Y-112322241D01*
X110282432Y-112369860D01*
X110187194Y-112369860D01*
X111472908Y-111703194D02*
X111472908Y-112369860D01*
X111234813Y-111322241D02*
X110996718Y-112036527D01*
X111615765Y-112036527D01*
X104314666Y-147280380D02*
X104314666Y-147994666D01*
X104267047Y-148137523D01*
X104171809Y-148232761D01*
X104028952Y-148280380D01*
X103933714Y-148280380D01*
X104743238Y-147375619D02*
X104790857Y-147328000D01*
X104886095Y-147280380D01*
X105124190Y-147280380D01*
X105219428Y-147328000D01*
X105267047Y-147375619D01*
X105314666Y-147470857D01*
X105314666Y-147566095D01*
X105267047Y-147708952D01*
X104695619Y-148280380D01*
X105314666Y-148280380D01*
X124126666Y-147407380D02*
X124126666Y-148121666D01*
X124079047Y-148264523D01*
X123983809Y-148359761D01*
X123840952Y-148407380D01*
X123745714Y-148407380D01*
X125126666Y-148407380D02*
X124555238Y-148407380D01*
X124840952Y-148407380D02*
X124840952Y-147407380D01*
X124745714Y-147550238D01*
X124650476Y-147645476D01*
X124555238Y-147693095D01*
X144562580Y-120861413D02*
X145276866Y-120861413D01*
X145419723Y-120909032D01*
X145514961Y-121004270D01*
X145562580Y-121147127D01*
X145562580Y-121242365D01*
X144562580Y-120194746D02*
X144562580Y-120099508D01*
X144610200Y-120004270D01*
X144657819Y-119956651D01*
X144753057Y-119909032D01*
X144943533Y-119861413D01*
X145181628Y-119861413D01*
X145372104Y-119909032D01*
X145467342Y-119956651D01*
X145514961Y-120004270D01*
X145562580Y-120099508D01*
X145562580Y-120194746D01*
X145514961Y-120289984D01*
X145467342Y-120337603D01*
X145372104Y-120385222D01*
X145181628Y-120432841D01*
X144943533Y-120432841D01*
X144753057Y-120385222D01*
X144657819Y-120337603D01*
X144610200Y-120289984D01*
X144562580Y-120194746D01*
X111252142Y-97956666D02*
X111299761Y-98004285D01*
X111347380Y-98147142D01*
X111347380Y-98242380D01*
X111299761Y-98385238D01*
X111204523Y-98480476D01*
X111109285Y-98528095D01*
X110918809Y-98575714D01*
X110775952Y-98575714D01*
X110585476Y-98528095D01*
X110490238Y-98480476D01*
X110395000Y-98385238D01*
X110347380Y-98242380D01*
X110347380Y-98147142D01*
X110395000Y-98004285D01*
X110442619Y-97956666D01*
X110347380Y-97623333D02*
X110347380Y-97004285D01*
X110728333Y-97337619D01*
X110728333Y-97194761D01*
X110775952Y-97099523D01*
X110823571Y-97051904D01*
X110918809Y-97004285D01*
X111156904Y-97004285D01*
X111252142Y-97051904D01*
X111299761Y-97099523D01*
X111347380Y-97194761D01*
X111347380Y-97480476D01*
X111299761Y-97575714D01*
X111252142Y-97623333D01*
X136652142Y-104306666D02*
X136699761Y-104354285D01*
X136747380Y-104497142D01*
X136747380Y-104592380D01*
X136699761Y-104735238D01*
X136604523Y-104830476D01*
X136509285Y-104878095D01*
X136318809Y-104925714D01*
X136175952Y-104925714D01*
X135985476Y-104878095D01*
X135890238Y-104830476D01*
X135795000Y-104735238D01*
X135747380Y-104592380D01*
X135747380Y-104497142D01*
X135795000Y-104354285D01*
X135842619Y-104306666D01*
X135842619Y-103925714D02*
X135795000Y-103878095D01*
X135747380Y-103782857D01*
X135747380Y-103544761D01*
X135795000Y-103449523D01*
X135842619Y-103401904D01*
X135937857Y-103354285D01*
X136033095Y-103354285D01*
X136175952Y-103401904D01*
X136747380Y-103973333D01*
X136747380Y-103354285D01*
X138557142Y-114466666D02*
X138604761Y-114514285D01*
X138652380Y-114657142D01*
X138652380Y-114752380D01*
X138604761Y-114895238D01*
X138509523Y-114990476D01*
X138414285Y-115038095D01*
X138223809Y-115085714D01*
X138080952Y-115085714D01*
X137890476Y-115038095D01*
X137795238Y-114990476D01*
X137700000Y-114895238D01*
X137652380Y-114752380D01*
X137652380Y-114657142D01*
X137700000Y-114514285D01*
X137747619Y-114466666D01*
X138652380Y-113514285D02*
X138652380Y-114085714D01*
X138652380Y-113800000D02*
X137652380Y-113800000D01*
X137795238Y-113895238D01*
X137890476Y-113990476D01*
X137938095Y-114085714D01*
X148154761Y-93983333D02*
X148202380Y-93840476D01*
X148202380Y-93602380D01*
X148154761Y-93507142D01*
X148107142Y-93459523D01*
X148011904Y-93411904D01*
X147916666Y-93411904D01*
X147821428Y-93459523D01*
X147773809Y-93507142D01*
X147726190Y-93602380D01*
X147678571Y-93792857D01*
X147630952Y-93888095D01*
X147583333Y-93935714D01*
X147488095Y-93983333D01*
X147392857Y-93983333D01*
X147297619Y-93935714D01*
X147250000Y-93888095D01*
X147202380Y-93792857D01*
X147202380Y-93554761D01*
X147250000Y-93411904D01*
X147202380Y-93078571D02*
X148202380Y-92840476D01*
X147488095Y-92650000D01*
X148202380Y-92459523D01*
X147202380Y-92221428D01*
X147297619Y-91888095D02*
X147250000Y-91840476D01*
X147202380Y-91745238D01*
X147202380Y-91507142D01*
X147250000Y-91411904D01*
X147297619Y-91364285D01*
X147392857Y-91316666D01*
X147488095Y-91316666D01*
X147630952Y-91364285D01*
X148202380Y-91935714D01*
X148202380Y-91316666D01*
X100654761Y-94083333D02*
X100702380Y-93940476D01*
X100702380Y-93702380D01*
X100654761Y-93607142D01*
X100607142Y-93559523D01*
X100511904Y-93511904D01*
X100416666Y-93511904D01*
X100321428Y-93559523D01*
X100273809Y-93607142D01*
X100226190Y-93702380D01*
X100178571Y-93892857D01*
X100130952Y-93988095D01*
X100083333Y-94035714D01*
X99988095Y-94083333D01*
X99892857Y-94083333D01*
X99797619Y-94035714D01*
X99750000Y-93988095D01*
X99702380Y-93892857D01*
X99702380Y-93654761D01*
X99750000Y-93511904D01*
X99702380Y-93178571D02*
X100702380Y-92940476D01*
X99988095Y-92750000D01*
X100702380Y-92559523D01*
X99702380Y-92321428D01*
X100702380Y-91416666D02*
X100702380Y-91988095D01*
X100702380Y-91702380D02*
X99702380Y-91702380D01*
X99845238Y-91797619D01*
X99940476Y-91892857D01*
X99988095Y-91988095D01*
X148270055Y-104715060D02*
X148270055Y-105524584D01*
X148317674Y-105619822D01*
X148365293Y-105667441D01*
X148460531Y-105715060D01*
X148651007Y-105715060D01*
X148746245Y-105667441D01*
X148793864Y-105619822D01*
X148841483Y-105524584D01*
X148841483Y-104715060D01*
X149270055Y-104810299D02*
X149317674Y-104762680D01*
X149412912Y-104715060D01*
X149651007Y-104715060D01*
X149746245Y-104762680D01*
X149793864Y-104810299D01*
X149841483Y-104905537D01*
X149841483Y-105000775D01*
X149793864Y-105143632D01*
X149222436Y-105715060D01*
X149841483Y-105715060D01*
X132675714Y-131857380D02*
X132675714Y-130857380D01*
X132913809Y-130857380D01*
X133056666Y-130905000D01*
X133151904Y-131000238D01*
X133199523Y-131095476D01*
X133247142Y-131285952D01*
X133247142Y-131428809D01*
X133199523Y-131619285D01*
X133151904Y-131714523D01*
X133056666Y-131809761D01*
X132913809Y-131857380D01*
X132675714Y-131857380D01*
X134199523Y-131857380D02*
X133628095Y-131857380D01*
X133913809Y-131857380D02*
X133913809Y-130857380D01*
X133818571Y-131000238D01*
X133723333Y-131095476D01*
X133628095Y-131143095D01*
X134770952Y-131285952D02*
X134675714Y-131238333D01*
X134628095Y-131190714D01*
X134580476Y-131095476D01*
X134580476Y-131047857D01*
X134628095Y-130952619D01*
X134675714Y-130905000D01*
X134770952Y-130857380D01*
X134961428Y-130857380D01*
X135056666Y-130905000D01*
X135104285Y-130952619D01*
X135151904Y-131047857D01*
X135151904Y-131095476D01*
X135104285Y-131190714D01*
X135056666Y-131238333D01*
X134961428Y-131285952D01*
X134770952Y-131285952D01*
X134675714Y-131333571D01*
X134628095Y-131381190D01*
X134580476Y-131476428D01*
X134580476Y-131666904D01*
X134628095Y-131762142D01*
X134675714Y-131809761D01*
X134770952Y-131857380D01*
X134961428Y-131857380D01*
X135056666Y-131809761D01*
X135104285Y-131762142D01*
X135151904Y-131666904D01*
X135151904Y-131476428D01*
X135104285Y-131381190D01*
X135056666Y-131333571D01*
X134961428Y-131285952D01*
X112355714Y-131857380D02*
X112355714Y-130857380D01*
X112593809Y-130857380D01*
X112736666Y-130905000D01*
X112831904Y-131000238D01*
X112879523Y-131095476D01*
X112927142Y-131285952D01*
X112927142Y-131428809D01*
X112879523Y-131619285D01*
X112831904Y-131714523D01*
X112736666Y-131809761D01*
X112593809Y-131857380D01*
X112355714Y-131857380D01*
X113879523Y-131857380D02*
X113308095Y-131857380D01*
X113593809Y-131857380D02*
X113593809Y-130857380D01*
X113498571Y-131000238D01*
X113403333Y-131095476D01*
X113308095Y-131143095D01*
X114212857Y-130857380D02*
X114879523Y-130857380D01*
X114450952Y-131857380D01*
X128722380Y-163139285D02*
X127722380Y-163139285D01*
X127722380Y-162901190D01*
X127770000Y-162758333D01*
X127865238Y-162663095D01*
X127960476Y-162615476D01*
X128150952Y-162567857D01*
X128293809Y-162567857D01*
X128484285Y-162615476D01*
X128579523Y-162663095D01*
X128674761Y-162758333D01*
X128722380Y-162901190D01*
X128722380Y-163139285D01*
X128722380Y-161615476D02*
X128722380Y-162186904D01*
X128722380Y-161901190D02*
X127722380Y-161901190D01*
X127865238Y-161996428D01*
X127960476Y-162091666D01*
X128008095Y-162186904D01*
X127722380Y-160758333D02*
X127722380Y-160948809D01*
X127770000Y-161044047D01*
X127817619Y-161091666D01*
X127960476Y-161186904D01*
X128150952Y-161234523D01*
X128531904Y-161234523D01*
X128627142Y-161186904D01*
X128674761Y-161139285D01*
X128722380Y-161044047D01*
X128722380Y-160853571D01*
X128674761Y-160758333D01*
X128627142Y-160710714D01*
X128531904Y-160663095D01*
X128293809Y-160663095D01*
X128198571Y-160710714D01*
X128150952Y-160758333D01*
X128103333Y-160853571D01*
X128103333Y-161044047D01*
X128150952Y-161139285D01*
X128198571Y-161186904D01*
X128293809Y-161234523D01*
X132532380Y-163139285D02*
X131532380Y-163139285D01*
X131532380Y-162901190D01*
X131580000Y-162758333D01*
X131675238Y-162663095D01*
X131770476Y-162615476D01*
X131960952Y-162567857D01*
X132103809Y-162567857D01*
X132294285Y-162615476D01*
X132389523Y-162663095D01*
X132484761Y-162758333D01*
X132532380Y-162901190D01*
X132532380Y-163139285D01*
X132532380Y-161615476D02*
X132532380Y-162186904D01*
X132532380Y-161901190D02*
X131532380Y-161901190D01*
X131675238Y-161996428D01*
X131770476Y-162091666D01*
X131818095Y-162186904D01*
X131532380Y-160710714D02*
X131532380Y-161186904D01*
X132008571Y-161234523D01*
X131960952Y-161186904D01*
X131913333Y-161091666D01*
X131913333Y-160853571D01*
X131960952Y-160758333D01*
X132008571Y-160710714D01*
X132103809Y-160663095D01*
X132341904Y-160663095D01*
X132437142Y-160710714D01*
X132484761Y-160758333D01*
X132532380Y-160853571D01*
X132532380Y-161091666D01*
X132484761Y-161186904D01*
X132437142Y-161234523D01*
X136342380Y-163139285D02*
X135342380Y-163139285D01*
X135342380Y-162901190D01*
X135390000Y-162758333D01*
X135485238Y-162663095D01*
X135580476Y-162615476D01*
X135770952Y-162567857D01*
X135913809Y-162567857D01*
X136104285Y-162615476D01*
X136199523Y-162663095D01*
X136294761Y-162758333D01*
X136342380Y-162901190D01*
X136342380Y-163139285D01*
X136342380Y-161615476D02*
X136342380Y-162186904D01*
X136342380Y-161901190D02*
X135342380Y-161901190D01*
X135485238Y-161996428D01*
X135580476Y-162091666D01*
X135628095Y-162186904D01*
X135675714Y-160758333D02*
X136342380Y-160758333D01*
X135294761Y-160996428D02*
X136009047Y-161234523D01*
X136009047Y-160615476D01*
X140152380Y-163139285D02*
X139152380Y-163139285D01*
X139152380Y-162901190D01*
X139200000Y-162758333D01*
X139295238Y-162663095D01*
X139390476Y-162615476D01*
X139580952Y-162567857D01*
X139723809Y-162567857D01*
X139914285Y-162615476D01*
X140009523Y-162663095D01*
X140104761Y-162758333D01*
X140152380Y-162901190D01*
X140152380Y-163139285D01*
X140152380Y-161615476D02*
X140152380Y-162186904D01*
X140152380Y-161901190D02*
X139152380Y-161901190D01*
X139295238Y-161996428D01*
X139390476Y-162091666D01*
X139438095Y-162186904D01*
X139152380Y-161282142D02*
X139152380Y-160663095D01*
X139533333Y-160996428D01*
X139533333Y-160853571D01*
X139580952Y-160758333D01*
X139628571Y-160710714D01*
X139723809Y-160663095D01*
X139961904Y-160663095D01*
X140057142Y-160710714D01*
X140104761Y-160758333D01*
X140152380Y-160853571D01*
X140152380Y-161139285D01*
X140104761Y-161234523D01*
X140057142Y-161282142D01*
X128722380Y-146629285D02*
X127722380Y-146629285D01*
X127722380Y-146391190D01*
X127770000Y-146248333D01*
X127865238Y-146153095D01*
X127960476Y-146105476D01*
X128150952Y-146057857D01*
X128293809Y-146057857D01*
X128484285Y-146105476D01*
X128579523Y-146153095D01*
X128674761Y-146248333D01*
X128722380Y-146391190D01*
X128722380Y-146629285D01*
X128722380Y-145105476D02*
X128722380Y-145676904D01*
X128722380Y-145391190D02*
X127722380Y-145391190D01*
X127865238Y-145486428D01*
X127960476Y-145581666D01*
X128008095Y-145676904D01*
X127817619Y-144724523D02*
X127770000Y-144676904D01*
X127722380Y-144581666D01*
X127722380Y-144343571D01*
X127770000Y-144248333D01*
X127817619Y-144200714D01*
X127912857Y-144153095D01*
X128008095Y-144153095D01*
X128150952Y-144200714D01*
X128722380Y-144772142D01*
X128722380Y-144153095D01*
X132532380Y-146629285D02*
X131532380Y-146629285D01*
X131532380Y-146391190D01*
X131580000Y-146248333D01*
X131675238Y-146153095D01*
X131770476Y-146105476D01*
X131960952Y-146057857D01*
X132103809Y-146057857D01*
X132294285Y-146105476D01*
X132389523Y-146153095D01*
X132484761Y-146248333D01*
X132532380Y-146391190D01*
X132532380Y-146629285D01*
X132532380Y-145105476D02*
X132532380Y-145676904D01*
X132532380Y-145391190D02*
X131532380Y-145391190D01*
X131675238Y-145486428D01*
X131770476Y-145581666D01*
X131818095Y-145676904D01*
X132532380Y-144153095D02*
X132532380Y-144724523D01*
X132532380Y-144438809D02*
X131532380Y-144438809D01*
X131675238Y-144534047D01*
X131770476Y-144629285D01*
X131818095Y-144724523D01*
X136342380Y-146629285D02*
X135342380Y-146629285D01*
X135342380Y-146391190D01*
X135390000Y-146248333D01*
X135485238Y-146153095D01*
X135580476Y-146105476D01*
X135770952Y-146057857D01*
X135913809Y-146057857D01*
X136104285Y-146105476D01*
X136199523Y-146153095D01*
X136294761Y-146248333D01*
X136342380Y-146391190D01*
X136342380Y-146629285D01*
X136342380Y-145105476D02*
X136342380Y-145676904D01*
X136342380Y-145391190D02*
X135342380Y-145391190D01*
X135485238Y-145486428D01*
X135580476Y-145581666D01*
X135628095Y-145676904D01*
X135342380Y-144486428D02*
X135342380Y-144391190D01*
X135390000Y-144295952D01*
X135437619Y-144248333D01*
X135532857Y-144200714D01*
X135723333Y-144153095D01*
X135961428Y-144153095D01*
X136151904Y-144200714D01*
X136247142Y-144248333D01*
X136294761Y-144295952D01*
X136342380Y-144391190D01*
X136342380Y-144486428D01*
X136294761Y-144581666D01*
X136247142Y-144629285D01*
X136151904Y-144676904D01*
X135961428Y-144724523D01*
X135723333Y-144724523D01*
X135532857Y-144676904D01*
X135437619Y-144629285D01*
X135390000Y-144581666D01*
X135342380Y-144486428D01*
X140152380Y-146153095D02*
X139152380Y-146153095D01*
X139152380Y-145915000D01*
X139200000Y-145772142D01*
X139295238Y-145676904D01*
X139390476Y-145629285D01*
X139580952Y-145581666D01*
X139723809Y-145581666D01*
X139914285Y-145629285D01*
X140009523Y-145676904D01*
X140104761Y-145772142D01*
X140152380Y-145915000D01*
X140152380Y-146153095D01*
X140152380Y-145105476D02*
X140152380Y-144915000D01*
X140104761Y-144819761D01*
X140057142Y-144772142D01*
X139914285Y-144676904D01*
X139723809Y-144629285D01*
X139342857Y-144629285D01*
X139247619Y-144676904D01*
X139200000Y-144724523D01*
X139152380Y-144819761D01*
X139152380Y-145010238D01*
X139200000Y-145105476D01*
X139247619Y-145153095D01*
X139342857Y-145200714D01*
X139580952Y-145200714D01*
X139676190Y-145153095D01*
X139723809Y-145105476D01*
X139771428Y-145010238D01*
X139771428Y-144819761D01*
X139723809Y-144724523D01*
X139676190Y-144676904D01*
X139580952Y-144629285D01*
X108402380Y-162663095D02*
X107402380Y-162663095D01*
X107402380Y-162425000D01*
X107450000Y-162282142D01*
X107545238Y-162186904D01*
X107640476Y-162139285D01*
X107830952Y-162091666D01*
X107973809Y-162091666D01*
X108164285Y-162139285D01*
X108259523Y-162186904D01*
X108354761Y-162282142D01*
X108402380Y-162425000D01*
X108402380Y-162663095D01*
X107830952Y-161520238D02*
X107783333Y-161615476D01*
X107735714Y-161663095D01*
X107640476Y-161710714D01*
X107592857Y-161710714D01*
X107497619Y-161663095D01*
X107450000Y-161615476D01*
X107402380Y-161520238D01*
X107402380Y-161329761D01*
X107450000Y-161234523D01*
X107497619Y-161186904D01*
X107592857Y-161139285D01*
X107640476Y-161139285D01*
X107735714Y-161186904D01*
X107783333Y-161234523D01*
X107830952Y-161329761D01*
X107830952Y-161520238D01*
X107878571Y-161615476D01*
X107926190Y-161663095D01*
X108021428Y-161710714D01*
X108211904Y-161710714D01*
X108307142Y-161663095D01*
X108354761Y-161615476D01*
X108402380Y-161520238D01*
X108402380Y-161329761D01*
X108354761Y-161234523D01*
X108307142Y-161186904D01*
X108211904Y-161139285D01*
X108021428Y-161139285D01*
X107926190Y-161186904D01*
X107878571Y-161234523D01*
X107830952Y-161329761D01*
X112212380Y-162663095D02*
X111212380Y-162663095D01*
X111212380Y-162425000D01*
X111260000Y-162282142D01*
X111355238Y-162186904D01*
X111450476Y-162139285D01*
X111640952Y-162091666D01*
X111783809Y-162091666D01*
X111974285Y-162139285D01*
X112069523Y-162186904D01*
X112164761Y-162282142D01*
X112212380Y-162425000D01*
X112212380Y-162663095D01*
X111212380Y-161758333D02*
X111212380Y-161091666D01*
X112212380Y-161520238D01*
X116022380Y-162663095D02*
X115022380Y-162663095D01*
X115022380Y-162425000D01*
X115070000Y-162282142D01*
X115165238Y-162186904D01*
X115260476Y-162139285D01*
X115450952Y-162091666D01*
X115593809Y-162091666D01*
X115784285Y-162139285D01*
X115879523Y-162186904D01*
X115974761Y-162282142D01*
X116022380Y-162425000D01*
X116022380Y-162663095D01*
X115022380Y-161234523D02*
X115022380Y-161425000D01*
X115070000Y-161520238D01*
X115117619Y-161567857D01*
X115260476Y-161663095D01*
X115450952Y-161710714D01*
X115831904Y-161710714D01*
X115927142Y-161663095D01*
X115974761Y-161615476D01*
X116022380Y-161520238D01*
X116022380Y-161329761D01*
X115974761Y-161234523D01*
X115927142Y-161186904D01*
X115831904Y-161139285D01*
X115593809Y-161139285D01*
X115498571Y-161186904D01*
X115450952Y-161234523D01*
X115403333Y-161329761D01*
X115403333Y-161520238D01*
X115450952Y-161615476D01*
X115498571Y-161663095D01*
X115593809Y-161710714D01*
X119832380Y-162663095D02*
X118832380Y-162663095D01*
X118832380Y-162425000D01*
X118880000Y-162282142D01*
X118975238Y-162186904D01*
X119070476Y-162139285D01*
X119260952Y-162091666D01*
X119403809Y-162091666D01*
X119594285Y-162139285D01*
X119689523Y-162186904D01*
X119784761Y-162282142D01*
X119832380Y-162425000D01*
X119832380Y-162663095D01*
X118832380Y-161186904D02*
X118832380Y-161663095D01*
X119308571Y-161710714D01*
X119260952Y-161663095D01*
X119213333Y-161567857D01*
X119213333Y-161329761D01*
X119260952Y-161234523D01*
X119308571Y-161186904D01*
X119403809Y-161139285D01*
X119641904Y-161139285D01*
X119737142Y-161186904D01*
X119784761Y-161234523D01*
X119832380Y-161329761D01*
X119832380Y-161567857D01*
X119784761Y-161663095D01*
X119737142Y-161710714D01*
X108402380Y-146153095D02*
X107402380Y-146153095D01*
X107402380Y-145915000D01*
X107450000Y-145772142D01*
X107545238Y-145676904D01*
X107640476Y-145629285D01*
X107830952Y-145581666D01*
X107973809Y-145581666D01*
X108164285Y-145629285D01*
X108259523Y-145676904D01*
X108354761Y-145772142D01*
X108402380Y-145915000D01*
X108402380Y-146153095D01*
X107735714Y-144724523D02*
X108402380Y-144724523D01*
X107354761Y-144962619D02*
X108069047Y-145200714D01*
X108069047Y-144581666D01*
X112212380Y-146153095D02*
X111212380Y-146153095D01*
X111212380Y-145915000D01*
X111260000Y-145772142D01*
X111355238Y-145676904D01*
X111450476Y-145629285D01*
X111640952Y-145581666D01*
X111783809Y-145581666D01*
X111974285Y-145629285D01*
X112069523Y-145676904D01*
X112164761Y-145772142D01*
X112212380Y-145915000D01*
X112212380Y-146153095D01*
X111212380Y-145248333D02*
X111212380Y-144629285D01*
X111593333Y-144962619D01*
X111593333Y-144819761D01*
X111640952Y-144724523D01*
X111688571Y-144676904D01*
X111783809Y-144629285D01*
X112021904Y-144629285D01*
X112117142Y-144676904D01*
X112164761Y-144724523D01*
X112212380Y-144819761D01*
X112212380Y-145105476D01*
X112164761Y-145200714D01*
X112117142Y-145248333D01*
X116022380Y-146153095D02*
X115022380Y-146153095D01*
X115022380Y-145915000D01*
X115070000Y-145772142D01*
X115165238Y-145676904D01*
X115260476Y-145629285D01*
X115450952Y-145581666D01*
X115593809Y-145581666D01*
X115784285Y-145629285D01*
X115879523Y-145676904D01*
X115974761Y-145772142D01*
X116022380Y-145915000D01*
X116022380Y-146153095D01*
X115117619Y-145200714D02*
X115070000Y-145153095D01*
X115022380Y-145057857D01*
X115022380Y-144819761D01*
X115070000Y-144724523D01*
X115117619Y-144676904D01*
X115212857Y-144629285D01*
X115308095Y-144629285D01*
X115450952Y-144676904D01*
X116022380Y-145248333D01*
X116022380Y-144629285D01*
X119832380Y-146153095D02*
X118832380Y-146153095D01*
X118832380Y-145915000D01*
X118880000Y-145772142D01*
X118975238Y-145676904D01*
X119070476Y-145629285D01*
X119260952Y-145581666D01*
X119403809Y-145581666D01*
X119594285Y-145629285D01*
X119689523Y-145676904D01*
X119784761Y-145772142D01*
X119832380Y-145915000D01*
X119832380Y-146153095D01*
X119832380Y-144629285D02*
X119832380Y-145200714D01*
X119832380Y-144915000D02*
X118832380Y-144915000D01*
X118975238Y-145010238D01*
X119070476Y-145105476D01*
X119118095Y-145200714D01*
X112982380Y-113761904D02*
X113791904Y-113761904D01*
X113887142Y-113714285D01*
X113934761Y-113666666D01*
X113982380Y-113571428D01*
X113982380Y-113380952D01*
X113934761Y-113285714D01*
X113887142Y-113238095D01*
X113791904Y-113190476D01*
X112982380Y-113190476D01*
X112982380Y-112809523D02*
X112982380Y-112190476D01*
X113363333Y-112523809D01*
X113363333Y-112380952D01*
X113410952Y-112285714D01*
X113458571Y-112238095D01*
X113553809Y-112190476D01*
X113791904Y-112190476D01*
X113887142Y-112238095D01*
X113934761Y-112285714D01*
X113982380Y-112380952D01*
X113982380Y-112666666D01*
X113934761Y-112761904D01*
X113887142Y-112809523D01*
X135084226Y-99980500D02*
X135084226Y-100694786D01*
X135036607Y-100837643D01*
X134941369Y-100932881D01*
X134798512Y-100980500D01*
X134703274Y-100980500D01*
X136036607Y-99980500D02*
X135560417Y-99980500D01*
X135512798Y-100456691D01*
X135560417Y-100409072D01*
X135655655Y-100361453D01*
X135893750Y-100361453D01*
X135988988Y-100409072D01*
X136036607Y-100456691D01*
X136084226Y-100551929D01*
X136084226Y-100790024D01*
X136036607Y-100885262D01*
X135988988Y-100932881D01*
X135893750Y-100980500D01*
X135655655Y-100980500D01*
X135560417Y-100932881D01*
X135512798Y-100885262D01*
X101766666Y-128349285D02*
X101766666Y-127873095D01*
X102052380Y-128444523D02*
X101052380Y-128111190D01*
X102052380Y-127777857D01*
X101147619Y-127492142D02*
X101100000Y-127444523D01*
X101052380Y-127349285D01*
X101052380Y-127111190D01*
X101100000Y-127015952D01*
X101147619Y-126968333D01*
X101242857Y-126920714D01*
X101338095Y-126920714D01*
X101480952Y-126968333D01*
X102052380Y-127539761D01*
X102052380Y-126920714D01*
X144784106Y-128247685D02*
X144784106Y-127771495D01*
X145069820Y-128342923D02*
X144069820Y-128009590D01*
X145069820Y-127676257D01*
X145069820Y-126819114D02*
X145069820Y-127390542D01*
X145069820Y-127104828D02*
X144069820Y-127104828D01*
X144212678Y-127200066D01*
X144307916Y-127295304D01*
X144355535Y-127390542D01*
M02*
