G04 #@! TF.GenerationSoftware,KiCad,Pcbnew,(5.1.6)-1*
G04 #@! TF.CreationDate,2020-05-30T15:14:58+10:00*
G04 #@! TF.ProjectId,sand_drawing,73616e64-5f64-4726-9177-696e672e6b69,rev?*
G04 #@! TF.SameCoordinates,Original*
G04 #@! TF.FileFunction,Copper,L2,Bot*
G04 #@! TF.FilePolarity,Positive*
%FSLAX46Y46*%
G04 Gerber Fmt 4.6, Leading zero omitted, Abs format (unit mm)*
G04 Created by KiCad (PCBNEW (5.1.6)-1) date 2020-05-30 15:14:58*
%MOMM*%
%LPD*%
G01*
G04 APERTURE LIST*
G04 #@! TA.AperFunction,ComponentPad*
%ADD10R,1.800000X3.600000*%
G04 #@! TD*
G04 #@! TA.AperFunction,ComponentPad*
%ADD11O,1.800000X3.600000*%
G04 #@! TD*
G04 #@! TA.AperFunction,ComponentPad*
%ADD12R,3.600000X1.800000*%
G04 #@! TD*
G04 #@! TA.AperFunction,ComponentPad*
%ADD13O,3.600000X1.800000*%
G04 #@! TD*
G04 #@! TA.AperFunction,ComponentPad*
%ADD14C,2.000000*%
G04 #@! TD*
G04 #@! TA.AperFunction,ComponentPad*
%ADD15R,1.700000X1.700000*%
G04 #@! TD*
G04 #@! TA.AperFunction,ComponentPad*
%ADD16O,1.700000X1.700000*%
G04 #@! TD*
G04 #@! TA.AperFunction,ComponentPad*
%ADD17R,1.600000X1.600000*%
G04 #@! TD*
G04 #@! TA.AperFunction,ComponentPad*
%ADD18O,1.600000X1.600000*%
G04 #@! TD*
G04 #@! TA.AperFunction,ViaPad*
%ADD19C,0.800000*%
G04 #@! TD*
G04 #@! TA.AperFunction,Conductor*
%ADD20C,0.508000*%
G04 #@! TD*
G04 #@! TA.AperFunction,Conductor*
%ADD21C,0.250000*%
G04 #@! TD*
G04 #@! TA.AperFunction,Conductor*
%ADD22C,0.254000*%
G04 #@! TD*
G04 APERTURE END LIST*
D10*
X100188000Y-100853240D03*
D11*
X103688000Y-100853240D03*
X107188000Y-100853240D03*
D10*
X100076000Y-112776000D03*
D11*
X103576000Y-112776000D03*
X107076000Y-112776000D03*
D10*
X119085000Y-147320000D03*
D11*
X115585000Y-147320000D03*
X112085000Y-147320000D03*
X108585000Y-147320000D03*
D10*
X138755000Y-147320000D03*
D11*
X135255000Y-147320000D03*
X131755000Y-147320000D03*
X128255000Y-147320000D03*
D12*
X144272000Y-112832000D03*
D13*
X144272000Y-116332000D03*
D14*
X140950000Y-86010000D03*
X145450000Y-86010000D03*
X140950000Y-92510000D03*
X145450000Y-92510000D03*
X107116000Y-92860000D03*
X102616000Y-92860000D03*
X107116000Y-86360000D03*
X102616000Y-86360000D03*
D15*
X142240000Y-97790000D03*
D16*
X139700000Y-97790000D03*
X137160000Y-97790000D03*
D17*
X104140000Y-133985000D03*
D18*
X121920000Y-121285000D03*
X106680000Y-133985000D03*
X119380000Y-121285000D03*
X109220000Y-133985000D03*
X116840000Y-121285000D03*
X111760000Y-133985000D03*
X114300000Y-121285000D03*
X114300000Y-133985000D03*
X111760000Y-121285000D03*
X116840000Y-133985000D03*
X109220000Y-121285000D03*
X119380000Y-133985000D03*
X106680000Y-121285000D03*
X121920000Y-133985000D03*
X104140000Y-121285000D03*
D17*
X124460000Y-133985000D03*
D18*
X142240000Y-121285000D03*
X127000000Y-133985000D03*
X139700000Y-121285000D03*
X129540000Y-133985000D03*
X137160000Y-121285000D03*
X132080000Y-133985000D03*
X134620000Y-121285000D03*
X134620000Y-133985000D03*
X132080000Y-121285000D03*
X137160000Y-133985000D03*
X129540000Y-121285000D03*
X139700000Y-133985000D03*
X127000000Y-121285000D03*
X142240000Y-133985000D03*
X124460000Y-121285000D03*
D19*
X119380000Y-139700000D03*
X115570000Y-139700000D03*
X111760000Y-139700000D03*
X111760000Y-139700000D03*
X107950000Y-139700000D03*
X128270000Y-139700000D03*
X132080000Y-139700000D03*
X135890000Y-139700000D03*
X139700000Y-139700000D03*
X128066800Y-105186480D03*
X139527280Y-110911640D03*
X128371600Y-97094040D03*
X120015000Y-128905000D03*
X120015000Y-126365000D03*
X134620000Y-103505000D03*
X130175000Y-103505000D03*
X118000000Y-107000000D03*
D20*
X140950000Y-96500000D02*
X142240000Y-97790000D01*
X140950000Y-92510000D02*
X140950000Y-96500000D01*
D21*
X120015000Y-128905000D02*
X120015000Y-126365000D01*
X134620000Y-103505000D02*
X130175000Y-103505000D01*
X120015000Y-123805002D02*
X120015000Y-126365000D01*
X118000000Y-121790002D02*
X120015000Y-123805002D01*
X118000000Y-107000000D02*
X118000000Y-121790002D01*
X107076000Y-101712000D02*
X107188000Y-101600000D01*
X107152000Y-107000000D02*
X107076000Y-107076000D01*
X118000000Y-107000000D02*
X107152000Y-107000000D01*
X107076000Y-112776000D02*
X107076000Y-107076000D01*
X107076000Y-107076000D02*
X107076000Y-101712000D01*
D22*
G36*
X150165200Y-163449400D02*
G01*
X97301920Y-163449400D01*
X97301920Y-159179872D01*
X99215000Y-159179872D01*
X99215000Y-159620128D01*
X99300890Y-160051925D01*
X99469369Y-160458669D01*
X99713962Y-160824729D01*
X100025271Y-161136038D01*
X100391331Y-161380631D01*
X100798075Y-161549110D01*
X101229872Y-161635000D01*
X101670128Y-161635000D01*
X102101925Y-161549110D01*
X102508669Y-161380631D01*
X102874729Y-161136038D01*
X103186038Y-160824729D01*
X103430631Y-160458669D01*
X103599110Y-160051925D01*
X103685000Y-159620128D01*
X103685000Y-159179872D01*
X144115000Y-159179872D01*
X144115000Y-159620128D01*
X144200890Y-160051925D01*
X144369369Y-160458669D01*
X144613962Y-160824729D01*
X144925271Y-161136038D01*
X145291331Y-161380631D01*
X145698075Y-161549110D01*
X146129872Y-161635000D01*
X146570128Y-161635000D01*
X147001925Y-161549110D01*
X147408669Y-161380631D01*
X147774729Y-161136038D01*
X148086038Y-160824729D01*
X148330631Y-160458669D01*
X148499110Y-160051925D01*
X148585000Y-159620128D01*
X148585000Y-159179872D01*
X148499110Y-158748075D01*
X148330631Y-158341331D01*
X148086038Y-157975271D01*
X147774729Y-157663962D01*
X147408669Y-157419369D01*
X147001925Y-157250890D01*
X146570128Y-157165000D01*
X146129872Y-157165000D01*
X145698075Y-157250890D01*
X145291331Y-157419369D01*
X144925271Y-157663962D01*
X144613962Y-157975271D01*
X144369369Y-158341331D01*
X144200890Y-158748075D01*
X144115000Y-159179872D01*
X103685000Y-159179872D01*
X103599110Y-158748075D01*
X103430631Y-158341331D01*
X103186038Y-157975271D01*
X102874729Y-157663962D01*
X102508669Y-157419369D01*
X102101925Y-157250890D01*
X101670128Y-157165000D01*
X101229872Y-157165000D01*
X100798075Y-157250890D01*
X100391331Y-157419369D01*
X100025271Y-157663962D01*
X99713962Y-157975271D01*
X99469369Y-158341331D01*
X99300890Y-158748075D01*
X99215000Y-159179872D01*
X97301920Y-159179872D01*
X97301920Y-146344592D01*
X107050000Y-146344592D01*
X107050000Y-148295407D01*
X107072210Y-148520912D01*
X107159983Y-148810260D01*
X107302519Y-149076926D01*
X107494339Y-149310661D01*
X107728073Y-149502481D01*
X107994739Y-149645017D01*
X108284087Y-149732790D01*
X108585000Y-149762427D01*
X108885912Y-149732790D01*
X109175260Y-149645017D01*
X109441926Y-149502481D01*
X109675661Y-149310661D01*
X109867481Y-149076927D01*
X110010017Y-148810261D01*
X110097790Y-148520913D01*
X110120000Y-148295408D01*
X110120000Y-146344592D01*
X110550000Y-146344592D01*
X110550000Y-148295407D01*
X110572210Y-148520912D01*
X110659983Y-148810260D01*
X110802519Y-149076926D01*
X110994339Y-149310661D01*
X111228073Y-149502481D01*
X111494739Y-149645017D01*
X111784087Y-149732790D01*
X112085000Y-149762427D01*
X112385912Y-149732790D01*
X112675260Y-149645017D01*
X112941926Y-149502481D01*
X113175661Y-149310661D01*
X113367481Y-149076927D01*
X113510017Y-148810261D01*
X113597790Y-148520913D01*
X113620000Y-148295408D01*
X113620000Y-146344592D01*
X114050000Y-146344592D01*
X114050000Y-148295407D01*
X114072210Y-148520912D01*
X114159983Y-148810260D01*
X114302519Y-149076926D01*
X114494339Y-149310661D01*
X114728073Y-149502481D01*
X114994739Y-149645017D01*
X115284087Y-149732790D01*
X115585000Y-149762427D01*
X115885912Y-149732790D01*
X116175260Y-149645017D01*
X116441926Y-149502481D01*
X116675661Y-149310661D01*
X116867481Y-149076927D01*
X117010017Y-148810261D01*
X117097790Y-148520913D01*
X117120000Y-148295408D01*
X117120000Y-146344592D01*
X117097790Y-146119087D01*
X117010017Y-145829739D01*
X116867481Y-145563073D01*
X116832133Y-145520000D01*
X117546928Y-145520000D01*
X117546928Y-149120000D01*
X117559188Y-149244482D01*
X117595498Y-149364180D01*
X117654463Y-149474494D01*
X117733815Y-149571185D01*
X117830506Y-149650537D01*
X117940820Y-149709502D01*
X118060518Y-149745812D01*
X118185000Y-149758072D01*
X119985000Y-149758072D01*
X120109482Y-149745812D01*
X120229180Y-149709502D01*
X120339494Y-149650537D01*
X120436185Y-149571185D01*
X120515537Y-149474494D01*
X120574502Y-149364180D01*
X120610812Y-149244482D01*
X120623072Y-149120000D01*
X120623072Y-146344592D01*
X126720000Y-146344592D01*
X126720000Y-148295407D01*
X126742210Y-148520912D01*
X126829983Y-148810260D01*
X126972519Y-149076926D01*
X127164339Y-149310661D01*
X127398073Y-149502481D01*
X127664739Y-149645017D01*
X127954087Y-149732790D01*
X128255000Y-149762427D01*
X128555912Y-149732790D01*
X128845260Y-149645017D01*
X129111926Y-149502481D01*
X129345661Y-149310661D01*
X129537481Y-149076927D01*
X129680017Y-148810261D01*
X129767790Y-148520913D01*
X129790000Y-148295408D01*
X129790000Y-146344592D01*
X130220000Y-146344592D01*
X130220000Y-148295407D01*
X130242210Y-148520912D01*
X130329983Y-148810260D01*
X130472519Y-149076926D01*
X130664339Y-149310661D01*
X130898073Y-149502481D01*
X131164739Y-149645017D01*
X131454087Y-149732790D01*
X131755000Y-149762427D01*
X132055912Y-149732790D01*
X132345260Y-149645017D01*
X132611926Y-149502481D01*
X132845661Y-149310661D01*
X133037481Y-149076927D01*
X133180017Y-148810261D01*
X133267790Y-148520913D01*
X133290000Y-148295408D01*
X133290000Y-146344592D01*
X133720000Y-146344592D01*
X133720000Y-148295407D01*
X133742210Y-148520912D01*
X133829983Y-148810260D01*
X133972519Y-149076926D01*
X134164339Y-149310661D01*
X134398073Y-149502481D01*
X134664739Y-149645017D01*
X134954087Y-149732790D01*
X135255000Y-149762427D01*
X135555912Y-149732790D01*
X135845260Y-149645017D01*
X136111926Y-149502481D01*
X136345661Y-149310661D01*
X136537481Y-149076927D01*
X136680017Y-148810261D01*
X136767790Y-148520913D01*
X136790000Y-148295408D01*
X136790000Y-146344592D01*
X136767790Y-146119087D01*
X136680017Y-145829739D01*
X136537481Y-145563073D01*
X136502133Y-145520000D01*
X137216928Y-145520000D01*
X137216928Y-149120000D01*
X137229188Y-149244482D01*
X137265498Y-149364180D01*
X137324463Y-149474494D01*
X137403815Y-149571185D01*
X137500506Y-149650537D01*
X137610820Y-149709502D01*
X137730518Y-149745812D01*
X137855000Y-149758072D01*
X139655000Y-149758072D01*
X139779482Y-149745812D01*
X139899180Y-149709502D01*
X140009494Y-149650537D01*
X140106185Y-149571185D01*
X140185537Y-149474494D01*
X140244502Y-149364180D01*
X140280812Y-149244482D01*
X140293072Y-149120000D01*
X140293072Y-145520000D01*
X140280812Y-145395518D01*
X140244502Y-145275820D01*
X140185537Y-145165506D01*
X140106185Y-145068815D01*
X140009494Y-144989463D01*
X139899180Y-144930498D01*
X139779482Y-144894188D01*
X139655000Y-144881928D01*
X137855000Y-144881928D01*
X137730518Y-144894188D01*
X137610820Y-144930498D01*
X137500506Y-144989463D01*
X137403815Y-145068815D01*
X137324463Y-145165506D01*
X137265498Y-145275820D01*
X137229188Y-145395518D01*
X137216928Y-145520000D01*
X136502133Y-145520000D01*
X136345661Y-145329339D01*
X136111927Y-145137519D01*
X135845261Y-144994983D01*
X135555913Y-144907210D01*
X135255000Y-144877573D01*
X134954088Y-144907210D01*
X134664740Y-144994983D01*
X134398074Y-145137519D01*
X134164340Y-145329339D01*
X133972520Y-145563073D01*
X133829984Y-145829739D01*
X133742211Y-146119087D01*
X133720000Y-146344592D01*
X133290000Y-146344592D01*
X133267790Y-146119087D01*
X133180017Y-145829739D01*
X133037481Y-145563073D01*
X132845661Y-145329339D01*
X132611927Y-145137519D01*
X132345261Y-144994983D01*
X132055913Y-144907210D01*
X131755000Y-144877573D01*
X131454088Y-144907210D01*
X131164740Y-144994983D01*
X130898074Y-145137519D01*
X130664340Y-145329339D01*
X130472520Y-145563073D01*
X130329984Y-145829739D01*
X130242211Y-146119087D01*
X130220000Y-146344592D01*
X129790000Y-146344592D01*
X129767790Y-146119087D01*
X129680017Y-145829739D01*
X129537481Y-145563073D01*
X129345661Y-145329339D01*
X129111927Y-145137519D01*
X128845261Y-144994983D01*
X128555913Y-144907210D01*
X128255000Y-144877573D01*
X127954088Y-144907210D01*
X127664740Y-144994983D01*
X127398074Y-145137519D01*
X127164340Y-145329339D01*
X126972520Y-145563073D01*
X126829984Y-145829739D01*
X126742211Y-146119087D01*
X126720000Y-146344592D01*
X120623072Y-146344592D01*
X120623072Y-145520000D01*
X120610812Y-145395518D01*
X120574502Y-145275820D01*
X120515537Y-145165506D01*
X120436185Y-145068815D01*
X120339494Y-144989463D01*
X120229180Y-144930498D01*
X120109482Y-144894188D01*
X119985000Y-144881928D01*
X118185000Y-144881928D01*
X118060518Y-144894188D01*
X117940820Y-144930498D01*
X117830506Y-144989463D01*
X117733815Y-145068815D01*
X117654463Y-145165506D01*
X117595498Y-145275820D01*
X117559188Y-145395518D01*
X117546928Y-145520000D01*
X116832133Y-145520000D01*
X116675661Y-145329339D01*
X116441927Y-145137519D01*
X116175261Y-144994983D01*
X115885913Y-144907210D01*
X115585000Y-144877573D01*
X115284088Y-144907210D01*
X114994740Y-144994983D01*
X114728074Y-145137519D01*
X114494340Y-145329339D01*
X114302520Y-145563073D01*
X114159984Y-145829739D01*
X114072211Y-146119087D01*
X114050000Y-146344592D01*
X113620000Y-146344592D01*
X113597790Y-146119087D01*
X113510017Y-145829739D01*
X113367481Y-145563073D01*
X113175661Y-145329339D01*
X112941927Y-145137519D01*
X112675261Y-144994983D01*
X112385913Y-144907210D01*
X112085000Y-144877573D01*
X111784088Y-144907210D01*
X111494740Y-144994983D01*
X111228074Y-145137519D01*
X110994340Y-145329339D01*
X110802520Y-145563073D01*
X110659984Y-145829739D01*
X110572211Y-146119087D01*
X110550000Y-146344592D01*
X110120000Y-146344592D01*
X110097790Y-146119087D01*
X110010017Y-145829739D01*
X109867481Y-145563073D01*
X109675661Y-145329339D01*
X109441927Y-145137519D01*
X109175261Y-144994983D01*
X108885913Y-144907210D01*
X108585000Y-144877573D01*
X108284088Y-144907210D01*
X107994740Y-144994983D01*
X107728074Y-145137519D01*
X107494340Y-145329339D01*
X107302520Y-145563073D01*
X107159984Y-145829739D01*
X107072211Y-146119087D01*
X107050000Y-146344592D01*
X97301920Y-146344592D01*
X97301920Y-134785000D01*
X102701928Y-134785000D01*
X102714188Y-134909482D01*
X102750498Y-135029180D01*
X102809463Y-135139494D01*
X102888815Y-135236185D01*
X102985506Y-135315537D01*
X103095820Y-135374502D01*
X103215518Y-135410812D01*
X103340000Y-135423072D01*
X103854250Y-135420000D01*
X104013000Y-135261250D01*
X104013000Y-134112000D01*
X102863750Y-134112000D01*
X102705000Y-134270750D01*
X102701928Y-134785000D01*
X97301920Y-134785000D01*
X97301920Y-133185000D01*
X102701928Y-133185000D01*
X102705000Y-133699250D01*
X102863750Y-133858000D01*
X104013000Y-133858000D01*
X104013000Y-132708750D01*
X104267000Y-132708750D01*
X104267000Y-133858000D01*
X104287000Y-133858000D01*
X104287000Y-134112000D01*
X104267000Y-134112000D01*
X104267000Y-135261250D01*
X104425750Y-135420000D01*
X104940000Y-135423072D01*
X105064482Y-135410812D01*
X105184180Y-135374502D01*
X105294494Y-135315537D01*
X105391185Y-135236185D01*
X105470537Y-135139494D01*
X105529502Y-135029180D01*
X105565812Y-134909482D01*
X105566643Y-134901039D01*
X105765241Y-135099637D01*
X106000273Y-135256680D01*
X106261426Y-135364853D01*
X106538665Y-135420000D01*
X106821335Y-135420000D01*
X107098574Y-135364853D01*
X107359727Y-135256680D01*
X107594759Y-135099637D01*
X107794637Y-134899759D01*
X107950000Y-134667241D01*
X108105363Y-134899759D01*
X108305241Y-135099637D01*
X108540273Y-135256680D01*
X108801426Y-135364853D01*
X109078665Y-135420000D01*
X109361335Y-135420000D01*
X109638574Y-135364853D01*
X109899727Y-135256680D01*
X110134759Y-135099637D01*
X110334637Y-134899759D01*
X110490000Y-134667241D01*
X110645363Y-134899759D01*
X110845241Y-135099637D01*
X111080273Y-135256680D01*
X111341426Y-135364853D01*
X111618665Y-135420000D01*
X111901335Y-135420000D01*
X112178574Y-135364853D01*
X112439727Y-135256680D01*
X112674759Y-135099637D01*
X112874637Y-134899759D01*
X113030000Y-134667241D01*
X113185363Y-134899759D01*
X113385241Y-135099637D01*
X113620273Y-135256680D01*
X113881426Y-135364853D01*
X114158665Y-135420000D01*
X114441335Y-135420000D01*
X114718574Y-135364853D01*
X114979727Y-135256680D01*
X115214759Y-135099637D01*
X115414637Y-134899759D01*
X115570000Y-134667241D01*
X115725363Y-134899759D01*
X115925241Y-135099637D01*
X116160273Y-135256680D01*
X116421426Y-135364853D01*
X116698665Y-135420000D01*
X116981335Y-135420000D01*
X117258574Y-135364853D01*
X117519727Y-135256680D01*
X117754759Y-135099637D01*
X117954637Y-134899759D01*
X118111680Y-134664727D01*
X118116067Y-134654135D01*
X118227615Y-134840131D01*
X118416586Y-135048519D01*
X118642580Y-135216037D01*
X118896913Y-135336246D01*
X119030961Y-135376904D01*
X119253000Y-135254915D01*
X119253000Y-134112000D01*
X119233000Y-134112000D01*
X119233000Y-133858000D01*
X119253000Y-133858000D01*
X119253000Y-132715085D01*
X119507000Y-132715085D01*
X119507000Y-133858000D01*
X119527000Y-133858000D01*
X119527000Y-134112000D01*
X119507000Y-134112000D01*
X119507000Y-135254915D01*
X119729039Y-135376904D01*
X119863087Y-135336246D01*
X120117420Y-135216037D01*
X120343414Y-135048519D01*
X120532385Y-134840131D01*
X120643933Y-134654135D01*
X120648320Y-134664727D01*
X120805363Y-134899759D01*
X121005241Y-135099637D01*
X121240273Y-135256680D01*
X121501426Y-135364853D01*
X121778665Y-135420000D01*
X122061335Y-135420000D01*
X122338574Y-135364853D01*
X122599727Y-135256680D01*
X122834759Y-135099637D01*
X123033357Y-134901039D01*
X123034188Y-134909482D01*
X123070498Y-135029180D01*
X123129463Y-135139494D01*
X123208815Y-135236185D01*
X123305506Y-135315537D01*
X123415820Y-135374502D01*
X123535518Y-135410812D01*
X123660000Y-135423072D01*
X124174250Y-135420000D01*
X124333000Y-135261250D01*
X124333000Y-134112000D01*
X124313000Y-134112000D01*
X124313000Y-133858000D01*
X124333000Y-133858000D01*
X124333000Y-132708750D01*
X124587000Y-132708750D01*
X124587000Y-133858000D01*
X124607000Y-133858000D01*
X124607000Y-134112000D01*
X124587000Y-134112000D01*
X124587000Y-135261250D01*
X124745750Y-135420000D01*
X125260000Y-135423072D01*
X125384482Y-135410812D01*
X125504180Y-135374502D01*
X125614494Y-135315537D01*
X125711185Y-135236185D01*
X125790537Y-135139494D01*
X125849502Y-135029180D01*
X125885812Y-134909482D01*
X125886643Y-134901039D01*
X126085241Y-135099637D01*
X126320273Y-135256680D01*
X126581426Y-135364853D01*
X126858665Y-135420000D01*
X127141335Y-135420000D01*
X127418574Y-135364853D01*
X127679727Y-135256680D01*
X127914759Y-135099637D01*
X128114637Y-134899759D01*
X128270000Y-134667241D01*
X128425363Y-134899759D01*
X128625241Y-135099637D01*
X128860273Y-135256680D01*
X129121426Y-135364853D01*
X129398665Y-135420000D01*
X129681335Y-135420000D01*
X129958574Y-135364853D01*
X130219727Y-135256680D01*
X130454759Y-135099637D01*
X130654637Y-134899759D01*
X130810000Y-134667241D01*
X130965363Y-134899759D01*
X131165241Y-135099637D01*
X131400273Y-135256680D01*
X131661426Y-135364853D01*
X131938665Y-135420000D01*
X132221335Y-135420000D01*
X132498574Y-135364853D01*
X132759727Y-135256680D01*
X132994759Y-135099637D01*
X133194637Y-134899759D01*
X133350000Y-134667241D01*
X133505363Y-134899759D01*
X133705241Y-135099637D01*
X133940273Y-135256680D01*
X134201426Y-135364853D01*
X134478665Y-135420000D01*
X134761335Y-135420000D01*
X135038574Y-135364853D01*
X135299727Y-135256680D01*
X135534759Y-135099637D01*
X135734637Y-134899759D01*
X135890000Y-134667241D01*
X136045363Y-134899759D01*
X136245241Y-135099637D01*
X136480273Y-135256680D01*
X136741426Y-135364853D01*
X137018665Y-135420000D01*
X137301335Y-135420000D01*
X137578574Y-135364853D01*
X137839727Y-135256680D01*
X138074759Y-135099637D01*
X138274637Y-134899759D01*
X138431680Y-134664727D01*
X138436067Y-134654135D01*
X138547615Y-134840131D01*
X138736586Y-135048519D01*
X138962580Y-135216037D01*
X139216913Y-135336246D01*
X139350961Y-135376904D01*
X139573000Y-135254915D01*
X139573000Y-134112000D01*
X139553000Y-134112000D01*
X139553000Y-133858000D01*
X139573000Y-133858000D01*
X139573000Y-132715085D01*
X139827000Y-132715085D01*
X139827000Y-133858000D01*
X139847000Y-133858000D01*
X139847000Y-134112000D01*
X139827000Y-134112000D01*
X139827000Y-135254915D01*
X140049039Y-135376904D01*
X140183087Y-135336246D01*
X140437420Y-135216037D01*
X140663414Y-135048519D01*
X140852385Y-134840131D01*
X140963933Y-134654135D01*
X140968320Y-134664727D01*
X141125363Y-134899759D01*
X141325241Y-135099637D01*
X141560273Y-135256680D01*
X141821426Y-135364853D01*
X142098665Y-135420000D01*
X142381335Y-135420000D01*
X142658574Y-135364853D01*
X142919727Y-135256680D01*
X143154759Y-135099637D01*
X143354637Y-134899759D01*
X143511680Y-134664727D01*
X143619853Y-134403574D01*
X143675000Y-134126335D01*
X143675000Y-133843665D01*
X143619853Y-133566426D01*
X143511680Y-133305273D01*
X143354637Y-133070241D01*
X143154759Y-132870363D01*
X142919727Y-132713320D01*
X142658574Y-132605147D01*
X142381335Y-132550000D01*
X142098665Y-132550000D01*
X141821426Y-132605147D01*
X141560273Y-132713320D01*
X141325241Y-132870363D01*
X141125363Y-133070241D01*
X140968320Y-133305273D01*
X140963933Y-133315865D01*
X140852385Y-133129869D01*
X140663414Y-132921481D01*
X140437420Y-132753963D01*
X140183087Y-132633754D01*
X140049039Y-132593096D01*
X139827000Y-132715085D01*
X139573000Y-132715085D01*
X139350961Y-132593096D01*
X139216913Y-132633754D01*
X138962580Y-132753963D01*
X138736586Y-132921481D01*
X138547615Y-133129869D01*
X138436067Y-133315865D01*
X138431680Y-133305273D01*
X138274637Y-133070241D01*
X138074759Y-132870363D01*
X137839727Y-132713320D01*
X137578574Y-132605147D01*
X137301335Y-132550000D01*
X137018665Y-132550000D01*
X136741426Y-132605147D01*
X136480273Y-132713320D01*
X136245241Y-132870363D01*
X136045363Y-133070241D01*
X135890000Y-133302759D01*
X135734637Y-133070241D01*
X135534759Y-132870363D01*
X135299727Y-132713320D01*
X135038574Y-132605147D01*
X134761335Y-132550000D01*
X134478665Y-132550000D01*
X134201426Y-132605147D01*
X133940273Y-132713320D01*
X133705241Y-132870363D01*
X133505363Y-133070241D01*
X133350000Y-133302759D01*
X133194637Y-133070241D01*
X132994759Y-132870363D01*
X132759727Y-132713320D01*
X132498574Y-132605147D01*
X132221335Y-132550000D01*
X131938665Y-132550000D01*
X131661426Y-132605147D01*
X131400273Y-132713320D01*
X131165241Y-132870363D01*
X130965363Y-133070241D01*
X130810000Y-133302759D01*
X130654637Y-133070241D01*
X130454759Y-132870363D01*
X130219727Y-132713320D01*
X129958574Y-132605147D01*
X129681335Y-132550000D01*
X129398665Y-132550000D01*
X129121426Y-132605147D01*
X128860273Y-132713320D01*
X128625241Y-132870363D01*
X128425363Y-133070241D01*
X128270000Y-133302759D01*
X128114637Y-133070241D01*
X127914759Y-132870363D01*
X127679727Y-132713320D01*
X127418574Y-132605147D01*
X127141335Y-132550000D01*
X126858665Y-132550000D01*
X126581426Y-132605147D01*
X126320273Y-132713320D01*
X126085241Y-132870363D01*
X125886643Y-133068961D01*
X125885812Y-133060518D01*
X125849502Y-132940820D01*
X125790537Y-132830506D01*
X125711185Y-132733815D01*
X125614494Y-132654463D01*
X125504180Y-132595498D01*
X125384482Y-132559188D01*
X125260000Y-132546928D01*
X124745750Y-132550000D01*
X124587000Y-132708750D01*
X124333000Y-132708750D01*
X124174250Y-132550000D01*
X123660000Y-132546928D01*
X123535518Y-132559188D01*
X123415820Y-132595498D01*
X123305506Y-132654463D01*
X123208815Y-132733815D01*
X123129463Y-132830506D01*
X123070498Y-132940820D01*
X123034188Y-133060518D01*
X123033357Y-133068961D01*
X122834759Y-132870363D01*
X122599727Y-132713320D01*
X122338574Y-132605147D01*
X122061335Y-132550000D01*
X121778665Y-132550000D01*
X121501426Y-132605147D01*
X121240273Y-132713320D01*
X121005241Y-132870363D01*
X120805363Y-133070241D01*
X120648320Y-133305273D01*
X120643933Y-133315865D01*
X120532385Y-133129869D01*
X120343414Y-132921481D01*
X120117420Y-132753963D01*
X119863087Y-132633754D01*
X119729039Y-132593096D01*
X119507000Y-132715085D01*
X119253000Y-132715085D01*
X119030961Y-132593096D01*
X118896913Y-132633754D01*
X118642580Y-132753963D01*
X118416586Y-132921481D01*
X118227615Y-133129869D01*
X118116067Y-133315865D01*
X118111680Y-133305273D01*
X117954637Y-133070241D01*
X117754759Y-132870363D01*
X117519727Y-132713320D01*
X117258574Y-132605147D01*
X116981335Y-132550000D01*
X116698665Y-132550000D01*
X116421426Y-132605147D01*
X116160273Y-132713320D01*
X115925241Y-132870363D01*
X115725363Y-133070241D01*
X115570000Y-133302759D01*
X115414637Y-133070241D01*
X115214759Y-132870363D01*
X114979727Y-132713320D01*
X114718574Y-132605147D01*
X114441335Y-132550000D01*
X114158665Y-132550000D01*
X113881426Y-132605147D01*
X113620273Y-132713320D01*
X113385241Y-132870363D01*
X113185363Y-133070241D01*
X113030000Y-133302759D01*
X112874637Y-133070241D01*
X112674759Y-132870363D01*
X112439727Y-132713320D01*
X112178574Y-132605147D01*
X111901335Y-132550000D01*
X111618665Y-132550000D01*
X111341426Y-132605147D01*
X111080273Y-132713320D01*
X110845241Y-132870363D01*
X110645363Y-133070241D01*
X110490000Y-133302759D01*
X110334637Y-133070241D01*
X110134759Y-132870363D01*
X109899727Y-132713320D01*
X109638574Y-132605147D01*
X109361335Y-132550000D01*
X109078665Y-132550000D01*
X108801426Y-132605147D01*
X108540273Y-132713320D01*
X108305241Y-132870363D01*
X108105363Y-133070241D01*
X107950000Y-133302759D01*
X107794637Y-133070241D01*
X107594759Y-132870363D01*
X107359727Y-132713320D01*
X107098574Y-132605147D01*
X106821335Y-132550000D01*
X106538665Y-132550000D01*
X106261426Y-132605147D01*
X106000273Y-132713320D01*
X105765241Y-132870363D01*
X105566643Y-133068961D01*
X105565812Y-133060518D01*
X105529502Y-132940820D01*
X105470537Y-132830506D01*
X105391185Y-132733815D01*
X105294494Y-132654463D01*
X105184180Y-132595498D01*
X105064482Y-132559188D01*
X104940000Y-132546928D01*
X104425750Y-132550000D01*
X104267000Y-132708750D01*
X104013000Y-132708750D01*
X103854250Y-132550000D01*
X103340000Y-132546928D01*
X103215518Y-132559188D01*
X103095820Y-132595498D01*
X102985506Y-132654463D01*
X102888815Y-132733815D01*
X102809463Y-132830506D01*
X102750498Y-132940820D01*
X102714188Y-133060518D01*
X102701928Y-133185000D01*
X97301920Y-133185000D01*
X97301920Y-121143665D01*
X102705000Y-121143665D01*
X102705000Y-121426335D01*
X102760147Y-121703574D01*
X102868320Y-121964727D01*
X103025363Y-122199759D01*
X103225241Y-122399637D01*
X103460273Y-122556680D01*
X103721426Y-122664853D01*
X103998665Y-122720000D01*
X104281335Y-122720000D01*
X104558574Y-122664853D01*
X104819727Y-122556680D01*
X105054759Y-122399637D01*
X105254637Y-122199759D01*
X105410000Y-121967241D01*
X105565363Y-122199759D01*
X105765241Y-122399637D01*
X106000273Y-122556680D01*
X106261426Y-122664853D01*
X106538665Y-122720000D01*
X106821335Y-122720000D01*
X107098574Y-122664853D01*
X107359727Y-122556680D01*
X107594759Y-122399637D01*
X107794637Y-122199759D01*
X107950000Y-121967241D01*
X108105363Y-122199759D01*
X108305241Y-122399637D01*
X108540273Y-122556680D01*
X108801426Y-122664853D01*
X109078665Y-122720000D01*
X109361335Y-122720000D01*
X109638574Y-122664853D01*
X109899727Y-122556680D01*
X110134759Y-122399637D01*
X110334637Y-122199759D01*
X110490000Y-121967241D01*
X110645363Y-122199759D01*
X110845241Y-122399637D01*
X111080273Y-122556680D01*
X111341426Y-122664853D01*
X111618665Y-122720000D01*
X111901335Y-122720000D01*
X112178574Y-122664853D01*
X112439727Y-122556680D01*
X112674759Y-122399637D01*
X112874637Y-122199759D01*
X113030000Y-121967241D01*
X113185363Y-122199759D01*
X113385241Y-122399637D01*
X113620273Y-122556680D01*
X113881426Y-122664853D01*
X114158665Y-122720000D01*
X114441335Y-122720000D01*
X114718574Y-122664853D01*
X114979727Y-122556680D01*
X115214759Y-122399637D01*
X115414637Y-122199759D01*
X115570000Y-121967241D01*
X115725363Y-122199759D01*
X115925241Y-122399637D01*
X116160273Y-122556680D01*
X116421426Y-122664853D01*
X116698665Y-122720000D01*
X116981335Y-122720000D01*
X117258574Y-122664853D01*
X117519727Y-122556680D01*
X117622923Y-122487727D01*
X119255000Y-124119804D01*
X119255001Y-125661288D01*
X119211063Y-125705226D01*
X119097795Y-125874744D01*
X119019774Y-126063102D01*
X118980000Y-126263061D01*
X118980000Y-126466939D01*
X119019774Y-126666898D01*
X119097795Y-126855256D01*
X119211063Y-127024774D01*
X119255001Y-127068712D01*
X119255000Y-128201289D01*
X119211063Y-128245226D01*
X119097795Y-128414744D01*
X119019774Y-128603102D01*
X118980000Y-128803061D01*
X118980000Y-129006939D01*
X119019774Y-129206898D01*
X119097795Y-129395256D01*
X119211063Y-129564774D01*
X119355226Y-129708937D01*
X119524744Y-129822205D01*
X119713102Y-129900226D01*
X119913061Y-129940000D01*
X120116939Y-129940000D01*
X120316898Y-129900226D01*
X120505256Y-129822205D01*
X120674774Y-129708937D01*
X120818937Y-129564774D01*
X120932205Y-129395256D01*
X121010226Y-129206898D01*
X121050000Y-129006939D01*
X121050000Y-128803061D01*
X121010226Y-128603102D01*
X120932205Y-128414744D01*
X120818937Y-128245226D01*
X120775000Y-128201289D01*
X120775000Y-127068711D01*
X120818937Y-127024774D01*
X120932205Y-126855256D01*
X121010226Y-126666898D01*
X121050000Y-126466939D01*
X121050000Y-126263061D01*
X121010226Y-126063102D01*
X120932205Y-125874744D01*
X120818937Y-125705226D01*
X120775000Y-125661289D01*
X120775000Y-123842324D01*
X120778676Y-123805001D01*
X120775000Y-123767678D01*
X120775000Y-123767669D01*
X120764003Y-123656016D01*
X120720546Y-123512755D01*
X120649974Y-123380726D01*
X120555001Y-123265001D01*
X120526004Y-123241204D01*
X119905403Y-122620603D01*
X120059727Y-122556680D01*
X120294759Y-122399637D01*
X120494637Y-122199759D01*
X120650000Y-121967241D01*
X120805363Y-122199759D01*
X121005241Y-122399637D01*
X121240273Y-122556680D01*
X121501426Y-122664853D01*
X121778665Y-122720000D01*
X122061335Y-122720000D01*
X122338574Y-122664853D01*
X122599727Y-122556680D01*
X122834759Y-122399637D01*
X123034637Y-122199759D01*
X123190000Y-121967241D01*
X123345363Y-122199759D01*
X123545241Y-122399637D01*
X123780273Y-122556680D01*
X124041426Y-122664853D01*
X124318665Y-122720000D01*
X124601335Y-122720000D01*
X124878574Y-122664853D01*
X125139727Y-122556680D01*
X125374759Y-122399637D01*
X125574637Y-122199759D01*
X125730000Y-121967241D01*
X125885363Y-122199759D01*
X126085241Y-122399637D01*
X126320273Y-122556680D01*
X126581426Y-122664853D01*
X126858665Y-122720000D01*
X127141335Y-122720000D01*
X127418574Y-122664853D01*
X127679727Y-122556680D01*
X127914759Y-122399637D01*
X128114637Y-122199759D01*
X128270000Y-121967241D01*
X128425363Y-122199759D01*
X128625241Y-122399637D01*
X128860273Y-122556680D01*
X129121426Y-122664853D01*
X129398665Y-122720000D01*
X129681335Y-122720000D01*
X129958574Y-122664853D01*
X130219727Y-122556680D01*
X130454759Y-122399637D01*
X130654637Y-122199759D01*
X130810000Y-121967241D01*
X130965363Y-122199759D01*
X131165241Y-122399637D01*
X131400273Y-122556680D01*
X131661426Y-122664853D01*
X131938665Y-122720000D01*
X132221335Y-122720000D01*
X132498574Y-122664853D01*
X132759727Y-122556680D01*
X132994759Y-122399637D01*
X133194637Y-122199759D01*
X133350000Y-121967241D01*
X133505363Y-122199759D01*
X133705241Y-122399637D01*
X133940273Y-122556680D01*
X134201426Y-122664853D01*
X134478665Y-122720000D01*
X134761335Y-122720000D01*
X135038574Y-122664853D01*
X135299727Y-122556680D01*
X135534759Y-122399637D01*
X135734637Y-122199759D01*
X135890000Y-121967241D01*
X136045363Y-122199759D01*
X136245241Y-122399637D01*
X136480273Y-122556680D01*
X136741426Y-122664853D01*
X137018665Y-122720000D01*
X137301335Y-122720000D01*
X137578574Y-122664853D01*
X137839727Y-122556680D01*
X138074759Y-122399637D01*
X138274637Y-122199759D01*
X138430000Y-121967241D01*
X138585363Y-122199759D01*
X138785241Y-122399637D01*
X139020273Y-122556680D01*
X139281426Y-122664853D01*
X139558665Y-122720000D01*
X139841335Y-122720000D01*
X140118574Y-122664853D01*
X140379727Y-122556680D01*
X140614759Y-122399637D01*
X140814637Y-122199759D01*
X140970000Y-121967241D01*
X141125363Y-122199759D01*
X141325241Y-122399637D01*
X141560273Y-122556680D01*
X141821426Y-122664853D01*
X142098665Y-122720000D01*
X142381335Y-122720000D01*
X142658574Y-122664853D01*
X142919727Y-122556680D01*
X143154759Y-122399637D01*
X143354637Y-122199759D01*
X143511680Y-121964727D01*
X143619853Y-121703574D01*
X143675000Y-121426335D01*
X143675000Y-121143665D01*
X143619853Y-120866426D01*
X143511680Y-120605273D01*
X143354637Y-120370241D01*
X143154759Y-120170363D01*
X142919727Y-120013320D01*
X142658574Y-119905147D01*
X142381335Y-119850000D01*
X142098665Y-119850000D01*
X141821426Y-119905147D01*
X141560273Y-120013320D01*
X141325241Y-120170363D01*
X141125363Y-120370241D01*
X140970000Y-120602759D01*
X140814637Y-120370241D01*
X140614759Y-120170363D01*
X140379727Y-120013320D01*
X140118574Y-119905147D01*
X139841335Y-119850000D01*
X139558665Y-119850000D01*
X139281426Y-119905147D01*
X139020273Y-120013320D01*
X138785241Y-120170363D01*
X138585363Y-120370241D01*
X138430000Y-120602759D01*
X138274637Y-120370241D01*
X138074759Y-120170363D01*
X137839727Y-120013320D01*
X137578574Y-119905147D01*
X137301335Y-119850000D01*
X137018665Y-119850000D01*
X136741426Y-119905147D01*
X136480273Y-120013320D01*
X136245241Y-120170363D01*
X136045363Y-120370241D01*
X135890000Y-120602759D01*
X135734637Y-120370241D01*
X135534759Y-120170363D01*
X135299727Y-120013320D01*
X135038574Y-119905147D01*
X134761335Y-119850000D01*
X134478665Y-119850000D01*
X134201426Y-119905147D01*
X133940273Y-120013320D01*
X133705241Y-120170363D01*
X133505363Y-120370241D01*
X133350000Y-120602759D01*
X133194637Y-120370241D01*
X132994759Y-120170363D01*
X132759727Y-120013320D01*
X132498574Y-119905147D01*
X132221335Y-119850000D01*
X131938665Y-119850000D01*
X131661426Y-119905147D01*
X131400273Y-120013320D01*
X131165241Y-120170363D01*
X130965363Y-120370241D01*
X130810000Y-120602759D01*
X130654637Y-120370241D01*
X130454759Y-120170363D01*
X130219727Y-120013320D01*
X129958574Y-119905147D01*
X129681335Y-119850000D01*
X129398665Y-119850000D01*
X129121426Y-119905147D01*
X128860273Y-120013320D01*
X128625241Y-120170363D01*
X128425363Y-120370241D01*
X128270000Y-120602759D01*
X128114637Y-120370241D01*
X127914759Y-120170363D01*
X127679727Y-120013320D01*
X127418574Y-119905147D01*
X127141335Y-119850000D01*
X126858665Y-119850000D01*
X126581426Y-119905147D01*
X126320273Y-120013320D01*
X126085241Y-120170363D01*
X125885363Y-120370241D01*
X125730000Y-120602759D01*
X125574637Y-120370241D01*
X125374759Y-120170363D01*
X125139727Y-120013320D01*
X124878574Y-119905147D01*
X124601335Y-119850000D01*
X124318665Y-119850000D01*
X124041426Y-119905147D01*
X123780273Y-120013320D01*
X123545241Y-120170363D01*
X123345363Y-120370241D01*
X123190000Y-120602759D01*
X123034637Y-120370241D01*
X122834759Y-120170363D01*
X122599727Y-120013320D01*
X122338574Y-119905147D01*
X122061335Y-119850000D01*
X121778665Y-119850000D01*
X121501426Y-119905147D01*
X121240273Y-120013320D01*
X121005241Y-120170363D01*
X120805363Y-120370241D01*
X120650000Y-120602759D01*
X120494637Y-120370241D01*
X120294759Y-120170363D01*
X120059727Y-120013320D01*
X119798574Y-119905147D01*
X119521335Y-119850000D01*
X119238665Y-119850000D01*
X118961426Y-119905147D01*
X118760000Y-119988580D01*
X118760000Y-116696740D01*
X141880964Y-116696740D01*
X141905245Y-116802087D01*
X142025138Y-117079204D01*
X142196790Y-117327606D01*
X142413604Y-117537748D01*
X142667249Y-117701554D01*
X142947977Y-117812729D01*
X143245000Y-117867000D01*
X144145000Y-117867000D01*
X144145000Y-116459000D01*
X144399000Y-116459000D01*
X144399000Y-117867000D01*
X145299000Y-117867000D01*
X145596023Y-117812729D01*
X145876751Y-117701554D01*
X146130396Y-117537748D01*
X146347210Y-117327606D01*
X146518862Y-117079204D01*
X146638755Y-116802087D01*
X146663036Y-116696740D01*
X146542378Y-116459000D01*
X144399000Y-116459000D01*
X144145000Y-116459000D01*
X142001622Y-116459000D01*
X141880964Y-116696740D01*
X118760000Y-116696740D01*
X118760000Y-115967260D01*
X141880964Y-115967260D01*
X142001622Y-116205000D01*
X144145000Y-116205000D01*
X144145000Y-114797000D01*
X144399000Y-114797000D01*
X144399000Y-116205000D01*
X146542378Y-116205000D01*
X146663036Y-115967260D01*
X146638755Y-115861913D01*
X146518862Y-115584796D01*
X146347210Y-115336394D01*
X146130396Y-115126252D01*
X145876751Y-114962446D01*
X145596023Y-114851271D01*
X145299000Y-114797000D01*
X144399000Y-114797000D01*
X144145000Y-114797000D01*
X143245000Y-114797000D01*
X142947977Y-114851271D01*
X142667249Y-114962446D01*
X142413604Y-115126252D01*
X142196790Y-115336394D01*
X142025138Y-115584796D01*
X141905245Y-115861913D01*
X141880964Y-115967260D01*
X118760000Y-115967260D01*
X118760000Y-111932000D01*
X141833928Y-111932000D01*
X141833928Y-113732000D01*
X141846188Y-113856482D01*
X141882498Y-113976180D01*
X141941463Y-114086494D01*
X142020815Y-114183185D01*
X142117506Y-114262537D01*
X142227820Y-114321502D01*
X142347518Y-114357812D01*
X142472000Y-114370072D01*
X146072000Y-114370072D01*
X146196482Y-114357812D01*
X146316180Y-114321502D01*
X146426494Y-114262537D01*
X146523185Y-114183185D01*
X146602537Y-114086494D01*
X146661502Y-113976180D01*
X146697812Y-113856482D01*
X146710072Y-113732000D01*
X146710072Y-111932000D01*
X146697812Y-111807518D01*
X146661502Y-111687820D01*
X146602537Y-111577506D01*
X146523185Y-111480815D01*
X146426494Y-111401463D01*
X146316180Y-111342498D01*
X146196482Y-111306188D01*
X146072000Y-111293928D01*
X142472000Y-111293928D01*
X142347518Y-111306188D01*
X142227820Y-111342498D01*
X142117506Y-111401463D01*
X142020815Y-111480815D01*
X141941463Y-111577506D01*
X141882498Y-111687820D01*
X141846188Y-111807518D01*
X141833928Y-111932000D01*
X118760000Y-111932000D01*
X118760000Y-107703711D01*
X118803937Y-107659774D01*
X118917205Y-107490256D01*
X118995226Y-107301898D01*
X119035000Y-107101939D01*
X119035000Y-106898061D01*
X118995226Y-106698102D01*
X118917205Y-106509744D01*
X118803937Y-106340226D01*
X118659774Y-106196063D01*
X118490256Y-106082795D01*
X118301898Y-106004774D01*
X118101939Y-105965000D01*
X117898061Y-105965000D01*
X117698102Y-106004774D01*
X117509744Y-106082795D01*
X117340226Y-106196063D01*
X117296289Y-106240000D01*
X107836000Y-106240000D01*
X107836000Y-103403061D01*
X129140000Y-103403061D01*
X129140000Y-103606939D01*
X129179774Y-103806898D01*
X129257795Y-103995256D01*
X129371063Y-104164774D01*
X129515226Y-104308937D01*
X129684744Y-104422205D01*
X129873102Y-104500226D01*
X130073061Y-104540000D01*
X130276939Y-104540000D01*
X130476898Y-104500226D01*
X130665256Y-104422205D01*
X130834774Y-104308937D01*
X130878711Y-104265000D01*
X133916289Y-104265000D01*
X133960226Y-104308937D01*
X134129744Y-104422205D01*
X134318102Y-104500226D01*
X134518061Y-104540000D01*
X134721939Y-104540000D01*
X134921898Y-104500226D01*
X135110256Y-104422205D01*
X135279774Y-104308937D01*
X135423937Y-104164774D01*
X135537205Y-103995256D01*
X135615226Y-103806898D01*
X135655000Y-103606939D01*
X135655000Y-103403061D01*
X135615226Y-103203102D01*
X135537205Y-103014744D01*
X135423937Y-102845226D01*
X135279774Y-102701063D01*
X135110256Y-102587795D01*
X134921898Y-102509774D01*
X134721939Y-102470000D01*
X134518061Y-102470000D01*
X134318102Y-102509774D01*
X134129744Y-102587795D01*
X133960226Y-102701063D01*
X133916289Y-102745000D01*
X130878711Y-102745000D01*
X130834774Y-102701063D01*
X130665256Y-102587795D01*
X130476898Y-102509774D01*
X130276939Y-102470000D01*
X130073061Y-102470000D01*
X129873102Y-102509774D01*
X129684744Y-102587795D01*
X129515226Y-102701063D01*
X129371063Y-102845226D01*
X129257795Y-103014744D01*
X129179774Y-103203102D01*
X129140000Y-103403061D01*
X107836000Y-103403061D01*
X107836000Y-103147395D01*
X108044927Y-103035721D01*
X108278661Y-102843901D01*
X108470481Y-102610167D01*
X108613017Y-102343501D01*
X108700790Y-102054153D01*
X108723000Y-101828648D01*
X108723000Y-99877832D01*
X108700790Y-99652327D01*
X108613017Y-99362979D01*
X108470481Y-99096313D01*
X108278661Y-98862579D01*
X108044926Y-98670759D01*
X107778260Y-98528223D01*
X107488912Y-98440450D01*
X107188000Y-98410813D01*
X106887087Y-98440450D01*
X106597739Y-98528223D01*
X106331073Y-98670759D01*
X106097339Y-98862579D01*
X105905519Y-99096314D01*
X105762983Y-99362980D01*
X105675210Y-99652328D01*
X105653000Y-99877833D01*
X105653000Y-101828648D01*
X105675211Y-102054153D01*
X105762984Y-102343501D01*
X105905520Y-102610167D01*
X106097340Y-102843901D01*
X106316001Y-103023351D01*
X106316000Y-107038677D01*
X106312324Y-107076000D01*
X106316000Y-107113322D01*
X106316000Y-107113332D01*
X106316001Y-107113342D01*
X106316000Y-110541710D01*
X106219073Y-110593519D01*
X105985339Y-110785339D01*
X105793519Y-111019074D01*
X105650983Y-111285740D01*
X105563210Y-111575088D01*
X105541000Y-111800593D01*
X105541000Y-113751408D01*
X105563211Y-113976913D01*
X105650984Y-114266261D01*
X105793520Y-114532927D01*
X105985340Y-114766661D01*
X106219074Y-114958481D01*
X106485740Y-115101017D01*
X106775088Y-115188790D01*
X107076000Y-115218427D01*
X107376913Y-115188790D01*
X107666261Y-115101017D01*
X107932927Y-114958481D01*
X108166661Y-114766661D01*
X108358481Y-114532927D01*
X108501017Y-114266261D01*
X108588790Y-113976913D01*
X108611000Y-113751408D01*
X108611000Y-111800592D01*
X108588790Y-111575087D01*
X108501017Y-111285739D01*
X108358481Y-111019073D01*
X108166661Y-110785339D01*
X107932926Y-110593519D01*
X107836000Y-110541711D01*
X107836000Y-107760000D01*
X117240000Y-107760000D01*
X117240001Y-119901453D01*
X116981335Y-119850000D01*
X116698665Y-119850000D01*
X116421426Y-119905147D01*
X116160273Y-120013320D01*
X115925241Y-120170363D01*
X115725363Y-120370241D01*
X115570000Y-120602759D01*
X115414637Y-120370241D01*
X115214759Y-120170363D01*
X114979727Y-120013320D01*
X114718574Y-119905147D01*
X114441335Y-119850000D01*
X114158665Y-119850000D01*
X113881426Y-119905147D01*
X113620273Y-120013320D01*
X113385241Y-120170363D01*
X113185363Y-120370241D01*
X113030000Y-120602759D01*
X112874637Y-120370241D01*
X112674759Y-120170363D01*
X112439727Y-120013320D01*
X112178574Y-119905147D01*
X111901335Y-119850000D01*
X111618665Y-119850000D01*
X111341426Y-119905147D01*
X111080273Y-120013320D01*
X110845241Y-120170363D01*
X110645363Y-120370241D01*
X110490000Y-120602759D01*
X110334637Y-120370241D01*
X110134759Y-120170363D01*
X109899727Y-120013320D01*
X109638574Y-119905147D01*
X109361335Y-119850000D01*
X109078665Y-119850000D01*
X108801426Y-119905147D01*
X108540273Y-120013320D01*
X108305241Y-120170363D01*
X108105363Y-120370241D01*
X107950000Y-120602759D01*
X107794637Y-120370241D01*
X107594759Y-120170363D01*
X107359727Y-120013320D01*
X107098574Y-119905147D01*
X106821335Y-119850000D01*
X106538665Y-119850000D01*
X106261426Y-119905147D01*
X106000273Y-120013320D01*
X105765241Y-120170363D01*
X105565363Y-120370241D01*
X105410000Y-120602759D01*
X105254637Y-120370241D01*
X105054759Y-120170363D01*
X104819727Y-120013320D01*
X104558574Y-119905147D01*
X104281335Y-119850000D01*
X103998665Y-119850000D01*
X103721426Y-119905147D01*
X103460273Y-120013320D01*
X103225241Y-120170363D01*
X103025363Y-120370241D01*
X102868320Y-120605273D01*
X102760147Y-120866426D01*
X102705000Y-121143665D01*
X97301920Y-121143665D01*
X97301920Y-114576000D01*
X98537928Y-114576000D01*
X98550188Y-114700482D01*
X98586498Y-114820180D01*
X98645463Y-114930494D01*
X98724815Y-115027185D01*
X98821506Y-115106537D01*
X98931820Y-115165502D01*
X99051518Y-115201812D01*
X99176000Y-115214072D01*
X99790250Y-115211000D01*
X99949000Y-115052250D01*
X99949000Y-112903000D01*
X100203000Y-112903000D01*
X100203000Y-115052250D01*
X100361750Y-115211000D01*
X100976000Y-115214072D01*
X101100482Y-115201812D01*
X101220180Y-115165502D01*
X101330494Y-115106537D01*
X101427185Y-115027185D01*
X101506537Y-114930494D01*
X101565502Y-114820180D01*
X101601812Y-114700482D01*
X101614072Y-114576000D01*
X101611000Y-113061750D01*
X101452250Y-112903000D01*
X100203000Y-112903000D01*
X99949000Y-112903000D01*
X98699750Y-112903000D01*
X98541000Y-113061750D01*
X98537928Y-114576000D01*
X97301920Y-114576000D01*
X97301920Y-110976000D01*
X98537928Y-110976000D01*
X98541000Y-112490250D01*
X98699750Y-112649000D01*
X99949000Y-112649000D01*
X99949000Y-110499750D01*
X100203000Y-110499750D01*
X100203000Y-112649000D01*
X101452250Y-112649000D01*
X101611000Y-112490250D01*
X101612399Y-111800593D01*
X102041000Y-111800593D01*
X102041000Y-113751408D01*
X102063211Y-113976913D01*
X102150984Y-114266261D01*
X102293520Y-114532927D01*
X102485340Y-114766661D01*
X102719074Y-114958481D01*
X102985740Y-115101017D01*
X103275088Y-115188790D01*
X103576000Y-115218427D01*
X103876913Y-115188790D01*
X104166261Y-115101017D01*
X104432927Y-114958481D01*
X104666661Y-114766661D01*
X104858481Y-114532927D01*
X105001017Y-114266261D01*
X105088790Y-113976913D01*
X105111000Y-113751408D01*
X105111000Y-111800592D01*
X105088790Y-111575087D01*
X105001017Y-111285739D01*
X104858481Y-111019073D01*
X104666661Y-110785339D01*
X104432926Y-110593519D01*
X104166260Y-110450983D01*
X103876912Y-110363210D01*
X103576000Y-110333573D01*
X103275087Y-110363210D01*
X102985739Y-110450983D01*
X102719073Y-110593519D01*
X102485339Y-110785339D01*
X102293519Y-111019074D01*
X102150983Y-111285740D01*
X102063210Y-111575088D01*
X102041000Y-111800593D01*
X101612399Y-111800593D01*
X101614072Y-110976000D01*
X101601812Y-110851518D01*
X101565502Y-110731820D01*
X101506537Y-110621506D01*
X101427185Y-110524815D01*
X101330494Y-110445463D01*
X101220180Y-110386498D01*
X101100482Y-110350188D01*
X100976000Y-110337928D01*
X100361750Y-110341000D01*
X100203000Y-110499750D01*
X99949000Y-110499750D01*
X99790250Y-110341000D01*
X99176000Y-110337928D01*
X99051518Y-110350188D01*
X98931820Y-110386498D01*
X98821506Y-110445463D01*
X98724815Y-110524815D01*
X98645463Y-110621506D01*
X98586498Y-110731820D01*
X98550188Y-110851518D01*
X98537928Y-110976000D01*
X97301920Y-110976000D01*
X97301920Y-102653240D01*
X98649928Y-102653240D01*
X98662188Y-102777722D01*
X98698498Y-102897420D01*
X98757463Y-103007734D01*
X98836815Y-103104425D01*
X98933506Y-103183777D01*
X99043820Y-103242742D01*
X99163518Y-103279052D01*
X99288000Y-103291312D01*
X99902250Y-103288240D01*
X100061000Y-103129490D01*
X100061000Y-100980240D01*
X100315000Y-100980240D01*
X100315000Y-103129490D01*
X100473750Y-103288240D01*
X101088000Y-103291312D01*
X101212482Y-103279052D01*
X101332180Y-103242742D01*
X101442494Y-103183777D01*
X101539185Y-103104425D01*
X101618537Y-103007734D01*
X101677502Y-102897420D01*
X101713812Y-102777722D01*
X101726072Y-102653240D01*
X101723000Y-101138990D01*
X101564250Y-100980240D01*
X100315000Y-100980240D01*
X100061000Y-100980240D01*
X98811750Y-100980240D01*
X98653000Y-101138990D01*
X98649928Y-102653240D01*
X97301920Y-102653240D01*
X97301920Y-99053240D01*
X98649928Y-99053240D01*
X98653000Y-100567490D01*
X98811750Y-100726240D01*
X100061000Y-100726240D01*
X100061000Y-98576990D01*
X100315000Y-98576990D01*
X100315000Y-100726240D01*
X101564250Y-100726240D01*
X101723000Y-100567490D01*
X101724399Y-99877833D01*
X102153000Y-99877833D01*
X102153000Y-101828648D01*
X102175211Y-102054153D01*
X102262984Y-102343501D01*
X102405520Y-102610167D01*
X102597340Y-102843901D01*
X102831074Y-103035721D01*
X103097740Y-103178257D01*
X103387088Y-103266030D01*
X103688000Y-103295667D01*
X103988913Y-103266030D01*
X104278261Y-103178257D01*
X104544927Y-103035721D01*
X104778661Y-102843901D01*
X104970481Y-102610167D01*
X105113017Y-102343501D01*
X105200790Y-102054153D01*
X105223000Y-101828648D01*
X105223000Y-99877832D01*
X105200790Y-99652327D01*
X105113017Y-99362979D01*
X104970481Y-99096313D01*
X104778661Y-98862579D01*
X104544926Y-98670759D01*
X104278260Y-98528223D01*
X103988912Y-98440450D01*
X103688000Y-98410813D01*
X103387087Y-98440450D01*
X103097739Y-98528223D01*
X102831073Y-98670759D01*
X102597339Y-98862579D01*
X102405519Y-99096314D01*
X102262983Y-99362980D01*
X102175210Y-99652328D01*
X102153000Y-99877833D01*
X101724399Y-99877833D01*
X101726072Y-99053240D01*
X101713812Y-98928758D01*
X101677502Y-98809060D01*
X101618537Y-98698746D01*
X101539185Y-98602055D01*
X101442494Y-98522703D01*
X101332180Y-98463738D01*
X101212482Y-98427428D01*
X101088000Y-98415168D01*
X100473750Y-98418240D01*
X100315000Y-98576990D01*
X100061000Y-98576990D01*
X99902250Y-98418240D01*
X99288000Y-98415168D01*
X99163518Y-98427428D01*
X99043820Y-98463738D01*
X98933506Y-98522703D01*
X98836815Y-98602055D01*
X98757463Y-98698746D01*
X98698498Y-98809060D01*
X98662188Y-98928758D01*
X98649928Y-99053240D01*
X97301920Y-99053240D01*
X97301920Y-97643740D01*
X135675000Y-97643740D01*
X135675000Y-97936260D01*
X135732068Y-98223158D01*
X135844010Y-98493411D01*
X136006525Y-98736632D01*
X136213368Y-98943475D01*
X136456589Y-99105990D01*
X136726842Y-99217932D01*
X137013740Y-99275000D01*
X137306260Y-99275000D01*
X137593158Y-99217932D01*
X137863411Y-99105990D01*
X138106632Y-98943475D01*
X138313475Y-98736632D01*
X138430000Y-98562240D01*
X138546525Y-98736632D01*
X138753368Y-98943475D01*
X138996589Y-99105990D01*
X139266842Y-99217932D01*
X139553740Y-99275000D01*
X139846260Y-99275000D01*
X140133158Y-99217932D01*
X140403411Y-99105990D01*
X140646632Y-98943475D01*
X140778487Y-98811620D01*
X140800498Y-98884180D01*
X140859463Y-98994494D01*
X140938815Y-99091185D01*
X141035506Y-99170537D01*
X141145820Y-99229502D01*
X141265518Y-99265812D01*
X141390000Y-99278072D01*
X141954250Y-99275000D01*
X142113000Y-99116250D01*
X142113000Y-97917000D01*
X142367000Y-97917000D01*
X142367000Y-99116250D01*
X142525750Y-99275000D01*
X143090000Y-99278072D01*
X143214482Y-99265812D01*
X143334180Y-99229502D01*
X143444494Y-99170537D01*
X143541185Y-99091185D01*
X143620537Y-98994494D01*
X143679502Y-98884180D01*
X143715812Y-98764482D01*
X143728072Y-98640000D01*
X143725000Y-98075750D01*
X143566250Y-97917000D01*
X142367000Y-97917000D01*
X142113000Y-97917000D01*
X142093000Y-97917000D01*
X142093000Y-97663000D01*
X142113000Y-97663000D01*
X142113000Y-96463750D01*
X142367000Y-96463750D01*
X142367000Y-97663000D01*
X143566250Y-97663000D01*
X143725000Y-97504250D01*
X143728072Y-96940000D01*
X143715812Y-96815518D01*
X143679502Y-96695820D01*
X143620537Y-96585506D01*
X143541185Y-96488815D01*
X143444494Y-96409463D01*
X143334180Y-96350498D01*
X143214482Y-96314188D01*
X143090000Y-96301928D01*
X142525750Y-96305000D01*
X142367000Y-96463750D01*
X142113000Y-96463750D01*
X141954250Y-96305000D01*
X141390000Y-96301928D01*
X141265518Y-96314188D01*
X141145820Y-96350498D01*
X141035506Y-96409463D01*
X140938815Y-96488815D01*
X140859463Y-96585506D01*
X140800498Y-96695820D01*
X140778487Y-96768380D01*
X140646632Y-96636525D01*
X140403411Y-96474010D01*
X140133158Y-96362068D01*
X139846260Y-96305000D01*
X139553740Y-96305000D01*
X139266842Y-96362068D01*
X138996589Y-96474010D01*
X138753368Y-96636525D01*
X138546525Y-96843368D01*
X138430000Y-97017760D01*
X138313475Y-96843368D01*
X138106632Y-96636525D01*
X137863411Y-96474010D01*
X137593158Y-96362068D01*
X137306260Y-96305000D01*
X137013740Y-96305000D01*
X136726842Y-96362068D01*
X136456589Y-96474010D01*
X136213368Y-96636525D01*
X136006525Y-96843368D01*
X135844010Y-97086589D01*
X135732068Y-97356842D01*
X135675000Y-97643740D01*
X97301920Y-97643740D01*
X97301920Y-94955148D01*
X150165201Y-94935254D01*
X150165200Y-163449400D01*
G37*
X150165200Y-163449400D02*
X97301920Y-163449400D01*
X97301920Y-159179872D01*
X99215000Y-159179872D01*
X99215000Y-159620128D01*
X99300890Y-160051925D01*
X99469369Y-160458669D01*
X99713962Y-160824729D01*
X100025271Y-161136038D01*
X100391331Y-161380631D01*
X100798075Y-161549110D01*
X101229872Y-161635000D01*
X101670128Y-161635000D01*
X102101925Y-161549110D01*
X102508669Y-161380631D01*
X102874729Y-161136038D01*
X103186038Y-160824729D01*
X103430631Y-160458669D01*
X103599110Y-160051925D01*
X103685000Y-159620128D01*
X103685000Y-159179872D01*
X144115000Y-159179872D01*
X144115000Y-159620128D01*
X144200890Y-160051925D01*
X144369369Y-160458669D01*
X144613962Y-160824729D01*
X144925271Y-161136038D01*
X145291331Y-161380631D01*
X145698075Y-161549110D01*
X146129872Y-161635000D01*
X146570128Y-161635000D01*
X147001925Y-161549110D01*
X147408669Y-161380631D01*
X147774729Y-161136038D01*
X148086038Y-160824729D01*
X148330631Y-160458669D01*
X148499110Y-160051925D01*
X148585000Y-159620128D01*
X148585000Y-159179872D01*
X148499110Y-158748075D01*
X148330631Y-158341331D01*
X148086038Y-157975271D01*
X147774729Y-157663962D01*
X147408669Y-157419369D01*
X147001925Y-157250890D01*
X146570128Y-157165000D01*
X146129872Y-157165000D01*
X145698075Y-157250890D01*
X145291331Y-157419369D01*
X144925271Y-157663962D01*
X144613962Y-157975271D01*
X144369369Y-158341331D01*
X144200890Y-158748075D01*
X144115000Y-159179872D01*
X103685000Y-159179872D01*
X103599110Y-158748075D01*
X103430631Y-158341331D01*
X103186038Y-157975271D01*
X102874729Y-157663962D01*
X102508669Y-157419369D01*
X102101925Y-157250890D01*
X101670128Y-157165000D01*
X101229872Y-157165000D01*
X100798075Y-157250890D01*
X100391331Y-157419369D01*
X100025271Y-157663962D01*
X99713962Y-157975271D01*
X99469369Y-158341331D01*
X99300890Y-158748075D01*
X99215000Y-159179872D01*
X97301920Y-159179872D01*
X97301920Y-146344592D01*
X107050000Y-146344592D01*
X107050000Y-148295407D01*
X107072210Y-148520912D01*
X107159983Y-148810260D01*
X107302519Y-149076926D01*
X107494339Y-149310661D01*
X107728073Y-149502481D01*
X107994739Y-149645017D01*
X108284087Y-149732790D01*
X108585000Y-149762427D01*
X108885912Y-149732790D01*
X109175260Y-149645017D01*
X109441926Y-149502481D01*
X109675661Y-149310661D01*
X109867481Y-149076927D01*
X110010017Y-148810261D01*
X110097790Y-148520913D01*
X110120000Y-148295408D01*
X110120000Y-146344592D01*
X110550000Y-146344592D01*
X110550000Y-148295407D01*
X110572210Y-148520912D01*
X110659983Y-148810260D01*
X110802519Y-149076926D01*
X110994339Y-149310661D01*
X111228073Y-149502481D01*
X111494739Y-149645017D01*
X111784087Y-149732790D01*
X112085000Y-149762427D01*
X112385912Y-149732790D01*
X112675260Y-149645017D01*
X112941926Y-149502481D01*
X113175661Y-149310661D01*
X113367481Y-149076927D01*
X113510017Y-148810261D01*
X113597790Y-148520913D01*
X113620000Y-148295408D01*
X113620000Y-146344592D01*
X114050000Y-146344592D01*
X114050000Y-148295407D01*
X114072210Y-148520912D01*
X114159983Y-148810260D01*
X114302519Y-149076926D01*
X114494339Y-149310661D01*
X114728073Y-149502481D01*
X114994739Y-149645017D01*
X115284087Y-149732790D01*
X115585000Y-149762427D01*
X115885912Y-149732790D01*
X116175260Y-149645017D01*
X116441926Y-149502481D01*
X116675661Y-149310661D01*
X116867481Y-149076927D01*
X117010017Y-148810261D01*
X117097790Y-148520913D01*
X117120000Y-148295408D01*
X117120000Y-146344592D01*
X117097790Y-146119087D01*
X117010017Y-145829739D01*
X116867481Y-145563073D01*
X116832133Y-145520000D01*
X117546928Y-145520000D01*
X117546928Y-149120000D01*
X117559188Y-149244482D01*
X117595498Y-149364180D01*
X117654463Y-149474494D01*
X117733815Y-149571185D01*
X117830506Y-149650537D01*
X117940820Y-149709502D01*
X118060518Y-149745812D01*
X118185000Y-149758072D01*
X119985000Y-149758072D01*
X120109482Y-149745812D01*
X120229180Y-149709502D01*
X120339494Y-149650537D01*
X120436185Y-149571185D01*
X120515537Y-149474494D01*
X120574502Y-149364180D01*
X120610812Y-149244482D01*
X120623072Y-149120000D01*
X120623072Y-146344592D01*
X126720000Y-146344592D01*
X126720000Y-148295407D01*
X126742210Y-148520912D01*
X126829983Y-148810260D01*
X126972519Y-149076926D01*
X127164339Y-149310661D01*
X127398073Y-149502481D01*
X127664739Y-149645017D01*
X127954087Y-149732790D01*
X128255000Y-149762427D01*
X128555912Y-149732790D01*
X128845260Y-149645017D01*
X129111926Y-149502481D01*
X129345661Y-149310661D01*
X129537481Y-149076927D01*
X129680017Y-148810261D01*
X129767790Y-148520913D01*
X129790000Y-148295408D01*
X129790000Y-146344592D01*
X130220000Y-146344592D01*
X130220000Y-148295407D01*
X130242210Y-148520912D01*
X130329983Y-148810260D01*
X130472519Y-149076926D01*
X130664339Y-149310661D01*
X130898073Y-149502481D01*
X131164739Y-149645017D01*
X131454087Y-149732790D01*
X131755000Y-149762427D01*
X132055912Y-149732790D01*
X132345260Y-149645017D01*
X132611926Y-149502481D01*
X132845661Y-149310661D01*
X133037481Y-149076927D01*
X133180017Y-148810261D01*
X133267790Y-148520913D01*
X133290000Y-148295408D01*
X133290000Y-146344592D01*
X133720000Y-146344592D01*
X133720000Y-148295407D01*
X133742210Y-148520912D01*
X133829983Y-148810260D01*
X133972519Y-149076926D01*
X134164339Y-149310661D01*
X134398073Y-149502481D01*
X134664739Y-149645017D01*
X134954087Y-149732790D01*
X135255000Y-149762427D01*
X135555912Y-149732790D01*
X135845260Y-149645017D01*
X136111926Y-149502481D01*
X136345661Y-149310661D01*
X136537481Y-149076927D01*
X136680017Y-148810261D01*
X136767790Y-148520913D01*
X136790000Y-148295408D01*
X136790000Y-146344592D01*
X136767790Y-146119087D01*
X136680017Y-145829739D01*
X136537481Y-145563073D01*
X136502133Y-145520000D01*
X137216928Y-145520000D01*
X137216928Y-149120000D01*
X137229188Y-149244482D01*
X137265498Y-149364180D01*
X137324463Y-149474494D01*
X137403815Y-149571185D01*
X137500506Y-149650537D01*
X137610820Y-149709502D01*
X137730518Y-149745812D01*
X137855000Y-149758072D01*
X139655000Y-149758072D01*
X139779482Y-149745812D01*
X139899180Y-149709502D01*
X140009494Y-149650537D01*
X140106185Y-149571185D01*
X140185537Y-149474494D01*
X140244502Y-149364180D01*
X140280812Y-149244482D01*
X140293072Y-149120000D01*
X140293072Y-145520000D01*
X140280812Y-145395518D01*
X140244502Y-145275820D01*
X140185537Y-145165506D01*
X140106185Y-145068815D01*
X140009494Y-144989463D01*
X139899180Y-144930498D01*
X139779482Y-144894188D01*
X139655000Y-144881928D01*
X137855000Y-144881928D01*
X137730518Y-144894188D01*
X137610820Y-144930498D01*
X137500506Y-144989463D01*
X137403815Y-145068815D01*
X137324463Y-145165506D01*
X137265498Y-145275820D01*
X137229188Y-145395518D01*
X137216928Y-145520000D01*
X136502133Y-145520000D01*
X136345661Y-145329339D01*
X136111927Y-145137519D01*
X135845261Y-144994983D01*
X135555913Y-144907210D01*
X135255000Y-144877573D01*
X134954088Y-144907210D01*
X134664740Y-144994983D01*
X134398074Y-145137519D01*
X134164340Y-145329339D01*
X133972520Y-145563073D01*
X133829984Y-145829739D01*
X133742211Y-146119087D01*
X133720000Y-146344592D01*
X133290000Y-146344592D01*
X133267790Y-146119087D01*
X133180017Y-145829739D01*
X133037481Y-145563073D01*
X132845661Y-145329339D01*
X132611927Y-145137519D01*
X132345261Y-144994983D01*
X132055913Y-144907210D01*
X131755000Y-144877573D01*
X131454088Y-144907210D01*
X131164740Y-144994983D01*
X130898074Y-145137519D01*
X130664340Y-145329339D01*
X130472520Y-145563073D01*
X130329984Y-145829739D01*
X130242211Y-146119087D01*
X130220000Y-146344592D01*
X129790000Y-146344592D01*
X129767790Y-146119087D01*
X129680017Y-145829739D01*
X129537481Y-145563073D01*
X129345661Y-145329339D01*
X129111927Y-145137519D01*
X128845261Y-144994983D01*
X128555913Y-144907210D01*
X128255000Y-144877573D01*
X127954088Y-144907210D01*
X127664740Y-144994983D01*
X127398074Y-145137519D01*
X127164340Y-145329339D01*
X126972520Y-145563073D01*
X126829984Y-145829739D01*
X126742211Y-146119087D01*
X126720000Y-146344592D01*
X120623072Y-146344592D01*
X120623072Y-145520000D01*
X120610812Y-145395518D01*
X120574502Y-145275820D01*
X120515537Y-145165506D01*
X120436185Y-145068815D01*
X120339494Y-144989463D01*
X120229180Y-144930498D01*
X120109482Y-144894188D01*
X119985000Y-144881928D01*
X118185000Y-144881928D01*
X118060518Y-144894188D01*
X117940820Y-144930498D01*
X117830506Y-144989463D01*
X117733815Y-145068815D01*
X117654463Y-145165506D01*
X117595498Y-145275820D01*
X117559188Y-145395518D01*
X117546928Y-145520000D01*
X116832133Y-145520000D01*
X116675661Y-145329339D01*
X116441927Y-145137519D01*
X116175261Y-144994983D01*
X115885913Y-144907210D01*
X115585000Y-144877573D01*
X115284088Y-144907210D01*
X114994740Y-144994983D01*
X114728074Y-145137519D01*
X114494340Y-145329339D01*
X114302520Y-145563073D01*
X114159984Y-145829739D01*
X114072211Y-146119087D01*
X114050000Y-146344592D01*
X113620000Y-146344592D01*
X113597790Y-146119087D01*
X113510017Y-145829739D01*
X113367481Y-145563073D01*
X113175661Y-145329339D01*
X112941927Y-145137519D01*
X112675261Y-144994983D01*
X112385913Y-144907210D01*
X112085000Y-144877573D01*
X111784088Y-144907210D01*
X111494740Y-144994983D01*
X111228074Y-145137519D01*
X110994340Y-145329339D01*
X110802520Y-145563073D01*
X110659984Y-145829739D01*
X110572211Y-146119087D01*
X110550000Y-146344592D01*
X110120000Y-146344592D01*
X110097790Y-146119087D01*
X110010017Y-145829739D01*
X109867481Y-145563073D01*
X109675661Y-145329339D01*
X109441927Y-145137519D01*
X109175261Y-144994983D01*
X108885913Y-144907210D01*
X108585000Y-144877573D01*
X108284088Y-144907210D01*
X107994740Y-144994983D01*
X107728074Y-145137519D01*
X107494340Y-145329339D01*
X107302520Y-145563073D01*
X107159984Y-145829739D01*
X107072211Y-146119087D01*
X107050000Y-146344592D01*
X97301920Y-146344592D01*
X97301920Y-134785000D01*
X102701928Y-134785000D01*
X102714188Y-134909482D01*
X102750498Y-135029180D01*
X102809463Y-135139494D01*
X102888815Y-135236185D01*
X102985506Y-135315537D01*
X103095820Y-135374502D01*
X103215518Y-135410812D01*
X103340000Y-135423072D01*
X103854250Y-135420000D01*
X104013000Y-135261250D01*
X104013000Y-134112000D01*
X102863750Y-134112000D01*
X102705000Y-134270750D01*
X102701928Y-134785000D01*
X97301920Y-134785000D01*
X97301920Y-133185000D01*
X102701928Y-133185000D01*
X102705000Y-133699250D01*
X102863750Y-133858000D01*
X104013000Y-133858000D01*
X104013000Y-132708750D01*
X104267000Y-132708750D01*
X104267000Y-133858000D01*
X104287000Y-133858000D01*
X104287000Y-134112000D01*
X104267000Y-134112000D01*
X104267000Y-135261250D01*
X104425750Y-135420000D01*
X104940000Y-135423072D01*
X105064482Y-135410812D01*
X105184180Y-135374502D01*
X105294494Y-135315537D01*
X105391185Y-135236185D01*
X105470537Y-135139494D01*
X105529502Y-135029180D01*
X105565812Y-134909482D01*
X105566643Y-134901039D01*
X105765241Y-135099637D01*
X106000273Y-135256680D01*
X106261426Y-135364853D01*
X106538665Y-135420000D01*
X106821335Y-135420000D01*
X107098574Y-135364853D01*
X107359727Y-135256680D01*
X107594759Y-135099637D01*
X107794637Y-134899759D01*
X107950000Y-134667241D01*
X108105363Y-134899759D01*
X108305241Y-135099637D01*
X108540273Y-135256680D01*
X108801426Y-135364853D01*
X109078665Y-135420000D01*
X109361335Y-135420000D01*
X109638574Y-135364853D01*
X109899727Y-135256680D01*
X110134759Y-135099637D01*
X110334637Y-134899759D01*
X110490000Y-134667241D01*
X110645363Y-134899759D01*
X110845241Y-135099637D01*
X111080273Y-135256680D01*
X111341426Y-135364853D01*
X111618665Y-135420000D01*
X111901335Y-135420000D01*
X112178574Y-135364853D01*
X112439727Y-135256680D01*
X112674759Y-135099637D01*
X112874637Y-134899759D01*
X113030000Y-134667241D01*
X113185363Y-134899759D01*
X113385241Y-135099637D01*
X113620273Y-135256680D01*
X113881426Y-135364853D01*
X114158665Y-135420000D01*
X114441335Y-135420000D01*
X114718574Y-135364853D01*
X114979727Y-135256680D01*
X115214759Y-135099637D01*
X115414637Y-134899759D01*
X115570000Y-134667241D01*
X115725363Y-134899759D01*
X115925241Y-135099637D01*
X116160273Y-135256680D01*
X116421426Y-135364853D01*
X116698665Y-135420000D01*
X116981335Y-135420000D01*
X117258574Y-135364853D01*
X117519727Y-135256680D01*
X117754759Y-135099637D01*
X117954637Y-134899759D01*
X118111680Y-134664727D01*
X118116067Y-134654135D01*
X118227615Y-134840131D01*
X118416586Y-135048519D01*
X118642580Y-135216037D01*
X118896913Y-135336246D01*
X119030961Y-135376904D01*
X119253000Y-135254915D01*
X119253000Y-134112000D01*
X119233000Y-134112000D01*
X119233000Y-133858000D01*
X119253000Y-133858000D01*
X119253000Y-132715085D01*
X119507000Y-132715085D01*
X119507000Y-133858000D01*
X119527000Y-133858000D01*
X119527000Y-134112000D01*
X119507000Y-134112000D01*
X119507000Y-135254915D01*
X119729039Y-135376904D01*
X119863087Y-135336246D01*
X120117420Y-135216037D01*
X120343414Y-135048519D01*
X120532385Y-134840131D01*
X120643933Y-134654135D01*
X120648320Y-134664727D01*
X120805363Y-134899759D01*
X121005241Y-135099637D01*
X121240273Y-135256680D01*
X121501426Y-135364853D01*
X121778665Y-135420000D01*
X122061335Y-135420000D01*
X122338574Y-135364853D01*
X122599727Y-135256680D01*
X122834759Y-135099637D01*
X123033357Y-134901039D01*
X123034188Y-134909482D01*
X123070498Y-135029180D01*
X123129463Y-135139494D01*
X123208815Y-135236185D01*
X123305506Y-135315537D01*
X123415820Y-135374502D01*
X123535518Y-135410812D01*
X123660000Y-135423072D01*
X124174250Y-135420000D01*
X124333000Y-135261250D01*
X124333000Y-134112000D01*
X124313000Y-134112000D01*
X124313000Y-133858000D01*
X124333000Y-133858000D01*
X124333000Y-132708750D01*
X124587000Y-132708750D01*
X124587000Y-133858000D01*
X124607000Y-133858000D01*
X124607000Y-134112000D01*
X124587000Y-134112000D01*
X124587000Y-135261250D01*
X124745750Y-135420000D01*
X125260000Y-135423072D01*
X125384482Y-135410812D01*
X125504180Y-135374502D01*
X125614494Y-135315537D01*
X125711185Y-135236185D01*
X125790537Y-135139494D01*
X125849502Y-135029180D01*
X125885812Y-134909482D01*
X125886643Y-134901039D01*
X126085241Y-135099637D01*
X126320273Y-135256680D01*
X126581426Y-135364853D01*
X126858665Y-135420000D01*
X127141335Y-135420000D01*
X127418574Y-135364853D01*
X127679727Y-135256680D01*
X127914759Y-135099637D01*
X128114637Y-134899759D01*
X128270000Y-134667241D01*
X128425363Y-134899759D01*
X128625241Y-135099637D01*
X128860273Y-135256680D01*
X129121426Y-135364853D01*
X129398665Y-135420000D01*
X129681335Y-135420000D01*
X129958574Y-135364853D01*
X130219727Y-135256680D01*
X130454759Y-135099637D01*
X130654637Y-134899759D01*
X130810000Y-134667241D01*
X130965363Y-134899759D01*
X131165241Y-135099637D01*
X131400273Y-135256680D01*
X131661426Y-135364853D01*
X131938665Y-135420000D01*
X132221335Y-135420000D01*
X132498574Y-135364853D01*
X132759727Y-135256680D01*
X132994759Y-135099637D01*
X133194637Y-134899759D01*
X133350000Y-134667241D01*
X133505363Y-134899759D01*
X133705241Y-135099637D01*
X133940273Y-135256680D01*
X134201426Y-135364853D01*
X134478665Y-135420000D01*
X134761335Y-135420000D01*
X135038574Y-135364853D01*
X135299727Y-135256680D01*
X135534759Y-135099637D01*
X135734637Y-134899759D01*
X135890000Y-134667241D01*
X136045363Y-134899759D01*
X136245241Y-135099637D01*
X136480273Y-135256680D01*
X136741426Y-135364853D01*
X137018665Y-135420000D01*
X137301335Y-135420000D01*
X137578574Y-135364853D01*
X137839727Y-135256680D01*
X138074759Y-135099637D01*
X138274637Y-134899759D01*
X138431680Y-134664727D01*
X138436067Y-134654135D01*
X138547615Y-134840131D01*
X138736586Y-135048519D01*
X138962580Y-135216037D01*
X139216913Y-135336246D01*
X139350961Y-135376904D01*
X139573000Y-135254915D01*
X139573000Y-134112000D01*
X139553000Y-134112000D01*
X139553000Y-133858000D01*
X139573000Y-133858000D01*
X139573000Y-132715085D01*
X139827000Y-132715085D01*
X139827000Y-133858000D01*
X139847000Y-133858000D01*
X139847000Y-134112000D01*
X139827000Y-134112000D01*
X139827000Y-135254915D01*
X140049039Y-135376904D01*
X140183087Y-135336246D01*
X140437420Y-135216037D01*
X140663414Y-135048519D01*
X140852385Y-134840131D01*
X140963933Y-134654135D01*
X140968320Y-134664727D01*
X141125363Y-134899759D01*
X141325241Y-135099637D01*
X141560273Y-135256680D01*
X141821426Y-135364853D01*
X142098665Y-135420000D01*
X142381335Y-135420000D01*
X142658574Y-135364853D01*
X142919727Y-135256680D01*
X143154759Y-135099637D01*
X143354637Y-134899759D01*
X143511680Y-134664727D01*
X143619853Y-134403574D01*
X143675000Y-134126335D01*
X143675000Y-133843665D01*
X143619853Y-133566426D01*
X143511680Y-133305273D01*
X143354637Y-133070241D01*
X143154759Y-132870363D01*
X142919727Y-132713320D01*
X142658574Y-132605147D01*
X142381335Y-132550000D01*
X142098665Y-132550000D01*
X141821426Y-132605147D01*
X141560273Y-132713320D01*
X141325241Y-132870363D01*
X141125363Y-133070241D01*
X140968320Y-133305273D01*
X140963933Y-133315865D01*
X140852385Y-133129869D01*
X140663414Y-132921481D01*
X140437420Y-132753963D01*
X140183087Y-132633754D01*
X140049039Y-132593096D01*
X139827000Y-132715085D01*
X139573000Y-132715085D01*
X139350961Y-132593096D01*
X139216913Y-132633754D01*
X138962580Y-132753963D01*
X138736586Y-132921481D01*
X138547615Y-133129869D01*
X138436067Y-133315865D01*
X138431680Y-133305273D01*
X138274637Y-133070241D01*
X138074759Y-132870363D01*
X137839727Y-132713320D01*
X137578574Y-132605147D01*
X137301335Y-132550000D01*
X137018665Y-132550000D01*
X136741426Y-132605147D01*
X136480273Y-132713320D01*
X136245241Y-132870363D01*
X136045363Y-133070241D01*
X135890000Y-133302759D01*
X135734637Y-133070241D01*
X135534759Y-132870363D01*
X135299727Y-132713320D01*
X135038574Y-132605147D01*
X134761335Y-132550000D01*
X134478665Y-132550000D01*
X134201426Y-132605147D01*
X133940273Y-132713320D01*
X133705241Y-132870363D01*
X133505363Y-133070241D01*
X133350000Y-133302759D01*
X133194637Y-133070241D01*
X132994759Y-132870363D01*
X132759727Y-132713320D01*
X132498574Y-132605147D01*
X132221335Y-132550000D01*
X131938665Y-132550000D01*
X131661426Y-132605147D01*
X131400273Y-132713320D01*
X131165241Y-132870363D01*
X130965363Y-133070241D01*
X130810000Y-133302759D01*
X130654637Y-133070241D01*
X130454759Y-132870363D01*
X130219727Y-132713320D01*
X129958574Y-132605147D01*
X129681335Y-132550000D01*
X129398665Y-132550000D01*
X129121426Y-132605147D01*
X128860273Y-132713320D01*
X128625241Y-132870363D01*
X128425363Y-133070241D01*
X128270000Y-133302759D01*
X128114637Y-133070241D01*
X127914759Y-132870363D01*
X127679727Y-132713320D01*
X127418574Y-132605147D01*
X127141335Y-132550000D01*
X126858665Y-132550000D01*
X126581426Y-132605147D01*
X126320273Y-132713320D01*
X126085241Y-132870363D01*
X125886643Y-133068961D01*
X125885812Y-133060518D01*
X125849502Y-132940820D01*
X125790537Y-132830506D01*
X125711185Y-132733815D01*
X125614494Y-132654463D01*
X125504180Y-132595498D01*
X125384482Y-132559188D01*
X125260000Y-132546928D01*
X124745750Y-132550000D01*
X124587000Y-132708750D01*
X124333000Y-132708750D01*
X124174250Y-132550000D01*
X123660000Y-132546928D01*
X123535518Y-132559188D01*
X123415820Y-132595498D01*
X123305506Y-132654463D01*
X123208815Y-132733815D01*
X123129463Y-132830506D01*
X123070498Y-132940820D01*
X123034188Y-133060518D01*
X123033357Y-133068961D01*
X122834759Y-132870363D01*
X122599727Y-132713320D01*
X122338574Y-132605147D01*
X122061335Y-132550000D01*
X121778665Y-132550000D01*
X121501426Y-132605147D01*
X121240273Y-132713320D01*
X121005241Y-132870363D01*
X120805363Y-133070241D01*
X120648320Y-133305273D01*
X120643933Y-133315865D01*
X120532385Y-133129869D01*
X120343414Y-132921481D01*
X120117420Y-132753963D01*
X119863087Y-132633754D01*
X119729039Y-132593096D01*
X119507000Y-132715085D01*
X119253000Y-132715085D01*
X119030961Y-132593096D01*
X118896913Y-132633754D01*
X118642580Y-132753963D01*
X118416586Y-132921481D01*
X118227615Y-133129869D01*
X118116067Y-133315865D01*
X118111680Y-133305273D01*
X117954637Y-133070241D01*
X117754759Y-132870363D01*
X117519727Y-132713320D01*
X117258574Y-132605147D01*
X116981335Y-132550000D01*
X116698665Y-132550000D01*
X116421426Y-132605147D01*
X116160273Y-132713320D01*
X115925241Y-132870363D01*
X115725363Y-133070241D01*
X115570000Y-133302759D01*
X115414637Y-133070241D01*
X115214759Y-132870363D01*
X114979727Y-132713320D01*
X114718574Y-132605147D01*
X114441335Y-132550000D01*
X114158665Y-132550000D01*
X113881426Y-132605147D01*
X113620273Y-132713320D01*
X113385241Y-132870363D01*
X113185363Y-133070241D01*
X113030000Y-133302759D01*
X112874637Y-133070241D01*
X112674759Y-132870363D01*
X112439727Y-132713320D01*
X112178574Y-132605147D01*
X111901335Y-132550000D01*
X111618665Y-132550000D01*
X111341426Y-132605147D01*
X111080273Y-132713320D01*
X110845241Y-132870363D01*
X110645363Y-133070241D01*
X110490000Y-133302759D01*
X110334637Y-133070241D01*
X110134759Y-132870363D01*
X109899727Y-132713320D01*
X109638574Y-132605147D01*
X109361335Y-132550000D01*
X109078665Y-132550000D01*
X108801426Y-132605147D01*
X108540273Y-132713320D01*
X108305241Y-132870363D01*
X108105363Y-133070241D01*
X107950000Y-133302759D01*
X107794637Y-133070241D01*
X107594759Y-132870363D01*
X107359727Y-132713320D01*
X107098574Y-132605147D01*
X106821335Y-132550000D01*
X106538665Y-132550000D01*
X106261426Y-132605147D01*
X106000273Y-132713320D01*
X105765241Y-132870363D01*
X105566643Y-133068961D01*
X105565812Y-133060518D01*
X105529502Y-132940820D01*
X105470537Y-132830506D01*
X105391185Y-132733815D01*
X105294494Y-132654463D01*
X105184180Y-132595498D01*
X105064482Y-132559188D01*
X104940000Y-132546928D01*
X104425750Y-132550000D01*
X104267000Y-132708750D01*
X104013000Y-132708750D01*
X103854250Y-132550000D01*
X103340000Y-132546928D01*
X103215518Y-132559188D01*
X103095820Y-132595498D01*
X102985506Y-132654463D01*
X102888815Y-132733815D01*
X102809463Y-132830506D01*
X102750498Y-132940820D01*
X102714188Y-133060518D01*
X102701928Y-133185000D01*
X97301920Y-133185000D01*
X97301920Y-121143665D01*
X102705000Y-121143665D01*
X102705000Y-121426335D01*
X102760147Y-121703574D01*
X102868320Y-121964727D01*
X103025363Y-122199759D01*
X103225241Y-122399637D01*
X103460273Y-122556680D01*
X103721426Y-122664853D01*
X103998665Y-122720000D01*
X104281335Y-122720000D01*
X104558574Y-122664853D01*
X104819727Y-122556680D01*
X105054759Y-122399637D01*
X105254637Y-122199759D01*
X105410000Y-121967241D01*
X105565363Y-122199759D01*
X105765241Y-122399637D01*
X106000273Y-122556680D01*
X106261426Y-122664853D01*
X106538665Y-122720000D01*
X106821335Y-122720000D01*
X107098574Y-122664853D01*
X107359727Y-122556680D01*
X107594759Y-122399637D01*
X107794637Y-122199759D01*
X107950000Y-121967241D01*
X108105363Y-122199759D01*
X108305241Y-122399637D01*
X108540273Y-122556680D01*
X108801426Y-122664853D01*
X109078665Y-122720000D01*
X109361335Y-122720000D01*
X109638574Y-122664853D01*
X109899727Y-122556680D01*
X110134759Y-122399637D01*
X110334637Y-122199759D01*
X110490000Y-121967241D01*
X110645363Y-122199759D01*
X110845241Y-122399637D01*
X111080273Y-122556680D01*
X111341426Y-122664853D01*
X111618665Y-122720000D01*
X111901335Y-122720000D01*
X112178574Y-122664853D01*
X112439727Y-122556680D01*
X112674759Y-122399637D01*
X112874637Y-122199759D01*
X113030000Y-121967241D01*
X113185363Y-122199759D01*
X113385241Y-122399637D01*
X113620273Y-122556680D01*
X113881426Y-122664853D01*
X114158665Y-122720000D01*
X114441335Y-122720000D01*
X114718574Y-122664853D01*
X114979727Y-122556680D01*
X115214759Y-122399637D01*
X115414637Y-122199759D01*
X115570000Y-121967241D01*
X115725363Y-122199759D01*
X115925241Y-122399637D01*
X116160273Y-122556680D01*
X116421426Y-122664853D01*
X116698665Y-122720000D01*
X116981335Y-122720000D01*
X117258574Y-122664853D01*
X117519727Y-122556680D01*
X117622923Y-122487727D01*
X119255000Y-124119804D01*
X119255001Y-125661288D01*
X119211063Y-125705226D01*
X119097795Y-125874744D01*
X119019774Y-126063102D01*
X118980000Y-126263061D01*
X118980000Y-126466939D01*
X119019774Y-126666898D01*
X119097795Y-126855256D01*
X119211063Y-127024774D01*
X119255001Y-127068712D01*
X119255000Y-128201289D01*
X119211063Y-128245226D01*
X119097795Y-128414744D01*
X119019774Y-128603102D01*
X118980000Y-128803061D01*
X118980000Y-129006939D01*
X119019774Y-129206898D01*
X119097795Y-129395256D01*
X119211063Y-129564774D01*
X119355226Y-129708937D01*
X119524744Y-129822205D01*
X119713102Y-129900226D01*
X119913061Y-129940000D01*
X120116939Y-129940000D01*
X120316898Y-129900226D01*
X120505256Y-129822205D01*
X120674774Y-129708937D01*
X120818937Y-129564774D01*
X120932205Y-129395256D01*
X121010226Y-129206898D01*
X121050000Y-129006939D01*
X121050000Y-128803061D01*
X121010226Y-128603102D01*
X120932205Y-128414744D01*
X120818937Y-128245226D01*
X120775000Y-128201289D01*
X120775000Y-127068711D01*
X120818937Y-127024774D01*
X120932205Y-126855256D01*
X121010226Y-126666898D01*
X121050000Y-126466939D01*
X121050000Y-126263061D01*
X121010226Y-126063102D01*
X120932205Y-125874744D01*
X120818937Y-125705226D01*
X120775000Y-125661289D01*
X120775000Y-123842324D01*
X120778676Y-123805001D01*
X120775000Y-123767678D01*
X120775000Y-123767669D01*
X120764003Y-123656016D01*
X120720546Y-123512755D01*
X120649974Y-123380726D01*
X120555001Y-123265001D01*
X120526004Y-123241204D01*
X119905403Y-122620603D01*
X120059727Y-122556680D01*
X120294759Y-122399637D01*
X120494637Y-122199759D01*
X120650000Y-121967241D01*
X120805363Y-122199759D01*
X121005241Y-122399637D01*
X121240273Y-122556680D01*
X121501426Y-122664853D01*
X121778665Y-122720000D01*
X122061335Y-122720000D01*
X122338574Y-122664853D01*
X122599727Y-122556680D01*
X122834759Y-122399637D01*
X123034637Y-122199759D01*
X123190000Y-121967241D01*
X123345363Y-122199759D01*
X123545241Y-122399637D01*
X123780273Y-122556680D01*
X124041426Y-122664853D01*
X124318665Y-122720000D01*
X124601335Y-122720000D01*
X124878574Y-122664853D01*
X125139727Y-122556680D01*
X125374759Y-122399637D01*
X125574637Y-122199759D01*
X125730000Y-121967241D01*
X125885363Y-122199759D01*
X126085241Y-122399637D01*
X126320273Y-122556680D01*
X126581426Y-122664853D01*
X126858665Y-122720000D01*
X127141335Y-122720000D01*
X127418574Y-122664853D01*
X127679727Y-122556680D01*
X127914759Y-122399637D01*
X128114637Y-122199759D01*
X128270000Y-121967241D01*
X128425363Y-122199759D01*
X128625241Y-122399637D01*
X128860273Y-122556680D01*
X129121426Y-122664853D01*
X129398665Y-122720000D01*
X129681335Y-122720000D01*
X129958574Y-122664853D01*
X130219727Y-122556680D01*
X130454759Y-122399637D01*
X130654637Y-122199759D01*
X130810000Y-121967241D01*
X130965363Y-122199759D01*
X131165241Y-122399637D01*
X131400273Y-122556680D01*
X131661426Y-122664853D01*
X131938665Y-122720000D01*
X132221335Y-122720000D01*
X132498574Y-122664853D01*
X132759727Y-122556680D01*
X132994759Y-122399637D01*
X133194637Y-122199759D01*
X133350000Y-121967241D01*
X133505363Y-122199759D01*
X133705241Y-122399637D01*
X133940273Y-122556680D01*
X134201426Y-122664853D01*
X134478665Y-122720000D01*
X134761335Y-122720000D01*
X135038574Y-122664853D01*
X135299727Y-122556680D01*
X135534759Y-122399637D01*
X135734637Y-122199759D01*
X135890000Y-121967241D01*
X136045363Y-122199759D01*
X136245241Y-122399637D01*
X136480273Y-122556680D01*
X136741426Y-122664853D01*
X137018665Y-122720000D01*
X137301335Y-122720000D01*
X137578574Y-122664853D01*
X137839727Y-122556680D01*
X138074759Y-122399637D01*
X138274637Y-122199759D01*
X138430000Y-121967241D01*
X138585363Y-122199759D01*
X138785241Y-122399637D01*
X139020273Y-122556680D01*
X139281426Y-122664853D01*
X139558665Y-122720000D01*
X139841335Y-122720000D01*
X140118574Y-122664853D01*
X140379727Y-122556680D01*
X140614759Y-122399637D01*
X140814637Y-122199759D01*
X140970000Y-121967241D01*
X141125363Y-122199759D01*
X141325241Y-122399637D01*
X141560273Y-122556680D01*
X141821426Y-122664853D01*
X142098665Y-122720000D01*
X142381335Y-122720000D01*
X142658574Y-122664853D01*
X142919727Y-122556680D01*
X143154759Y-122399637D01*
X143354637Y-122199759D01*
X143511680Y-121964727D01*
X143619853Y-121703574D01*
X143675000Y-121426335D01*
X143675000Y-121143665D01*
X143619853Y-120866426D01*
X143511680Y-120605273D01*
X143354637Y-120370241D01*
X143154759Y-120170363D01*
X142919727Y-120013320D01*
X142658574Y-119905147D01*
X142381335Y-119850000D01*
X142098665Y-119850000D01*
X141821426Y-119905147D01*
X141560273Y-120013320D01*
X141325241Y-120170363D01*
X141125363Y-120370241D01*
X140970000Y-120602759D01*
X140814637Y-120370241D01*
X140614759Y-120170363D01*
X140379727Y-120013320D01*
X140118574Y-119905147D01*
X139841335Y-119850000D01*
X139558665Y-119850000D01*
X139281426Y-119905147D01*
X139020273Y-120013320D01*
X138785241Y-120170363D01*
X138585363Y-120370241D01*
X138430000Y-120602759D01*
X138274637Y-120370241D01*
X138074759Y-120170363D01*
X137839727Y-120013320D01*
X137578574Y-119905147D01*
X137301335Y-119850000D01*
X137018665Y-119850000D01*
X136741426Y-119905147D01*
X136480273Y-120013320D01*
X136245241Y-120170363D01*
X136045363Y-120370241D01*
X135890000Y-120602759D01*
X135734637Y-120370241D01*
X135534759Y-120170363D01*
X135299727Y-120013320D01*
X135038574Y-119905147D01*
X134761335Y-119850000D01*
X134478665Y-119850000D01*
X134201426Y-119905147D01*
X133940273Y-120013320D01*
X133705241Y-120170363D01*
X133505363Y-120370241D01*
X133350000Y-120602759D01*
X133194637Y-120370241D01*
X132994759Y-120170363D01*
X132759727Y-120013320D01*
X132498574Y-119905147D01*
X132221335Y-119850000D01*
X131938665Y-119850000D01*
X131661426Y-119905147D01*
X131400273Y-120013320D01*
X131165241Y-120170363D01*
X130965363Y-120370241D01*
X130810000Y-120602759D01*
X130654637Y-120370241D01*
X130454759Y-120170363D01*
X130219727Y-120013320D01*
X129958574Y-119905147D01*
X129681335Y-119850000D01*
X129398665Y-119850000D01*
X129121426Y-119905147D01*
X128860273Y-120013320D01*
X128625241Y-120170363D01*
X128425363Y-120370241D01*
X128270000Y-120602759D01*
X128114637Y-120370241D01*
X127914759Y-120170363D01*
X127679727Y-120013320D01*
X127418574Y-119905147D01*
X127141335Y-119850000D01*
X126858665Y-119850000D01*
X126581426Y-119905147D01*
X126320273Y-120013320D01*
X126085241Y-120170363D01*
X125885363Y-120370241D01*
X125730000Y-120602759D01*
X125574637Y-120370241D01*
X125374759Y-120170363D01*
X125139727Y-120013320D01*
X124878574Y-119905147D01*
X124601335Y-119850000D01*
X124318665Y-119850000D01*
X124041426Y-119905147D01*
X123780273Y-120013320D01*
X123545241Y-120170363D01*
X123345363Y-120370241D01*
X123190000Y-120602759D01*
X123034637Y-120370241D01*
X122834759Y-120170363D01*
X122599727Y-120013320D01*
X122338574Y-119905147D01*
X122061335Y-119850000D01*
X121778665Y-119850000D01*
X121501426Y-119905147D01*
X121240273Y-120013320D01*
X121005241Y-120170363D01*
X120805363Y-120370241D01*
X120650000Y-120602759D01*
X120494637Y-120370241D01*
X120294759Y-120170363D01*
X120059727Y-120013320D01*
X119798574Y-119905147D01*
X119521335Y-119850000D01*
X119238665Y-119850000D01*
X118961426Y-119905147D01*
X118760000Y-119988580D01*
X118760000Y-116696740D01*
X141880964Y-116696740D01*
X141905245Y-116802087D01*
X142025138Y-117079204D01*
X142196790Y-117327606D01*
X142413604Y-117537748D01*
X142667249Y-117701554D01*
X142947977Y-117812729D01*
X143245000Y-117867000D01*
X144145000Y-117867000D01*
X144145000Y-116459000D01*
X144399000Y-116459000D01*
X144399000Y-117867000D01*
X145299000Y-117867000D01*
X145596023Y-117812729D01*
X145876751Y-117701554D01*
X146130396Y-117537748D01*
X146347210Y-117327606D01*
X146518862Y-117079204D01*
X146638755Y-116802087D01*
X146663036Y-116696740D01*
X146542378Y-116459000D01*
X144399000Y-116459000D01*
X144145000Y-116459000D01*
X142001622Y-116459000D01*
X141880964Y-116696740D01*
X118760000Y-116696740D01*
X118760000Y-115967260D01*
X141880964Y-115967260D01*
X142001622Y-116205000D01*
X144145000Y-116205000D01*
X144145000Y-114797000D01*
X144399000Y-114797000D01*
X144399000Y-116205000D01*
X146542378Y-116205000D01*
X146663036Y-115967260D01*
X146638755Y-115861913D01*
X146518862Y-115584796D01*
X146347210Y-115336394D01*
X146130396Y-115126252D01*
X145876751Y-114962446D01*
X145596023Y-114851271D01*
X145299000Y-114797000D01*
X144399000Y-114797000D01*
X144145000Y-114797000D01*
X143245000Y-114797000D01*
X142947977Y-114851271D01*
X142667249Y-114962446D01*
X142413604Y-115126252D01*
X142196790Y-115336394D01*
X142025138Y-115584796D01*
X141905245Y-115861913D01*
X141880964Y-115967260D01*
X118760000Y-115967260D01*
X118760000Y-111932000D01*
X141833928Y-111932000D01*
X141833928Y-113732000D01*
X141846188Y-113856482D01*
X141882498Y-113976180D01*
X141941463Y-114086494D01*
X142020815Y-114183185D01*
X142117506Y-114262537D01*
X142227820Y-114321502D01*
X142347518Y-114357812D01*
X142472000Y-114370072D01*
X146072000Y-114370072D01*
X146196482Y-114357812D01*
X146316180Y-114321502D01*
X146426494Y-114262537D01*
X146523185Y-114183185D01*
X146602537Y-114086494D01*
X146661502Y-113976180D01*
X146697812Y-113856482D01*
X146710072Y-113732000D01*
X146710072Y-111932000D01*
X146697812Y-111807518D01*
X146661502Y-111687820D01*
X146602537Y-111577506D01*
X146523185Y-111480815D01*
X146426494Y-111401463D01*
X146316180Y-111342498D01*
X146196482Y-111306188D01*
X146072000Y-111293928D01*
X142472000Y-111293928D01*
X142347518Y-111306188D01*
X142227820Y-111342498D01*
X142117506Y-111401463D01*
X142020815Y-111480815D01*
X141941463Y-111577506D01*
X141882498Y-111687820D01*
X141846188Y-111807518D01*
X141833928Y-111932000D01*
X118760000Y-111932000D01*
X118760000Y-107703711D01*
X118803937Y-107659774D01*
X118917205Y-107490256D01*
X118995226Y-107301898D01*
X119035000Y-107101939D01*
X119035000Y-106898061D01*
X118995226Y-106698102D01*
X118917205Y-106509744D01*
X118803937Y-106340226D01*
X118659774Y-106196063D01*
X118490256Y-106082795D01*
X118301898Y-106004774D01*
X118101939Y-105965000D01*
X117898061Y-105965000D01*
X117698102Y-106004774D01*
X117509744Y-106082795D01*
X117340226Y-106196063D01*
X117296289Y-106240000D01*
X107836000Y-106240000D01*
X107836000Y-103403061D01*
X129140000Y-103403061D01*
X129140000Y-103606939D01*
X129179774Y-103806898D01*
X129257795Y-103995256D01*
X129371063Y-104164774D01*
X129515226Y-104308937D01*
X129684744Y-104422205D01*
X129873102Y-104500226D01*
X130073061Y-104540000D01*
X130276939Y-104540000D01*
X130476898Y-104500226D01*
X130665256Y-104422205D01*
X130834774Y-104308937D01*
X130878711Y-104265000D01*
X133916289Y-104265000D01*
X133960226Y-104308937D01*
X134129744Y-104422205D01*
X134318102Y-104500226D01*
X134518061Y-104540000D01*
X134721939Y-104540000D01*
X134921898Y-104500226D01*
X135110256Y-104422205D01*
X135279774Y-104308937D01*
X135423937Y-104164774D01*
X135537205Y-103995256D01*
X135615226Y-103806898D01*
X135655000Y-103606939D01*
X135655000Y-103403061D01*
X135615226Y-103203102D01*
X135537205Y-103014744D01*
X135423937Y-102845226D01*
X135279774Y-102701063D01*
X135110256Y-102587795D01*
X134921898Y-102509774D01*
X134721939Y-102470000D01*
X134518061Y-102470000D01*
X134318102Y-102509774D01*
X134129744Y-102587795D01*
X133960226Y-102701063D01*
X133916289Y-102745000D01*
X130878711Y-102745000D01*
X130834774Y-102701063D01*
X130665256Y-102587795D01*
X130476898Y-102509774D01*
X130276939Y-102470000D01*
X130073061Y-102470000D01*
X129873102Y-102509774D01*
X129684744Y-102587795D01*
X129515226Y-102701063D01*
X129371063Y-102845226D01*
X129257795Y-103014744D01*
X129179774Y-103203102D01*
X129140000Y-103403061D01*
X107836000Y-103403061D01*
X107836000Y-103147395D01*
X108044927Y-103035721D01*
X108278661Y-102843901D01*
X108470481Y-102610167D01*
X108613017Y-102343501D01*
X108700790Y-102054153D01*
X108723000Y-101828648D01*
X108723000Y-99877832D01*
X108700790Y-99652327D01*
X108613017Y-99362979D01*
X108470481Y-99096313D01*
X108278661Y-98862579D01*
X108044926Y-98670759D01*
X107778260Y-98528223D01*
X107488912Y-98440450D01*
X107188000Y-98410813D01*
X106887087Y-98440450D01*
X106597739Y-98528223D01*
X106331073Y-98670759D01*
X106097339Y-98862579D01*
X105905519Y-99096314D01*
X105762983Y-99362980D01*
X105675210Y-99652328D01*
X105653000Y-99877833D01*
X105653000Y-101828648D01*
X105675211Y-102054153D01*
X105762984Y-102343501D01*
X105905520Y-102610167D01*
X106097340Y-102843901D01*
X106316001Y-103023351D01*
X106316000Y-107038677D01*
X106312324Y-107076000D01*
X106316000Y-107113322D01*
X106316000Y-107113332D01*
X106316001Y-107113342D01*
X106316000Y-110541710D01*
X106219073Y-110593519D01*
X105985339Y-110785339D01*
X105793519Y-111019074D01*
X105650983Y-111285740D01*
X105563210Y-111575088D01*
X105541000Y-111800593D01*
X105541000Y-113751408D01*
X105563211Y-113976913D01*
X105650984Y-114266261D01*
X105793520Y-114532927D01*
X105985340Y-114766661D01*
X106219074Y-114958481D01*
X106485740Y-115101017D01*
X106775088Y-115188790D01*
X107076000Y-115218427D01*
X107376913Y-115188790D01*
X107666261Y-115101017D01*
X107932927Y-114958481D01*
X108166661Y-114766661D01*
X108358481Y-114532927D01*
X108501017Y-114266261D01*
X108588790Y-113976913D01*
X108611000Y-113751408D01*
X108611000Y-111800592D01*
X108588790Y-111575087D01*
X108501017Y-111285739D01*
X108358481Y-111019073D01*
X108166661Y-110785339D01*
X107932926Y-110593519D01*
X107836000Y-110541711D01*
X107836000Y-107760000D01*
X117240000Y-107760000D01*
X117240001Y-119901453D01*
X116981335Y-119850000D01*
X116698665Y-119850000D01*
X116421426Y-119905147D01*
X116160273Y-120013320D01*
X115925241Y-120170363D01*
X115725363Y-120370241D01*
X115570000Y-120602759D01*
X115414637Y-120370241D01*
X115214759Y-120170363D01*
X114979727Y-120013320D01*
X114718574Y-119905147D01*
X114441335Y-119850000D01*
X114158665Y-119850000D01*
X113881426Y-119905147D01*
X113620273Y-120013320D01*
X113385241Y-120170363D01*
X113185363Y-120370241D01*
X113030000Y-120602759D01*
X112874637Y-120370241D01*
X112674759Y-120170363D01*
X112439727Y-120013320D01*
X112178574Y-119905147D01*
X111901335Y-119850000D01*
X111618665Y-119850000D01*
X111341426Y-119905147D01*
X111080273Y-120013320D01*
X110845241Y-120170363D01*
X110645363Y-120370241D01*
X110490000Y-120602759D01*
X110334637Y-120370241D01*
X110134759Y-120170363D01*
X109899727Y-120013320D01*
X109638574Y-119905147D01*
X109361335Y-119850000D01*
X109078665Y-119850000D01*
X108801426Y-119905147D01*
X108540273Y-120013320D01*
X108305241Y-120170363D01*
X108105363Y-120370241D01*
X107950000Y-120602759D01*
X107794637Y-120370241D01*
X107594759Y-120170363D01*
X107359727Y-120013320D01*
X107098574Y-119905147D01*
X106821335Y-119850000D01*
X106538665Y-119850000D01*
X106261426Y-119905147D01*
X106000273Y-120013320D01*
X105765241Y-120170363D01*
X105565363Y-120370241D01*
X105410000Y-120602759D01*
X105254637Y-120370241D01*
X105054759Y-120170363D01*
X104819727Y-120013320D01*
X104558574Y-119905147D01*
X104281335Y-119850000D01*
X103998665Y-119850000D01*
X103721426Y-119905147D01*
X103460273Y-120013320D01*
X103225241Y-120170363D01*
X103025363Y-120370241D01*
X102868320Y-120605273D01*
X102760147Y-120866426D01*
X102705000Y-121143665D01*
X97301920Y-121143665D01*
X97301920Y-114576000D01*
X98537928Y-114576000D01*
X98550188Y-114700482D01*
X98586498Y-114820180D01*
X98645463Y-114930494D01*
X98724815Y-115027185D01*
X98821506Y-115106537D01*
X98931820Y-115165502D01*
X99051518Y-115201812D01*
X99176000Y-115214072D01*
X99790250Y-115211000D01*
X99949000Y-115052250D01*
X99949000Y-112903000D01*
X100203000Y-112903000D01*
X100203000Y-115052250D01*
X100361750Y-115211000D01*
X100976000Y-115214072D01*
X101100482Y-115201812D01*
X101220180Y-115165502D01*
X101330494Y-115106537D01*
X101427185Y-115027185D01*
X101506537Y-114930494D01*
X101565502Y-114820180D01*
X101601812Y-114700482D01*
X101614072Y-114576000D01*
X101611000Y-113061750D01*
X101452250Y-112903000D01*
X100203000Y-112903000D01*
X99949000Y-112903000D01*
X98699750Y-112903000D01*
X98541000Y-113061750D01*
X98537928Y-114576000D01*
X97301920Y-114576000D01*
X97301920Y-110976000D01*
X98537928Y-110976000D01*
X98541000Y-112490250D01*
X98699750Y-112649000D01*
X99949000Y-112649000D01*
X99949000Y-110499750D01*
X100203000Y-110499750D01*
X100203000Y-112649000D01*
X101452250Y-112649000D01*
X101611000Y-112490250D01*
X101612399Y-111800593D01*
X102041000Y-111800593D01*
X102041000Y-113751408D01*
X102063211Y-113976913D01*
X102150984Y-114266261D01*
X102293520Y-114532927D01*
X102485340Y-114766661D01*
X102719074Y-114958481D01*
X102985740Y-115101017D01*
X103275088Y-115188790D01*
X103576000Y-115218427D01*
X103876913Y-115188790D01*
X104166261Y-115101017D01*
X104432927Y-114958481D01*
X104666661Y-114766661D01*
X104858481Y-114532927D01*
X105001017Y-114266261D01*
X105088790Y-113976913D01*
X105111000Y-113751408D01*
X105111000Y-111800592D01*
X105088790Y-111575087D01*
X105001017Y-111285739D01*
X104858481Y-111019073D01*
X104666661Y-110785339D01*
X104432926Y-110593519D01*
X104166260Y-110450983D01*
X103876912Y-110363210D01*
X103576000Y-110333573D01*
X103275087Y-110363210D01*
X102985739Y-110450983D01*
X102719073Y-110593519D01*
X102485339Y-110785339D01*
X102293519Y-111019074D01*
X102150983Y-111285740D01*
X102063210Y-111575088D01*
X102041000Y-111800593D01*
X101612399Y-111800593D01*
X101614072Y-110976000D01*
X101601812Y-110851518D01*
X101565502Y-110731820D01*
X101506537Y-110621506D01*
X101427185Y-110524815D01*
X101330494Y-110445463D01*
X101220180Y-110386498D01*
X101100482Y-110350188D01*
X100976000Y-110337928D01*
X100361750Y-110341000D01*
X100203000Y-110499750D01*
X99949000Y-110499750D01*
X99790250Y-110341000D01*
X99176000Y-110337928D01*
X99051518Y-110350188D01*
X98931820Y-110386498D01*
X98821506Y-110445463D01*
X98724815Y-110524815D01*
X98645463Y-110621506D01*
X98586498Y-110731820D01*
X98550188Y-110851518D01*
X98537928Y-110976000D01*
X97301920Y-110976000D01*
X97301920Y-102653240D01*
X98649928Y-102653240D01*
X98662188Y-102777722D01*
X98698498Y-102897420D01*
X98757463Y-103007734D01*
X98836815Y-103104425D01*
X98933506Y-103183777D01*
X99043820Y-103242742D01*
X99163518Y-103279052D01*
X99288000Y-103291312D01*
X99902250Y-103288240D01*
X100061000Y-103129490D01*
X100061000Y-100980240D01*
X100315000Y-100980240D01*
X100315000Y-103129490D01*
X100473750Y-103288240D01*
X101088000Y-103291312D01*
X101212482Y-103279052D01*
X101332180Y-103242742D01*
X101442494Y-103183777D01*
X101539185Y-103104425D01*
X101618537Y-103007734D01*
X101677502Y-102897420D01*
X101713812Y-102777722D01*
X101726072Y-102653240D01*
X101723000Y-101138990D01*
X101564250Y-100980240D01*
X100315000Y-100980240D01*
X100061000Y-100980240D01*
X98811750Y-100980240D01*
X98653000Y-101138990D01*
X98649928Y-102653240D01*
X97301920Y-102653240D01*
X97301920Y-99053240D01*
X98649928Y-99053240D01*
X98653000Y-100567490D01*
X98811750Y-100726240D01*
X100061000Y-100726240D01*
X100061000Y-98576990D01*
X100315000Y-98576990D01*
X100315000Y-100726240D01*
X101564250Y-100726240D01*
X101723000Y-100567490D01*
X101724399Y-99877833D01*
X102153000Y-99877833D01*
X102153000Y-101828648D01*
X102175211Y-102054153D01*
X102262984Y-102343501D01*
X102405520Y-102610167D01*
X102597340Y-102843901D01*
X102831074Y-103035721D01*
X103097740Y-103178257D01*
X103387088Y-103266030D01*
X103688000Y-103295667D01*
X103988913Y-103266030D01*
X104278261Y-103178257D01*
X104544927Y-103035721D01*
X104778661Y-102843901D01*
X104970481Y-102610167D01*
X105113017Y-102343501D01*
X105200790Y-102054153D01*
X105223000Y-101828648D01*
X105223000Y-99877832D01*
X105200790Y-99652327D01*
X105113017Y-99362979D01*
X104970481Y-99096313D01*
X104778661Y-98862579D01*
X104544926Y-98670759D01*
X104278260Y-98528223D01*
X103988912Y-98440450D01*
X103688000Y-98410813D01*
X103387087Y-98440450D01*
X103097739Y-98528223D01*
X102831073Y-98670759D01*
X102597339Y-98862579D01*
X102405519Y-99096314D01*
X102262983Y-99362980D01*
X102175210Y-99652328D01*
X102153000Y-99877833D01*
X101724399Y-99877833D01*
X101726072Y-99053240D01*
X101713812Y-98928758D01*
X101677502Y-98809060D01*
X101618537Y-98698746D01*
X101539185Y-98602055D01*
X101442494Y-98522703D01*
X101332180Y-98463738D01*
X101212482Y-98427428D01*
X101088000Y-98415168D01*
X100473750Y-98418240D01*
X100315000Y-98576990D01*
X100061000Y-98576990D01*
X99902250Y-98418240D01*
X99288000Y-98415168D01*
X99163518Y-98427428D01*
X99043820Y-98463738D01*
X98933506Y-98522703D01*
X98836815Y-98602055D01*
X98757463Y-98698746D01*
X98698498Y-98809060D01*
X98662188Y-98928758D01*
X98649928Y-99053240D01*
X97301920Y-99053240D01*
X97301920Y-97643740D01*
X135675000Y-97643740D01*
X135675000Y-97936260D01*
X135732068Y-98223158D01*
X135844010Y-98493411D01*
X136006525Y-98736632D01*
X136213368Y-98943475D01*
X136456589Y-99105990D01*
X136726842Y-99217932D01*
X137013740Y-99275000D01*
X137306260Y-99275000D01*
X137593158Y-99217932D01*
X137863411Y-99105990D01*
X138106632Y-98943475D01*
X138313475Y-98736632D01*
X138430000Y-98562240D01*
X138546525Y-98736632D01*
X138753368Y-98943475D01*
X138996589Y-99105990D01*
X139266842Y-99217932D01*
X139553740Y-99275000D01*
X139846260Y-99275000D01*
X140133158Y-99217932D01*
X140403411Y-99105990D01*
X140646632Y-98943475D01*
X140778487Y-98811620D01*
X140800498Y-98884180D01*
X140859463Y-98994494D01*
X140938815Y-99091185D01*
X141035506Y-99170537D01*
X141145820Y-99229502D01*
X141265518Y-99265812D01*
X141390000Y-99278072D01*
X141954250Y-99275000D01*
X142113000Y-99116250D01*
X142113000Y-97917000D01*
X142367000Y-97917000D01*
X142367000Y-99116250D01*
X142525750Y-99275000D01*
X143090000Y-99278072D01*
X143214482Y-99265812D01*
X143334180Y-99229502D01*
X143444494Y-99170537D01*
X143541185Y-99091185D01*
X143620537Y-98994494D01*
X143679502Y-98884180D01*
X143715812Y-98764482D01*
X143728072Y-98640000D01*
X143725000Y-98075750D01*
X143566250Y-97917000D01*
X142367000Y-97917000D01*
X142113000Y-97917000D01*
X142093000Y-97917000D01*
X142093000Y-97663000D01*
X142113000Y-97663000D01*
X142113000Y-96463750D01*
X142367000Y-96463750D01*
X142367000Y-97663000D01*
X143566250Y-97663000D01*
X143725000Y-97504250D01*
X143728072Y-96940000D01*
X143715812Y-96815518D01*
X143679502Y-96695820D01*
X143620537Y-96585506D01*
X143541185Y-96488815D01*
X143444494Y-96409463D01*
X143334180Y-96350498D01*
X143214482Y-96314188D01*
X143090000Y-96301928D01*
X142525750Y-96305000D01*
X142367000Y-96463750D01*
X142113000Y-96463750D01*
X141954250Y-96305000D01*
X141390000Y-96301928D01*
X141265518Y-96314188D01*
X141145820Y-96350498D01*
X141035506Y-96409463D01*
X140938815Y-96488815D01*
X140859463Y-96585506D01*
X140800498Y-96695820D01*
X140778487Y-96768380D01*
X140646632Y-96636525D01*
X140403411Y-96474010D01*
X140133158Y-96362068D01*
X139846260Y-96305000D01*
X139553740Y-96305000D01*
X139266842Y-96362068D01*
X138996589Y-96474010D01*
X138753368Y-96636525D01*
X138546525Y-96843368D01*
X138430000Y-97017760D01*
X138313475Y-96843368D01*
X138106632Y-96636525D01*
X137863411Y-96474010D01*
X137593158Y-96362068D01*
X137306260Y-96305000D01*
X137013740Y-96305000D01*
X136726842Y-96362068D01*
X136456589Y-96474010D01*
X136213368Y-96636525D01*
X136006525Y-96843368D01*
X135844010Y-97086589D01*
X135732068Y-97356842D01*
X135675000Y-97643740D01*
X97301920Y-97643740D01*
X97301920Y-94955148D01*
X150165201Y-94935254D01*
X150165200Y-163449400D01*
M02*
