M48
; DRILL file {KiCad (5.1.6)-1} date 05/30/20 15:14:54
; FORMAT={-:-/ absolute / inch / decimal}
; #@! TF.CreationDate,2020-05-30T15:14:54+10:00
; #@! TF.GenerationSoftware,Kicad,Pcbnew,(5.1.6)-1
; #@! TF.FileFunction,Plated,1,2,PTH
FMAT,2
INCH
T1C0.0157
T2C0.0315
T3C0.0394
T4C0.0433
T5C0.0472
%
G90
G05
T1
X4.25Y-5.5
X4.4Y-5.5
X4.4Y-5.5
X4.55Y-5.5
X4.6457Y-4.2126
X4.7Y-5.5
X4.725Y-4.975
X4.725Y-5.075
X5.042Y-4.1412
X5.05Y-5.5
X5.054Y-3.8226
X5.125Y-4.075
X5.2Y-5.5
X5.3Y-4.075
X5.35Y-5.5
X5.4932Y-4.3666
X5.5Y-5.5
T2
X4.1Y-4.775
X4.1Y-5.275
X4.2Y-4.775
X4.2Y-5.275
X4.3Y-4.775
X4.3Y-5.275
X4.4Y-4.775
X4.4Y-5.275
X4.5Y-4.775
X4.5Y-5.275
X4.6Y-4.775
X4.6Y-5.275
X4.7Y-4.775
X4.7Y-5.275
X4.8Y-4.775
X4.8Y-5.275
X4.9Y-4.775
X4.9Y-5.275
X5.0Y-4.775
X5.0Y-5.275
X5.1Y-4.775
X5.1Y-5.275
X5.2Y-4.775
X5.2Y-5.275
X5.3Y-4.775
X5.3Y-5.275
X5.4Y-4.775
X5.4Y-5.275
X5.5Y-4.775
X5.5Y-5.275
X5.6Y-4.775
X5.6Y-5.275
T3
X5.4Y-3.85
X5.5Y-3.85
X5.6Y-3.85
T4
X5.5492Y-3.3862
X5.5492Y-3.6421
X5.7264Y-3.3862
X5.7264Y-3.6421
X4.04Y-3.4
X4.04Y-3.6559
X4.2172Y-3.4
X4.2172Y-3.6559
T5
X4.275Y-5.8
X4.4128Y-5.8
X4.5506Y-5.8
X4.6884Y-5.8
X3.94Y-4.44
X4.0778Y-4.44
X4.2156Y-4.44
X5.68Y-4.4422
X5.68Y-4.58
X3.9444Y-3.9706
X4.0822Y-3.9706
X4.22Y-3.9706
X5.0494Y-5.8
X5.1872Y-5.8
X5.325Y-5.8
X5.4628Y-5.8
T0
M30
